<svg id="Layer_1" data-name="Layer 1" xmlns="http://www.w3.org/2000/svg" xmlns:xlink="http://www.w3.org/1999/xlink" viewBox="0 0 437.45 138.51"><defs><style>.cls-1{fill:#fff;}.cls-2{clip-path:url(#clip-path);}</style><clipPath id="clip-path"><path class="cls-1" d="M79.36,99.27c4.43-2,7.15-5,7.58-10.23.34-4.21-2.55-5.67-5.11-7.36-5.23-3.44-11.23-4.75-17.38-5.45-7.62-.87-15-2.48-21.91-6.11-5.76-3-10.36-7.09-13.37-13.07-2.05-4.07-2-8.22-1.61-12.38.94-9,5-16.34,12.59-21.49a33.61,33.61,0,0,1,13.17-5.11c10.18-1.84,20.37-2,30.29,1.16C96,23.12,103.87,31.4,106.44,44.35c.11.59.12,1.2.18,1.92H84c1-5.84-2.66-8.82-7.23-11-7.46-3.48-15-3.79-22.23.56-3.31,2-5.38,4.92-5.05,9.14a7.7,7.7,0,0,0,3.94,6.08A45.32,45.32,0,0,0,61.5,55c5.37,2,11.07,2.42,16.73,3,9.92,1.09,18.73,4.84,25.45,12.34,8.79,9.83,9,23.84,2.25,33.27-4,5.56-9.68,8.63-16,10.68-9.11,3-18.45,3.35-27.92,2.53a56.55,56.55,0,0,1-18.62-4.35c-8-3.58-13.89-9.1-17.18-17.36-.86-2.17-2-4.2-2.11-6.6-.07-1.22.14-1.76,1.61-1.74,6.47.09,13,0,19.42,0h2c1.37,7.83,6.74,11.48,13.57,13.34a32.55,32.55,0,0,0,8.57,1.22,24.55,24.55,0,0,0,10.12-2.11M58.28,0,37.2,0Q23.79,0,10.39,0C3,0,0,3,0,10.35Q0,34.88,0,59.41c0,23.34-.07,46.67,0,70,0,5.63,2.16,7.7,6.17,8.66a17.7,17.7,0,0,0,4,.41q24.2,0,48.39,0c22.89,0,45.78,0,68.66,0,6.1,0,9.85-2.85,9.81-9.72-.12-20,0-40,0-59.95V52.4q0-22.35,0-44.71c0-3.56-1.68-6.06-5-7A19.12,19.12,0,0,0,126.94,0H114.82Q86.56,0,58.28,0"/></clipPath></defs><title>Samaco W-Logo</title><path class="cls-1" d="M173.57,69.12l-.35-.51a19.41,19.41,0,0,0-1.57-1.44,7,7,0,0,0-4.91-1.6,6.36,6.36,0,0,0-1.12.21c-1.68.46-2.63,1.55-3,3.61a3.5,3.5,0,0,0,.68,2.47,9.81,9.81,0,0,0,4.24,2.36,37.66,37.66,0,0,1,6.63,2.62l.21.1A8.29,8.29,0,0,1,177,78.88a13.72,13.72,0,0,1,1.63,1.86,5.32,5.32,0,0,1,1.09,2.94,22.16,22.16,0,0,1,.12,2.22A11.21,11.21,0,0,1,177,92.07a17.73,17.73,0,0,1-5.41,2.84l-.21.07a13.89,13.89,0,0,1-4.82.46c-5.73-.18-7.86-1.75-11.39-4.82a18.31,18.31,0,0,1-1.66-2s5.29-4.09,5.48-4.22l.87,1c1.69,1.92,4.13,3.63,7,3.61,3.75,0,4.71-2.64,4.71-4a3.38,3.38,0,0,0-1.09-2.31A9.69,9.69,0,0,0,167,80.8l-1-.52c-5.4-2.25-2.95-1-5.14-2.12l-.17-.09a16.92,16.92,0,0,1-3.06-1.6,6.53,6.53,0,0,1-2.11-2.27,7.73,7.73,0,0,1-1-4A7.43,7.43,0,0,1,155.72,66a14.48,14.48,0,0,1,2.71-3.54,9.31,9.31,0,0,1,2.41-1.52,13.12,13.12,0,0,1,2.2-.76l.17,0a9.14,9.14,0,0,1,1.2-.3c.54-.09,1-.13,1.3-.16l.65-.06.84,0c5,.12,7.73,1.28,10.26,3.34.22.19.44.37.65.57l.27.26.39.4Z"/><path class="cls-1" d="M217,95.93l-2-7h-9.54l-2.14,7h-10l11-35.44h11.56L227,95.93Zm-9.69-14.72h5.76l-2.88-10.28Z"/><path class="cls-1" d="M283.27,60.61s4.15,32.05,4.52,35.29l0,.26H281.2l-3-25.44-.1.3c-.9,2.87-7.9,25-7.9,25h-3.32l-8.28-25.48-3.16,25.79h-6.64l4.31-35.92h.22c1.59,0,10.09-.07,10.09-.07l0,.18c.43,2,5,19.24,5,19.24L274,60.61Z"/><path class="cls-1" d="M328.11,95.93l-2-7h-9.54l-2.14,7h-8.87l11-35.44h9.34L337,95.93Zm-9.69-14.72h5.76L321.3,70.93Z"/><path class="cls-1" d="M420.55,96.15a16.2,16.2,0,0,1-12.25-5q-4.73-5-4.73-13.27a19.27,19.27,0,0,1,4.52-13.13q4.53-5.17,12.56-5.18a16,16,0,0,1,12.11,4.89q4.69,4.88,4.69,13,0,8.44-4.73,13.53a15.84,15.84,0,0,1-12.17,5.08m-8.9-17.46c0,.13,0,.26,0,.26a14,14,0,0,0,.21,2,10.55,10.55,0,0,0,.47,1.7,6.73,6.73,0,0,0,2.38,3.15,9.6,9.6,0,0,0,5.7,1.51,13.36,13.36,0,0,0,3.92-.51,6.38,6.38,0,0,0,2.83-1.69A8.54,8.54,0,0,0,429,80.35a23.35,23.35,0,0,0,.19-2.92v-.31a13.48,13.48,0,0,0-.11-1.84,9.3,9.3,0,0,0-.44-1.92,6.83,6.83,0,0,0-1.43-2.45,6.54,6.54,0,0,0-2.34-1.56,11.14,11.14,0,0,0-4.14-.69,12.08,12.08,0,0,0-4.15.66A7.17,7.17,0,0,0,414,71a7.63,7.63,0,0,0-1.79,3.11,13.75,13.75,0,0,0-.58,4.22s0,.25,0,.38"/><path class="cls-1" d="M380.49,59.94v9.54s-8.73-1.51-12.65,1.87a9.24,9.24,0,0,0-2.46,10.77s4.08,7.21,15.31,4.74v9.51s-12.44,1.5-19.87-4.8a17.2,17.2,0,0,1-6.13-12.38,16,16,0,0,1,4.4-12.71,20,20,0,0,1,10.48-5.76,48,48,0,0,1,10.92-.78"/><path class="cls-1" d="M79.36,99.27c4.43-2,7.15-5,7.58-10.23.34-4.21-2.55-5.67-5.11-7.36-5.23-3.44-11.23-4.75-17.38-5.45-7.62-.87-15-2.48-21.91-6.11-5.76-3-10.36-7.09-13.37-13.07-2.05-4.07-2-8.22-1.61-12.38.94-9,5-16.34,12.59-21.49a33.61,33.61,0,0,1,13.17-5.11c10.18-1.84,20.37-2,30.29,1.16C96,23.12,103.87,31.4,106.44,44.35c.11.59.12,1.2.18,1.92H84c1-5.84-2.66-8.82-7.23-11-7.46-3.48-15-3.79-22.23.56-3.31,2-5.38,4.92-5.05,9.14a7.7,7.7,0,0,0,3.94,6.08A45.32,45.32,0,0,0,61.5,55c5.37,2,11.07,2.42,16.73,3,9.92,1.09,18.73,4.84,25.45,12.34,8.79,9.83,9,23.84,2.25,33.27-4,5.56-9.68,8.63-16,10.68-9.11,3-18.45,3.35-27.92,2.53a56.55,56.55,0,0,1-18.62-4.35c-8-3.58-13.89-9.1-17.18-17.36-.86-2.17-2-4.2-2.11-6.6-.07-1.22.14-1.76,1.61-1.74,6.47.09,13,0,19.42,0h2c1.37,7.83,6.74,11.48,13.57,13.34a32.55,32.55,0,0,0,8.57,1.22,24.55,24.55,0,0,0,10.12-2.11M58.28,0,37.2,0Q23.79,0,10.39,0C3,0,0,3,0,10.35Q0,34.88,0,59.41c0,23.34-.07,46.67,0,70,0,5.63,2.16,7.7,6.17,8.66a17.7,17.7,0,0,0,4,.41q24.2,0,48.39,0c22.89,0,45.78,0,68.66,0,6.1,0,9.85-2.85,9.81-9.72-.12-20,0-40,0-59.95V52.4q0-22.35,0-44.71c0-3.56-1.68-6.06-5-7A19.12,19.12,0,0,0,126.94,0H114.82Q86.56,0,58.28,0"/><g class="cls-2"><rect class="cls-1" x="-0.05" width="137.15" height="138.54"/></g><path class="cls-1" d="M203.33,24.16c.86-1.15,1.58-2.15,2.33-3.12L217.72,5.56c1.27-1.62,2.54-3.25,3.84-4.84a1.62,1.62,0,0,1,1-.59c3.72,0,7.44,0,11.39,0L223,14.13h1.57q27.94,0,55.88,0A14.47,14.47,0,0,1,295,26.51a14.71,14.71,0,0,1-6.85,14.37,14.56,14.56,0,0,1-7.5,2q-46.16,0-92.31,0a3.51,3.51,0,0,0-3.24,1.76c-1.62,2.3-3.37,4.51-5.11,6.73a1.31,1.31,0,0,1-.94.4c-3.57,0-7.14,0-10.71,0a1.67,1.67,0,0,1-.43-.14c2.18-2.86,4.31-5.66,6.5-8.52-1.8-.31-3.51-.51-5.17-.92-8.09-2-13.15-7.12-15-15.21a19.44,19.44,0,0,1,1.39-13.85A20.41,20.41,0,0,1,169.87,2.33,22,22,0,0,1,189.31,7a18.15,18.15,0,0,1,6.63,12.15,24,24,0,0,1-2.41,13.4c.48,0,.9.07,1.32.07h83.7a4.83,4.83,0,0,0,4.71-3.94,4,4,0,0,0-2.18-3.48,12,12,0,0,0-4.17-1q-36.24-.07-72.49,0Zm-39.18-2.3c0,6.27,4.69,11.15,10.56,11.13,6.14,0,10.7-4.25,10.85-11.22.12-5.54-4.7-9.93-10.44-10.14-6.1-.23-11.22,5.07-11,10.23"/><path class="cls-1" d="M301.36.17h10.26V1.68c0,8.24,0,16.48,0,24.73a5,5,0,0,0,3.78,4.65c1.1.27,2-.42,2.88-1.21a4.1,4.1,0,0,0,1.24-4.21,20.91,20.91,0,0,1,2.39-15,20,20,0,0,1,11.73-9.43,24.08,24.08,0,0,1,17.31.8,19.85,19.85,0,0,1,11.71,13.22,21.1,21.1,0,0,1-3.12,18.9,20.59,20.59,0,0,1-14.68,8.49,23.93,23.93,0,0,1-14.51-2.27,21.72,21.72,0,0,1-2.95-1.89c-.61-.45-1-.49-1.5.11a12.5,12.5,0,0,1-8.11,4.21,14.27,14.27,0,0,1-16.41-14.55q0-13.35,0-26.7ZM341.2,32.6a11.12,11.12,0,1,0-11.1-10.88A11.07,11.07,0,0,0,341.2,32.6"/><path class="cls-1" d="M395.08,39.73c-4.83,3.59-10.1,4.35-15.49,1.68a13.12,13.12,0,0,1-7.8-12.22c-.08-9.19,0-18.38,0-27.57V.19h10v1.4c0,7.88,0,15.76,0,23.63a8.93,8.93,0,0,0,1,3.77,3.46,3.46,0,0,0,3.53,2.06A4.42,4.42,0,0,0,390,27.78a7.12,7.12,0,0,0,.27-2.16c0-4.51,0-9,0-13.61h10V13.3c0,4.19,0,8.37,0,12.56a5.26,5.26,0,0,0,1.86,4.19,3.78,3.78,0,0,0,6.06-1.74,7.74,7.74,0,0,0,.5-2.6c.05-4.1,0-8.2,0-12.31V12H419v1.32q0,6.45,0,12.92a4.84,4.84,0,0,0,3.86,4.8c1.4.24,2.45-.68,3.31-1.64a5.5,5.5,0,0,0,1.25-3.83c0-4.06,0-8.12,0-12.18V12h10v1.35c0,4.93,0,9.85,0,14.77a14.54,14.54,0,0,1-4.12,10.57,13.6,13.6,0,0,1-9.53,4.2,14.56,14.56,0,0,1-9.35-2.8,1,1,0,0,0-1.47,0,14,14,0,0,1-13.89,1.77,34.2,34.2,0,0,1-4-2.13"/><polygon class="cls-1" points="166.79 137.71 162.37 137.71 162.37 113.65 153.5 113.65 153.5 109.6 175.71 109.6 175.71 113.65 166.79 113.65 166.79 137.71"/><path class="cls-1" d="M174.57,123.45a12.86,12.86,0,0,1,1.3-5.72,15.27,15.27,0,0,1,3.51-4.66,16.43,16.43,0,0,1,5.19-3.13,18.24,18.24,0,0,1,12.75,0,16.31,16.31,0,0,1,5.21,3.13,15.27,15.27,0,0,1,3.51,4.66,12.87,12.87,0,0,1,1.31,5.72,13.42,13.42,0,0,1-1.29,5.82,14.91,14.91,0,0,1-3.51,4.78A16.9,16.9,0,0,1,191,138.47a17.28,17.28,0,0,1-6.4-1.18,16.75,16.75,0,0,1-5.24-3.24,15.43,15.43,0,0,1-3.53-4.78,13.29,13.29,0,0,1-1.3-5.82m5.12.36a9.23,9.23,0,0,0,.88,4A10.37,10.37,0,0,0,183,131a12.14,12.14,0,0,0,12.31,2.19,11.51,11.51,0,0,0,3.6-2.19,10.22,10.22,0,0,0,2.43-3.23,9.09,9.09,0,0,0,.88-4,9.71,9.71,0,0,0-.88-4.07,11.27,11.27,0,0,0-2.39-3.42,11.84,11.84,0,0,0-3.53-2.35,10.92,10.92,0,0,0-4.33-.88,11.32,11.32,0,0,0-4.42.88,12.28,12.28,0,0,0-3.62,2.35,11.11,11.11,0,0,0-2.45,3.42,9.45,9.45,0,0,0-.91,4.07"/><polygon class="cls-1" points="211.15 109.64 217.73 121.52 224.53 109.64 229.83 109.64 219.98 126.63 219.98 137.71 215.56 137.71 215.56 126.63 205.84 109.64 211.15 109.64"/><path class="cls-1" d="M243.52,115.86a15.16,15.16,0,0,0-1.92-1.75,4.73,4.73,0,0,0-2.89-.78,3.72,3.72,0,0,0-2.68,1,3.06,3.06,0,0,0-1,2.24,3.13,3.13,0,0,0,.46,1.71,4.86,4.86,0,0,0,1.35,1.37,13.8,13.8,0,0,0,2.17,1.2c.85.39,1.83.81,3,1.27a20.5,20.5,0,0,1,2.85,1.44,11.08,11.08,0,0,1,2.25,1.81,7.57,7.57,0,0,1,1.49,2.27,7.42,7.42,0,0,1,.53,2.87,8.7,8.7,0,0,1-.49,2.87,6.23,6.23,0,0,1-1.61,2.45,8.15,8.15,0,0,1-3,1.71,17.26,17.26,0,0,1-8.53.2,10,10,0,0,1-2.89-1.25,7.77,7.77,0,0,1-2.1-2,12.08,12.08,0,0,1-1.43-2.63l4.1-1.77a6.08,6.08,0,0,0,2.41,2.73,7.12,7.12,0,0,0,3.69.92,5.6,5.6,0,0,0,3.6-1A3.39,3.39,0,0,0,244,130a2.39,2.39,0,0,0-.31-1.23,3.56,3.56,0,0,0-.81-1,6.06,6.06,0,0,0-1.11-.76c-.39-.22-.77-.4-1.12-.57l-5-2.2a11.89,11.89,0,0,1-4.2-3.06,6.89,6.89,0,0,1-1.68-4.7,6,6,0,0,1,.75-3,7.63,7.63,0,0,1,2-2.31,9.57,9.57,0,0,1,2.9-1.48,11.65,11.65,0,0,1,8.59.68,7.66,7.66,0,0,1,3.51,3.62Z"/><path class="cls-1" d="M278.29,133.77a10.24,10.24,0,0,1-2.17,2.37,11.86,11.86,0,0,1-2.83,1.65,10.24,10.24,0,0,1-4.06.72,11.11,11.11,0,0,1-3.49-.52A8.13,8.13,0,0,1,263,136.5a6.7,6.7,0,0,1-1.79-2.37,8.22,8.22,0,0,1-.1-6.06,9.87,9.87,0,0,1,1.43-2.47,13.23,13.23,0,0,1,2.12-2.11,24.46,24.46,0,0,1,2.54-1.76,17.11,17.11,0,0,1-2.05-2.67,5.56,5.56,0,0,1-.95-3,6.35,6.35,0,0,1,.53-2.61,6,6,0,0,1,1.48-2.07,7,7,0,0,1,2.25-1.36,8,8,0,0,1,2.85-.5,8.39,8.39,0,0,1,2.87.48,7.32,7.32,0,0,1,2.3,1.32,6.23,6.23,0,0,1,1.52,2,6,6,0,0,1,.55,2.59,4.77,4.77,0,0,1-.88,2.77,13,13,0,0,1-1.94,2.25,17,17,0,0,1-2.79,2.05l5,5.54,2.2-2.93h4.24L280.32,131l5.79,6.75h-4.42Zm-8.53-9.15a11,11,0,0,0-2.58,1.56,8.21,8.21,0,0,0-1.55,1.69,5.39,5.39,0,0,0-.75,1.59,5,5,0,0,0-.2,1.22,4.79,4.79,0,0,0,.29,1.63,4.07,4.07,0,0,0,.84,1.38,4.17,4.17,0,0,0,1.39,1,4.77,4.77,0,0,0,1.9.36,7.6,7.6,0,0,0,3.18-.75,10,10,0,0,0,3.45-3Zm.89-4.3a11.61,11.61,0,0,0,2.89-2,3.39,3.39,0,0,0,1.21-2.45,3.06,3.06,0,0,0-.9-2.21,3.76,3.76,0,0,0-4.93,0,3.19,3.19,0,0,0-.88,2.29,3.14,3.14,0,0,0,.35,1.33,10.78,10.78,0,0,0,.8,1.36,10,10,0,0,0,.86,1.11,4.67,4.67,0,0,0,.6.58"/><polygon class="cls-1" points="305.14 109.6 305.14 133.53 315 133.53 315 137.71 300.73 137.71 300.73 109.6 305.14 109.6"/><polygon class="cls-1" points="318.53 137.71 318.53 109.6 335.32 109.6 335.32 113.57 322.94 113.57 322.94 121.2 333.94 121.2 333.94 125.3 322.94 125.3 322.94 133.57 335.18 133.57 335.18 137.71 318.53 137.71"/><rect class="cls-1" x="339.29" y="109.6" width="4.42" height="28.11"/><path class="cls-1" d="M361.82,115.86a15.16,15.16,0,0,0-1.92-1.75,4.73,4.73,0,0,0-2.89-.78,3.72,3.72,0,0,0-2.68,1,3.07,3.07,0,0,0-1,2.24,3.13,3.13,0,0,0,.47,1.71,4.73,4.73,0,0,0,1.35,1.37,13.66,13.66,0,0,0,2.16,1.2c.86.39,1.84.81,3,1.27a21.08,21.08,0,0,1,2.85,1.44,11.08,11.08,0,0,1,2.25,1.81,7.17,7.17,0,0,1,2,5.14,8.69,8.69,0,0,1-.48,2.87,6.15,6.15,0,0,1-1.62,2.45,8.1,8.1,0,0,1-3,1.71,15.16,15.16,0,0,1-4.75.64,14.92,14.92,0,0,1-3.78-.44,10,10,0,0,1-2.89-1.25,7.62,7.62,0,0,1-2.1-2,12.11,12.11,0,0,1-1.44-2.63l4.11-1.77a6,6,0,0,0,2.41,2.73,7.07,7.07,0,0,0,3.69.92,5.6,5.6,0,0,0,3.6-1,3.39,3.39,0,0,0,1.21-2.79,2.39,2.39,0,0,0-.31-1.23,3.75,3.75,0,0,0-.81-1A6.06,6.06,0,0,0,360,127c-.4-.22-.77-.4-1.13-.57l-5-2.2a11.94,11.94,0,0,1-4.19-3.06,6.89,6.89,0,0,1-1.68-4.7,6,6,0,0,1,.75-3,7.63,7.63,0,0,1,2-2.31,9.51,9.51,0,0,1,2.89-1.48,11.65,11.65,0,0,1,8.59.68,7.63,7.63,0,0,1,3.52,3.62Z"/><path class="cls-1" d="M375.34,109.6v16.5c0,.14,0,.28,0,.42a3.22,3.22,0,0,0,0,.43,7.94,7.94,0,0,0,1.57,5.16q1.58,1.9,5,1.9a6.51,6.51,0,0,0,5-1.94,7.38,7.38,0,0,0,1.81-5.2V109.6h4.42v17.55a14.71,14.71,0,0,1-.62,4.33,8.86,8.86,0,0,1-2,3.48,9.55,9.55,0,0,1-3.49,2.31,16,16,0,0,1-10.23,0,9,9,0,0,1-3.4-2.31,9.06,9.06,0,0,1-1.9-3.48,15.41,15.41,0,0,1-.59-4.33V109.6Z"/><path class="cls-1" d="M398,109.6h7.63a11.56,11.56,0,0,1,5,.92,8,8,0,0,1,2.88,2.21,7.09,7.09,0,0,1,1.32,2.65,10,10,0,0,1,.33,2.25,8.64,8.64,0,0,1-.28,2.21,6.87,6.87,0,0,1-.93,2,7,7,0,0,1-1.67,1.74,9.4,9.4,0,0,1-2.53,1.31l-1.1.32,8.5,12.41H411.7l-8-12.09h-1.37v12.13H398ZM406,121.44a4.91,4.91,0,0,0,3.09-1,3.69,3.69,0,0,0,1.33-3.11,2.7,2.7,0,0,0-.69-1.91,4.83,4.83,0,0,0-1.83-1.18,10.41,10.41,0,0,0-2.61-.61,28.88,28.88,0,0,0-3-.16v8Z"/><polygon class="cls-1" points="420.66 137.71 420.66 109.6 437.44 109.6 437.44 113.57 425.07 113.57 425.07 121.2 436.07 121.2 436.07 125.3 425.07 125.3 425.07 133.57 437.31 133.57 437.31 137.71 420.66 137.71"/></svg>