<svg id="Layer_1" data-name="Layer 1" xmlns="http://www.w3.org/2000/svg" xmlns:xlink="http://www.w3.org/1999/xlink" viewBox="0 0 425.2 194.02"><defs><style>.cls-1{fill:#fff;}.cls-2{clip-path:url(#clip-path);}</style><clipPath id="clip-path"><path class="cls-1" d="M100.77,117.72c3.54-1.57,5.72-4,6.06-8.18.27-3.36-2-4.53-4.08-5.87-4.18-2.75-9-3.8-13.89-4.36-6.09-.7-12-2-17.51-4.88A23.8,23.8,0,0,1,60.66,84C59,80.73,59,77.42,59.38,74.09A22.72,22.72,0,0,1,69.44,56.91,27.09,27.09,0,0,1,80,52.83c8.14-1.47,16.28-1.56,24.21.93,9.9,3.11,16.19,9.73,18.24,20.07.09.47.09,1,.15,1.54H104.47c.78-4.67-2.12-7.05-5.78-8.76-6-2.78-12-3-17.76.45-2.65,1.59-4.3,3.93-4,7.3a6.13,6.13,0,0,0,3.15,4.86,36.62,36.62,0,0,0,6.45,3.14c4.29,1.6,8.85,1.93,13.37,2.42,7.93.87,15,3.87,20.33,9.87a21.4,21.4,0,0,1,1.8,26.58c-3.18,4.44-7.73,6.89-12.78,8.53-7.27,2.37-14.74,2.68-22.31,2A45,45,0,0,1,72,128.31c-6.36-2.86-11.11-7.27-13.73-13.87-.69-1.74-1.59-3.36-1.69-5.28,0-1,.11-1.41,1.29-1.39,5.17.07,10.34,0,15.52,0H75c1.09,6.25,5.38,9.17,10.84,10.65a26.12,26.12,0,0,0,6.85,1,19.64,19.64,0,0,0,8.08-1.69M83.93,38.42q-8.43,0-16.85,0-10.71,0-21.42,0c-5.95,0-8.28,2.37-8.29,8.26q0,19.61,0,39.21c0,18.65,0,37.29,0,55.94,0,4.5,1.72,6.15,4.93,6.91a13.5,13.5,0,0,0,3.17.34q19.34,0,38.68,0c18.29,0,36.58,0,54.86,0,4.87,0,7.87-2.27,7.84-7.76-.1-16,0-31.94,0-47.91V80.27q0-17.86,0-35.73c0-2.85-1.35-4.85-4-5.61a14.79,14.79,0,0,0-4.08-.53h-9.69l-45.18,0"/></clipPath></defs><path class="cls-1" d="M176.06,93.63l-.28-.41a15.19,15.19,0,0,0-1.26-1.15,5.56,5.56,0,0,0-3.92-1.28,5.63,5.63,0,0,0-.89.17,3.18,3.18,0,0,0-2.4,2.88,2.78,2.78,0,0,0,.54,2,7.58,7.58,0,0,0,3.39,1.89,29.86,29.86,0,0,1,5.29,2.1l.17.08a6.61,6.61,0,0,1,2.12,1.55,10.87,10.87,0,0,1,1.31,1.48,4.19,4.19,0,0,1,.86,2.35,17.08,17.08,0,0,1,.1,1.78,8.93,8.93,0,0,1-2.3,4.93,14.2,14.2,0,0,1-4.33,2.27l-.16.06a11.17,11.17,0,0,1-3.85.36c-4.58-.15-6.28-1.4-9.11-3.85a15,15,0,0,1-1.32-1.57l4.38-3.38.69.78a7.66,7.66,0,0,0,5.57,2.88c3,0,3.76-2.11,3.76-3.21a2.69,2.69,0,0,0-.87-1.84,7.68,7.68,0,0,0-2.71-1.51l-.83-.41c-4.32-1.8-2.36-.81-4.11-1.7l-.14-.07a14,14,0,0,1-2.44-1.28,5.28,5.28,0,0,1-1.69-1.81,6.23,6.23,0,0,1-.82-3.2,6,6,0,0,1,1-3.39A11.82,11.82,0,0,1,164,88.27a7.36,7.36,0,0,1,1.93-1.21,10.92,10.92,0,0,1,1.75-.61l.14,0a8.41,8.41,0,0,1,1-.24c.43-.07.79-.1,1-.13l.53,0,.67,0c4,.1,6.17,1,8.19,2.67.18.15.36.3.52.46l.22.21.31.31Z"/><path class="cls-1" d="M210.76,115.06l-1.61-5.59h-7.62l-1.71,5.59h-8l8.78-28.33h9.24l8.92,28.33ZM203,103.29h4.6l-2.3-8.21Z"/><path class="cls-1" d="M263.72,86.83s3.32,25.61,3.61,28.2a1.67,1.67,0,0,1,0,.21h-5.29L259.69,94.9l-.08.24-6.31,20h-2.65L244,94.78,241.5,115.4h-5.31l3.45-28.7h.18l8.06-.06,0,.15c.35,1.56,4,15.37,4,15.37l4.44-15.34Z"/><path class="cls-1" d="M299.55,115.06l-1.61-5.59h-7.62l-1.71,5.59h-7.09l8.78-28.33h7.47l8.92,28.33Zm-7.74-11.77h4.6l-2.3-8.21Z"/><path class="cls-1" d="M373.42,115.23a12.94,12.94,0,0,1-9.79-4q-3.78-4-3.78-10.6a15.38,15.38,0,0,1,3.62-10.49q3.61-4.14,10-4.14a12.81,12.81,0,0,1,9.68,3.9q3.75,3.9,3.74,10.42,0,6.74-3.77,10.81a12.66,12.66,0,0,1-9.73,4.06m-7.11-14v.2a11.56,11.56,0,0,0,.18,1.64,7.72,7.72,0,0,0,.37,1.36,5.4,5.4,0,0,0,1.9,2.52,7.74,7.74,0,0,0,4.55,1.2,10.44,10.44,0,0,0,3.14-.41,5.13,5.13,0,0,0,2.26-1.34,6.83,6.83,0,0,0,1.49-3.85,18.15,18.15,0,0,0,.16-2.33V100a11.38,11.38,0,0,0-.09-1.47,7.79,7.79,0,0,0-.35-1.53,5.3,5.3,0,0,0-1.15-2,5.21,5.21,0,0,0-1.86-1.25,9.1,9.1,0,0,0-3.31-.55,9.48,9.48,0,0,0-3.32.53,5.68,5.68,0,0,0-2.08,1.33,6,6,0,0,0-1.44,2.48,11.35,11.35,0,0,0-.46,3.37s0,.21,0,.31"/><path class="cls-1" d="M341.41,86.3v7.61s-7-1.2-10.11,1.5a7.36,7.36,0,0,0-2,8.6s3.25,5.77,12.23,3.79v7.6s-9.94,1.2-15.88-3.83a13.75,13.75,0,0,1-4.9-9.9,12.81,12.81,0,0,1,3.52-10.15,16,16,0,0,1,8.37-4.61,38,38,0,0,1,8.73-.61"/><path class="cls-1" d="M100.77,117.72c3.54-1.57,5.72-4,6.06-8.18.27-3.36-2-4.53-4.08-5.87-4.18-2.75-9-3.8-13.89-4.36-6.09-.7-12-2-17.51-4.88A23.8,23.8,0,0,1,60.66,84C59,80.73,59,77.42,59.38,74.09A22.72,22.72,0,0,1,69.44,56.91,27.09,27.09,0,0,1,80,52.83c8.14-1.47,16.28-1.56,24.21.93,9.9,3.11,16.19,9.73,18.24,20.07.09.47.09,1,.15,1.54H104.47c.78-4.67-2.12-7.05-5.78-8.76-6-2.78-12-3-17.76.45-2.65,1.59-4.3,3.93-4,7.3a6.13,6.13,0,0,0,3.15,4.86,36.62,36.62,0,0,0,6.45,3.14c4.29,1.6,8.85,1.93,13.37,2.42,7.93.87,15,3.87,20.33,9.87a21.4,21.4,0,0,1,1.8,26.58c-3.18,4.44-7.73,6.89-12.78,8.53-7.27,2.37-14.74,2.68-22.31,2A45,45,0,0,1,72,128.31c-6.36-2.86-11.11-7.27-13.73-13.87-.69-1.74-1.59-3.36-1.69-5.28,0-1,.11-1.41,1.29-1.39,5.17.07,10.34,0,15.52,0H75c1.09,6.25,5.38,9.17,10.84,10.65a26.12,26.12,0,0,0,6.85,1,19.64,19.64,0,0,0,8.08-1.69M83.93,38.42q-8.43,0-16.85,0-10.71,0-21.42,0c-5.95,0-8.28,2.37-8.29,8.26q0,19.61,0,39.21c0,18.65,0,37.29,0,55.94,0,4.5,1.72,6.15,4.93,6.91a13.5,13.5,0,0,0,3.17.34q19.34,0,38.68,0c18.29,0,36.58,0,54.86,0,4.87,0,7.87-2.27,7.84-7.76-.1-16,0-31.94,0-47.91V80.27q0-17.86,0-35.73c0-2.85-1.35-4.85-4-5.61a14.79,14.79,0,0,0-4.08-.53h-9.69l-45.18,0"/><g class="cls-2"><rect class="cls-1" x="37.32" y="38.39" width="109.6" height="110.71"/></g><path class="cls-1" d="M199.84,57.7c.68-.92,1.26-1.72,1.86-2.49q4.81-6.19,9.64-12.37c1-1.3,2-2.6,3.07-3.87a1.2,1.2,0,0,1,.79-.47c3,0,5.94,0,9.1,0l-8.75,11.21h45.91a11.56,11.56,0,0,1,11.59,9.89,11.73,11.73,0,0,1-5.47,11.48,11.59,11.59,0,0,1-6,1.59q-36.88,0-73.77,0A2.82,2.82,0,0,0,185.23,74c-1.29,1.84-2.69,3.6-4.08,5.37a1.11,1.11,0,0,1-.75.33c-2.85,0-5.71,0-8.56,0a1.78,1.78,0,0,1-.34-.1l5.19-6.82c-1.44-.25-2.81-.4-4.13-.73-6.47-1.6-10.51-5.69-12-12.15a15.55,15.55,0,0,1,1.11-11.07,16.25,16.25,0,0,1,11.45-8.59A17.56,17.56,0,0,1,188.64,44a14.54,14.54,0,0,1,5.29,9.71A19.13,19.13,0,0,1,192,64.39c.38,0,.72,0,1.06,0H260a3.85,3.85,0,0,0,3.76-3.14A3.16,3.16,0,0,0,262,58.52a9.32,9.32,0,0,0-3.33-.79q-29-.07-57.93,0Zm-31.31-1.84a8.6,8.6,0,0,0,8.44,8.9c4.91,0,8.55-3.4,8.67-9,.09-4.43-3.76-7.93-8.35-8.1-4.87-.19-9,4.05-8.76,8.17"/><path class="cls-1" d="M278.17,38.53h8.2v1.2c0,6.59,0,13.18,0,19.77a4.06,4.06,0,0,0,3,3.72,2.57,2.57,0,0,0,2.3-1,3.26,3.26,0,0,0,1-3.35,16.66,16.66,0,0,1,1.91-12A16.08,16.08,0,0,1,304,39.37a19.32,19.32,0,0,1,13.83.65,15.82,15.82,0,0,1,9.36,10.56,16.84,16.84,0,0,1-2.49,15.1,16.42,16.42,0,0,1-11.73,6.79,19.17,19.17,0,0,1-11.59-1.82,17.21,17.21,0,0,1-2.37-1.5c-.48-.37-.78-.4-1.19.08a10,10,0,0,1-6.48,3.37A11.43,11.43,0,0,1,278.17,61V38.53ZM310,64.44a8.89,8.89,0,1,0-8.86-8.69A8.84,8.84,0,0,0,310,64.44"/><path class="cls-1" d="M353.07,70.15c-3.86,2.86-8.07,3.47-12.38,1.34a10.49,10.49,0,0,1-6.23-9.77c-.07-7.34,0-14.69,0-22V38.55h8v1.12c0,6.29,0,12.59,0,18.88a7.27,7.27,0,0,0,.81,3,2.75,2.75,0,0,0,2.82,1.65A3.54,3.54,0,0,0,349,60.59a5.8,5.8,0,0,0,.21-1.72c0-3.61,0-7.21,0-10.88h8v1c0,3.35,0,6.69,0,10a4.25,4.25,0,0,0,1.49,3.35,3,3,0,0,0,4.85-1.4,6.38,6.38,0,0,0,.39-2.07c0-3.28,0-6.56,0-9.84V48h8.21V59.36a3.89,3.89,0,0,0,3.09,3.84,3,3,0,0,0,2.65-1.31,4.48,4.48,0,0,0,1-3.06c0-3.25,0-6.49,0-9.74V48h8v1.08c0,3.93,0,7.87,0,11.8a11.63,11.63,0,0,1-3.28,8.45A10.91,10.91,0,0,1,376,72.66a11.61,11.61,0,0,1-7.48-2.24.8.8,0,0,0-1.16,0,11.2,11.2,0,0,1-11.11,1.42,29.67,29.67,0,0,1-3.2-1.7"/><polygon class="cls-1" points="170.64 148.44 167.11 148.44 167.11 129.22 160.01 129.22 160.01 125.97 177.77 125.97 177.77 129.22 170.64 129.22 170.64 148.44"/><path class="cls-1" d="M176.85,137a10.22,10.22,0,0,1,1.05-4.57,12.16,12.16,0,0,1,2.8-3.72,13.21,13.21,0,0,1,4.15-2.5,14.54,14.54,0,0,1,10.18,0,13.2,13.2,0,0,1,4.17,2.5,12.19,12.19,0,0,1,2.81,3.72,10.34,10.34,0,0,1,1,4.57,10.76,10.76,0,0,1-1,4.66,12.1,12.1,0,0,1-2.8,3.82,13.62,13.62,0,0,1-9.2,3.53,13.86,13.86,0,0,1-5.12-1,13.37,13.37,0,0,1-4.18-2.58,12.31,12.31,0,0,1-2.82-3.82,10.63,10.63,0,0,1-1.05-4.66m4.1.29a7.25,7.25,0,0,0,.7,3.18,8.23,8.23,0,0,0,1.95,2.59,9.57,9.57,0,0,0,6.35,2.39,9.67,9.67,0,0,0,6.36-2.39,8.35,8.35,0,0,0,1.94-2.59,7.25,7.25,0,0,0,.7-3.18,7.76,7.76,0,0,0-.7-3.25,9.07,9.07,0,0,0-1.91-2.73,9.34,9.34,0,0,0-2.82-1.88,8.63,8.63,0,0,0-3.46-.7,8.9,8.9,0,0,0-3.53.7,9.73,9.73,0,0,0-2.9,1.88,8.88,8.88,0,0,0-2,2.73,7.63,7.63,0,0,0-.72,3.25"/><polygon class="cls-1" points="206.08 126.01 211.34 135.5 216.78 126.01 221.02 126.01 213.14 139.58 213.14 148.44 209.61 148.44 209.61 139.58 201.85 126.01 206.08 126.01"/><path class="cls-1" d="M232,131a12,12,0,0,0-1.54-1.4,3.8,3.8,0,0,0-2.31-.62,3,3,0,0,0-2.14.8,2.46,2.46,0,0,0-.45,3.16,3.68,3.68,0,0,0,1.07,1.09,10.89,10.89,0,0,0,1.73,1c.68.31,1.47.64,2.37,1a15.54,15.54,0,0,1,2.27,1.15,8.47,8.47,0,0,1,1.8,1.45A6,6,0,0,1,236,140.4a5.92,5.92,0,0,1,.42,2.29A6.86,6.86,0,0,1,236,145a4.93,4.93,0,0,1-1.29,2,6.55,6.55,0,0,1-2.43,1.36,12.21,12.21,0,0,1-3.8.51,11.6,11.6,0,0,1-3-.35,8.11,8.11,0,0,1-2.31-1,6,6,0,0,1-1.67-1.58,9.31,9.31,0,0,1-1.15-2.11l3.28-1.41a4.74,4.74,0,0,0,1.93,2.18,5.58,5.58,0,0,0,2.94.74,4.54,4.54,0,0,0,2.88-.78,2.71,2.71,0,0,0,1-2.23,1.88,1.88,0,0,0-.25-1,3,3,0,0,0-.65-.79,4.93,4.93,0,0,0-.88-.61q-.48-.26-.9-.45l-4-1.76a9.71,9.71,0,0,1-3.36-2.44,5.55,5.55,0,0,1-1.34-3.76,4.72,4.72,0,0,1,.6-2.35,5.93,5.93,0,0,1,1.61-1.85,7.65,7.65,0,0,1,2.31-1.19,9.23,9.23,0,0,1,6.87.55,6.11,6.11,0,0,1,2.81,2.89Z"/><path class="cls-1" d="M259.74,145.29a8.54,8.54,0,0,1-1.73,1.9,9.67,9.67,0,0,1-2.26,1.31,8.14,8.14,0,0,1-3.25.58,8.87,8.87,0,0,1-2.79-.42,6.44,6.44,0,0,1-2.19-1.19,5.27,5.27,0,0,1-1.43-1.89,6,6,0,0,1-.51-2.53,6,6,0,0,1,.43-2.31,7.84,7.84,0,0,1,1.14-2,10,10,0,0,1,1.7-1.68,16.71,16.71,0,0,1,2-1.41,13.88,13.88,0,0,1-1.64-2.14,4.42,4.42,0,0,1-.76-2.39,5.2,5.2,0,0,1,.42-2.09,4.89,4.89,0,0,1,1.18-1.65,5.82,5.82,0,0,1,1.8-1.09,6.28,6.28,0,0,1,2.28-.4,6.65,6.65,0,0,1,2.3.39,5.69,5.69,0,0,1,1.83,1,4.88,4.88,0,0,1,1.22,1.62A5,5,0,0,1,260,131a3.85,3.85,0,0,1-.71,2.22,10.47,10.47,0,0,1-1.55,1.8,13.21,13.21,0,0,1-2.22,1.63l4,4.43,1.76-2.34h3.39l-3.25,4.27,4.63,5.39h-3.53ZM252.93,138a8.65,8.65,0,0,0-2.07,1.25,6.62,6.62,0,0,0-1.24,1.35,4.29,4.29,0,0,0-.59,1.26,3.52,3.52,0,0,0,.06,2.28,3.32,3.32,0,0,0,.68,1.11,3.11,3.11,0,0,0,1.11.77,3.82,3.82,0,0,0,1.52.29,6.07,6.07,0,0,0,2.54-.6,7.92,7.92,0,0,0,2.75-2.42Zm.7-3.44a9.19,9.19,0,0,0,2.31-1.6,2.7,2.7,0,0,0,1-2,2.47,2.47,0,0,0-.72-1.77,2.63,2.63,0,0,0-2-.73,2.57,2.57,0,0,0-2,.73,2.54,2.54,0,0,0-.71,1.83,2.37,2.37,0,0,0,.28,1.06,9.82,9.82,0,0,0,.63,1.1,10.45,10.45,0,0,0,.69.88,4.17,4.17,0,0,0,.48.46"/><polygon class="cls-1" points="281.2 125.97 281.2 145.1 289.07 145.1 289.07 148.44 277.67 148.44 277.67 125.97 281.2 125.97"/><polygon class="cls-1" points="291.89 148.44 291.89 125.97 305.31 125.97 305.31 129.15 295.42 129.15 295.42 135.25 304.21 135.25 304.21 138.52 295.42 138.52 295.42 145.13 305.2 145.13 305.2 148.44 291.89 148.44"/><rect class="cls-1" x="308.49" y="125.97" width="3.53" height="22.46"/><path class="cls-1" d="M326.49,131a11.93,11.93,0,0,0-1.53-1.4,3.85,3.85,0,0,0-2.32-.62,3,3,0,0,0-2.13.8,2.43,2.43,0,0,0-.83,1.8,2.48,2.48,0,0,0,.37,1.36,3.8,3.8,0,0,0,1.07,1.09,11,11,0,0,0,1.74,1c.68.31,1.46.64,2.36,1a16.19,16.19,0,0,1,2.28,1.15,9,9,0,0,1,1.8,1.45,6,6,0,0,1,1.18,1.81,5.92,5.92,0,0,1,.42,2.29,6.86,6.86,0,0,1-.39,2.3,4.91,4.91,0,0,1-1.28,2,6.52,6.52,0,0,1-2.44,1.36,12.17,12.17,0,0,1-3.8.51,11.52,11.52,0,0,1-3-.35,8,8,0,0,1-2.31-1,6,6,0,0,1-1.68-1.58,9.72,9.72,0,0,1-1.15-2.11l3.28-1.41a4.74,4.74,0,0,0,1.93,2.18,5.61,5.61,0,0,0,2.94.74,4.52,4.52,0,0,0,2.88-.78,2.71,2.71,0,0,0,1-2.23,1.88,1.88,0,0,0-.25-1,3,3,0,0,0-.65-.79,4.93,4.93,0,0,0-.88-.61q-.48-.26-.9-.45l-4-1.76a9.58,9.58,0,0,1-3.35-2.44,5.5,5.5,0,0,1-1.34-3.76,4.72,4.72,0,0,1,.6-2.35,5.9,5.9,0,0,1,1.6-1.85A7.59,7.59,0,0,1,320,126.1a9.2,9.2,0,0,1,6.86.55,6.11,6.11,0,0,1,2.81,2.89Z"/><path class="cls-1" d="M337.29,126v13.19c0,.11,0,.22,0,.34a2,2,0,0,0,0,.34,6.27,6.27,0,0,0,1.25,4.12,4.89,4.89,0,0,0,4,1.53,5.19,5.19,0,0,0,4-1.56,5.88,5.88,0,0,0,1.44-4.16V126h3.53v14a11.67,11.67,0,0,1-.49,3.46,7.05,7.05,0,0,1-1.59,2.78,7.47,7.47,0,0,1-2.79,1.84,12.61,12.61,0,0,1-8.17,0,7,7,0,0,1-2.72-1.84,7.3,7.3,0,0,1-1.52-2.78,12.37,12.37,0,0,1-.47-3.46V126Z"/><path class="cls-1" d="M355.36,126h6.1a9.1,9.1,0,0,1,4,.74,6.32,6.32,0,0,1,2.31,1.77,5.64,5.64,0,0,1,1.06,2.12,8.16,8.16,0,0,1,.26,1.79,7,7,0,0,1-.23,1.77,5.44,5.44,0,0,1-.74,1.63,5.66,5.66,0,0,1-1.33,1.4,7,7,0,0,1-2,1l-.87.26,6.79,9.92h-4.3L360,138.75h-1.1v9.69h-3.53Zm6.46,9.47a3.92,3.92,0,0,0,2.48-.82,2.94,2.94,0,0,0,1.05-2.48,2.2,2.2,0,0,0-.54-1.53,4,4,0,0,0-1.47-1,8.71,8.71,0,0,0-2.08-.48,23,23,0,0,0-2.37-.13v6.39Z"/><polygon class="cls-1" points="373.51 148.44 373.51 125.97 386.92 125.97 386.92 129.15 377.04 129.15 377.04 135.25 385.83 135.25 385.83 138.52 377.04 138.52 377.04 145.13 386.81 145.13 386.81 148.44 373.51 148.44"/></svg>