<svg xmlns="http://www.w3.org/2000/svg" viewBox="0 0 255.32 77.09"><defs><style>.cls-1{fill:#030303;}.cls-2{fill:#f89a1d;}</style></defs><g id="Layer_2" data-name="Layer 2"><g id="Layer_1-2" data-name="Layer 1"><path class="cls-1" d="M54.06,7.77,54.39,7a11,11,0,0,1,4.32-5.15,10.22,10.22,0,0,1,5-1.43,12.26,12.26,0,0,1,4.18.43,9.42,9.42,0,0,1,4.93,3.62,17.54,17.54,0,0,1,1.6,2.71,1.24,1.24,0,0,0,.34.58,13.36,13.36,0,0,1,1.69-3A10.87,10.87,0,0,1,83.69.54a12,12,0,0,1,7.47,1.2,9.84,9.84,0,0,1,5.35,7.58,28.25,28.25,0,0,1,.29,4.41q0,14.49,0,29a5,5,0,0,1,0,.67,1.45,1.45,0,0,1-1.45,1.32c-2.66,0-5.32,0-8,0a1.42,1.42,0,0,1-1.42-1.41c0-.22,0-.44,0-.67q0-12.27,0-24.55a21.62,21.62,0,0,0-.25-3.94,5.28,5.28,0,0,0-.46-1.39,4,4,0,0,0-3.56-2.12A5.31,5.31,0,0,0,76,15a21.17,21.17,0,0,0-.39,4.13q0,11.67,0,23.34v.67A1.46,1.46,0,0,1,74,44.69c-2,0-4,0-6,0-.53,0-1.07,0-1.61,0A1.59,1.59,0,0,1,64.7,43c0-2.88,0-5.77,0-8.65q0-8.05,0-16.1a14.85,14.85,0,0,0-.57-4.64,4,4,0,0,0-2.46-2.82c-2.27-.79-5.29-.27-6.43,2.8a13.09,13.09,0,0,0-.74,3.66c-.09,1.25-.12,2.5-.12,3.75q0,10.83,0,21.67a.57.57,0,0,0,0,.13,1.63,1.63,0,0,1-1.86,1.88c-2.42-.06-4.83-.06-7.25,0a1.67,1.67,0,0,1-1.79-1.82q0-19.89,0-39.78c0-1.32.56-1.87,1.88-1.88h6.71c1.23,0,1.8.56,1.8,1.81,0,1.56,0,3.12,0,4.69Z"/><path class="cls-1" d="M24.93,39.59a1.54,1.54,0,0,0-.53.44,23.5,23.5,0,0,1-3.61,3,13.67,13.67,0,0,1-5.93,2.09,21.09,21.09,0,0,1-4.42.09c-4.79-.45-8.7-3.14-10-8.47A15.29,15.29,0,0,1,1,27.51a13.36,13.36,0,0,1,7.66-7.63,25.82,25.82,0,0,1,5.92-1.61c2.62-.45,5.26-.7,7.91-1h.13c.7-.08.7-.08.7-.81,0-1,0-2.06-.06-3.08a7.26,7.26,0,0,0-.21-1.32,4.57,4.57,0,0,0-4.31-3.6,7.08,7.08,0,0,0-3.92.59,5.54,5.54,0,0,0-3.12,3.73,4,4,0,0,1-.29.95,1.44,1.44,0,0,1-1.59.85c-2.33-.26-4.66-.53-7-.77A1.45,1.45,0,0,1,1.39,12,14,14,0,0,1,4,6,14.63,14.63,0,0,1,11.45,1.1a24.9,24.9,0,0,1,9.86-1A19.11,19.11,0,0,1,28.11,2a10.75,10.75,0,0,1,6.15,9,44.43,44.43,0,0,1,.2,4.89c0,4.61,0,9.21,0,13.82a9.83,9.83,0,0,0,2,6.31c.28.37.56.75.83,1.13a4.06,4.06,0,0,1,.38.63,1.32,1.32,0,0,1-.39,1.74l-3.61,3.11-2.12,1.85a1.89,1.89,0,0,1-1.18.57,1.68,1.68,0,0,1-1.23-.41A16.77,16.77,0,0,1,26,41.18Zm-1.61-13c0-.88,0-1.71,0-2.53,0-.34-.12-.42-.43-.42-.89,0-1.79,0-2.68.15a14.83,14.83,0,0,0-4.15,1,6.57,6.57,0,0,0-4.16,4.49,8.92,8.92,0,0,0-.29,1.91,7.33,7.33,0,0,0,.73,3.77,4.2,4.2,0,0,0,3.38,2.33,5.49,5.49,0,0,0,4.44-1.45,9.21,9.21,0,0,0,2.68-4.54A19.09,19.09,0,0,0,23.32,26.55Z"/><path class="cls-1" d="M128.47,39.53a27.61,27.61,0,0,1-3.39,3,13.47,13.47,0,0,1-6.72,2.59,21.06,21.06,0,0,1-5.08,0A10.49,10.49,0,0,1,104.1,37a15.58,15.58,0,0,1,.25-8.92A13.26,13.26,0,0,1,111.9,20a25.92,25.92,0,0,1,6.29-1.76c2.62-.44,5.27-.69,7.91-1h.07c.7-.08.71-.08.7-.8a26.5,26.5,0,0,0-.14-3.88A4.71,4.71,0,0,0,122,8.46a7.25,7.25,0,0,0-3.47.54,5.48,5.48,0,0,0-3.28,3.73,7.11,7.11,0,0,1-.26.9,1.46,1.46,0,0,1-1.7,1l-6-.65-1.13-.13A1.38,1.38,0,0,1,105,12.11a13.25,13.25,0,0,1,7.14-9.8,20.16,20.16,0,0,1,6.61-2,26.3,26.3,0,0,1,5-.24A19.16,19.16,0,0,1,132,2.15a10.57,10.57,0,0,1,5.74,8.16,35.46,35.46,0,0,1,.27,5.35q0,7.11,0,14.22a9.49,9.49,0,0,0,1.79,5.71c.37.51.74,1,1.1,1.52a2.4,2.4,0,0,1,.47,1,1.31,1.31,0,0,1-.44,1.32L135,44.53a1.8,1.8,0,0,1-2.37,0,19,19,0,0,1-3.37-3.8Zm-1.6-13.16c0-.78,0-1.57,0-2.35,0-.32-.08-.42-.41-.42a21.49,21.49,0,0,0-5.24.59,9,9,0,0,0-4,2c-2.57,2.3-2.54,6.9-1.15,9A4.25,4.25,0,0,0,119,37.17a5.42,5.42,0,0,0,4.36-1.06,8.85,8.85,0,0,0,3.13-5A17.42,17.42,0,0,0,126.87,26.37Z"/><path class="cls-1" d="M233.25,8.53c.19-.42.37-.85.56-1.26a14.58,14.58,0,0,1,2.47-3.81A9.09,9.09,0,0,1,241.93.55a12.82,12.82,0,0,1,5.71.35A9.83,9.83,0,0,1,254.46,8a24.78,24.78,0,0,1,.8,5.55c.05,1.08.05,2.15.06,3.22v26.5a1.45,1.45,0,0,1-1.41,1.41h-.4c-2.44,0-4.88,0-7.32,0a1.65,1.65,0,0,1-1.77-1.77c0-8,0-16,0-23.95a21.16,21.16,0,0,0-.3-4.2,7,7,0,0,0-.95-2.55,3.89,3.89,0,0,0-3.08-1.78,4.88,4.88,0,0,0-5,2.92,11.75,11.75,0,0,0-1.19,4,33.53,33.53,0,0,0-.23,4.48V42.61c0,.22,0,.45,0,.67a1.47,1.47,0,0,1-1.42,1.41h-.4c-2.42,0-4.84,0-7.25,0a1.67,1.67,0,0,1-1.81-1.82c0-4.53,0-9.07,0-13.61q0-13,0-26V2.91a1.54,1.54,0,0,1,1.67-1.67h7a1.49,1.49,0,0,1,1.6,1.64V8.5Z"/><path class="cls-1" d="M181.08,22.91a30.48,30.48,0,0,1,2.14-11.62A18.22,18.22,0,0,1,189,3.59,15.38,15.38,0,0,1,196.69.53a17.66,17.66,0,0,1,8.61,1,16.38,16.38,0,0,1,8.38,7.57,25.19,25.19,0,0,1,2.81,8.26,33.3,33.3,0,0,1,.39,8.34,24.17,24.17,0,0,1-5,13.56,15.8,15.8,0,0,1-10,6c-6.62,1.06-13-1.12-17-7.57a24.61,24.61,0,0,1-3.24-8.8A36.22,36.22,0,0,1,181.08,22.91Zm11.69-.65a46.55,46.55,0,0,0,.64,8.45,11.65,11.65,0,0,0,1.69,4.4A4.61,4.61,0,0,0,200.34,37a5.09,5.09,0,0,0,3.15-2.61,12.61,12.61,0,0,0,1.33-4.05,33.91,33.91,0,0,0,.44-5.87,49.38,49.38,0,0,0-.58-9.41,14.81,14.81,0,0,0-.94-3.34,4.58,4.58,0,0,0-2.4-2.51,5.83,5.83,0,0,0-3.93-.23,4.92,4.92,0,0,0-2.92,2.5,12.75,12.75,0,0,0-1.35,4.38A46.63,46.63,0,0,0,192.77,22.26Z"/><path class="cls-2" d="M104.13,77.09a107.32,107.32,0,0,1-14.68-1,98.53,98.53,0,0,1-30.52-9.4A98.51,98.51,0,0,1,36.71,51.61a2.25,2.25,0,0,1-.64-.85,1.11,1.11,0,0,1,1.08-1.56,2.15,2.15,0,0,1,1.12.38q3.94,2.3,8,4.28a133.16,133.16,0,0,0,28.11,9.89q5.94,1.38,12,2.23c3.25.46,6.52.78,9.8,1,4.38.3,8.76.34,13.14.22,2.48-.07,5-.24,7.43-.48s5.19-.57,7.78-1a135.66,135.66,0,0,0,14.93-3.16A126.75,126.75,0,0,0,156,56.91a3.23,3.23,0,0,1,1.76-.3,1.93,1.93,0,0,1,1.6,1.17,1.82,1.82,0,0,1-.34,1.94,4,4,0,0,1-.91.79,76.53,76.53,0,0,1-15.36,8.57,100.67,100.67,0,0,1-20,6.08,105.15,105.15,0,0,1-10.88,1.56C109,77,106.2,77.08,104.13,77.09Z"/><path class="cls-1" d="M162.53,9.93h-13a3.75,3.75,0,0,1-.67,0,1.43,1.43,0,0,1-1.25-1.5c0-1,0-1.92,0-2.88V2.83a1.52,1.52,0,0,1,1.75-1.71c2.5,0,5,0,7.51,0h17.64a6.1,6.1,0,0,1,.74,0,1.42,1.42,0,0,1,1.32,1.5c0,1.63,0,3.26,0,4.9a2.84,2.84,0,0,1-.38,1.33A15.39,15.39,0,0,1,175,10.68L161.57,29.9l-.39.57h1.13A31,31,0,0,1,172.06,32a24.36,24.36,0,0,1,3.67,1.59,2.78,2.78,0,0,1,1.6,2.65c0,1.93,0,3.85,0,5.77a1.77,1.77,0,0,1-.23,1,1.28,1.28,0,0,1-1.85.49,29,29,0,0,0-6-2.29,30.63,30.63,0,0,0-8.9-.9,28.9,28.9,0,0,0-12.17,3.23,1.32,1.32,0,0,1-2-.85,1.82,1.82,0,0,1-.08-.52c0-2.31-.06-4.61.05-6.91A6,6,0,0,1,147.26,32q7.47-10.71,14.92-21.44A1.6,1.6,0,0,0,162.53,9.93Z"/><path class="cls-2" d="M161.75,46.53a25,25,0,0,1,7.17.84,7,7,0,0,1,1.37.54,1.79,1.79,0,0,1,1,1.28,10.85,10.85,0,0,1,.09,3.41,32,32,0,0,1-4,12.48,21.28,21.28,0,0,1-4.68,5.83,2.42,2.42,0,0,1-1,.61c-.81.19-1.28-.29-1.07-1.09a7.94,7.94,0,0,1,.31-.81,91.05,91.05,0,0,0,3.45-9.93,24.13,24.13,0,0,0,.7-3.68q0-.4,0-.81c0-1.75-.55-2.47-2.23-2.94a14.34,14.34,0,0,0-3.32-.44,56.06,56.06,0,0,0-7.77.34l-4.4.46a2.43,2.43,0,0,1-.66,0,.72.72,0,0,1-.6-1,2.22,2.22,0,0,1,.88-1,20,20,0,0,1,4.7-2.39,29.31,29.31,0,0,1,6.92-1.51C159.72,46.57,160.84,46.55,161.75,46.53Z"/></g></g></svg>