<?xml version="1.0" encoding="UTF-8" standalone="no"?>
<svg
   xmlns:dc="http://purl.org/dc/elements/1.1/"
   xmlns:cc="http://creativecommons.org/ns#"
   xmlns:rdf="http://www.w3.org/1999/02/22-rdf-syntax-ns#"
   xmlns:svg="http://www.w3.org/2000/svg"
   xmlns="http://www.w3.org/2000/svg"
   viewBox="0 0 613.33331 613.33331"
   height="613.33331"
   width="613.33331"
   xml:space="preserve"
   id="svg2"
   version="1.1"><metadata
     id="metadata8"><rdf:RDF><cc:Work
         rdf:about=""><dc:format>image/svg+xml</dc:format><dc:type
           rdf:resource="http://purl.org/dc/dcmitype/StillImage" /></cc:Work></rdf:RDF></metadata><defs
     id="defs6"><clipPath
       id="clipPath18"
       clipPathUnits="userSpaceOnUse"><path
         id="path16"
         d="M 0,460 H 460 V 0 H 0 Z" /></clipPath></defs><g
     transform="matrix(1.3333333,0,0,-1.3333333,0,613.33333)"
     id="g10"><g
       id="g12"><g
         clip-path="url(#clipPath18)"
         id="g14"><g
           transform="translate(214.1943,281.5322)"
           id="g20"><path
             id="path22"
             style="fill:#ed7417;fill-opacity:1;fill-rule:nonzero;stroke:none"
             d="M 0,0 C 0.465,-0.019 0.891,-0.014 1.275,0.011 2.74,0.106 3.857,0.457 4.625,1.065 5.419,1.675 5.79,2.499 5.736,3.539 5.714,3.974 5.612,4.451 5.431,4.975 4.652,2.546 2.842,0.889 0,0 m -0.672,-14.813 c 0.837,-0.238 1.576,-0.334 2.219,-0.292 0.771,0.049 1.403,0.285 1.898,0.705 0.52,0.421 0.764,0.946 0.732,1.575 -0.029,0.556 -0.281,1.183 -0.754,1.88 -0.019,-1.143 -0.324,-1.987 -0.915,-2.534 -0.567,-0.522 -1.627,-0.967 -3.18,-1.334 m -0.393,6.158 c -0.554,0.231 -1.036,0.334 -1.447,0.306 -0.848,-0.054 -1.411,-0.649 -1.688,-1.783 -0.083,-0.393 -0.114,-0.796 -0.092,-1.206 0.01,-0.218 0.035,-0.447 0.073,-0.686 0.163,-0.67 0.417,-1.102 0.763,-1.297 0.339,-0.099 0.742,-0.134 1.204,-0.104 0.488,0.032 1.05,0.129 1.687,0.291 1.528,0.366 2.268,1.032 2.218,2 l -0.002,0.036 c -0.235,1.077 -1.141,1.891 -2.716,2.443 M -4.633,2.101 c 0.148,-0.379 0.532,-0.585 1.153,-0.617 0.49,-0.016 0.968,-0.009 1.43,0.02 1.336,0.088 2.497,0.344 3.481,0.772 1.412,0.601 2.09,1.482 2.03,2.643 C 3.444,5.257 3.374,5.605 3.253,5.96 2.527,8.047 0.57,8.987 -2.616,8.78 L -3.349,8.732 C -4.425,8.613 -5.016,8.066 -5.121,7.09 L -5.039,5.494 C -4.912,4.531 -4.841,3.893 -4.825,3.579 -4.784,2.781 -4.72,2.288 -4.633,2.101 m -7.753,18.449 c -0.319,0.198 -0.737,0.279 -1.25,0.245 -0.463,-0.029 -1.024,-0.163 -1.681,-0.4 -0.507,-0.203 -0.812,-0.513 -0.92,-0.933 -0.019,-0.122 -0.028,-0.705 -0.026,-1.747 0.934,1.394 2.226,2.339 3.877,2.835 m -4.829,1.395 c 2.476,0.987 5.141,1.571 7.994,1.757 2.03,0.132 4.16,0.065 6.392,-0.202 5.14,-0.661 9.409,-2.213 12.809,-4.661 3.238,-2.311 4.934,-4.953 5.086,-7.926 0.02,-0.388 0.014,-0.776 -0.017,-1.166 C 14.684,5.794 11.675,1.863 6.022,-2.046 5.476,-2.444 4.242,-3.047 2.324,-3.85 c 0.102,0.031 0.242,0.052 0.423,0.064 0.873,0.057 2.619,-0.315 5.239,-1.114 3.93,-1.201 6.165,-3.068 6.708,-5.603 0.069,-0.335 0.113,-0.684 0.131,-1.046 0.095,-1.862 -0.684,-3.756 -2.339,-5.682 -1.922,-2.26 -4.661,-4.137 -8.221,-5.628 -3.635,-1.523 -7.329,-2.407 -11.081,-2.651 -2.622,-0.171 -5.285,-0.028 -7.99,0.427 -0.572,0.108 -0.963,0.422 -1.169,0.942 -0.062,0.191 -0.492,7.329 -1.291,21.417 l -0.44,8.594 c -0.454,8.847 -0.635,13.638 -0.543,14.371 0.135,0.882 0.48,1.45 1.034,1.704" /></g><g
           transform="translate(214.1943,281.5322)"
           id="g24"><path
             id="path26"
             style="fill:none;stroke:#231f20;stroke-width:1;stroke-linecap:butt;stroke-linejoin:miter;stroke-miterlimit:10;stroke-dasharray:none;stroke-opacity:1"
             d="M 0,0 C 0.465,-0.019 0.891,-0.014 1.275,0.011 2.74,0.106 3.857,0.457 4.625,1.065 5.419,1.675 5.79,2.499 5.736,3.539 5.714,3.974 5.612,4.451 5.431,4.975 4.652,2.546 2.842,0.889 0,0 Z m -0.672,-14.813 c 0.837,-0.238 1.576,-0.334 2.219,-0.292 0.771,0.049 1.403,0.285 1.898,0.705 0.52,0.421 0.764,0.946 0.732,1.575 -0.029,0.556 -0.281,1.183 -0.754,1.88 -0.019,-1.143 -0.324,-1.987 -0.915,-2.534 -0.567,-0.522 -1.627,-0.967 -3.18,-1.334 z m -0.393,6.158 c -0.554,0.231 -1.036,0.334 -1.447,0.306 -0.848,-0.054 -1.411,-0.649 -1.688,-1.783 -0.083,-0.393 -0.114,-0.796 -0.092,-1.206 0.01,-0.218 0.035,-0.447 0.073,-0.686 0.163,-0.67 0.417,-1.102 0.763,-1.297 0.339,-0.099 0.742,-0.134 1.204,-0.104 0.488,0.032 1.05,0.129 1.687,0.291 1.528,0.366 2.268,1.032 2.218,2 l -0.002,0.036 c -0.235,1.077 -1.141,1.891 -2.716,2.443 z M -4.633,2.101 c 0.148,-0.379 0.532,-0.585 1.153,-0.617 0.49,-0.016 0.968,-0.009 1.43,0.02 1.336,0.088 2.497,0.344 3.481,0.772 1.412,0.601 2.09,1.482 2.03,2.643 C 3.444,5.257 3.374,5.605 3.253,5.96 2.527,8.047 0.57,8.987 -2.616,8.78 L -3.349,8.732 C -4.425,8.613 -5.016,8.066 -5.121,7.09 L -5.039,5.494 C -4.912,4.531 -4.841,3.893 -4.825,3.579 -4.784,2.781 -4.72,2.288 -4.633,2.101 Z m -7.753,18.449 c -0.319,0.198 -0.737,0.279 -1.25,0.245 -0.463,-0.029 -1.024,-0.163 -1.681,-0.4 -0.507,-0.203 -0.812,-0.513 -0.92,-0.933 -0.019,-0.122 -0.028,-0.705 -0.026,-1.747 0.934,1.394 2.226,2.339 3.877,2.835 z m -4.829,1.395 c 2.476,0.987 5.141,1.571 7.994,1.757 2.03,0.132 4.16,0.065 6.392,-0.202 5.14,-0.661 9.409,-2.213 12.809,-4.661 3.238,-2.311 4.934,-4.953 5.086,-7.926 0.02,-0.388 0.014,-0.776 -0.017,-1.166 C 14.684,5.794 11.675,1.863 6.022,-2.046 5.476,-2.444 4.242,-3.047 2.324,-3.85 c 0.102,0.031 0.242,0.052 0.423,0.064 0.873,0.057 2.619,-0.315 5.239,-1.114 3.93,-1.201 6.165,-3.068 6.708,-5.603 0.069,-0.335 0.113,-0.684 0.131,-1.046 0.095,-1.862 -0.684,-3.756 -2.339,-5.682 -1.922,-2.26 -4.661,-4.137 -8.221,-5.628 -3.635,-1.523 -7.329,-2.407 -11.081,-2.651 -2.622,-0.171 -5.285,-0.028 -7.99,0.427 -0.572,0.108 -0.963,0.422 -1.169,0.942 -0.062,0.191 -0.492,7.329 -1.291,21.417 l -0.44,8.594 c -0.454,8.847 -0.635,13.638 -0.543,14.371 0.135,0.882 0.48,1.45 1.034,1.704 z" /></g><g
           transform="translate(258.0195,266.6855)"
           id="g28"><path
             id="path30"
             style="fill:#d45cb5;fill-opacity:1;fill-rule:nonzero;stroke:none"
             d="M 0,0 C 0.293,-0.015 0.561,-0.015 0.803,-0.002 1.723,0.046 2.418,0.251 2.891,0.612 3.378,0.975 3.596,1.469 3.543,2.096 3.521,2.357 3.449,2.646 3.324,2.962 2.88,1.505 1.771,0.518 0,0 m -0.148,-8.919 c 0.531,-0.148 0.998,-0.212 1.402,-0.19 0.483,0.025 0.877,0.164 1.18,0.414 0.32,0.25 0.462,0.564 0.431,0.944 -0.028,0.334 -0.198,0.714 -0.51,1.136 C 2.365,-7.302 2.189,-7.809 1.828,-8.135 1.48,-8.446 0.822,-8.708 -0.148,-8.919 m -0.362,3.712 c -0.351,0.143 -0.658,0.207 -0.916,0.193 -0.532,-0.028 -0.875,-0.382 -1.028,-1.063 -0.045,-0.237 -0.058,-0.479 -0.036,-0.727 0.011,-0.13 0.03,-0.269 0.058,-0.413 0.116,-0.405 0.284,-0.666 0.504,-0.786 0.216,-0.061 0.469,-0.085 0.76,-0.069 0.307,0.015 0.658,0.07 1.056,0.165 0.954,0.21 1.407,0.607 1.358,1.19 L 1.244,-6.695 C 1.076,-6.046 0.491,-5.55 -0.51,-5.207 m -2.443,6.5 c 0.099,-0.229 0.346,-0.355 0.736,-0.379 0.309,-0.013 0.61,-0.011 0.9,0.004 0.838,0.044 1.564,0.192 2.174,0.443 0.878,0.354 1.288,0.88 1.229,1.58 C 2.068,3.145 2.02,3.354 1.937,3.57 1.441,4.831 0.192,5.409 -1.809,5.305 L -2.268,5.28 C -2.943,5.216 -3.305,4.89 -3.353,4.301 l 0.082,-0.962 c 0.097,-0.58 0.154,-0.965 0.169,-1.153 0.041,-0.482 0.09,-0.779 0.149,-0.893 m -5.219,11.162 c -0.205,0.121 -0.469,0.173 -0.791,0.155 -0.291,-0.014 -0.641,-0.091 -1.051,-0.231 -0.314,-0.118 -0.501,-0.304 -0.56,-0.557 -0.01,-0.072 -0.005,-0.424 0.015,-1.051 0.562,0.833 1.358,1.395 2.387,1.684 m -3.064,0.87 c 1.54,0.578 3.205,0.915 4.996,1.009 1.275,0.067 2.617,0.013 4.025,-0.162 C 1.031,13.743 3.746,12.781 5.93,11.285 8.01,9.874 9.126,8.271 9.277,6.479 9.297,6.246 9.299,6.012 9.287,5.777 9.131,3.399 7.311,1.05 3.826,-1.271 3.49,-1.507 2.726,-1.862 1.533,-2.334 c 0.064,0.019 0.153,0.03 0.265,0.036 0.549,0.028 1.654,-0.206 3.317,-0.704 2.494,-0.746 3.936,-1.886 4.323,-3.416 0.05,-0.203 0.083,-0.412 0.103,-0.632 0.094,-1.122 -0.361,-2.257 -1.367,-3.407 -1.167,-1.35 -2.856,-2.463 -5.067,-3.34 -2.259,-0.894 -4.566,-1.402 -6.922,-1.526 -1.646,-0.086 -3.324,0.014 -5.035,0.306 -0.362,0.068 -0.613,0.26 -0.754,0.574 -0.041,0.115 -0.443,4.418 -1.207,12.909 l -0.436,5.179 c -0.448,5.331 -0.651,8.219 -0.608,8.66 0.068,0.53 0.275,0.871 0.619,1.02" /></g><g
           transform="translate(258.0195,266.6855)"
           id="g32"><path
             id="path34"
             style="fill:none;stroke:#231f20;stroke-width:1;stroke-linecap:butt;stroke-linejoin:miter;stroke-miterlimit:10;stroke-dasharray:none;stroke-opacity:1"
             d="M 0,0 C 0.293,-0.015 0.561,-0.015 0.803,-0.002 1.723,0.046 2.418,0.251 2.891,0.612 3.378,0.975 3.596,1.469 3.543,2.096 3.521,2.357 3.449,2.646 3.324,2.962 2.88,1.505 1.771,0.518 0,0 Z m -0.148,-8.919 c 0.531,-0.148 0.998,-0.212 1.402,-0.19 0.483,0.025 0.877,0.164 1.18,0.414 0.32,0.25 0.462,0.564 0.431,0.944 -0.028,0.334 -0.198,0.714 -0.51,1.136 C 2.365,-7.302 2.189,-7.809 1.828,-8.135 1.48,-8.446 0.822,-8.708 -0.148,-8.919 Z m -0.362,3.712 c -0.351,0.143 -0.658,0.207 -0.916,0.193 -0.532,-0.028 -0.875,-0.382 -1.028,-1.063 -0.045,-0.237 -0.058,-0.479 -0.036,-0.727 0.011,-0.13 0.03,-0.269 0.058,-0.413 0.116,-0.405 0.284,-0.666 0.504,-0.786 0.216,-0.061 0.469,-0.085 0.76,-0.069 0.307,0.015 0.658,0.07 1.056,0.165 0.954,0.21 1.407,0.607 1.358,1.19 L 1.244,-6.695 C 1.076,-6.046 0.491,-5.55 -0.51,-5.207 Z m -2.443,6.5 c 0.099,-0.229 0.346,-0.355 0.736,-0.379 0.309,-0.013 0.61,-0.011 0.9,0.004 0.838,0.044 1.564,0.192 2.174,0.443 0.878,0.354 1.288,0.88 1.229,1.58 C 2.068,3.145 2.02,3.354 1.937,3.57 1.441,4.831 0.192,5.409 -1.809,5.305 L -2.268,5.28 C -2.943,5.216 -3.305,4.89 -3.353,4.301 l 0.082,-0.962 c 0.097,-0.58 0.154,-0.965 0.169,-1.153 0.041,-0.482 0.09,-0.779 0.149,-0.893 z m -5.219,11.162 c -0.205,0.121 -0.469,0.173 -0.791,0.155 -0.291,-0.014 -0.641,-0.091 -1.051,-0.231 -0.314,-0.118 -0.501,-0.304 -0.56,-0.557 -0.01,-0.072 -0.005,-0.424 0.015,-1.051 0.562,0.833 1.358,1.395 2.387,1.684 z m -3.064,0.87 c 1.54,0.578 3.205,0.915 4.996,1.009 1.275,0.067 2.617,0.013 4.025,-0.162 C 1.031,13.743 3.746,12.781 5.93,11.285 8.01,9.874 9.126,8.271 9.277,6.479 9.297,6.246 9.299,6.012 9.287,5.777 9.131,3.399 7.311,1.05 3.826,-1.271 3.49,-1.507 2.726,-1.862 1.533,-2.334 c 0.064,0.019 0.153,0.03 0.265,0.036 0.549,0.028 1.654,-0.206 3.317,-0.704 2.494,-0.746 3.936,-1.886 4.323,-3.416 0.05,-0.203 0.083,-0.412 0.103,-0.632 0.094,-1.122 -0.361,-2.257 -1.367,-3.407 -1.167,-1.35 -2.856,-2.463 -5.067,-3.34 -2.259,-0.894 -4.566,-1.402 -6.922,-1.526 -1.646,-0.086 -3.324,0.014 -5.035,0.306 -0.362,0.068 -0.613,0.26 -0.754,0.574 -0.041,0.115 -0.443,4.418 -1.207,12.909 l -0.436,5.179 c -0.448,5.331 -0.651,8.219 -0.608,8.66 0.068,0.53 0.275,0.871 0.619,1.02 z" /></g><g
           transform="translate(162.0591,225.5039)"
           id="g36"><path
             id="path38"
             style="fill:#6ec72e;fill-opacity:1;fill-rule:nonzero;stroke:none"
             d="m 0,0 c 0.655,-0.435 1.451,-0.651 2.389,-0.651 1.124,0 2.435,0.326 3.935,0.976 2.389,0.954 3.584,2.451 3.584,4.491 0,0.652 -0.117,1.345 -0.351,2.083 C 9.275,5.337 8.433,3.861 7.027,2.474 5.293,0.781 3.232,-0.065 0.843,-0.065 0.562,-0.065 0.281,-0.044 0,0 m -21.362,49.925 c 1.029,2.213 1.967,3.905 2.81,5.077 3.279,4.469 8.901,7.983 16.865,10.544 0.328,0.087 2.342,0.564 6.043,1.433 2.857,0.737 4.498,1.279 4.919,1.626 -0.468,0.043 -0.96,0.066 -1.475,0.066 -2.296,0 -5.529,-0.521 -9.697,-1.563 -5.06,-1.258 -8.902,-2.647 -11.525,-4.166 -3.046,-1.779 -5.809,-4.578 -8.292,-8.396 -1.686,-2.604 -2.53,-4.709 -2.53,-6.314 0,-0.869 0.211,-1.562 0.633,-2.083 0.608,0.651 1.358,1.91 2.249,3.776 m -1.687,-52.529 c 0.703,0.782 1.827,1.193 3.373,1.237 -0.843,0.52 -1.616,0.781 -2.319,0.781 -0.609,0 -1.194,-0.195 -1.756,-0.586 -0.75,-0.52 -1.125,-1.236 -1.125,-2.148 0,-0.521 0.141,-1.129 0.421,-1.823 0.563,1.302 1.031,2.149 1.406,2.539 M 17.919,36.19 C 9.346,36.017 4.731,35.475 4.076,34.563 3.888,34.303 3.794,34.02 3.794,33.717 c 0,-0.999 0.844,-2.301 2.53,-3.905 0.656,-0.609 2.975,-2.583 6.957,-5.924 3.654,-3.081 6.581,-5.685 8.784,-7.811 6.23,-6.162 9.346,-11.218 9.346,-15.166 0,-0.564 -0.047,-1.085 -0.14,-1.562 -0.984,-4.34 -3.374,-7.876 -7.168,-10.61 -3.561,-2.647 -7.777,-4.123 -12.649,-4.427 -3.748,-0.216 -7.144,-0.325 -10.189,-0.325 -14.992,0 -24.221,0.868 -27.687,2.604 -2.062,1.042 -3.092,3.211 -3.092,6.51 0,2.994 0.773,5.77 2.319,8.331 0.889,1.474 4.661,2.213 11.314,2.213 h 12.578 c 2.717,0 4.684,0.108 5.903,0.326 2.154,0.39 3.278,1.258 3.373,2.603 v 0.13 c 0,1.605 -2.156,3.753 -6.465,6.444 -1.359,0.824 -3.092,1.823 -5.2,2.995 -2.155,1.171 -3.373,1.843 -3.654,2.017 -10.635,6.466 -16.96,13.451 -18.973,20.959 -0.469,1.693 -0.703,3.385 -0.703,5.077 0,6.683 3.63,13.279 10.892,19.788 4.45,3.992 12.063,6.921 22.838,8.787 4.122,0.694 7.776,1.042 10.962,1.042 5.528,0 9.673,-1.042 12.438,-3.125 4.684,-3.472 7.379,-9.481 8.081,-18.03 0.141,-1.562 0.211,-3.016 0.211,-4.361 0,-5.381 -1.078,-8.852 -3.233,-10.414 -1.264,-0.955 -6.348,-1.52 -15.248,-1.693" /></g><g
           transform="translate(162.0591,225.5039)"
           id="g40"><path
             id="path42"
             style="fill:none;stroke:#231f20;stroke-width:1;stroke-linecap:butt;stroke-linejoin:miter;stroke-miterlimit:10;stroke-dasharray:none;stroke-opacity:1"
             d="m 0,0 c 0.655,-0.435 1.451,-0.651 2.389,-0.651 1.124,0 2.435,0.326 3.935,0.976 2.389,0.954 3.584,2.451 3.584,4.491 0,0.652 -0.117,1.345 -0.351,2.083 C 9.275,5.337 8.433,3.861 7.027,2.474 5.293,0.781 3.232,-0.065 0.843,-0.065 0.562,-0.065 0.281,-0.044 0,0 Z m -21.362,49.925 c 1.029,2.213 1.967,3.905 2.81,5.077 3.279,4.469 8.901,7.983 16.865,10.544 0.328,0.087 2.342,0.564 6.043,1.433 2.857,0.737 4.498,1.279 4.919,1.626 -0.468,0.043 -0.96,0.066 -1.475,0.066 -2.296,0 -5.529,-0.521 -9.697,-1.563 -5.06,-1.258 -8.902,-2.647 -11.525,-4.166 -3.046,-1.779 -5.809,-4.578 -8.292,-8.396 -1.686,-2.604 -2.53,-4.709 -2.53,-6.314 0,-0.869 0.211,-1.562 0.633,-2.083 0.608,0.651 1.358,1.91 2.249,3.776 z m -1.687,-52.529 c 0.703,0.782 1.827,1.193 3.373,1.237 -0.843,0.52 -1.616,0.781 -2.319,0.781 -0.609,0 -1.194,-0.195 -1.756,-0.586 -0.75,-0.52 -1.125,-1.236 -1.125,-2.148 0,-0.521 0.141,-1.129 0.421,-1.823 0.563,1.302 1.031,2.149 1.406,2.539 z M 17.919,36.19 C 9.346,36.017 4.731,35.475 4.076,34.563 3.888,34.303 3.794,34.02 3.794,33.717 c 0,-0.999 0.844,-2.301 2.53,-3.905 0.656,-0.609 2.975,-2.583 6.957,-5.924 3.654,-3.081 6.581,-5.685 8.784,-7.811 6.23,-6.162 9.346,-11.218 9.346,-15.166 0,-0.564 -0.047,-1.085 -0.14,-1.562 -0.984,-4.34 -3.374,-7.876 -7.168,-10.61 -3.561,-2.647 -7.777,-4.123 -12.649,-4.427 -3.748,-0.216 -7.144,-0.325 -10.189,-0.325 -14.992,0 -24.221,0.868 -27.687,2.604 -2.062,1.042 -3.092,3.211 -3.092,6.51 0,2.994 0.773,5.77 2.319,8.331 0.889,1.474 4.661,2.213 11.314,2.213 h 12.578 c 2.717,0 4.684,0.108 5.903,0.326 2.154,0.39 3.278,1.258 3.373,2.603 v 0.13 c 0,1.605 -2.156,3.753 -6.465,6.444 -1.359,0.824 -3.092,1.823 -5.2,2.995 -2.155,1.171 -3.373,1.843 -3.654,2.017 -10.635,6.466 -16.96,13.451 -18.973,20.959 -0.469,1.693 -0.703,3.385 -0.703,5.077 0,6.683 3.63,13.279 10.892,19.788 4.45,3.992 12.063,6.921 22.838,8.787 4.122,0.694 7.776,1.042 10.962,1.042 5.528,0 9.673,-1.042 12.438,-3.125 4.684,-3.472 7.379,-9.481 8.081,-18.03 0.141,-1.562 0.211,-3.016 0.211,-4.361 0,-5.381 -1.078,-8.852 -3.233,-10.414 -1.264,-0.955 -6.348,-1.52 -15.248,-1.693 z" /></g><g
           transform="translate(218.0264,248.2979)"
           id="g44"><path
             id="path46"
             style="fill:#ed0c8f;fill-opacity:1;fill-rule:nonzero;stroke:none"
             d="M 0,0 C 0.15,0.827 0.206,1.573 0.167,2.236 0.056,4.186 -0.837,5.34 -2.509,5.698 -4.107,6.06 -5.656,6.208 -7.156,6.144 -7.426,6.133 -7.709,6.11 -8.003,6.079 -6.487,5.87 -4.977,5.534 -3.471,5.071 -1.336,4.38 -0.179,2.69 0,0 m -10.148,-12.543 c 0.021,-0.371 0.076,-4.532 0.163,-12.483 0.405,1.953 0.506,4.692 0.303,8.222 -0.078,1.365 -0.234,2.784 -0.466,4.261 m 2.352,0.892 c -0.163,-0.594 -0.21,-2.13 -0.142,-4.609 0.173,-4.293 0.245,-6.606 0.214,-6.939 -0.05,-1.685 -0.173,-3.195 -0.368,-4.531 -0.172,-1.278 -0.401,-2.237 -0.685,-2.874 l 0.002,-0.03 c -0.521,-1.234 -1.924,-1.899 -4.211,-1.997 -0.148,-0.006 -0.307,-0.004 -0.481,0.008 -2.465,0.012 -4.04,0.6 -4.723,1.763 -1.091,1.83 -2.038,7.575 -2.84,17.235 -0.118,1.187 -0.483,1.963 -1.095,2.328 -0.485,0.292 -1.47,0.465 -2.952,0.52 -3.93,0.203 -6.41,1.112 -7.44,2.73 l -0.038,0.028 -0.002,0.029 c -0.486,0.742 -0.74,1.298 -0.762,1.669 -0.129,2.242 -0.113,3.904 0.046,4.985 0.392,2.617 1.307,4.504 2.744,5.659 2.499,1.965 7.999,3.216 16.496,3.756 0.589,0.045 1.166,0.079 1.731,0.104 3.124,0.133 5.829,0.013 8.117,-0.357 C -1.099,7.332 0.838,6.438 1.627,5.143 2.037,4.456 2.314,2.846 2.46,0.311 2.492,-0.255 2.515,-0.86 2.527,-1.505 2.557,-3.302 2.432,-4.782 2.154,-5.947 1.88,-7.171 1.235,-7.961 0.22,-8.318 L 0.109,-8.322 c -0.418,-0.019 -1.766,-0.154 -4.043,-0.407 -2.108,-0.209 -3.395,-1.181 -3.862,-2.922" /></g><g
           transform="translate(218.0264,248.2979)"
           id="g48"><path
             id="path50"
             style="fill:none;stroke:#231f20;stroke-width:1;stroke-linecap:butt;stroke-linejoin:miter;stroke-miterlimit:10;stroke-dasharray:none;stroke-opacity:1"
             d="M 0,0 C 0.15,0.827 0.206,1.573 0.167,2.236 0.056,4.186 -0.837,5.34 -2.509,5.698 -4.107,6.06 -5.656,6.208 -7.156,6.144 -7.426,6.133 -7.709,6.11 -8.003,6.079 -6.487,5.87 -4.977,5.534 -3.471,5.071 -1.336,4.38 -0.179,2.69 0,0 Z m -10.148,-12.543 c 0.021,-0.371 0.076,-4.532 0.163,-12.483 0.405,1.953 0.506,4.692 0.303,8.222 -0.078,1.365 -0.234,2.784 -0.466,4.261 z m 2.352,0.892 c -0.163,-0.594 -0.21,-2.13 -0.142,-4.609 0.173,-4.293 0.245,-6.606 0.214,-6.939 -0.05,-1.685 -0.173,-3.195 -0.368,-4.531 -0.172,-1.278 -0.401,-2.237 -0.685,-2.874 l 0.002,-0.03 c -0.521,-1.234 -1.924,-1.899 -4.211,-1.997 -0.148,-0.006 -0.307,-0.004 -0.481,0.008 -2.465,0.012 -4.04,0.6 -4.723,1.763 -1.091,1.83 -2.038,7.575 -2.84,17.235 -0.118,1.187 -0.483,1.963 -1.095,2.328 -0.485,0.292 -1.47,0.465 -2.952,0.52 -3.93,0.203 -6.41,1.112 -7.44,2.73 l -0.038,0.028 -0.002,0.029 c -0.486,0.742 -0.74,1.298 -0.762,1.669 -0.129,2.242 -0.113,3.904 0.046,4.985 0.392,2.617 1.307,4.504 2.744,5.659 2.499,1.965 7.999,3.216 16.496,3.756 0.589,0.045 1.166,0.079 1.731,0.104 3.124,0.133 5.829,0.013 8.117,-0.357 C -1.099,7.332 0.838,6.438 1.627,5.143 2.037,4.456 2.314,2.846 2.46,0.311 2.492,-0.255 2.515,-0.86 2.527,-1.505 2.557,-3.302 2.432,-4.782 2.154,-5.947 1.88,-7.171 1.235,-7.961 0.22,-8.318 L 0.109,-8.322 c -0.418,-0.019 -1.766,-0.154 -4.043,-0.407 -2.108,-0.209 -3.395,-1.181 -3.862,-2.922 z" /></g><g
           transform="translate(252.1719,239.8447)"
           id="g52"><path
             id="path54"
             style="fill:#ed0c8f;fill-opacity:1;fill-rule:nonzero;stroke:none"
             d="m 0,0 c 0.324,3.916 -0.898,7.171 -3.67,9.767 -2.771,2.593 -6.609,4.04 -11.519,4.336 0.303,-0.195 1.204,-0.513 2.696,-0.956 1.638,-0.491 2.728,-0.87 3.273,-1.137 3.702,-1.771 6.156,-4.033 7.359,-6.787 0.29,-0.664 0.613,-1.662 0.972,-2.996 C -0.607,1.152 -0.311,0.41 0,0 m -17.643,0.125 c -2.185,0.112 -3.891,-0.979 -5.117,-3.274 -0.407,-0.759 -0.647,-1.557 -0.717,-2.394 -0.106,-1.286 0.203,-2.646 0.922,-4.079 0.782,-1.575 1.95,-2.517 3.504,-2.825 0.267,-0.056 0.524,-0.091 0.768,-0.106 1.301,-0.079 2.619,0.341 3.953,1.259 1.882,1.276 2.887,2.704 3.017,4.282 0.097,1.169 -0.281,2.415 -1.132,3.74 -1.353,2.137 -3.084,3.27 -5.198,3.397 m -1.622,-14.703 c -0.036,0.158 -0.779,0.712 -2.232,1.661 -1.519,1.012 -2.645,2.294 -3.381,3.846 -0.71,1.55 -1.088,2.346 -1.135,2.388 -0.157,-1.909 0.33,-3.622 1.463,-5.139 1.265,-1.701 3.027,-2.62 5.285,-2.756 m -9.534,29.238 c 2.936,1.486 6.527,2.102 10.774,1.846 1.227,-0.074 2.498,-0.22 3.812,-0.436 C -8.178,15.06 -3.906,13.011 -1.399,9.923 1.646,6.175 2.979,2.013 2.6,-2.565 2.502,-3.754 2.291,-4.965 1.967,-6.198 c -1.479,-5.648 -4.85,-10.456 -10.112,-14.426 -3.076,-2.301 -6.972,-3.31 -11.685,-3.024 l -0.736,0.044 c -4.8,0.426 -8.782,1.949 -11.946,4.568 -2.586,2.133 -4.459,4.84 -5.618,8.121 -1.021,2.881 -1.401,5.89 -1.142,9.026 l 0.058,0.701 c 0.404,3.383 1.484,6.45 3.241,9.204 1.846,2.922 4.238,5.137 7.174,6.644" /></g><g
           transform="translate(252.1719,239.8447)"
           id="g56"><path
             id="path58"
             style="fill:none;stroke:#231f20;stroke-width:1;stroke-linecap:butt;stroke-linejoin:miter;stroke-miterlimit:10;stroke-dasharray:none;stroke-opacity:1"
             d="m 0,0 c 0.324,3.916 -0.898,7.171 -3.67,9.767 -2.771,2.593 -6.609,4.04 -11.519,4.336 0.303,-0.195 1.204,-0.513 2.696,-0.956 1.638,-0.491 2.728,-0.87 3.273,-1.137 3.702,-1.771 6.156,-4.033 7.359,-6.787 0.29,-0.664 0.613,-1.662 0.972,-2.996 C -0.607,1.152 -0.311,0.41 0,0 Z m -17.643,0.125 c -2.185,0.112 -3.891,-0.979 -5.117,-3.274 -0.407,-0.759 -0.647,-1.557 -0.717,-2.394 -0.106,-1.286 0.203,-2.646 0.922,-4.079 0.782,-1.575 1.95,-2.517 3.504,-2.825 0.267,-0.056 0.524,-0.091 0.768,-0.106 1.301,-0.079 2.619,0.341 3.953,1.259 1.882,1.276 2.887,2.704 3.017,4.282 0.097,1.169 -0.281,2.415 -1.132,3.74 -1.353,2.137 -3.084,3.27 -5.198,3.397 z m -1.622,-14.703 c -0.036,0.158 -0.779,0.712 -2.232,1.661 -1.519,1.012 -2.645,2.294 -3.381,3.846 -0.71,1.55 -1.088,2.346 -1.135,2.388 -0.157,-1.909 0.33,-3.622 1.463,-5.139 1.265,-1.701 3.027,-2.62 5.285,-2.756 z m -9.534,29.238 c 2.936,1.486 6.527,2.102 10.774,1.846 1.227,-0.074 2.498,-0.22 3.812,-0.436 C -8.178,15.06 -3.906,13.011 -1.399,9.923 1.646,6.175 2.979,2.013 2.6,-2.565 2.502,-3.754 2.291,-4.965 1.967,-6.198 c -1.479,-5.648 -4.85,-10.456 -10.112,-14.426 -3.076,-2.301 -6.972,-3.31 -11.685,-3.024 l -0.736,0.044 c -4.8,0.426 -8.782,1.949 -11.946,4.568 -2.586,2.133 -4.459,4.84 -5.618,8.121 -1.021,2.881 -1.401,5.89 -1.142,9.026 l 0.058,0.701 c 0.404,3.383 1.484,6.45 3.241,9.204 1.846,2.922 4.238,5.137 7.174,6.644 z" /></g><g
           transform="translate(267.6914,235.2686)"
           id="g60"><path
             id="path62"
             style="fill:#5794d6;fill-opacity:1;fill-rule:nonzero;stroke:none"
             d="M 0,0 C 1.006,0.884 1.519,1.672 1.537,2.364 1.545,2.601 1.486,2.835 1.366,3.065 1.158,2.51 0.758,1.917 0.164,1.288 -0.802,0.314 -1.934,-0.513 -3.232,-1.194 -3.925,-1.556 -4.529,-1.813 -5.045,-1.963 -3.104,-1.905 -1.421,-1.252 0,0 M -7.483,2.389 -7.488,2.198 c -0.046,-1.621 0.561,-2.399 1.822,-2.338 0.405,0.02 0.878,0.124 1.416,0.314 2.391,0.844 3.639,1.967 3.742,3.371 L -0.507,3.6 c 0.024,0.838 -0.546,1.447 -1.708,1.827 -0.867,0.265 -1.91,0.379 -3.127,0.338 L -5.438,5.76 C -6.355,5.716 -6.94,5.388 -7.192,4.775 -7.308,4.497 -7.404,3.701 -7.483,2.389 m -5.908,10.672 c 0.166,0.59 0.631,1.221 1.397,1.895 0.437,0.366 1.226,0.787 2.371,1.261 0.366,0.144 0.571,0.219 0.614,0.221 l 0.137,0.361 c -1.857,-0.091 -3.17,-0.473 -3.935,-1.147 -0.787,-0.673 -1.201,-1.812 -1.246,-3.414 0.323,0.125 0.543,0.4 0.662,0.823 m 0.887,-32.346 c -2.008,-0.098 -3.182,0.272 -3.52,1.11 -0.658,1.622 -0.931,7.107 -0.82,16.455 0.008,1.818 0.033,3.483 0.075,4.993 0.17,6.08 0.552,9.832 1.148,11.262 0.914,2.207 3.117,3.577 6.609,4.111 0.728,0.107 1.467,0.18 2.213,0.216 2.029,0.099 4.104,-0.091 6.223,-0.569 3.666,-0.839 6.654,-3.048 8.965,-6.626 1.92,-2.978 2.84,-5.986 2.755,-9.026 C 11.131,2.204 11.098,1.774 11.043,1.354 10.738,-1.133 9.567,-3.361 7.529,-5.333 6.566,-6.18 5.729,-6.779 5.016,-7.132 4.303,-7.484 3.471,-7.856 2.521,-8.248 2.024,-8.454 1.732,-8.614 1.645,-8.728 1.621,-8.765 1.609,-8.803 1.609,-8.839 c -0.005,-0.145 0.14,-0.318 0.432,-0.522 0.481,-0.36 1.42,-1.16 2.813,-2.4 1.375,-1.205 2.343,-2.013 2.908,-2.421 0.961,-0.68 1.435,-1.294 1.42,-1.84 C 9.176,-16.223 9.106,-16.406 8.975,-16.576 8.222,-17.56 6.35,-18.149 3.357,-18.35 l -0.351,-0.017 c -2.158,-0.105 -3.729,0.145 -4.713,0.753 0.002,0.072 -1.242,1.793 -3.729,5.162 -0.572,0.88 -1.039,1.312 -1.402,1.295 -0.043,-0.002 -0.076,-0.014 -0.097,-0.032 -0.258,-0.067 -0.397,-0.493 -0.419,-1.275 L -7.365,-12.9 c 0.013,-0.237 0.008,-0.79 -0.016,-1.663 -0.055,-1.931 -0.397,-3.148 -1.029,-3.65 -0.807,-0.622 -2.172,-0.978 -4.094,-1.072" /></g><g
           transform="translate(267.6914,235.2686)"
           id="g64"><path
             id="path66"
             style="fill:none;stroke:#231f20;stroke-width:1;stroke-linecap:butt;stroke-linejoin:miter;stroke-miterlimit:10;stroke-dasharray:none;stroke-opacity:1"
             d="M 0,0 C 1.006,0.884 1.519,1.672 1.537,2.364 1.545,2.601 1.486,2.835 1.366,3.065 1.158,2.51 0.758,1.917 0.164,1.288 -0.802,0.314 -1.934,-0.513 -3.232,-1.194 -3.925,-1.556 -4.529,-1.813 -5.045,-1.963 -3.104,-1.905 -1.421,-1.252 0,0 Z M -7.483,2.389 -7.488,2.198 c -0.046,-1.621 0.561,-2.399 1.822,-2.338 0.405,0.02 0.878,0.124 1.416,0.314 2.391,0.844 3.639,1.967 3.742,3.371 L -0.507,3.6 c 0.024,0.838 -0.546,1.447 -1.708,1.827 -0.867,0.265 -1.91,0.379 -3.127,0.338 L -5.438,5.76 C -6.355,5.716 -6.94,5.388 -7.192,4.775 -7.308,4.497 -7.404,3.701 -7.483,2.389 Z m -5.908,10.672 c 0.166,0.59 0.631,1.221 1.397,1.895 0.437,0.366 1.226,0.787 2.371,1.261 0.366,0.144 0.571,0.219 0.614,0.221 l 0.137,0.361 c -1.857,-0.091 -3.17,-0.473 -3.935,-1.147 -0.787,-0.673 -1.201,-1.812 -1.246,-3.414 0.323,0.125 0.543,0.4 0.662,0.823 z m 0.887,-32.346 c -2.008,-0.098 -3.182,0.272 -3.52,1.11 -0.658,1.622 -0.931,7.107 -0.82,16.455 0.008,1.818 0.033,3.483 0.075,4.993 0.17,6.08 0.552,9.832 1.148,11.262 0.914,2.207 3.117,3.577 6.609,4.111 0.728,0.107 1.467,0.18 2.213,0.216 2.029,0.099 4.104,-0.091 6.223,-0.569 3.666,-0.839 6.654,-3.048 8.965,-6.626 1.92,-2.978 2.84,-5.986 2.755,-9.026 C 11.131,2.204 11.098,1.774 11.043,1.354 10.738,-1.133 9.567,-3.361 7.529,-5.333 6.566,-6.18 5.729,-6.779 5.016,-7.132 4.303,-7.484 3.471,-7.856 2.521,-8.248 2.024,-8.454 1.732,-8.614 1.645,-8.728 1.621,-8.765 1.609,-8.803 1.609,-8.839 c -0.005,-0.145 0.14,-0.318 0.432,-0.522 0.481,-0.36 1.42,-1.16 2.813,-2.4 1.375,-1.205 2.343,-2.013 2.908,-2.421 0.961,-0.68 1.435,-1.294 1.42,-1.84 C 9.176,-16.223 9.106,-16.406 8.975,-16.576 8.222,-17.56 6.35,-18.149 3.357,-18.35 l -0.351,-0.017 c -2.158,-0.105 -3.729,0.145 -4.713,0.753 0.002,0.072 -1.242,1.793 -3.729,5.162 -0.572,0.88 -1.039,1.312 -1.402,1.295 -0.043,-0.002 -0.076,-0.014 -0.097,-0.032 -0.258,-0.067 -0.397,-0.493 -0.419,-1.275 L -7.365,-12.9 c 0.013,-0.237 0.008,-0.79 -0.016,-1.663 -0.055,-1.931 -0.397,-3.148 -1.029,-3.65 -0.807,-0.622 -2.172,-0.978 -4.094,-1.072 z" /></g><g
           transform="translate(176.625,178.2148)"
           id="g68"><path
             id="path70"
             style="fill:#50ade5;fill-opacity:1;fill-rule:nonzero;stroke:none"
             d="m 0,0 c -0.193,-0.039 -1.107,-2.788 -2.029,-4.029 -2.44,-3.286 -7.653,-5.422 -12.824,-4.043 -7.693,2.051 -12.931,11.23 -11.302,17.122 0.365,1.323 1.239,2.515 2.303,3.436 0.514,0.446 1.722,0.75 1.722,0.75 0.027,0.031 -0.198,0.715 -0.139,0.936 0.356,1.326 2.695,1.096 4.359,0.593 C -12.72,13.198 -4.88,7.597 -3.103,6.058 -2.199,5.275 -1.88,4.674 -1.94,4.352 -2.007,3.997 -2.412,3.885 -2.985,4.016 -3.559,4.146 -4.228,4.498 -4.909,5.1 c -1.882,1.66 -8.695,6.872 -13.035,8.175 -1.752,0.527 -3.182,0.294 -3.626,-0.869 -0.032,-0.082 -0.052,-0.188 -0.156,-0.259 -1.321,-0.891 -2.081,-2.08 -2.438,-3.406 -1.327,-4.926 2.698,-11.622 6.971,-14.177 0.95,-0.568 1.902,-0.962 2.838,-1.211 7.909,-2.105 12.411,4.512 13.488,10.356 0.886,4.809 -0.154,9.612 -0.801,14.338 -0.128,0.932 -0.391,2.621 -0.815,4.608 -0.083,0.388 -0.085,0.76 -0.026,1.049 0.133,0.643 0.523,0.987 0.941,0.888 C 0.563,24.084 1.379,8.41 0.685,2.874 0.497,1.38 1.052,0.108 2.835,-0.248 3.167,-0.314 3.366,-0.656 3.313,-0.98 3.264,-1.271 2.965,-1.514 2.632,-1.447 1.425,-1.205 0,0 0,0" /></g><g
           transform="translate(176.625,178.2148)"
           id="g72"><path
             id="path74"
             style="fill:none;stroke:#50ade5;stroke-width:2;stroke-linecap:butt;stroke-linejoin:miter;stroke-miterlimit:10;stroke-dasharray:none;stroke-opacity:1"
             d="m 0,0 c -0.193,-0.039 -1.107,-2.788 -2.029,-4.029 -2.44,-3.286 -7.653,-5.422 -12.824,-4.043 -7.693,2.051 -12.931,11.23 -11.302,17.122 0.365,1.323 1.239,2.515 2.303,3.436 0.514,0.446 1.722,0.75 1.722,0.75 0.027,0.031 -0.198,0.715 -0.139,0.936 0.356,1.326 2.695,1.096 4.359,0.593 C -12.72,13.198 -4.88,7.597 -3.103,6.058 -2.199,5.275 -1.88,4.674 -1.94,4.352 -2.007,3.997 -2.412,3.885 -2.985,4.016 -3.559,4.146 -4.228,4.498 -4.909,5.1 c -1.882,1.66 -8.695,6.872 -13.035,8.175 -1.752,0.527 -3.182,0.294 -3.626,-0.869 -0.032,-0.082 -0.052,-0.188 -0.156,-0.259 -1.321,-0.891 -2.081,-2.08 -2.438,-3.406 -1.327,-4.926 2.698,-11.622 6.971,-14.177 0.95,-0.568 1.902,-0.962 2.838,-1.211 7.909,-2.105 12.411,4.512 13.488,10.356 0.886,4.809 -0.154,9.612 -0.801,14.338 -0.128,0.932 -0.391,2.621 -0.815,4.608 -0.083,0.388 -0.085,0.76 -0.026,1.049 0.133,0.643 0.523,0.987 0.941,0.888 C 0.563,24.084 1.379,8.41 0.685,2.874 0.497,1.38 1.052,0.108 2.835,-0.248 3.167,-0.314 3.366,-0.656 3.313,-0.98 3.264,-1.271 2.965,-1.514 2.632,-1.447 1.425,-1.205 0,0 0,0 Z" /></g><g
           transform="translate(188.25,193.5977)"
           id="g76"><path
             id="path78"
             style="fill:#50ade5;fill-opacity:1;fill-rule:nonzero;stroke:none"
             d="M 0,0 C -0.353,0.308 -0.505,0.654 -0.451,1.013 -0.344,1.726 0.133,1.977 0.989,1.831 2.273,1.613 2.856,1.225 2.775,0.639 2.645,-0.305 2.106,-0.718 1.164,-0.561 0.732,-0.488 0.339,-0.296 0,0 m 3.512,-17.403 c 3.56,1.675 1.749,9.407 -0.157,11.926 -1.397,1.847 -2.652,2.559 -3.696,2.072 -0.829,-0.388 -1.501,-2.158 -1.825,-2.352 -0.012,-0.007 -0.121,0.021 -0.121,0.021 -10e-4,-0.001 0.102,-0.136 0.137,-0.192 0.093,-0.149 0.154,-0.593 0.088,-1.314 -0.063,-0.69 1.039,-12.297 5.574,-10.161 m -4.537,0.348 c 0.057,0.114 -2.958,5.11 -3.403,7.137 -0.235,1.073 1.25,4.542 1.251,4.544 0.064,0.124 1.172,2.722 1.986,3.08 6.975,3.074 11.629,-12.063 6.7,-15.76 1.449,-0.202 2.174,-0.3 3.625,-0.479 0.334,-0.041 0.554,-0.366 0.519,-0.694 -0.03,-0.294 -0.313,-0.559 -0.648,-0.517 -1.967,0.245 -3.808,0.496 -5.815,0.793 0.003,0.026 0.004,0.039 0.008,0.065 -0.255,0.004 -0.469,0.002 -0.97,0.079 -12.194,1.867 -2.507,0.384 -0.124,0.019 0,0 -7.017,1.142 -11.096,1.958 -0.333,0.066 -0.533,0.409 -0.478,0.732 0.05,0.291 0.349,0.534 0.681,0.467 0.041,-0.008 7.764,-1.424 7.764,-1.424" /></g><g
           transform="translate(188.25,193.5977)"
           id="g80"><path
             id="path82"
             style="fill:none;stroke:#50ade5;stroke-width:2;stroke-linecap:butt;stroke-linejoin:miter;stroke-miterlimit:10;stroke-dasharray:none;stroke-opacity:1"
             d="M 0,0 C -0.353,0.308 -0.505,0.654 -0.451,1.013 -0.344,1.726 0.133,1.977 0.989,1.831 2.273,1.613 2.856,1.225 2.775,0.639 2.645,-0.305 2.106,-0.718 1.164,-0.561 0.732,-0.488 0.339,-0.296 0,0 Z m 3.512,-17.403 c 3.56,1.675 1.749,9.407 -0.157,11.926 -1.397,1.847 -2.652,2.559 -3.696,2.072 -0.829,-0.388 -1.501,-2.158 -1.825,-2.352 -0.012,-0.007 -0.121,0.021 -0.121,0.021 -10e-4,-0.001 0.102,-0.136 0.137,-0.192 0.093,-0.149 0.154,-0.593 0.088,-1.314 -0.063,-0.69 1.039,-12.297 5.574,-10.161 z m -4.537,0.348 c 0.057,0.114 -2.958,5.11 -3.403,7.137 -0.235,1.073 1.25,4.542 1.251,4.544 0.064,0.124 1.172,2.722 1.986,3.08 6.975,3.074 11.629,-12.063 6.7,-15.76 1.449,-0.202 2.174,-0.3 3.625,-0.479 0.334,-0.041 0.554,-0.366 0.519,-0.694 -0.03,-0.294 -0.313,-0.559 -0.648,-0.517 -1.967,0.245 -3.808,0.496 -5.815,0.793 0.003,0.026 0.004,0.039 0.008,0.065 -0.255,0.004 -0.469,0.002 -0.97,0.079 -12.194,1.867 -2.507,0.384 -0.124,0.019 0,0 -7.017,1.142 -11.096,1.958 -0.333,0.066 -0.533,0.409 -0.478,0.732 0.05,0.291 0.349,0.534 0.681,0.467 0.041,-0.008 7.764,-1.424 7.764,-1.424 z" /></g><g
           transform="translate(222.3145,175.0137)"
           id="g84"><path
             id="path86"
             style="fill:#50ade5;fill-opacity:1;fill-rule:nonzero;stroke:none"
             d="m 0,0 c 4.566,3.426 -2.907,9.354 -8.45,11.604 -3.365,1.366 -7.322,1.291 -9.42,-1.511 C -19.985,7.27 -19.319,0.196 -18.044,-0.703 -16.077,-2.092 -3.718,-2.789 0,0 m -25.058,-1.159 c -0.335,0.042 -0.554,0.367 -0.522,0.661 0.036,0.327 0.317,0.588 0.651,0.547 1.584,-0.196 4.923,-0.556 4.923,-0.556 0.444,0.643 -4.012,11.868 -4.465,17.777 -0.115,1.498 -0.171,2.711 -0.142,3.6 0.093,2.96 2.094,1.982 2.121,-0.004 0.006,-0.447 0.031,-0.941 0.047,-1.397 0.047,-1.323 0.033,-2.436 0.102,-3.163 0.162,-1.709 1.447,-10.233 1.447,-10.233 0.037,0.002 1.104,4.224 2.646,5.681 3.326,3.14 8.317,2.209 12.265,0.311 4.726,-2.272 9.484,-6.313 9.086,-9.907 -0.734,-6.64 -20.406,-4.122 -20.406,-4.122 -0.02,-0.032 0.413,-0.635 0.646,-0.915 0.916,-1.106 1.394,-1.714 1.389,-1.84 -0.021,-0.572 -0.38,-0.91 -1.086,-0.865 -0.457,0.029 -1.05,0.525 -1.718,1.48 -0.534,0.762 -1.018,1.518 -1.412,2.318 -2.23,0.224 -3.345,0.35 -5.572,0.627" /></g><g
           transform="translate(222.3145,175.0137)"
           id="g88"><path
             id="path90"
             style="fill:none;stroke:#50ade5;stroke-width:2;stroke-linecap:butt;stroke-linejoin:miter;stroke-miterlimit:10;stroke-dasharray:none;stroke-opacity:1"
             d="m 0,0 c 4.566,3.426 -2.907,9.354 -8.45,11.604 -3.365,1.366 -7.322,1.291 -9.42,-1.511 C -19.985,7.27 -19.319,0.196 -18.044,-0.703 -16.077,-2.092 -3.718,-2.789 0,0 Z m -25.058,-1.159 c -0.335,0.042 -0.554,0.367 -0.522,0.661 0.036,0.327 0.317,0.588 0.651,0.547 1.584,-0.196 4.923,-0.556 4.923,-0.556 0.444,0.643 -4.012,11.868 -4.465,17.777 -0.115,1.498 -0.171,2.711 -0.142,3.6 0.093,2.96 2.094,1.982 2.121,-0.004 0.006,-0.447 0.031,-0.941 0.047,-1.397 0.047,-1.323 0.033,-2.436 0.102,-3.163 0.162,-1.709 1.447,-10.233 1.447,-10.233 0.037,0.002 1.104,4.224 2.646,5.681 3.326,3.14 8.317,2.209 12.265,0.311 4.726,-2.272 9.484,-6.313 9.086,-9.907 -0.734,-6.64 -20.406,-4.122 -20.406,-4.122 -0.02,-0.032 0.413,-0.635 0.646,-0.915 0.916,-1.106 1.394,-1.714 1.389,-1.84 -0.021,-0.572 -0.38,-0.91 -1.086,-0.865 -0.457,0.029 -1.05,0.525 -1.718,1.48 -0.534,0.762 -1.018,1.518 -1.412,2.318 -2.23,0.224 -3.345,0.35 -5.572,0.627 z" /></g><g
           transform="translate(238.375,190.542)"
           id="g92"><path
             id="path94"
             style="fill:#50ade5;fill-opacity:1;fill-rule:nonzero;stroke:none"
             d="M 0,0 C -0.394,0.213 -0.604,0.529 -0.615,0.892 -0.637,1.615 -0.218,1.963 0.641,2.007 1.928,2.073 2.563,1.815 2.588,1.224 2.627,0.27 2.178,-0.254 1.233,-0.304 0.84,-0.325 0.407,-0.221 0,0 m 2.209,-5.031 c -0.694,0.288 -1.82,1.524 -2.775,1.639 -1.232,0.149 -2.086,-0.818 -2.571,-2.902 -0.655,-2.817 1.388,-10.383 5.617,-10.829 5.189,-0.548 1.101,9.504 0.347,10.707 -0.391,0.625 -0.56,1.053 -0.534,1.224 0.009,0.053 0.044,0.189 0.032,0.2 C 2.316,-4.984 2.229,-5.04 2.209,-5.031 m -5.826,4.884 c -0.394,0.231 -0.638,0.54 -0.644,0.903 -0.012,0.723 0.41,1.064 1.27,1.094 1.328,0.046 1.963,-0.22 1.979,-0.813 0.027,-0.954 -0.43,-1.466 -1.415,-1.503 -0.393,-0.014 -0.811,0.096 -1.19,0.319 M 6.32,-16.186 c -0.104,-0.006 -0.743,-1.036 -1.263,-1.438 -0.997,-0.771 -2.265,-1.032 -3.658,-0.775 -6.879,1.27 -9.961,17.28 -1.686,16.241 0.955,-0.12 3.246,-2.204 3.309,-2.265 0.04,-0.037 0.79,0.006 0.8,0.017 0.224,0.217 -0.234,2.715 0.235,2.72 2.651,0.036 1.708,-4.19 1.951,-5.444 0.072,-0.374 0.259,-0.814 0.341,-1.066 0.433,-1.325 0.735,-3.405 0.733,-5.127 -10e-4,-1.305 0.559,-3.304 2.847,-3.106 0.333,0.029 0.602,-0.247 0.625,-0.575 0.019,-0.295 -0.214,-0.613 -0.548,-0.642 -1.754,-0.151 -3.603,1.465 -3.686,1.46" /></g><g
           transform="translate(238.375,190.542)"
           id="g96"><path
             id="path98"
             style="fill:none;stroke:#50ade5;stroke-width:2;stroke-linecap:butt;stroke-linejoin:miter;stroke-miterlimit:10;stroke-dasharray:none;stroke-opacity:1"
             d="M 0,0 C -0.394,0.213 -0.604,0.529 -0.615,0.892 -0.637,1.615 -0.218,1.963 0.641,2.007 1.928,2.073 2.563,1.815 2.588,1.224 2.627,0.27 2.178,-0.254 1.233,-0.304 0.84,-0.325 0.407,-0.221 0,0 Z m 2.209,-5.031 c -0.694,0.288 -1.82,1.524 -2.775,1.639 -1.232,0.149 -2.086,-0.818 -2.571,-2.902 -0.655,-2.817 1.388,-10.383 5.617,-10.829 5.189,-0.548 1.101,9.504 0.347,10.707 -0.391,0.625 -0.56,1.053 -0.534,1.224 0.009,0.053 0.044,0.189 0.032,0.2 C 2.316,-4.984 2.229,-5.04 2.209,-5.031 Z m -5.826,4.884 c -0.394,0.231 -0.638,0.54 -0.644,0.903 -0.012,0.723 0.41,1.064 1.27,1.094 1.328,0.046 1.963,-0.22 1.979,-0.813 0.027,-0.954 -0.43,-1.466 -1.415,-1.503 -0.393,-0.014 -0.811,0.096 -1.19,0.319 z M 6.32,-16.186 c -0.104,-0.006 -0.743,-1.036 -1.263,-1.438 -0.997,-0.771 -2.265,-1.032 -3.658,-0.775 -6.879,1.27 -9.961,17.28 -1.686,16.241 0.955,-0.12 3.246,-2.204 3.309,-2.265 0.04,-0.037 0.79,0.006 0.8,0.017 0.224,0.217 -0.234,2.715 0.235,2.72 2.651,0.036 1.708,-4.19 1.951,-5.444 0.072,-0.374 0.259,-0.814 0.341,-1.066 0.433,-1.325 0.735,-3.405 0.733,-5.127 -10e-4,-1.305 0.559,-3.304 2.847,-3.106 0.333,0.029 0.602,-0.247 0.625,-0.575 0.019,-0.295 -0.214,-0.613 -0.548,-0.642 -1.754,-0.151 -3.603,1.465 -3.686,1.46 z" /></g><g
           transform="translate(255.1162,171.4531)"
           id="g100"><path
             id="path102"
             style="fill:#50ade5;fill-opacity:1;fill-rule:nonzero;stroke:none"
             d="m 0,0 c -0.052,0.59 -0.746,0.807 -2.128,0.662 -0.921,-0.098 -1.357,-0.47 -1.302,-1.193 0.028,-0.361 0.272,-0.667 0.701,-0.855 0.45,-0.196 0.916,-0.27 1.337,-0.225 C -0.379,-1.502 0.083,-0.951 0,0 M -3.651,-0.387 C -3.695,0.204 -4.388,0.429 -5.813,0.301 -6.736,0.218 -7.176,-0.147 -7.13,-0.87 c 0.023,-0.361 0.301,-0.655 0.734,-0.862 0.418,-0.201 0.869,-0.289 1.292,-0.249 1.056,0.096 1.524,0.642 1.453,1.594 m -3.704,2.373 c -0.021,0.328 0.212,0.646 0.545,0.674 5.449,0.47 0.133,10.388 -0.003,12.425 -0.045,0.689 0.293,1.051 1.008,1.118 0.873,0.082 1.675,-1.059 2.387,-3.433 0.77,-2.567 2.783,-10.801 -3.314,-11.327 -0.334,-0.028 -0.605,0.248 -0.623,0.543" /></g><g
           transform="translate(255.1162,171.4531)"
           id="g104"><path
             id="path106"
             style="fill:none;stroke:#50ade5;stroke-width:2;stroke-linecap:butt;stroke-linejoin:miter;stroke-miterlimit:10;stroke-dasharray:none;stroke-opacity:1"
             d="m 0,0 c -0.052,0.59 -0.746,0.807 -2.128,0.662 -0.921,-0.098 -1.357,-0.47 -1.302,-1.193 0.028,-0.361 0.272,-0.667 0.701,-0.855 0.45,-0.196 0.916,-0.27 1.337,-0.225 C -0.379,-1.502 0.083,-0.951 0,0 Z M -3.651,-0.387 C -3.695,0.204 -4.388,0.429 -5.813,0.301 -6.736,0.218 -7.176,-0.147 -7.13,-0.87 c 0.023,-0.361 0.301,-0.655 0.734,-0.862 0.418,-0.201 0.869,-0.289 1.292,-0.249 1.056,0.096 1.524,0.642 1.453,1.594 z m -3.704,2.373 c -0.021,0.328 0.212,0.646 0.545,0.674 5.449,0.47 0.133,10.388 -0.003,12.425 -0.045,0.689 0.293,1.051 1.008,1.118 0.873,0.082 1.675,-1.059 2.387,-3.433 0.77,-2.567 2.783,-10.801 -3.314,-11.327 -0.334,-0.028 -0.605,0.248 -0.623,0.543 z" /></g><g
           transform="translate(265.8799,175.6445)"
           id="g108"><path
             id="path110"
             style="fill:#50ade5;fill-opacity:1;fill-rule:nonzero;stroke:none"
             d="m 0,0 c 0.037,-0.293 -0.177,-0.63 -0.509,-0.682 -5.973,-0.938 -9.786,13.632 -10.77,17.036 -0.477,1.648 -0.818,2.981 -0.901,3.931 -0.092,1.05 0.25,1.558 0.709,1.613 1.454,0.177 2.12,-4.553 2.449,-5.994 0.588,-2.59 3.767,-16.067 8.367,-15.377 C -0.326,0.577 -0.041,0.326 0,0" /></g><g
           transform="translate(265.8799,175.6445)"
           id="g112"><path
             id="path114"
             style="fill:none;stroke:#50ade5;stroke-width:2;stroke-linecap:butt;stroke-linejoin:miter;stroke-miterlimit:10;stroke-dasharray:none;stroke-opacity:1"
             d="m 0,0 c 0.037,-0.293 -0.177,-0.63 -0.509,-0.682 -5.973,-0.938 -9.786,13.632 -10.77,17.036 -0.477,1.648 -0.818,2.981 -0.901,3.931 -0.092,1.05 0.25,1.558 0.709,1.613 1.454,0.177 2.12,-4.553 2.449,-5.994 0.588,-2.59 3.767,-16.067 8.367,-15.377 C -0.326,0.577 -0.041,0.326 0,0 Z" /></g><g
           transform="translate(264.7217,175.4609)"
           id="g116"><path
             id="path118"
             style="fill:#50ade5;fill-opacity:1;fill-rule:nonzero;stroke:none"
             d="M 0,0 C -0.04,0.326 0.174,0.657 0.502,0.711 5.094,1.466 16.004,2.995 15.073,8.265 14.947,8.977 14.127,9.321 12.581,9.397 11.828,9.435 10.172,9.341 7.644,9.198 6.46,9.131 4.575,9.005 2.338,9.137 0.581,9.24 -0.462,9.91 -0.57,10.792 c -0.581,4.733 7.498,11.781 12.682,12.938 1.983,0.443 3.161,-0.345 3.546,-2.41 0.067,-0.354 0.016,-0.738 -0.139,-1.211 -0.18,-0.546 -0.441,-0.879 -0.79,-0.959 -0.232,-0.053 -0.485,-0.013 -0.751,0.127 -0.268,0.142 -0.376,0.325 -0.381,0.557 -0.016,0.822 -0.015,1.208 -0.015,1.208 0,0 -0.687,1.386 -1.53,1.199 C 8.794,21.521 0.93,14.298 1.306,11.396 1.373,10.873 2.107,10.562 3.431,10.46 c 0.661,-0.051 2.384,-0.032 5.111,0.116 2.398,0.131 4.232,0.134 5.383,-0.046 1.787,-0.278 2.847,-1.006 3.066,-2.2 0.06,-0.323 0.008,-0.681 0.009,-0.972 0.004,-1.592 1.224,-3.193 3.225,-2.708 1.372,0.333 2.058,0.506 3.426,0.86 0.327,0.084 0.63,-0.142 0.697,-0.463 C 24.407,4.759 24.221,4.403 23.894,4.319 20.459,3.434 20.454,3.459 20.454,3.459 18.363,2.952 16.206,5.021 16.07,5.025 15.954,5.029 15.217,4.062 14.618,3.626 10.93,0.943 5.214,0.224 0.649,-0.494 0.317,-0.546 0.035,-0.293 0,0" /></g><g
           transform="translate(264.7217,175.4609)"
           id="g120"><path
             id="path122"
             style="fill:none;stroke:#50ade5;stroke-width:2;stroke-linecap:butt;stroke-linejoin:miter;stroke-miterlimit:10;stroke-dasharray:none;stroke-opacity:1"
             d="M 0,0 C -0.04,0.326 0.174,0.657 0.502,0.711 5.094,1.466 16.004,2.995 15.073,8.265 14.947,8.977 14.127,9.321 12.581,9.397 11.828,9.435 10.172,9.341 7.644,9.198 6.46,9.131 4.575,9.005 2.338,9.137 0.581,9.24 -0.462,9.91 -0.57,10.792 c -0.581,4.733 7.498,11.781 12.682,12.938 1.983,0.443 3.161,-0.345 3.546,-2.41 0.067,-0.354 0.016,-0.738 -0.139,-1.211 -0.18,-0.546 -0.441,-0.879 -0.79,-0.959 -0.232,-0.053 -0.485,-0.013 -0.751,0.127 -0.268,0.142 -0.376,0.325 -0.381,0.557 -0.016,0.822 -0.015,1.208 -0.015,1.208 0,0 -0.687,1.386 -1.53,1.199 C 8.794,21.521 0.93,14.298 1.306,11.396 1.373,10.873 2.107,10.562 3.431,10.46 c 0.661,-0.051 2.384,-0.032 5.111,0.116 2.398,0.131 4.232,0.134 5.383,-0.046 1.787,-0.278 2.847,-1.006 3.066,-2.2 0.06,-0.323 0.008,-0.681 0.009,-0.972 0.004,-1.592 1.224,-3.193 3.225,-2.708 1.372,0.333 2.058,0.506 3.426,0.86 0.327,0.084 0.63,-0.142 0.697,-0.463 C 24.407,4.759 24.221,4.403 23.894,4.319 20.459,3.434 20.454,3.459 20.454,3.459 18.363,2.952 16.206,5.021 16.07,5.025 15.954,5.029 15.217,4.062 14.618,3.626 10.93,0.943 5.214,0.224 0.649,-0.494 0.317,-0.546 0.035,-0.293 0,0 Z" /></g><g
           transform="translate(310.6729,194)"
           id="g124"><path
             id="path126"
             style="fill:#50ade5;fill-opacity:1;fill-rule:nonzero;stroke:none"
             d="m 0,0 c -0.421,2.932 -13.934,3.124 -17.604,2.048 -1.932,-0.567 -2.759,-1.473 -2.476,-2.753 0.226,-1.024 2.42,-2.61 2.529,-3.09 0.124,-0.543 -0.212,-0.915 -1.044,-1.149 -1.029,-0.29 -2.824,2.579 -3.004,3.413 -0.482,2.242 1.12,4.47 3.808,5.261 4.454,1.31 19.714,0.11 19.6,-2.533 C 1.53,-5.23 -13.582,-11.78 -22.056,-14.22 c -0.315,-0.091 -0.632,0.144 -0.691,0.433 -0.066,0.321 0.136,0.666 0.447,0.758 C -16.272,-11.246 0.429,-2.983 0,0" /></g><g
           transform="translate(310.6729,194)"
           id="g128"><path
             id="path130"
             style="fill:none;stroke:#50ade5;stroke-width:2;stroke-linecap:butt;stroke-linejoin:miter;stroke-miterlimit:10;stroke-dasharray:none;stroke-opacity:1"
             d="m 0,0 c -0.421,2.932 -13.934,3.124 -17.604,2.048 -1.932,-0.567 -2.759,-1.473 -2.476,-2.753 0.226,-1.024 2.42,-2.61 2.529,-3.09 0.124,-0.543 -0.212,-0.915 -1.044,-1.149 -1.029,-0.29 -2.824,2.579 -3.004,3.413 -0.482,2.242 1.12,4.47 3.808,5.261 4.454,1.31 19.714,0.11 19.6,-2.533 C 1.53,-5.23 -13.582,-11.78 -22.056,-14.22 c -0.315,-0.091 -0.632,0.144 -0.691,0.433 -0.066,0.321 0.136,0.666 0.447,0.758 C -16.272,-11.246 0.429,-2.983 0,0 Z" /></g><g
           transform="translate(297.6602,249.6123)"
           id="g132"><path
             id="path134"
             style="fill:#efee0e;fill-opacity:1;fill-rule:nonzero;stroke:none"
             d="m 0,0 c 0.438,-0.304 0.889,-0.473 1.354,-0.507 1.549,-0.113 3.349,1.229 5.396,4.03 0.82,1.143 1.732,2.596 2.734,4.36 l 1.651,2.949 c 3.127,4.948 5.519,7.693 7.178,8.233 2.005,1.268 3.085,1.896 3.241,1.884 L 21.549,20.904 C 21.112,21.208 20.64,21.379 20.137,21.416 17.964,21.575 15.56,19.855 12.925,16.255 11.696,14.569 10.277,12.37 8.671,9.659 7.017,6.89 6.102,5.392 5.922,5.164 5.377,4.421 4.199,3.424 2.392,2.172 0.84,1.142 0.044,0.433 0.004,0.045 Z m -26.92,22.573 c 1.28,0.688 2.018,1.206 2.211,1.554 -3.336,0.245 -5.065,-0.245 -5.191,-1.47 -0.035,-0.329 0.061,-0.727 0.287,-1.195 0.515,0.081 1.413,0.452 2.693,1.111 M 5.576,10.338 c 1.757,3.032 3.294,5.433 4.61,7.203 3.538,4.768 7.346,7.047 11.427,6.837 l 0.291,-0.022 c 2.597,-0.191 4.908,-0.721 6.928,-1.593 2.541,-1.121 3.955,-2.565 4.241,-4.331 0.074,-0.428 0.084,-0.895 0.032,-1.403 0.1,-3.952 -5.75,-10.883 -17.552,-20.793 -5.475,-4.594 -7.46,-10.018 -5.953,-16.271 0.166,-5.221 -0.284,-9.011 -1.347,-11.372 -0.86,-2.285 -1.922,-3.668 -3.182,-4.147 -1.6,-0.756 -4.594,-0.987 -8.979,-0.694 l -0.233,0.018 c -4.187,0.307 -7.039,0.878 -8.554,1.712 -1.628,0.903 -2.705,2.005 -3.235,3.309 -0.412,0.934 -0.631,2.417 -0.656,4.451 -0.025,2.034 0.277,4.398 0.906,7.092 0.629,2.692 1.344,5.087 2.145,7.181 0.803,2.093 0.617,4.267 -0.559,6.521 -0.718,1.378 -2.581,3.773 -5.589,7.186 -5.635,6.375 -8.571,9.737 -8.807,10.087 -3.805,4.795 -5.594,8.283 -5.369,10.464 l 0.023,0.225 c 0.42,2.196 2.065,3.746 4.932,4.649 1.696,0.538 3.475,0.739 5.337,0.602 1.24,-0.091 2.523,-0.337 3.85,-0.734 5.348,-1.569 9.547,-4.603 12.602,-9.102 2.03,-3.039 3.832,-7.357 5.404,-12.952 0.522,-1.785 0.974,-2.691 1.362,-2.72 0.352,0.004 1.101,0.838 2.25,2.499 0.506,0.745 1.732,2.779 3.675,6.098" /></g><g
           transform="translate(297.6602,249.6123)"
           id="g136"><path
             id="path138"
             style="fill:none;stroke:#231f20;stroke-width:1;stroke-linecap:butt;stroke-linejoin:miter;stroke-miterlimit:10;stroke-dasharray:none;stroke-opacity:1"
             d="m 0,0 c 0.438,-0.304 0.889,-0.473 1.354,-0.507 1.549,-0.113 3.349,1.229 5.396,4.03 0.82,1.143 1.732,2.596 2.734,4.36 l 1.651,2.949 c 3.127,4.948 5.519,7.693 7.178,8.233 2.005,1.268 3.085,1.896 3.241,1.884 L 21.549,20.904 C 21.112,21.208 20.64,21.379 20.137,21.416 17.964,21.575 15.56,19.855 12.925,16.255 11.696,14.569 10.277,12.37 8.671,9.659 7.017,6.89 6.102,5.392 5.922,5.164 5.377,4.421 4.199,3.424 2.392,2.172 0.84,1.142 0.044,0.433 0.004,0.045 Z m -26.92,22.573 c 1.28,0.688 2.018,1.206 2.211,1.554 -3.336,0.245 -5.065,-0.245 -5.191,-1.47 -0.035,-0.329 0.061,-0.727 0.287,-1.195 0.515,0.081 1.413,0.452 2.693,1.111 z M 5.576,10.338 c 1.757,3.032 3.294,5.433 4.61,7.203 3.538,4.768 7.346,7.047 11.427,6.837 l 0.291,-0.022 c 2.597,-0.191 4.908,-0.721 6.928,-1.593 2.541,-1.121 3.955,-2.565 4.241,-4.331 0.074,-0.428 0.084,-0.895 0.032,-1.403 0.1,-3.952 -5.75,-10.883 -17.552,-20.793 -5.475,-4.594 -7.46,-10.018 -5.953,-16.271 0.166,-5.221 -0.284,-9.011 -1.347,-11.372 -0.86,-2.285 -1.922,-3.668 -3.182,-4.147 -1.6,-0.756 -4.594,-0.987 -8.979,-0.694 l -0.233,0.018 c -4.187,0.307 -7.039,0.878 -8.554,1.712 -1.628,0.903 -2.705,2.005 -3.235,3.309 -0.412,0.934 -0.631,2.417 -0.656,4.451 -0.025,2.034 0.277,4.398 0.906,7.092 0.629,2.692 1.344,5.087 2.145,7.181 0.803,2.093 0.617,4.267 -0.559,6.521 -0.718,1.378 -2.581,3.773 -5.589,7.186 -5.635,6.375 -8.571,9.737 -8.807,10.087 -3.805,4.795 -5.594,8.283 -5.369,10.464 l 0.023,0.225 c 0.42,2.196 2.065,3.746 4.932,4.649 1.696,0.538 3.475,0.739 5.337,0.602 1.24,-0.091 2.523,-0.337 3.85,-0.734 5.348,-1.569 9.547,-4.603 12.602,-9.102 2.03,-3.039 3.832,-7.357 5.404,-12.952 0.522,-1.785 0.974,-2.691 1.362,-2.72 0.352,0.004 1.101,0.838 2.25,2.499 0.506,0.745 1.732,2.779 3.675,6.098 z" /></g><g
           transform="translate(237.9453,263.6523)"
           id="g140"><path
             id="path142"
             style="fill:#5794d6;fill-opacity:1;fill-rule:nonzero;stroke:none"
             d="M 0,0 C 0.285,-0.051 0.553,-0.087 0.809,-0.108 1.604,-0.174 2.115,-0.056 2.347,0.245 2.436,0.363 2.486,0.52 2.5,0.714 2.529,1.101 2.412,1.661 2.146,2.395 2.154,2.296 2.156,2.191 2.147,2.081 2.121,1.734 2.024,1.408 1.858,1.101 1.521,0.446 0.901,0.079 0,0 M 0.885,2.833 C 0.759,3.735 0.637,4.456 0.518,4.995 0.277,6.061 0.006,6.605 -0.297,6.631 -0.52,6.648 -0.742,6.458 -0.963,6.059 -1.197,5.702 -1.658,4.45 -2.347,2.305 -2.412,2.073 -2.448,1.917 -2.455,1.833 L -2.459,1.771 c 0.012,-0.057 0.073,-0.09 0.184,-0.099 0.063,-0.005 0.136,-0.004 0.217,0.003 0.338,0.042 0.666,0.05 0.985,0.023 0.366,-0.03 0.721,-0.1 1.063,-0.213 C 0.131,1.432 0.381,1.355 0.742,1.256 L 0.976,1.174 1,1.172 C 1.048,1.168 1.072,1.187 1.076,1.229 L 1.079,1.27 C 1.068,1.34 1.003,1.861 0.885,2.833 M -11.644,-5.54 c -0.016,0.001 -0.023,0.009 -0.022,0.022 0.02,0.278 0.802,2.276 2.343,5.996 0.92,2.251 1.809,4.205 2.671,5.862 2.241,4.316 4.386,7.233 6.435,8.75 0.44,0.311 0.668,0.579 0.684,0.801 0.004,0.042 -0.002,0.084 -0.014,0.127 -0.079,0.019 -0.158,0.033 -0.238,0.04 -0.875,0.072 -2.011,-0.803 -3.412,-2.624 -1.277,-1.679 -2.648,-3.983 -4.116,-6.914 -2.783,-5.568 -4.246,-9.308 -4.388,-11.219 -0.026,-0.346 -0.008,-0.626 0.057,-0.841 M 9.707,-8.515 C 9.713,-8.64 9.713,-8.759 9.704,-8.87 9.649,-9.604 9.293,-10.208 8.633,-10.684 c -0.745,-0.551 -1.627,-0.793 -2.646,-0.722 -1.129,0.093 -2.111,0.544 -2.946,1.351 -0.954,0.943 -1.567,2.254 -1.842,3.936 -0.255,1.526 -0.992,2.353 -2.215,2.482 l -0.095,0.008 C -2.287,-3.531 -3.325,-4.137 -4.223,-5.441 -5.406,-7.17 -6,-8.04 -6,-8.054 l 0.025,0.018 c -0.636,-0.797 -1.455,-1.378 -2.458,-1.74 -0.756,-0.273 -1.492,-0.379 -2.209,-0.321 -0.19,0.017 -0.387,0.046 -0.592,0.091 -0.945,0.19 -1.633,0.63 -2.061,1.32 -0.344,0.544 -0.487,1.19 -0.431,1.938 0.025,0.333 0.083,0.676 0.172,1.031 0.313,1.173 0.74,2.503 1.283,3.991 0.721,1.949 1.306,3.46 1.754,4.538 0.696,1.601 1.326,2.97 1.892,4.109 3.072,6.225 5.854,9.731 8.343,10.516 0.442,0.13 0.869,0.178 1.283,0.144 1.575,-0.13 2.994,-1.459 4.261,-3.988 2.42,-4.897 3.9,-12.266 4.445,-22.108" /></g><g
           transform="translate(237.9453,263.6523)"
           id="g144"><path
             id="path146"
             style="fill:none;stroke:#231f20;stroke-width:1;stroke-linecap:butt;stroke-linejoin:miter;stroke-miterlimit:10;stroke-dasharray:none;stroke-opacity:1"
             d="M 0,0 C 0.285,-0.051 0.553,-0.087 0.809,-0.108 1.604,-0.174 2.115,-0.056 2.347,0.245 2.436,0.363 2.486,0.52 2.5,0.714 2.529,1.101 2.412,1.661 2.146,2.395 2.154,2.296 2.156,2.191 2.147,2.081 2.121,1.734 2.024,1.408 1.858,1.101 1.521,0.446 0.901,0.079 0,0 Z M 0.885,2.833 C 0.759,3.735 0.637,4.456 0.518,4.995 0.277,6.061 0.006,6.605 -0.297,6.631 -0.52,6.648 -0.742,6.458 -0.963,6.059 -1.197,5.702 -1.658,4.45 -2.347,2.305 -2.412,2.073 -2.448,1.917 -2.455,1.833 L -2.459,1.771 c 0.012,-0.057 0.073,-0.09 0.184,-0.099 0.063,-0.005 0.136,-0.004 0.217,0.003 0.338,0.042 0.666,0.05 0.985,0.023 0.366,-0.03 0.721,-0.1 1.063,-0.213 C 0.131,1.432 0.381,1.355 0.742,1.256 L 0.976,1.174 1,1.172 C 1.048,1.168 1.072,1.187 1.076,1.229 L 1.079,1.27 C 1.068,1.34 1.003,1.861 0.885,2.833 Z M -11.644,-5.54 c -0.016,0.001 -0.023,0.009 -0.022,0.022 0.02,0.278 0.802,2.276 2.343,5.996 0.92,2.251 1.809,4.205 2.671,5.862 2.241,4.316 4.386,7.233 6.435,8.75 0.44,0.311 0.668,0.579 0.684,0.801 0.004,0.042 -0.002,0.084 -0.014,0.127 -0.079,0.019 -0.158,0.033 -0.238,0.04 -0.875,0.072 -2.011,-0.803 -3.412,-2.624 -1.277,-1.679 -2.648,-3.983 -4.116,-6.914 -2.783,-5.568 -4.246,-9.308 -4.388,-11.219 -0.026,-0.346 -0.008,-0.626 0.057,-0.841 z M 9.707,-8.515 C 9.713,-8.64 9.713,-8.759 9.704,-8.87 9.649,-9.604 9.293,-10.208 8.633,-10.684 c -0.745,-0.551 -1.627,-0.793 -2.646,-0.722 -1.129,0.093 -2.111,0.544 -2.946,1.351 -0.954,0.943 -1.567,2.254 -1.842,3.936 -0.255,1.526 -0.992,2.353 -2.215,2.482 l -0.095,0.008 C -2.287,-3.531 -3.325,-4.137 -4.223,-5.441 -5.406,-7.17 -6,-8.04 -6,-8.054 l 0.025,0.018 c -0.636,-0.797 -1.455,-1.378 -2.458,-1.74 -0.756,-0.273 -1.492,-0.379 -2.209,-0.321 -0.19,0.017 -0.387,0.046 -0.592,0.091 -0.945,0.19 -1.633,0.63 -2.061,1.32 -0.344,0.544 -0.487,1.19 -0.431,1.938 0.025,0.333 0.083,0.676 0.172,1.031 0.313,1.173 0.74,2.503 1.283,3.991 0.721,1.949 1.306,3.46 1.754,4.538 0.696,1.601 1.326,2.97 1.892,4.109 3.072,6.225 5.854,9.731 8.343,10.516 0.442,0.13 0.869,0.178 1.283,0.144 1.575,-0.13 2.994,-1.459 4.261,-3.988 2.42,-4.897 3.9,-12.266 4.445,-22.108 z" /></g></g></g></g></svg>