<svg xmlns="http://www.w3.org/2000/svg" xmlns:xlink="http://www.w3.org/1999/xlink" viewBox="0 0 241.1 89.11"><defs><style>.cls-1{fill:#fff;}.cls-2{fill:url(#radial-gradient);}.cls-3{fill:#ea2e72;}.cls-4{fill:#fcf5f8;}.cls-5{fill:#93752c;}</style><radialGradient id="radial-gradient" cx="106.13" cy="41.06" r="39.3" gradientUnits="userSpaceOnUse"><stop offset="0" stop-color="#f9cf89"/><stop offset="0.54" stop-color="#e4b63c"/><stop offset="1" stop-color="#ddb22e"/></radialGradient></defs><g id="Layer_2" data-name="Layer 2"><g id="Layer_1-2" data-name="Layer 1"><rect class="cls-1" width="241.1" height="89.11" rx="12"/><circle class="cls-2" cx="121.43" cy="42.87" r="24.87"/><path class="cls-3" d="M120.21,83.93H7.92a3.47,3.47,0,0,1-3.84-3.81V7.73C4.08,5.2,5.42,3.84,8,3.84H232.53c2.58,0,4,1.36,4,3.81q0,36.2,0,72.39c0,2.53-1.34,3.89-3.86,3.89Zm-27.4-40a28.6,28.6,0,0,0,28.82,28.74c15.07-.13,28.59-11.93,28.67-29.31.08-18.16-15.22-28.45-29.64-28.14C105.36,15.51,92.56,28.36,92.81,43.89Zm79.32,1.59c.21,3.06.41,6,.6,8.84.11,1.76.31,3.52.29,5.28,0,2.49-1.1,3.74-3.38,3.93a3.66,3.66,0,0,1-4.18-3c-.15-.48-.27-1-.43-1.6-.52.22-1,.39-1.44.6-1.41.63-1.43.68-1,2.14a6.52,6.52,0,0,0,6,4.87c3.16.29,5.54-.77,7-3.7a1.35,1.35,0,0,1,1-.66c3.36.28,6.7-.27,10.07-.15,8.5.28,17,.13,25.53.09A4.1,4.1,0,0,0,216.68,58c.09-2.77-.16-5.56-.3-8.35-.06-1.37-.21-2.75-.33-4.2H214.7c-1.73,0-1.67,0-1.53,1.71.25,3.08.46,6.16.59,9.25.08,2.17-1.42,3.19-3.6,2.56-.46-3.78-1.42-7.35-5.39-8.93s-7.24-.44-10.07,2.64c-.18-2.46-.35-4.79-.53-7.12h-2.58c.31,4.57.62,9,.93,13.54H188c0-.11,0-.2,0-.25,2.06-3,.45-6.94-2.19-8.67-3.06-2-6.78-1.28-8.14,1.7a5.38,5.38,0,0,0,.2,4.79,26.3,26.3,0,0,0,1.62,2.49c-.84,0-1.65,0-2.45,0s-.94-.35-1-1c-.2-3.67-.44-7.34-.65-11-.1-1.71-.08-1.71-1.84-1.7Zm47.39-7.83c-.23-2.67-.37-5.16-.68-7.62-.36-2.82-1.44-5.29-4.66-5.59s-10-.61-10-.35c0,.63-.3,3.37.2,3.38,2.47.05,4.94,0,7.4.05,1.07,0,3.06.2,3.37,1.34.47,1.7.64,3.48.95,5.3H199.9c-.22-3-.45-6-.68-8.95h-3c.14,2.19.27,4.3.4,6.42.11,1.72.29,3.45.3,5.17a2.58,2.58,0,0,1-3,2.74c-.46,0-.92-.13-1.52-.22,0,.68,0,1.3-.1,1.9-.1.85.29,1.19,1.08,1.31a5.3,5.3,0,0,0,6.29-3.88,1.17,1.17,0,0,1,1.36-1c5,0,9.95,0,14.92,0Zm-196-9.93c.1-1.84.11-3.72.32-5.57.11-1-.2-1.28-1.1-1.19A2.84,2.84,0,0,1,22,21c-.91-.13-1.17.34-1.17,1.14,0,1-.05,2.06-.1,3.09-.21,4.11-.49,8.21-.59,12.33a3.91,3.91,0,0,0,2.29,3.64c2.39,1.23,6.9,1.14,9.22-1.69s2.13-5.86,1.05-9c-.91-2.66-2.58-3.71-5.42-3.54A26.29,26.29,0,0,0,23.52,27.72Zm28.3,0c.1-1.83.21-3.73.3-5.63a2.28,2.28,0,0,0-.11-.91,11.57,11.57,0,0,0-2.49-.1c-.18,0-.38.72-.41,1.12-.19,2.71-.34,5.43-.48,8.14-.11,2.32-.24,4.63-.25,7a4.16,4.16,0,0,0,2.29,3.88c2.38,1.25,6.92,1.14,9.23-1.66s2.16-6,1-9.17c-.92-2.51-2.52-3.51-5.2-3.36A26.75,26.75,0,0,0,51.82,27.7Zm28.6,24.89c-.66-.29-1.16-.53-1.67-.72a6.36,6.36,0,0,0-8.4,3.92c-1.37,3.94.24,7.58,4,8.63a12.38,12.38,0,0,0,4.34.19c2.91-.25,4.14-1.7,4.3-4.59.16-3.05.39-6.09.57-9.13.12-2,.17-4.11.29-6.16.05-.74-.24-1-.95-.95a3.7,3.7,0,0,1-.88,0c-.84-.09-1.15.22-1.18,1.11C80.78,47.42,80.58,49.94,80.42,52.59ZM181.21,37.76c2.12-.12,4.11-.13,6.07-.36a5,5,0,0,0,4.6-4.24,30,30,0,0,0,.09-5.92c-.17-2.15-.3-2.11-2.45-2.09-.78,0-1,.27-1,1,.11,1.87.2,3.74.23,5.61a2.18,2.18,0,0,1-2.29,2.42c-1.5.08-3,0-4.52.07-.52,0-.81-.13-.84-.73-.11-2.06-.31-4.11-.4-6.16-.11-2.28-.13-2.31-2.36-2.27-.69,0-.93.25-.88.91.13,1.61.25,3.22.35,4.84.12,2,.28,4,.32,5.94a2.56,2.56,0,0,1-3,2.72c-.46,0-.92-.14-1.53-.23a15.93,15.93,0,0,0-.07,2.36,1.19,1.19,0,0,0,.74.78,5.39,5.39,0,0,0,6.58-3.56C181,38.51,181.1,38.12,181.21,37.76ZM52.28,55.37c-.27,0-.48.06-.69.11a43.84,43.84,0,0,0-5.26,1.11,4.55,4.55,0,0,0-2.7,5c.48,2.3,1.87,3.54,4.27,3.42a21.68,21.68,0,0,0,4-.94c.11,1.22,1.23.57,2,.68s1-.13,1.09-1c.13-2.94.36-5.87.52-8.8.14-2.54-1.2-4.46-3.39-4.85a9,9,0,0,0-5.88.88,1.37,1.37,0,0,0-.69.74c-.15.88-.16,1.77-.25,3A7.15,7.15,0,0,1,46.42,54,16.09,16.09,0,0,1,50,52.75C51.69,52.52,52.46,53.5,52.28,55.37ZM42.14,40.51c.3.41.48.94.76,1a5.67,5.67,0,0,0,2,0,.91.91,0,0,0,.5-.69c.19-3.19.41-6.38.47-9.58,0-2.53-1.39-4-3.9-4.38a9,9,0,0,0-5.34.94c-.3.16-.7.47-.73.74-.09.88,0,1.79,0,2.85a7.61,7.61,0,0,1,1.6-1,19.78,19.78,0,0,1,3.69-.87c.89-.09,1.65.93,1.73,2s-.85.64-1.33.82a4.88,4.88,0,0,1-1.08.18c-1.68.22-3.38.39-4.76,1.51a4.71,4.71,0,0,0-1.55,4.88,3.64,3.64,0,0,0,3.34,2.91A5.39,5.39,0,0,0,42.14,40.51Zm34.48-13.1c-.87,0-1.42.05-2,0A1.44,1.44,0,0,0,73,28.54c-.58,1.55-1.27,3.06-1.91,4.58L69,37.9c-.21-.66-.33-1-.44-1.43-.79-2.64-1.55-5.28-2.37-7.91-.14-.42-.52-1-.87-1.07a14.11,14.11,0,0,0-2.63,0c.11.47.15.79.25,1.09l3.93,11.69c.13.38.41.87.28,1.15a14.39,14.39,0,0,1-2.07,3.68c-.48.53-1.72.38-2.82.57a8.4,8.4,0,0,0-.13,1c-.08,1.52,0,1.61,1.54,1.67,2.6.09,4.11-1.47,5.1-3.55,2.13-4.44,4.13-8.94,6.17-13.42C75.46,30.12,76,28.91,76.62,27.41Zm89.82-1.56a5.78,5.78,0,0,0-6.13,6.28,8.43,8.43,0,0,0,6.21,7.62A6.09,6.09,0,0,0,174.7,34,8.6,8.6,0,0,0,166.44,25.85Zm-110,38.86c.59,0,1,.08,1.38.08,1.67,0,1.63,0,1.71-1.6q.2-3.59.46-7.15a3.82,3.82,0,0,1,2.64-3.23,2.36,2.36,0,0,1,3.22,1.91A7.67,7.67,0,0,1,66,56.57c-.11,2.09-.3,4.18-.4,6.27s.28,2.3,2.26,1.9c.26,0,.65-.42.66-.66.2-3.16.49-6.31.45-9.47s-2.21-5-5.44-4.45a18.26,18.26,0,0,0-3.31,1.14l-.14-.95a17.28,17.28,0,0,1-1.77,0c-.89-.09-1.13.28-1.14,1.13,0,1.66-.16,3.31-.25,5C56.78,59.13,56.62,61.84,56.46,64.71ZM35.63,52.16c.18-.39.4-1,.69-1.51.37-.7.16-1.06-.53-1.35A7.37,7.37,0,0,0,30,49.16a4.53,4.53,0,0,0-3,4.13,4,4,0,0,0,2.44,3.86c.81.42,1.66.78,2.48,1.18a1.72,1.72,0,0,1,1.2,1.79c-.11.92-.74,1.35-1.61,1.58-1.64.44-3-.33-4.54-1.07a18.25,18.25,0,0,1-.71,1.85c-.37.77-.05,1.14.64,1.42a8.59,8.59,0,0,0,6.34.26,4.7,4.7,0,0,0,3.29-4.41,4.25,4.25,0,0,0-2.72-4.17c-.72-.36-1.48-.65-2.21-1s-1.38-.83-1.18-1.76a1.58,1.58,0,0,1,1.8-1.29C33.32,51.66,34.41,51.94,35.63,52.16Zm2.12,8.07-.21.05a18,18,0,0,0,.78,3.14c.56,1.25,2.42,1.76,4,1.3,1.17-.34.64-1.39.84-2.12.15-.53-.1-.82-.73-.72-1.38.22-1.72-.05-1.64-1.47.24-4.69.57-9.38.8-14.08.14-2.91.4-2.55-2.16-2.51a1,1,0,0,0-.73.67C38.35,49.74,38.05,55,37.75,60.23Zm183.72,1.68c-.12-1.75-.23-3.42-.34-5.1-.22-3.51-.44-7-.7-10.54a1,1,0,0,0-.57-.74c-.82-.08-1.65,0-2.51,0a7.66,7.66,0,0,0-.06.81c.3,4.46.55,8.94.93,13.4C218.42,62.21,218.51,62.2,221.47,61.91Zm-199-11.56a16.15,16.15,0,0,1-1.73,0c-1-.14-1.3.3-1.33,1.29-.11,3.12-.28,6.23-.49,9.34a3.44,3.44,0,0,0,4.73,3.69c.21-.08.5-.29.51-.45.06-.75,0-1.51,0-2.32a6.56,6.56,0,0,0-.67,0c-1.11.22-1.54-.09-1.53-1.18s.07-2.13.12-3.19C22.22,55.23,22.34,52.89,22.46,50.35Zm.61-4.5a1.55,1.55,0,0,0-1.67-1.73A1.8,1.8,0,0,0,19.45,46a1.72,1.72,0,0,0,1.75,1.74A1.91,1.91,0,0,0,23.07,45.85ZM210.38,42a1.63,1.63,0,0,0,1.7-1.75,1.87,1.87,0,0,0-1.94-1.82,1.67,1.67,0,0,0-1.73,1.74A1.93,1.93,0,0,0,210.38,42Zm-23.1,0a1.64,1.64,0,0,0,1.81-1.64,1.91,1.91,0,0,0-1.85-1.93,1.66,1.66,0,0,0-1.81,1.64A1.9,1.9,0,0,0,187.28,42Zm-3.85,0a1.6,1.6,0,0,0,1.69-1.63,1.88,1.88,0,0,0-1.81-2A1.67,1.67,0,0,0,181.47,40,2,2,0,0,0,183.43,42Zm14-20.82a1.59,1.59,0,0,0-1.77,1.53,1.89,1.89,0,0,0,1.89,2,1.59,1.59,0,0,0,1.75-1.56A1.79,1.79,0,0,0,197.4,21.19Zm-27.54,2.52a1.69,1.69,0,0,0-1.8-1.88,1.59,1.59,0,0,0-1.81,1.6,1.85,1.85,0,0,0,2,1.88A1.45,1.45,0,0,0,169.86,23.71Zm-5.49-1.87a1.7,1.7,0,0,0-1.92,1.52,1.89,1.89,0,0,0,2,1.94,1.44,1.44,0,0,0,1.71-1.53A1.7,1.7,0,0,0,164.37,21.84ZM182,45.29a1.52,1.52,0,0,0-1.59,1.47,1.72,1.72,0,0,0,1.74,1.72,1.48,1.48,0,0,0,1.64-1.5A1.74,1.74,0,0,0,182,45.29Z"/><path class="cls-3" d="M101.63,47.33c14.72,7.37,33,2.86,39,1.05a.84.84,0,0,1,1,1.21c-.49.93-1,1.85-1.54,2.74A20.29,20.29,0,0,1,128,61.7a27.16,27.16,0,0,1-12.49.28,18.39,18.39,0,0,1-11.37-6.57,23.21,23.21,0,0,1-3.69-7.13A.81.81,0,0,1,101.63,47.33Z"/><path class="cls-4" d="M100.87,46.94c15.59,8.31,35.58,2.79,40.58,1.18a.49.49,0,0,1,.58.7l0,0c-1.51,2.85-12,5.47-20.45,5.47-10.37,0-19.31-1.91-21.34-6.85A.45.45,0,0,1,100.87,46.94Z"/><path class="cls-5" d="M135.91,39.21a4.84,4.84,0,0,0-9.34-2.11c-.06.13-.07.31-.17.4s-.48.33-.72.5c-.09-.29-.29-.59-.24-.85A5.63,5.63,0,0,1,129.83,33,5.93,5.93,0,0,1,137,38.9a2.05,2.05,0,0,1-.09.87,3.3,3.3,0,0,1-.69.71,7.12,7.12,0,0,1-.36-.86A1,1,0,0,1,135.91,39.21Z"/><path class="cls-5" d="M118.4,38a10.45,10.45,0,0,1-.1-1.1,5,5,0,0,0-3.93-5.28,4.93,4.93,0,0,0-5.66,3.15c-.13.29-.48.5-.73.74a3.11,3.11,0,0,1,0-1.09,5.81,5.81,0,0,1,11.23,2.66,4.27,4.27,0,0,1-.42,1Z"/><path class="cls-3" d="M206.56,59.14H195.29a7.3,7.3,0,0,1,2.63-5.47,5,5,0,0,1,6-.47A5.8,5.8,0,0,1,206.56,59.14Z"/><path class="cls-3" d="M182.61,51.81A3.87,3.87,0,0,1,186,54.3,3.38,3.38,0,0,1,185,58.05a1.92,1.92,0,0,1-2.24.29,5.22,5.22,0,0,1-2.7-3A2.59,2.59,0,0,1,182.61,51.81Z"/><path class="cls-3" d="M30.24,34.31c0,3.55-2.56,5.69-5.54,4.52-.58-.23-1.33-.83-1.42-1.36-.39-2.22-.5-4.45,1.09-6.36A3.44,3.44,0,0,1,28.15,30c1.43.38,1.86,1.67,2.08,3A8.3,8.3,0,0,1,30.24,34.31Z"/><path class="cls-3" d="M58.54,34.33C58.57,37.86,56,40,53,38.82a2.42,2.42,0,0,1-1.4-1.37c-.38-2.18-.52-4.39,1-6.26a3.48,3.48,0,0,1,4-1.16,3.39,3.39,0,0,1,2,3.2C58.56,33.59,58.54,34,58.54,34.33Z"/><path class="cls-3" d="M77,61.9l-.66,0C74,61.75,72.89,60.53,73,58.06a3.67,3.67,0,0,1,3.76-3.38,3.55,3.55,0,0,1,3.37,3.75c0,.22-.05.44-.06.66C79.89,61.46,79.39,61.92,77,61.9Z"/><path class="cls-3" d="M52.32,57.87c-.12,1.42-.21,2.58-1.19,3.51a3.31,3.31,0,0,1-2.57,1c-.87,0-1.61-.3-1.82-1.25a1.77,1.77,0,0,1,1.16-2.31C49.31,58.38,50.78,58.18,52.32,57.87Z"/><path class="cls-3" d="M42.46,34.66c.47,2.68-1.32,4.69-3.67,4.47a1.82,1.82,0,0,1-.74-3.45C39.49,35.23,41,35,42.46,34.66Z"/><path class="cls-3" d="M168.11,37.11a5.06,5.06,0,0,1-4.9-4.85,3.4,3.4,0,0,1,3.59-3.49,5,5,0,0,1,4.92,4.92A3.32,3.32,0,0,1,168.11,37.11Z"/><path class="cls-1" d="M169.28,53.63a2.61,2.61,0,1,1-2.59-2.6A2.59,2.59,0,0,1,169.28,53.63Zm-4.57,0a2,2,0,0,0,2,2.08,2,2,0,0,0,1.94-2.06,2,2,0,1,0-3.92,0ZM166.27,55h-.58v-2.6a6.8,6.8,0,0,1,1-.08,1.31,1.31,0,0,1,.87.21.66.66,0,0,1-.27,1.17v0c.25.08.37.29.45.64a2.22,2.22,0,0,0,.19.63h-.62a2.08,2.08,0,0,1-.2-.63c-.05-.27-.2-.4-.53-.4h-.28Zm0-1.45h.28c.32,0,.59-.12.59-.39s-.17-.4-.54-.4a1.11,1.11,0,0,0-.33,0Z"/></g></g></svg>