<?xml version="1.0" standalone="no"?>
<!DOCTYPE svg PUBLIC "-//W3C//DTD SVG 20010904//EN"
 "http://www.w3.org/TR/2001/REC-SVG-20010904/DTD/svg10.dtd">
<svg version="1.0" xmlns="http://www.w3.org/2000/svg"
 width="1460.000000pt" height="520.000000pt" viewBox="0 0 1460.000000 520.000000"
 preserveAspectRatio="xMidYMid meet">

<g transform="translate(0.000000,520.000000) scale(0.100000,-0.100000)"
fill="#000000" stroke="none">
<path d="M9907 3684 c-15 -8 -32 -26 -37 -40 -6 -15 -10 -211 -10 -466 l0
-441 -22 20 c-48 44 -136 93 -213 120 -72 24 -94 27 -210 27 -114 0 -140 -4
-212 -27 -201 -67 -382 -250 -445 -450 -82 -264 -15 -535 182 -727 133 -131
287 -193 480 -194 148 0 267 39 383 128 26 20 49 36 52 36 3 0 5 -20 5 -44 0
-61 14 -92 49 -111 36 -18 119 -20 156 -3 57 26 55 -21 55 1087 0 770 -3 1026
-12 1046 -7 15 -24 33 -39 41 -36 18 -126 17 -162 -2z m-407 -1034 c136 -22
263 -117 324 -242 56 -117 58 -281 4 -399 -75 -163 -257 -269 -437 -256 -149
11 -294 117 -365 267 -29 61 -31 72 -31 185 0 114 2 123 32 188 63 132 192
234 323 256 76 12 77 12 150 1z"/>
<path d="M13599 3671 l-29 -29 0 -1042 0 -1042 29 -29 c25 -25 37 -29 85 -29
44 0 61 5 83 24 l28 24 0 1052 0 1052 -28 24 c-22 19 -39 24 -83 24 -48 0 -60
-4 -85 -29z"/>
<path d="M5251 3676 c-52 -29 -50 14 -51 -1079 0 -1106 -2 -1059 55 -1085 34
-15 136 -15 170 0 54 25 55 30 55 501 0 408 1 435 18 450 17 15 58 17 381 17
l363 0 29 29 c27 27 29 35 29 106 0 148 10 145 -434 145 -309 0 -357 2 -370
16 -14 13 -16 55 -16 309 0 254 2 296 16 309 14 14 69 16 455 16 549 0 529 -5
529 145 0 71 -2 79 -29 106 l-29 29 -574 0 c-456 -1 -578 -3 -597 -14z"/>
<path d="M1971 3653 c-13 -3 -43 -24 -66 -48 -34 -33 -45 -53 -50 -86 -3 -24
-5 -467 -3 -984 l3 -940 23 -32 c39 -55 77 -75 152 -81 108 -7 176 25 211 102
17 37 19 72 19 403 l0 362 388 3 389 3 37 29 c103 78 100 253 -5 323 l-43 28
-383 3 -383 3 0 265 0 264 483 0 c301 0 496 4 519 10 87 25 135 105 125 210
-6 65 -28 105 -80 142 l-32 23 -640 1 c-352 1 -651 -1 -664 -3z"/>
<path d="M6930 2905 c-30 -8 -93 -34 -140 -57 -154 -75 -300 -245 -352 -411
-47 -151 -44 -323 8 -468 78 -216 259 -386 474 -445 100 -28 283 -25 380 4
115 36 195 85 285 176 89 90 145 179 175 275 92 294 11 585 -216 782 -68 59
-118 88 -209 122 -72 27 -94 31 -215 34 -97 2 -150 -1 -190 -12z m280 -256
c126 -28 264 -166 305 -303 34 -111 14 -284 -43 -376 -39 -62 -124 -140 -192
-173 -61 -30 -70 -32 -180 -32 -108 0 -119 2 -181 31 -115 55 -212 178 -238
302 -35 168 10 322 130 443 109 109 238 144 399 108z"/>
<path d="M10864 2901 c-180 -49 -337 -177 -428 -351 -89 -170 -105 -398 -41
-582 73 -208 253 -381 455 -438 258 -71 526 -5 702 173 143 146 148 220 16
277 -71 30 -92 22 -176 -70 -83 -90 -157 -133 -260 -149 -125 -20 -286 28
-381 114 -69 63 -139 226 -111 260 11 13 83 15 530 15 503 0 518 1 543 20 34
27 41 66 27 153 -45 270 -220 487 -455 564 -110 36 -314 43 -421 14z m271
-242 c110 -20 223 -93 271 -174 14 -24 24 -55 22 -67 l-3 -23 -350 -3 c-192
-1 -360 0 -372 3 -32 8 -29 42 7 98 93 140 245 199 425 166z"/>
<path d="M12517 2908 c-154 -17 -278 -80 -404 -205 -143 -144 -212 -326 -200
-533 10 -185 77 -330 214 -467 68 -68 98 -90 175 -127 115 -55 177 -69 298
-70 147 -1 256 33 375 119 35 25 66 45 69 45 3 0 6 -24 6 -54 0 -43 5 -61 24
-83 21 -24 32 -28 93 -31 63 -4 72 -2 101 23 l32 27 0 639 0 640 -25 24 c-21
22 -33 25 -98 25 -67 0 -77 -3 -101 -26 -19 -20 -26 -37 -26 -65 0 -22 -2 -39
-5 -39 -3 0 -26 16 -52 36 -133 102 -289 142 -476 122z m209 -262 c218 -58
353 -270 323 -507 -33 -265 -288 -440 -543 -374 -76 20 -127 51 -197 120 -180
178 -181 460 0 644 58 60 132 104 198 120 58 14 162 12 219 -3z"/>
<path d="M8005 2887 c-17 -8 -36 -26 -43 -41 -17 -38 -17 -1253 0 -1291 7 -15
24 -33 39 -41 33 -17 128 -19 163 -3 54 25 56 43 56 470 l0 394 27 54 c16 30
47 74 71 98 61 64 116 85 224 88 81 1 91 4 115 28 21 21 28 38 31 85 4 51 1
62 -20 86 -19 23 -35 30 -76 34 -105 10 -253 -35 -325 -98 l-45 -40 -4 65 c-3
55 -8 70 -31 92 -22 23 -37 28 -89 30 -39 2 -75 -2 -93 -10z"/>
</g>
</svg>
