<svg id="Layer_1" data-name="Layer 1" xmlns="http://www.w3.org/2000/svg" viewBox="0 0 595.28 841.89"><defs><style>.cls-1{fill:none;stroke:#f15b2c;stroke-miterlimit:10;stroke-width:4px;}.cls-2,.cls-3{fill:#f15b2c;}.cls-3,.cls-4,.cls-5,.cls-6{fill-rule:evenodd;}.cls-4,.cls-7{fill:#1b76ba;}.cls-5{fill:#f6e92d;}.cls-6{fill:#37b24a;}</style></defs><circle class="cls-1" cx="481.87" cy="445.73" r="14.83"/><path class="cls-2" d="M109.27,605.86v.67a8.31,8.31,0,0,1-.11,1.22l-.17,1.67a14,14,0,0,1-2.41,6.37,9.43,9.43,0,0,1-4.8,3.34l-2.57.52H94.88c-.81-.13-1.54-.26-2.2-.41a4.58,4.58,0,0,1-1.57-.57c-2.52-1.28-3.76-3.63-3.76-7s.87-5.62,2.65-6.92a11.66,11.66,0,0,1,2.73-1c.32,0,.51,0,.56-.12a2.63,2.63,0,0,0,1.1-.74l.39-1.06.1-1.27V557.19a20.07,20.07,0,0,1,.85-4.58c1.2-3.1,3.32-4.64,6.34-4.64s5.06,1.53,6.28,4.57a24.71,24.71,0,0,1,.92,4.65v48.67Zm-.82-88.75a9.3,9.3,0,0,1-2,6,6.3,6.3,0,0,1-5.17,2.51,6.63,6.63,0,0,1-5.1-2.51,9.22,9.22,0,0,1-2.1-6,9,9,0,0,1,2.12-6,6.38,6.38,0,0,1,10.13,0A8.81,8.81,0,0,1,108.45,517.11Z"/><path class="cls-2" d="M164.26,596.31H125.8a8.59,8.59,0,0,1-3.42-1.07c-2.32-1.37-3.49-3.74-3.49-7.13s1.14-5.54,3.44-6.86a14.88,14.88,0,0,1,3.47-.9h19.93V571l0-1.84v-1.12c-.09-.36-.16-.63-.18-.78a8.83,8.83,0,0,0-.29-1.55,6.59,6.59,0,0,0-.44-1.56c-1-2.33-2.94-3.47-5.76-3.47a5.6,5.6,0,0,0-4,1.79,12.49,12.49,0,0,0-2.58,3.67l-1.71,4.07a7.33,7.33,0,0,1-3,3.25,4.9,4.9,0,0,1-1.75.38,7.46,7.46,0,0,1-3.43-1,6.42,6.42,0,0,1-3-3.22,8.62,8.62,0,0,1-.69-3.55,8.82,8.82,0,0,1,.1-1.46l.21-1.05.19-.78a21.54,21.54,0,0,1,1.21-3.46,16.1,16.1,0,0,1,1.64-2.91l.47-.61,2-2.52a29.44,29.44,0,0,1,5.58-4.74,16.64,16.64,0,0,1,8.72-2.62,9.5,9.5,0,0,1,1.91.11,8.28,8.28,0,0,1,1.81.34,21.19,21.19,0,0,1,10.78,6,22.72,22.72,0,0,1,4.36,7.71l.87,3.85.23,2.63.25,5.75v7.87h5.14Z"/><path class="cls-2" d="M199.49,596.31H191v-10a24.05,24.05,0,0,1-.72,3.17,11.82,11.82,0,0,1-2.06,3.74,10.1,10.1,0,0,1-4.38,2.73l-2.34.4H164.22V580.18h10a6,6,0,0,0,1.28-.1,1.58,1.58,0,0,0,1-.74,2.79,2.79,0,0,0,.72-1.72l.12-1.07V557.64l.26-2.07a6.64,6.64,0,0,1,.63-2,6.06,6.06,0,0,1,5.91-4.09,6.35,6.35,0,0,1,6.1,4.09,14.86,14.86,0,0,1,.86,4.08v22.54h8.39Zm-19.07,17.08a9.26,9.26,0,0,1-2,6.06,6.36,6.36,0,0,1-5.11,2.47,6.59,6.59,0,0,1-5.13-2.57,8.77,8.77,0,0,1-2.22-6,8.94,8.94,0,0,1,2.14-5.89,6.56,6.56,0,0,1,5.21-2.59,6.4,6.4,0,0,1,5.05,2.53A9.15,9.15,0,0,1,180.42,613.39Zm16.49,0a9.31,9.31,0,0,1-2,6.06,6.43,6.43,0,0,1-5.14,2.47,6.57,6.57,0,0,1-5.11-2.57,9.24,9.24,0,0,1,0-12,6.63,6.63,0,0,1,5.16-2.48,6.35,6.35,0,0,1,5.06,2.53A9,9,0,0,1,196.91,613.39Z"/><path class="cls-2" d="M280.31,569.29c0,6.62-1.07,12.23-3.24,16.79q-4.15,8.73-12.68,10.23h-64.9V580.18h59.76a7.54,7.54,0,0,0,4.58-1.46,6.76,6.76,0,0,0,2.85-5.92c0-3.37-.9-5.63-2.71-6.74l-1.25-.17-1.62-.45H217.73a14,14,0,0,1-2.76-.33,12.17,12.17,0,0,1-5.33-2.46,10.46,10.46,0,0,1-3.62-6.82l-.2-2.74a16.6,16.6,0,0,1,3.15-9.75,22.39,22.39,0,0,1,3.15-3.19L236.56,523l1.48-.9a8.71,8.71,0,0,1,3.44-.88l1.46.15a3,3,0,0,1,.67.23,3.81,3.81,0,0,1,.67.38,6,6,0,0,1,2.36,2.75,9,9,0,0,1,1.08,4.18A8.53,8.53,0,0,1,246,534a11.44,11.44,0,0,1-1.71,1.89L224.84,549.2h36.5l.77,0a14.72,14.72,0,0,1,6.86,1.6q5.52,2.67,8.87,9.5A22.22,22.22,0,0,1,280.31,569.29Z"/><path class="cls-2" d="M405.71,547.41l.72,1.23a7.59,7.59,0,0,1,.71,3.24,7.69,7.69,0,0,1-.63,3,5.6,5.6,0,0,1-.8,1.45,6.8,6.8,0,0,1-1.29,1.39,7.65,7.65,0,0,1-2.28,1.67l-1.06.35-1.14.11a5.94,5.94,0,0,1-3.14-1l-1.2-1-7.24-8.4L387,548.25a6.36,6.36,0,0,0-3.34-1.11,4.24,4.24,0,0,0-2,.44,5.39,5.39,0,0,0-1.94,1.62,6,6,0,0,0-1.43,2.31,7.28,7.28,0,0,0-.39,2.32,7.71,7.71,0,0,0,.82,3.42l.85,1.33,22.15,25.6.86,1.75a11.26,11.26,0,0,1,.91,4,9.93,9.93,0,0,1-.08,1.56,3.3,3.3,0,0,1-.39,1,6.26,6.26,0,0,1-4.15,3.46l-1.39.28-1.42,0H343.75a19.32,19.32,0,0,1-5.14-.81,19.55,19.55,0,0,1-9.58-6.37q-5.2-6.45-5.2-17.43,0-9.54,5.14-15.23a20.37,20.37,0,0,1,9.59-5.58,19.22,19.22,0,0,1,5.19-.83h1.67a9.14,9.14,0,0,1,3.19,1q3.24,2,3.24,7c0,3.1-1.07,5.36-3.19,6.82a8.11,8.11,0,0,1-3.24,1.06l-.85,0a7.27,7.27,0,0,0-4.06,1c-1.75,1.14-2.63,3.12-2.63,5.86,0,2.91.88,5,2.63,6.26a7,7,0,0,0,4.09,1.17h.53l.29-.07h33.17l-9.53-11a34.44,34.44,0,0,1-2.58-4.18,29.94,29.94,0,0,1-1.91-5.37,23,23,0,0,1-.7-5.53,21.72,21.72,0,0,1,1.37-7.87,26.42,26.42,0,0,1,5.24-8.71A24.35,24.35,0,0,1,377.3,532a14.46,14.46,0,0,1,6.44-1.51,16.25,16.25,0,0,1,7.38,1.89,31.59,31.59,0,0,1,5.11,3.57l1.94,2Zm-40.47,66a9.31,9.31,0,0,1-2,6.06,6.41,6.41,0,0,1-5.12,2.47,6.59,6.59,0,0,1-5.13-2.57,8.82,8.82,0,0,1-2.22-6,9,9,0,0,1,2.15-5.89,6.56,6.56,0,0,1,5.2-2.59,6.36,6.36,0,0,1,5,2.53A9,9,0,0,1,365.24,613.39Zm19.26,0a9.09,9.09,0,0,1-2.09,6.06,6.55,6.55,0,0,1-5.11,2.47,6.73,6.73,0,0,1-5.05-2.47,9.35,9.35,0,0,1-.07-12.06,6.54,6.54,0,0,1,10.23,0A8.91,8.91,0,0,1,384.5,613.39Z"/><path class="cls-2" d="M441,596.31H430.3l-.87.05a21.6,21.6,0,0,1-4.66-.5,9.1,9.1,0,0,1-4.88-2.68A13.09,13.09,0,0,1,417.2,587l-.39-2.69-.13-3.12v-.73l0-.5V517.16a12.13,12.13,0,0,1,2-7,6.47,6.47,0,0,1,5.68-2.85,5.89,5.89,0,0,1,5.38,3.34,16.15,16.15,0,0,1,1.38,7.22v58.92l.05,1.46a2.46,2.46,0,0,0,.57,1.29,2.84,2.84,0,0,0,1.19.6l1.23.07H441Z"/><path class="cls-2" d="M510.85,588.87a13.37,13.37,0,0,1-3.82,6,9.28,9.28,0,0,1-4.25,1.44H441V580.18h6.43l-.53-2.23a31.46,31.46,0,0,1-.57-5.81,31.93,31.93,0,0,1,.33-4.68,21.57,21.57,0,0,1,1.06-4.24,22.32,22.32,0,0,1,6-9.28,19.06,19.06,0,0,1,5.85-3.84,16.91,16.91,0,0,1,6.39-1.24,21,21,0,0,1,9.11,2.24,20.07,20.07,0,0,1,3.71,2.22l-12.69-19.47-.56-1.32a12.12,12.12,0,0,1-.61-3.36,7.38,7.38,0,0,1,2.57-5.82,5.48,5.48,0,0,1,2-1.33,7.48,7.48,0,0,1,2.41-.35,5.49,5.49,0,0,1,2.74,1.05,11.89,11.89,0,0,1,2.4,2.54l31.46,49.61.81,1.4.71,1.35a16,16,0,0,1,1.58,6.68v1.57c-.11.41-.16.69-.19.85ZM472.19,571.4a11.47,11.47,0,0,0-1-3.45,5.68,5.68,0,0,0-5.43-3.52c-2.4,0-4.23,1.24-5.48,3.69a14.54,14.54,0,0,0-1,3.69c.09.82.21,1.54.32,2.15a6.17,6.17,0,0,0,.49,1.52,5.58,5.58,0,0,0,5.43,3.76,5.85,5.85,0,0,0,5.86-3.92A24.25,24.25,0,0,0,472.19,571.4Zm23.36,8.78-11.64-17.69.78,3.18a41.38,41.38,0,0,1,.74,6.64,19.86,19.86,0,0,1-.17,2.78,20.13,20.13,0,0,1-.63,2.8,14.21,14.21,0,0,1-.87,2.29Z"/><path class="cls-2" d="M272.7,229.08a6.4,6.4,0,0,1,3.29-4h2a20.47,20.47,0,0,1,2.46.21,9.68,9.68,0,0,1,2.83.8v1.78a23.13,23.13,0,0,0,.14,2.36c0,.52,0,1.08.07,1.68s.07,1.22.07,1.89l1,18.3a29.54,29.54,0,0,0,.25,3.88q.26,1.83.6,3.69l.08.35c.23,1.29.43,2.57.57,3.86a35.08,35.08,0,0,1,.22,4.07c0,.53,0,1.15,0,1.9a20.57,20.57,0,0,1-.18,2.21,11.49,11.49,0,0,1-.46,2.1,4.47,4.47,0,0,1-.89,1.65,14.3,14.3,0,0,1-1.72.53,6.39,6.39,0,0,1-1.58.19,6.82,6.82,0,0,1-1.74-.25,7.27,7.27,0,0,1-1.83-.75,6.13,6.13,0,0,1-1.5-1.22,3.1,3.1,0,0,1-.78-1.65L275,261.52h-.43c-1,.09-1.82.17-2.61.21s-1.53.08-2.25.08c-1,0-2.1,0-3.29-.1s-2.62-.19-4.29-.34c.05.86.1,1.86.15,3s.08,2.27.11,3.39,0,2.13,0,3v1.85a8.19,8.19,0,0,1-.14,1.69,1.5,1.5,0,0,1-.61.93,3.77,3.77,0,0,1-1.36.5,23,23,0,0,1-2.31.31,14.06,14.06,0,0,1-2.68-.24,7.39,7.39,0,0,1-2.9-1.47l-1.14-4.14a9.67,9.67,0,0,1-.39-2.19c-.13-1.07-.22-2.2-.29-3.42s-.12-2.37-.15-3.46,0-1.89,0-2.36a10.89,10.89,0,0,1-2.86-2.05,7.7,7.7,0,0,1-2.14-3.09,5.85,5.85,0,0,1-.29-1.23c-.09-.57-.17-1.2-.25-1.9s-.14-1.38-.21-2.1-.1-1.35-.1-1.92a.55.55,0,0,1,.06-.32.46.46,0,0,0,.07-.26v-1.28a26.45,26.45,0,0,0,3.61,1.93,23.79,23.79,0,0,0,3,1.06l1-19,2.28-1.13a8.9,8.9,0,0,1,2.86-.43,8,8,0,0,1,1.25.11c.5.06,1,.16,1.57.27a9.9,9.9,0,0,1,1.54.47,4.65,4.65,0,0,1,1.07.57,8.11,8.11,0,0,1-.07,1.28c0,.29-.12.73-.21,1.29-.15,1.25-.3,3-.47,5.36s-.25,5-.25,7.93V251c.76.14,1.44.26,2,.35a18,18,0,0,0,1.85.21c.65.06,1.37.09,2.18.11s1.83,0,3.08,0c.66,0,1.2,0,1.6,0a12.67,12.67,0,0,0,1.68-.25Z"/><path class="cls-2" d="M295.81,230.93a3.88,3.88,0,0,1,1.35-.8,4.1,4.1,0,0,1,1.12-.22c1.7,0,3.1,1.41,4.18,4.19s1.64,6.77,1.64,12v1.74c0,.43-.05,1.06-.14,1.89a45.87,45.87,0,0,0,6.28-2.83,29.34,29.34,0,0,0,5.13-3.67,44.24,44.24,0,0,0,4.77-5.06q2.34-2.9,5.19-7a1.57,1.57,0,0,1,1.3-.72,4,4,0,0,1,1.75.72,17.53,17.53,0,0,1,2.3,1.71,21,21,0,0,1,1.95,1.92,2.66,2.66,0,0,1,.84,1.46v.28a46.35,46.35,0,0,1-4.28,7,43.21,43.21,0,0,1-4.8,5.37,63.9,63.9,0,0,1-5.31,4.48c-1.85,1.39-3.78,2.8-5.82,4.26a9.94,9.94,0,0,0,1.93,2c1.05.93,2.38,2,4,3.21s3.56,2.52,5.71,3.91,4.52,2.81,7.09,4.22a4.05,4.05,0,0,1,1.74,2.12,7.49,7.49,0,0,1,.59,2.91,5.36,5.36,0,0,1-.44,2.24,7,7,0,0,1-1.28,2.07,3.51,3.51,0,0,1-2.5,1.13,40.72,40.72,0,0,1-7.88-3.52,64.2,64.2,0,0,1-6.59-4.44c-2-1.57-4-3.21-5.88-4.91s-3.84-3.37-5.82-5l.73,16.15a9,9,0,0,1-2.8,1.46,11.18,11.18,0,0,1-3,.43c-.73,0-1.45,0-2.15-.11a10,10,0,0,1-2.07-.47,16.64,16.64,0,0,1-.58-3.09c-.09-1-.14-2.15-.14-3.31q0-6.62-.44-12.95T293.05,249v-15.7Z"/><path class="cls-3" d="M114.33,458.13s170.34-58.75,346.27,0C460.6,458.13,315.38,420.6,114.33,458.13Z"/><path class="cls-3" d="M274.05,384.36c-20.06-34.07-52.64-6.28-74.85-40.55-6.47-24.21,22.79-43.47,39.64-25.74,9.61,10.11,11.28,29.07,16.81,37.33,18.43,27.52,47.66,22.27,65.68-.51,9.8-12.39,10.92-28.63,26.69-39,26.17-17.22,62.82,25.51,28.9,46.56-15.79,9.81-43.81,3.82-63.39,9.3-16.88,4.72-29.31,16.58-14.29,33.83,5.53,6.35,23.17,12.4,14.52,22.62-4.13,4.89-11.85,5.49-17-.59-2.34-2.76-3-40.92-18.69-32.29-8.76,4.84,1.08,20.79-11.69,28.23-12.32,7.16-24.52-11.13-16.84-19.6C256.15,396.63,275.12,398.72,274.05,384.36Z"/><path class="cls-3" d="M300.9,326.35c29.78,22.77-14.13,60.25-33,31.08-6.08-9.41-7.14-26.13,11.71-34.14A21.86,21.86,0,0,1,300.9,326.35Z"/><polygon class="cls-4" points="411.12 261.15 419.32 277.76 437.67 280.43 424.4 293.37 427.52 311.63 411.12 303.02 394.71 311.63 397.84 293.37 384.58 280.43 402.92 277.76 411.12 261.15"/><polygon class="cls-4" points="174.84 261.15 183.04 277.76 201.38 280.43 188.11 293.37 191.24 311.63 174.84 303.02 158.44 311.63 161.57 293.37 148.3 280.43 166.63 277.76 174.84 261.15"/><polygon class="cls-5" points="425.52 185.96 435.87 206.94 459.02 210.3 442.27 226.63 446.23 249.69 425.52 238.8 404.81 249.69 408.77 226.63 392.02 210.3 415.17 206.94 425.52 185.96"/><polygon class="cls-5" points="168.9 185.96 179.25 206.94 202.4 210.3 185.64 226.63 189.6 249.69 168.9 238.8 148.19 249.69 152.14 226.63 135.39 210.3 158.54 206.94 168.9 185.96"/><polygon class="cls-6" points="375.67 112.37 388.17 137.7 416.13 141.77 395.9 161.48 400.68 189.34 375.67 176.18 350.67 189.34 355.44 161.48 335.21 141.77 363.17 137.7 375.67 112.37"/><polygon class="cls-6" points="209.35 112.37 221.86 137.7 249.82 141.77 229.59 161.48 234.36 189.34 209.35 176.18 184.35 189.34 189.13 161.48 168.9 141.77 196.85 137.7 209.35 112.37"/><polygon class="cls-3" points="294.45 70.89 311.82 106.1 350.67 111.76 322.56 139.16 329.2 177.86 294.45 159.59 259.69 177.86 266.32 139.16 238.2 111.76 277.06 106.1 294.45 70.89"/><path class="cls-2" d="M127,656.12a10.34,10.34,0,0,1,5.33-6.49h3.24a36.81,36.81,0,0,1,4,.33,16.37,16.37,0,0,1,4.57,1.28v2.91a33.27,33.27,0,0,0,.24,3.81c0,.85,0,1.75.11,2.73s.11,2,.11,3.07l1.63,29.64a48.32,48.32,0,0,0,.39,6.3c.28,2,.61,3.95,1,6l.11.57c.38,2.11.69,4.18.93,6.26a60.08,60.08,0,0,1,.35,6.6c0,.85,0,1.88-.07,3a35.88,35.88,0,0,1-.28,3.6,20.19,20.19,0,0,1-.75,3.41,7.78,7.78,0,0,1-1.45,2.68c-1.07.37-2,.67-2.78.87a11.15,11.15,0,0,1-2.55.3,11,11,0,0,1-2.83-.43,11.56,11.56,0,0,1-2.95-1.22,9.51,9.51,0,0,1-2.43-2,4.83,4.83,0,0,1-1.28-2.64l-.93-18.07H130q-2.31.24-4.23.36c-1.26.06-2.48.11-3.64.11-1.62,0-3.4-.06-5.32-.18s-4.25-.29-7-.5c.08,1.38.16,3,.24,4.84s.12,3.7.16,5.51.06,3.45.06,4.91v3a13.34,13.34,0,0,1-.22,2.71,2.42,2.42,0,0,1-1,1.5,5.6,5.6,0,0,1-2.19.83c-1,.19-2.22.35-3.77.51a20.54,20.54,0,0,1-4.33-.41,12.3,12.3,0,0,1-4.7-2.37l-1.85-6.72a16.3,16.3,0,0,1-.63-3.51c-.2-1.75-.35-3.61-.46-5.56s-.21-3.84-.24-5.62-.06-3-.06-3.83A17.32,17.32,0,0,1,86.28,701a12.76,12.76,0,0,1-3.48-5.05,9.14,9.14,0,0,1-.46-1.95c-.15-.93-.29-2-.41-3.07s-.22-2.26-.34-3.42a30.29,30.29,0,0,1-.18-3.11.9.9,0,0,1,.12-.53.78.78,0,0,0,.12-.4v-2.09a40.38,40.38,0,0,0,5.84,3.13,42.49,42.49,0,0,0,4.8,1.75l1.62-30.81,3.71-1.86a14.66,14.66,0,0,1,4.63-.69,16,16,0,0,1,2,.18c.8.11,1.65.26,2.55.47a15.7,15.7,0,0,1,2.49.75,6.52,6.52,0,0,1,1.72.93,13.38,13.38,0,0,1-.11,2.07c-.07.46-.19,1.15-.35,2.08q-.35,3-.75,8.67t-.41,12.86v10.66c1.23.23,2.34.43,3.3.57s2,.27,3,.36,2.2.12,3.53.17,3,.05,5,.05c1.08,0,2,0,2.61-.05a23.46,23.46,0,0,0,2.72-.4Z"/><path class="cls-2" d="M166.6,649.4c4.18.16,7.2,1.41,9.09,3.76s2.92,5.73,3.07,10.15c.16,4.69.31,9.67.46,14.91s.3,10.56.42,15.92.21,10.68.27,15.91.12,10.2.12,14.83a15.7,15.7,0,0,1-.28,2.84,7,7,0,0,1-1.1,2.59,6.28,6.28,0,0,1-2.21,1.92,7.72,7.72,0,0,1-3.58.77,14.91,14.91,0,0,1-3.24-.43,19.69,19.69,0,0,1-3.25-1,3.55,3.55,0,0,1-2-2A20.83,20.83,0,0,1,163,726a34.5,34.5,0,0,1-.86-3.87c-.19-1.23-.33-2.16-.41-2.78,0-1.84,0-3.62.06-5.28s.1-3.4.18-5.25.17-4,.29-6.32.25-5.21.4-8.63c.08-1.15.11-3,.11-5.53s.07-5.83.18-9.61.35-8,.7-12.69.87-9.66,1.56-15a4.22,4.22,0,0,1,.47-1.28A1,1,0,0,1,166.6,649.4Z"/><path class="cls-2" d="M242.43,652.64a6,6,0,0,1,2.15-1.27,6.12,6.12,0,0,1,1.79-.34c2.69,0,4.92,2.2,6.65,6.64s2.61,10.79,2.61,19v2.78a28.41,28.41,0,0,1-.23,3,71.6,71.6,0,0,0,10-4.5,46.38,46.38,0,0,0,8.15-5.86,67.16,67.16,0,0,0,7.57-8q3.78-4.62,8.29-11.23a2.46,2.46,0,0,1,2.08-1.16,6.16,6.16,0,0,1,2.78,1.16,28.49,28.49,0,0,1,3.65,2.74,31.34,31.34,0,0,1,3.12,3,4.27,4.27,0,0,1,1.33,2.31v.46a74,74,0,0,1-6.83,11.12,68.35,68.35,0,0,1-7.63,8.57,99.78,99.78,0,0,1-8.45,7.12q-4.41,3.28-9.26,6.76a15.89,15.89,0,0,0,3.07,3.26c1.65,1.47,3.78,3.15,6.42,5.1s5.65,4,9.08,6.23,7.19,4.48,11.29,6.72a6.45,6.45,0,0,1,2.77,3.34,12.27,12.27,0,0,1,.93,4.64,8.44,8.44,0,0,1-.69,3.6,11.83,11.83,0,0,1-2,3.29,5.71,5.71,0,0,1-4,1.82,66.31,66.31,0,0,1-12.55-5.65,96.68,96.68,0,0,1-10.48-7c-3.24-2.5-6.36-5.12-9.37-7.82s-6.1-5.37-9.26-8l1.17,25.7a13.79,13.79,0,0,1-4.47,2.3,16.13,16.13,0,0,1-4.81.69,32,32,0,0,1-3.41-.17,14.6,14.6,0,0,1-3.3-.75,25.81,25.81,0,0,1-.92-4.93c-.16-1.64-.23-3.4-.23-5.25q0-10.54-.7-20.61c-.46-6.72-.69-13.42-.69-20.14v-25Z"/><path class="cls-2" d="M319.52,649.4q6.25.24,9.09,3.76t3.08,10.15c.14,4.69.3,9.67.45,14.91s.28,10.56.41,15.92.21,10.68.29,15.91.11,10.2.11,14.83a14.88,14.88,0,0,1-.29,2.84,6.8,6.8,0,0,1-1.1,2.59,6.22,6.22,0,0,1-2.19,1.92,7.8,7.8,0,0,1-3.59.77,15.07,15.07,0,0,1-3.24-.43,19.26,19.26,0,0,1-3.24-1,3.53,3.53,0,0,1-2-2,20.07,20.07,0,0,1-1.39-3.66,32.53,32.53,0,0,1-.87-3.87c-.19-1.23-.33-2.16-.41-2.78,0-1.84,0-3.62.06-5.28s.1-3.4.17-5.25.18-4,.29-6.32.26-5.21.41-8.63c.08-1.15.12-3,.12-5.53s.05-5.83.16-9.61.35-8,.7-12.69.88-9.66,1.57-15a4.27,4.27,0,0,1,.46-1.28A1,1,0,0,1,319.52,649.4Z"/><path class="cls-2" d="M347.88,660.28a4.51,4.51,0,0,1-.23-1.28v-1.27a7.66,7.66,0,0,1,3-6.36c2-1.55,4.92-2.74,8.85-3.6,1.39-.14,2.48-.23,3.24-.23H366a73.22,73.22,0,0,1,23.89,3.83A61.49,61.49,0,0,1,409.29,662a49.76,49.76,0,0,1,13,16.33,45.79,45.79,0,0,1,4.75,20.81,24.66,24.66,0,0,1-4,13.55,39.78,39.78,0,0,1-10.36,10.89,52.14,52.14,0,0,1-14.3,7.24,50.44,50.44,0,0,1-15.8,2.58h-1.39q-1.28,3-6.25,5.8h-1.85c-2.93,0-5.06-.76-6.37-2.25s-2-3.84-2-7V729q-15.53-10-15.52-19.67a17.49,17.49,0,0,1,2.78-9.26,21.19,21.19,0,0,0,4.69,4.62,40.26,40.26,0,0,0,6.43,3.73c-.08-.63-.14-1.85-.18-3.65s-.06-3.73-.06-5.74v-9.14a71.59,71.59,0,0,1,.81-11.65,23.52,23.52,0,0,1,2.5-7.75,10.91,10.91,0,0,1,4.1-4.29,12,12,0,0,1,5.79-1.31h1.62a84.23,84.23,0,0,1,1,11.22q.1,5.33.11,11.24v27.31a15.94,15.94,0,0,0,5.22,1.22c1.85.11,3.35.17,4.51.17a18.21,18.21,0,0,0,7.41-1.75,33.43,33.43,0,0,0,7.3-4.34,26.66,26.66,0,0,0,5.54-5.66,10.14,10.14,0,0,0,2.21-5.84,28.92,28.92,0,0,0-4.41-15.58A42.58,42.58,0,0,0,395,670.58a56.85,56.85,0,0,0-16.72-8.1,66.43,66.43,0,0,0-19.5-2.9H356l-5.09,4.85Z"/><path class="cls-2" d="M488.18,702.88a2.1,2.1,0,0,1-.46,1.5,16.74,16.74,0,0,1-5.1,3.26,19,19,0,0,1-8.1,1.72,10.88,10.88,0,0,1-2.66-.74c-1.39-.52-3.06-1.09-5-1.76s-3.93-1.21-6-1.71a24.65,24.65,0,0,0-5.8-.77,8.25,8.25,0,0,0-4.39,1.1c-1.16.72-1.74,2-1.74,3.88q0,.93,1.5,2.1a18.7,18.7,0,0,0,3.94,2.17,29.24,29.24,0,0,0,6.25,1.62,45.32,45.32,0,0,0,7.65.59,62.8,62.8,0,0,0,10.17-.86,46.29,46.29,0,0,0,9.45-2.56,22.57,22.57,0,0,0,6.87-4.08,7.48,7.48,0,0,0,2.66-5.68,5.29,5.29,0,0,0-1.84-3.95,18.7,18.7,0,0,0-4.81-3.13,41.72,41.72,0,0,0-6.71-2.42,71.85,71.85,0,0,0-7.58-1.68q-3.83-.65-7.35-1c-2.36-.24-4.34-.38-6-.46a151.51,151.51,0,0,1-15.91-1,30.72,30.72,0,0,1-9.09-2.38,7.87,7.87,0,0,1-4.11-4.16,19,19,0,0,1-1-6.54,15.67,15.67,0,0,1,3.24-10,26.84,26.84,0,0,1,8.21-7,49.12,49.12,0,0,1,10.83-4.38,111.88,111.88,0,0,1,10.95-2.51A85.8,85.8,0,0,1,475,651c2.39-.15,3.78-.24,4.16-.24a94.09,94.09,0,0,1,16.28,1.32q7.57,1.33,13.36,3a3.38,3.38,0,0,1,1.92.93,4.4,4.4,0,0,1,.64,2.79,5.59,5.59,0,0,1-1.68,3.64,9.68,9.68,0,0,1-3.42,2c-.94.25-2.21.52-3.81.83s-2.9.54-3.84.7-3,.32-5.9.53-6.1.41-9.78.67-7.48.59-11.45.94-7.63.8-10.95,1.4a43.73,43.73,0,0,0-8.21,2.07c-2.17.8-3.24,1.75-3.24,2.84,0,.84,1,1.51,3,2s4.4.85,7.17,1.21,5.65.62,8.62.82,5.39.41,7.24.62q8.32,1.07,15.23,2.26a39.71,39.71,0,0,1,11.8,3.85,18.79,18.79,0,0,1,7.64,7.27c1.81,3.11,2.72,7.33,2.72,12.56a22.18,22.18,0,0,1-2.37,10.49,25.8,25.8,0,0,1-6,7.57,32,32,0,0,1-8.17,5.08,61.05,61.05,0,0,1-8.8,3.14,55.05,55.05,0,0,1-7.86,1.57,52,52,0,0,1-5.44.39,43.58,43.58,0,0,1-14.13-2.26,47.08,47.08,0,0,1-11.8-5.73,32,32,0,0,1-8.12-7.64,13.8,13.8,0,0,1-3-8,13.4,13.4,0,0,1,2-7.52,14.54,14.54,0,0,1,5.08-4.75,22.34,22.34,0,0,1,6.84-2.41,38.32,38.32,0,0,1,7.16-.73,53.89,53.89,0,0,1,7,.49,64.54,64.54,0,0,1,7.63,1.43,71.72,71.72,0,0,1,7.77,2.45,55.77,55.77,0,0,1,7.46,3.4A1.39,1.39,0,0,1,488.18,702.88Z"/><path class="cls-2" d="M476.82,437.81a24.42,24.42,0,0,1,4.1-.36c2.27,0,3.76.45,4.77,1.36A4.21,4.21,0,0,1,487,442a4.33,4.33,0,0,1-3.08,4.19v.07c1.25.44,2,1.62,2.4,3.33a26,26,0,0,0,1.27,4.53h-2.21a21.76,21.76,0,0,1-1.07-3.94c-.49-2.28-1.39-3.14-3.33-3.21h-2v7.15h-2.13Zm2.13,7.5h2.18c2.28,0,3.73-1.24,3.73-3.13,0-2.13-1.55-3.05-3.8-3.05a9.3,9.3,0,0,0-2.11.17Z"/><path class="cls-7" d="M234.86,472a3.51,3.51,0,0,1-2.9,3.44,41.22,41.22,0,0,1-5.17.59c-1.86.13-2.8.59-2.83,1.36a5.83,5.83,0,0,0,1.24,2.86c1.46,2.18,2.24,3.37,2.36,3.58a8,8,0,0,1,1.19,4.06,4.73,4.73,0,0,1-.45,1.83,2.81,2.81,0,0,1-1.21,1.39l-.27-.48.13-.85a7.1,7.1,0,0,0-1.23-3.84l-2.41-3.51a5,5,0,0,1,.65-7.21,5.21,5.21,0,0,1,3.9-1.93,4,4,0,0,1,.5.06,15.67,15.67,0,0,1,1.57-2.47,3.58,3.58,0,0,1,2.73-.84,2.52,2.52,0,0,1,1.54.54A1.65,1.65,0,0,1,234.86,472Z"/><path class="cls-7" d="M252.58,477.46l-.87,2.57a3.39,3.39,0,0,0-2.07.5,5.54,5.54,0,0,0-1.23,1.34,10.52,10.52,0,0,1-1.39,1.67q-1.44,1.32-5.18,1.2l-.63,0-.62,0a13.31,13.31,0,0,0-3.06.16,4,4,0,0,0-2.38,1.43l-.54,0-.1-.29c.07-2,1.24-3.19,3.52-3.7a48.26,48.26,0,0,1,6.3-.38c2.27-.06,3.41-.51,3.44-1.35,0-.37-.32-.61-1-.75-1.13-.22-1.76-.36-1.89-.4a1.47,1.47,0,0,1-1-1.5,4.84,4.84,0,0,1,1.21-2.23c.81-1.05,1.43-1.56,1.85-1.55,1.14,0,2.15,1.13,3,3.25Z"/><path class="cls-7" d="M269.56,478l-1.12,2.56-1.69,0a2.74,2.74,0,0,1-2.21-1.24,3.94,3.94,0,0,1-.74-2.51,5,5,0,0,1,.3-1.23,4.38,4.38,0,0,0,.3-1.23q.06-1.56-2.49-1.65a9.53,9.53,0,0,0-3,.6,6,6,0,0,1,1.63.44,1.37,1.37,0,0,1,.74,1.38,5.77,5.77,0,0,1-1.73,3.14c-1.16,1.33-2.12,2-2.88,2l-6-.2-.09-.37a6.11,6.11,0,0,1,1.17-2.2,36.07,36.07,0,0,0,7.09-.17c.34-.08.51-.19.51-.32,0-.69-.53-1.06-1.67-1.09a4.62,4.62,0,0,0-2.78.72c-.33-.06-.49-.22-.48-.47Q254.55,474,258,472a10.81,10.81,0,0,1,5.51-1.76,4,4,0,0,1,2,.56,1.85,1.85,0,0,1,1,1.68,4.7,4.7,0,0,1-.34,1.32,4.5,4.5,0,0,0-.35,1.33C265.75,477,267,478,269.56,478ZM258.07,484a2.65,2.65,0,0,1-.76,1.24c-.36.34-.73.68-1.1,1l-2.37-1.64a7.55,7.55,0,0,1,2-2.17Z"/><path class="cls-7" d="M276,474.89a3.41,3.41,0,0,1-.37,1.48c-.27.43-.53.86-.79,1.3a5.92,5.92,0,0,1-5.67,2.95l-2-.07c.37-.73.82-1.58,1.36-2.56,1.37.05,2.29.06,2.77,0a6.06,6.06,0,0,0,2.63-.73v-.34a3.68,3.68,0,0,0-.41-1.77l-.83-1.6c1-1.42,1.58-2.13,1.79-2.13s.61.51,1,1.5A6.16,6.16,0,0,1,276,474.89Zm-1.36-9.09a2.69,2.69,0,0,1-.78,1.23l-1.1,1.05-2.36-1.64a7.35,7.35,0,0,1,2-2.16Z"/><path class="cls-7" d="M291.53,478.77c-.14.45-.29.91-.43,1.37a3.27,3.27,0,0,1-.72,1.19l-1.22,0a4.21,4.21,0,0,1-2.75-1,3.35,3.35,0,0,1-1-2.71,29.17,29.17,0,0,1,.52-3.93,30.7,30.7,0,0,0,.51-3.95,11.56,11.56,0,0,0-1.07-5.6c.76-1,1.39-1.78,1.88-2.31a10.71,10.71,0,0,1,1.28,6.07,28,28,0,0,1-.55,4,28.49,28.49,0,0,0-.56,4,2.32,2.32,0,0,0,1.2,2.46A9.65,9.65,0,0,0,291.53,478.77Z"/><path class="cls-7" d="M300.35,479.07a10,10,0,0,1-1,2.56l-4.08-.13c-.75,0-1.2-.18-1.36-.47a25.28,25.28,0,0,1-3.08.32l-1.41-.05c.27-.75.61-1.61,1-2.56.21,0,.56,0,1.05.06s.88.07,1.15.07q2.61.09,3.54-1.14a4.73,4.73,0,0,1,1.31-1.22v.38l-1.08,1.89a4.65,4.65,0,0,0,1.69.3c.27,0,.66,0,1.17,0Zm-1.08-10a3.24,3.24,0,0,1-.81,1.23c-.53.63-.87.94-1,.94a4.65,4.65,0,0,1-1.36-.77c-.74-.5-1.1-.79-1.1-.88a3.53,3.53,0,0,1,.82-1.17c.53-.62.87-.93,1-.92a4.42,4.42,0,0,1,1.37.72C298.9,468.74,299.27,469,299.27,469.11Z"/><path class="cls-7" d="M306.82,475.56a7.44,7.44,0,0,1-1.54,3.9c-1.08,1.55-2.17,2.3-3.26,2.26l-3.82-.12c.29-.71.47-1.15.56-1.32a6.61,6.61,0,0,1,.69-1.24,26.8,26.8,0,0,0,3.13,0c1.46-.17,2.21-.67,2.23-1.5a18.19,18.19,0,0,0-1-5.44,18.14,18.14,0,0,1-1-5.45,4.78,4.78,0,0,1,.74-2.51c.07-.11.64-.79,1.71-2l.4.31a4.13,4.13,0,0,0-.69,2.66,18.27,18.27,0,0,0,1,5.26A17.91,17.91,0,0,1,306.82,475.56Z"/><path class="cls-7" d="M317,479.63l-.42,1.36a3.24,3.24,0,0,1-.73,1.2l-1.21,0a4.12,4.12,0,0,1-2.75-1,3.29,3.29,0,0,1-1-2.7,31.26,31.26,0,0,1,.52-3.94,30.6,30.6,0,0,0,.51-3.94,11.53,11.53,0,0,0-1.07-5.6,29.45,29.45,0,0,1,1.88-2.31,10.77,10.77,0,0,1,1.29,6.07,28.58,28.58,0,0,1-.56,4,28.22,28.22,0,0,0-.55,4,2.31,2.31,0,0,0,1.2,2.47A9.57,9.57,0,0,0,317,479.63Z"/><path class="cls-7" d="M327.92,480c-.22.57-.54,1.43-.94,2.57l-1.85-.06a7,7,0,0,1-1.85-.44,7.84,7.84,0,0,0-1.86-.44,12.61,12.61,0,0,0-2.41.3,11.69,11.69,0,0,1-2.42.3l-1.87-.07-.07-.2a3.17,3.17,0,0,1,.49-1.23,6.33,6.33,0,0,1,.76-1.13l3.72-.13a9.35,9.35,0,0,1,1.52-3.54c1-1.52,1.91-2.27,2.75-2.24a1.41,1.41,0,0,1,1.21.78,2.82,2.82,0,0,1,.35,1.48,5.59,5.59,0,0,1-1.37,3.2v.33c.19.27.82.44,1.91.5C325.05,479.91,325.7,479.92,327.92,480Zm-2.76-12.39a6,6,0,0,1-1.89,2.29l-2.33-1.62a7,7,0,0,1,2-2.19Zm-1.46,10.26a1.75,1.75,0,0,0-.22-.94.92.92,0,0,0-.77-.48,1.35,1.35,0,0,0-.89.38,1.12,1.12,0,0,0-.47.8c0,.13.16.39.48.76s.56.58.69.58a1.08,1.08,0,0,0,.8-.32A1.14,1.14,0,0,0,323.7,477.86Z"/><path class="cls-7" d="M339.06,475.87c-.11,3.35-3,5.48-8.67,6.42-.16.49-.34,1-.52,1.46a4,4,0,0,1-.77,1.34l-.36,0-.09-.35c.27-.9.52-1.64.75-2.2l-.38-.18a9,9,0,0,1-1.57.24l-1.35,0-.14-.45a3.45,3.45,0,0,1,1.11-2.12,9.64,9.64,0,0,0,2.26-.07q1-.28,1.05-1.74a24,24,0,0,0-.7-5.36,24,24,0,0,1-.7-5.35,5.34,5.34,0,0,1,2.71-4.3l.27.41a4.59,4.59,0,0,0-.75,2.43,25.3,25.3,0,0,0,.51,5.14c.47,2.55.74,4.26.81,5.12q1.85-2.64,4.11-2.56a2.66,2.66,0,0,1,1.65.65A1.89,1.89,0,0,1,339.06,475.87Zm-1.92,2a1.09,1.09,0,0,0-.63-1.09,2.95,2.95,0,0,0-3.57.64,12.76,12.76,0,0,0-1.41,2.09A14.69,14.69,0,0,0,337.14,477.85Z"/><path class="cls-7" d="M347.17,459.46a3.06,3.06,0,0,1-1.24,2.37,8.49,8.49,0,0,1-2.65,1.28c-.92.27-1.84.53-2.76.81a2.65,2.65,0,0,1,1.28-2.08,11.33,11.33,0,0,1,2.08-.49,3.39,3.39,0,0,0,2-1l-.28-.06a2,2,0,0,0-.8.21,1.86,1.86,0,0,1-.77.22,1.78,1.78,0,0,1-1.08-.37,1.17,1.17,0,0,1-.49-1,3.49,3.49,0,0,1,1.2-2.39,3.32,3.32,0,0,1,2.42-1.07c.41,0,.62.11.61.3a1.94,1.94,0,0,1-.51.94c-.34.4-.61.6-.81.58a1,1,0,0,1-.25-.06l-.29,0c-.69,0-1.05.17-1.06.59,0,.14.14.3.42.48a1.63,1.63,0,0,0,.66.28,2.19,2.19,0,0,0,.84-.27,2.19,2.19,0,0,1,.85-.27C347,458.46,347.19,458.8,347.17,459.46Zm-2.09,18.31a6.4,6.4,0,0,1-2.89,5.46l-.28-.29a10.35,10.35,0,0,0,.69-1.95,8.55,8.55,0,0,0,.39-2,30.43,30.43,0,0,0-.56-5.48,30.2,30.2,0,0,1-.56-5.64q.09-2.67,3.12-4.58l0,.19a6.65,6.65,0,0,1-.31,1.53,6.61,6.61,0,0,0-.31,1.54,43.57,43.57,0,0,0,.34,5.6A41.83,41.83,0,0,1,345.08,477.77Z"/></svg>