<?xml version="1.0" encoding="utf-8"?>
<!-- Generator: Adobe Illustrator 25.2.1, SVG Export Plug-In . SVG Version: 6.00 Build 0)  -->
<svg version="1.1" id="Layer_1" xmlns="http://www.w3.org/2000/svg" xmlns:xlink="http://www.w3.org/1999/xlink" x="0px" y="0px"
	 viewBox="0 0 447.65 456" style="enable-background:new 0 0 447.65 456;" xml:space="preserve">
<style type="text/css">
	.st0{fill:#050505;}
</style>
<g>
	<path class="st0" d="M252.83,183.32c23.9-7.14,40.14-27.79,42.89-51.12l37.74-5.58l-1.17-7.92l-36.18,5.34
		c-0.1-5.39-0.9-10.85-2.52-16.26c-9.59-32.06-43.46-50.35-75.53-40.76c-32.06,9.58-50.35,43.47-40.76,75.53
		c1.2,4.02,2.79,7.83,4.7,11.39l-73.51,10.54l1.14,7.92l77.09-11.06C201.52,181.24,227.73,190.82,252.83,183.32 M250.15,174.37
		c-19.47,5.82-39.72-0.51-52.61-14.57l83.98-12.04C275.44,160.16,264.41,170.11,250.15,174.37 M186.26,139.88
		c-8.11-27.12,7.36-55.79,34.49-63.9c27.12-8.11,55.79,7.36,63.9,34.49c1.49,4.98,2.17,10.01,2.15,14.96l-44.01,6.5l1.17,7.92
		l42.13-6.23c-0.32,1.89-0.75,3.75-1.27,5.57L192,152.51C189.58,148.67,187.62,144.44,186.26,139.88"/>
	<path class="st0" d="M122.43,228.65l-0.27,4.22c-0.01,0.19,0.09,0.38,0.26,0.48c0.08,0.04,0.17,0.07,0.26,0.07
		c0.1,0,0.2-0.03,0.29-0.09c4.65-3.13,9.79-5.51,15.27-7.09c0.19-0.06,0.34-0.22,0.37-0.42l0.84-5.52c0.03-0.18-0.04-0.36-0.18-0.47
		c-0.14-0.12-0.33-0.15-0.5-0.09l-4.15,1.48c-1.69,0.6-2.43,0.73-2.75,0.73c-2.06,0-3.1-0.44-3.1-1.31c0-0.27,0-1.1,1.55-1.73
		c0.89-0.38,1.87-0.57,2.92-0.57c0.22,0,0.63,0.04,1.4,0.23c0.71,0.18,1.25,0.26,1.65,0.26c0.85,0,1.35-0.46,1.35-1.24
		c0-0.32-0.1-0.72-0.31-1.23c-0.5-1.16-1.39-2.14-2.66-2.89c-1.25-0.74-2.54-1.12-3.82-1.12c-2.13,0-3.98,1.19-5.49,3.55
		c-1.32,2.03-1.99,4.11-1.99,6.18c0,0.98,0.35,1.92,1.04,2.79c0.39,0.5,0.83,0.86,1.3,1.11c-0.91,0.59-1.94,1.35-3.07,2.29
		C122.51,228.37,122.44,228.5,122.43,228.65"/>
	<path class="st0" d="M111.51,255.07c3.68,2.03,9.26,3.05,16.74,3.05h5.4c3.39,0,6.38-0.21,9.01-0.61c2.73-0.28,5.49-0.69,8.04-1.28
		c6.83-1.58,10.34-6.12,10.34-14.59c0-4.24,0.15-9.8,0.46-16.7V202.7v-4.09c0-0.61-0.17-0.91-0.49-0.91c-0.28,0-0.8,0.27-1.56,0.8
		l-11.07,7.8c-0.42,0.36-0.63,0.89-0.66,1.59c0,0.01,0,0.01-0.01,0.02c-0.49,2.02,1.08,25.91,1.08,25.91c0,3.7-2.92,7.01-6.19,7.01
		l-4.61,0.34c-2.42-0.02-5.35-0.11-9.18-0.11c-7.58,0-12.63-1.12-15.14-3.35c-1.5-1.32-2.23-3.5-2.21-6.55
		c0.03-2.59-0.7-3.88-2.17-3.88c-1.45,0-2.69,1.6-3.73,4.8c-0.94,2.87-1.41,5.77-1.41,8.69
		C104.17,247.58,106.62,252.35,111.51,255.07"/>
	<path class="st0" d="M279.36,222.44c3.47,0,6.29-2.81,6.29-6.29c0-3.47-2.82-6.29-6.29-6.29c-3.47,0-6.29,2.82-6.29,6.29
		C273.07,219.63,275.88,222.44,279.36,222.44"/>
	<path class="st0" d="M331.66,249.45c1.65-3.07,2.47-5.9,2.47-8.49c0-5.76-2.56-11.16-7.69-16.21c-3.45-3.4-8.61-7.03-15.49-10.88
		c-1.17-0.66-1.93-0.99-2.28-0.99c-0.66,0-1.27,0.63-1.83,1.9l-5.1,11.53l2.24,1.44c-2.46,1.14-3.69,3.39-3.69,6.73
		c0,1.32,0.28,2.45,0.84,3.39h-4.45v0.04h-0.69c-2.64,0-4.44-0.82-5.4-2.45c-0.28-0.48-0.7-1.97-1.26-4.47
		c-0.36-1.63-1.14-2.45-2.36-2.45c-1.27,0-2.14,0.82-2.62,2.45c-0.76,2.6-1.27,4.09-1.52,4.47c-1.06,1.62-2.94,2.43-5.63,2.44v-0.03
		h-38.65h-2.47h-47.22c-2.93-0.19-4.42-2.01-4.42-5.52v-33.52c0-0.61-0.16-0.91-0.49-0.91c-0.28,0-0.8,0.27-1.56,0.8l-11.07,7.8
		c-0.58,0.51-0.79,1.34-0.61,2.51c0.35,2.36,0.7,7.18,1.03,14.46c0.31,6.9,0.46,12.47,0.46,16.7c0,9.94,4.76,14.92,14.27,14.92h1.9
		v0.08h47.72h2.47h36.22h2.43h1.29c4.03,0,7.04-1.7,9.02-5.1c2,3.4,4.83,5.1,8.49,5.1h0.69h2.24h4.6c3.07,0,6.4-1.66,10.01-4.98
		c4.92,3.32,8.45,4.98,10.58,4.98C327.09,255.2,329.6,253.28,331.66,249.45 M314.33,236.94c-0.85,0.63-1.68,0.95-2.49,0.95
		c-0.79,0-1.78-0.37-2.97-1.11c-1.29-0.79-1.94-1.53-1.94-2.24c0-0.86,0.58-1.62,1.75-2.28c1.01-0.56,2-0.84,2.97-0.84
		c0.89,0,1.77,0.35,2.64,1.05c0.88,0.7,1.31,1.49,1.31,2.38C315.6,235.6,315.18,236.3,314.33,236.94 M325.04,245.11
		c-0.63,0-1.71-0.41-3.23-1.22c-1.32-0.71-2.32-1.34-3.01-1.9c1.7-0.94,2.55-2.66,2.55-5.17v-0.76c3.63,2.56,5.44,4.69,5.44,6.39
		C326.79,244.23,326.21,245.11,325.04,245.11"/>
	<path class="st0" d="M140.5,337.44c0.6,0.6,1.26,0.9,2,0.9h9.99c0.78,0,1.45-0.28,2-0.83c0.55-0.55,0.83-1.24,0.83-2.07v-42.42
		c0-0.87-0.25-1.56-0.76-2.07c-0.51-0.5-1.19-0.76-2.07-0.76h-9.99c-0.83,0-1.52,0.28-2.07,0.83c-0.55,0.55-0.83,1.22-0.83,2v14.6
		h-17.7v-14.6c0-0.78-0.28-1.45-0.83-2c-0.55-0.55-1.24-0.83-2.07-0.83h-9.99c-0.83,0-1.51,0.28-2.07,0.83
		c-0.55,0.55-0.83,1.22-0.83,2v42.42c0,0.74,0.3,1.4,0.9,2c0.6,0.6,1.26,0.9,2,0.9h9.99c0.78,0,1.46-0.3,2.03-0.9
		c0.57-0.6,0.86-1.26,0.86-2v-15.98h17.7v15.98C139.6,336.18,139.9,336.84,140.5,337.44"/>
	<path class="st0" d="M168.87,338.13h9.16c0.78,0,1.43-0.28,1.96-0.83c0.53-0.55,0.79-1.19,0.79-1.93v-20.59
		c0-0.46,0.02-0.79,0.07-1c0.04-0.21,0.16-0.31,0.34-0.31c0.18,0,0.62,0.34,1.31,1.03c7.16,7.62,12.6,13.39,16.32,17.29
		c3.72,3.9,5.72,5.92,5.99,6.06c0.37,0.18,0.72,0.31,1.07,0.38c0.34,0.07,0.95,0.1,1.82,0.1h7.78c0.92,0,1.73-0.37,2.45-1.1
		c0.71-0.73,1.07-1.56,1.07-2.48v-40.97c0-0.96-0.37-1.81-1.1-2.55c-0.73-0.73-1.61-1.1-2.62-1.1h-8.75c-0.69,0-1.31,0.29-1.86,0.86
		c-0.55,0.57-0.83,1.23-0.83,1.96v20.52c0,0.73-0.14,1.1-0.41,1.1c-0.14,0-0.39-0.11-0.76-0.34c-2.71-2.76-6.45-6.62-11.23-11.6
		c-4.77-4.98-8.22-8.58-10.33-10.78c-0.69-0.73-1.25-1.2-1.69-1.41c-0.44-0.2-1.05-0.31-1.83-0.31h-8.54
		c-0.92,0-1.72,0.39-2.41,1.17c-0.69,0.78-1.03,1.68-1.03,2.68v40.56c0,0.96,0.32,1.8,0.96,2.51
		C167.24,337.77,168,338.13,168.87,338.13"/>
	<path class="st0" d="M276.78,332l-15.43-38.77c-0.28-0.83-0.8-1.54-1.58-2.13c-0.78-0.6-1.77-0.92-2.96-0.96h-4.27h-5.65
		c-1.1,0.05-2.06,0.33-2.86,0.86c-0.8,0.53-1.41,1.27-1.83,2.24L226.92,332c-0.05,0.09-0.2,0.52-0.45,1.27
		c-0.25,0.76-0.38,1.53-0.38,2.31c0,1.56,0.89,2.48,2.69,2.76h9.57c0.96,0,1.77-0.17,2.41-0.52c0.64-0.35,1.06-0.84,1.24-1.48
		l2.13-6.89h15.36l2.13,6.89c0.18,0.64,0.61,1.14,1.27,1.48c0.67,0.34,1.48,0.52,2.45,0.52h9.43c1.84-0.28,2.75-1.24,2.75-2.89
		c0-0.64-0.12-1.32-0.34-2.03C276.97,332.7,276.83,332.23,276.78,332 M252.54,317.81h-6.33l5.37-16.18l5.44,16.18H252.54z"/>
	<path class="st0" d="M318.65,311.07l11.71-15.91c0.55-0.78,0.83-1.51,0.83-2.2c0-1.01-0.51-1.58-1.52-1.72h0.07l-10.61-0.07
		c-1.93-0.14-3.3,0.32-4.13,1.38l-15.22,19.35v-18.25c0-0.73-0.27-1.37-0.79-1.89c-0.53-0.53-1.16-0.79-1.89-0.79h-9.85
		c-0.78,0-1.42,0.25-1.93,0.76c-0.51,0.51-0.76,1.15-0.76,1.93v42.01c0,0.83,0.24,1.48,0.72,1.96c0.48,0.48,1.14,0.72,1.96,0.72
		h9.85c0.51,0,0.98-0.12,1.41-0.35c0.44-0.23,0.75-0.55,0.93-0.96l9.71-13.15l9.23,13.22c0.46,0.6,1.03,0.9,1.72,0.9l12.4-0.07
		c0.55-0.04,1-0.31,1.34-0.79c0.34-0.48,0.52-1.07,0.52-1.76c0-0.55-0.14-1.06-0.41-1.52L318.65,311.07z"/>
	<rect x="105.58" y="350.91" class="st0" width="228.79" height="8"/>
	<rect x="107.6" y="269.38" class="st0" width="226.78" height="8"/>
</g>
</svg>
