<?xml version="1.0" encoding="utf-8"?>
<!-- Generator: Adobe Illustrator 25.3.1, SVG Export Plug-In . SVG Version: 6.00 Build 0)  -->
<svg version="1.1" id="Layer_2" xmlns="http://www.w3.org/2000/svg" xmlns:xlink="http://www.w3.org/1999/xlink" x="0px" y="0px"
	 viewBox="0 0 612.93 127.76" style="enable-background:new 0 0 612.93 127.76;" xml:space="preserve">
<style type="text/css">
	.st0{fill:#FFFFFF;}
	.st1{fill:#FFFFFF;stroke:#C22149;stroke-width:3;stroke-linecap:round;stroke-miterlimit:10;}
</style>
<g>
	<g>
		<g>
			<path class="st0" d="M12.69,27.55h5.47V37.7c3.68-5.91,8.82-11.49,18.97-11.49c9.93,0,16.07,5.69,19.19,12.27
				c3.68-6.36,9.82-12.27,20.53-12.27c13.5,0,21.87,9.49,21.87,23.77v34.48h-5.47V50.65c0-12.27-6.36-19.41-16.85-19.41
				c-9.6,0-17.96,7.36-17.96,20.08v33.14h-5.47V50.31c0-11.83-6.47-19.08-16.63-19.08c-10.15,0-18.19,8.93-18.19,20.42v32.81h-5.47
				V27.55z"/>
		</g>
	</g>
	<g>
		<g>
			<path class="st0" d="M109.6,62.36V27.55h5.47v33.81c0,11.72,6.58,19.41,18.08,19.41c11.16,0,19.75-8.48,19.75-20.31V27.55h5.47
				v56.91h-5.47v-10.6c-3.79,6.69-10.15,11.94-20.53,11.94C117.97,85.79,109.6,75.98,109.6,62.36z"/>
		</g>
	</g>
	<g>
		<g>
			<path class="st0" d="M172.41,27.55h5.47V37.7c3.68-5.91,8.82-11.49,18.97-11.49c9.93,0,16.07,5.69,19.19,12.27
				c3.68-6.36,9.82-12.27,20.53-12.27c13.5,0,21.87,9.49,21.87,23.77v34.48h-5.47V50.65c0-12.27-6.36-19.41-16.85-19.41
				c-9.6,0-17.96,7.36-17.96,20.08v33.14h-5.47V50.31c0-11.83-6.47-19.08-16.63-19.08c-10.15,0-18.19,8.93-18.19,20.42v32.81h-5.47
				V27.55z"/>
		</g>
	</g>
	<g>
		<g>
			<path class="st0" d="M266.36,81.33l41.06-48.87h-39.5v-4.91h47.65v3.12l-41.06,48.87h41.06v4.91h-49.21V81.33z"/>
		</g>
	</g>
	<g>
		<g>
			<path class="st0" d="M321.49,27.55h6.14l17.18,49.99l17.18-50.21h4.35l17.18,50.21l17.18-49.99h5.91L385.76,84.9h-4.69
				l-16.96-48.76L347.04,84.9h-4.69L321.49,27.55z"/>
		</g>
	</g>
</g>
<g>
	<g>
		<path class="st1" d="M454.14,61.63"/>
	</g>
</g>
<g>
	<g>
		<g>
			<path class="st0" d="M426.92,28.51c-13.05,7.86-20.53,26.74-12.66,40.69c8.74,15.51,30.48,19.7,45.98,13.24
				c17.18-7.15,23.95-26.36,17.43-43.46c-3.27-8.58-11.91-16.76-20.39-20.2c-5.47-2.22-15.49-2.33-18.56,4.11
				c-3.49,7.29,7.45,12.62,12.81,13.73c9.39,1.95,19.33,0.46,28.6-1.34c3.06-0.59,2.25-3.39-0.75-2.81
				c-9.49,1.85-30.01,5.84-35.47-5.61c-2.04-4.27,2.14-6.71,6.02-6.34c4.88,0.47,9.28,3.81,12.87,6.92
				c5.69,4.93,9.86,10.62,11.46,18.06c3.16,14.73-2.79,30.03-17.68,35.19c-13.22,4.58-30.64-0.76-37.65-13.35
				c-6.97-12.52-0.71-29.94,11.12-37.07C432.9,28.55,428.68,27.44,426.92,28.51L426.92,28.51z"/>
		</g>
	</g>
</g>
<g>
	<g>
		<path class="st0" d="M438.96,52.93c1.51,0.01,2.78-1.19,2.73-2.7c-0.06-1.69-0.99-2.68-2.69-2.71c-1.72-0.02-2.64,1.02-2.76,2.66
			C436.14,51.63,437.49,52.91,438.96,52.93z M457.13,50.26c0.03-1.5-1.17-2.77-2.69-2.75c-1.69,0.03-2.72,0.96-2.76,2.64
			c-0.04,1.7,1,2.64,2.66,2.77C455.81,53.03,457.1,51.74,457.13,50.26z"/>
	</g>
</g>
<g>
	<g>
		<path class="st0" d="M447.49,72.03c-0.8,0-1.36-0.06-1.61-0.09c-13.32-0.07-21.14-13.15-21.47-13.71
			c-0.42-0.71-0.18-1.63,0.53-2.05c0.71-0.42,1.63-0.18,2.05,0.53c0.07,0.12,7.34,12.23,18.99,12.23l0.23,0.02
			c0.47,0.07,11.71,1.55,19.15-12.68c0.38-0.73,1.29-1.02,2.02-0.63c0.73,0.38,1.02,1.29,0.63,2.02
			C461.26,70.62,451.45,72.03,447.49,72.03z"/>
	</g>
</g>
<g>
	<g>
		<path class="st0" d="M495.15,27.55h5.47v16.18c4.46-10.15,13.95-17.52,25.22-17.07v6.02h-0.56c-13.17,0-24.66,9.93-24.66,28.45
			v23.32h-5.47V27.55z"/>
	</g>
</g>
<g>
	<g>
		<path class="st0" d="M534.21,3h5.47v81.46h-5.47V3z"/>
	</g>
</g>
<g>
	<g>
		<path class="st0" d="M547.12,56.22V56c0-18.52,13.95-29.79,27.67-29.79c11.38,0,18.75,6.47,23.43,13.61V3h5.47v81.46h-5.47V71.73
			c-4.91,7.48-12.16,14.06-23.43,14.06C561.06,85.79,547.12,74.75,547.12,56.22z M598.56,56.11v-0.22
			c0-14.62-11.38-24.44-23.21-24.44c-12.39,0-22.32,9.04-22.32,24.33V56c0,14.95,10.38,24.55,22.32,24.55
			C587.17,80.55,598.56,70.62,598.56,56.11z"/>
	</g>
</g>
<g>
	<g>
		<g>
			<path class="st0" d="M29.03,121.1h-3.05l-0.69,4.12h-2.74l0.69-4.12h-4.17l-0.69,4.12h-2.74l0.69-4.12h-2.28v-2.66h2.74
				l0.77-4.46H15v-2.66h3.02l0.69-4.02h2.74l-0.69,4.02h4.17l0.69-4.02h2.74l-0.69,4.02h2.3v2.66h-2.77l-0.77,4.46h2.59V121.1z
				 M19.48,118.52h4.28l0.79-4.61h-4.28L19.48,118.52z"/>
		</g>
	</g>
	<g>
		<g>
			<path class="st0" d="M35.53,110.37l-3.23,0.9l-0.67-2.56l4.84-1.54h2.18v18.05h-3.12V110.37z"/>
		</g>
	</g>
	<g>
		<g>
			<path class="st0" d="M50.74,111.71h3.1v2.05c0.87-1.2,2.05-2.33,4.12-2.33c1.95,0,3.33,0.95,4.05,2.38
				c1.08-1.43,2.51-2.38,4.56-2.38c2.94,0,4.74,1.87,4.74,5.17v8.63h-3.1v-7.68c0-2.15-1-3.3-2.74-3.3c-1.69,0-2.89,1.18-2.89,3.35
				v7.63h-3.1v-7.71c0-2.1-1.02-3.28-2.74-3.28c-1.72,0-2.89,1.28-2.89,3.35v7.63h-3.1V111.71z"/>
		</g>
	</g>
	<g>
		<g>
			<path class="st0" d="M74.32,118.54v-0.05c0-3.87,3.07-7.07,7.22-7.07s7.19,3.15,7.19,7.02v0.05c0,3.84-3.07,7.04-7.25,7.04
				C77.36,125.53,74.32,122.38,74.32,118.54z M85.63,118.54v-0.05c0-2.38-1.72-4.35-4.15-4.35c-2.48,0-4.07,1.95-4.07,4.3v0.05
				c0,2.36,1.71,4.33,4.12,4.33C84.05,122.82,85.63,120.87,85.63,118.54z"/>
		</g>
	</g>
	<g>
		<g>
			<path class="st0" d="M92.52,121.49v-7.12H90.8v-2.66h1.72v-3.71h3.1v3.71h3.64v2.66h-3.64V121c0,1.2,0.61,1.69,1.66,1.69
				c0.69,0,1.31-0.15,1.92-0.46v2.54c-0.77,0.44-1.61,0.69-2.79,0.69C94.13,125.46,92.52,124.46,92.52,121.49z"/>
		</g>
	</g>
	<g>
		<g>
			<path class="st0" d="M102.4,106.53h3.1v7.25c0.87-1.25,2.12-2.36,4.22-2.36c3.05,0,4.81,2.05,4.81,5.17v8.63h-3.1v-7.68
				c0-2.1-1.05-3.3-2.89-3.3c-1.79,0-3.05,1.25-3.05,3.35v7.63h-3.1V106.53z"/>
		</g>
	</g>
	<g>
		<g>
			<path class="st0" d="M117.53,118.52v-0.05c0-3.87,2.74-7.04,6.61-7.04c4.3,0,6.48,3.38,6.48,7.27c0,0.28-0.03,0.56-0.05,0.87
				h-9.93c0.33,2.2,1.89,3.43,3.89,3.43c1.51,0,2.59-0.56,3.66-1.61L130,123c-1.28,1.54-3.05,2.54-5.53,2.54
				C120.55,125.53,117.53,122.69,117.53,118.52z M127.54,117.52c-0.21-2-1.38-3.56-3.43-3.56c-1.89,0-3.23,1.46-3.51,3.56H127.54z"
				/>
		</g>
	</g>
	<g>
		<g>
			<path class="st0" d="M133.73,111.71h3.1v3.05c0.84-2.02,2.41-3.41,4.79-3.3v3.28h-0.18c-2.71,0-4.61,1.77-4.61,5.35v5.15h-3.1
				V111.71z"/>
		</g>
	</g>
	<g>
		<g>
			<path class="st0" d="M140.93,127.63c1.56-0.31,2.3-1.1,2.2-2.41h-1.33v-3.53h3.41v3c0,2.84-1.36,4.05-3.94,4.28L140.93,127.63z"
				/>
		</g>
	</g>
	<g>
		<g>
			<path class="st0" d="M159.67,123.13v2.1h-3.1v-18.69h3.1v7.43c1-1.41,2.41-2.54,4.61-2.54c3.18,0,6.27,2.51,6.27,7.02v0.05
				c0,4.48-3.07,7.02-6.27,7.02C162.02,125.51,160.61,124.38,159.67,123.13z M167.4,118.49v-0.05c0-2.61-1.77-4.33-3.87-4.33
				s-3.94,1.74-3.94,4.33v0.05c0,2.59,1.84,4.33,3.94,4.33C165.66,122.82,167.4,121.15,167.4,118.49z"/>
		</g>
	</g>
	<g>
		<g>
			<path class="st0" d="M172.85,121.33v-0.05c0-2.92,2.28-4.35,5.58-4.35c1.51,0,2.59,0.23,3.64,0.56v-0.33
				c0-1.92-1.18-2.94-3.35-2.94c-1.51,0-2.64,0.33-3.87,0.84l-0.82-2.43c1.49-0.67,2.94-1.1,5.1-1.1c2.02,0,3.53,0.54,4.48,1.51
				c1,0.97,1.46,2.41,1.46,4.17v8.01h-3.02v-1.69c-0.92,1.1-2.33,1.97-4.4,1.97C175.1,125.51,172.85,124.05,172.85,121.33z
				 M182.12,120.36v-0.92c-0.79-0.31-1.84-0.54-3.07-0.54c-2,0-3.17,0.84-3.17,2.25v0.05c0,1.31,1.15,2.05,2.64,2.05
				C180.56,123.25,182.12,122.08,182.12,120.36z"/>
		</g>
	</g>
	<g>
		<g>
			<path class="st0" d="M191.87,123.13v2.1h-3.1v-18.69h3.1v7.43c1-1.41,2.41-2.54,4.61-2.54c3.18,0,6.27,2.51,6.27,7.02v0.05
				c0,4.48-3.07,7.02-6.27,7.02C194.23,125.51,192.82,124.38,191.87,123.13z M199.6,118.49v-0.05c0-2.61-1.77-4.33-3.87-4.33
				s-3.94,1.74-3.94,4.33v0.05c0,2.59,1.84,4.33,3.94,4.33C197.86,122.82,199.6,121.15,199.6,118.49z"/>
		</g>
	</g>
	<g>
		<g>
			<path class="st0" d="M214.68,111.71h3.23l-5.38,13.9c-1.08,2.77-2.28,3.79-4.46,3.79c-1.28,0-2.25-0.31-3.2-0.82l1.05-2.3
				c0.56,0.31,1.18,0.51,1.82,0.51c0.87,0,1.41-0.38,1.92-1.54l-5.63-13.54h3.33l3.82,10.04L214.68,111.71z"/>
		</g>
	</g>
	<g>
		<g>
			<path class="st0" d="M238.64,123.15c-1.54,1.43-3.33,2.33-5.48,2.33c-3.35,0-5.86-2.02-5.86-5.12v-0.05
				c0-2.3,1.36-3.97,3.81-5.02c-1.02-1.31-1.49-2.43-1.49-3.74v-0.05c0-2.41,1.95-4.51,5.15-4.51c2.84,0,4.76,1.92,4.76,4.33v0.05
				c0,2.36-1.56,3.76-3.94,4.66l3.07,3.12c0.69-1.02,1.33-2.2,1.92-3.46l2.38,1.25c-0.72,1.43-1.51,2.84-2.43,4.07l2.84,2.87
				l-2.36,1.69L238.64,123.15z M236.85,121.31l-3.99-4.07c-1.66,0.72-2.38,1.82-2.38,2.97v0.05c0,1.51,1.25,2.61,3,2.61
				C234.7,122.87,235.83,122.28,236.85,121.31z M236.75,111.55v-0.05c0-1.2-0.84-2.02-2.02-2.02c-1.28,0-2.15,0.9-2.15,2.15v0.05
				c0,0.9,0.36,1.56,1.36,2.66C235.78,113.68,236.75,112.83,236.75,111.55z"/>
		</g>
	</g>
	<g>
		<g>
			<path class="st0" d="M253,118.54v-0.05c0-3.84,2.97-7.07,7.04-7.07c2.54,0,4.12,0.95,5.4,2.33l-1.95,2.07
				c-0.95-1-1.95-1.69-3.48-1.69c-2.25,0-3.92,1.95-3.92,4.3v0.05c0,2.41,1.66,4.33,4.04,4.33c1.46,0,2.54-0.67,3.51-1.66l1.87,1.84
				c-1.33,1.49-2.89,2.54-5.53,2.54C255.97,125.53,253,122.38,253,118.54z"/>
		</g>
	</g>
	<g>
		<g>
			<path class="st0" d="M268.36,106.53h3.1v7.25c0.87-1.25,2.12-2.36,4.22-2.36c3.05,0,4.81,2.05,4.81,5.17v8.63h-3.1v-7.68
				c0-2.1-1.05-3.3-2.89-3.3c-1.79,0-3.05,1.25-3.05,3.35v7.63h-3.1V106.53z"/>
		</g>
	</g>
	<g>
		<g>
			<path class="st0" d="M284.29,106.69h3.33v2.94h-3.33V106.69z M284.41,111.71h3.1v13.52h-3.1V111.71z"/>
		</g>
	</g>
	<g>
		<g>
			<path class="st0" d="M291.74,106.53h3.1v18.69h-3.1V106.53z"/>
		</g>
	</g>
	<g>
		<g>
			<path class="st0" d="M298.19,118.49v-0.05c0-4.48,3.05-7.02,6.27-7.02c2.23,0,3.64,1.1,4.61,2.38v-7.27h3.1v18.69h-3.1v-2.25
				c-1,1.41-2.41,2.53-4.61,2.53C301.28,125.51,298.19,122.97,298.19,118.49z M309.12,118.49v-0.05c0-2.61-1.84-4.33-3.92-4.33
				c-2.13,0-3.89,1.64-3.89,4.33v0.05c0,2.61,1.79,4.33,3.89,4.33C307.28,122.82,309.12,121.08,309.12,118.49z"/>
		</g>
	</g>
	<g>
		<g>
			<path class="st0" d="M322.63,123.46l1.38-2.1c1.48,1.1,3.05,1.66,4.43,1.66c1.33,0,2.1-0.56,2.1-1.46v-0.05
				c0-1.05-1.43-1.41-3.02-1.89c-2-0.56-4.23-1.38-4.23-3.97v-0.05c0-2.56,2.13-4.12,4.81-4.12c1.69,0,3.53,0.59,4.97,1.54
				l-1.23,2.2c-1.3-0.79-2.69-1.28-3.81-1.28c-1.2,0-1.89,0.56-1.89,1.33v0.05c0,1,1.46,1.41,3.05,1.92c1.97,0.61,4.2,1.51,4.2,3.94
				v0.05c0,2.84-2.2,4.25-5.02,4.25C326.45,125.48,324.32,124.79,322.63,123.46z"/>
		</g>
	</g>
	<g>
		<g>
			<path class="st0" d="M336.61,106.69h3.33v2.94h-3.33V106.69z M336.74,111.71h3.1v13.52h-3.1V111.71z"/>
		</g>
	</g>
	<g>
		<g>
			<path class="st0" d="M344.52,121.49v-7.12h-1.71v-2.66h1.71v-3.71h3.1v3.71h3.63v2.66h-3.63V121c0,1.2,0.61,1.69,1.66,1.69
				c0.69,0,1.3-0.15,1.92-0.46v2.54c-0.77,0.44-1.61,0.69-2.79,0.69C346.13,125.46,344.52,124.46,344.52,121.49z"/>
		</g>
	</g>
	<g>
		<g>
			<path class="st0" d="M353.28,118.52v-0.05c0-3.87,2.74-7.04,6.61-7.04c4.3,0,6.48,3.38,6.48,7.27c0,0.28-0.03,0.56-0.05,0.87
				h-9.94c0.33,2.2,1.89,3.43,3.89,3.43c1.51,0,2.59-0.56,3.66-1.61l1.82,1.61c-1.28,1.54-3.05,2.54-5.53,2.54
				C356.3,125.53,353.28,122.69,353.28,118.52z M363.29,117.52c-0.21-2-1.38-3.56-3.43-3.56c-1.89,0-3.23,1.46-3.51,3.56H363.29z"/>
		</g>
	</g>
	<g>
		<g>
			<path class="st0" d="M377.21,106.69h3.33v2.94h-3.33V106.69z M377.34,111.71h3.1v13.52h-3.1V111.71z"/>
		</g>
	</g>
	<g>
		<g>
			<path class="st0" d="M384.48,111.71h3.1v2.07c0.87-1.25,2.12-2.36,4.22-2.36c3.05,0,4.81,2.05,4.81,5.17v8.63h-3.1v-7.68
				c0-2.1-1.05-3.3-2.89-3.3c-1.79,0-3.05,1.25-3.05,3.35v7.63h-3.1V111.71z"/>
		</g>
	</g>
	<g>
		<g>
			<path class="st0" d="M408.67,121.49v-7.12h-1.71v-2.66h1.71v-3.71h3.1v3.71h3.63v2.66h-3.63V121c0,1.2,0.61,1.69,1.66,1.69
				c0.69,0,1.3-0.15,1.92-0.46v2.54c-0.77,0.44-1.61,0.69-2.79,0.69C410.29,125.46,408.67,124.46,408.67,121.49z"/>
		</g>
	</g>
	<g>
		<g>
			<path class="st0" d="M418.56,106.53h3.1v7.25c0.87-1.25,2.12-2.36,4.22-2.36c3.05,0,4.81,2.05,4.81,5.17v8.63h-3.1v-7.68
				c0-2.1-1.05-3.3-2.89-3.3c-1.79,0-3.05,1.25-3.05,3.35v7.63h-3.1V106.53z"/>
		</g>
	</g>
	<g>
		<g>
			<path class="st0" d="M433.69,118.52v-0.05c0-3.87,2.74-7.04,6.61-7.04c4.3,0,6.48,3.38,6.48,7.27c0,0.28-0.03,0.56-0.05,0.87
				h-9.94c0.33,2.2,1.89,3.43,3.89,3.43c1.51,0,2.59-0.56,3.66-1.61l1.82,1.61c-1.28,1.54-3.05,2.54-5.53,2.54
				C436.71,125.53,433.69,122.69,433.69,118.52z M443.7,117.52c-0.21-2-1.38-3.56-3.43-3.56c-1.89,0-3.23,1.46-3.51,3.56H443.7z"/>
		</g>
	</g>
	<g>
		<g>
			<path class="st0" d="M457.93,107.3h3.35l5.46,8.47l5.45-8.47h3.35v17.92h-3.15v-12.85l-5.66,8.45h-0.1l-5.61-8.4v12.8h-3.1V107.3
				z"/>
		</g>
	</g>
	<g>
		<g>
			<path class="st0" d="M479.84,106.69h3.33v2.94h-3.33V106.69z M479.97,111.71h3.1v13.52h-3.1V111.71z"/>
		</g>
	</g>
	<g>
		<g>
			<path class="st0" d="M486.42,118.49v-0.05c0-4.48,3.05-7.02,6.27-7.02c2.23,0,3.63,1.1,4.61,2.38v-7.27h3.1v18.69h-3.1v-2.25
				c-1,1.41-2.41,2.53-4.61,2.53C489.52,125.51,486.42,122.97,486.42,118.49z M497.35,118.49v-0.05c0-2.61-1.84-4.33-3.92-4.33
				c-2.12,0-3.89,1.64-3.89,4.33v0.05c0,2.61,1.79,4.33,3.89,4.33C495.51,122.82,497.35,121.08,497.35,118.49z"/>
		</g>
	</g>
	<g>
		<g>
			<path class="st0" d="M503.6,118.49v-0.05c0-4.48,3.05-7.02,6.27-7.02c2.23,0,3.63,1.1,4.61,2.38v-7.27h3.1v18.69h-3.1v-2.25
				c-1,1.41-2.41,2.53-4.61,2.53C506.7,125.51,503.6,122.97,503.6,118.49z M514.53,118.49v-0.05c0-2.61-1.84-4.33-3.92-4.33
				c-2.12,0-3.89,1.64-3.89,4.33v0.05c0,2.61,1.79,4.33,3.89,4.33C512.69,122.82,514.53,121.08,514.53,118.49z"/>
		</g>
	</g>
	<g>
		<g>
			<path class="st0" d="M521.64,106.53h3.1v18.69h-3.1V106.53z"/>
		</g>
	</g>
	<g>
		<g>
			<path class="st0" d="M528.04,118.52v-0.05c0-3.87,2.74-7.04,6.61-7.04c4.3,0,6.48,3.38,6.48,7.27c0,0.28-0.03,0.56-0.05,0.87
				h-9.93c0.33,2.2,1.89,3.43,3.89,3.43c1.51,0,2.59-0.56,3.66-1.61l1.82,1.61c-1.28,1.54-3.05,2.54-5.53,2.54
				C531.07,125.53,528.04,122.69,528.04,118.52z M538.06,117.52c-0.21-2-1.38-3.56-3.43-3.56c-1.89,0-3.22,1.46-3.51,3.56H538.06z"
				/>
		</g>
	</g>
	<g>
		<g>
			<path class="st0" d="M552.29,107.3h13.29v2.82h-10.14v4.66h8.99v2.82h-8.99v4.81h10.27v2.82h-13.42V107.3z"/>
		</g>
	</g>
	<g>
		<g>
			<path class="st0" d="M568.19,121.33v-0.05c0-2.92,2.28-4.35,5.58-4.35c1.51,0,2.59,0.23,3.63,0.56v-0.33
				c0-1.92-1.18-2.94-3.35-2.94c-1.51,0-2.64,0.33-3.87,0.84l-0.82-2.43c1.48-0.67,2.94-1.1,5.1-1.1c2.02,0,3.53,0.54,4.48,1.51
				c1,0.97,1.46,2.41,1.46,4.17v8.01h-3.02v-1.69c-0.92,1.1-2.33,1.97-4.4,1.97C570.44,125.51,568.19,124.05,568.19,121.33z
				 M577.45,120.36v-0.92c-0.79-0.31-1.84-0.54-3.07-0.54c-2,0-3.17,0.84-3.17,2.25v0.05c0,1.31,1.15,2.05,2.64,2.05
				C575.89,123.25,577.45,122.08,577.45,120.36z"/>
		</g>
	</g>
	<g>
		<g>
			<path class="st0" d="M583.01,123.46l1.38-2.1c1.48,1.1,3.05,1.66,4.43,1.66c1.33,0,2.1-0.56,2.1-1.46v-0.05
				c0-1.05-1.43-1.41-3.02-1.89c-2-0.56-4.22-1.38-4.22-3.97v-0.05c0-2.56,2.12-4.12,4.81-4.12c1.69,0,3.53,0.59,4.97,1.54
				l-1.23,2.2c-1.3-0.79-2.69-1.28-3.81-1.28c-1.2,0-1.89,0.56-1.89,1.33v0.05c0,1,1.46,1.41,3.05,1.92c1.97,0.61,4.2,1.51,4.2,3.94
				v0.05c0,2.84-2.2,4.25-5.02,4.25C586.82,125.48,584.7,124.79,583.01,123.46z"/>
		</g>
	</g>
	<g>
		<g>
			<path class="st0" d="M597.32,121.49v-7.12h-1.72v-2.66h1.72v-3.71h3.1v3.71h3.64v2.66h-3.64V121c0,1.2,0.62,1.69,1.66,1.69
				c0.69,0,1.31-0.15,1.92-0.46v2.54c-0.77,0.44-1.61,0.69-2.79,0.69C598.93,125.46,597.32,124.46,597.32,121.49z"/>
		</g>
	</g>
</g>
</svg>
