<?xml version="1.0" encoding="utf-8"?>
<!-- Generator: Adobe Illustrator 25.2.1, SVG Export Plug-In . SVG Version: 6.00 Build 0)  -->
<svg version="1.1" id="Layer_1" xmlns="http://www.w3.org/2000/svg" xmlns:xlink="http://www.w3.org/1999/xlink" x="0px" y="0px"
	 viewBox="0 0 411 60.1" style="enable-background:new 0 0 411 60.1;" xml:space="preserve">
<style type="text/css">
	.st0{fill:#153E68;}
	.st1{fill:#C31F48;}
</style>
<g>
	<path class="st0" d="M7.8,9.9H11v5.5c2.1-3.2,5.1-6.2,11-6.2c5.8,0,9.3,3.1,11.1,6.7c2.1-3.5,5.7-6.7,11.9-6.7
		c7.8,0,12.7,5.2,12.7,12.9v18.7h-3.2V22.4c0-6.7-3.7-10.5-9.8-10.5c-5.6,0-10.4,4-10.4,10.9v18h-3.2V22.2c0-6.4-3.8-10.4-9.7-10.4
		C15.7,11.9,11,16.7,11,23v17.8H7.8V9.9z"/>
	<path class="st0" d="M64.1,28.8V9.9h3.2v18.4c0,6.4,3.8,10.5,10.5,10.5c6.5,0,11.5-4.6,11.5-11V9.9h3.2v30.9h-3.2V35
		c-2.2,3.6-5.9,6.5-11.9,6.5C69,41.5,64.1,36.2,64.1,28.8"/>
	<path class="st0" d="M100.6,9.9h3.2v5.5c2.1-3.2,5.1-6.2,11-6.2c5.8,0,9.3,3.1,11.1,6.7c2.1-3.5,5.7-6.7,11.9-6.7
		c7.8,0,12.7,5.2,12.7,12.9v18.7h-3.2V22.4c0-6.7-3.7-10.5-9.8-10.5c-5.6,0-10.4,4-10.4,10.9v18H124V22.2c0-6.4-3.8-10.4-9.7-10.4
		c-5.9,0-10.6,4.8-10.6,11.1v17.8h-3.2V9.9z"/>
	<polygon class="st0" points="155.1,39.1 179,12.5 156,12.5 156,9.9 183.7,9.9 183.7,11.6 159.9,38.1 183.7,38.1 183.7,40.8 
		155.1,40.8 	"/>
	<polygon class="st0" points="187.1,9.9 190.7,9.9 200.7,37 210.6,9.7 213.2,9.7 223.2,37 233.1,9.9 236.6,9.9 224.4,41 221.7,41 
		211.9,14.5 202,41 199.2,41 	"/>
	<path class="st0" d="M288,9.9h3.2v8.8c2.6-5.5,8.1-9.5,14.6-9.3v3.3h-0.3c-7.6,0-14.3,5.4-14.3,15.5v12.7H288V9.9z"/>
	<rect x="310.6" y="-3.5" class="st0" width="3.2" height="44.2"/>
	<path class="st0" d="M318.1,25.4v-0.1c0-10.1,8.1-16.2,16.1-16.2c6.6,0,10.9,3.5,13.6,7.4v-20h3.2v44.2h-3.2v-6.9
		c-2.9,4.1-7.1,7.6-13.6,7.6C326.2,41.5,318.1,35.5,318.1,25.4 M348,25.4v-0.1c0-7.9-6.6-13.3-13.5-13.3c-7.2,0-13,4.9-13,13.2v0.1
		c0,8.1,6,13.3,13,13.3C341.4,38.7,348,33.3,348,25.4"/>
	<path class="st1" d="M16.7,59.1H15l-0.4,2.2H13l0.4-2.2H11l-0.4,2.2H9l0.4-2.2H8.1v-1.4h1.6l0.4-2.4H8.6v-1.4h1.8l0.4-2.2h1.6
		l-0.4,2.2h2.4l0.4-2.2h1.6L16,53.7h1.3v1.4h-1.6l-0.4,2.4h1.5V59.1z M11.2,57.6h2.5l0.5-2.5h-2.5L11.2,57.6z"/>
	<polygon class="st1" points="20.5,53.2 18.6,53.7 18.3,52.3 21.1,51.5 22.3,51.5 22.3,61.3 20.5,61.3 	"/>
	<path class="st1" d="M29.4,53.9h1.8v1.1c0.5-0.7,1.2-1.3,2.4-1.3c1.1,0,1.9,0.5,2.3,1.3c0.6-0.8,1.5-1.3,2.6-1.3
		c1.7,0,2.8,1,2.8,2.8v4.7h-1.8v-4.2c0-1.2-0.6-1.8-1.6-1.8c-1,0-1.7,0.6-1.7,1.8v4.1h-1.8v-4.2c0-1.1-0.6-1.8-1.6-1.8
		c-1,0-1.7,0.7-1.7,1.8v4.1h-1.8V53.9z"/>
	<path class="st1" d="M43,57.7L43,57.7c0-2.1,1.8-3.9,4.2-3.9c2.4,0,4.2,1.7,4.2,3.8v0c0,2.1-1.8,3.8-4.2,3.8
		C44.8,61.5,43,59.7,43,57.7 M49.6,57.7L49.6,57.7c0-1.3-1-2.4-2.4-2.4c-1.4,0-2.4,1.1-2.4,2.3v0c0,1.3,1,2.4,2.4,2.4
		C48.7,60,49.6,58.9,49.6,57.7"/>
	<path class="st1" d="M53.6,59.3v-3.9h-1v-1.4h1v-2h1.8v2h2.1v1.4h-2.1V59c0,0.7,0.4,0.9,1,0.9c0.4,0,0.8-0.1,1.1-0.3V61
		c-0.4,0.2-0.9,0.4-1.6,0.4C54.5,61.4,53.6,60.9,53.6,59.3"/>
	<path class="st1" d="M59.3,51.1h1.8v3.9c0.5-0.7,1.2-1.3,2.5-1.3c1.8,0,2.8,1.1,2.8,2.8v4.7h-1.8v-4.2c0-1.1-0.6-1.8-1.7-1.8
		c-1,0-1.8,0.7-1.8,1.8v4.1h-1.8V51.1z"/>
	<path class="st1" d="M68.1,57.6L68.1,57.6c0-2.1,1.6-3.9,3.8-3.9c2.5,0,3.8,1.8,3.8,4c0,0.2,0,0.3,0,0.5h-5.8
		c0.2,1.2,1.1,1.9,2.3,1.9c0.9,0,1.5-0.3,2.1-0.9l1.1,0.9c-0.7,0.8-1.8,1.4-3.2,1.4C69.9,61.5,68.1,59.9,68.1,57.6 M73.9,57.1
		c-0.1-1.1-0.8-1.9-2-1.9c-1.1,0-1.9,0.8-2,1.9H73.9z"/>
	<path class="st1" d="M77.5,53.9h1.8v1.7c0.5-1.1,1.4-1.9,2.8-1.8v1.8H82c-1.6,0-2.7,1-2.7,2.9v2.8h-1.8V53.9z"/>
	<path class="st1" d="M81.7,62.6c0.9-0.2,1.3-0.6,1.3-1.3h-0.8v-1.9h2V61c0,1.5-0.8,2.2-2.3,2.3L81.7,62.6z"/>
	<path class="st1" d="M92.6,60.2v1.1h-1.8V51.1h1.8v4c0.6-0.8,1.4-1.4,2.7-1.4c1.8,0,3.6,1.4,3.6,3.8v0c0,2.4-1.8,3.8-3.6,3.8
		C94,61.4,93.1,60.8,92.6,60.2 M97.1,57.6L97.1,57.6c0-1.4-1-2.4-2.2-2.4c-1.2,0-2.3,0.9-2.3,2.3v0c0,1.4,1.1,2.4,2.3,2.4
		C96.1,60,97.1,59.1,97.1,57.6"/>
	<path class="st1" d="M100.3,59.2L100.3,59.2c0-1.6,1.3-2.4,3.2-2.4c0.9,0,1.5,0.1,2.1,0.3v-0.2c0-1-0.7-1.6-1.9-1.6
		c-0.9,0-1.5,0.2-2.2,0.5l-0.5-1.3c0.9-0.4,1.7-0.6,3-0.6c1.2,0,2,0.3,2.6,0.8c0.6,0.5,0.9,1.3,0.9,2.3v4.4h-1.8v-0.9
		c-0.5,0.6-1.4,1.1-2.6,1.1C101.6,61.4,100.3,60.7,100.3,59.2 M105.6,58.6v-0.5c-0.5-0.2-1.1-0.3-1.8-0.3c-1.2,0-1.8,0.5-1.8,1.2v0
		c0,0.7,0.7,1.1,1.5,1.1C104.7,60.2,105.6,59.6,105.6,58.6"/>
	<path class="st1" d="M111.3,60.2v1.1h-1.8V51.1h1.8v4c0.6-0.8,1.4-1.4,2.7-1.4c1.8,0,3.6,1.4,3.6,3.8v0c0,2.4-1.8,3.8-3.6,3.8
		C112.7,61.4,111.8,60.8,111.3,60.2 M115.8,57.6L115.8,57.6c0-1.4-1-2.4-2.2-2.4c-1.2,0-2.3,0.9-2.3,2.3v0c0,1.4,1.1,2.4,2.3,2.4
		C114.8,60,115.8,59.1,115.8,57.6"/>
	<path class="st1" d="M124.5,53.9h1.9l-3.1,7.6c-0.6,1.5-1.3,2.1-2.6,2.1c-0.7,0-1.3-0.2-1.9-0.4l0.6-1.3c0.3,0.2,0.7,0.3,1.1,0.3
		c0.5,0,0.8-0.2,1.1-0.8l-3.3-7.4h1.9l2.2,5.5L124.5,53.9z"/>
	<path class="st1" d="M138.4,60.2c-0.9,0.8-1.9,1.3-3.2,1.3c-1.9,0-3.4-1.1-3.4-2.8v0c0-1.3,0.8-2.2,2.2-2.7c-0.6-0.7-0.9-1.3-0.9-2
		v0c0-1.3,1.1-2.4,3-2.4c1.6,0,2.8,1,2.8,2.4v0c0,1.3-0.9,2-2.3,2.5l1.8,1.7c0.4-0.6,0.8-1.2,1.1-1.9l1.4,0.7
		c-0.4,0.8-0.9,1.5-1.4,2.2l1.6,1.6l-1.4,0.9L138.4,60.2z M137.4,59.2l-2.3-2.2c-1,0.4-1.4,1-1.4,1.6v0c0,0.8,0.7,1.4,1.7,1.4
		C136.2,60,136.8,59.7,137.4,59.2 M137.4,53.9L137.4,53.9c0-0.7-0.5-1.1-1.2-1.1c-0.7,0-1.2,0.5-1.2,1.2v0c0,0.5,0.2,0.9,0.8,1.4
		C136.8,55,137.4,54.6,137.4,53.9"/>
	<path class="st1" d="M146.8,57.7L146.8,57.7c0-2.1,1.7-3.9,4.1-3.9c1.5,0,2.4,0.5,3.1,1.3l-1.1,1.1c-0.6-0.5-1.1-0.9-2-0.9
		c-1.3,0-2.3,1.1-2.3,2.3v0c0,1.3,1,2.4,2.3,2.4c0.9,0,1.5-0.4,2-0.9l1.1,1c-0.8,0.8-1.7,1.4-3.2,1.4
		C148.5,61.5,146.8,59.7,146.8,57.7"/>
	<path class="st1" d="M155.7,51.1h1.8v3.9c0.5-0.7,1.2-1.3,2.5-1.3c1.8,0,2.8,1.1,2.8,2.8v4.7H161v-4.2c0-1.1-0.6-1.8-1.7-1.8
		c-1,0-1.8,0.7-1.8,1.8v4.1h-1.8V51.1z"/>
	<path class="st1" d="M164.9,51.2h1.9v1.6h-1.9V51.2z M165,53.9h1.8v7.3H165V53.9z"/>
	<rect x="169.3" y="51.1" class="st1" width="1.8" height="10.2"/>
	<path class="st1" d="M173,57.6L173,57.6c0-2.5,1.8-3.8,3.6-3.8c1.3,0,2.1,0.6,2.7,1.3v-4h1.8v10.2h-1.8v-1.2
		c-0.6,0.8-1.4,1.4-2.7,1.4C174.8,61.4,173,60.1,173,57.6 M179.4,57.6L179.4,57.6c0-1.4-1.1-2.4-2.3-2.4c-1.2,0-2.3,0.9-2.3,2.3v0
		c0,1.4,1,2.4,2.3,2.4C178.3,60,179.4,59,179.4,57.6"/>
	<path class="st1" d="M187.2,60.3l0.8-1.1c0.9,0.6,1.8,0.9,2.6,0.9c0.8,0,1.2-0.3,1.2-0.8v0c0-0.6-0.8-0.8-1.8-1
		c-1.2-0.3-2.5-0.8-2.5-2.2v0c0-1.4,1.2-2.2,2.8-2.2c1,0,2.1,0.3,2.9,0.8l-0.7,1.2c-0.8-0.4-1.6-0.7-2.2-0.7c-0.7,0-1.1,0.3-1.1,0.7
		v0c0,0.5,0.8,0.8,1.8,1c1.1,0.3,2.4,0.8,2.4,2.1v0c0,1.5-1.3,2.3-2.9,2.3C189.4,61.4,188.2,61.1,187.2,60.3"/>
	<path class="st1" d="M195.3,51.2h1.9v1.6h-1.9V51.2z M195.4,53.9h1.8v7.3h-1.8V53.9z"/>
	<path class="st1" d="M199.9,59.3v-3.9h-1v-1.4h1v-2h1.8v2h2.1v1.4h-2.1V59c0,0.7,0.4,0.9,1,0.9c0.4,0,0.8-0.1,1.1-0.3V61
		c-0.4,0.2-0.9,0.4-1.6,0.4C200.9,61.4,199.9,60.9,199.9,59.3"/>
	<path class="st1" d="M205,57.6L205,57.6c0-2.1,1.6-3.9,3.8-3.9c2.5,0,3.8,1.8,3.8,4c0,0.2,0,0.3,0,0.5h-5.8
		c0.2,1.2,1.1,1.9,2.3,1.9c0.9,0,1.5-0.3,2.1-0.9l1.1,0.9c-0.7,0.8-1.8,1.4-3.2,1.4C206.8,61.5,205,59.9,205,57.6 M210.8,57.1
		c-0.1-1.1-0.8-1.9-2-1.9c-1.1,0-1.9,0.8-2,1.9H210.8z"/>
	<path class="st1" d="M218.9,51.2h1.9v1.6h-1.9V51.2z M219,53.9h1.8v7.3H219V53.9z"/>
	<path class="st1" d="M223.1,53.9h1.8v1.1c0.5-0.7,1.2-1.3,2.5-1.3c1.8,0,2.8,1.1,2.8,2.8v4.7h-1.8v-4.2c0-1.1-0.6-1.8-1.7-1.8
		c-1,0-1.8,0.7-1.8,1.8v4.1h-1.8V53.9z"/>
	<path class="st1" d="M237.2,59.3v-3.9h-1v-1.4h1v-2h1.8v2h2.1v1.4H239V59c0,0.7,0.4,0.9,1,0.9c0.4,0,0.8-0.1,1.1-0.3V61
		c-0.4,0.2-0.9,0.4-1.6,0.4C238.1,61.4,237.2,60.9,237.2,59.3"/>
	<path class="st1" d="M242.9,51.1h1.8v3.9c0.5-0.7,1.2-1.3,2.5-1.3c1.8,0,2.8,1.1,2.8,2.8v4.7h-1.8v-4.2c0-1.1-0.6-1.8-1.7-1.8
		c-1,0-1.8,0.7-1.8,1.8v4.1h-1.8V51.1z"/>
	<path class="st1" d="M251.7,57.6L251.7,57.6c0-2.1,1.6-3.9,3.8-3.9c2.5,0,3.8,1.8,3.8,4c0,0.2,0,0.3,0,0.5h-5.8
		c0.2,1.2,1.1,1.9,2.3,1.9c0.9,0,1.5-0.3,2.1-0.9l1.1,0.9c-0.7,0.8-1.8,1.4-3.2,1.4C253.4,61.5,251.7,59.9,251.7,57.6 M257.5,57.1
		c-0.1-1.1-0.8-1.9-2-1.9c-1.1,0-1.9,0.8-2,1.9H257.5z"/>
	<polygon class="st1" points="265.8,51.6 267.7,51.6 270.9,56.2 274,51.6 276,51.6 276,61.3 274.2,61.3 274.2,54.3 270.9,58.9 
		270.8,58.9 267.6,54.3 267.6,61.3 265.8,61.3 	"/>
	<path class="st1" d="M278.5,51.2h1.9v1.6h-1.9V51.2z M278.6,53.9h1.8v7.3h-1.8V53.9z"/>
	<path class="st1" d="M282.3,57.6L282.3,57.6c0-2.5,1.8-3.8,3.6-3.8c1.3,0,2.1,0.6,2.7,1.3v-4h1.8v10.2h-1.8v-1.2
		c-0.6,0.8-1.4,1.4-2.7,1.4C284.1,61.4,282.3,60.1,282.3,57.6 M288.7,57.6L288.7,57.6c0-1.4-1.1-2.4-2.3-2.4c-1.2,0-2.3,0.9-2.3,2.3
		v0c0,1.4,1,2.4,2.3,2.4C287.6,60,288.7,59,288.7,57.6"/>
	<path class="st1" d="M292.3,57.6L292.3,57.6c0-2.5,1.8-3.8,3.6-3.8c1.3,0,2.1,0.6,2.7,1.3v-4h1.8v10.2h-1.8v-1.2
		c-0.6,0.8-1.4,1.4-2.7,1.4C294.1,61.4,292.3,60.1,292.3,57.6 M298.6,57.6L298.6,57.6c0-1.4-1.1-2.4-2.3-2.4c-1.2,0-2.3,0.9-2.3,2.3
		v0c0,1.4,1,2.4,2.3,2.4C297.6,60,298.6,59,298.6,57.6"/>
	<rect x="302.8" y="51.1" class="st1" width="1.8" height="10.2"/>
	<path class="st1" d="M306.5,57.6L306.5,57.6c0-2.1,1.6-3.9,3.8-3.9c2.5,0,3.8,1.8,3.8,4c0,0.2,0,0.3,0,0.5h-5.8
		c0.2,1.2,1.1,1.9,2.3,1.9c0.9,0,1.5-0.3,2.1-0.9l1.1,0.9c-0.7,0.8-1.8,1.4-3.2,1.4C308.2,61.5,306.5,59.9,306.5,57.6 M312.3,57.1
		c-0.1-1.1-0.8-1.9-2-1.9c-1.1,0-1.9,0.8-2,1.9H312.3z"/>
	<polygon class="st1" points="320.6,51.6 328.3,51.6 328.3,53.1 322.4,53.1 322.4,55.6 327.6,55.6 327.6,57.1 322.4,57.1 
		322.4,59.8 328.3,59.8 328.3,61.3 320.6,61.3 	"/>
	<path class="st1" d="M329.8,59.2L329.8,59.2c0-1.6,1.3-2.4,3.2-2.4c0.9,0,1.5,0.1,2.1,0.3v-0.2c0-1-0.7-1.6-1.9-1.6
		c-0.9,0-1.5,0.2-2.2,0.5l-0.5-1.3c0.9-0.4,1.7-0.6,3-0.6c1.2,0,2,0.3,2.6,0.8c0.6,0.5,0.9,1.3,0.9,2.3v4.4h-1.8v-0.9
		c-0.5,0.6-1.4,1.1-2.6,1.1C331.1,61.4,329.8,60.7,329.8,59.2 M335.2,58.6v-0.5c-0.5-0.2-1.1-0.3-1.8-0.3c-1.2,0-1.8,0.5-1.8,1.2v0
		c0,0.7,0.7,1.1,1.5,1.1C334.3,60.2,335.2,59.6,335.2,58.6"/>
	<path class="st1" d="M338.4,60.3l0.8-1.1c0.9,0.6,1.8,0.9,2.6,0.9c0.8,0,1.2-0.3,1.2-0.8v0c0-0.6-0.8-0.8-1.8-1
		c-1.2-0.3-2.5-0.8-2.5-2.2v0c0-1.4,1.2-2.2,2.8-2.2c1,0,2.1,0.3,2.9,0.8l-0.7,1.2c-0.8-0.4-1.6-0.7-2.2-0.7c-0.7,0-1.1,0.3-1.1,0.7
		v0c0,0.5,0.8,0.8,1.8,1c1.1,0.3,2.4,0.8,2.4,2.1v0c0,1.5-1.3,2.3-2.9,2.3C340.6,61.4,339.4,61.1,338.4,60.3"/>
	<path class="st1" d="M346.7,59.3v-3.9h-1v-1.4h1v-2h1.8v2h2.1v1.4h-2.1V59c0,0.7,0.4,0.9,1,0.9c0.4,0,0.8-0.1,1.1-0.3V61
		c-0.4,0.2-0.9,0.4-1.6,0.4C347.6,61.4,346.7,60.9,346.7,59.3"/>
	<rect x="355.7" y="38.1" class="st0" width="2.8" height="2.7"/>
	<path class="st0" d="M360.5,35.7L360.5,35.7c0-3,2.4-5.4,5.7-5.4c2.1,0,3.4,0.7,4.4,1.8l-1.6,1.6c-0.8-0.8-1.6-1.3-2.8-1.3
		c-1.8,0-3.2,1.5-3.2,3.3v0c0,1.8,1.4,3.3,3.3,3.3c1.2,0,2.1-0.5,2.9-1.3l1.5,1.4c-1.1,1.1-2.4,1.9-4.5,1.9
		C362.9,41.1,360.5,38.7,360.5,35.7"/>
	<path class="st0" d="M372.1,35.7L372.1,35.7c0-3,2.5-5.4,5.9-5.4c3.4,0,5.9,2.4,5.9,5.4v0c0,2.9-2.5,5.4-5.9,5.4
		C374.6,41.1,372.1,38.7,372.1,35.7 M381.3,35.7L381.3,35.7c0-1.9-1.4-3.4-3.4-3.4c-2,0-3.3,1.5-3.3,3.3v0c0,1.8,1.4,3.3,3.4,3.3
		C380,39,381.3,37.5,381.3,35.7"/>
	<path class="st0" d="M386.4,30.5h2.5v1.6c0.7-0.9,1.7-1.8,3.4-1.8c1.6,0,2.7,0.7,3.3,1.8c0.9-1.1,2-1.8,3.7-1.8
		c2.4,0,3.9,1.4,3.9,3.9v6.6h-2.5V35c0-1.6-0.8-2.5-2.2-2.5c-1.4,0-2.4,0.9-2.4,2.6v5.8h-2.5v-5.9c0-1.6-0.8-2.5-2.2-2.5
		c-1.4,0-2.4,1-2.4,2.6v5.8h-2.5V30.5z"/>
	<g>
		<path class="st1" d="M264.9,28"/>
	</g>
	<g>
		<g>
			<path class="st1" d="M250.3,10.2c-7,4.2-11,14.3-6.8,21.8c4.7,8.3,16.3,10.5,24.6,7.1c9.2-3.8,12.8-14.1,9.3-23.3
				c-1.7-4.6-6.4-9-10.9-10.8c-2.9-1.2-8.3-1.2-9.9,2.2c-1.9,3.9,4,6.8,6.9,7.4c5,1,10.4,0.2,15.3-0.7c1.6-0.3,1.2-1.8-0.4-1.5
				c-5.1,1-16.1,3.1-19-3c-1.1-2.3,1.1-3.6,3.2-3.4c2.6,0.3,5,2,6.9,3.7c3,2.6,5.3,5.7,6.1,9.7c1.7,7.9-1.5,16.1-9.5,18.8
				c-7.1,2.5-16.4-0.4-20.2-7.1c-3.7-6.7-0.4-16,6-19.8C253.5,10.3,251.2,9.7,250.3,10.2L250.3,10.2z"/>
		</g>
	</g>
	<g>
		<path class="st1" d="M256.7,23.3c0.8,0,1.5-0.6,1.5-1.4c0-0.9-0.5-1.4-1.4-1.4c-0.9,0-1.4,0.5-1.5,1.4
			C255.2,22.6,255.9,23.3,256.7,23.3z M266.5,21.9c0-0.8-0.6-1.5-1.4-1.5c-0.9,0-1.5,0.5-1.5,1.4c0,0.9,0.5,1.4,1.4,1.5
			C265.8,23.4,266.4,22.7,266.5,21.9z"/>
	</g>
	<g>
		<path class="st1" d="M261.3,33.5c-0.4,0-0.7,0-0.9,0c-7.1,0-11.3-7-11.5-7.3c-0.2-0.4-0.1-0.9,0.3-1.1c0.4-0.2,0.9-0.1,1.1,0.3
			c0,0.1,3.9,6.5,10.2,6.5l0.1,0c0.3,0,6.3,0.8,10.3-6.8c0.2-0.4,0.7-0.5,1.1-0.3c0.4,0.2,0.5,0.7,0.3,1.1
			C268.7,32.8,263.4,33.5,261.3,33.5z"/>
	</g>
</g>
</svg>
