<svg xmlns="http://www.w3.org/2000/svg" viewBox="0 0 231.12 95.82"><defs><style>.cls-1{fill:#0d73bb;}.cls-2{fill:#a2c843;}.cls-3{fill:#fbfcfc;}.cls-4{fill:#ec2227;}</style></defs><g id="Layer_2" data-name="Layer 2"><g id="Layer_1-2" data-name="Layer 1"><path class="cls-1" d="M17,72.36c-.48-.48-1.93-1.72-4.29-3.64a43.56,43.56,0,0,1-4.53-4,2.49,2.49,0,0,1-.56-1.53,1.86,1.86,0,0,1,.76-1.44,3,3,0,0,1,2-.64c1.69,0,3.33,1.08,4.93,3.29l4.58-3.93a16.72,16.72,0,0,0-4.78-4,10.41,10.41,0,0,0-4.65-1.08,9.16,9.16,0,0,0-6.37,2.36,7.4,7.4,0,0,0-2.61,5.65,8,8,0,0,0,1.57,4.57c1,1.53,3.32,3.69,6.89,6.54a24.07,24.07,0,0,1,3.61,3.29,3.45,3.45,0,0,1,.8,2.16A2.67,2.67,0,0,1,13.31,82a4,4,0,0,1-2.69.92c-2,0-3.84-1.41-5.41-4.21L0,81.75A13.53,13.53,0,0,0,4.41,87a10.8,10.8,0,0,0,6.05,1.64,10.3,10.3,0,0,0,7.22-2.52,8.4,8.4,0,0,0,2.77-6.46,8.59,8.59,0,0,0-.81-3.69A11.15,11.15,0,0,0,17,72.36"/><path class="cls-1" d="M118.39,79.62a10.16,10.16,0,0,1-7.5,3.09A10.66,10.66,0,0,1,104,80.3,10,10,0,0,1,100.11,72a10.57,10.57,0,0,1,3.08-7.77,10.3,10.3,0,0,1,7.62-3,10.69,10.69,0,0,1,10.75,10.78,10.86,10.86,0,0,1-3.17,7.7m4.33-19.48a16.44,16.44,0,0,0-11.91-4.85,17,17,0,0,0-8.5,2.24A16.55,16.55,0,0,0,98.7,83.67a17.34,17.34,0,0,0,24.1.12A15.77,15.77,0,0,0,127.69,72a16,16,0,0,0-5-11.9"/><path class="cls-1" d="M35.2,75.53l4.37-11.42L43.9,75.53Zm1.16-20.24L23.81,88.56h6.46l2.64-6.85H46.22l2.57,6.85h6.46L42.7,55.29Z"/><path class="cls-1" d="M75.65,61.14a13.71,13.71,0,0,1,10,4.53L90,61.62a18.91,18.91,0,0,0-14.23-6.37,18.33,18.33,0,0,0-8.86,2.24,15.69,15.69,0,0,0-8.54,14.35,16,16,0,0,0,4.85,12,17.16,17.16,0,0,0,12.43,4.69A19.07,19.07,0,0,0,83,87.24a22.61,22.61,0,0,0,6.81-4.77l-4.21-4.25a17.38,17.38,0,0,1-4.93,3.57,12.42,12.42,0,0,1-4.93,1,12,12,0,0,1-5.77-1.41,10,10,0,0,1-4-3.84,10.86,10.86,0,0,1-1.4-5.62,10.29,10.29,0,0,1,3.2-7.65,11.2,11.2,0,0,1,7.94-3.09"/><polygon class="cls-1" points="105.4 37.77 111.77 37.77 119.67 37.77 125.53 37.77 126.01 37.77 126.01 17.44 119.67 17.44 119.67 31.43 111.77 31.43 111.77 17.44 105.4 17.44 105.4 31.43 97.14 31.43 97.14 17.44 90.81 17.44 90.81 31.43 81.7 31.43 81.7 7.26 75.33 7.26 75.33 37.77 78.22 37.77 81.7 37.77 90.81 37.77 97.14 37.77 105.4 37.77"/><path class="cls-1" d="M16.64,34.92a6,6,0,0,1-4,1.84,5.75,5.75,0,0,1-4.29-1.32,5.23,5.23,0,0,1-2-3.73,5.06,5.06,0,0,1,1.45-4,5.82,5.82,0,0,1,4-1.88,5.69,5.69,0,0,1,4.29,1.36,5.23,5.23,0,0,1,2,3.69,5.14,5.14,0,0,1-1.48,4m45.3-17.24H48.87L55,7.62H48.35L40.69,19.08v4.25H59.78c6,0,5.53,8.78,0,8.78H24.21a6.88,6.88,0,0,0,.13-2.28,10.51,10.51,0,0,0-4.13-7.66A11.4,11.4,0,0,0,16.12,20a12.4,12.4,0,0,0-4.61-.49,12,12,0,0,0-7.3,3A10.9,10.9,0,0,0,.44,28.71a5.52,5.52,0,0,0-.12.8,6,6,0,0,0-.08.68v1.44A11,11,0,0,0,1,35a14.58,14.58,0,0,0,1.49,2.77,11.8,11.8,0,0,0,2.12,2.12,12.58,12.58,0,0,0,6.42,2.29h.16L9.62,45.3,8.78,47a2.12,2.12,0,0,0-.32.6l-.24.64-.16.48v.56l.08.92c0,.81.64,1.49,1.76,2a4.25,4.25,0,0,0,2.13.52l.6-.12a8.11,8.11,0,0,0,1.88-1l.28-.24.4-.56.37-.57,1-2,1.2-2.29,4.05-8.13h41c9.22-1.37,9.06-20-.92-20"/><path class="cls-1" d="M183.22,0a47.91,47.91,0,1,1-47.91,47.91A47.9,47.9,0,0,1,183.22,0"/><path class="cls-2" d="M183.22,9.46a38.45,38.45,0,1,1-38.45,38.45A38.45,38.45,0,0,1,183.22,9.46"/><polygon class="cls-3" points="164.01 39.21 178.49 25.5 182.81 21.45 187.14 25.5 201.62 39.21 203.62 41.09 203.62 43.78 203.62 63.02 203.62 69.32 197.29 69.32 168.34 69.32 162.01 69.32 162.01 63.02 162.01 43.78 162.01 41.09 164.01 39.21"/><polygon class="cls-4" points="168.34 43.78 182.81 30.11 197.29 43.78 197.29 62.98 168.34 62.98 168.34 43.78"/></g></g></svg>