<svg xmlns="http://www.w3.org/2000/svg" viewBox="0 0 236.36 66.51"><defs><style>.cls-1{fill:#fff;}.cls-2{fill:#0d61ae;}.cls-3{fill:#f48220;}.cls-4{fill:#74be44;}.cls-5{fill:#eb1a5b;}</style></defs><g id="Layer_2" data-name="Layer 2"><g id="Layer_1-2" data-name="Layer 1"><path class="cls-1" d="M234.45,34.7a18.72,18.72,0,0,0-4.36-4.59,6.79,6.79,0,0,0,1.65-1.17c2.52-2.4,3.79-6.42,1.56-9-6.14-7.14-16.48-8.06-22.54-4.82a16.78,16.78,0,0,0-5.89,4.94,5.64,5.64,0,0,0-5.1-3.36,34,34,0,0,0-3.63.15,5.79,5.79,0,0,0-5.33,5.37,5.29,5.29,0,0,0-2.26-2.28,37,37,0,0,0-3.69-1.49l-1.48-.55.05,0a6.19,6.19,0,0,0-8,2.54,34.77,34.77,0,0,0-3.6,7.45c.48-6.55.57-11.34.58-11.8,0,.05,0,.11,0,.16.29-4.64-1.37-7.46-5.75-9.71-14.44-7.44-28-7.56-35.94-5.19A22.34,22.34,0,0,0,115,18.7c-6.86-3.9-13.17-3.49-17.51-1.42a4.47,4.47,0,0,0-.76-3,5.47,5.47,0,0,0-4.39-2c-2.53-.13-4.77-.13-5.89-.12l-.51,0a5.62,5.62,0,0,0-5.7,2.72.25.25,0,0,0,0,.07c-1.31,2.47-2.82,5.23-4,7.21l-5.59-7.29-.12-.14-.07-.08c-1.61-1.91-3.61-2.3-6.31-1.23-1.88.75-4.56,1.91-6.35,2.82a5.18,5.18,0,0,0-3,3.21,4.41,4.41,0,0,0-.12,1.38,18.35,18.35,0,0,0-5.19-1.54,18.76,18.76,0,0,0-8.46.72,23.25,23.25,0,0,0-1.29-6.74l-.07-.16c-1.2-2.75-3.42-3.87-6.59-3.33-11,1.87-15,2.09-27.1,2.19C1.68,12,.59,14.7.32,15.85A62,62,0,0,0,.18,26.91c.69,4.6,4.91,4.51,6.3,4.48,2.07,0,3.52-.13,4.69-.2l.54,0A138.85,138.85,0,0,0,15,51.79l0,.08c1.29,5.39,5.59,4.89,6.88,4.61,1.53-.33,6.85-1.82,8.85-2.59a4.74,4.74,0,0,0,3.08-4.4c0-.15,0-.31,0-.47a17.1,17.1,0,0,0,3.73,2.88,17.93,17.93,0,0,0,13.58,1.76A22.32,22.32,0,0,0,58.53,50a9.52,9.52,0,0,0,1.28,1.9c.83,1,5.22,6,9.61,6.6a5.47,5.47,0,0,0,3.36-.48l.1-.05c3.22-1.37,7.76-6.94,13.5-16.55l.72-1.22a8.84,8.84,0,0,0-.56,2.16,5.48,5.48,0,0,0,2,5.05l.34.31a23.29,23.29,0,0,0,15.63,6.71,18.7,18.7,0,0,0,6.76-1A6.4,6.4,0,0,0,113,57.6l0,.07c.52.58,5.17,5.71,9.1,7.43,5.22,2.29,7.63,1.89,11.75-2,1.9-1.78,5.35-6.11,9.6-13.1-.22,2.16-.53,5.25-.63,6.06-.33,2.43-.5,5,1.18,6.9,1.53,1.78,3.81,2,5.39,2h.22c.3,0,7.51-.41,10.16-.79,4.56-.62,5.74-2.1,6.79-5.4l.23-.74A91.4,91.4,0,0,0,170.08,44a14,14,0,0,0,6.33,8.69c4.93,3,11.21,2.79,16.81-.52a20.19,20.19,0,0,0,5.94-5.4c.15.26.31.5.46.71l.13.18c1.88,2.76,7.94,8.17,17.43,8.88,3.35.25,9.62,0,14.11-4.12A16.37,16.37,0,0,0,236.08,44,12.43,12.43,0,0,0,234.45,34.7ZM135.74,17.51h0Z"/><path class="cls-2" d="M165.18,9.52c-12.86-6.63-25.56-7.33-33.46-5-14.61,4.37-19.13,22.93-5.6,32,.81.55.3,1.71-.73,3.55-1.26,2.31-3.62,6.83-7.78,10.1-2.5,2-4.12,2.78-2.06,5.21,0,0,4.57,5.12,8,6.61,4.07,1.78,5.09,1.48,8.12-1.36,1.91-1.78,5.69-6.66,10.25-14.43,2.36-4,5.52-4.11,5.1,2.53,0,0-.63,6.4-.8,7.72-.51,3.81-.11,5.13,3.3,5.16,0,0,7.34-.4,9.89-.76,3.58-.49,3.38-1.07,4.32-3.89,5-15.08,5.44-41,5.44-41,.22-3.47-.88-5-3.95-6.54m-9.39,14s-4.56,3.12-4.67,3.21a2.29,2.29,0,0,0-1,2.1c0,.61-.2,4.85-.21,5.39s-.27,2.19-2.12.56l-3.56-3.12a2.47,2.47,0,0,0-2.83-.58L136.55,33s-2.92,1.19-1.83-1.43,1.76-4.68,2-5.36a2.58,2.58,0,0,0-.43-2.42c-.27-.32-2.6-3.41-3.13-4.17,0,0-1.92-2.28,1.27-2.12l5.54.13a2,2,0,0,0,1.84-1.07c.9-1.41,3.53-4.71,3-4,.46-.58,1.52-2,2.23.37,0,0,1,3.14,1.48,4.47a2.64,2.64,0,0,0,2.15,2l5,1.81s2.34.73.13,2.28"/><path class="cls-3" d="M59.62,29.59a14.45,14.45,0,0,0-10.53-7A14.86,14.86,0,0,0,34.7,28.66,13.75,13.75,0,0,0,32.6,40,14.23,14.23,0,0,0,50.21,50.47c6.63-2,10.34-5.84,11.35-11.85a13.62,13.62,0,0,0-1.94-9M43.47,42.51c-1.85-.63-3.24-3.58-2.57-6.8s2.93-5.44,5-4.77c1.86.6,3.23,3.73,2.59,7-.69,3.41-2.92,5.32-5.05,4.61"/><path class="cls-4" d="M178.27,22.28A35.34,35.34,0,0,0,173,39.43a11.16,11.16,0,0,0,5.18,10.39C182,52.16,187,52,191.52,49.29c9.73-5.75,10.81-20.24,10.54-26.78A2.37,2.37,0,0,0,199.63,20a28.9,28.9,0,0,0-3.2.14,2.51,2.51,0,0,0-2.33,2.7v.43c-.06,6.07-.48,11.45-3.11,14.78-1.74,2.18-3.8,3.05-5.16,2.49a3.64,3.64,0,0,1-1.8-3.8,26.78,26.78,0,0,1,3.3-9.5l.46-.9a2.56,2.56,0,0,0-.78-3.48c-.64-.34-2.05-.85-3.29-1.31l-1.5-.56A2.92,2.92,0,0,0,178.27,22.28Z"/><path class="cls-5" d="M212.33,18.06c-4.22,2.25-6.39,5.33-6.83,9.69-.61,5.89,7.4,10,9.3,11,2.29,1.25,2.38,2.69,1.78,3.54-.93,1.34-3.53,1-5.45.2-2.1-.84-3.17-1.84-4.9-3.86-1-1.17-4.1,2.2-4.59,4.56-.22,1.08.2,1.58.86,2.55,1.68,2.46,7.09,6.84,14.93,7.43,2.16.16,7.79.3,11.59-3.23a12.92,12.92,0,0,0,3.79-6.62,9,9,0,0,0-1.15-6.83c-2.14-3.27-5.69-5.45-9.64-7.31-5.77-2.71-4.65-4.31-3.37-5.06S224,24,227.18,27c1.63,1.55,5-3.25,3.6-4.89C225.64,16.14,216.93,15.59,212.33,18.06Z"/><path class="cls-4" d="M93.85,18.47C90.64,28.87,76.93,52.67,71.58,55a2.4,2.4,0,0,1-1.7.3c-2.84-.4-6.38-4.09-7.52-5.45-.51-.61-1.6-2-.72-2.72,3.34-2.76,7.49-7,7.69-9.44A2.3,2.3,0,0,0,69,36.27c-.31-.44-9-12.29-9.87-13.56-1.48-2.15-1.47-2.66.17-3.49s4.24-2,6.07-2.69,2.11-.22,2.62.38L75.8,27.05a1,1,0,0,0,1.48-.21c1-1.21,5.2-9.07,5.86-10.31s2-1,3.34-1,3.48,0,5.69.12S94.5,16.37,93.85,18.47Z"/><path class="cls-5" d="M97.75,20.94c-3.51,2.26-5.18,5.09-5.26,8.91-.11,5.16,6.8,8.58,8.53,9.35,2.08.92,2.37,2,2,2.87-.55,1.24-1.79,1.47-3.24,1.16-2.64-.56-4.7-2.95-6.78-4.15-1.17-.67-2.9,1.64-3.16,3.73A2.19,2.19,0,0,0,90.77,45a20.29,20.29,0,0,0,13.9,6.18c1.88.09,6.79-.29,9.84-3.63a10.1,10.1,0,0,0,2.84-5.63A9,9,0,0,0,115.87,36c-1.1-1.71-3.1-3.42-6.6-4.92-5.68-2.43-3.88-4.86-2.54-5.32,1.15-.39,3.18-.09,6.54,2,1.82,1.13,4.24-3.33,2.73-4.45C108.46,17.71,101.58,18.48,97.75,20.94Z"/><path class="cls-5" d="M6.07,15.31C18.4,15.2,22.57,15,33.7,13.07c2.5-.43,2.71.86,3.11,1.69a22.59,22.59,0,0,1,1,5.21c-.05.92.39,2.26-1.11,2.69-4.68,1.36-5.91,1.77-9,2.74-1.43.44-1.34,1.06-1.31,2.2.23,6.31,2.25,14.64,3.69,19.3.6,2,.87,3.37-.45,3.88-1.84.71-7,2.15-8.36,2.45-2.38.51-2.73-1.3-2.95-2.22A136.7,136.7,0,0,1,15,30.88c-.09-1.63-.61-3.14-2.09-3.11s-3.22.22-6.53.29c-1.77,0-2.7-.07-2.94-1.65a65,65,0,0,1,.09-9.81C3.82,15.49,5.08,15.32,6.07,15.31Z"/></g></g></svg>