<?xml version="1.0" encoding="utf-8"?>
<!-- Generator: Adobe Illustrator 25.3.1, SVG Export Plug-In . SVG Version: 6.00 Build 0)  -->
<svg version="1.1" id="Layer_1" xmlns="http://www.w3.org/2000/svg" xmlns:xlink="http://www.w3.org/1999/xlink" x="0px" y="0px"
	 viewBox="0 0 1500 1500" style="enable-background:new 0 0 1500 1500;" xml:space="preserve">
<style type="text/css">
	.st0{fill:#FF18B0;}
	.st1{fill:none;stroke:#000000;stroke-width:9;stroke-miterlimit:10;}
	.st2{fill:#A533FF;}
	.st3{fill:#FFED00;}
	.st4{fill:#30B539;}
	.st5{fill:#18A8F0;}
	.st6{fill:#DD0000;}
</style>
<g>
	<path class="st0" d="M1098.51,998.07c12.96,14.95,24.61,28.42,36.29,41.86c20.86,24.06,41.92,47.95,62.52,72.24
		c1.98,2.33,3.71,4.76,4.64,7.73c0.62,1.97,0.75,4.17-0.07,6.06c-2.45,5.69-10.22,4.85-15.2,5.09c-4.29,0.21-8.58,0.43-12.87,0.43
		c-8.06,0-16.11,0-24.17,0c-16.13,0-32.25,0.01-48.38,0c-32.24-0.01-64.49-0.07-96.74-0.23c-2.74-0.02-5.47-0.03-8.21-0.05
		c-9.96-0.06-19.92,0.49-29.88,0.28c-16.55-0.36-27.07-10.99-26.97-27.51c0.38-66.4,1.03-132.8,1.65-199.21
		c0.28-29.62,0.8-59.23,1.09-88.85c0.2-20.47,9.37-31.7,29.67-32.08c39.04-0.74,78.11-0.51,117.15,0.23
		c12.63,0.24,25.6,1.93,37.74,5.38c36.61,10.38,65.88,30.92,80.37,67.36c14.23,35.81,6.95,68.66-18.28,97.56
		c-21.54,24.67-49.47,37.04-81.3,41.76C1105.14,996.48,1102.75,997.15,1098.51,998.07"/>
	<path class="st1" d="M1098.51,998.07c12.96,14.95,24.61,28.42,36.29,41.86c20.86,24.06,41.92,47.95,62.52,72.24
		c1.98,2.33,3.71,4.76,4.64,7.73c0.62,1.97,0.75,4.17-0.07,6.06c-2.45,5.69-10.22,4.85-15.2,5.09c-4.29,0.21-8.58,0.43-12.87,0.43
		c-8.06,0-16.11,0-24.17,0c-16.13,0-32.25,0.01-48.38,0c-32.24-0.01-64.49-0.07-96.74-0.23c-2.74-0.02-5.47-0.03-8.21-0.05
		c-9.96-0.06-19.92,0.49-29.88,0.28c-16.55-0.36-27.07-10.99-26.97-27.51c0.38-66.4,1.03-132.8,1.65-199.21
		c0.28-29.62,0.8-59.23,1.09-88.85c0.2-20.47,9.37-31.7,29.67-32.08c39.04-0.74,78.11-0.51,117.15,0.23
		c12.63,0.24,25.6,1.93,37.74,5.38c36.61,10.38,65.88,30.92,80.37,67.36c14.23,35.81,6.95,68.66-18.28,97.56
		c-21.54,24.67-49.47,37.04-81.3,41.76C1105.14,996.48,1102.75,997.15,1098.51,998.07z"/>
	<path class="st2" d="M600.01,957.72c0.01-42.23,0.01-84.46,0.01-126.69c0-28.73,18.69-47.62,47.19-47.62
		c70.81-0.01,141.62-0.1,212.43,0.05c33.21,0.07,54.52,29.88,44.04,61.17c-6.03,18.01-23.74,30.48-43.97,30.52
		c-52.27,0.1-104.54,0.04-156.81,0.05c-11.02,0-11.03,0.02-11.05,11.11c-0.01,5.15,0.32,10.33-0.1,15.44
		c-0.56,6.83,2.31,9,8.94,8.93c24.46-0.26,48.92-0.3,73.38-0.04c12.8,0.14,25.69-0.06,37.42,6.95
		c17.17,10.25,24.62,27.78,20.84,50.55c-2.65,15.95-17.76,30.6-35.17,33.68c-5.29,0.93-10.74,1.35-16.11,1.38
		c-26.52,0.14-53.04,0.27-79.56-0.04c-7.45-0.09-10.32,2.56-9.73,9.9c0.41,5.12,0.08,10.29,0.09,15.44
		c0.02,10.04,0.03,10.09,10.52,10.09c44.29,0.02,88.58,0.01,132.87,0.01c8.5,0,17-0.19,25.49,0.07
		c24.38,0.74,44.22,19.57,45.54,42.98c1.4,24.89-15.71,45.36-40.82,48.73c-4.07,0.55-8.2,0.95-12.3,0.96
		c-67.72,0.06-135.44,0.03-203.16,0.06c-22.69,0.01-39.15-9.63-47.42-31.19c-1.87-4.88-2.44-10.51-2.46-15.8
		C599.91,1042.18,600,999.95,600.01,957.72"/>
	<path class="st1" d="M600.01,957.72c0.01-42.23,0.01-84.46,0.01-126.69c0-28.73,18.69-47.62,47.19-47.62
		c70.81-0.01,141.62-0.1,212.43,0.05c33.21,0.07,54.52,29.88,44.04,61.17c-6.03,18.01-23.74,30.48-43.97,30.52
		c-52.27,0.1-104.54,0.04-156.81,0.05c-11.02,0-11.03,0.02-11.05,11.11c-0.01,5.15,0.32,10.33-0.1,15.44
		c-0.56,6.83,2.31,9,8.94,8.93c24.46-0.26,48.92-0.3,73.38-0.04c12.8,0.14,25.69-0.06,37.42,6.95
		c17.17,10.25,24.62,27.78,20.84,50.55c-2.65,15.95-17.76,30.6-35.17,33.68c-5.29,0.93-10.74,1.35-16.11,1.38
		c-26.52,0.14-53.04,0.27-79.56-0.04c-7.45-0.09-10.32,2.56-9.73,9.9c0.41,5.12,0.08,10.29,0.09,15.44
		c0.02,10.04,0.03,10.09,10.52,10.09c44.29,0.02,88.58,0.01,132.87,0.01c8.5,0,17-0.19,25.49,0.07
		c24.38,0.74,44.22,19.57,45.54,42.98c1.4,24.89-15.71,45.36-40.82,48.73c-4.07,0.55-8.2,0.95-12.3,0.96
		c-67.72,0.06-135.44,0.03-203.16,0.06c-22.69,0.01-39.15-9.63-47.42-31.19c-1.87-4.88-2.44-10.51-2.46-15.8
		C599.91,1042.18,600,999.95,600.01,957.72z"/>
	<path class="st3" d="M913.49,540.32c1.93,96.73-78.08,172.06-171.31,171.9c-93.14-0.16-171.55-75.03-171.13-173.31
		c0.4-94.63,77.71-171.19,172.08-170.91C835.61,368.28,916.07,444.59,913.49,540.32"/>
	<path class="st1" d="M913.49,540.32c1.93,96.73-78.08,172.06-171.31,171.9c-93.14-0.16-171.55-75.03-171.13-173.31
		c0.4-94.63,77.71-171.19,172.08-170.91C835.61,368.28,916.07,444.59,913.49,540.32z"/>
	<path class="st4" d="M434.87,874.18c-4.93,0-7.87,0-10.82,0c-34.51-0.02-69.01,0.28-103.51-0.14
		c-31.59-0.39-53.11-33.16-40.9-62.17c7.72-18.34,22.58-27.93,42.06-28.07c66.74-0.47,133.49-0.63,200.23,0
		c32.66,0.31,50.94,25.1,46.26,58.63c-2.07,14.82-10.45,25.36-19.63,35.66c-26.29,29.48-52.9,58.68-79.36,88.01
		c-19.72,21.86-39.41,43.75-59.08,65.66c-1.91,2.13-3.57,4.48-6.53,8.22c4.82,0.25,7.7,0.54,10.58,0.54
		c34.76,0.03,69.52-0.15,104.27,0.1c13.23,0.1,25.99,2.01,36.11,12.29c13.78,14.01,17.68,30.38,11.4,48.57
		c-6.28,18.19-23.47,29.57-43.26,29.62c-54.4,0.14-108.81,0.05-163.21,0.05c-12.59,0-25.28,0.95-37.75-0.3
		c-11.08-1.11-22.75-2.9-32.69-7.54c-17.87-8.33-22.62-24.96-22.2-43.57c0.27-11.69,4.97-21.08,12.75-29.7
		c28.99-32.13,57.63-64.59,86.43-96.89c20.08-22.52,40.23-44.97,60.27-67.52C428.93,882.64,431.1,879.24,434.87,874.18"/>
	<path class="st1" d="M434.87,874.18c-4.93,0-7.87,0-10.82,0c-34.51-0.02-69.01,0.28-103.51-0.14
		c-31.59-0.39-53.11-33.16-40.9-62.17c7.72-18.34,22.58-27.93,42.06-28.07c66.74-0.47,133.49-0.63,200.23,0
		c32.66,0.31,50.94,25.1,46.26,58.63c-2.07,14.82-10.45,25.36-19.63,35.66c-26.29,29.48-52.9,58.68-79.36,88.01
		c-19.72,21.86-39.41,43.75-59.08,65.66c-1.91,2.13-3.57,4.48-6.53,8.22c4.82,0.25,7.7,0.54,10.58,0.54
		c34.76,0.03,69.52-0.15,104.27,0.1c13.23,0.1,25.99,2.01,36.11,12.29c13.78,14.01,17.68,30.38,11.4,48.57
		c-6.28,18.19-23.47,29.57-43.26,29.62c-54.4,0.14-108.81,0.05-163.21,0.05c-12.59,0-25.28,0.95-37.75-0.3
		c-11.08-1.11-22.75-2.9-32.69-7.54c-17.87-8.33-22.62-24.96-22.2-43.57c0.27-11.69,4.97-21.08,12.75-29.7
		c28.99-32.13,57.63-64.59,86.43-96.89c20.08-22.52,40.23-44.97,60.27-67.52C428.93,882.64,431.1,879.24,434.87,874.18z"/>
	<path class="st5" d="M1033.29,616.3c-0.01-18.23,0.21-36.48-0.19-54.7c-0.08-3.67-1.57-8.16-4.01-10.8
		c-31.15-33.59-62.49-66.99-94-100.24c-12.32-13-20.82-27.01-14.78-45.69c6.19-19.16,20.38-29.84,39.16-34.48
		c8.5-2.1,17.51-2.94,26.29-2.98c58-0.25,116-0.2,173.99-0.06c9.34,0.02,18.74,0.45,28.01,1.58c16.09,1.96,29.31,9.7,39.04,22.61
		c13,17.26,11.37,37.6-4.37,54.72c-16.96,18.44-34.34,36.49-51.51,54.74c-15.26,16.22-30.72,32.26-45.54,48.87
		c-2.99,3.35-4.93,8.87-4.99,13.42c-0.41,35.96-0.08,71.93-0.34,107.89c-0.12,16.37-8.23,28.98-22.28,36.38
		c-14.98,7.89-30.9,8.02-45.39-1.99c-12.67-8.76-19.19-21.17-19.1-36.85C1033.37,651.25,1033.29,633.78,1033.29,616.3"/>
	<path class="st1" d="M1033.29,616.3c-0.01-18.23,0.21-36.48-0.19-54.7c-0.08-3.67-1.57-8.16-4.01-10.8
		c-31.15-33.59-62.49-66.99-94-100.24c-12.32-13-20.82-27.01-14.78-45.69c6.19-19.16,20.38-29.84,39.16-34.48
		c8.5-2.1,17.51-2.94,26.29-2.98c58-0.25,116-0.2,173.99-0.06c9.34,0.02,18.74,0.45,28.01,1.58c16.09,1.96,29.31,9.7,39.04,22.61
		c13,17.26,11.37,37.6-4.37,54.72c-16.96,18.44-34.34,36.49-51.51,54.74c-15.26,16.22-30.72,32.26-45.54,48.87
		c-2.99,3.35-4.93,8.87-4.99,13.42c-0.41,35.96-0.08,71.93-0.34,107.89c-0.12,16.37-8.23,28.98-22.28,36.38
		c-14.98,7.89-30.9,8.02-45.39-1.99c-12.67-8.76-19.19-21.17-19.1-36.85C1033.37,651.25,1033.29,633.78,1033.29,616.3z"/>
	<path class="st6" d="M418.79,367.18c34.96,0,69.93-0.1,104.9,0.04c21.59,0.09,38.4,12.16,44.51,31.48
		c8.68,27.43-11.97,55.95-41.38,56.68c-17.22,0.42-34.46,0.07-51.69,0.13c-9.52,0.03-9.87,0.36-9.88,9.86
		c-0.02,66.38,0,132.77-0.02,199.15c-0.01,13.02-2.72,25.16-12.11,34.97c-12.75,13.33-31.16,17.51-48.03,10.88
		c-17.53-6.89-28.03-22.02-28.06-41.26c-0.1-61.57-0.04-123.14-0.04-184.71c0-6.84-0.27-13.7,0.07-20.52
		c0.31-6.21-2.07-8.55-8.37-8.48c-19.51,0.22-39.03,0.38-58.52-0.14c-26.33-0.71-45.25-22.69-42.63-48.76
		c2.29-22.76,20.52-38.87,45.6-39.15c35.21-0.4,70.43-0.1,105.65-0.1V367.18z"/>
	<path class="st1" d="M418.79,367.18c34.96,0,69.93-0.1,104.9,0.04c21.59,0.09,38.4,12.16,44.51,31.48
		c8.68,27.43-11.97,55.95-41.38,56.68c-17.22,0.42-34.46,0.07-51.69,0.13c-9.52,0.03-9.87,0.36-9.88,9.86
		c-0.02,66.38,0,132.77-0.02,199.15c-0.01,13.02-2.72,25.16-12.11,34.97c-12.75,13.33-31.16,17.51-48.03,10.88
		c-17.53-6.89-28.03-22.02-28.06-41.26c-0.1-61.57-0.04-123.14-0.04-184.71c0-6.84-0.27-13.7,0.07-20.52
		c0.31-6.21-2.07-8.55-8.37-8.48c-19.51,0.22-39.03,0.38-58.52-0.14c-26.33-0.71-45.25-22.69-42.63-48.76
		c2.29-22.76,20.52-38.87,45.6-39.15c35.21-0.4,70.43-0.1,105.65-0.1V367.18z"/>
</g>
</svg>
