<svg xmlns="http://www.w3.org/2000/svg" viewBox="0 0 239.16 58.03"><defs><style>.cls-1{fill:#efeced;}.cls-2{fill:#1b8794;}.cls-3{fill:#2b2e76;}.cls-4{fill:#e66126;}.cls-5{fill:#77be44;}.cls-6{fill:#ef7cae;}.cls-7{fill:#c7243b;}.cls-8{fill:#e2247e;}.cls-9{fill:#faed2a;}.cls-10{fill:#a3cd3b;}.cls-11{fill:#deaab4;}.cls-12{fill:#e6e417;}.cls-13{fill:#3bc3df;}.cls-14{fill:#c84d9c;}</style></defs><g id="Layer_2" data-name="Layer 2"><g id="Layer_1-2" data-name="Layer 1"><path class="cls-1" d="M141.52,51.94a32,32,0,0,1-2.46,3.83,4,4,0,0,1-1.94,1.51,2.15,2.15,0,0,1-3.05-1.65,12,12,0,0,1-.48-3.26c0-.24.08-.57-.28-.65s-.49.2-.58.45a12.78,12.78,0,0,1-2.15,3.32,5.21,5.21,0,0,1-5.32,1.77,2.49,2.49,0,0,1-1.8-1.43,1.15,1.15,0,0,0-1.25-.73,7.65,7.65,0,0,1-2.82-.13c-.36-.13-.65.09-.89.37A9.2,9.2,0,0,1,116.33,57a3.22,3.22,0,0,1-2.74.34,2.26,2.26,0,0,1-1.68-2,7.77,7.77,0,0,1,.1-2.15c0-.18,0-.4-.17-.51s-.42.06-.56.24a12.68,12.68,0,0,1-3,2.63,4,4,0,0,1-1,.58c-2.67.92-5.37,1.78-8.24,1.29a9.29,9.29,0,0,1-3-1,3.52,3.52,0,0,1-1.56-2.53c-.06-.35.11-.86-.39-.95s-.69.31-.91.6c-1.59,2.06-3.87,3-6.22,3.78A8.7,8.7,0,0,1,80.83,57a4.62,4.62,0,0,1-3-3.63c-.11-.71-.18-1.43-.3-2.14-.08-.47-.34-.56-.69-.24a10.31,10.31,0,0,0-1.06,1,35.15,35.15,0,0,1-5,4.24,6.93,6.93,0,0,1-3.22,1.08,15.64,15.64,0,0,1-4.78,0,3,3,0,0,1-1.23-.54,6.43,6.43,0,0,1-2.76-3.5,1.56,1.56,0,0,1-.15-.54c0-.95.09-1.9.17-2.84A12.74,12.74,0,0,1,60.91,44c.92-1.44,1.72-2.95,2.67-4.37a7.74,7.74,0,0,1,2.29-2.34,9.89,9.89,0,0,0,.87-.73c1.55-1.34,3.59-2.08,5.74-.65a.64.64,0,0,0,.9-.05,4,4,0,0,1,3.38-.53,1.93,1.93,0,0,1,.88.51,6,6,0,0,1,2.07,4.51,14.84,14.84,0,0,1-.59,5.29c-.56,1.8-.41,1.92,1.49,1.56h.12c1.48-.25,1.49-.26.91-1.58a4.56,4.56,0,0,1,.21-3.33A10.54,10.54,0,0,1,86,36.66c2.67-1.83,5.63-2.85,8.94-1.68a5.68,5.68,0,0,1,3,2.58,5.17,5.17,0,0,1,.31,4.59,3.7,3.7,0,0,1-1.93,2.28c-.89.45-.91.52-.63,1.4a4.94,4.94,0,0,1,.19,2.8c-.16.6.09.88.72.81a12.36,12.36,0,0,1,3.64.21,3.08,3.08,0,0,0,.91,0,.75.75,0,0,0,.58-1.24,6.77,6.77,0,0,0-1-1.12,5.66,5.66,0,0,1-.54-7.12,12,12,0,0,1,3.9-3.74,9.56,9.56,0,0,1,2-.74c1.65-.47,3.3-1,5.11-.32A19.23,19.23,0,0,1,114.39,37c.86.48,1.4,2.65,1,3.61-.07.18-.15.35-.2.53A2.85,2.85,0,0,1,113,43.25c-.92.23-1,.3-.63,1.13.41,1,.68,2.08,1,3.12.28.83.49.87,1.18.42a8.48,8.48,0,0,0,2-2.3c1.12-1.56,2.38-3,3.54-4.54a32.28,32.28,0,0,0,2.42-2.69,1.71,1.71,0,0,1,.79-.63,2.32,2.32,0,0,0,.91-.67,4.26,4.26,0,0,1,2.18-1.39,2.85,2.85,0,0,0,1-.58c1.45-1.13,3-.95,4.67-.48.5.15.59.67.89,1a6.31,6.31,0,0,1,1.63,3.54,3.73,3.73,0,0,0,.48,2.06c0,.45-.15.92.25,1.4l.53-1.54a3.91,3.91,0,0,0,1.05-1.85A9.84,9.84,0,0,1,139.29,36a5.06,5.06,0,0,1,5-.4,2.57,2.57,0,0,1,1.06,1.52c.21.68.38,1.37.57,2.05a27.76,27.76,0,0,1-1.64,6.48,5.85,5.85,0,0,0-.38,1.42,1.69,1.69,0,0,0-.49.74c-.56,1.31-.73,2.82-1.83,3.88C141.51,51.77,141.53,51.87,141.52,51.94Zm-7.82-9.11c0-.61,0-1.22,0-1.83a7.72,7.72,0,0,0-.86-3.62,2.91,2.91,0,0,0-3.36-1.55,8.92,8.92,0,0,0-1.42.43,17.61,17.61,0,0,0-4.34,2.7,32.6,32.6,0,0,0-5,5.72,53.64,53.64,0,0,0-5.42,8A3.48,3.48,0,0,0,113,55a1.07,1.07,0,0,0,1.15.91,2.68,2.68,0,0,0,1.22-.22,8.81,8.81,0,0,0,2.74-1.78,1.21,1.21,0,0,1,1.51-.4,5,5,0,0,0,2.25.27,8.24,8.24,0,0,0,1.19-.38c.73-.14,1,0,1.06.76,0,.16,0,.31,0,.46a1.34,1.34,0,0,0,1,1.27,3.89,3.89,0,0,0,3.69-.45,7.71,7.71,0,0,0,2.42-2.69A19.49,19.49,0,0,0,133.7,42.83ZM84.54,56.34A11.3,11.3,0,0,0,92,53.12a9.23,9.23,0,0,0,2.77-4.38,3.43,3.43,0,0,0-1.92-4.35,17.56,17.56,0,0,0-1.7-.66c-.29-.11-.59-.17-.87-.29a1.08,1.08,0,0,1-.67-1.29,1.21,1.21,0,0,1,1-1.11c.62,0,.68.49.86.89a2.58,2.58,0,0,0,3.21,1.7,3.7,3.7,0,0,0,3.06-3.82,4.79,4.79,0,0,0-4.1-3.89,10.11,10.11,0,0,0-7.32,2,10.64,10.64,0,0,0-3.76,5.46,2.53,2.53,0,0,0,1.22,3.22,4.79,4.79,0,0,0,1.79.7c.5.09,1,.27,1.06.88a1.41,1.41,0,0,1-.58,1.4,3.43,3.43,0,0,1-.8.43c-.66.27-.81.21-1.18-.42-.85-1.44-3.85-1.59-4.85-.24a2.14,2.14,0,0,0-.13.19A4.73,4.73,0,0,0,80.15,55,6.66,6.66,0,0,0,84.54,56.34ZM65.47,55.8a7.64,7.64,0,0,0,5.75-1.75c.85-.7,1.73-1.37,2.59-2.06,4-3.28,5.16-7.62,4.58-12.57a3.81,3.81,0,0,0-1.08-2.1,2.66,2.66,0,0,0-2.65-.62c-.82.13-1,.87-1.12,1.55a14.4,14.4,0,0,0-.16,3.53,8.07,8.07,0,0,1-1.61,4.9,4.57,4.57,0,0,1-3.66,1.81c-1,.06-1.48-.5-1.57-1.53a4.55,4.55,0,0,1,.69-2.72,20.74,20.74,0,0,1,3.32-4.63,4.47,4.47,0,0,0,1.15-1.94c.14-.48,0-.89-.51-1a3.54,3.54,0,0,0-2.14.06,12,12,0,0,0-4.77,4c-1.16,1.69-2.17,3.49-3.22,5.26a6,6,0,0,0-.9,2,20.84,20.84,0,0,0-.29,4.32,2.47,2.47,0,0,0,.51,1.6,4.81,4.81,0,0,0,3.95,1.93C64.71,55.78,65.09,55.8,65.47,55.8Zm35.22.52a10.87,10.87,0,0,0,2.73-.28,11.7,11.7,0,0,0,8.41-5.71,3.29,3.29,0,0,0,.54-2.7,7.55,7.55,0,0,0-1.8-3.49,7.5,7.5,0,0,1-.9-1.18c-.6-.85-.41-1.25.64-1.43a3.81,3.81,0,0,1,1.67.26,2,2,0,0,0,2.3-1.07c.49-.94.46-1.73-.25-2.28a7.16,7.16,0,0,0-5.49-1.79,12.79,12.79,0,0,0-3.08.84,9.55,9.55,0,0,0-4.37,3.36,4,4,0,0,0,.42,5.57A6.45,6.45,0,0,1,103,48.71a1.29,1.29,0,0,1-.72,1.88,3.28,3.28,0,0,1-2.11.33c-.56-.1-1.12-.2-1.69-.27-2.46-.3-3.57,1-2.89,3.4.15.53.34,1.09.87,1.27C97.82,55.79,99.12,56.66,100.69,56.32Zm34-4.15a9.08,9.08,0,0,0,.24,2.6c.42,1.67,1.41,1.78,2.72.88a3.37,3.37,0,0,0,.55-.58,17,17,0,0,0,2.43-3.72,71.07,71.07,0,0,0,3.65-9.48,8.86,8.86,0,0,0,.31-3.51,1.49,1.49,0,0,0-1.38-1.56,4.06,4.06,0,0,0-4.1,1.09,10.22,10.22,0,0,0-2.57,4.77c-.35,1.33-.68,2.66-1,4A21,21,0,0,0,134.66,52.17ZM72,40.85c-2,1.33-3,3.3-4,5.2-.23.44,0,.68.56.65a2.84,2.84,0,0,0,1.84-.78A5.52,5.52,0,0,0,72,40.85Z"/><path class="cls-1" d="M11.41,5.91c.72,0,1.55.36,2.12,0s.24-1.27.39-1.92A2.83,2.83,0,0,1,15.06,2,9.19,9.19,0,0,1,22.47.7c2.15.56,2.86,1.93,2.34,4.07,0,.11-.08.22-.09.33,0,.33-.2.69.14,1s.58,0,.84-.11a9.72,9.72,0,0,1,3.8-.68,5,5,0,0,1,3,1.15A6.32,6.32,0,0,1,35,10.68c.2,1.09.68,1.35,1.78,1.08a2.29,2.29,0,0,0,1.83-1.82A14.37,14.37,0,0,1,39.55,7a4.83,4.83,0,0,1,1.77-2.18,2.06,2.06,0,0,1,2.54,0,4.87,4.87,0,0,1,1.45,1.74,11.91,11.91,0,0,1,1.33,6.17,1.9,1.9,0,0,0,2,2.15,1.19,1.19,0,0,0,1.32-1.25,7,7,0,0,0-.4-2.35,4.4,4.4,0,0,1-.28-1.9,3.34,3.34,0,0,1,3.59-2.67,3.76,3.76,0,0,1,3.66,3.44,11.33,11.33,0,0,0,.9,2.46.86.86,0,0,0,1.08.59c.55-.15.64-.61.58-1.09s-.14-1-.2-1.47a6.81,6.81,0,0,1,0-2.16,2.64,2.64,0,0,1,2.51-2.27A3.79,3.79,0,0,1,65.19,9a20.82,20.82,0,0,0,.49,2.45,3.65,3.65,0,0,0,.55,1.12c.23.27.49.53.86.45a.86.86,0,0,0,.65-.85,5.6,5.6,0,0,0-.14-2,3.23,3.23,0,0,1,.09-1.69,2.73,2.73,0,0,1,3.54-1.8,5.21,5.21,0,0,1,3.31,3.92c.31,1.1.44,2.23.64,3.35a1,1,0,0,0,1.24.83.55.55,0,0,0,.46-.83,4.82,4.82,0,0,0-.27-.5,7.2,7.2,0,0,1-.67-4.34,5.28,5.28,0,0,1,3-4.29A17.93,17.93,0,0,1,88.16,3a19.68,19.68,0,0,1,9.11,3,9.19,9.19,0,0,1,4.17,5.11,8.85,8.85,0,0,1,.28,3.27c-.08,1.58.37,1.43,1.52,1.11a2.4,2.4,0,0,0,1.52-2.2,10.39,10.39,0,0,0-1.22-5.49c-.52-1-1-2-1.44-3-.88-1.9-.4-3.24,1.52-4.07a8.88,8.88,0,0,1,8.61.75,5.05,5.05,0,0,1,1.84,2.15,20.63,20.63,0,0,1,2.31,8.4c0,1.25.26,2.48.24,3.75a13.45,13.45,0,0,1-1.68,6.08,10.2,10.2,0,0,1-6.26,4.83,15.82,15.82,0,0,1-12.41-.92,12.21,12.21,0,0,1-3.06-1.75,1.07,1.07,0,0,0-1.28-.13,24.73,24.73,0,0,1-10.45,2,20.86,20.86,0,0,1-8.82-1.53,3.19,3.19,0,0,0-2.25-.16c-1.79.57-3.18-.29-4.56-1.17-.76-.49-.83-.54-1.54.1a5.68,5.68,0,0,1-7.43.2c-1-.78-1.06-.74-2.05-.06a7.87,7.87,0,0,1-5.5,1.43c-.83-.1-1.65-.26-2.48-.4-.66-.12-.75-.06-.94.61-.06.22-.11.44-.17.66a4.86,4.86,0,0,1-7.6,2.83,1.46,1.46,0,0,0-1.79.15,4.36,4.36,0,0,1-3.36.73A3.1,3.1,0,0,1,30.31,27c-.08-.25-.11-.52-.19-.77-.19-.65-.46-.81-1.1-.59a9.62,9.62,0,0,0-1.35.61,34.46,34.46,0,0,1-6.74,2.47,7.47,7.47,0,0,1-2.26.25c-1,0-2.05.12-3.08.09a15.11,15.11,0,0,1-8.65-2.84,10,10,0,0,1-4.12-7.46,14.76,14.76,0,0,1,1.53-8.64,7.54,7.54,0,0,1,4.45-4A10,10,0,0,1,11.41,5.91Zm5.31.8a4.77,4.77,0,0,0,3.65.21c.09,0,.15-.16.23-.24a8.73,8.73,0,0,0,3.12-1.94A1.39,1.39,0,0,0,24,3.07a2,2,0,0,0-1.6-1.28,29.18,29.18,0,0,0-3-.13A7,7,0,0,0,15.2,3.05,1.44,1.44,0,0,0,15,5.32,4.51,4.51,0,0,0,16.72,6.71Zm29.1,7.72a2.36,2.36,0,0,1,.08-.79,10.77,10.77,0,0,0-.46-5.16,6.77,6.77,0,0,0-1.27-2.27,1.88,1.88,0,0,0-2.8-.41A4,4,0,0,0,39.83,8c-.29.82-.48,1.68-.69,2.52a2.58,2.58,0,0,1-1.63,1.91,4.68,4.68,0,0,1-2.06.57c-.36,0-.53.25-.78.41a6.12,6.12,0,0,1-.17-1.81,5.48,5.48,0,0,0-2.41-4.44,3.28,3.28,0,0,0-2.23-.71c-.57,0-1.15,0-1.72,0a7.39,7.39,0,0,0-3.37.94,1.23,1.23,0,0,0-.58,1.9c.19.37.42.72.63,1.08a3.87,3.87,0,0,1,.54,1.5c.29,2.9-1.68,5.83-4.33,6.27-.71.12-1.41.3-2.11.47a7,7,0,0,1-4-.23A3.13,3.13,0,0,1,13,14c.6-1.19,1.23-2.36,1.86-3.53a2,2,0,0,0-.71-2.84,5.78,5.78,0,0,0-3.38-.84A7.36,7.36,0,0,0,4.41,11.4,15.39,15.39,0,0,0,3.47,19,7.42,7.42,0,0,0,5.71,23.9a13.1,13.1,0,0,0,8.88,3.83,29.45,29.45,0,0,0,9.47-1.15,44.11,44.11,0,0,0,5.23-2.51c.1,0,.17-.15.24-.23a28,28,0,0,0,2.69-3,.64.64,0,0,1,.58-.29,1,1,0,0,0,.86.46,13.12,13.12,0,0,0,8-1.61,1.69,1.69,0,0,1,.81-.38c1.63,3.48,4.72,5,8.5,4.63A7,7,0,0,0,55,22c.78-.67,1-.64,1.71.08l.38.43a3.35,3.35,0,0,0,1.88,1c2.23.38,4.16,0,5.59-1.93.47-.64.7-.63,1.17.1a2.89,2.89,0,0,0,1.72,1.23l1,.32A3.44,3.44,0,0,0,72,22.51c.25-.22.46-.52.87-.47-.26,1.22-.26,1.22.93,1.57a25.05,25.05,0,0,0,7.74,1.12,24.17,24.17,0,0,0,2.83-.23,24.69,24.69,0,0,0,5.91-1.18,16.25,16.25,0,0,1,3.4-.9c-.45.47-.14.7.25,1a18.62,18.62,0,0,0,6.68,2.86,14.41,14.41,0,0,0,11.24-2.13,8.53,8.53,0,0,0,3.83-6,23.31,23.31,0,0,0-1.82-13.5,5.64,5.64,0,0,0-3.27-3,11.13,11.13,0,0,0-5.52-.4,5,5,0,0,0-1.8.72,1.49,1.49,0,0,0-.76,2,10,10,0,0,0,.4.95c.5,1.07,1,2.12,1.49,3.21a10.47,10.47,0,0,1,.83,5.9,3.1,3.1,0,0,1-2.56,2.69c-.75.1-1.5.17-2.25.26a1.65,1.65,0,0,1,0-1.42,6.11,6.11,0,0,0-1.74-7.3,15.35,15.35,0,0,0-3.78-2.33A19.62,19.62,0,0,0,83.76,4.36a13,13,0,0,0-5,1.79,4.38,4.38,0,0,0-1.91,5.25c.13.4.3.78.41,1.18.16.61.47.7,1.1.61.92-.14,1.7-.62,2.6-.79a26.78,26.78,0,0,1,5.8-.21,6,6,0,0,1,1.46.23,1.16,1.16,0,0,1,.85,1c.08.45-.27.69-.59.9a4.71,4.71,0,0,1-.82.38A24.83,24.83,0,0,1,79.36,16a33.15,33.15,0,0,1-4.78-.09c-.1-1.25-.18-2.51-.31-3.75a5.45,5.45,0,0,0-2.39-4.34,2.67,2.67,0,0,0-2.82-.17c-1,.49-1,1.43-.92,2.39,0,.26.12.52.13.78a9.78,9.78,0,0,1,0,1.71,1.41,1.41,0,0,1-2.25,1,2.11,2.11,0,0,1-.75-1,7.9,7.9,0,0,1-.59-2.66,2.79,2.79,0,0,0-1.53-2.27,3.77,3.77,0,0,0-2.34-.27c-1,.09-1.36.47-1.41,1.45a7,7,0,0,0,.19,2.61,5.29,5.29,0,0,1,.22,1.12,1.65,1.65,0,0,1-.93,1.57c-.57.29-.9.2-1.51-.35a3.51,3.51,0,0,1-.94-1.55c-.24-.72-.44-1.45-.66-2.18a3.2,3.2,0,0,0-2.14-2.2,3,3,0,0,0-3.19.62A2.2,2.2,0,0,0,50.05,11a8.13,8.13,0,0,1,.47,2.68,1.94,1.94,0,0,1-1.07,1.87,2.12,2.12,0,0,1-2.37-.16C46.65,15.1,46.24,14.76,45.82,14.43Zm-28.3,2.95a8.39,8.39,0,0,0,4.11-.65c2.4-.93,4.09-3.41,2.05-6.35-.1-.16-.21-.31-.31-.48a3.31,3.31,0,0,1-.47-1.62c0-1.08,0-1.09-1.07-.77-.51.16-1,.35-1.52.51a4.49,4.49,0,0,1-2.69.12,5.43,5.43,0,0,0-.56-.09c-.51-.09-.81.07-.8.65a7.19,7.19,0,0,1-1.33,3.94c-.41.68-.78,1.39-1.13,2.11a1.25,1.25,0,0,0,.07,1.5,2.92,2.92,0,0,0,2.26,1.14C16.55,17.37,17,17.38,17.52,17.38Zm23,11c1.76-.14,3.38-.59,4.34-2.27a2.16,2.16,0,0,0-1-3.14,4.38,4.38,0,0,0-1.66-.39,4.61,4.61,0,0,0-3.1,1,.89.89,0,0,1-1.31,0,4.64,4.64,0,0,0-6.28.57,2.39,2.39,0,0,0-.54,2.63,2.57,2.57,0,0,0,2.31,1.61,4.86,4.86,0,0,0,3.59-1.16c.7-.57.79-.56,1.39.11A2.76,2.76,0,0,0,40.5,28.42Zm40.35-14a9.5,9.5,0,0,0,4.27-.76C83.66,13.72,82.18,13.55,80.85,14.44Z"/><path class="cls-1" d="M178.93,34.73a53.4,53.4,0,0,1,7.52.55,5.52,5.52,0,0,1,1,.25,1.05,1.05,0,0,1,.82,1.1,21.15,21.15,0,0,1-.1,2.51c0,.25-.1.56.23.68a.63.63,0,0,0,.71-.24,19,19,0,0,1,1.9-1.8,12.8,12.8,0,0,1,6-2.86,6.08,6.08,0,0,1,6.22,2.45c.12.15.2.33.3.48.58.86.82.84,1.3-.09.1-.2.2-.41.31-.61a4.88,4.88,0,0,1,5.9-2.67,2.63,2.63,0,0,1,2,1.57c.42.9.64,1.87,1,2.79.12.31.08.74.54.76s.59-.31.79-.59c.36-.49.68-1,1.05-1.49A12.33,12.33,0,0,1,218,35.79a5.73,5.73,0,0,1,5.26-1.14,2.48,2.48,0,0,1,1.85,1.84c.1.29.15.59.25.88a.48.48,0,0,0,.8.29c.23-.13.42-.33.64-.47a10.77,10.77,0,0,1,8.59-1.71A4.46,4.46,0,0,1,239,38.76a3.59,3.59,0,0,1-2.3,4.39l-.44.12a.61.61,0,0,0-.5.93c.18.46.39.91.61,1.35a5.88,5.88,0,0,1-.25,6.08,10.24,10.24,0,0,1-3.05,3.2,15,15,0,0,1-8.95,2.61,7.92,7.92,0,0,1-4.46-1.58,3.24,3.24,0,0,1-.83-4.39,5,5,0,0,1,2.81-2.38,2,2,0,0,1,1.54.09,3,3,0,0,0,1.79.25c.54-.06.68-.28.44-.75a7.73,7.73,0,0,0-.75-1.14,7.26,7.26,0,0,1-1.64-3.1c-.09-.49-.44-.59-.83-.29a4.2,4.2,0,0,0-.53.58A11.83,11.83,0,0,1,217,48.21a2.31,2.31,0,0,0-1.33,1.32,31,31,0,0,1-2.46,4.24A7.43,7.43,0,0,1,207,57.26c-1.06,0-2.12.23-3.19.2-1.29,0-1.63-.38-1.93-1.64a3.56,3.56,0,0,1,.27-2.42,32.6,32.6,0,0,1,3.53-5.72c.63-.86.67-1,0-1.91-.29-.41-.41-1.17-1-1.09s-.49.87-.63,1.33a17.77,17.77,0,0,1-7.1,9.52,10.13,10.13,0,0,1-4.86,1.84,6.27,6.27,0,0,1-7-4.95,12.64,12.64,0,0,1,.29-6.29c.24-1,.27-1-.68-1.27a4.63,4.63,0,0,0-2-.24.91.91,0,0,0-.9.85,34.65,34.65,0,0,1-3.34,9.29,4,4,0,0,1-2.79,2.29,9.24,9.24,0,0,1-5.51-.09c-1.55-.53-2-1.31-1.58-2.88a53.43,53.43,0,0,1,2.6-7.91c.09-.21.21-.41.28-.62.16-.53,0-.82-.55-.89-.34,0-.69,0-1,0-.74,0-1-.27-1.2-1a3,3,0,0,1,0-1.47,20.5,20.5,0,0,1,2-5.45A3.15,3.15,0,0,1,173.24,35,46.76,46.76,0,0,1,178.93,34.73Zm24.7,7.56c0-.61-.06-1.1-.11-1.59a5.09,5.09,0,0,0-3.79-4.51,6.56,6.56,0,0,0-4,.15,15.59,15.59,0,0,0-5.35,3.42,15.4,15.4,0,0,0-4.6,8.48,8.11,8.11,0,0,0,.14,3.85,5.09,5.09,0,0,0,5,3.85,9.2,9.2,0,0,0,5.39-1.52,15.56,15.56,0,0,0,3.24-2.7A14.49,14.49,0,0,0,203.63,42.29ZM204.88,56a21.07,21.07,0,0,0,3.17-.36,6.56,6.56,0,0,0,4.32-3.08,15.23,15.23,0,0,0,2.55-4.68c.14-.54.53-.75,1-.92a9.46,9.46,0,0,0,3.31-1.77,22.32,22.32,0,0,0,3.85-4.65,7.93,7.93,0,0,0,.91-2.21,1.73,1.73,0,0,0-.89-2.13,4.51,4.51,0,0,0-4.51.73,14.78,14.78,0,0,0-2.44,2.86A16.78,16.78,0,0,1,215,41.45c-.66.75-1.27.59-1.54-.39-.19-.65-.34-1.32-.5-2-.09-.33-.16-.67-.26-1a3.35,3.35,0,0,0-5.72-1.34c-1.74,1.9-2.48,4.22-1.22,6.73.38.75.81,1.47,1.25,2.18a1.82,1.82,0,0,1,0,2.23c-.18.24-.35.5-.53.74a45.49,45.49,0,0,0-2.58,3.91,8.32,8.32,0,0,0-.86,2c-.27.9.19,1.47,1.13,1.5Zm-26-19.93c-.83,0-1.67,0-2.51,0a16.86,16.86,0,0,0-3.4.29,2,2,0,0,0-1.34.8,15.18,15.18,0,0,0-2.1,5.27c-.1.52.17.8.69.81s.91,0,1.37,0c1.7,0,1.92.34,1.18,1.88a43.76,43.76,0,0,0-3.19,8.67c-.31,1.29-.14,1.61,1.15,2a9.22,9.22,0,0,0,4.52,0A3.26,3.26,0,0,0,177.64,54a29.61,29.61,0,0,0,3.23-9.22,1.39,1.39,0,0,1,1.23-1.29,4.83,4.83,0,0,1,2.14,0c.46.1.91.15,1.22-.35a11.47,11.47,0,0,0,1.87-5.45c0-.82-.15-1-1-1.06-.3,0-.61,0-.91-.08A32.4,32.4,0,0,0,178.84,36.09Zm54.82.49c-3.66,0-6.78,1.13-8.9,4.3a3.91,3.91,0,0,0,.27,5.24c.57.72,1.14,1.43,1.67,2.18a1.2,1.2,0,0,1-.25,1.89,2.71,2.71,0,0,1-3.09.4,2.21,2.21,0,0,0-2.7.53c-.27.27-.57.51-.82.8a1.67,1.67,0,0,0,.19,2.6,4.9,4.9,0,0,0,2.1,1.11A12.59,12.59,0,0,0,234.3,52.1c2.5-2.42,2.28-5.36,0-8-.22-.26-.49-.48-.72-.73a2.44,2.44,0,0,1-.54-1c-.18-.7.07-1,.79-1a4.44,4.44,0,0,1,1.44.33,2,2,0,0,0,2.58-.85,2.11,2.11,0,0,0-.37-2.8A4.59,4.59,0,0,0,233.66,36.58Z"/><path class="cls-1" d="M21.68,45.92a12.51,12.51,0,0,1-.15,3,.58.58,0,0,0,.33.76.63.63,0,0,0,.83-.42,4.83,4.83,0,0,0,.25-.76c.57-2,1.15-4,1.71-6a17.31,17.31,0,0,1,2-4.46,6.3,6.3,0,0,1,7.57-2.31,2.41,2.41,0,0,1,1.46,1.51,6,6,0,0,1-.34,5.07c-.78,1.56-1.66,3.08-2.49,4.62a4,4,0,0,0-.36.71c-.15.48,0,.72.55.7.88,0,1.75-.1,2.62-.19s1.9,0,2.44,1c.18.36.49.32.68,0a3.85,3.85,0,0,0,.38-1.19,49.65,49.65,0,0,1,2.09-6.64A14.52,14.52,0,0,1,44,36.76a5.44,5.44,0,0,1,2.63-1.62,6,6,0,0,1,3.18.11,2.27,2.27,0,0,1,1.22,1c1,1.23,1.17,1.25,2.5.32.53-.37,1.07-.72,1.6-1.08a4.15,4.15,0,0,1,5.15.44,1.23,1.23,0,0,1,.27.62q.27,1.23.48,2.46a4.29,4.29,0,0,1-.61,3c-1.15,2-2.26,4-3.24,6.15a38.85,38.85,0,0,1-1.81,3.66,41.61,41.61,0,0,1-3.22,4.56,3,3,0,0,1-2.54,1.05,1.42,1.42,0,0,1-1.37-.85,4.25,4.25,0,0,1-.66-2c0-.62-.32-.85-.89-1a2.21,2.21,0,0,0-2.56,1,18.61,18.61,0,0,1-1.4,1.81A3.24,3.24,0,0,1,40,57.47a1.36,1.36,0,0,1-1.33-.88,11,11,0,0,1-.72-2.16c-.11-.52-.49-.63-.92-.33a.81.81,0,0,0-.16.16c-2,2.18-4.55,2.94-7.29,3.42a7.87,7.87,0,0,1-3.17-.07,2.55,2.55,0,0,0-.9-.1,6.48,6.48,0,0,1-3.69-1,2.23,2.23,0,0,1-.86-1c-.52-.95-.68-1-1.45-.13a9.65,9.65,0,0,1-1,.94,5.42,5.42,0,0,1-3.38,1.21,2.48,2.48,0,0,1-2.38-1.28c-.09-.17-.2-.33-.28-.5a1.62,1.62,0,0,0-1.92-1,5.3,5.3,0,0,1-1.82,0A2.55,2.55,0,0,0,6,55.85a4,4,0,0,1-2.26,1.44C1.37,57.91-.38,56.38.07,54a20.25,20.25,0,0,1,2.72-6.87,52.21,52.21,0,0,1,5.4-7.5,19.26,19.26,0,0,1,3.4-3,6.89,6.89,0,0,1,3.81-1.36A4.34,4.34,0,0,1,19.16,37a12,12,0,0,1,2.52,7.31C21.69,44.82,21.68,45.32,21.68,45.92Zm26.94,7.4c0,.34,0,.68,0,1a2.18,2.18,0,0,0,.08.57c.19.78.5,1,1.29,1a2.09,2.09,0,0,0,1.58-.79,24.74,24.74,0,0,0,3.69-5.48c1.29-2.67,2.51-5.38,4-7.94A4.63,4.63,0,0,0,59.75,38a1.79,1.79,0,0,0-2-1.64,5.94,5.94,0,0,0-5.55,3.68,47.3,47.3,0,0,0-1.7,5.08c-.13.43-.09,1-.47,1.25s-.66-.29-1.05-.25h-.11c-.88-.09-1-.24-.54-1,.54-1,1.13-2.07,1.62-3.14a7.08,7.08,0,0,0,.79-3.42,2,2,0,0,0-1.47-1.94,4.53,4.53,0,0,0-4.85,1.42,19.42,19.42,0,0,0-2.85,5.31A98.64,98.64,0,0,0,39,53.05a3.41,3.41,0,0,0,.26,2.23,1.12,1.12,0,0,0,1.48.71,2.55,2.55,0,0,0,1.48-1,28.16,28.16,0,0,0,2.16-2.8.8.8,0,0,1,1.23-.35,2.18,2.18,0,0,0,1.55.19C48.76,51.67,48.76,51.69,48.62,53.32ZM20.76,45.46c-.08-2.86-.54-5.29-2.17-7.38a3.64,3.64,0,0,0-2.82-1.5,6,6,0,0,0-3.84,1.24,25.22,25.22,0,0,0-5.21,5.41,37.85,37.85,0,0,0-5.24,8.94,5.62,5.62,0,0,0-.38,2.68A1.15,1.15,0,0,0,2.37,56,3.88,3.88,0,0,0,5.52,54.7c.21-.27.45-.52.66-.79a2,2,0,0,1,2-.72,6.19,6.19,0,0,0,3.49-.14c.51-.2.77,0,1,.45a7.41,7.41,0,0,0,.92,2c.24.3.47.61.9.63a4.85,4.85,0,0,0,3.36-.83,6.23,6.23,0,0,0,2.51-4.06C20.69,49.19,20.5,47.16,20.76,45.46Zm7.76,11c.48-.05,1-.07,1.46-.15a11,11,0,0,0,5.84-2.63,4.39,4.39,0,0,0,1.41-3.37c0-.81-.19-1-1-1a8.55,8.55,0,0,0-1.13.05,23.88,23.88,0,0,0-3.26.56c-.42.09-1,.33-1.3,0s.07-.92.28-1.34c1-2,2.08-4.06,3.26-6A5.84,5.84,0,0,0,35,38.34a1.9,1.9,0,0,0-1.75-1.68c-.49-.06-1-.08-1.48-.12a4.57,4.57,0,0,0-3.37,1.11,9.18,9.18,0,0,0-2.73,4.65C25,44.53,24.4,46.76,23.79,49a3.44,3.44,0,0,1-1.42,2.09,2.69,2.69,0,0,0,.06,4.32,4.87,4.87,0,0,0,2.77,1A23,23,0,0,1,28.52,56.45Z"/><path class="cls-1" d="M186.58,15.13a17,17,0,0,0,.68-3.07,24.79,24.79,0,0,1,.94-3.4,6.87,6.87,0,0,1,3.27-3.53,12.22,12.22,0,0,1,9.4-.9,8.32,8.32,0,0,1,4,2.48c.24.27.49.56.85.33s.26-.55.13-.91a8.66,8.66,0,0,1-.7-2.16,2.3,2.3,0,0,1,1.37-2.62,9,9,0,0,1,7.83-.17,6.87,6.87,0,0,1,3.34,3.6,28.2,28.2,0,0,1,2.51,8.35,30.6,30.6,0,0,1,.62,6.33,9.45,9.45,0,0,1-1.11,3.88,9.34,9.34,0,0,1-3.59,3.55,12.1,12.1,0,0,1-3.49,1.55,29.56,29.56,0,0,1-4,.85,18.87,18.87,0,0,1-8.52-1A9.75,9.75,0,0,1,197,26.79c-.37-.33-.8-.15-1.19,0-.84.35-1.66.75-2.51,1.09a7.46,7.46,0,0,1-3.1.65,10.85,10.85,0,0,0-1.34.25c-3.33.34-6.59.3-9.6-1.51a7.75,7.75,0,0,1-3-3.2,31.82,31.82,0,0,1-2.93-9.68A51.1,51.1,0,0,1,173,5.74a4.28,4.28,0,0,1,2.69-4,6.21,6.21,0,0,1,5.6-.1,3.77,3.77,0,0,1,2.24,2.83c.47,2.65,1.19,5.26,1.53,7.94a4.54,4.54,0,0,0,.94,2.74,3,3,0,0,0,.55,1.54A4.49,4.49,0,0,0,186.58,15.13Zm.78,5a4.82,4.82,0,0,1-1.78-2.59,41.93,41.93,0,0,1-1.05-4.43c-.54-2.77-1.07-5.53-1.61-8.3a2.5,2.5,0,0,0-1-1.86,6.37,6.37,0,0,0-3.78-1,7.3,7.3,0,0,0-2.89,1,3.26,3.26,0,0,0-1.72,3,57.85,57.85,0,0,0,.2,7,30.34,30.34,0,0,0,2.53,9.55c.74,1.58,1.54,3.13,3.3,3.89a13.53,13.53,0,0,0,3.1,1.06,12.46,12.46,0,0,0,3.76,0,1.42,1.42,0,0,0,.85.25,21.46,21.46,0,0,0,6.12-.93c.49-.18,1-.29,1.3-.83,1.3-.77,2.52-.91,3.67.31a2.47,2.47,0,0,0,2.29.62,1,1,0,0,0,.65.83,6.15,6.15,0,0,0,1.88.45,35.39,35.39,0,0,0,5.25.05,18.17,18.17,0,0,0,7.87-2.54,7.56,7.56,0,0,0,3.83-7.48,50.87,50.87,0,0,0-.62-5.9A29.35,29.35,0,0,0,217.16,5a5.84,5.84,0,0,0-2.76-2.95,8.38,8.38,0,0,0-7.6,0c-1.15.57-1.33,1.08-1,2.3.44,1.5,1.21,2.87,1.76,4.33a17.6,17.6,0,0,1,1.38,6.9c-.13,3.4-2.58,5.41-5.87,4.83a1.37,1.37,0,0,0-1.18.22,6.53,6.53,0,0,0-1.38-1c-.44-.28-.45-.57-.09-.91a3.08,3.08,0,0,1,.48-.32,22.47,22.47,0,0,0,2.43-1.64,6.87,6.87,0,0,0,2.09-7.18,5.7,5.7,0,0,0-4.08-4.11,12.05,12.05,0,0,0-10,.9,5.84,5.84,0,0,0-2.64,3,16,16,0,0,0-1,6.39c.05,1.54-.19,1.6,1.67,1.59a7.82,7.82,0,0,1,2.16.16c.92.25,1.3.54,1.27,1.08,0,.73-.62.89-1.18,1L190.5,20A13.75,13.75,0,0,0,187.36,20.16ZM203,19.09c2.74.83,4.68-.36,5.11-2.9a7.91,7.91,0,0,0,.07-1.82,13.41,13.41,0,0,0-.91-3.64c-.07-.18,0-.5-.42-.39A10.28,10.28,0,0,1,203,19.09Z"/><path class="cls-1" d="M152.38,12.21a18.19,18.19,0,0,0,5.06-.52c1.39-.39,1.62-.81,1.1-2.14a6.07,6.07,0,0,1,.57-5.68,3.84,3.84,0,0,1,4.47-1.65,6.23,6.23,0,0,1,3.86,3,17.56,17.56,0,0,1,2.21,7.94,7.38,7.38,0,0,1-3.54,6.61,21.14,21.14,0,0,1-7,2.89c-.33.09-.67.15-1,.22-1.49.32-1.51.34-1.2,1.78a4.12,4.12,0,0,1-1.35,3.9,2.39,2.39,0,0,1-1.22.6,8.48,8.48,0,0,0-1.1.29A4.29,4.29,0,0,1,147.56,25c.11-1.25.11-1.25-1.14-1.37a18,18,0,0,1-4.73-1.23,7.29,7.29,0,0,1-4.87-6.7,20.52,20.52,0,0,1,1-8.12,7.45,7.45,0,0,1,5.51-5.26,2.85,2.85,0,0,1,3.52,1.89,5.55,5.55,0,0,1-.13,3.91c-.86,2.09-.2,2.84,1.75,3.65A10.75,10.75,0,0,0,152.38,12.21Zm-.17,1.11a8,8,0,0,1-.87,0,9.73,9.73,0,0,1-4.06-1.07A3,3,0,0,1,146,7.88a4,4,0,0,0,.33-3.2,1.68,1.68,0,0,0-1.56-1.43,5,5,0,0,0-2,.13,6.24,6.24,0,0,0-4.36,4.17,18.59,18.59,0,0,0-.94,8.43,5.73,5.73,0,0,0,2.64,4.48,11.12,11.12,0,0,0,10.35,1.23,5,5,0,0,1,3.78-.14,6.7,6.7,0,0,0,3.91.23,19.71,19.71,0,0,0,7.85-3,6.56,6.56,0,0,0,3.11-5.78,15.68,15.68,0,0,0-2-7.1A5.59,5.59,0,0,0,163,3.1a3.51,3.51,0,0,0-3.65,1.59,4.35,4.35,0,0,0,0,4.77c1,1.51.41,2.19-.9,2.86a3.39,3.39,0,0,1-.75.28A20.27,20.27,0,0,1,152.21,13.32Zm-.37,15.29a6,6,0,0,0,3.36-1,2.28,2.28,0,0,0-.17-4c-2-1.17-3.87-.8-5.74.23a2.12,2.12,0,0,0-.62,3.37A3.66,3.66,0,0,0,151.84,28.61Z"/><path class="cls-1" d="M143.12,53.54v-.47a1.84,1.84,0,0,0-.05-.9V51.7a2.9,2.9,0,0,1,.24-2,6.49,6.49,0,0,0,.77-2.6,2.39,2.39,0,0,0,.44-1l2.27-6.78c.91-.55,1.23-1.57,1.83-2.37.15-.2.21-.56.45-.63,1.44-.43,2.83-1.43,4.43-.49a1.92,1.92,0,0,1,.7.54c.58.86,1.54,1.33,2.19,2.14.24.3.51.18.79,0s.33-.66.4-1,.27-.94.85-1.08a.89.89,0,0,0,.49-.28c.62-1,1.59-.71,2.46-.62s1.27.79,1.58,1.49a3.94,3.94,0,0,1,.34,1.43,15.59,15.59,0,0,1-.21,4.31c-.46,1.79-.81,3.62-1.28,5.41-.26,1-.77,1.88-1.08,2.86a20.42,20.42,0,0,1-3,5.42c-1.44,2.07-5.69,1.7-6.44-1a17.3,17.3,0,0,0-.82-2c-.1-.23-.17-.56-.51-.5s-.31.28-.37.52c-.13.47-.3.94-.43,1.41A4,4,0,0,1,145.6,58a1.16,1.16,0,0,1-1.28-.41c-.23-.29-.49-.57-.74-.85l-.46-1.83V53.54ZM156.93,43a2.81,2.81,0,0,1-.73-1.56,7.54,7.54,0,0,0-1.83-3.12c-1.34-1.43-2.5-1.61-4.62-.5a3.42,3.42,0,0,0-1.35,1.51,18.56,18.56,0,0,0-.88,1.86c-1.22,3.08-2.18,6.24-3.09,9.43a11.57,11.57,0,0,0-.14,4.76c.13,1,.75,1.35,1.72,1.18a2.54,2.54,0,0,0,2-1.65,8.5,8.5,0,0,0,.37-1.31c.4-1.67.68-3.36,1.22-5,.1-.31.12-.75.59-.71s.42.46.43.8a20.44,20.44,0,0,0,.51,3.38,10.5,10.5,0,0,0,1,2.79,2.92,2.92,0,0,0,4.85.64,11,11,0,0,0,2.12-3.23,49.16,49.16,0,0,0,3.18-10.7,8.88,8.88,0,0,0,0-3.29,1.52,1.52,0,0,0-2-1.27,2.55,2.55,0,0,0-2,1.84C157.85,40.17,157.41,41.5,156.93,43Z"/><path class="cls-1" d="M118.87,6.9c0-.77,0-1.53,0-2.29a3.58,3.58,0,0,1,1.5-3.06A6.62,6.62,0,0,1,126.72.46a3.45,3.45,0,0,1,2.33,2.44c1.12,3.87,1.92,7.81,2.68,11.77a47.72,47.72,0,0,1,.79,7.24c.06,1.81,0,3.67-1.46,5.11a4.39,4.39,0,0,1-2.42,1.39,7.9,7.9,0,0,1-2.47.3,6,6,0,0,1-3.84-2.47,11.47,11.47,0,0,1-1.85-4.39,50.74,50.74,0,0,1-1.14-7.66C119.13,11.76,119,9.33,118.87,6.9Zm.72-.55h0c.15,2.43.32,4.86.45,7.29A44.22,44.22,0,0,0,121,21a12.54,12.54,0,0,0,1.6,4.13c2.08,3.26,5.47,2.92,8.07.84a2.61,2.61,0,0,0,.83-1.33,7.65,7.65,0,0,0,.29-2.6,50.52,50.52,0,0,0-.52-5.34A128.3,128.3,0,0,0,128.49,3.5a2.63,2.63,0,0,0-1.64-1.93,6,6,0,0,0-5.95.79,3.07,3.07,0,0,0-1.37,2.85C119.56,5.59,119.57,6,119.59,6.35Z"/><path class="cls-1" d="M238.77,23.45c0,.72,0,1.25,0,1.78a3.28,3.28,0,0,1-1.62,2.86A7.49,7.49,0,0,1,231,29a5.72,5.72,0,0,1-3.75-3.27,29.22,29.22,0,0,1-1.81-6.82,99.41,99.41,0,0,1-1.15-10.31c-.1-1.1-.19-2.2-.32-3.3a3.57,3.57,0,0,1,2.56-4.27,9.23,9.23,0,0,1,5.71-.34,3.18,3.18,0,0,1,2.49,2.39,141.85,141.85,0,0,1,3.33,14.66A24.35,24.35,0,0,1,238.77,23.45Zm-.66-.26a26.13,26.13,0,0,0-.36-3.86c-.5-2.93-1.07-5.84-1.74-8.73-.53-2.3-1.1-4.59-1.76-6.86a2.55,2.55,0,0,0-1.61-1.92,8.52,8.52,0,0,0-6.86.59,2.13,2.13,0,0,0-1.22,2.15c.06.68.14,1.36.17,2a106.26,106.26,0,0,0,1.21,11.68,23.75,23.75,0,0,0,1.86,6.91A4.85,4.85,0,0,0,231.17,28a7.25,7.25,0,0,0,3.4.08c1.87-.45,4-1.5,3.55-4.44A2.36,2.36,0,0,1,238.11,23.19Z"/><path class="cls-2" d="M146.79,39.35l-2.27,6.78a2.39,2.39,0,0,1-.44,1,.41.41,0,0,1-.21,0,5.85,5.85,0,0,1,.38-1.42,27.76,27.76,0,0,0,1.64-6.48Z"/><path class="cls-3" d="M143.87,47.1a.41.41,0,0,0,.21,0,6.49,6.49,0,0,1-.77,2.6,2.9,2.9,0,0,0-.24,2,1.1,1.1,0,0,0-1.55.24c0-.07,0-.17,0-.22,1.1-1.06,1.27-2.57,1.83-3.88A1.69,1.69,0,0,1,143.87,47.1Z"/><path class="cls-2" d="M135.78,41.09l-.53,1.54c-.4-.48-.24-1-.25-1.4Z"/><path class="cls-2" d="M186.58,15.13a4.49,4.49,0,0,1-.06,1.53,3,3,0,0,1-.55-1.54Z"/><path class="cls-3" d="M143.12,54.91l.46,1.83C142.86,56.27,143.13,55.56,143.12,54.91Z"/><path class="cls-3" d="M143.07,52.17a1.84,1.84,0,0,1,.05.9A.67.67,0,0,1,143.07,52.17Z"/><path class="cls-3" d="M143.12,53.54v.22a.75.75,0,0,1-.05-.16S143.1,53.56,143.12,53.54Z"/><path class="cls-4" d="M133.7,42.83a19.49,19.49,0,0,1-2.48,9.93,7.71,7.71,0,0,1-2.42,2.69,3.89,3.89,0,0,1-3.69.45,1.34,1.34,0,0,1-1-1.27c0-.15,0-.3,0-.46-.08-.72-.33-.9-1.06-.76a8.24,8.24,0,0,1-1.19.38,5,5,0,0,1-2.25-.27,1.21,1.21,0,0,0-1.51.4,8.81,8.81,0,0,1-2.74,1.78,2.68,2.68,0,0,1-1.22.22A1.07,1.07,0,0,1,113,55a3.48,3.48,0,0,1,.24-2.32,53.64,53.64,0,0,1,5.42-8,32.6,32.6,0,0,1,5-5.72,17.61,17.61,0,0,1,4.34-2.7,8.92,8.92,0,0,1,1.42-.43,2.91,2.91,0,0,1,3.36,1.55,7.72,7.72,0,0,1,.86,3.62C133.72,41.61,133.7,42.22,133.7,42.83ZM123.09,49.4h1.1a.62.62,0,0,0,.66-.51,11.13,11.13,0,0,0,.35-2.57c0-.49-.3-.67-.76-.52a1.91,1.91,0,0,0-.81.59,17.23,17.23,0,0,0-1.23,1.48c-.27.37-.86.67-.57,1.24S122.72,49.32,123.09,49.4Z"/><path class="cls-5" d="M84.54,56.34A6.66,6.66,0,0,1,80.15,55a4.73,4.73,0,0,1-1.06-5.5,2.14,2.14,0,0,1,.13-.19c1-1.35,4-1.2,4.85.24.37.63.52.69,1.18.42a3.43,3.43,0,0,0,.8-.43,1.41,1.41,0,0,0,.58-1.4c-.1-.61-.56-.79-1.06-.88a4.79,4.79,0,0,1-1.79-.7,2.53,2.53,0,0,1-1.22-3.22,10.64,10.64,0,0,1,3.76-5.46,10.11,10.11,0,0,1,7.32-2,4.79,4.79,0,0,1,4.1,3.89,3.7,3.7,0,0,1-3.06,3.82,2.58,2.58,0,0,1-3.21-1.7c-.18-.4-.24-.92-.86-.89a1.21,1.21,0,0,0-1,1.11,1.08,1.08,0,0,0,.67,1.29c.28.12.58.18.87.29a17.56,17.56,0,0,1,1.7.66,3.43,3.43,0,0,1,1.92,4.35A9.23,9.23,0,0,1,92,53.12,11.3,11.3,0,0,1,84.54,56.34Z"/><path class="cls-6" d="M65.47,55.8c-.38,0-.76,0-1.14,0a4.81,4.81,0,0,1-3.95-1.93,2.47,2.47,0,0,1-.51-1.6A20.84,20.84,0,0,1,60.16,48a6,6,0,0,1,.9-2c1-1.77,2.06-3.57,3.22-5.26a12,12,0,0,1,4.77-4,3.54,3.54,0,0,1,2.14-.06c.5.08.65.49.51,1a4.47,4.47,0,0,1-1.15,1.94,20.74,20.74,0,0,0-3.32,4.63A4.55,4.55,0,0,0,66.54,47c.09,1,.57,1.59,1.57,1.53a4.57,4.57,0,0,0,3.66-1.81,8.07,8.07,0,0,0,1.61-4.9,14.4,14.4,0,0,1,.16-3.53c.17-.68.3-1.42,1.12-1.55a2.66,2.66,0,0,1,2.65.62,3.81,3.81,0,0,1,1.08,2.1c.58,4.95-.57,9.29-4.58,12.57-.86.69-1.74,1.36-2.59,2.06A7.64,7.64,0,0,1,65.47,55.8Z"/><path class="cls-7" d="M100.69,56.32c-1.57.34-2.87-.53-4.26-1-.53-.18-.72-.74-.87-1.27-.68-2.4.43-3.7,2.89-3.4.57.07,1.13.17,1.69.27a3.28,3.28,0,0,0,2.11-.33,1.29,1.29,0,0,0,.72-1.88,6.45,6.45,0,0,0-1.46-2.29,4,4,0,0,1-.42-5.57,9.55,9.55,0,0,1,4.37-3.36,12.79,12.79,0,0,1,3.08-.84A7.16,7.16,0,0,1,114,38.44c.71.55.74,1.34.25,2.28a2,2,0,0,1-2.3,1.07,3.81,3.81,0,0,0-1.67-.26c-1,.18-1.24.58-.64,1.43a7.5,7.5,0,0,0,.9,1.18,7.55,7.55,0,0,1,1.8,3.49,3.29,3.29,0,0,1-.54,2.7A11.7,11.7,0,0,1,103.42,56,10.87,10.87,0,0,1,100.69,56.32Z"/><path class="cls-8" d="M134.66,52.17a21,21,0,0,1,.83-5.52c.34-1.33.67-2.66,1-4a10.22,10.22,0,0,1,2.57-4.77,4.06,4.06,0,0,1,4.1-1.09,1.49,1.49,0,0,1,1.38,1.56,8.86,8.86,0,0,1-.31,3.51,71.07,71.07,0,0,1-3.65,9.48,17,17,0,0,1-2.43,3.72,3.37,3.37,0,0,1-.55.58c-1.31.9-2.3.79-2.72-.88A9.08,9.08,0,0,1,134.66,52.17Z"/><path class="cls-9" d="M32.8,20.59a.64.64,0,0,0-.58.29,28,28,0,0,1-2.69,3c-.07.08-.14.19-.24.23a44.11,44.11,0,0,1-5.23,2.51,29.45,29.45,0,0,1-9.47,1.15A13.1,13.1,0,0,1,5.71,23.9,7.42,7.42,0,0,1,3.47,19a15.39,15.39,0,0,1,.94-7.62A7.36,7.36,0,0,1,10.8,6.74a5.78,5.78,0,0,1,3.38.84,2,2,0,0,1,.71,2.84C14.26,11.59,13.63,12.76,13,14a3.13,3.13,0,0,0,1.85,4.45,7,7,0,0,0,4,.23c.7-.17,1.4-.35,2.11-.47,2.65-.44,4.62-3.37,4.33-6.27a3.87,3.87,0,0,0-.54-1.5c-.21-.36-.44-.71-.63-1.08a1.23,1.23,0,0,1,.58-1.9,7.39,7.39,0,0,1,3.37-.94c.57,0,1.15,0,1.72,0a3.28,3.28,0,0,1,2.23.71A5.48,5.48,0,0,1,34.5,11.6a6.12,6.12,0,0,0,.17,1.81,7.07,7.07,0,0,0-.11,1,10.27,10.27,0,0,1-.77,3.87C33.48,19.08,33.12,19.82,32.8,20.59Z"/><path class="cls-6" d="M93.64,22.42a16.25,16.25,0,0,0-3.4.9,24.69,24.69,0,0,1-5.91,1.18,24.17,24.17,0,0,1-2.83.23,25.05,25.05,0,0,1-7.74-1.12c-1.19-.35-1.19-.35-.93-1.57a7.71,7.71,0,0,0,1.5-3.68c.18-.82.09-1.65.25-2.46a33.15,33.15,0,0,0,4.78.09,24.83,24.83,0,0,0,8.28-1.31,4.71,4.71,0,0,0,.82-.38c.32-.21.67-.45.59-.9a1.16,1.16,0,0,0-.85-1,6,6,0,0,0-1.46-.23,26.78,26.78,0,0,0-5.8.21c-.9.17-1.68.65-2.6.79-.63.09-.94,0-1.1-.61-.11-.4-.28-.78-.41-1.18a4.38,4.38,0,0,1,1.91-5.25,13,13,0,0,1,5-1.79A19.62,19.62,0,0,1,94.89,5.93a15.35,15.35,0,0,1,3.78,2.33,6.11,6.11,0,0,1,1.74,7.3,1.65,1.65,0,0,0,0,1.42C98.75,19.55,96.21,21,93.64,22.42Z"/><path class="cls-10" d="M74.58,15.9c-.16.81-.07,1.64-.25,2.46A7.71,7.71,0,0,1,72.83,22c-.41-.05-.62.25-.87.47a3.44,3.44,0,0,1-3.51.69l-1-.32a2.89,2.89,0,0,1-1.72-1.23c-.47-.73-.7-.74-1.17-.1-1.43,1.94-3.36,2.31-5.59,1.93a3.35,3.35,0,0,1-1.88-1l-.38-.43C56,21.34,55.8,21.31,55,22a7,7,0,0,1-4,1.71c-3.78.33-6.87-1.15-8.5-4.63a12.57,12.57,0,0,0,3.33-4.63c.42.33.83.67,1.26,1a2.12,2.12,0,0,0,2.37.16,1.94,1.94,0,0,0,1.07-1.87A8.13,8.13,0,0,0,50.05,11a2.2,2.2,0,0,1,.41-2.63,3,3,0,0,1,3.19-.62A3.2,3.2,0,0,1,55.79,10c.22.73.42,1.46.66,2.18a3.51,3.51,0,0,0,.94,1.55c.61.55.94.64,1.51.35a1.65,1.65,0,0,0,.93-1.57,5.29,5.29,0,0,0-.22-1.12,7,7,0,0,1-.19-2.61c0-1,.43-1.36,1.41-1.45a3.77,3.77,0,0,1,2.34.27A2.79,2.79,0,0,1,64.7,9.85a7.9,7.9,0,0,0,.59,2.66,2.11,2.11,0,0,0,.75,1,1.41,1.41,0,0,0,2.25-1,9.78,9.78,0,0,0,0-1.71c0-.26-.1-.52-.13-.78-.11-1,0-1.9.92-2.39a2.67,2.67,0,0,1,2.82.17,5.45,5.45,0,0,1,2.39,4.34C74.4,13.39,74.48,14.65,74.58,15.9Z"/><path class="cls-4" d="M93.64,22.42c2.57-1.41,5.11-2.87,6.74-5.44.75-.09,1.5-.16,2.25-.26A3.1,3.1,0,0,0,105.19,14a10.47,10.47,0,0,0-.83-5.9c-.45-1.09-1-2.14-1.49-3.21a10,10,0,0,1-.4-.95,1.49,1.49,0,0,1,.76-2,5,5,0,0,1,1.8-.72,11.13,11.13,0,0,1,5.52.4,5.64,5.64,0,0,1,3.27,3,23.31,23.31,0,0,1,1.82,13.5,8.53,8.53,0,0,1-3.83,6,14.41,14.41,0,0,1-11.24,2.13,18.62,18.62,0,0,1-6.68-2.86C93.5,23.12,93.19,22.89,93.64,22.42Z"/><path class="cls-7" d="M45.82,14.43a12.57,12.57,0,0,1-3.33,4.63,1.69,1.69,0,0,0-.81.38,13.12,13.12,0,0,1-8,1.61,1,1,0,0,1-.86-.46c.32-.77.68-1.51,1-2.29a10.27,10.27,0,0,0,.77-3.87,7.07,7.07,0,0,1,.11-1c.25-.16.42-.44.78-.41a4.68,4.68,0,0,0,2.06-.57,2.58,2.58,0,0,0,1.63-1.91c.21-.84.4-1.7.69-2.52a4,4,0,0,1,1.54-2.2,1.88,1.88,0,0,1,2.8.41,6.77,6.77,0,0,1,1.27,2.27,10.77,10.77,0,0,1,.46,5.16A2.36,2.36,0,0,0,45.82,14.43Z"/><path class="cls-7" d="M40.5,28.42a2.76,2.76,0,0,1-2.3-1.08c-.6-.67-.69-.68-1.39-.11a4.86,4.86,0,0,1-3.59,1.16,2.57,2.57,0,0,1-2.31-1.61,2.39,2.39,0,0,1,.54-2.63,4.64,4.64,0,0,1,6.28-.57.89.89,0,0,0,1.31,0,4.61,4.61,0,0,1,3.1-1A4.38,4.38,0,0,1,43.8,23a2.16,2.16,0,0,1,1,3.14C43.88,27.83,42.26,28.28,40.5,28.42Z"/><path class="cls-9" d="M16.72,6.71A4.51,4.51,0,0,1,15,5.32a1.44,1.44,0,0,1,.24-2.27,7,7,0,0,1,4.26-1.39,29.18,29.18,0,0,1,3,.13A2,2,0,0,1,24,3.07a1.39,1.39,0,0,1-.3,1.67A8.73,8.73,0,0,1,20.6,6.68,33.47,33.47,0,0,0,16.72,6.71Z"/><path class="cls-11" d="M80.85,14.44c1.33-.89,2.81-.72,4.27-.76A9.5,9.5,0,0,1,80.85,14.44Z"/><path class="cls-11" d="M16.72,6.71a33.47,33.47,0,0,1,3.88,0c-.08.08-.14.22-.23.24A4.77,4.77,0,0,1,16.72,6.71Z"/><path class="cls-12" d="M203.63,42.29a14.49,14.49,0,0,1-4.1,9.43,15.56,15.56,0,0,1-3.24,2.7,9.2,9.2,0,0,1-5.39,1.52,5.09,5.09,0,0,1-5-3.85,8.11,8.11,0,0,1-.14-3.85,15.4,15.4,0,0,1,4.6-8.48,15.59,15.59,0,0,1,5.35-3.42,6.56,6.56,0,0,1,4-.15,5.09,5.09,0,0,1,3.79,4.51C203.57,41.19,203.59,41.68,203.63,42.29Zm-9.74,5.78a3,3,0,0,0,2.75-2.81,1.22,1.22,0,0,0-1.16-1.3c-1.44-.19-3.15,2-2.65,3.34A1.11,1.11,0,0,0,193.89,48.07Z"/><path class="cls-6" d="M204.88,56h-.8c-.94,0-1.4-.6-1.13-1.5a8.32,8.32,0,0,1,.86-2,45.49,45.49,0,0,1,2.58-3.91c.18-.24.35-.5.53-.74a1.82,1.82,0,0,0,0-2.23c-.44-.71-.87-1.43-1.25-2.18-1.26-2.51-.52-4.83,1.22-6.73a3.35,3.35,0,0,1,5.72,1.34c.1.32.17.66.26,1,.16.67.31,1.34.5,2,.27,1,.88,1.14,1.54.39a16.78,16.78,0,0,0,1.24-1.64A14.78,14.78,0,0,1,218.63,37a4.51,4.51,0,0,1,4.51-.73,1.73,1.73,0,0,1,.89,2.13,7.93,7.93,0,0,1-.91,2.21,22.32,22.32,0,0,1-3.85,4.65A9.46,9.46,0,0,1,216,47c-.51.17-.9.38-1,.92a15.23,15.23,0,0,1-2.55,4.68,6.56,6.56,0,0,1-4.32,3.08A21.07,21.07,0,0,1,204.88,56Z"/><path class="cls-8" d="M178.84,36.09a32.4,32.4,0,0,1,6.6.41c.3,0,.61.06.91.08.83.08,1,.24,1,1.06a11.47,11.47,0,0,1-1.87,5.45c-.31.5-.76.45-1.22.35a4.83,4.83,0,0,0-2.14,0,1.39,1.39,0,0,0-1.23,1.29A29.61,29.61,0,0,1,177.64,54a3.26,3.26,0,0,1-2.43,1.86,9.22,9.22,0,0,1-4.52,0c-1.29-.36-1.46-.68-1.15-2a43.76,43.76,0,0,1,3.19-8.67c.74-1.54.52-1.86-1.18-1.88-.46,0-.91,0-1.37,0s-.79-.29-.69-.81a15.18,15.18,0,0,1,2.1-5.27,2,2,0,0,1,1.34-.8,16.86,16.86,0,0,1,3.4-.29C177.17,36.07,178,36.09,178.84,36.09Z"/><path class="cls-5" d="M233.66,36.58a4.59,4.59,0,0,1,3.83,1.49,2.11,2.11,0,0,1,.37,2.8,2,2,0,0,1-2.58.85,4.44,4.44,0,0,0-1.44-.33c-.72,0-1,.32-.79,1a2.44,2.44,0,0,0,.54,1c.23.25.5.47.72.73,2.27,2.6,2.49,5.54,0,8a12.59,12.59,0,0,1-12.17,3.53,4.9,4.9,0,0,1-2.1-1.11,1.67,1.67,0,0,1-.19-2.6c.25-.29.55-.53.82-.8a2.21,2.21,0,0,1,2.7-.53,2.71,2.71,0,0,0,3.09-.4,1.2,1.2,0,0,0,.25-1.89c-.53-.75-1.1-1.46-1.67-2.18a3.91,3.91,0,0,1-.27-5.24C226.88,37.71,230,36.54,233.66,36.58Z"/><path class="cls-8" d="M48.62,53.32c.14-1.63.14-1.65-1.44-1.3a2.18,2.18,0,0,1-1.55-.19.8.8,0,0,0-1.23.35A28.16,28.16,0,0,1,42.24,55a2.55,2.55,0,0,1-1.48,1,1.12,1.12,0,0,1-1.48-.71A3.41,3.41,0,0,1,39,53.05a98.64,98.64,0,0,1,2.55-9.69,19.42,19.42,0,0,1,2.85-5.31,4.53,4.53,0,0,1,4.85-1.42,2,2,0,0,1,1.47,1.94A7.08,7.08,0,0,1,50,42c-.49,1.07-1.08,2.1-1.62,3.14-.42.8-.34.95.54,1H49c.39,0,.67.53,1.05.25s.34-.82.47-1.25a47.3,47.3,0,0,1,1.7-5.08,5.94,5.94,0,0,1,5.55-3.68,1.79,1.79,0,0,1,2,1.64,4.63,4.63,0,0,1-.45,3.64c-1.52,2.56-2.74,5.27-4,7.94a24.74,24.74,0,0,1-3.69,5.48,2.09,2.09,0,0,1-1.58.79c-.79,0-1.1-.2-1.29-1a2.18,2.18,0,0,1-.08-.57C48.62,54,48.62,53.66,48.62,53.32Z"/><path class="cls-13" d="M20.76,45.46c-.26,1.7-.07,3.73-.4,5.73a6.23,6.23,0,0,1-2.51,4.06,4.85,4.85,0,0,1-3.36.83c-.43,0-.66-.33-.9-.63a7.41,7.41,0,0,1-.92-2c-.2-.48-.46-.65-1-.45a6.19,6.19,0,0,1-3.49.14,2,2,0,0,0-2,.72c-.21.27-.45.52-.66.79A3.88,3.88,0,0,1,2.37,56,1.15,1.15,0,0,1,1.1,54.85a5.62,5.62,0,0,1,.38-2.68,37.85,37.85,0,0,1,5.24-8.94,25.22,25.22,0,0,1,5.21-5.41,6,6,0,0,1,3.84-1.24,3.64,3.64,0,0,1,2.82,1.5C20.22,40.17,20.68,42.6,20.76,45.46Zm-7.84,1.82c-.05-.55-.09-1-.15-1.45s-.15-.78-.59-.88a.92.92,0,0,0-1,.54A9.2,9.2,0,0,1,10,47.17a1.48,1.48,0,0,0-.28.61c-.16.54-.07.69.49.73a7.7,7.7,0,0,1,1.35.12c1.14.3,1.15.28,1.28-.88C12.87,47.56,12.91,47.37,12.92,47.28Z"/><path class="cls-4" d="M28.52,56.45a23,23,0,0,0-3.32-.09,4.87,4.87,0,0,1-2.77-1,2.69,2.69,0,0,1-.06-4.32A3.44,3.44,0,0,0,23.79,49c.61-2.24,1.23-4.47,1.89-6.7a9.18,9.18,0,0,1,2.73-4.65,4.57,4.57,0,0,1,3.37-1.11c.5,0,1,.06,1.48.12A1.9,1.9,0,0,1,35,38.34a5.84,5.84,0,0,1-.94,4.14c-1.18,2-2.24,4-3.26,6-.21.42-.7.87-.28,1.34s.88.13,1.3,0a23.88,23.88,0,0,1,3.26-.56,8.55,8.55,0,0,1,1.13-.05c.82,0,1,.23,1,1a4.39,4.39,0,0,1-1.41,3.37A11,11,0,0,1,30,56.3C29.5,56.38,29,56.4,28.52,56.45Z"/><path class="cls-10" d="M201.92,20.7a1.37,1.37,0,0,1,1.18-.22c3.29.58,5.74-1.43,5.87-4.83a17.6,17.6,0,0,0-1.38-6.9c-.55-1.46-1.32-2.83-1.76-4.33-.36-1.22-.18-1.73,1-2.3a8.38,8.38,0,0,1,7.6,0,5.84,5.84,0,0,1,2.76,3,29.35,29.35,0,0,1,2.35,7.26,50.87,50.87,0,0,1,.62,5.9,7.56,7.56,0,0,1-3.83,7.48,18.17,18.17,0,0,1-7.87,2.54,35.39,35.39,0,0,1-5.25-.05,6.15,6.15,0,0,1-1.88-.45,1,1,0,0,1-.65-.84,7.4,7.4,0,0,0,.44-2A25.17,25.17,0,0,0,201.92,20.7Z"/><path class="cls-6" d="M201.92,20.7a25.17,25.17,0,0,1-.83,4.2,7.4,7.4,0,0,1-.44,2,2.44,2.44,0,0,1-2.29-.61C197.21,25,196,25.18,194.69,26a1.53,1.53,0,0,0-1.32.14,2.88,2.88,0,0,1-1.71.48,5,5,0,0,0-3,.75.58.58,0,0,1-.74-.06,1.23,1.23,0,0,1-.59-1.26c.19-1.24.33-2.48.46-3.72s.52-1.58,1.89-1.7c.43,0,.74-.16.83-.62.38-.08.75-.15,1.12-.24.56-.15,1.14-.31,1.18-1,0-.54-.35-.83-1.27-1.08a7.82,7.82,0,0,0-2.16-.16c-1.86,0-1.62-.05-1.67-1.59a16,16,0,0,1,1-6.39,5.84,5.84,0,0,1,2.64-3,12.05,12.05,0,0,1,10-.9,5.7,5.7,0,0,1,4.08,4.11,6.87,6.87,0,0,1-2.09,7.18,22.47,22.47,0,0,1-2.43,1.64,3.08,3.08,0,0,0-.48.32c-.36.34-.35.63.09.91A6.53,6.53,0,0,1,201.92,20.7Z"/><path class="cls-9" d="M186.42,27.46a12.46,12.46,0,0,1-3.76,0,13.53,13.53,0,0,1-3.1-1.06c-1.76-.76-2.56-2.31-3.3-3.89a30.34,30.34,0,0,1-2.53-9.55,57.85,57.85,0,0,1-.2-7,3.26,3.26,0,0,1,1.72-3,7.3,7.3,0,0,1,2.89-1,6.37,6.37,0,0,1,3.78,1,2.5,2.5,0,0,1,1,1.86c.54,2.77,1.07,5.53,1.61,8.3a41.93,41.93,0,0,0,1.05,4.43,4.82,4.82,0,0,0,1.78,2.59C187.13,22.6,186.59,25,186.42,27.46Z"/><path class="cls-11" d="M186.42,27.46c.17-2.46.71-4.86.94-7.3a13.75,13.75,0,0,1,3.14-.2c-.1.46-.41.58-.84.62-1.37.12-1.76.42-1.89,1.7s-.27,2.48-.46,3.72a1.23,1.23,0,0,0,.59,1.26.58.58,0,0,0,.74.06,5,5,0,0,1,3-.75,2.88,2.88,0,0,0,1.71-.48,1.53,1.53,0,0,1,1.32-.14c-.26.54-.81.65-1.3.83a21.46,21.46,0,0,1-6.12.93A1.42,1.42,0,0,1,186.42,27.46Z"/><path class="cls-14" d="M152.21,13.32a20.27,20.27,0,0,0,5.46-.72,3.39,3.39,0,0,0,.75-.28c1.31-.67,1.92-1.35.9-2.86a4.35,4.35,0,0,1,0-4.77A3.51,3.51,0,0,1,163,3.1,5.59,5.59,0,0,1,167.08,6a15.68,15.68,0,0,1,2,7.1A6.56,6.56,0,0,1,166,18.83a19.71,19.71,0,0,1-7.85,3,6.7,6.7,0,0,1-3.91-.23,5,5,0,0,0-3.78.14,11.12,11.12,0,0,1-10.35-1.23A5.73,5.73,0,0,1,137.42,16a18.59,18.59,0,0,1,.94-8.43,6.24,6.24,0,0,1,4.36-4.17,5,5,0,0,1,2-.13,1.68,1.68,0,0,1,1.56,1.43,4,4,0,0,1-.33,3.2,3,3,0,0,0,1.3,4.37,9.73,9.73,0,0,0,4.06,1.07A8,8,0,0,0,152.21,13.32Z"/><path class="cls-14" d="M151.84,28.61a3.66,3.66,0,0,1-3.17-1.41,2.12,2.12,0,0,1,.62-3.37c1.87-1,3.78-1.4,5.74-.23a2.28,2.28,0,0,1,.17,4A6,6,0,0,1,151.84,28.61Z"/><path class="cls-2" d="M156.93,43c.48-1.47.92-2.8,1.33-4.14a2.55,2.55,0,0,1,2-1.84,1.52,1.52,0,0,1,2,1.27,8.88,8.88,0,0,1,0,3.29,49.16,49.16,0,0,1-3.18,10.7A11,11,0,0,1,157,55.48a2.92,2.92,0,0,1-4.85-.64,10.5,10.5,0,0,1-1-2.79,20.44,20.44,0,0,1-.51-3.38c0-.34,0-.76-.43-.8s-.49.4-.59.71c-.54,1.63-.82,3.32-1.22,5a8.5,8.5,0,0,1-.37,1.31,2.54,2.54,0,0,1-2,1.65c-1,.17-1.59-.2-1.72-1.18a11.57,11.57,0,0,1,.14-4.76c.91-3.19,1.87-6.35,3.09-9.43a18.56,18.56,0,0,1,.88-1.86,3.42,3.42,0,0,1,1.35-1.51c2.12-1.11,3.28-.93,4.62.5a7.54,7.54,0,0,1,1.83,3.12A2.81,2.81,0,0,0,156.93,43Z"/><path class="cls-13" d="M119.59,6.35c0-.38,0-.76-.06-1.14a3.07,3.07,0,0,1,1.37-2.85,6,6,0,0,1,5.95-.79,2.63,2.63,0,0,1,1.64,1.93,128.3,128.3,0,0,1,2.76,13.17,50.52,50.52,0,0,1,.52,5.34,7.65,7.65,0,0,1-.29,2.6,2.61,2.61,0,0,1-.83,1.33c-2.6,2.08-6,2.42-8.07-.84A12.54,12.54,0,0,1,121,21a44.22,44.22,0,0,1-1-7.33c-.13-2.43-.3-4.86-.45-7.29Z"/><path class="cls-13" d="M238.11,23.19a2.36,2.36,0,0,0,0,.46c.46,2.94-1.68,4-3.55,4.44a7.25,7.25,0,0,1-3.4-.08,4.85,4.85,0,0,1-3.37-2.82,23.75,23.75,0,0,1-1.86-6.91A106.26,106.26,0,0,1,224.73,6.6c0-.68-.11-1.36-.17-2a2.13,2.13,0,0,1,1.22-2.15,8.52,8.52,0,0,1,6.86-.59,2.55,2.55,0,0,1,1.61,1.92C234.91,6,235.48,8.3,236,10.6c.67,2.89,1.24,5.8,1.74,8.73A26.13,26.13,0,0,1,238.11,23.19Z"/><path class="cls-1" d="M123.09,49.4c-.37-.08-1,.27-1.26-.29s.3-.87.57-1.24a17.23,17.23,0,0,1,1.23-1.48,1.91,1.91,0,0,1,.81-.59c.46-.15.76,0,.76.52a11.13,11.13,0,0,1-.35,2.57.62.62,0,0,1-.66.51Z"/><path class="cls-1" d="M193.89,48.07a1.11,1.11,0,0,1-1.06-.77c-.5-1.37,1.21-3.53,2.65-3.34a1.22,1.22,0,0,1,1.16,1.3A3,3,0,0,1,193.89,48.07Zm.57-1.52a1.27,1.27,0,0,0,.65-.58.19.19,0,0,0-.15-.25c-.33-.07-.79.34-.73.66A.2.2,0,0,0,194.46,46.55Z"/><path class="cls-1" d="M12.92,47.28c0,.09-.05.28-.07.47-.13,1.16-.14,1.18-1.28.88a7.7,7.7,0,0,0-1.35-.12c-.56,0-.65-.19-.49-.73a1.48,1.48,0,0,1,.28-.61,9.2,9.2,0,0,0,1.14-1.68.92.92,0,0,1,1-.54c.44.1.54.49.59.88S12.87,46.73,12.92,47.28Z"/><path class="cls-11" d="M194.46,46.55a.2.2,0,0,1-.23-.17c-.06-.32.4-.73.73-.66a.19.19,0,0,1,.15.25A1.27,1.27,0,0,1,194.46,46.55Z"/></g></g></svg>