<svg xmlns="http://www.w3.org/2000/svg" viewBox="0 0 210.85 50.13"><defs><style>.cls-1{fill:#fff;}</style></defs><g id="Layer_2" data-name="Layer 2"><g id="Layer_1-2" data-name="Layer 1"><path class="cls-1" d="M117.11,33.05c-3.1-7.46-22,15.08-16.6,16.49,3.74-.46,2.31-2.86,6.87-1.89,3-1.32,1.11,1.12,2.87,1.87C117.64,50.55,119.1,38.18,117.11,33.05ZM110,43.3c-.18.7-1,.38-1.56.44h0C104.8,44.6,112.1,36.4,110,43.3Z"/><path class="cls-1" d="M81.58,39.29c-1.41-.47-4.59-1.5-2-3,.56,0,.61.44.77.8,1.09,3.27,6.12.87,5.57-1.89-2-8.54-17.74.15-12.41,6,.73.72,2.24.28,2.53,1.4s-1.72,2.51-2.27,1.26a3,3,0,0,0-4.32-.21c-2.89,7.24,8,7.7,11.38,3.39C83,45.25,85.05,40.83,81.58,39.29Z"/><path class="cls-1" d="M67.74,33c-5.53-3.09-2.16,6.19-4.93,8.33-.9,1.37-4.41,2.79-4.64.25-.1-3.41,3.39-5.4,4.58-8.26-2.31-4.15-8.41,5-9.46,7.41C46.49,58.47,75.25,46.32,67.74,33Z"/><path class="cls-1" d="M97.32,39.07c-.58-.71-2-2.15-.23-2.33,1.25,0,2.84.85,3.53-.71,1.24-2.67-3.11-3.85-5.1-3.62-3.88.31-10.06,4.68-6.25,8.68,3,3,.73,4.76-2.73,3.76-2.78-.66-3.64,2.65-1.79,4.16C90.43,52.44,103.25,45.92,97.32,39.07Z"/><path class="cls-1" d="M127.54,33.93c-5.38-7.22-10,10.72-8.58,14.6C121.94,54.26,128.26,36.46,127.54,33.93Z"/><path class="cls-1" d="M38.87,23.07c1.5-3.1-3.47-4-5.21-2.23-1.66.56-3.47-2.77-6.7.45-2.49,3.14,2.7,5.08,4.77,2.74,1.14-1.11,1.8,1.51,3.28,1.06C36.58,25,38,24.56,38.87,23.07Z"/><path class="cls-1" d="M13.86,4.57c2.55.66,9.86-1.92,5.07-4.39C15.94-.65,8.37,1.46,13.86,4.57Z"/><path class="cls-1" d="M180,36c-3.65-11.12-18.55,2.27-15.69,10.13C169,55.67,181.8,43.56,180,36Zm-8.57,6.56c-2.31-.39-.22-4,1.41-3.66C175.13,39.44,173.15,42.67,171.42,42.57Z"/><path class="cls-1" d="M197.41,35.89c2.57-3.37-1.18-5.48-4-3.21-1.4.55-3.43,6.2-4.65,3.66-.14-3-2.8-6.74-5.76-3.85-4.34,4.51,1.18,6.62,0,9.9-1.28,1.89-2.82,3.71-3.52,5.91-.4,1.18.78,1.44,1.71,1.33,4.58.4,7.61-3.22,8.93-7.22a1.2,1.2,0,0,1,.93-.81C193.91,40.78,195.85,38.28,197.41,35.89Z"/><path class="cls-1" d="M164.71,32.35c-5.56-.36-14.47-2.76-15,5.23-.19,1,1.2.65,1.83.73,1.51,0,1.7.3,1,1.67a39.06,39.06,0,0,0-2.83,7.7c-.28,1.15-.13,1.44,1,1.76,6.25,2.11,8.17-5.11,9.05-9.84.3-2.24,3-.47,4.08-1.46C164.62,36.9,166.87,32.78,164.71,32.35Z"/><path class="cls-1" d="M210.19,33.67c-4-4.09-15.27,1.45-11.08,7.17.61,1,2.76,2.5,1.27,3.61-1.52,1.7-3.73-1-5.15.83-1,.7-1.82,2.14-.57,3,6.77,4.54,19.62-3.42,11.58-10.78-.37-1.28,1.3-.91,2-.61C210.13,37.79,211.82,35,210.19,33.67Z"/><path class="cls-1" d="M52.12,33.64c-1-3.29-6-.57-6.72,1.82-.85,1.78-1.11,3.89-1.93,5.63-.33.25-.58-.27-.92-.23-2.3.17,2.36-4.93,1.56-6.74a1.74,1.74,0,0,0-1.31-1.73c-7.13-.94-7.51,9.71-9.11,14.61-.37,5.16,3.76,1.45,4.88-1,.66-.76,1.55.43,2.38,0,2.2-.84.95,1.32,1.35,2.57C44.3,53.65,53.27,35.43,52.12,33.64Z"/><path class="cls-1" d="M13,32.35C7.08,30.41-7.26,56.67,4.49,47.76a1.74,1.74,0,0,1,1.8-.64c1.25.73,3.19-.82,4,.27.34.83.63,2.08,1.62,2.3C19.42,50.6,19.28,33.1,13,32.35Zm-2.59,9.93c.08,1.69-1.32.48-2.34.68C6.29,43.06,11,36.26,10.42,42.28Z"/><path class="cls-1" d="M31.2,43.62c-1.68-.23-3.53.9-5.06.51.24-3.47,4.56-6.39,4-10.22-.15-1.45-1.7-1.59-2.87-1.6-5.51,0-5.71,7.13-7.11,11.07-7.27,8,6.6,8.09,10.69,4.16C31.76,46.79,33.1,43.76,31.2,43.62Z"/><path class="cls-1" d="M177.45,23.61c-.57.48-1.38,0-1.91-.36-4.53-2.23-11.07,3.41-16.87,0-4.46-2.12-7.66-17.74-3.83-20.82,8.65-4.49,7.23,8,9.19,13a4.45,4.45,0,0,0,2.26,2.77c1.07.42,5.9-1.41,3.39-2.62-1.31-.73-4.16.7-3.77-1.68-1.09-7.07,5.76-11.69,12.17-9.18,4.35,1.11,5.13,7.31,1.77,10-1.56,1.46-4.39,1.64-1.29,3.45,9.43.71,5.95-9.12,3.47-14.47-.63-3.48,5.55-3.27,7.63-2.08,4.38,3,4.6,9.47,5.1,14.32.59,8.12-10.61,10.19-16.71,8.49C177.64,24.41,177.51,24,177.45,23.61Z"/><path class="cls-1" d="M144,2.57c-3-.63-5,3.32-3.29,5.65,2.2,4.24-8.62,3.92-10.7,2.49-3.26-1.69-.1-4.25-.86-6.73-.23-1.48-2.06-1.47-3.2-1.16-4.62,1.29-5,7.19-4.71,11.21.57,5.13,7.31,6.78,11.55,5.08,2.25-1.18,4.53.83,6.85.07,4.12-.71,9.88-2.73,9.74-7.76C149.11,8,147.94,3.21,144,2.57Z"/><path class="cls-1" d="M134,25.26c2.45.34,5.81-2.65,2.83-4.46C132.37,18,127.24,24.5,134,25.26Z"/><path class="cls-1" d="M143.22,33.48c-2.69-3-4.1,2.45-4.67,4.55-6.33-17.37-14.91,13.48-9.72,12.06,3.38-.76,1.72-6,3.74-7.71C135.6,60.79,144.4,41.61,143.22,33.48Z"/><path class="cls-1" d="M4.07,21.16c6.76,6.35,18.49,3.43,24.09-2.95h0c2.65,1.34,6.1-.08,8.62-1.36l0,0a7.29,7.29,0,0,0,11.11,2.54c.78-.85,1.25-.24,1.86.44,4.75,3.55,7-2.69,7.69-.74,1.74,2.07,4.32,1.81,6.28.35-.54,4,15.36,1.82,17.85.45,12.89,9.42,25.2-2,18.13-16.19-.91-3.5-10.29-4.94-10.09-.6,1.89,3.52,5.26,11.55-1.48,11.53C91.71,4.49,75.72,1,69,5.28,66.93,6.46,66.7,9,67.67,11c.21,1.37,6.19-1.17,8.46-.33,7.81,2.3-9,4.13-10.82,3.3-.24-2.54.07-5.64-2.4-7.19-1.48-1.11-3.86,0-3.32,2,.43,1.35.16,4.21-1.87,3.08-1.72-1.3-.43-4.29-2.55-5.26-1.1-.46-3.37-.64-3.33,1.05-.46,1.55,1.3,3.71-.47,4.72-3.1.53-1.8-5.14-4.67-5.59-4.46-.81-3.18,2.51-2.78,5.28,0,2.49-3,2.17-4.18.63C41,9.12,37.43.51,34.41,7c-.8,3.74-1.2,3.72-4.58,4.81.43-4.76-4-8.13-9.1-5.18-1.32,1.19.84,2.5.81,3.83.26,2.58-1.5,5.18-3.85,5.58-2,.45-4,1-5.94,0-3-1.7-.53-5,.6-7.09S10.29,5.76,8.59,5.89C1.73,6.32,0,16.76,4.07,21.16Z"/><path class="cls-1" d="M104.87,5.19h0c.5,6-.22,23.59,9.88,17.43,2.48-2.11-.73-20.23-3.38-21.68C108.42-.37,104,1.57,104.87,5.19Z"/><path class="cls-1" d="M198.84,5.69C200,11.9,198,26,207.59,24.8c7.12-1.13.33-16.82-.28-21.66C205.88-.84,197,.85,198.84,5.69Z"/></g></g></svg>