<svg xmlns="http://www.w3.org/2000/svg" viewBox="0 0 255.32 77.1"><defs><style>.cls-1{fill:#fff;}</style></defs><g id="Layer_2" data-name="Layer 2"><g id="Layer_1-2" data-name="Layer 1"><g id="Group_214" data-name="Group 214"><path id="Path_459" data-name="Path 459" class="cls-1" d="M54.06,7.77c.11-.25.22-.51.34-.77a10.92,10.92,0,0,1,4.32-5.15,10.3,10.3,0,0,1,5-1.43,12.31,12.31,0,0,1,4.18.43,9.46,9.46,0,0,1,4.93,3.62,17.48,17.48,0,0,1,1.59,2.71,1.33,1.33,0,0,0,.35.59,13,13,0,0,1,1.68-3A10.89,10.89,0,0,1,83.7.54a12,12,0,0,1,7.47,1.2,9.88,9.88,0,0,1,5.35,7.58,28.24,28.24,0,0,1,.28,4.41q0,14.49,0,29a3.73,3.73,0,0,1,0,.67,1.44,1.44,0,0,1-1.45,1.32q-4,0-8,0a1.42,1.42,0,0,1-1.42-1.41c0-.22,0-.44,0-.67q0-12.27,0-24.55a21.62,21.62,0,0,0-.25-3.94,5.3,5.3,0,0,0-.47-1.39,4,4,0,0,0-3.56-2.12A5.3,5.3,0,0,0,76,15a21.18,21.18,0,0,0-.4,4.13q0,11.67,0,23.34c0,.22,0,.45,0,.67a1.45,1.45,0,0,1-1.38,1.54.54.54,0,0,1-.18,0c-2,0-4,0-6,0-.54,0-1.08,0-1.61,0a1.58,1.58,0,0,1-1.67-1.5.49.49,0,0,1,0-.17c0-2.88,0-5.76,0-8.65q0-8,0-16.1a14.88,14.88,0,0,0-.56-4.64,4,4,0,0,0-2.46-2.81c-2.27-.8-5.3-.28-6.43,2.79a13.47,13.47,0,0,0-.75,3.66c-.09,1.25-.12,2.5-.12,3.76q0,10.83,0,21.66v.14a1.62,1.62,0,0,1-1.33,1.87,1.57,1.57,0,0,1-.53,0c-2.41-.06-4.83-.06-7.24,0a1.68,1.68,0,0,1-1.8-1.54,2.81,2.81,0,0,1,0-.29q0-19.89,0-39.78c0-1.31.56-1.87,1.88-1.87h6.71c1.23,0,1.79.57,1.8,1.81V7.73Z"/><path id="Path_460" data-name="Path 460" class="cls-1" d="M24.94,39.59a1.62,1.62,0,0,0-.53.44,22.94,22.94,0,0,1-3.61,3,13.58,13.58,0,0,1-5.94,2.09,21.75,21.75,0,0,1-4.42.09c-4.8-.45-8.7-3.14-10-8.47A15.38,15.38,0,0,1,1,27.51a13.38,13.38,0,0,1,7.66-7.63,26.48,26.48,0,0,1,5.92-1.61c2.62-.45,5.27-.7,7.91-.95l.14,0c.7-.08.7-.08.7-.81,0-1,0-2-.07-3.08a7.26,7.26,0,0,0-.21-1.32,4.57,4.57,0,0,0-4.31-3.6,7.07,7.07,0,0,0-3.92.6,5.49,5.49,0,0,0-3.11,3.72,4.65,4.65,0,0,1-.3,1,1.42,1.42,0,0,1-1.58.84l-7-.77a1.44,1.44,0,0,1-1.5-1.39A1.61,1.61,0,0,1,1.4,12,13.93,13.93,0,0,1,4,6,14.62,14.62,0,0,1,11.45,1.1a25,25,0,0,1,9.87-1A18.71,18.71,0,0,1,28.11,2a10.74,10.74,0,0,1,6.16,9,46.81,46.81,0,0,1,.2,4.89c0,4.6,0,9.21,0,13.81a9.83,9.83,0,0,0,2,6.31c.29.37.56.76.83,1.14a3.4,3.4,0,0,1,.38.63,1.31,1.31,0,0,1-.39,1.73c-1.2,1-2.41,2.07-3.6,3.11-.71.62-1.41,1.25-2.12,1.86a1.93,1.93,0,0,1-1.19.56,1.67,1.67,0,0,1-1.23-.4A17.09,17.09,0,0,1,26,41.19C25.67,40.65,25.3,40.12,24.94,39.59Zm-1.61-13c0-.89,0-1.72,0-2.54,0-.34-.12-.42-.43-.41a26.53,26.53,0,0,0-2.67.14,14.83,14.83,0,0,0-4.15,1,6.61,6.61,0,0,0-4.17,4.49,8.81,8.81,0,0,0-.28,1.92,7.19,7.19,0,0,0,.73,3.76,4.18,4.18,0,0,0,3.37,2.33,5.53,5.53,0,0,0,4.44-1.44,9.14,9.14,0,0,0,2.68-4.55,19.27,19.27,0,0,0,.48-4.66Z"/><path id="Path_461" data-name="Path 461" class="cls-1" d="M128.47,39.54a28.94,28.94,0,0,1-3.38,3,13.5,13.5,0,0,1-6.72,2.59,21.58,21.58,0,0,1-5.08,0,10.49,10.49,0,0,1-9.18-8.1,15.49,15.49,0,0,1,.25-8.92A13.2,13.2,0,0,1,111.91,20a25.84,25.84,0,0,1,6.28-1.76c2.63-.44,5.27-.69,7.92-1h.06c.7-.07.71-.07.7-.8a25.18,25.18,0,0,0-.14-3.88,4.69,4.69,0,0,0-4.68-4.15,7.11,7.11,0,0,0-3.47.53,5.48,5.48,0,0,0-3.28,3.73,6.69,6.69,0,0,1-.27.9,1.45,1.45,0,0,1-1.7,1c-2-.23-4-.44-6-.65l-1.13-.13a1.39,1.39,0,0,1-1.29-1.48.85.85,0,0,1,0-.23,13.29,13.29,0,0,1,7.15-9.8,20,20,0,0,1,6.6-2,26.32,26.32,0,0,1,5-.24A19.16,19.16,0,0,1,132,2.16a10.58,10.58,0,0,1,5.73,8.16,35.4,35.4,0,0,1,.28,5.35q0,7.11,0,14.22a9.47,9.47,0,0,0,1.78,5.7c.37.51.74,1,1.1,1.52a2.2,2.2,0,0,1,.46,1,1.28,1.28,0,0,1-.43,1.32L135,44.53a1.8,1.8,0,0,1-2.37,0,19,19,0,0,1-3.37-3.8C129,40.33,128.76,40,128.47,39.54Zm-1.6-13.17c0-.78,0-1.57,0-2.35,0-.32-.08-.42-.41-.42a21.57,21.57,0,0,0-5.25.59,9,9,0,0,0-4,2c-2.57,2.3-2.54,6.9-1.15,9A4.23,4.23,0,0,0,119,37.17a5.38,5.38,0,0,0,4.36-1.06,8.82,8.82,0,0,0,3.13-5,17,17,0,0,0,.43-4.72Z"/><path id="Path_462" data-name="Path 462" class="cls-1" d="M233.25,8.52c.19-.42.37-.84.57-1.26a14.89,14.89,0,0,1,2.46-3.81A9.24,9.24,0,0,1,241.94.54a12.93,12.93,0,0,1,5.7.36A9.8,9.8,0,0,1,254.46,8a24.31,24.31,0,0,1,.8,5.56c.05,1.07.05,2.15.06,3.22v26.5a1.44,1.44,0,0,1-1.41,1.41h-.4c-2.44,0-4.88,0-7.32,0a1.67,1.67,0,0,1-1.77-1.55.88.88,0,0,1,0-.23c0-8,0-16,0-23.94a21.21,21.21,0,0,0-.3-4.21,6.87,6.87,0,0,0-1-2.55,3.85,3.85,0,0,0-3.07-1.78,4.88,4.88,0,0,0-5,2.92,11.59,11.59,0,0,0-1.19,4,32,32,0,0,0-.23,4.48V42.61c0,.23,0,.45,0,.67a1.46,1.46,0,0,1-1.42,1.41h-.4c-2.42,0-4.83,0-7.25,0a1.69,1.69,0,0,1-1.81-1.54,1.31,1.31,0,0,1,0-.28c0-4.54,0-9.08,0-13.62V2.92a1.54,1.54,0,0,1,1.39-1.68,1.22,1.22,0,0,1,.27,0c2.22,0,4.43,0,6.65,0h.4a1.49,1.49,0,0,1,1.6,1.36,1.31,1.31,0,0,1,0,.28V8.51Z"/><path id="Path_463" data-name="Path 463" class="cls-1" d="M181.08,22.91a30.62,30.62,0,0,1,2.14-11.62A18.24,18.24,0,0,1,189,3.59,15.34,15.34,0,0,1,196.69.53a17.7,17.7,0,0,1,8.62,1,16.41,16.41,0,0,1,8.37,7.57,25.27,25.27,0,0,1,2.81,8.26,33.36,33.36,0,0,1,.4,8.35,24.13,24.13,0,0,1-5,13.56,15.8,15.8,0,0,1-10,6c-6.62,1.06-13-1.12-17-7.57a24.73,24.73,0,0,1-3.24-8.8A35.86,35.86,0,0,1,181.08,22.91Zm11.69-.64a46.86,46.86,0,0,0,.65,8.44,11.48,11.48,0,0,0,1.69,4.4A4.6,4.6,0,0,0,200.34,37a5.09,5.09,0,0,0,3.16-2.61,12.67,12.67,0,0,0,1.32-4.05,33.91,33.91,0,0,0,.45-5.87,50.21,50.21,0,0,0-.58-9.41,14.33,14.33,0,0,0-.95-3.34,4.59,4.59,0,0,0-2.39-2.51,5.84,5.84,0,0,0-3.93-.23,4.94,4.94,0,0,0-2.93,2.5,13,13,0,0,0-1.35,4.39A47.68,47.68,0,0,0,192.77,22.27Z"/><path id="Path_464" data-name="Path 464" class="cls-1" d="M104.13,77.1a109.25,109.25,0,0,1-14.68-1,98.86,98.86,0,0,1-30.52-9.39A98.82,98.82,0,0,1,36.72,51.61a2.24,2.24,0,0,1-.65-.84,1.12,1.12,0,0,1,.53-1.47,1.28,1.28,0,0,1,.55-.1,2.21,2.21,0,0,1,1.13.38q3.94,2.3,8,4.28a133.38,133.38,0,0,0,28.11,9.9q5.94,1.38,12,2.23c3.26.45,6.52.78,9.8,1,4.38.3,8.76.34,13.14.22,2.48-.07,5-.24,7.43-.48s5.2-.57,7.78-1a132.91,132.91,0,0,0,14.93-3.16A126.75,126.75,0,0,0,156,56.91a3.34,3.34,0,0,1,1.76-.3,1.91,1.91,0,0,1,1.6,1.17,1.84,1.84,0,0,1-.34,1.94,4.57,4.57,0,0,1-.9.8,77.26,77.26,0,0,1-15.36,8.56,100.56,100.56,0,0,1-20,6.08,107.35,107.35,0,0,1-10.87,1.57C109,77,106.2,77.08,104.13,77.1Z"/><path id="Path_465" data-name="Path 465" class="cls-1" d="M162.53,9.92h-13a5,5,0,0,1-.67,0,1.44,1.44,0,0,1-1.26-1.5c0-1,0-1.93,0-2.89s0-1.79,0-2.68a1.51,1.51,0,0,1,1.28-1.72,1.42,1.42,0,0,1,.46,0c2.5,0,5,0,7.51,0h17.64a6.1,6.1,0,0,1,.74,0,1.41,1.41,0,0,1,1.32,1.5c0,1.63,0,3.26,0,4.9a2.82,2.82,0,0,1-.39,1.33A16.19,16.19,0,0,1,175,10.68L161.58,29.9c-.12.16-.22.32-.4.57h1.13A30.72,30.72,0,0,1,172.06,32a24.86,24.86,0,0,1,3.67,1.6,2.76,2.76,0,0,1,1.6,2.65c0,1.92,0,3.84,0,5.77a1.71,1.71,0,0,1-.23,1,1.28,1.28,0,0,1-1.72.56l-.13-.07a28.45,28.45,0,0,0-6-2.29,30.33,30.33,0,0,0-8.9-.91,28.91,28.91,0,0,0-12.17,3.24,1.33,1.33,0,0,1-1.81-.48,1.31,1.31,0,0,1-.15-.37,1.89,1.89,0,0,1-.08-.53c0-2.3-.06-4.6.05-6.9A6,6,0,0,1,147.26,32l14.92-21.45A1.41,1.41,0,0,0,162.53,9.92Z"/><path id="Path_466" data-name="Path 466" class="cls-1" d="M161.75,46.53a25.5,25.5,0,0,1,7.17.84,8.48,8.48,0,0,1,1.37.54,1.77,1.77,0,0,1,1,1.28,10.56,10.56,0,0,1,.1,3.41,32.19,32.19,0,0,1-4,12.48,21.32,21.32,0,0,1-4.68,5.83,2.36,2.36,0,0,1-1,.61c-.81.19-1.28-.28-1.06-1.08a6.21,6.21,0,0,1,.3-.82,91.05,91.05,0,0,0,3.45-9.93,23,23,0,0,0,.7-3.68,5.35,5.35,0,0,0,0-.8,2.54,2.54,0,0,0-2.23-2.94,13.75,13.75,0,0,0-3.32-.44,54.41,54.41,0,0,0-7.76.34l-4.4.45a2.51,2.51,0,0,1-.67,0,.73.73,0,0,1-.67-.78.92.92,0,0,1,.08-.27,2.14,2.14,0,0,1,.88-1,19.79,19.79,0,0,1,4.69-2.4,29.41,29.41,0,0,1,6.92-1.51C159.72,46.57,160.84,46.56,161.75,46.53Z"/></g></g></g></svg>