<svg xmlns="http://www.w3.org/2000/svg" viewBox="0 0 252.54 87.02"><defs><style>.cls-1{fill:none;}.cls-2{fill:#fff;}</style></defs><g id="Layer_2" data-name="Layer 2"><g id="Layer_1-2" data-name="Layer 1"><path class="cls-1" d="M148.39,48.38a80.5,80.5,0,0,1-8.84,2.11h-.07l-.44.08-.2,0-.39.06-.26,0-.36.05-.31,0-.34.05-.34,0-.32,0-.37.05-.31,0-.4,0-.3,0-.41.05-.29,0-.44,0-.28,0-.47,0-.26,0-.51,0-.22,0-.6,0h-.15q-.75.06-1.53.09h-.1l-.66,0H129l-.53,0h-3.13l-.41,0h-.37l-.44,0h-.35l-.46,0-.33,0-.49,0-.28,0-.54,0-.21,0-.6,0-.12,0a42.73,42.73,0,0,1-14.79-4.15.89.89,0,0,0-1.22.74.72.72,0,0,0,0,.32,25,25,0,0,0,4,7.75,20.06,20.06,0,0,0,12.36,7.14,29.48,29.48,0,0,0,13.57-.31,22.11,22.11,0,0,0,13.1-10.17c.59-1,1.13-2,1.67-3a1.19,1.19,0,0,0,.1-.32A.93.93,0,0,0,148.39,48.38Z"/><path class="cls-2" d="M127.5,15.39a27,27,0,1,0,27,27A27,27,0,0,0,127.5,15.39Zm4.37,20.8a6.1,6.1,0,0,1,4.77-4.52,6.45,6.45,0,0,1,7.83,6.42,2.28,2.28,0,0,1-.1.95h0a.62.62,0,0,1-1.12-.12v-.05a.82.82,0,0,1,0-.44,5.26,5.26,0,0,0-10.16-2.3c-.06.15-.07.35-.18.44l-.17.13a.55.55,0,0,1-.88-.42A.28.28,0,0,1,131.87,36.19Zm-19-3A6.31,6.31,0,0,1,125,36.08c-.05.37-.94.2-.94-.2a5.41,5.41,0,0,0-4.26-5.73,5.36,5.36,0,0,0-6.15,3.41h0a.47.47,0,0,1-.88-.27A.43.43,0,0,1,112.83,33.19Zm37,15.73a2.72,2.72,0,0,1-.32.46,1.19,1.19,0,0,1-.1.32c-.54,1-1.08,2-1.67,3a22.11,22.11,0,0,1-13.1,10.17,29.48,29.48,0,0,1-13.57.31A20.06,20.06,0,0,1,108.75,56a25,25,0,0,1-4-7.75.72.72,0,0,1,0-.32c-.09-.18-.17-.36-.25-.54a.49.49,0,0,1,.71-.59l.76.39.07,0a42.74,42.74,0,0,0,14.72,4.12l.12,0,.6,0,.21,0,.54,0,.28,0,.49,0,.33,0,.46,0h.35l.44,0h.37l.41,0h3.13l.53,0h.24l.66,0h.1q.78,0,1.53-.09h.15l.6,0,.22,0,.51,0,.26,0,.47,0,.28,0,.44,0,.29,0,.41-.05.3,0,.4,0,.31,0,.37-.05.32,0,.34,0,.34-.05.31,0,.36-.05.26,0,.39-.06.2,0,.44-.08h.07a78.63,78.63,0,0,0,8.82-2.1h0l.87-.27a.53.53,0,0,1,.63.76Z"/><path class="cls-2" d="M106,47.25l-.07,0a42.73,42.73,0,0,0,14.79,4.15A42.74,42.74,0,0,1,106,47.25Z"/><path class="cls-2" d="M148.37,48.39a78.63,78.63,0,0,1-8.82,2.1,80.5,80.5,0,0,0,8.84-2.11Z"/><path class="cls-2" d="M149.26,48.11l-.87.27a.93.93,0,0,1,1.16,1,2.72,2.72,0,0,0,.32-.46l0-.05A.53.53,0,0,0,149.26,48.11Z"/><path class="cls-2" d="M105.93,47.22l-.76-.39a.49.49,0,0,0-.71.59c.08.18.16.36.25.54A.89.89,0,0,1,105.93,47.22Z"/><path class="cls-2" d="M220,60.08H207.76a8,8,0,0,1,2.85-5.94,5.43,5.43,0,0,1,6.47-.52A6.31,6.31,0,0,1,220,60.08Z"/><path class="cls-2" d="M194,52.11a4.22,4.22,0,0,1,3.73,2.71,3.66,3.66,0,0,1-1.15,4.07,2.08,2.08,0,0,1-2.43.32,5.66,5.66,0,0,1-2.94-3.3A2.82,2.82,0,0,1,194,52.11Z"/><path class="cls-2" d="M28.42,33.11c0,3.84-2.78,6.17-6,4.9a2.59,2.59,0,0,1-1.54-1.48c-.42-2.4-.54-4.83,1.19-6.91a3.73,3.73,0,0,1,4.11-1.19c1.55.41,2,1.81,2.25,3.24A8.65,8.65,0,0,1,28.42,33.11Z"/><path class="cls-2" d="M59.17,33.12c0,3.83-2.81,6.17-6,4.89a2.66,2.66,0,0,1-1.53-1.5c-.41-2.36-.56-4.77,1.14-6.8A3.77,3.77,0,0,1,57,28.45a3.71,3.71,0,0,1,2.13,3.48C59.2,32.32,59.17,32.73,59.17,33.12Z"/><path class="cls-2" d="M79.24,63.08l-.72,0c-2.58-.13-3.75-1.45-3.64-4.13A4,4,0,0,1,79,55.23a3.85,3.85,0,0,1,3.66,4.08c0,.24-.05.48-.07.72C82.37,62.6,81.82,63.1,79.24,63.08Z"/><path class="cls-2" d="M52.41,58.7c-.13,1.54-.22,2.8-1.28,3.82a3.67,3.67,0,0,1-2.8,1c-.95,0-1.75-.33-2-1.36a1.91,1.91,0,0,1,1.25-2.51C49.15,59.25,50.75,59,52.41,58.7Z"/><path class="cls-2" d="M41.7,33.49c.51,2.9-1.43,5.09-4,4.85a2,2,0,0,1-.79-3.75C38.47,34.1,40.1,33.84,41.7,33.49Z"/><path class="cls-2" d="M178.22,36.15a5.51,5.51,0,0,1-5.32-5.27,3.71,3.71,0,0,1,3.9-3.8,5.46,5.46,0,0,1,5.35,5.35A3.61,3.61,0,0,1,178.22,36.15Z"/><path class="cls-1" d="M178.35,23.32a1.57,1.57,0,0,0,1.78-1.74,1.83,1.83,0,0,0-2-2,1.73,1.73,0,0,0-2,1.73A2,2,0,0,0,178.35,23.32Z"/><path class="cls-1" d="M64.73,48.28c2.83.1,4.46-1.6,5.54-3.86,2.31-4.82,4.48-9.71,6.7-14.58.59-1.29,1.14-2.6,1.85-4.23-.95,0-1.54.05-2.12,0a1.56,1.56,0,0,0-1.86,1.24c-.63,1.68-1.37,3.31-2.08,5L70.52,37c-.23-.71-.36-1.13-.48-1.55-.86-2.86-1.68-5.74-2.58-8.59-.14-.46-.56-1.09-.94-1.17a15.73,15.73,0,0,0-2.86-.05c.12.51.17.86.28,1.18,1.41,4.24,2.84,8.47,4.26,12.71.14.41.45.94.31,1.24a15.48,15.48,0,0,1-2.25,4c-.53.58-1.87.41-3.07.62,0,.16-.11.61-.14,1.07C63,48.12,63.09,48.22,64.73,48.28Z"/><path class="cls-1" d="M174.19,23.31a1.57,1.57,0,0,0,1.86-1.66,2,2,0,0,0-4-.44A2,2,0,0,0,174.19,23.31Z"/><path class="cls-1" d="M50.62,40.53c2.59,1.37,7.53,1.24,10-1.8s2.35-6.51,1.08-10C60.72,26,59,25,56.07,25.11a30.6,30.6,0,0,0-4.2.81c.11-2,.23-4.05.33-6.12a2.45,2.45,0,0,0-.12-1,12.23,12.23,0,0,0-2.7-.1c-.2,0-.42.78-.45,1.21q-.32,4.42-.52,8.85c-.12,2.51-.27,5-.27,7.54A4.49,4.49,0,0,0,50.62,40.53Z"/><path class="cls-1" d="M18.6,47.7a2.06,2.06,0,0,0,2-2.06,1.69,1.69,0,0,0-1.81-1.88,2,2,0,0,0-2.12,2.06A1.86,1.86,0,0,0,18.6,47.7Z"/><path class="cls-1" d="M29.93,38.71c2.46-3,2.3-6.37,1.14-9.75-1-2.89-2.81-4-5.89-3.85a29.17,29.17,0,0,0-4.05.83c.1-2,.11-4,.34-6.05.13-1.1-.22-1.39-1.2-1.29a3.29,3.29,0,0,1-.83,0c-1-.15-1.27.37-1.27,1.24,0,1.12-.06,2.23-.12,3.35-.22,4.47-.53,8.93-.63,13.4a4.26,4.26,0,0,0,2.48,4C22.5,41.88,27.4,41.79,29.93,38.71Z"/><path class="cls-1" d="M21.11,63.13c-1.2.23-1.67-.1-1.66-1.29s.08-2.31.13-3.46c.13-2.55.26-5.09.4-7.85a16.55,16.55,0,0,1-1.89,0c-1.12-.15-1.41.33-1.45,1.4-.11,3.39-.3,6.77-.53,10.15a3.74,3.74,0,0,0,5.15,4c.22-.08.54-.31.55-.49.06-.82,0-1.64,0-2.52A5.39,5.39,0,0,0,21.11,63.13Z"/><path class="cls-1" d="M193.26,45a1.64,1.64,0,0,0-1.72,1.59,1.89,1.89,0,0,0,1.89,1.88,1.61,1.61,0,0,0,1.78-1.63A1.89,1.89,0,0,0,193.26,45Z"/><path class="cls-1" d="M205.68,42a5.76,5.76,0,0,0,6.83-4.22,1.27,1.27,0,0,1,1.48-1.1c5.4,0,10.8,0,16.21,0h3.88c-.25-2.91-.4-5.61-.74-8.29-.38-3.06-1.56-5.74-5.06-6.07s-10.89-.66-10.89-.38c0,.68-.33,3.66.21,3.67,2.68.06,5.37,0,8.05,0,1.16,0,3.32.22,3.66,1.46.5,1.85.69,3.78,1,5.75H212.77c-.25-3.27-.49-6.47-.74-9.72h-3.28c.14,2.38.29,4.68.43,7,.12,1.87.31,3.75.33,5.62a2.82,2.82,0,0,1-3.25,3c-.5,0-1-.14-1.65-.24,0,.74,0,1.4-.11,2.06C204.39,41.53,204.81,41.9,205.68,42Z"/><path class="cls-1" d="M222,39.47a2.11,2.11,0,0,0,2.14,2,1.78,1.78,0,0,0,1.86-1.9,2,2,0,0,0-2.11-2A1.82,1.82,0,0,0,222,39.47Z"/><path class="cls-1" d="M210.19,22.68a1.72,1.72,0,0,0,1.89-1.7,2,2,0,0,0-2-2.14,1.74,1.74,0,0,0-1.92,1.67A2.07,2.07,0,0,0,210.19,22.68Z"/><path class="cls-1" d="M184.14,41.1a1.3,1.3,0,0,0,.8.85,5.86,5.86,0,0,0,7.15-3.87c.13-.42.25-.84.37-1.23,2.3-.13,4.46-.14,6.6-.39a5.36,5.36,0,0,0,5-4.61,32.13,32.13,0,0,0,.1-6.43c-.18-2.34-.33-2.29-2.66-2.27-.85,0-1.13.29-1.08,1.13.12,2,.22,4.06.25,6.1A2.35,2.35,0,0,1,198.18,33c-1.64.09-3.28,0-4.92.08-.56,0-.88-.14-.91-.8-.12-2.23-.33-4.46-.44-6.69-.11-2.47-.14-2.5-2.56-2.46-.74,0-1,.27-.95,1,.14,1.75.27,3.5.38,5.25.13,2.16.3,4.31.35,6.46a2.78,2.78,0,0,1-3.25,3c-.51,0-1-.14-1.67-.25A17.39,17.39,0,0,0,184.14,41.1Z"/><path class="cls-1" d="M197,39.35a2.08,2.08,0,0,0,2,2.1,1.78,1.78,0,0,0,2-1.79,2.08,2.08,0,0,0-2-2.1A1.82,1.82,0,0,0,197,39.35Z"/><path class="cls-1" d="M196.71,39.69a2,2,0,0,0-2-2.12,1.83,1.83,0,0,0-2,1.76,2.15,2.15,0,0,0,2.13,2.14A1.74,1.74,0,0,0,196.71,39.69Z"/><path class="cls-1" d="M32.3,56.22c-.79-.4-1.61-.71-2.41-1.07s-1.5-.9-1.28-1.91a1.7,1.7,0,0,1,2-1.4c1.2.11,2.39.41,3.72.66A17.39,17.39,0,0,1,35,50.85c.4-.75.18-1.15-.58-1.46a8.08,8.08,0,0,0-6.29-.16,4.94,4.94,0,0,0-3.27,4.49,4.28,4.28,0,0,0,2.65,4.19c.88.47,1.81.85,2.7,1.29a1.87,1.87,0,0,1,1.3,1.95,2,2,0,0,1-1.74,1.71c-1.79.48-3.27-.35-4.94-1.16-.26.7-.46,1.38-.77,2-.41.83-.06,1.24.69,1.55a9.41,9.41,0,0,0,6.9.28,5.09,5.09,0,0,0,3.56-4.8C35.37,58.57,34.15,57.15,32.3,56.22Z"/><path class="cls-1" d="M41.35,39.84c.33.45.53,1,.83,1.09a6.68,6.68,0,0,0,2.14,0c.22,0,.53-.48.55-.76.2-3.46.44-6.93.5-10.4.05-2.75-1.5-4.39-4.23-4.77a9.72,9.72,0,0,0-5.8,1c-.33.16-.77.5-.8.79-.1,1,0,1.95,0,3.11a8.33,8.33,0,0,1,1.74-1.12,20.67,20.67,0,0,1,4-.94c1-.1,1.79,1,1.87,2.13s-.91.69-1.44.89a5.71,5.71,0,0,1-1.17.19c-1.83.24-3.67.43-5.18,1.65a5.12,5.12,0,0,0-1.68,5.3,4,4,0,0,0,3.63,3.16A5.84,5.84,0,0,0,41.35,39.84Z"/><path class="cls-1" d="M176.49,39c4.55,1.41,8.92-1.65,8.9-6.22a9.36,9.36,0,0,0-9-8.89,6.28,6.28,0,0,0-6.66,6.83A9.18,9.18,0,0,0,176.49,39Z"/><path class="cls-1" d="M126.67,12.32c-16.62.36-30.54,14.32-30.26,31.19-.28,17,13.94,31.38,31.32,31.23,16.36-.14,31.06-13,31.15-31.85C159,23.16,142.34,12,126.67,12.32Z"/><path class="cls-1" d="M235.07,46.09c0-.29-.37-.77-.61-.79a24.72,24.72,0,0,0-2.73,0,6.73,6.73,0,0,0-.06.88c.32,4.85.6,9.71,1,14.56.22,2.72.32,2.71,3.53,2.39-.12-1.9-.24-3.72-.36-5.54C235.59,53.73,235.36,49.91,235.07,46.09Z"/><path class="cls-1" d="M230.32,45.24h-1.47c-1.88,0-1.82,0-1.67,1.86.28,3.34.51,6.69.64,10,.1,2.37-1.54,3.48-3.91,2.78-.49-4.1-1.54-8-5.85-9.7s-7.86-.47-10.94,2.88c-.2-2.68-.39-5.21-.57-7.74h-2.81c.34,5,.67,9.8,1,14.71h-4.93c0-.12,0-.22,0-.27,2.23-3.28.49-7.54-2.38-9.42-3.32-2.17-7.37-1.4-8.85,1.84a5.9,5.9,0,0,0,.22,5.21,24.84,24.84,0,0,0,1.76,2.7c-.92,0-1.79,0-2.66,0s-1-.38-1.06-1.09c-.23-4-.49-8-.72-12-.1-1.86-.08-1.86-2-1.85H182.6c.22,3.33.44,6.47.64,9.6.13,1.92.35,3.83.32,5.74,0,2.71-1.2,4.07-3.68,4.28a4,4,0,0,1-4.54-3.21c-.15-.53-.28-1.06-.46-1.74-.57.23-1.08.43-1.57.65-1.53.69-1.55.74-1,2.32a7.11,7.11,0,0,0,6.51,5.3c3.43.31,6-.84,7.6-4a1.44,1.44,0,0,1,1.14-.72c3.65.31,7.27-.29,10.94-.17,9.24.31,18.49.14,27.74.1a4.45,4.45,0,0,0,4.8-4.49c.1-3-.17-6.05-.32-9.07C230.61,48.31,230.44,46.82,230.32,45.24Z"/><path class="cls-1" d="M85.68,43.39a3.85,3.85,0,0,1-1,0c-.92-.1-1.25.25-1.28,1.21-.1,2.75-.31,5.49-.49,8.36-.73-.31-1.26-.57-1.82-.78A6.91,6.91,0,0,0,72,56.44c-1.49,4.28.26,8.24,4.38,9.38a13.79,13.79,0,0,0,4.72.21c3.15-.28,4.49-1.85,4.66-5,.17-3.31.43-6.61.62-9.92.13-2.23.19-4.47.32-6.7C86.76,43.63,86.45,43.32,85.68,43.39Z"/><path class="cls-1" d="M52.14,50.35a9.74,9.74,0,0,0-6.38,1,1.44,1.44,0,0,0-.76.8c-.16,1-.17,1.92-.27,3.22A8.2,8.2,0,0,1,46,54.49a17.83,17.83,0,0,1,3.89-1.36c1.83-.24,2.66.83,2.47,2.86-.29,0-.52.06-.75.11a51.67,51.67,0,0,0-5.71,1.21A5,5,0,0,0,43,62.78c.51,2.5,2,3.85,4.63,3.71a23.85,23.85,0,0,0,4.31-1c.11,1.33,1.34.62,2.16.74s1.14-.14,1.18-1c.14-3.18.39-6.37.57-9.55C56,52.85,54.52,50.77,52.14,50.35Z"/><path class="cls-1" d="M41.66,63.06c-1.5.24-1.87-.06-1.79-1.59.27-5.1.62-10.2.87-15.3.15-3.17.44-2.78-2.34-2.74a1.13,1.13,0,0,0-.79.74c-.38,5.69-.69,11.39-1,17.09l-.24.06a19.11,19.11,0,0,0,.85,3.41c.61,1.36,2.64,1.91,4.34,1.42,1.27-.37.69-1.52.92-2.31C42.62,63.26,42.34,63,41.66,63.06Z"/><path class="cls-1" d="M64.62,50.32A20.43,20.43,0,0,0,61,51.56l-.15-1a17.65,17.65,0,0,1-1.93,0c-1-.1-1.22.31-1.23,1.23,0,1.8-.18,3.59-.28,5.38l-.52,9c.65,0,1.08.09,1.51.09,1.81,0,1.77,0,1.86-1.74q.19-3.89.5-7.77a4.11,4.11,0,0,1,2.86-3.5,2.55,2.55,0,0,1,3.5,2.07,8.48,8.48,0,0,1,.16,2c-.12,2.27-.33,4.54-.43,6.81s.3,2.5,2.45,2.07c.29-.06.71-.46.72-.72.22-3.43.53-6.86.49-10.29S68.13,49.79,64.62,50.32Z"/><path class="cls-2" d="M248.23,0H4.21C1.46,0,0,1.47,0,4.22V82.88C0,85.52,1.51,87,4.18,87H248.32c2.74,0,4.2-1.48,4.2-4.23q0-39.33,0-78.66C252.54,1.47,251,0,248.23,0ZM210.05,18.84a2,2,0,0,1,2,2.14,1.72,1.72,0,0,1-1.89,1.7,2.07,2.07,0,0,1-2.06-2.17A1.74,1.74,0,0,1,210.05,18.84ZM204.5,40.61c.08-.66.07-1.32.11-2.06.65.1,1.15.21,1.65.24a2.82,2.82,0,0,0,3.25-3c0-1.87-.21-3.75-.33-5.62-.14-2.3-.29-4.6-.43-7H212c.25,3.25.49,6.45.74,9.72h17.56c-.33-2-.52-3.9-1-5.75-.34-1.24-2.5-1.45-3.66-1.46-2.68,0-5.37,0-8.05,0-.54,0-.21-3-.21-3.67,0-.28,7.28,0,10.89.38s4.68,3,5.06,6.07c.34,2.68.49,5.38.74,8.29H230.2c-5.41,0-10.81,0-16.21,0a1.27,1.27,0,0,0-1.48,1.1A5.76,5.76,0,0,1,205.68,42C204.81,41.9,204.39,41.53,204.5,40.61Zm21.51-1a1.78,1.78,0,0,1-1.86,1.9,2.11,2.11,0,0,1-2.14-2,1.82,1.82,0,0,1,1.89-1.89A2,2,0,0,1,226,39.56Zm-36.88-3.73c0-2.15-.22-4.3-.35-6.46-.11-1.75-.24-3.5-.38-5.25-.06-.72.21-1,.95-1,2.42,0,2.45,0,2.56,2.46.11,2.23.32,4.46.44,6.69,0,.66.35.81.91.8,1.64,0,3.28,0,4.92-.08a2.35,2.35,0,0,0,2.48-2.62c0-2-.13-4.07-.25-6.1,0-.84.23-1.12,1.08-1.13,2.33,0,2.48-.07,2.66,2.27a32.13,32.13,0,0,1-.1,6.43,5.36,5.36,0,0,1-5,4.61c-2.14.25-4.3.26-6.6.39-.12.39-.24.81-.37,1.23A5.86,5.86,0,0,1,184.94,42a1.3,1.3,0,0,1-.8-.85,17.39,17.39,0,0,1,.07-2.57c.66.11,1.16.21,1.67.25A2.78,2.78,0,0,0,189.13,35.83ZM201,39.66a1.78,1.78,0,0,1-2,1.79,2.08,2.08,0,0,1-2-2.1,1.82,1.82,0,0,1,2-1.79A2.08,2.08,0,0,1,201,39.66Zm-6.15,1.81a2.15,2.15,0,0,1-2.13-2.14,1.83,1.83,0,0,1,2-1.76,2,2,0,0,1,2,2.12A1.74,1.74,0,0,1,194.87,41.47Zm.34,5.4a1.61,1.61,0,0,1-1.78,1.63,1.89,1.89,0,0,1-1.89-1.88A1.64,1.64,0,0,1,193.26,45,1.89,1.89,0,0,1,195.21,46.87Zm-17-27.32a1.83,1.83,0,0,1,2,2,1.57,1.57,0,0,1-1.78,1.74,2,2,0,0,1-2.15-2A1.73,1.73,0,0,1,178.17,19.55Zm-4,0a1.84,1.84,0,0,1,1.89,2.1,1.57,1.57,0,0,1-1.86,1.66,2,2,0,0,1-2.11-2.1A1.84,1.84,0,0,1,174.16,19.55ZM63.05,46.46c0-.46.12-.91.14-1.07,1.2-.21,2.54,0,3.07-.62a15.48,15.48,0,0,0,2.25-4c.14-.3-.17-.83-.31-1.24-1.42-4.24-2.85-8.47-4.26-12.71-.11-.32-.16-.67-.28-1.18a15.73,15.73,0,0,1,2.86.05c.38.08.8.71.94,1.17.9,2.85,1.72,5.73,2.58,8.59.12.42.25.84.48,1.55l2.24-5.19c.71-1.66,1.45-3.29,2.08-5A1.56,1.56,0,0,1,76.7,25.6c.58.06,1.17,0,2.12,0-.71,1.63-1.26,2.94-1.85,4.23-2.22,4.87-4.39,9.76-6.7,14.58-1.08,2.26-2.71,4-5.54,3.86C63.09,48.22,63,48.12,63.05,46.46ZM48.41,28.77q.21-4.43.52-8.85c0-.43.25-1.19.45-1.21a12.23,12.23,0,0,1,2.7.1,2.45,2.45,0,0,1,.12,1c-.1,2.07-.22,4.13-.33,6.12a30.6,30.6,0,0,1,4.2-.81C59,25,60.72,26,61.73,28.77c1.27,3.45,1.45,6.88-1.08,10s-7.44,3.17-10,1.8a4.49,4.49,0,0,1-2.48-4.22C48.14,33.8,48.29,31.28,48.41,28.77Zm-29.59,15a1.69,1.69,0,0,1,1.81,1.88,2.06,2.06,0,0,1-2,2.06,1.86,1.86,0,0,1-1.9-1.88A2,2,0,0,1,18.82,43.76Zm3,21.83c0,.18-.33.41-.55.49a3.74,3.74,0,0,1-5.15-4c.23-3.38.42-6.76.53-10.15,0-1.07.33-1.55,1.45-1.4a16.55,16.55,0,0,0,1.89,0c-.14,2.76-.27,5.3-.4,7.85,0,1.15-.13,2.31-.13,3.46s.46,1.52,1.66,1.29a5.39,5.39,0,0,1,.73-.06C21.84,64,21.87,64.77,21.81,65.59Zm-1.91-25a4.26,4.26,0,0,1-2.48-4c.1-4.47.41-8.93.63-13.4.06-1.12.11-2.23.12-3.35,0-.87.28-1.39,1.27-1.24a3.29,3.29,0,0,0,.83,0c1-.1,1.33.19,1.2,1.29-.23,2-.24,4.05-.34,6.05a29.17,29.17,0,0,1,4.05-.83c3.08-.17,4.89,1,5.89,3.85,1.16,3.38,1.32,6.75-1.14,9.75S22.5,41.88,19.9,40.55ZM35.24,60.74a5.09,5.09,0,0,1-3.56,4.8,9.41,9.41,0,0,1-6.9-.28c-.75-.31-1.1-.72-.69-1.55.31-.63.51-1.31.77-2,1.67.81,3.15,1.64,4.94,1.16a2,2,0,0,0,1.74-1.71,1.87,1.87,0,0,0-1.3-1.95c-.89-.44-1.82-.82-2.7-1.29a4.28,4.28,0,0,1-2.65-4.19,4.94,4.94,0,0,1,3.27-4.49,8.08,8.08,0,0,1,6.29.16c.76.31,1,.71.58,1.46a17.39,17.39,0,0,0-.74,1.65c-1.33-.25-2.52-.55-3.72-.66a1.7,1.7,0,0,0-2,1.4c-.22,1,.46,1.53,1.28,1.91s1.62.67,2.41,1.07C34.15,57.15,35.37,58.57,35.24,60.74ZM32.65,38.05a5.12,5.12,0,0,1,1.68-5.3c1.51-1.22,3.35-1.41,5.18-1.65a5.71,5.71,0,0,0,1.17-.19c.53-.2,1.54.33,1.44-.89s-.91-2.23-1.87-2.13a20.67,20.67,0,0,0-4,.94A8.33,8.33,0,0,0,34.5,30c0-1.16-.06-2.14,0-3.11,0-.29.47-.63.8-.79a9.72,9.72,0,0,1,5.8-1c2.73.38,4.28,2,4.23,4.77-.06,3.47-.3,6.94-.5,10.4,0,.28-.33.73-.55.76a6.68,6.68,0,0,1-2.14,0c-.3-.07-.5-.64-.83-1.09a5.84,5.84,0,0,1-5.07,1.37A4,4,0,0,1,32.65,38.05Zm9.81,25.79c-.23.79.35,1.94-.92,2.31-1.7.49-3.73-.06-4.34-1.42a19.11,19.11,0,0,1-.85-3.41l.24-.06c.33-5.7.64-11.4,1-17.09a1.13,1.13,0,0,1,.79-.74c2.78,0,2.49-.43,2.34,2.74-.25,5.1-.6,10.2-.87,15.3-.08,1.53.29,1.83,1.79,1.59C42.34,63,42.62,63.26,42.46,63.84Zm13.37-8.22c-.18,3.18-.43,6.37-.57,9.55,0,.9-.43,1.15-1.18,1s-2,.59-2.16-.74a23.85,23.85,0,0,1-4.31,1c-2.6.14-4.12-1.21-4.63-3.71a5,5,0,0,1,2.93-5.47,51.67,51.67,0,0,1,5.71-1.21c.23-.05.46-.07.75-.11.19-2-.64-3.1-2.47-2.86A17.83,17.83,0,0,0,46,54.49a8.2,8.2,0,0,0-1.28.84c.1-1.3.11-2.27.27-3.22a1.44,1.44,0,0,1,.76-.8,9.74,9.74,0,0,1,6.38-1C54.52,50.77,56,52.85,55.83,55.62ZM70,65.45c0,.26-.43.66-.72.72-2.15.43-2.55.11-2.45-2.07s.31-4.54.43-6.81a8.48,8.48,0,0,0-.16-2,2.55,2.55,0,0,0-3.5-2.07,4.11,4.11,0,0,0-2.86,3.5q-.3,3.88-.5,7.77c-.09,1.75-.05,1.76-1.86,1.74-.43,0-.86,0-1.51-.09l.52-9c.1-1.79.26-3.58.28-5.38,0-.92.27-1.33,1.23-1.23a17.65,17.65,0,0,0,1.93,0l.15,1a20.43,20.43,0,0,1,3.6-1.24c3.51-.53,5.86,1.32,5.91,4.84S70.26,62,70,65.45Zm16.67-21c-.13,2.23-.19,4.47-.32,6.7-.19,3.31-.45,6.61-.62,9.92-.17,3.14-1.51,4.71-4.66,5a13.79,13.79,0,0,1-4.72-.21c-4.12-1.14-5.87-5.1-4.38-9.38a6.91,6.91,0,0,1,9.12-4.26c.56.21,1.09.47,1.82.78.18-2.87.39-5.61.49-8.36,0-1,.36-1.31,1.28-1.21a3.85,3.85,0,0,0,1,0C86.45,43.32,86.76,43.63,86.71,44.42Zm41,30.32c-17.38.15-31.6-14.19-31.32-31.23-.28-16.87,13.64-30.83,30.26-31.19C142.34,12,159,23.16,158.88,42.89,158.79,61.77,144.09,74.6,127.73,74.74Zm48.68-50.83a9.36,9.36,0,0,1,9,8.89c0,4.57-4.35,7.63-8.9,6.22a9.18,9.18,0,0,1-6.74-8.28A6.28,6.28,0,0,1,176.41,23.91ZM179.5,54.1a2.84,2.84,0,1,1-2.81-2.83A2.82,2.82,0,0,1,179.5,54.1ZM231,58.88a4.45,4.45,0,0,1-4.8,4.49c-9.25,0-18.5.21-27.74-.1-3.67-.12-7.29.48-10.94.17a1.44,1.44,0,0,0-1.14.72c-1.58,3.18-4.17,4.33-7.6,4a7.11,7.11,0,0,1-6.51-5.3c-.51-1.58-.49-1.63,1-2.32.49-.22,1-.42,1.57-.65.18.68.31,1.21.46,1.74a4,4,0,0,0,4.54,3.21c2.48-.21,3.66-1.57,3.68-4.28,0-1.91-.19-3.82-.32-5.74-.2-3.13-.42-6.27-.64-9.6h1.54c1.91,0,1.89,0,2,1.85.23,4,.49,8,.72,12,0,.71.24,1.14,1.06,1.09s1.74,0,2.66,0a24.84,24.84,0,0,1-1.76-2.7,5.9,5.9,0,0,1-.22-5.21c1.48-3.24,5.53-4,8.85-1.84,2.87,1.88,4.61,6.14,2.38,9.42,0,.05,0,.15,0,.27h4.93c-.34-4.91-.67-9.74-1-14.71h2.81c.18,2.53.37,5.06.57,7.74,3.08-3.35,6.72-4.55,10.94-2.88s5.36,5.6,5.85,9.7c2.37.7,4-.41,3.91-2.78-.13-3.35-.36-6.7-.64-10-.15-1.84-.21-1.86,1.67-1.86h1.47c.12,1.58.29,3.07.36,4.57C230.83,52.83,231.1,55.86,231,58.88Zm1.67,1.82c-.4-4.85-.68-9.71-1-14.56a6.73,6.73,0,0,1,.06-.88,24.72,24.72,0,0,1,2.73,0c.24,0,.59.5.61.79.29,3.82.52,7.64.77,11.46.12,1.82.24,3.64.36,5.54C233,63.41,232.89,63.42,232.67,60.7Z"/><path class="cls-2" d="M176.25,53.17V54h.3c.36,0,.64-.12.64-.42s-.18-.43-.59-.43A1.27,1.27,0,0,0,176.25,53.17Z"/><path class="cls-2" d="M174.53,54.1a2.17,2.17,0,0,0,2.16,2.26,2.15,2.15,0,0,0,2.1-2.24,2.13,2.13,0,1,0-4.26,0Zm3.35-.62a.72.72,0,0,1-.57.67v0c.27.09.4.31.49.69a2.31,2.31,0,0,0,.2.69h-.67a1.94,1.94,0,0,1-.22-.69c-.05-.29-.22-.43-.57-.43h-.31v1.12h-.64V52.74a6.53,6.53,0,0,1,1.06-.09,1.48,1.48,0,0,1,.94.22A.72.72,0,0,1,177.88,53.48Z"/></g></g></svg>