<svg xmlns="http://www.w3.org/2000/svg" viewBox="0 0 271.57 59.99"><defs><style>.cls-1{fill:#fff;}</style></defs><g id="Layer_2" data-name="Layer 2"><g id="Layer_1-2" data-name="Layer 1"><path class="cls-1" d="M240.92,42.6a17.39,17.39,0,0,0,30.31-14.52A17.49,17.49,0,0,0,254.82,14a14.85,14.85,0,0,0-13.11,6.36c-.23.31-.45.63-.79,1.12,0-2.41,0-4.59,0-6.77,0-.7-.25-.78-.83-.64a13.5,13.5,0,0,1-2.24.46c-.75.06-.88.4-.88,1.07q0,17.53,0,35.06c0,2.9,0,5.8,0,8.7,0,.73.26.74.81.61.8-.19,1.61-.36,2.42-.49.52-.09.73-.28.72-.86-.05-1.89,0-3.79,0-5.68ZM4,20.9v-.76c0-6.45,0-12.9,0-19.35C4,.2,3.85,0,3.24.14A16,16,0,0,1,1.07.55C.24.63,0,1,0,1.83,0,10.91,0,20,0,29.08A33.77,33.77,0,0,0,.3,34.3c.6,3.86,2,7.38,5,10,5.14,4.51,11.21,5.48,17.57,3.58,11.78-3.52,15.44-17.53,9.57-26.69-4.58-7.17-15-9.47-22.65-5.08A25.07,25.07,0,0,0,4,20.9ZM74.17,0a28.6,28.6,0,0,1-3.1.6c-.79.08-.84.43-.84,1.08q0,14.25,0,28.49A25.52,25.52,0,0,0,70.62,35c1,5.1,3.5,9.15,8.21,11.64a18.74,18.74,0,0,0,8.25,2A16.87,16.87,0,0,0,99.9,43.91a17.41,17.41,0,0,0,5.45-12.11A16.71,16.71,0,0,0,101,19.09C95.31,13,85.33,12.15,78.29,17.2a30.73,30.73,0,0,0-4.12,3.65ZM59.23,44.73c0,1.08.05,2.17,0,3.24,0,.69.25.73.77.61a12.55,12.55,0,0,1,2.24-.46c.82,0,.94-.4.93-1.12q0-12.2,0-24.4a9,9,0,0,0-.26-2.19c-.79-3.25-3.08-5-6.12-5.88-4.62-1.3-9.1-.46-13.48,1.22-.18.07-.33.12-.39.31-.42,1.42-.84,2.84-1.3,4.36,1.78-.62,3.38-1.21,5-1.74,3-1,6-1.36,9-.1,2.41,1,3.84,2.48,3.67,5.41-.06,1.18,0,2.36,0,3.55,0,.21.13.47-.14.63-.77-.55-1.52-1.11-2.31-1.63a11.86,11.86,0,0,0-18.57,10,10.8,10.8,0,0,0,3.55,8.89A12.89,12.89,0,0,0,50,48.65C53.68,48.85,56.88,47.93,59.23,44.73ZM170.26,0a30.25,30.25,0,0,1-3,.59c-.79.07-.91.4-.91,1.11q0,22.89,0,45.78a1.08,1.08,0,0,1,0,.18c-.14.7.15.87.81.73a14.6,14.6,0,0,1,2.19-.3c.68,0,.93-.25.93-1,0-6.89,0-13.78,0-20.67a7.84,7.84,0,0,1,2.42-5.89,10.91,10.91,0,0,1,10-2.91A7.06,7.06,0,0,1,187.05,20a7.22,7.22,0,0,1,1.52,4.78c0,7.63,0,15.26,0,22.89,0,.71.19.87.85.74a13.42,13.42,0,0,1,2.19-.3c.71,0,.91-.31.91-1,0-6.93,0-13.85,0-20.77a21,21,0,0,0-.19-3.45c-.52-3.12-1.84-5.76-4.75-7.26a15.29,15.29,0,0,0-11.93-.93,9.76,9.76,0,0,0-5.35,4.13V0Zm43.59,48.68a17.38,17.38,0,1,0-16.37-18.53C196.81,39.49,204.06,48.32,213.85,48.68ZM122.94,38c-.23-.4-.42-.7-.59-1Q116.16,25.82,110,14.63c-.31-.56-.58-.77-1.22-.56a9.25,9.25,0,0,1-2.08.42c-.86.07-.91.32-.51,1,4.52,8.22,8.95,16.47,13.53,24.65a3.73,3.73,0,0,1,.06,4c-2.42,4.76-4.65,9.6-7,14.4-.27.55-.2.75.4.85.76.13,1.5.31,2.24.5s.93,0,1.21-.62q5.81-11.88,11.64-23.73,5-10.19,10-20.37c.19-.37.21-.55-.27-.64-1-.17-1.91-.37-2.85-.59-.48-.11-.66.1-.86.51-1.2,2.53-2.43,5-3.65,7.56C128.1,27.33,125.55,32.61,122.94,38Zm37-20.18C156.1,15,153.1,13.56,148.55,14c-3.61.35-6.67,1.82-8.52,5.1-2.05,3.62-1.76,9.31,3.34,11.71a27.84,27.84,0,0,0,3.28,1.28,58.75,58.75,0,0,1,6.94,2.3c4.36,2.06,3.23,7.34.53,9.09a9.5,9.5,0,0,1-7.24,1.12,11.08,11.08,0,0,1-5.43-3c-.38-.35-.63-.39-1,0a22.41,22.41,0,0,1-2,1.63c-.38.28-.38.49-.07.83a14.81,14.81,0,0,0,2,1.85A13.64,13.64,0,0,0,152,48.37c5.32-1.08,8.12-4.44,8.45-9.06.26-3.76-1.16-6.61-4.47-8.33a24,24,0,0,0-4.9-1.73,28.86,28.86,0,0,1-5.76-1.92c-3.67-1.89-2.92-6.6-.28-8.26A9.15,9.15,0,0,1,151.73,18a13.66,13.66,0,0,1,5.48,2.56c.39.27.62.29.9-.14C158.69,19.53,159.33,18.68,159.94,17.82Z"/><path class="cls-1" d="M240.92,42.6V52.9c0,1.89,0,3.79,0,5.68,0,.58-.2.77-.72.86-.81.13-1.62.3-2.42.49-.55.13-.82.12-.81-.61,0-2.9,0-5.8,0-8.7q0-17.52,0-35.06c0-.67.13-1,.88-1.07a13.5,13.5,0,0,0,2.24-.46c.58-.14.84-.06.83.64-.05,2.18,0,4.36,0,6.77.34-.49.56-.81.79-1.12A14.85,14.85,0,0,1,254.82,14a17.49,17.49,0,0,1,16.41,14.12A17.39,17.39,0,0,1,240.92,42.6Zm0-11.43c-.18,8,5.6,13.6,13.38,13.69a13.37,13.37,0,0,0,13.35-13c.23-8.21-5.28-14.08-13.31-14.15A13.55,13.55,0,0,0,240.9,31.17Z"/><path class="cls-1" d="M4,20.9a25.07,25.07,0,0,1,5.84-4.79c7.64-4.39,18.07-2.09,22.65,5.08,5.87,9.16,2.21,23.17-9.57,26.69-6.36,1.9-12.43.93-17.57-3.58-3-2.62-4.4-6.14-5-10A33.77,33.77,0,0,1,0,29.08C0,20,0,10.91,0,1.83,0,1,.24.63,1.07.55A16,16,0,0,0,3.24.14C3.85,0,4,.2,4,.79c0,6.45,0,12.9,0,19.35ZM31.23,31.2c.09-7.42-5.38-13.44-13.52-13.45-7.71,0-13.77,5.5-13.78,13.9,0,7.6,6,13.19,14,13.21C26,44.87,31.26,38.62,31.23,31.2Z"/><path class="cls-1" d="M74.17,0V20.85a30.73,30.73,0,0,1,4.12-3.65c7-5,17-4.25,22.73,1.89a16.71,16.71,0,0,1,4.33,12.71A17.41,17.41,0,0,1,99.9,43.91a16.87,16.87,0,0,1-12.82,4.77,18.74,18.74,0,0,1-8.25-2c-4.71-2.49-7.22-6.54-8.21-11.64a25.52,25.52,0,0,1-.38-4.85q0-14.25,0-28.49c0-.65,0-1,.84-1.08A28.6,28.6,0,0,0,74.17,0Zm0,31.5C74,39.05,80.26,44.85,88,44.85c8.07,0,13.34-5.9,13.49-13.56s-5.8-13.55-13.58-13.57A13.49,13.49,0,0,0,74.17,31.5Z"/><path class="cls-1" d="M59.23,44.73c-2.35,3.2-5.55,4.12-9.25,3.92a12.89,12.89,0,0,1-8.22-3.22,10.8,10.8,0,0,1-3.55-8.89,11.86,11.86,0,0,1,18.57-10c.79.52,1.54,1.08,2.31,1.63.27-.16.13-.42.14-.63,0-1.19,0-2.37,0-3.55.17-2.93-1.26-4.4-3.67-5.41-3-1.26-6-.88-9,.1-1.61.53-3.21,1.12-5,1.74.46-1.52.88-2.94,1.3-4.36.06-.19.21-.24.39-.31,4.38-1.68,8.86-2.52,13.48-1.22,3,.85,5.33,2.63,6.12,5.88a9,9,0,0,1,.26,2.19q0,12.21,0,24.4c0,.72-.11,1.07-.93,1.12a12.55,12.55,0,0,0-2.24.46c-.52.12-.81.08-.77-.61C59.28,46.9,59.23,45.81,59.23,44.73Zm0-8.1A7.91,7.91,0,0,0,51,28.37c-5.26,0-9,3.64-9,8.74,0,4.39,4,7.76,9.13,7.76A7.89,7.89,0,0,0,59.24,36.63Z"/><path class="cls-1" d="M170.26,0V18.79a9.76,9.76,0,0,1,5.35-4.13,15.29,15.29,0,0,1,11.93.93c2.91,1.5,4.23,4.14,4.75,7.26a21,21,0,0,1,.19,3.45c0,6.92,0,13.84,0,20.77,0,.71-.2,1-.91,1a13.42,13.42,0,0,0-2.19.3c-.66.13-.85,0-.85-.74,0-7.63,0-15.26,0-22.89A7.22,7.22,0,0,0,187.05,20a7.06,7.06,0,0,0-4.34-2.36,10.91,10.91,0,0,0-10,2.91,7.84,7.84,0,0,0-2.42,5.89c0,6.89,0,13.78,0,20.67,0,.75-.25,1-.93,1a14.6,14.6,0,0,0-2.19.3c-.66.14-.95,0-.81-.73a1.08,1.08,0,0,0,0-.18q0-22.89,0-45.78c0-.71.12-1,.91-1.11A30.25,30.25,0,0,0,170.26,0Z"/><path class="cls-1" d="M213.85,48.68c-9.79-.36-17-9.19-16.37-18.53a17.12,17.12,0,1,1,16.37,18.53Zm13.8-19.09a4.68,4.68,0,0,0-.22-1.49,13.27,13.27,0,0,0-16.9-9.7,13.59,13.59,0,0,0-9,15.28c1.57,8.81,11,14,19.1,9.62a13.08,13.08,0,0,0,7-10A8.16,8.16,0,0,0,227.65,29.59Z"/><path class="cls-1" d="M122.94,38c2.61-5.39,5.16-10.67,7.72-15.94,1.22-2.52,2.45-5,3.65-7.56.2-.41.38-.62.86-.51.94.22,1.89.42,2.85.59.48.09.46.27.27.64q-5,10.19-10,20.37Q122.4,47.46,116.6,59.32c-.28.58-.6.78-1.21.62s-1.48-.37-2.24-.5c-.6-.1-.67-.3-.4-.85,2.34-4.8,4.57-9.64,7-14.4a3.73,3.73,0,0,0-.06-4c-4.58-8.18-9-16.43-13.53-24.65-.4-.73-.35-1,.51-1a9.25,9.25,0,0,0,2.08-.42c.64-.21.91,0,1.22.56Q116.14,25.82,122.35,37C122.52,37.3,122.71,37.6,122.94,38Z"/><path class="cls-1" d="M159.94,17.82c-.61.86-1.25,1.71-1.83,2.59-.28.43-.51.41-.9.14A13.66,13.66,0,0,0,151.73,18,9.15,9.15,0,0,0,145,19.07c-2.64,1.66-3.39,6.37.28,8.26A28.86,28.86,0,0,0,151,29.25a24,24,0,0,1,4.9,1.73c3.31,1.72,4.73,4.57,4.47,8.33-.33,4.62-3.13,8-8.45,9.06a13.64,13.64,0,0,1-11.56-2.46,14.81,14.81,0,0,1-2-1.85c-.31-.34-.31-.55.07-.83a22.41,22.41,0,0,0,2-1.63c.4-.37.65-.33,1,0a11.08,11.08,0,0,0,5.43,3,9.5,9.5,0,0,0,7.24-1.12c2.7-1.75,3.83-7-.53-9.09a58.75,58.75,0,0,0-6.94-2.3,27.84,27.84,0,0,1-3.28-1.28c-5.1-2.4-5.39-8.09-3.34-11.71,1.85-3.28,4.91-4.75,8.52-5.1C153.1,13.56,156.1,15,159.94,17.82Z"/><path class="cls-1" d="M240.9,31.17a13.55,13.55,0,0,1,13.42-13.44c8,.07,13.54,5.94,13.31,14.15a13.37,13.37,0,0,1-13.35,13C246.5,44.77,240.72,39.19,240.9,31.17Z"/><path class="cls-1" d="M31.23,31.2c0,7.42-5.27,13.67-13.35,13.66-7.91,0-14-5.61-13.95-13.21,0-8.4,6.07-13.9,13.78-13.9C25.85,17.76,31.32,23.78,31.23,31.2Z"/><path class="cls-1" d="M74.17,31.5A13.49,13.49,0,0,1,87.91,17.72c7.78,0,13.74,5.86,13.58,13.57S96.07,44.85,88,44.85C80.26,44.85,74,39.05,74.17,31.5Z"/><path class="cls-1" d="M59.24,36.63a7.89,7.89,0,0,1-8.06,8.24c-5.15,0-9.12-3.37-9.13-7.76,0-5.1,3.72-8.73,9-8.74A7.91,7.91,0,0,1,59.24,36.63Z"/><path class="cls-1" d="M227.62,33.3a13.08,13.08,0,0,1-7,10c-8.1,4.38-17.53-.81-19.1-9.62a13.59,13.59,0,0,1,9-15.28,13.27,13.27,0,0,1,16.9,9.7,4.68,4.68,0,0,1,.22,1.49Z"/><path class="cls-1" d="M227.62,33.3l0-3.71A8.16,8.16,0,0,1,227.62,33.3Z"/></g></g></svg>