<svg xmlns="http://www.w3.org/2000/svg" xmlns:xlink="http://www.w3.org/1999/xlink" viewBox="0 0 193.89 115.45"><defs><style>.a,.e,.f{fill:none;}.b{clip-path:url(#a);}.c{clip-path:url(#b);}.d,.g{fill:#fff;}.e{stroke:#1d1d1b;stroke-width:0.68px;}.e,.f,.g{stroke-miterlimit:10;}.f,.g{stroke:#fff;}.f{stroke-width:1.36px;}</style><clipPath id="a" transform="translate(-0.03 0)"><rect class="a" x="-0.37" y="-0.26" width="135.94" height="94.06"/></clipPath><clipPath id="b" transform="translate(-0.03 0)"><rect class="a" x="-89.73" y="-104.79" width="312.59" height="312.59"/></clipPath></defs><g class="b"><g class="c"><g class="c"><path class="d" d="M44.13,1.58A17.81,17.81,0,0,1,49.56.38a23.42,23.42,0,0,1,4.35.14,18.69,18.69,0,0,1,8.7,3.17Q65.91,6,66.07,9.07a5.34,5.34,0,0,1,0,.8q-.36,4-6.13,8a15.77,15.77,0,0,1-2.51,1.23.87.87,0,0,1,.28-.05,12.71,12.71,0,0,1,3.56.76c2.68.81,4.19,2.08,4.56,3.81a4.18,4.18,0,0,1,.09.71,5.47,5.47,0,0,1-1.59,3.86A14.44,14.44,0,0,1,58.75,32a23,23,0,0,1-13,1.51,1,1,0,0,1-.8-.64q-.06-.2-.88-14.55l-.29-5.84c-.31-6-.44-9.27-.37-9.77a1.35,1.35,0,0,1,.7-1.15m3.28.94a1.4,1.4,0,0,0-.85-.16,4.51,4.51,0,0,0-1.14.27,1,1,0,0,0-.63.63V4.44A4.69,4.69,0,0,1,47.4,2.51m5.27,12.54q.15.39.78.42h1a7.16,7.16,0,0,0,2.37-.53c1-.41,1.42-1,1.38-1.79a2.49,2.49,0,0,0-.14-.71q-.75-2.13-4-1.92h-.5a1.19,1.19,0,0,0-1.2,1.11v1.09c.09.65.14,1.08.15,1.3a3.76,3.76,0,0,0,.13,1m2.42,7.31a2.14,2.14,0,0,0-1-.21c-.58,0-1,.44-1.15,1.21a3.78,3.78,0,0,0-.06.82,3.69,3.69,0,0,0,0,.47,1.27,1.27,0,0,0,.52.88,2.27,2.27,0,0,0,.82.07,6.18,6.18,0,0,0,1.14-.2c1-.24,1.54-.7,1.51-1.36h0c-.16-.73-.78-1.28-1.85-1.66m.27,4.18a4.31,4.31,0,0,0,1.51.2,2.09,2.09,0,0,0,1.29-.48,1.24,1.24,0,0,0,.5-1.07A2.5,2.5,0,0,0,58,23.91a2.28,2.28,0,0,1-.62,1.72,4.91,4.91,0,0,1-2.16.9m.46-10.06a6.17,6.17,0,0,0,.86,0,4,4,0,0,0,2.28-.71,1.89,1.89,0,0,0,.76-1.69,4.24,4.24,0,0,0-.21-1,5.18,5.18,0,0,1-3.69,3.38" transform="translate(-0.03 0)"/><path class="e" d="M44.13,1.58A17.81,17.81,0,0,1,49.56.38a23.42,23.42,0,0,1,4.35.14,18.69,18.69,0,0,1,8.7,3.17Q65.91,6,66.07,9.07a5.34,5.34,0,0,1,0,.8q-.36,4-6.13,8a15.77,15.77,0,0,1-2.51,1.23.87.87,0,0,1,.28-.05,12.71,12.71,0,0,1,3.56.76c2.68.81,4.19,2.08,4.56,3.81a4.18,4.18,0,0,1,.09.71,5.47,5.47,0,0,1-1.59,3.86A14.44,14.44,0,0,1,58.75,32a23,23,0,0,1-13,1.51,1,1,0,0,1-.8-.64q-.06-.2-.88-14.55l-.29-5.84c-.31-6-.44-9.27-.37-9.77A1.34,1.34,0,0,1,44.13,1.58Zm3.28.94a1.4,1.4,0,0,0-.85-.16,4.51,4.51,0,0,0-1.14.27,1,1,0,0,0-.63.63V4.45A4.64,4.64,0,0,1,47.41,2.52Zm5.27,12.54q.15.39.78.42h1A7.16,7.16,0,0,0,56.83,15c1-.41,1.42-1,1.38-1.79a2.49,2.49,0,0,0-.14-.71q-.75-2.13-4-1.92h-.5a1.19,1.19,0,0,0-1.2,1.11v1.09c.09.65.14,1.08.15,1.3A4,4,0,0,0,52.68,15.06Zm2.42,7.31a2.14,2.14,0,0,0-1-.21c-.58,0-1,.44-1.15,1.21a3.78,3.78,0,0,0-.06.82,3.69,3.69,0,0,0,0,.47,1.27,1.27,0,0,0,.52.88,2.27,2.27,0,0,0,.82.07,6.18,6.18,0,0,0,1.14-.2c1-.24,1.54-.7,1.51-1.36h0C56.79,23.3,56.17,22.75,55.1,22.37Zm.27,4.18a4.31,4.31,0,0,0,1.51.2,2.09,2.09,0,0,0,1.29-.48,1.24,1.24,0,0,0,.5-1.07,2.5,2.5,0,0,0-.52-1.27,2.28,2.28,0,0,1-.62,1.72,4.91,4.91,0,0,1-2.16.9Zm.46-10.06a6.17,6.17,0,0,0,.86,0A4,4,0,0,0,59,15.78a1.89,1.89,0,0,0,.76-1.69,4.24,4.24,0,0,0-.21-1,5.18,5.18,0,0,1-3.69,3.4Z" transform="translate(-0.03 0)"/><path class="d" d="M78,17.52a11.29,11.29,0,0,1,3.4-.68,14.65,14.65,0,0,1,2.73.11,12.53,12.53,0,0,1,5.54,2,4.53,4.53,0,0,1,2.27,3.27,1.85,1.85,0,0,1,0,.47c-.11,1.62-1.34,3.21-3.71,4.79a9.17,9.17,0,0,1-1.56.72h.18a8.6,8.6,0,0,1,2.25.48c1.7.5,2.68,1.28,2.94,2.32a2,2,0,0,1,.07.43,3.07,3.07,0,0,1-.93,2.31A8.56,8.56,0,0,1,87.72,36,14.58,14.58,0,0,1,83,37a15.15,15.15,0,0,1-3.43-.21.65.65,0,0,1-.51-.39q0-.12-.82-8.77L78,24.12q-.47-5.43-.42-5.88a.84.84,0,0,1,.42-.7m5.62,8.18a.56.56,0,0,0,.5.26h.61a4.64,4.64,0,0,0,1.48-.3c.6-.24.88-.6.84-1.07a2.09,2.09,0,0,0-.11-.43c-.33-.86-1.18-1.25-2.54-1.18h-.31a.67.67,0,0,0-.74.67l.06.65c.06.39.1.65.11.78a2.51,2.51,0,0,0,.1.61m1.66,4.42a1.47,1.47,0,0,0-.62-.13c-.36,0-.6.25-.7.72a1.35,1.35,0,0,0,0,.49,1.31,1.31,0,0,0,0,.28.85.85,0,0,0,.34.54,1.46,1.46,0,0,0,.51,0,3.59,3.59,0,0,0,.72-.11q1-.21.93-.81h0c-.11-.44-.51-.78-1.19-1" transform="translate(-0.03 0)"/><path class="e" d="M78,17.52a11.29,11.29,0,0,1,3.4-.68,14.65,14.65,0,0,1,2.73.11,12.53,12.53,0,0,1,5.54,2,4.53,4.53,0,0,1,2.27,3.27,1.85,1.85,0,0,1,0,.47c-.11,1.62-1.34,3.21-3.71,4.79a9.17,9.17,0,0,1-1.56.72h.18a8.6,8.6,0,0,1,2.25.48c1.7.5,2.68,1.28,2.94,2.32a2,2,0,0,1,.07.43,3.07,3.07,0,0,1-.93,2.31A8.56,8.56,0,0,1,87.72,36,14.58,14.58,0,0,1,83,37a15.15,15.15,0,0,1-3.43-.21.65.65,0,0,1-.51-.39q0-.12-.82-8.77L78,24.12q-.47-5.43-.42-5.88A.83.83,0,0,1,78,17.52Zm5.63,8.18a.56.56,0,0,0,.5.26h.61a4.64,4.64,0,0,0,1.48-.3c.6-.24.88-.6.84-1.07a2.09,2.09,0,0,0-.11-.43c-.33-.86-1.18-1.25-2.54-1.18h-.31a.67.67,0,0,0-.74.67l.06.65c.06.39.1.65.11.78a2.16,2.16,0,0,0,.09.62Zm1.66,4.42a1.47,1.47,0,0,0-.62-.13c-.36,0-.6.25-.7.72a1.35,1.35,0,0,0,0,.49,1.31,1.31,0,0,0,0,.28.85.85,0,0,0,.34.54,1.46,1.46,0,0,0,.51,0,3.59,3.59,0,0,0,.72-.11q1-.21.93-.81h0c-.11-.41-.47-.75-1.19-1Z" transform="translate(-0.03 0)"/><path class="d" d="M32.58,30c-5.83.12-9,.49-9.41,1.11a.89.89,0,0,0-.19.57c0,.68.57,1.56,1.72,2.65.44.42,2,1.76,4.72,4q3.73,3.14,6,5.31,6.36,6.27,6.35,10.3A6.23,6.23,0,0,1,41.68,55a11.86,11.86,0,0,1-4.87,7.21,15.7,15.7,0,0,1-8.6,3q-3.81.22-6.92.22Q6,65.4,2.47,63.63c-1.4-.7-2.1-2.18-2.1-4.42A10.75,10.75,0,0,1,2,53.55c.6-1,3.17-1.5,7.69-1.5h8.55a25.49,25.49,0,0,0,4-.23c1.46-.26,2.22-.85,2.29-1.76V50c0-1.09-1.47-2.55-4.39-4.38-.93-.56-2.11-1.23-3.54-2s-2.29-1.25-2.48-1.37Q3.22,35.64,1.18,28A12.55,12.55,0,0,1,.7,24.53q0-6.81,7.4-13.45,4.53-4.07,15.52-6a45.4,45.4,0,0,1,7.45-.71q5.63,0,8.45,2.13Q44.29,10,45,18.75c.1,1.06.14,2.05.14,3q0,5.49-2.19,7.08c-.86.65-4.32,1-10.36,1.15M4.76,56.34a3,3,0,0,1,2.29-.84A3.08,3.08,0,0,0,5.47,55a2,2,0,0,0-1.19.4,1.67,1.67,0,0,0-.76,1.46,3.3,3.3,0,0,0,.28,1.24,6.35,6.35,0,0,1,1-1.73M5.94,20.65A21.48,21.48,0,0,1,7.85,17.2Q11.2,12.64,19.31,10l4.11-1a13.12,13.12,0,0,0,3.34-1.11h-1A29.42,29.42,0,0,0,19.17,9a31.08,31.08,0,0,0-7.83,2.83A17.39,17.39,0,0,0,5.7,17.52,8.73,8.73,0,0,0,4,21.81a2.1,2.1,0,0,0,.44,1.41,11,11,0,0,0,1.52-2.56M20.46,54.58a2.81,2.81,0,0,0,1.62.44,6.91,6.91,0,0,0,2.68-.66c1.62-.65,2.43-1.66,2.43-3A4.92,4.92,0,0,0,27,49.94a5.53,5.53,0,0,1-1.72,3A5.81,5.81,0,0,1,21,54.67a3.66,3.66,0,0,1-.57-.05" transform="translate(-0.03 0)"/><path class="e" d="M32.58,30c-5.83.12-9,.49-9.41,1.11a.89.89,0,0,0-.19.57c0,.68.57,1.56,1.72,2.65.44.42,2,1.76,4.72,4q3.73,3.14,6,5.31,6.36,6.27,6.35,10.3A6.23,6.23,0,0,1,41.68,55a11.86,11.86,0,0,1-4.87,7.21,15.7,15.7,0,0,1-8.6,3q-3.81.22-6.92.22Q6,65.4,2.47,63.63c-1.4-.7-2.1-2.18-2.1-4.42A10.75,10.75,0,0,1,2,53.55c.6-1,3.17-1.5,7.69-1.5h8.55a25.49,25.49,0,0,0,4-.23c1.46-.26,2.22-.85,2.29-1.76V50c0-1.09-1.47-2.55-4.39-4.38-.93-.56-2.11-1.23-3.54-2s-2.29-1.25-2.48-1.37Q3.22,35.64,1.18,28A12.55,12.55,0,0,1,.7,24.53q0-6.81,7.4-13.45,4.53-4.07,15.52-6a45.4,45.4,0,0,1,7.45-.71q5.63,0,8.45,2.13Q44.29,10,45,18.75c.1,1.06.14,2.05.14,3q0,5.49-2.19,7.08C42.08,29.47,38.62,29.86,32.58,30ZM4.74,56.33A3,3,0,0,1,7,55.49,3.08,3.08,0,0,0,5.45,55a2,2,0,0,0-1.19.4,1.67,1.67,0,0,0-.76,1.46,3.3,3.3,0,0,0,.28,1.24,6.38,6.38,0,0,1,1-1.73ZM5.88,20.64a21.48,21.48,0,0,1,1.91-3.45Q11.14,12.63,19.25,10l4.11-1A13.12,13.12,0,0,0,26.7,7.91h-1A29.42,29.42,0,0,0,19.11,9a31.08,31.08,0,0,0-7.83,2.83,17.39,17.39,0,0,0-5.64,5.71A8.73,8.73,0,0,0,3.92,21.8a2.1,2.1,0,0,0,.44,1.41,11.09,11.09,0,0,0,1.52-2.57ZM20.4,54.56A2.81,2.81,0,0,0,22,55a6.91,6.91,0,0,0,2.68-.66c1.62-.65,2.43-1.66,2.43-3a4.92,4.92,0,0,0-.24-1.42,5.53,5.53,0,0,1-1.72,3A5.81,5.81,0,0,1,21,54.65a3.75,3.75,0,0,1-.57-.09Z" transform="translate(-0.03 0)"/><path class="d" d="M53.13,47A14.9,14.9,0,0,0,53,50.12c.12,2.92.16,4.49.14,4.72a24.44,24.44,0,0,1-.25,3.08,7.29,7.29,0,0,1-.46,1.95h0c-.36.84-1.31,1.29-2.86,1.36h-.33c-1.67,0-2.75-.41-3.21-1.2Q45,58.17,44.14,48.32a2,2,0,0,0-.74-1.58,4.72,4.72,0,0,0-2-.35c-2.67-.14-4.33-.76-5-1.86h0a2.78,2.78,0,0,1-.52-1.13,17.45,17.45,0,0,1,0-3.39,5.8,5.8,0,0,1,1.87-3.84q2.53-2,11.21-2.56l1.17-.07a28.33,28.33,0,0,1,5.52.24c2.09.34,3.41,1,4,1.83a9,9,0,0,1,.56,3.28v1.24a13.13,13.13,0,0,1-.25,3,2.06,2.06,0,0,1-1.32,1.62h-.07c-.29,0-1.2.1-2.75.27a2.7,2.7,0,0,0-2.63,2m-1.59.61q0,.38.11,8.48a23.26,23.26,0,0,0,.2-5.59c0-.93-.16-1.89-.31-2.89m6.89-8.53a6.46,6.46,0,0,0,.12-1.52,2.25,2.25,0,0,0-1.82-2.35,11.57,11.57,0,0,0-3.16-.3H53a18.26,18.26,0,0,1,3.08.69,3.45,3.45,0,0,1,2.36,3.44" transform="translate(-0.03 0)"/><path class="e" d="M53.13,47A14.9,14.9,0,0,0,53,50.12c.12,2.92.16,4.49.14,4.72a24.44,24.44,0,0,1-.25,3.08,7.29,7.29,0,0,1-.46,1.95h0c-.36.84-1.31,1.29-2.86,1.36h-.33c-1.67,0-2.75-.41-3.21-1.2Q45,58.17,44.14,48.32a2,2,0,0,0-.74-1.58,4.72,4.72,0,0,0-2-.35c-2.67-.14-4.33-.76-5-1.86h0a2.78,2.78,0,0,1-.52-1.13,17.45,17.45,0,0,1,0-3.39,5.8,5.8,0,0,1,1.87-3.84q2.53-2,11.21-2.56l1.17-.07a28.33,28.33,0,0,1,5.52.24c2.09.34,3.41,1,4,1.83a9,9,0,0,1,.56,3.28v1.24a13.13,13.13,0,0,1-.25,3,2.06,2.06,0,0,1-1.32,1.62h-.07c-.29,0-1.2.1-2.75.27A2.69,2.69,0,0,0,53.13,47Zm-1.59.61q0,.38.11,8.48a23.26,23.26,0,0,0,.2-5.59C51.8,49.56,51.69,48.6,51.54,47.6Zm6.89-8.53a6.46,6.46,0,0,0,.12-1.52,2.25,2.25,0,0,0-1.82-2.35,11.57,11.57,0,0,0-3.16-.3H53a18.26,18.26,0,0,1,3.08.69A3.46,3.46,0,0,1,58.43,39.07Z" transform="translate(-0.03 0)"/><path class="d" d="M62.06,34.86a14.23,14.23,0,0,1,7.33-1.26,22.57,22.57,0,0,1,2.59.3c4.1.68,7,2.08,8.7,4.17a11.52,11.52,0,0,1,2.72,8.49A13.89,13.89,0,0,1,83,49a17.8,17.8,0,0,1-6.87,9.8,11.62,11.62,0,0,1-7.94,2.06h-.5a14.43,14.43,0,0,1-8.12-3.11,12.32,12.32,0,0,1-3.82-5.52A14.51,14.51,0,0,1,55,46.13v-.48a14.74,14.74,0,0,1,2.2-6.25A12.3,12.3,0,0,1,62,34.89M68.5,54.75A7.26,7.26,0,0,0,67,53.62,6.31,6.31,0,0,1,64.69,51c-.48-1-.74-1.59-.77-1.62a5,5,0,0,0,1,3.49,4.57,4.57,0,0,0,3.59,1.87m1.11-10A3.61,3.61,0,0,0,66.14,47a4.18,4.18,0,0,0-.49,1.62,5.27,5.27,0,0,0,.63,2.78,3.3,3.3,0,0,0,2.38,1.92c.18,0,.36.06.52.07a4.26,4.26,0,0,0,2.69-.86,4,4,0,0,0,2-2.91,4.12,4.12,0,0,0-.77-2.54,4.44,4.44,0,0,0-3.53-2.31m12,.09a7.76,7.76,0,0,0-2.49-6.64,12.12,12.12,0,0,0-7.83-3,9.37,9.37,0,0,0,1.84.65,17.17,17.17,0,0,1,2.22.78,9.66,9.66,0,0,1,5,4.61,14.19,14.19,0,0,1,.66,2,4.65,4.65,0,0,0,.6,1.52" transform="translate(-0.03 0)"/><path class="e" d="M62.06,34.86a14.23,14.23,0,0,1,7.33-1.26,22.57,22.57,0,0,1,2.59.3c4.1.68,7,2.08,8.7,4.17a11.52,11.52,0,0,1,2.72,8.49A13.89,13.89,0,0,1,83,49a17.8,17.8,0,0,1-6.87,9.8,11.62,11.62,0,0,1-7.94,2.06h-.5a14.43,14.43,0,0,1-8.12-3.11,12.32,12.32,0,0,1-3.82-5.52A14.51,14.51,0,0,1,55,46.13v-.48a14.74,14.74,0,0,1,2.2-6.25A12.33,12.33,0,0,1,62.06,34.86Zm6.48,19.86A7.26,7.26,0,0,0,67,53.59,6.31,6.31,0,0,1,64.73,51c-.48-1-.74-1.59-.77-1.62a5,5,0,0,0,1,3.49A4.55,4.55,0,0,0,68.54,54.72Zm1.11-10A3.61,3.61,0,0,0,66.17,47a4.18,4.18,0,0,0-.49,1.62,5.27,5.27,0,0,0,.63,2.78,3.3,3.3,0,0,0,2.38,1.92c.18,0,.36.06.52.07a4.26,4.26,0,0,0,2.69-.86,4,4,0,0,0,2-2.91A4.12,4.12,0,0,0,73.18,47a4.43,4.43,0,0,0-3.53-2.3Zm12,.09a7.76,7.76,0,0,0-2.49-6.64,12.12,12.12,0,0,0-7.83-3,9.37,9.37,0,0,0,1.84.65,17.17,17.17,0,0,1,2.22.78,9.66,9.66,0,0,1,5,4.61,14.19,14.19,0,0,1,.66,2,4.6,4.6,0,0,0,.58,1.6Z" transform="translate(-0.03 0)"/><path class="d" d="M83.68,61c-1.36.07-2.16-.18-2.39-.75-.45-1.1-.63-4.83-.56-11.18,0-1.24,0-2.37.06-3.4q.17-6.2.78-7.65c.62-1.5,2.11-2.43,4.49-2.79a12.7,12.7,0,0,1,1.5-.15,15.07,15.07,0,0,1,4.23.39A9.76,9.76,0,0,1,97.88,40a10.63,10.63,0,0,1,1.87,6.13,4.29,4.29,0,0,1-.06.88,7.54,7.54,0,0,1-2.39,4.54,8.2,8.2,0,0,1-1.71,1.22c-.48.24-1,.5-1.7.76a1.63,1.63,0,0,0-.59.33.09.09,0,0,0,0,.07q0,.15.3.36c.32.24,1,.79,1.91,1.63a17.2,17.2,0,0,0,2,1.64c.65.47,1,.88,1,1.25a.59.59,0,0,1-.14.38c-.51.67-1.78,1.07-3.82,1.21h-.24A5.8,5.8,0,0,1,91,59.86s-.84-1.22-2.53-3.51c-.39-.6-.71-.89-1-.88h-.06c-.18.05-.27.34-.29.87v1.42a3.21,3.21,0,0,1-.7,2.48,5,5,0,0,1-2.79.73M83,39a2.89,2.89,0,0,1,1-1.29,6.53,6.53,0,0,1,1.61-.85l.42-.15.09-.25a4.38,4.38,0,0,0-2.67.78,3,3,0,0,0-.85,2.32.78.78,0,0,0,.45-.56m4,7.25v.13c0,1.1.38,1.63,1.24,1.59a3.43,3.43,0,0,0,1-.21c1.63-.57,2.48-1.34,2.55-2.29h0c0-.57-.37-1-1.16-1.24A6.64,6.64,0,0,0,88.56,44H88.5a1.23,1.23,0,0,0-1.2.67,7.32,7.32,0,0,0-.19,1.62m5.08,1.63a2.56,2.56,0,0,0,1-1.61,1,1,0,0,0-.12-.48A3.7,3.7,0,0,1,92.3,47,9.34,9.34,0,0,1,90,48.7a6.68,6.68,0,0,1-1.23.52,5.29,5.29,0,0,0,3.43-1.33" transform="translate(-0.03 0)"/><path class="e" d="M83.68,61c-1.36.07-2.16-.18-2.39-.75-.45-1.1-.63-4.83-.56-11.18,0-1.24,0-2.37.06-3.4q.17-6.2.78-7.65c.62-1.5,2.11-2.43,4.49-2.79a12.7,12.7,0,0,1,1.5-.15,15.07,15.07,0,0,1,4.23.39A9.76,9.76,0,0,1,97.88,40a10.63,10.63,0,0,1,1.87,6.13,4.29,4.29,0,0,1-.06.88,7.54,7.54,0,0,1-2.39,4.54,8.2,8.2,0,0,1-1.71,1.22c-.48.24-1,.5-1.7.76a1.63,1.63,0,0,0-.59.33.09.09,0,0,0,0,.07q0,.15.3.36c.32.24,1,.79,1.91,1.63a17.2,17.2,0,0,0,2,1.64c.65.47,1,.88,1,1.25a.59.59,0,0,1-.14.38c-.51.67-1.78,1.07-3.82,1.21h-.24A5.8,5.8,0,0,1,91,59.86s-.84-1.22-2.53-3.51c-.39-.6-.71-.89-1-.88h-.06c-.18.05-.27.34-.29.87v1.42a3.21,3.21,0,0,1-.7,2.48A5,5,0,0,1,83.68,61Zm3.4-14.75v.13c0,1.1.38,1.63,1.24,1.59a3.43,3.43,0,0,0,1-.21c1.63-.57,2.48-1.34,2.55-2.29h0c0-.57-.37-1-1.16-1.24A6.64,6.64,0,0,0,88.58,44h-.06a1.23,1.23,0,0,0-1.2.67,7.17,7.17,0,0,0-.22,1.6Z" transform="translate(-0.03 0)"/><path class="d" d="M30.3,86.7c-.13,0-.75,1.89-1.38,2.74a8.42,8.42,0,0,1-8.72,2.74c-5.22-1.39-8.78-7.63-7.68-11.63a5,5,0,0,1,1.57-2.34,3.59,3.59,0,0,1,1.17-.51,3.42,3.42,0,0,1-.09-.63c.24-.9,1.83-.75,3-.41,3.52,1.07,8.85,4.87,10.06,5.92.61.53.83.94.79,1.16s-.32.32-.71.23A3.17,3.17,0,0,1,27,83.23c-1.28-1.13-5.91-4.67-8.86-5.55-1.19-.36-2.16-.2-2.46.59a.34.34,0,0,1-.11.17,4,4,0,0,0-1.65,2.32c-.9,3.34,1.83,7.89,4.73,9.63a7.48,7.48,0,0,0,1.93.82c5.38,1.43,8.44-3.06,9.17-7,.6-3.27-.11-6.53-.55-9.75-.08-.63-.26-1.78-.55-3.13a1.7,1.7,0,0,1,0-.71c.09-.44.36-.67.64-.6,1.45.34,2,11,1.53,14.75a1.75,1.75,0,0,0,1.29,2.1l.17,0a.42.42,0,0,1,.33.49.39.39,0,0,1-.45.32h0a5.1,5.1,0,0,1-1.79-1" transform="translate(-0.03 0)"/><path class="f" d="M30.3,86.7c-.13,0-.75,1.89-1.38,2.74a8.42,8.42,0,0,1-8.72,2.74c-5.22-1.39-8.78-7.63-7.68-11.63a5,5,0,0,1,1.57-2.34,3.59,3.59,0,0,1,1.17-.51,3.42,3.42,0,0,1-.09-.63c.24-.9,1.83-.75,3-.41,3.52,1.07,8.85,4.87,10.06,5.92.61.53.83.94.79,1.16s-.32.32-.71.23A3.17,3.17,0,0,1,27,83.23c-1.28-1.13-5.91-4.67-8.86-5.55-1.19-.36-2.16-.2-2.46.59a.34.34,0,0,1-.11.17,4,4,0,0,0-1.65,2.32c-.9,3.34,1.83,7.89,4.73,9.63a7.48,7.48,0,0,0,1.93.82c5.38,1.43,8.44-3.06,9.17-7,.6-3.27-.11-6.53-.55-9.75-.08-.63-.26-1.78-.55-3.13a1.7,1.7,0,0,1,0-.71c.09-.44.36-.67.64-.6,1.45.34,2,11,1.53,14.75a1.75,1.75,0,0,0,1.29,2.1l.17,0a.42.42,0,0,1,.33.49.39.39,0,0,1-.45.32h0A5.07,5.07,0,0,1,30.3,86.7Z" transform="translate(-0.03 0)"/><path class="d" d="M37.5,87.86A32.85,32.85,0,0,1,35.19,83c-.16-.73.85-3.08.85-3.08s.79-1.85,1.35-2.1c4.74-2.09,7.9,8.2,4.55,10.71,1,.14,1.48.21,2.46.33a.43.43,0,0,1,.36.47.4.4,0,0,1-.44.35c-1.34-.17-2.59-.34-4-.54h0a3.68,3.68,0,0,1-.66-.06c-8.28-1.26-1.7-.26-.08,0,0,0-4.77-.77-7.54-1.33a.43.43,0,0,1-.33-.5.4.4,0,0,1,.46-.31l5.28,1m3.08.24c2.42-1.14,1.19-6.39-.1-8.1-1-1.26-1.8-1.74-2.51-1.41s-1,1.46-1.24,1.6h-.09l.1.13a2,2,0,0,1,.06.9c0,.46.7,8.35,3.78,6.9M38.15,76.38a.72.72,0,0,1-.31-.68c.07-.49.4-.66,1-.56.87.15,1.27.41,1.21.81a.85.85,0,0,1-.85.85.66.66,0,0,1-.24,0,1.48,1.48,0,0,1-.79-.39" transform="translate(-0.03 0)"/><path class="f" d="M37.5,87.86A32.85,32.85,0,0,1,35.19,83c-.16-.73.85-3.08.85-3.08s.79-1.85,1.35-2.1c4.74-2.09,7.9,8.2,4.55,10.71,1,.14,1.48.21,2.46.33a.43.43,0,0,1,.36.47.4.4,0,0,1-.44.35c-1.34-.17-2.59-.34-4-.54h0a3.68,3.68,0,0,1-.66-.06c-8.28-1.26-1.7-.26-.08,0,0,0-4.77-.77-7.54-1.33a.43.43,0,0,1-.33-.5.4.4,0,0,1,.46-.31Zm3.08.24C43,87,41.77,81.71,40.48,80c-.95-1.26-1.8-1.74-2.51-1.41s-1,1.46-1.24,1.6h-.09l.1.13a2,2,0,0,1,.06.9c0,.41.7,8.3,3.78,6.85ZM38.2,76.27a.72.72,0,0,1-.31-.68c.07-.49.4-.66,1-.56.87.15,1.27.41,1.21.81a.85.85,0,0,1-.85.85.66.66,0,0,1-.24,0,1.48,1.48,0,0,1-.81-.42Z" transform="translate(-0.03 0)"/><path class="g" d="M44.32,89.66a.42.42,0,0,1-.36-.45.41.41,0,0,1,.45-.37h0l3.34.38c.3-.44-2.73-8.07-3-12.08a22.2,22.2,0,0,1-.1-2.45c.06-2,1.42-1.35,1.44,0v1a18.16,18.16,0,0,0,.07,2.15c.11,1.16,1,7,1,7s.74-2.93,1.82-3.93c2.26-2.14,5.66-1.51,8.34-.22,3.21,1.55,6.44,4.29,6.17,6.74-.5,4.51-13.86,2.8-13.86,2.8a3.86,3.86,0,0,0,.44.62A6.71,6.71,0,0,1,51,92.05c0,.39-.26.62-.74.59-.31,0-.71-.36-1.17-1a13.46,13.46,0,0,1-1-1.57c-1.51-.16-2.27-.24-3.78-.43m17-.79c3.1-2.33-2-6.35-5.75-7.88-2.28-.93-5-.88-6.4,1s-1,6.73-.12,7.34c1.34.94,9.74,1.42,12.27-.48" transform="translate(-0.03 0)"/><path class="f" d="M44.32,89.66a.42.42,0,0,1-.36-.45.41.41,0,0,1,.45-.37h0l3.34.38c.3-.44-2.73-8.07-3-12.08a22.2,22.2,0,0,1-.1-2.45c.06-2,1.42-1.35,1.44,0v1a18.16,18.16,0,0,0,.07,2.15c.11,1.16,1,7,1,7s.74-2.93,1.82-3.93c2.26-2.14,5.66-1.51,8.34-.22,3.21,1.55,6.44,4.29,6.17,6.74-.5,4.51-13.86,2.8-13.86,2.8a3.86,3.86,0,0,0,.44.62A6.71,6.71,0,0,1,51,92.05c0,.39-.26.62-.74.59-.31,0-.71-.36-1.17-1a13.46,13.46,0,0,1-1-1.57C46.59,89.93,45.83,89.86,44.32,89.66Zm17-.79c3.1-2.33-2-6.35-5.75-7.88-2.28-.93-5-.88-6.4,1s-1,6.73-.12,7.34c1.37,1,9.77,1.44,12.3-.47Z" transform="translate(-0.03 0)"/><path class="d" d="M76.55,89.32c-.07,0-.5.7-.85,1a3,3,0,0,1-2.49.52c-4.67-.86-6.77-11.74-1.15-11a7.57,7.57,0,0,1,2.25,1.54,2.53,2.53,0,0,0,.55,0c.15-.14-.16-1.84.16-1.84,1.8,0,1.16,2.84,1.32,3.7a2.65,2.65,0,0,0,.23.72,12.41,12.41,0,0,1,.5,3.48c0,.89.38,2.25,1.94,2.11a.41.41,0,0,1,.42.4h0a.41.41,0,0,1-.37.43,4.52,4.52,0,0,1-2.51-1M69.8,78.48a.76.76,0,0,1-.44-.61c0-.49.28-.73.87-.75.9,0,1.33.15,1.34.56a.88.88,0,0,1-.74,1h-.26a1.52,1.52,0,0,1-.81-.22m4,3.32c-.47-.2-1.24-1-1.89-1.11-.83-.11-1.41.55-1.74,2-.45,1.91.94,7,3.81,7.36,3.53.37.75-6.46.24-7.28a1.72,1.72,0,0,1-.36-.83v-.14s-.07,0-.08,0m-1.5-3.42a.71.71,0,0,1-.42-.61c0-.49.27-.72.85-.75.88,0,1.31.13,1.33.53a.87.87,0,0,1-.75,1h-.17a1.66,1.66,0,0,1-.84-.21" transform="translate(-0.03 0)"/><path class="f" d="M76.55,89.32c-.07,0-.5.7-.85,1a3,3,0,0,1-2.49.52c-4.67-.86-6.77-11.74-1.15-11a7.57,7.57,0,0,1,2.25,1.54,2.53,2.53,0,0,0,.55,0c.15-.14-.16-1.84.16-1.84,1.8,0,1.16,2.84,1.32,3.7a2.65,2.65,0,0,0,.23.72,12.41,12.41,0,0,1,.5,3.48c0,.89.38,2.25,1.94,2.11a.41.41,0,0,1,.42.4h0a.41.41,0,0,1-.37.43A4.56,4.56,0,0,1,76.55,89.32ZM69.8,78.42a.76.76,0,0,1-.44-.61c0-.49.28-.73.87-.75.9,0,1.33.15,1.34.56a.88.88,0,0,1-.74,1h-.26a1.58,1.58,0,0,1-.77-.2Zm4,3.32c-.47-.2-1.24-1-1.89-1.11-.83-.11-1.41.55-1.74,2-.45,1.91.94,7,3.81,7.36,3.53.37.75-6.46.24-7.28a1.72,1.72,0,0,1-.36-.83v-.14s-.09,0-.1,0Zm-1.5-3.42a.71.71,0,0,1-.42-.61c0-.49.27-.72.85-.75.88,0,1.31.13,1.33.53a.87.87,0,0,1-.75,1h-.17a1.58,1.58,0,0,1-.88-.17Z" transform="translate(-0.03 0)"/><path class="d" d="M78.64,89.94a.42.42,0,0,1,.37-.46c3.7-.31.09-7,0-8.44a.66.66,0,0,1,.68-.76c.48,0,1.14.72,1.62,2.33s1.89,7.34-2.25,7.7a.39.39,0,0,1-.42-.36h0m2.51,1.61c0-.4-.5-.55-1.46-.46-.63,0-.93.3-.9.79a.77.77,0,0,0,.5.59,1.58,1.58,0,0,0,.88.17,1,1,0,0,0,1-1.09m2.49-.26c0-.4-.51-.55-1.45-.45-.63.07-.92.32-.89.81a.69.69,0,0,0,.48.58,1.78,1.78,0,0,0,.91.16.94.94,0,0,0,1-.89,1.49,1.49,0,0,0,0-.21" transform="translate(-0.03 0)"/><path class="f" d="M78.64,89.94a.42.42,0,0,1,.37-.46c3.7-.31.09-7,0-8.44a.66.66,0,0,1,.68-.76c.48,0,1.14.72,1.62,2.33s1.89,7.34-2.25,7.7a.39.39,0,0,1-.42-.36Zm2.51,1.61c0-.4-.5-.55-1.46-.46-.63,0-.93.3-.9.79a.77.77,0,0,0,.5.59,1.58,1.58,0,0,0,.88.17C80.88,92.57,81.2,92.2,81.15,91.55Zm2.49-.26c0-.4-.51-.55-1.45-.45-.63.07-.92.32-.89.81a.69.69,0,0,0,.48.58,1.78,1.78,0,0,0,.91.16.94.94,0,0,0,1-.89A1.49,1.49,0,0,0,83.64,91.29Z" transform="translate(-0.03 0)"/><path class="d" d="M91,88.44a.44.44,0,0,1-.35.47c-4,.63-6.65-9.27-7.31-11.58a16.17,16.17,0,0,1-.62-2.67c-.06-.71.17-1.06.49-1.1,1-.12,1.44,3.1,1.66,4.08.4,1.76,2.56,10.91,5.68,10.45a.4.4,0,0,1,.45.32v0" transform="translate(-0.03 0)"/><path class="f" d="M91,88.44a.44.44,0,0,1-.35.47c-4,.63-6.65-9.27-7.31-11.58a16.17,16.17,0,0,1-.62-2.67c-.06-.71.17-1.06.49-1.1,1-.12,1.44,3.1,1.66,4.08.4,1.76,2.56,10.91,5.68,10.45a.4.4,0,0,1,.45.32Z" transform="translate(-0.03 0)"/><path class="d" d="M90.16,88.57a.44.44,0,0,1,.34-.48c3.12-.52,10.54-1.56,9.91-5.14-.09-.48-.65-.72-1.7-.77-.51,0-1.63,0-3.35.14a31.06,31.06,0,0,1-3.61,0c-1.19-.07-1.9-.53-2-1.13-.4-3.21,5.09-8,8.61-8.79a1.78,1.78,0,0,1,2.29,1,2.39,2.39,0,0,1,0,1.43c-.12.37-.3.6-.54.66a.76.76,0,0,1-.51-.09.44.44,0,0,1-.26-.38v-.82s-.46-.94-1-.82c-2.21.49-7.56,5.4-7.3,7.37.05.36.54.57,1.44.64A33.69,33.69,0,0,0,96,81.34a20.34,20.34,0,0,1,3.66,0c1.21.19,1.93.69,2.08,1.5q0,.33,0,.66a1.76,1.76,0,0,0,1.62,1.89,1.84,1.84,0,0,0,.57,0l2.32-.59a.4.4,0,0,1,.48.3v0a.44.44,0,0,1-.31.49c-2.33.61-2.34.59-2.34.59-1.42.34-2.88-1.06-3-1.07s-.58.66-1,1c-2.51,1.83-6.39,2.32-9.5,2.8a.39.39,0,0,1-.44-.33" transform="translate(-0.03 0)"/><path class="f" d="M90.16,88.57a.44.44,0,0,1,.34-.48c3.12-.52,10.54-1.56,9.91-5.14-.09-.48-.65-.72-1.7-.77-.51,0-1.63,0-3.35.14a31.06,31.06,0,0,1-3.61,0c-1.19-.07-1.9-.53-2-1.13-.4-3.21,5.09-8,8.61-8.79a1.78,1.78,0,0,1,2.29,1,2.39,2.39,0,0,1,0,1.43c-.12.37-.3.6-.54.66a.76.76,0,0,1-.51-.09.44.44,0,0,1-.26-.38v-.82s-.46-.94-1-.82c-2.21.49-7.56,5.4-7.3,7.37.05.36.54.57,1.44.64A33.69,33.69,0,0,0,96,81.34a20.34,20.34,0,0,1,3.66,0c1.21.19,1.93.69,2.08,1.5q0,.33,0,.66a1.76,1.76,0,0,0,1.62,1.89,1.84,1.84,0,0,0,.57,0l2.32-.59a.4.4,0,0,1,.48.3v0a.44.44,0,0,1-.31.49c-2.33.61-2.34.59-2.34.59-1.42.34-2.88-1.06-3-1.07s-.58.66-1,1c-2.51,1.83-6.39,2.32-9.5,2.8A.39.39,0,0,1,90.16,88.57Z" transform="translate(-0.03 0)"/><path class="d" d="M121.39,76c-.29-2-9.47-2.12-12-1.39-1.32.38-1.88,1-1.69,1.87.16.7,1.65,1.77,1.72,2.1s-.14.62-.71.78-1.92-1.75-2-2.32c-.33-1.52.76-3,2.59-3.57,3-.89,13.4-.08,13.32,1.72-.19,4.36-10.46,8.82-16.22,10.47a.4.4,0,0,1-.47-.27v0a.47.47,0,0,1,.3-.52c4.1-1.21,15.45-6.82,15.16-8.85" transform="translate(-0.03 0)"/><path class="f" d="M121.39,76c-.29-2-9.47-2.12-12-1.39-1.32.38-1.88,1-1.69,1.87.16.7,1.65,1.77,1.72,2.1s-.14.62-.71.78-1.92-1.75-2-2.32c-.33-1.52.76-3,2.59-3.57,3-.89,13.4-.08,13.32,1.72-.19,4.36-10.46,8.82-16.22,10.47a.4.4,0,0,1-.47-.27v0a.47.47,0,0,1,.3-.52C110.33,83.61,121.68,78,121.39,76Z" transform="translate(-0.03 0)"/><path class="d" d="M116.34,31.15a50,50,0,0,1,3.13-4.89q3.6-4.86,7.76-4.65h.2a14.43,14.43,0,0,1,4.71,1.08q2.6,1.14,2.88,2.94a3.35,3.35,0,0,1,0,1q.1,4-11.93,14.13-5.58,4.68-4,11.05c.11,3.55-.19,6.13-.92,7.73S116.87,62,116,62.36q-1.64.77-6.1.47h-.16a16.09,16.09,0,0,1-5.81-1.16,4.67,4.67,0,0,1-2.2-2.25,8.25,8.25,0,0,1-.44-3,20.08,20.08,0,0,1,.61-4.82,37.51,37.51,0,0,1,1.46-4.88,5.22,5.22,0,0,0-.38-4.43,32.6,32.6,0,0,0-3.8-4.88q-5.75-6.49-6-6.86-3.89-4.87-3.65-7.11v-.15c.29-1.49,1.41-2.55,3.35-3.16a9.89,9.89,0,0,1,3.63-.41,12.25,12.25,0,0,1,2.62.5,15.19,15.19,0,0,1,8.56,6.19,31,31,0,0,1,3.67,8.8c.36,1.21.67,1.83.93,1.85s.75-.57,1.53-1.7q.51-.77,2.5-4.15" transform="translate(-0.03 0)"/><path class="e" d="M116.34,31.15a50,50,0,0,1,3.13-4.89q3.6-4.86,7.76-4.65h.2a14.43,14.43,0,0,1,4.71,1.08q2.6,1.14,2.88,2.94a3.35,3.35,0,0,1,0,1q.1,4-11.93,14.13-5.58,4.68-4,11.05c.11,3.55-.19,6.13-.92,7.73S116.87,62,116,62.36q-1.64.77-6.1.47h-.16a16.09,16.09,0,0,1-5.81-1.16,4.67,4.67,0,0,1-2.2-2.25,8.25,8.25,0,0,1-.44-3,20.08,20.08,0,0,1,.61-4.82,37.51,37.51,0,0,1,1.46-4.88,5.22,5.22,0,0,0-.38-4.43,32.6,32.6,0,0,0-3.8-4.88q-5.75-6.49-6-6.86-3.89-4.87-3.65-7.11v-.15c.29-1.49,1.41-2.55,3.35-3.16a9.89,9.89,0,0,1,3.63-.41,12.25,12.25,0,0,1,2.62.5,15.19,15.19,0,0,1,8.56,6.19,31,31,0,0,1,3.67,8.8c.36,1.21.67,1.83.93,1.85s.75-.57,1.53-1.7C114.18,34.81,115,33.41,116.34,31.15ZM94.25,22.86a4.69,4.69,0,0,0,1.51-1.06c-2.27-.16-3.45.17-3.53,1a1.55,1.55,0,0,0,.19.82A7.53,7.53,0,0,0,94.25,22.86Zm18.3,15.34a1.73,1.73,0,0,0,.92.34q1.57.12,3.66-2.73,1-1.45,1.86-3l1.12-2c2.13-3.36,3.75-5.23,4.88-5.6a15.57,15.57,0,0,1,2.2-1.28h0a2,2,0,0,0-1-.34c-1.48-.11-3.11,1.05-4.9,3.5-.84,1.15-1.8,2.64-2.89,4.49s-1.75,2.9-1.87,3.05a11,11,0,0,1-2.4,2c-1,.7-1.59,1.19-1.62,1.45Z" transform="translate(-0.03 0)"/><path class="d" d="M78.56,34.43a1,1,0,0,1,0,.24,1.62,1.62,0,0,1-.73,1.23,2.6,2.6,0,0,1-1.79.49,3.18,3.18,0,0,1-2-.92,4.74,4.74,0,0,1-1.25-2.67c-.17-1-.67-1.6-1.5-1.69h-.07a2.3,2.3,0,0,0-2.11,1.23c-.81,1.17-1.21,1.76-1.21,1.77h0a3.74,3.74,0,0,1-1.67,1.18,3.49,3.49,0,0,1-1.5.22l-.41-.06a2,2,0,0,1-1.4-.9,2.11,2.11,0,0,1-.29-1.32,4.1,4.1,0,0,1,.12-.7c.21-.79.5-1.7.87-2.71.49-1.32.89-2.35,1.19-3.08q.7-1.64,1.29-2.79,3.12-6.35,5.67-7.15a2.34,2.34,0,0,1,.87-.1c1.07.09,2,1,2.89,2.71q2.48,5,3,15M64,32.41h0a42,42,0,0,1,1.59-4.08c.63-1.53,1.23-2.85,1.82-4,1.52-2.93,3-4.92,4.37-5.95.3-.21.45-.39.46-.54a.14.14,0,0,0,0-.09h-.17c-.59-.05-1.36.54-2.32,1.78A31.79,31.79,0,0,0,67,24.23q-2.83,5.67-3,7.62a1.82,1.82,0,0,0,0,.57m8.52-5.69c-.09-.61-.17-1.1-.25-1.47-.16-.72-.35-1.09-.55-1.11s-.31.12-.46.39a16.59,16.59,0,0,0-.94,2.55,3,3,0,0,0-.07.32v.05a.18.18,0,0,0,.12.06.38.38,0,0,0,.15,0,2.51,2.51,0,0,1,.67,0,3,3,0,0,1,.72.14l.51.16h.21l-.13-1.07m-.6,1.93a5.17,5.17,0,0,0,.55.07c.54.05.88,0,1-.24a.52.52,0,0,0,.11-.32,3,3,0,0,0-.24-1.14v.21a1.79,1.79,0,0,1-.2.67,1.43,1.43,0,0,1-1.26.75" transform="translate(-0.03 0)"/><path class="e" d="M78.56,34.43a1,1,0,0,1,0,.24,1.62,1.62,0,0,1-.73,1.23,2.6,2.6,0,0,1-1.79.49,3.18,3.18,0,0,1-2-.92,4.74,4.74,0,0,1-1.25-2.67c-.17-1-.67-1.6-1.5-1.69h-.07a2.3,2.3,0,0,0-2.11,1.23c-.81,1.17-1.21,1.76-1.21,1.77h0a3.74,3.74,0,0,1-1.67,1.18,3.49,3.49,0,0,1-1.5.22l-.41-.06a2,2,0,0,1-1.4-.9,2.11,2.11,0,0,1-.29-1.32,4.1,4.1,0,0,1,.12-.7c.21-.79.5-1.7.87-2.71.49-1.32.89-2.35,1.19-3.08q.7-1.64,1.29-2.79,3.12-6.35,5.67-7.15a2.34,2.34,0,0,1,.87-.1c1.07.09,2,1,2.89,2.71Q78,24.4,78.56,34.43Zm-14.51-2h0a42,42,0,0,1,1.59-4.08c.63-1.53,1.23-2.85,1.82-4,1.52-2.93,3-4.92,4.37-6,.3-.21.45-.39.46-.54a.14.14,0,0,0,0-.09h-.17c-.59-.05-1.36.54-2.32,1.78A31.79,31.79,0,0,0,67,24.25q-2.83,5.67-3,7.62a1.57,1.57,0,0,0,0,.53Zm8.52-5.69c-.09-.61-.17-1.1-.25-1.47-.16-.72-.35-1.09-.55-1.11s-.31.12-.46.39a16.59,16.59,0,0,0-.94,2.55,3,3,0,0,0-.07.32v0a.18.18,0,0,0,.12.06h.15a2.51,2.51,0,0,1,.67,0,3,3,0,0,1,.72.14l.51.16h.21s0-.46-.11-1.12ZM72,28.67a5.17,5.17,0,0,0,.55.07c.54.05.88,0,1-.24a.52.52,0,0,0,.11-.32A3,3,0,0,0,73.39,27v.21a1.79,1.79,0,0,1-.2.67,1.42,1.42,0,0,1-1.21.72Z" transform="translate(-0.03 0)"/></g></g></g><rect class="a" x="57.95" y="21.39" width="135.94" height="94.06"/></svg>