<svg xmlns="http://www.w3.org/2000/svg" viewBox="0 0 275.43 60.85"><defs><style>.cls-1{fill:#fff;}.cls-2{fill:#131211;}.cls-3{fill:#141715;}.cls-4{fill:#131013;}.cls-5{fill:#101214;}.cls-6{fill:#0f1111;}.cls-7{fill:#141312;}.cls-8{fill:#121313;}.cls-9{fill:#f17b23;}.cls-10{fill:#6cb447;}.cls-11{fill:#e44594;}.cls-12{fill:#28a1d7;}.cls-13{fill:#f8b932;}.cls-14{fill:#c8ad72;}</style></defs><g id="Layer_2" data-name="Layer 2"><g id="Layer_1-2" data-name="Layer 1"><path class="cls-1" d="M244.34,43.21a17.64,17.64,0,0,0,30.75-14.73,17.76,17.76,0,0,0-16.65-14.33,15.11,15.11,0,0,0-13.3,6.46c-.23.31-.45.64-.79,1.14,0-2.45,0-4.66,0-6.87,0-.71-.25-.8-.84-.65a15,15,0,0,1-2.27.47c-.76.06-.89.4-.89,1.08q0,17.79,0,35.56c0,2.94,0,5.88,0,8.82,0,.74.26.75.82.62.81-.19,1.63-.36,2.45-.5.53-.09.75-.28.73-.87,0-1.92,0-3.84,0-5.76ZM4,21.2v-.77Q4,10.62,4,.8C4,.2,3.91,0,3.29.14a18.54,18.54,0,0,1-2.2.42C.24.64,0,1,0,1.85c0,9.22,0,18.43,0,27.64A34.61,34.61,0,0,0,.3,34.78c.62,3.92,2,7.49,5.07,10.15,5.22,4.58,11.38,5.56,17.83,3.63,12-3.57,15.65-17.77,9.7-27.07-4.65-7.27-15.23-9.6-23-5.16A25.83,25.83,0,0,0,4,21.2ZM75.22,0a28.9,28.9,0,0,1-3.14.61c-.8.08-.85.44-.85,1.09q0,14.45,0,28.89a25.26,25.26,0,0,0,.39,4.92c1,5.18,3.54,9.29,8.32,11.81a19.12,19.12,0,0,0,8.37,2.06,17.18,17.18,0,0,0,13-4.84,17.7,17.7,0,0,0,5.53-12.29,17,17,0,0,0-4.4-12.89c-5.79-6.22-15.91-7-23-1.92a31.05,31.05,0,0,0-4.19,3.71ZM60.08,45.37c0,1.09,0,2.19,0,3.29,0,.69.25.73.78.61a13,13,0,0,1,2.28-.47c.82,0,.94-.4.94-1.13q0-12.37,0-24.74a9.25,9.25,0,0,0-.26-2.23c-.81-3.29-3.13-5.1-6.21-6-4.69-1.32-9.23-.47-13.68,1.23-.17.07-.33.13-.39.32-.43,1.44-.86,2.88-1.31,4.42,1.79-.63,3.42-1.22,5.06-1.76,3-1,6.06-1.38,9.1-.1,2.44,1,3.9,2.51,3.73,5.48-.07,1.19,0,2.4,0,3.6,0,.21.13.48-.14.64-.78-.56-1.55-1.13-2.34-1.65A12,12,0,0,0,38.75,37.06a11,11,0,0,0,3.6,9,13.07,13.07,0,0,0,8.34,3.26C54.44,49.55,57.68,48.61,60.08,45.37ZM172.68,0a31.26,31.26,0,0,1-3.07.6c-.8.07-.91.4-.91,1.12q0,23.22,0,46.44a1.08,1.08,0,0,1,0,.18c-.13.7.15.87.82.74a14,14,0,0,1,2.22-.31c.69,0,.95-.26.95-1,0-7,0-14,0-21a7.94,7.94,0,0,1,2.46-6,11.05,11.05,0,0,1,10.17-2.95,7.16,7.16,0,0,1,4.4,2.4,7.27,7.27,0,0,1,1.54,4.84c0,7.74,0,15.48,0,23.22,0,.71.19.88.86.74a15.18,15.18,0,0,1,2.22-.3c.72,0,.93-.31.92-1,0-7,0-14,0-21a21.57,21.57,0,0,0-.2-3.5c-.53-3.17-1.87-5.84-4.81-7.37a15.5,15.5,0,0,0-12.1-.94,9.86,9.86,0,0,0-5.43,4.18V0Zm44.21,49.37a17.63,17.63,0,1,0-16.61-18.79C199.6,40.05,207,49,216.89,49.37Zm-92.2-10.83c-.24-.41-.43-.71-.6-1q-6.28-11.32-12.57-22.67c-.31-.57-.59-.78-1.24-.57a9.44,9.44,0,0,1-2.1.43c-.87.07-.92.32-.52,1.06,4.58,8.33,9.08,16.71,13.72,25a3.76,3.76,0,0,1,.06,4c-2.45,4.82-4.72,9.74-7.08,14.6-.28.56-.21.76.4.87s1.52.31,2.27.5.94,0,1.23-.63q5.88-12,11.81-24.06,5.07-10.33,10.18-20.66c.19-.38.22-.57-.27-.65-1-.18-1.93-.38-2.89-.6-.48-.11-.67.1-.87.51-1.22,2.57-2.47,5.12-3.71,7.67Zm37.52-20.46c-3.89-2.88-6.93-4.33-11.55-3.88-3.66.36-6.77,1.85-8.64,5.17-2.08,3.67-1.78,9.45,3.39,11.87a28.06,28.06,0,0,0,3.33,1.31,59,59,0,0,1,7,2.33c4.43,2.09,3.28,7.45.54,9.22A9.65,9.65,0,0,1,149,45.23a11.24,11.24,0,0,1-5.51-3c-.39-.35-.64-.39-1,0a24.62,24.62,0,0,1-2,1.65c-.39.29-.38.5-.07.85a15.87,15.87,0,0,0,2,1.88,13.91,13.91,0,0,0,11.73,2.49c5.4-1.1,8.23-4.51,8.57-9.19.27-3.81-1.18-6.7-4.53-8.45a24.25,24.25,0,0,0-5-1.75,29.77,29.77,0,0,1-5.85-2c-3.72-1.92-3-6.7-.27-8.38a9.21,9.21,0,0,1,6.82-1.09,13.89,13.89,0,0,1,5.57,2.59c.39.28.62.29.9-.14C161,19.81,161.59,19,162.21,18.08Z"/><path class="cls-2" d="M244.34,43.21V53.65c0,1.92,0,3.84,0,5.76,0,.59-.2.78-.73.87-.82.14-1.64.31-2.45.5-.56.13-.83.12-.82-.62,0-2.94,0-5.88,0-8.82q0-17.78,0-35.56c0-.68.13-1,.89-1.08a15,15,0,0,0,2.27-.47c.59-.15.86-.06.84.65,0,2.21,0,4.42,0,6.87.34-.5.56-.83.79-1.14a15.11,15.11,0,0,1,13.3-6.46,17.76,17.76,0,0,1,16.65,14.33,17.64,17.64,0,0,1-30.75,14.73Zm0-11.6c-.18,8.13,5.69,13.8,13.57,13.89a13.54,13.54,0,0,0,13.54-13.17c.24-8.33-5.35-14.27-13.5-14.35A13.75,13.75,0,0,0,244.32,31.61Z"/><path class="cls-3" d="M4,21.2a25.83,25.83,0,0,1,5.93-4.87c7.74-4.44,18.32-2.11,23,5.16,6,9.3,2.25,23.5-9.7,27.07-6.45,1.93-12.61.95-17.83-3.63C2.34,42.27.92,38.7.3,34.78A34.61,34.61,0,0,1,0,29.49C0,20.28,0,11.07,0,1.85,0,1,.24.64,1.09.56A18.54,18.54,0,0,0,3.29.14C3.91,0,4,.2,4,.8q0,9.81,0,19.63ZM31.67,31.65C31.76,24.12,26.22,18,18,18,10.14,18,4,23.58,4,32.1c0,7.71,6.13,13.38,14.16,13.39C26.33,45.51,31.7,39.17,31.67,31.65Z"/><path class="cls-4" d="M75.22,0V21.15a31.05,31.05,0,0,1,4.19-3.71c7.13-5.11,17.25-4.3,23,1.92a17,17,0,0,1,4.4,12.89,17.7,17.7,0,0,1-5.53,12.29,17.18,17.18,0,0,1-13,4.84A19.12,19.12,0,0,1,80,47.32c-4.78-2.52-7.32-6.63-8.32-11.81a25.26,25.26,0,0,1-.39-4.92q0-14.44,0-28.89c0-.65,0-1,.85-1.09A28.9,28.9,0,0,0,75.22,0Zm0,32c-.19,7.65,6.18,13.53,14,13.54,8.19,0,13.53-6,13.68-13.75S97.05,18,89.16,18A13.69,13.69,0,0,0,75.22,32Z"/><path class="cls-5" d="M60.08,45.37c-2.4,3.24-5.64,4.18-9.39,4a13.07,13.07,0,0,1-8.34-3.26,11,11,0,0,1-3.6-9A12,12,0,0,1,57.59,26.92c.79.52,1.56,1.09,2.34,1.65.27-.16.13-.43.14-.64,0-1.2,0-2.41,0-3.6.17-3-1.29-4.46-3.73-5.48-3-1.28-6.08-.89-9.1.1-1.64.54-3.27,1.13-5.06,1.76.45-1.54.88-3,1.31-4.42.06-.19.22-.25.39-.32,4.45-1.7,9-2.55,13.68-1.23,3.08.86,5.4,2.67,6.21,6a9.25,9.25,0,0,1,.26,2.23q0,12.36,0,24.74c0,.73-.12,1.09-.94,1.13a13,13,0,0,0-2.28.47c-.53.12-.82.08-.78-.61C60.12,47.56,60.08,46.46,60.08,45.37Zm0-8.22a8,8,0,0,0-8.32-8.38c-5.33,0-9.12,3.7-9.11,8.87,0,4.45,4,7.87,9.26,7.87A8,8,0,0,0,60.08,37.15Z"/><path class="cls-6" d="M172.68,0V19.05a9.86,9.86,0,0,1,5.43-4.18,15.5,15.5,0,0,1,12.1.94c2.94,1.53,4.28,4.2,4.81,7.37a21.57,21.57,0,0,1,.2,3.5c0,7,0,14,0,21,0,.73-.2,1-.92,1a15.18,15.18,0,0,0-2.22.3c-.67.14-.86,0-.86-.74,0-7.74,0-15.48,0-23.22a7.27,7.27,0,0,0-1.54-4.84,7.16,7.16,0,0,0-4.4-2.4,11.05,11.05,0,0,0-10.17,2.95,7.94,7.94,0,0,0-2.46,6c0,7,0,14,0,21,0,.75-.26,1-.95,1a14,14,0,0,0-2.22.31c-.67.13-.95,0-.82-.74a1.08,1.08,0,0,0,0-.18q0-23.22,0-46.44c0-.72.11-1,.91-1.12A31.26,31.26,0,0,0,172.68,0Z"/><path class="cls-7" d="M216.89,49.37C207,49,199.6,40.05,200.28,30.58a17.37,17.37,0,1,1,16.61,18.79Zm14-19.36a4.53,4.53,0,0,0-.22-1.51,13.44,13.44,0,0,0-17.13-9.83,13.77,13.77,0,0,0-9.13,15.49c1.6,8.94,11.16,14.2,19.38,9.75a13.27,13.27,0,0,0,7.08-10.13A8.28,8.28,0,0,0,230.88,30Z"/><path class="cls-8" d="M124.69,38.54l7.82-16.17c1.24-2.55,2.49-5.1,3.71-7.67.2-.41.39-.62.87-.51,1,.22,1.92.42,2.89.6.49.08.46.27.27.65q-5.1,10.32-10.18,20.66-5.92,12-11.81,24.06c-.29.59-.61.79-1.23.63s-1.51-.37-2.27-.5-.68-.31-.4-.87c2.36-4.86,4.63-9.78,7.08-14.6a3.76,3.76,0,0,0-.06-4c-4.64-8.3-9.14-16.68-13.72-25-.4-.74-.35-1,.52-1.06a9.44,9.44,0,0,0,2.1-.43c.65-.21.93,0,1.24.57q6.27,11.34,12.57,22.67C124.26,37.83,124.45,38.13,124.69,38.54Z"/><path class="cls-8" d="M162.21,18.08c-.62.87-1.26,1.73-1.86,2.62-.28.43-.51.42-.9.14a13.89,13.89,0,0,0-5.57-2.59,9.21,9.21,0,0,0-6.82,1.09c-2.69,1.68-3.45,6.46.27,8.38a29.77,29.77,0,0,0,5.85,2,24.25,24.25,0,0,1,5,1.75c3.35,1.75,4.8,4.64,4.53,8.45-.34,4.68-3.17,8.09-8.57,9.19a13.91,13.91,0,0,1-11.73-2.49,15.87,15.87,0,0,1-2-1.88c-.31-.35-.32-.56.07-.85a24.62,24.62,0,0,0,2-1.65c.4-.37.65-.33,1,0a11.24,11.24,0,0,0,5.51,3,9.65,9.65,0,0,0,7.34-1.13c2.74-1.77,3.89-7.13-.54-9.22a59,59,0,0,0-7-2.33,28.06,28.06,0,0,1-3.33-1.31c-5.17-2.42-5.47-8.2-3.39-11.87,1.87-3.32,5-4.81,8.64-5.17C155.28,13.75,158.32,15.2,162.21,18.08Z"/><path class="cls-9" d="M244.32,31.61A13.75,13.75,0,0,1,257.93,18c8.15.08,13.74,6,13.5,14.35A13.54,13.54,0,0,1,257.89,45.5C250,45.41,244.14,39.74,244.32,31.61Z"/><path class="cls-10" d="M31.67,31.65c0,7.52-5.34,13.86-13.53,13.84C10.11,45.48,4,39.81,4,32.1,4,23.58,10.14,18,18,18,26.22,18,31.76,24.12,31.67,31.65Z"/><path class="cls-11" d="M75.22,32A13.69,13.69,0,0,1,89.16,18c7.89,0,13.93,5.94,13.77,13.77S97.44,45.49,89.25,45.49C81.4,45.48,75,39.6,75.22,32Z"/><path class="cls-12" d="M60.08,37.15a8,8,0,0,1-8.17,8.36c-5.23,0-9.25-3.42-9.26-7.87,0-5.17,3.78-8.86,9.11-8.87A8,8,0,0,1,60.08,37.15Z"/><path class="cls-13" d="M230.86,33.78a13.27,13.27,0,0,1-7.08,10.13c-8.22,4.45-17.78-.81-19.38-9.75a13.77,13.77,0,0,1,9.13-15.49,13.44,13.44,0,0,1,17.13,9.83,4.53,4.53,0,0,1,.22,1.51C230.87,31.26,230.87,32.52,230.86,33.78Z"/><path class="cls-14" d="M230.86,33.78c0-1.26,0-2.52,0-3.77A8.28,8.28,0,0,1,230.86,33.78Z"/></g></g></svg>