<svg xmlns="http://www.w3.org/2000/svg" xmlns:xlink="http://www.w3.org/1999/xlink" viewBox="0 0 193.92 115.45"><defs><style>.a,.e,.k{fill:none;}.b{clip-path:url(#a);}.c{clip-path:url(#b);}.d{fill:#ea7f02;}.e{stroke:#1d1d1b;stroke-width:0.68px;}.e,.k{stroke-miterlimit:10;}.f{fill:#d779af;}.g{fill:#80ba27;}.h{fill:#e71682;}.i{fill:#4f96d2;}.j{fill:#36a9e1;}.k{stroke:#36a9e1;stroke-width:1.36px;}.l{fill:#fae900;}</style><clipPath id="a" transform="translate(-146.02 -165.14)"><rect class="a" x="145.65" y="164.88" width="135.94" height="94.06"/></clipPath><clipPath id="b" transform="translate(-146.02 -165.14)"><rect class="a" x="56.29" y="60.35" width="312.59" height="312.59"/></clipPath></defs><g class="b"><g class="c"><g class="c"><path class="d" d="M190.15,166.72a17.77,17.77,0,0,1,5.43-1.2,23.83,23.83,0,0,1,4.35.14,18.67,18.67,0,0,1,8.7,3.17q3.3,2.35,3.46,5.38a5.35,5.35,0,0,1,0,.8q-.36,4-6.13,8a15.45,15.45,0,0,1-2.51,1.23.94.94,0,0,1,.28-.05,12.89,12.89,0,0,1,3.56.76c2.68.81,4.19,2.08,4.56,3.81a3.93,3.93,0,0,1,.09.71,5.49,5.49,0,0,1-1.59,3.86,14.49,14.49,0,0,1-5.58,3.82,23,23,0,0,1-13,1.51,1,1,0,0,1-.8-.64q-.06-.19-.88-14.55l-.29-5.84c-.31-6-.44-9.27-.37-9.77a1.35,1.35,0,0,1,.7-1.15m3.28.94a1.4,1.4,0,0,0-.85-.16,4.37,4.37,0,0,0-1.14.27,1,1,0,0,0-.63.63c0,.09,0,.48,0,1.19a4.68,4.68,0,0,1,2.63-1.93m5.27,12.54q.15.39.78.42c.34,0,.66,0,1,0a7.13,7.13,0,0,0,2.37-.53c1-.41,1.42-1,1.38-1.79a2.63,2.63,0,0,0-.14-.71q-.75-2.13-4-1.92l-.5,0a1.18,1.18,0,0,0-1.2,1.11l0,1.09c.09.65.14,1.08.15,1.3a3.75,3.75,0,0,0,.13,1m2.42,7.31a2.14,2.14,0,0,0-1-.21c-.58,0-1,.44-1.15,1.21a3.73,3.73,0,0,0-.06.82,4,4,0,0,0,0,.47,1.29,1.29,0,0,0,.52.88,2.33,2.33,0,0,0,.82.07,6.24,6.24,0,0,0,1.14-.2c1-.24,1.54-.7,1.51-1.36v0c-.16-.73-.78-1.28-1.85-1.66m.27,4.18a4.28,4.28,0,0,0,1.51.2,2.11,2.11,0,0,0,1.29-.48,1.24,1.24,0,0,0,.5-1.07,2.54,2.54,0,0,0-.52-1.27,2.29,2.29,0,0,1-.62,1.72,4.92,4.92,0,0,1-2.16.9m.46-10.06a8.05,8.05,0,0,0,.86,0,4,4,0,0,0,2.28-.71,1.91,1.91,0,0,0,.76-1.69,3.86,3.86,0,0,0-.21-1,5.18,5.18,0,0,1-3.69,3.38" transform="translate(-146.02 -165.14)"/><path class="e" d="M190.15,166.72a17.77,17.77,0,0,1,5.43-1.2,23.83,23.83,0,0,1,4.35.14,18.67,18.67,0,0,1,8.7,3.17q3.3,2.35,3.46,5.38a5.35,5.35,0,0,1,0,.8q-.36,4-6.13,8a15.45,15.45,0,0,1-2.51,1.23.94.94,0,0,1,.28-.05,12.89,12.89,0,0,1,3.56.76c2.68.81,4.19,2.08,4.56,3.81a3.93,3.93,0,0,1,.09.71,5.49,5.49,0,0,1-1.59,3.86,14.49,14.49,0,0,1-5.58,3.82,23,23,0,0,1-13,1.51,1,1,0,0,1-.8-.64q-.06-.19-.88-14.55l-.29-5.84c-.31-6-.44-9.27-.37-9.77A1.35,1.35,0,0,1,190.15,166.72Zm3.28.94a1.4,1.4,0,0,0-.85-.16,4.37,4.37,0,0,0-1.14.27,1,1,0,0,0-.63.63c0,.09,0,.48,0,1.19A4.68,4.68,0,0,1,193.43,167.66Zm5.27,12.54q.15.39.78.42c.34,0,.66,0,1,0a7.13,7.13,0,0,0,2.37-.53c1-.41,1.42-1,1.38-1.79a2.63,2.63,0,0,0-.14-.71q-.75-2.13-4-1.92l-.5,0a1.18,1.18,0,0,0-1.2,1.11l0,1.09c.09.65.14,1.08.15,1.3A3.75,3.75,0,0,0,198.7,180.2Zm2.42,7.31a2.14,2.14,0,0,0-1-.21c-.58,0-1,.44-1.15,1.21a3.73,3.73,0,0,0-.06.82,4,4,0,0,0,0,.47,1.29,1.29,0,0,0,.52.88,2.33,2.33,0,0,0,.82.07,6.24,6.24,0,0,0,1.14-.2c1-.24,1.54-.7,1.51-1.36v0C202.81,188.44,202.19,187.89,201.12,187.51Zm.27,4.18a4.28,4.28,0,0,0,1.51.2,2.11,2.11,0,0,0,1.29-.48,1.24,1.24,0,0,0,.5-1.07,2.54,2.54,0,0,0-.52-1.27,2.29,2.29,0,0,1-.62,1.72A4.92,4.92,0,0,1,201.39,191.69Zm.46-10.06a8.05,8.05,0,0,0,.86,0,4,4,0,0,0,2.28-.71,1.91,1.91,0,0,0,.76-1.69,3.86,3.86,0,0,0-.21-1A5.18,5.18,0,0,1,201.85,181.63Z" transform="translate(-146.02 -165.14)"/><path class="f" d="M224,182.66a11.29,11.29,0,0,1,3.4-.68,15,15,0,0,1,2.73.11,12.54,12.54,0,0,1,5.54,2,4.5,4.5,0,0,1,2.27,3.27,2.44,2.44,0,0,1,0,.47c-.11,1.62-1.34,3.21-3.71,4.79a9.41,9.41,0,0,1-1.56.72l.18,0a8.51,8.51,0,0,1,2.25.48c1.7.5,2.68,1.28,2.94,2.32a2,2,0,0,1,.07.43,3.07,3.07,0,0,1-.93,2.31,8.57,8.57,0,0,1-3.44,2.27,14.66,14.66,0,0,1-4.7,1,15.39,15.39,0,0,1-3.43-.21.65.65,0,0,1-.51-.39q0-.12-.82-8.77l-.29-3.52q-.47-5.43-.42-5.88a.82.82,0,0,1,.42-.7m2.09.59a1,1,0,0,0-.54-.1,2.56,2.56,0,0,0-.72.16.54.54,0,0,0-.38.37s0,.29,0,.72a2.85,2.85,0,0,1,1.63-1.15m3.54,7.59a.55.55,0,0,0,.5.26c.21,0,.42,0,.61,0a4.51,4.51,0,0,0,1.48-.3c.6-.24.88-.6.84-1.07a1.82,1.82,0,0,0-.11-.43c-.33-.86-1.18-1.25-2.54-1.18l-.31,0c-.46,0-.71.26-.74.67l.06.65c.06.39.1.65.11.78a2.32,2.32,0,0,0,.1.61m1.66,4.42a1.44,1.44,0,0,0-.62-.13c-.36,0-.6.25-.7.72a1.6,1.6,0,0,0,0,.49,1.45,1.45,0,0,0,0,.28.82.82,0,0,0,.34.54,1.65,1.65,0,0,0,.51,0,3.51,3.51,0,0,0,.72-.11q1-.21.93-.81h0c-.11-.44-.51-.78-1.19-1m.25,2.52a3.16,3.16,0,0,0,.95.13,1.33,1.33,0,0,0,.8-.28.72.72,0,0,0,.3-.65,1.66,1.66,0,0,0-.35-.77,1.3,1.3,0,0,1-.36,1,3.08,3.08,0,0,1-1.34.53m.1-6.06h.54a2.47,2.47,0,0,0,1.42-.42,1.08,1.08,0,0,0,.45-1,2.49,2.49,0,0,0-.15-.58,3,3,0,0,1-2.26,2" transform="translate(-146.02 -165.14)"/><path class="e" d="M224,182.66a11.29,11.29,0,0,1,3.4-.68,15,15,0,0,1,2.73.11,12.54,12.54,0,0,1,5.54,2,4.5,4.5,0,0,1,2.27,3.27,2.44,2.44,0,0,1,0,.47c-.11,1.62-1.34,3.21-3.71,4.79a9.41,9.41,0,0,1-1.56.72l.18,0a8.51,8.51,0,0,1,2.25.48c1.7.5,2.68,1.28,2.94,2.32a2,2,0,0,1,.07.43,3.07,3.07,0,0,1-.93,2.31,8.57,8.57,0,0,1-3.44,2.27,14.66,14.66,0,0,1-4.7,1,15.39,15.39,0,0,1-3.43-.21.65.65,0,0,1-.51-.39q0-.12-.82-8.77l-.29-3.52q-.47-5.43-.42-5.88A.82.82,0,0,1,224,182.66Zm2.09.59a1,1,0,0,0-.54-.1,2.56,2.56,0,0,0-.72.16.54.54,0,0,0-.38.37s0,.29,0,.72A2.85,2.85,0,0,1,226.08,183.25Zm3.54,7.59a.55.55,0,0,0,.5.26c.21,0,.42,0,.61,0a4.51,4.51,0,0,0,1.48-.3c.6-.24.88-.6.84-1.07a1.82,1.82,0,0,0-.11-.43c-.33-.86-1.18-1.25-2.54-1.18l-.31,0c-.46,0-.71.26-.74.67l.06.65c.06.39.1.65.11.78A2.32,2.32,0,0,0,229.62,190.84Zm1.66,4.42a1.44,1.44,0,0,0-.62-.13c-.36,0-.6.25-.7.72a1.6,1.6,0,0,0,0,.49,1.45,1.45,0,0,0,0,.28.82.82,0,0,0,.34.54,1.65,1.65,0,0,0,.51,0,3.51,3.51,0,0,0,.72-.11q1-.21.93-.81h0C232.36,195.83,232,195.49,231.28,195.26Zm.25,2.52a3.16,3.16,0,0,0,.95.13,1.33,1.33,0,0,0,.8-.28.72.72,0,0,0,.3-.65,1.66,1.66,0,0,0-.35-.77,1.3,1.3,0,0,1-.36,1A3.08,3.08,0,0,1,231.53,197.78Zm.1-6.06h.54a2.47,2.47,0,0,0,1.42-.42,1.08,1.08,0,0,0,.45-1,2.49,2.49,0,0,0-.15-.58A3,3,0,0,1,231.63,191.72Z" transform="translate(-146.02 -165.14)"/><path class="g" d="M178.6,195.11q-8.74.18-9.41,1.11a.91.91,0,0,0-.19.57c0,.68.57,1.56,1.72,2.65.44.42,2,1.76,4.72,4q3.74,3.14,6,5.31,6.36,6.27,6.35,10.3a5.74,5.74,0,0,1-.09,1.06,11.89,11.89,0,0,1-4.87,7.21,15.67,15.67,0,0,1-8.6,3q-3.81.22-6.92.22-15.28,0-18.82-1.77c-1.4-.7-2.1-2.18-2.1-4.42a10.77,10.77,0,0,1,1.58-5.66c.6-1,3.17-1.5,7.69-1.5h8.55a25,25,0,0,0,4-.23c1.46-.26,2.22-.85,2.29-1.76v-.09c0-1.09-1.47-2.55-4.39-4.38q-1.4-.84-3.54-2c-1.46-.79-2.29-1.25-2.48-1.37q-10.84-6.59-12.89-14.24a12.82,12.82,0,0,1-.48-3.45q0-6.81,7.4-13.45,4.53-4.07,15.52-6a45.61,45.61,0,0,1,7.45-.71q5.63,0,8.45,2.13,4.77,3.54,5.49,12.25c.1,1.06.14,2.05.14,3q0,5.49-2.19,7.08c-.86.65-4.32,1-10.36,1.15m-27.84,26.36a3.05,3.05,0,0,1,2.29-.84,3.09,3.09,0,0,0-1.58-.53,2,2,0,0,0-1.19.4,1.67,1.67,0,0,0-.76,1.46,3.39,3.39,0,0,0,.28,1.24,6.36,6.36,0,0,1,1-1.73m1.14-35.69a21.72,21.72,0,0,1,1.91-3.45q3.34-4.56,11.46-7.17l4.11-1a13.12,13.12,0,0,0,3.34-1.11c-.32,0-.65,0-1,0a29.14,29.14,0,0,0-6.59,1.06,31.07,31.07,0,0,0-7.83,2.83,17.37,17.37,0,0,0-5.64,5.71,8.75,8.75,0,0,0-1.72,4.29,2.14,2.14,0,0,0,.44,1.41,11.15,11.15,0,0,0,1.52-2.56m14.52,33.92a2.83,2.83,0,0,0,1.62.44,6.92,6.92,0,0,0,2.68-.66c1.62-.65,2.43-1.66,2.43-3a4.75,4.75,0,0,0-.24-1.42,5.58,5.58,0,0,1-1.72,3,5.79,5.79,0,0,1-4.2,1.73,3.66,3.66,0,0,1-.57-.05" transform="translate(-146.02 -165.14)"/><path class="e" d="M178.6,195.11q-8.74.18-9.41,1.11a.91.91,0,0,0-.19.57c0,.68.57,1.56,1.72,2.65.44.42,2,1.76,4.72,4q3.74,3.14,6,5.31,6.36,6.27,6.35,10.3a5.74,5.74,0,0,1-.09,1.06,11.89,11.89,0,0,1-4.87,7.21,15.67,15.67,0,0,1-8.6,3q-3.81.22-6.92.22-15.28,0-18.82-1.77c-1.4-.7-2.1-2.18-2.1-4.42a10.77,10.77,0,0,1,1.58-5.66c.6-1,3.17-1.5,7.69-1.5h8.55a25,25,0,0,0,4-.23c1.46-.26,2.22-.85,2.29-1.76v-.09c0-1.09-1.47-2.55-4.39-4.38q-1.4-.84-3.54-2c-1.46-.79-2.29-1.25-2.48-1.37q-10.84-6.59-12.89-14.24a12.82,12.82,0,0,1-.48-3.45q0-6.81,7.4-13.45,4.53-4.07,15.52-6a45.61,45.61,0,0,1,7.45-.71q5.63,0,8.45,2.13,4.77,3.54,5.49,12.25c.1,1.06.14,2.05.14,3q0,5.49-2.19,7.08C188.1,194.61,184.64,195,178.6,195.11Zm-27.84,26.36a3.05,3.05,0,0,1,2.29-.84,3.09,3.09,0,0,0-1.58-.53,2,2,0,0,0-1.19.4,1.67,1.67,0,0,0-.76,1.46,3.39,3.39,0,0,0,.28,1.24A6.36,6.36,0,0,1,150.76,221.47Zm1.14-35.69a21.72,21.72,0,0,1,1.91-3.45q3.34-4.56,11.46-7.17l4.11-1a13.12,13.12,0,0,0,3.34-1.11c-.32,0-.65,0-1,0a29.14,29.14,0,0,0-6.59,1.06,31.07,31.07,0,0,0-7.83,2.83,17.37,17.37,0,0,0-5.64,5.71,8.75,8.75,0,0,0-1.72,4.29,2.14,2.14,0,0,0,.44,1.41A11.15,11.15,0,0,0,151.9,185.78Zm14.52,33.92a2.83,2.83,0,0,0,1.62.44,6.92,6.92,0,0,0,2.68-.66c1.62-.65,2.43-1.66,2.43-3a4.75,4.75,0,0,0-.24-1.42,5.58,5.58,0,0,1-1.72,3,5.79,5.79,0,0,1-4.2,1.73A3.66,3.66,0,0,1,166.42,219.7Z" transform="translate(-146.02 -165.14)"/><path class="h" d="M199.15,212.13a15.11,15.11,0,0,0-.09,3.13c.12,2.92.16,4.49.14,4.72a24.77,24.77,0,0,1-.25,3.08,7.34,7.34,0,0,1-.46,1.95v0c-.36.84-1.31,1.29-2.86,1.36h-.33c-1.67,0-2.75-.41-3.21-1.2q-1.11-1.86-1.93-11.71a2,2,0,0,0-.74-1.58,4.67,4.67,0,0,0-2-.35q-4-.21-5-1.86l0,0v0a2.81,2.81,0,0,1-.52-1.13,18,18,0,0,1,0-3.39,5.8,5.8,0,0,1,1.87-3.84q2.53-2,11.21-2.56l1.17-.07a27.87,27.87,0,0,1,5.52.24c2.09.34,3.41,1,3.95,1.83a8.85,8.85,0,0,1,.56,3.28c0,.39,0,.8,0,1.24a12.85,12.85,0,0,1-.25,3,2.05,2.05,0,0,1-1.32,1.62h-.07c-.29,0-1.2.1-2.75.27a2.7,2.7,0,0,0-2.63,2m-1.59.61q0,.38.11,8.48a22.9,22.9,0,0,0,.2-5.59c-.05-.93-.16-1.89-.31-2.89m6.89-8.53a7,7,0,0,0,.12-1.52,2.25,2.25,0,0,0-1.82-2.35,11.55,11.55,0,0,0-3.16-.3l-.58,0a18.71,18.71,0,0,1,3.08.69,3.45,3.45,0,0,1,2.36,3.44" transform="translate(-146.02 -165.14)"/><path class="e" d="M199.15,212.13a15.11,15.11,0,0,0-.09,3.13c.12,2.92.16,4.49.14,4.72a24.77,24.77,0,0,1-.25,3.08,7.34,7.34,0,0,1-.46,1.95v0c-.36.84-1.31,1.29-2.86,1.36h-.33c-1.67,0-2.75-.41-3.21-1.2q-1.11-1.86-1.93-11.71a2,2,0,0,0-.74-1.58,4.67,4.67,0,0,0-2-.35q-4-.21-5-1.86l0,0v0a2.81,2.81,0,0,1-.52-1.13,18,18,0,0,1,0-3.39,5.8,5.8,0,0,1,1.87-3.84q2.53-2,11.21-2.56l1.17-.07a27.87,27.87,0,0,1,5.52.24c2.09.34,3.41,1,3.95,1.83a8.85,8.85,0,0,1,.56,3.28c0,.39,0,.8,0,1.24a12.85,12.85,0,0,1-.25,3,2.05,2.05,0,0,1-1.32,1.62h-.07c-.29,0-1.2.1-2.75.27A2.7,2.7,0,0,0,199.15,212.13Zm-1.59.61q0,.38.11,8.48a22.9,22.9,0,0,0,.2-5.59C197.82,214.7,197.71,213.74,197.56,212.74Zm6.89-8.53a7,7,0,0,0,.12-1.52,2.25,2.25,0,0,0-1.82-2.35,11.55,11.55,0,0,0-3.16-.3l-.58,0a18.71,18.71,0,0,1,3.08.69A3.45,3.45,0,0,1,204.45,204.21Z" transform="translate(-146.02 -165.14)"/><path class="h" d="M208.08,200a14.22,14.22,0,0,1,7.33-1.26,24.83,24.83,0,0,1,2.59.3c4.1.68,7,2.08,8.7,4.17a11.53,11.53,0,0,1,2.72,8.49,13.77,13.77,0,0,1-.43,2.47,17.76,17.76,0,0,1-6.87,9.8,11.65,11.65,0,0,1-7.94,2.06l-.5,0a14.4,14.4,0,0,1-8.12-3.11,12.33,12.33,0,0,1-3.82-5.52,14.53,14.53,0,0,1-.77-6.13l0-.48a14.72,14.72,0,0,1,2.2-6.25,12.32,12.32,0,0,1,4.87-4.51m6.48,19.86a7.15,7.15,0,0,0-1.51-1.13,6.27,6.27,0,0,1-2.3-2.61c-.48-1.05-.74-1.59-.77-1.62a4.94,4.94,0,0,0,1,3.49,4.57,4.57,0,0,0,3.59,1.87m1.11-10a3.61,3.61,0,0,0-3.48,2.23,4.11,4.11,0,0,0-.49,1.62,5.25,5.25,0,0,0,.63,2.78,3.3,3.3,0,0,0,2.38,1.92c.18,0,.36.06.52.07a4.27,4.27,0,0,0,2.69-.86,4,4,0,0,0,2.05-2.91,4.13,4.13,0,0,0-.77-2.54,4.44,4.44,0,0,0-3.53-2.31m12,.09a7.74,7.74,0,0,0-2.49-6.64,12.13,12.13,0,0,0-7.83-2.95,9.65,9.65,0,0,0,1.84.65,16.79,16.79,0,0,1,2.22.78,9.61,9.61,0,0,1,5,4.61,14.68,14.68,0,0,1,.66,2,4.71,4.71,0,0,0,.6,1.52" transform="translate(-146.02 -165.14)"/><path class="e" d="M208.08,200a14.22,14.22,0,0,1,7.33-1.26,24.83,24.83,0,0,1,2.59.3c4.1.68,7,2.08,8.7,4.17a11.53,11.53,0,0,1,2.72,8.49,13.77,13.77,0,0,1-.43,2.47,17.76,17.76,0,0,1-6.87,9.8,11.65,11.65,0,0,1-7.94,2.06l-.5,0a14.4,14.4,0,0,1-8.12-3.11,12.33,12.33,0,0,1-3.82-5.52,14.53,14.53,0,0,1-.77-6.13l0-.48a14.72,14.72,0,0,1,2.2-6.25A12.32,12.32,0,0,1,208.08,200Zm6.48,19.86a7.15,7.15,0,0,0-1.51-1.13,6.27,6.27,0,0,1-2.3-2.61c-.48-1.05-.74-1.59-.77-1.62a4.94,4.94,0,0,0,1,3.49A4.57,4.57,0,0,0,214.56,219.86Zm1.11-10a3.61,3.61,0,0,0-3.48,2.23,4.11,4.11,0,0,0-.49,1.62,5.25,5.25,0,0,0,.63,2.78,3.3,3.3,0,0,0,2.38,1.92c.18,0,.36.06.52.07a4.27,4.27,0,0,0,2.69-.86,4,4,0,0,0,2.05-2.91,4.13,4.13,0,0,0-.77-2.54A4.44,4.44,0,0,0,215.67,209.87Zm12,.09a7.74,7.74,0,0,0-2.49-6.64,12.13,12.13,0,0,0-7.83-2.95,9.65,9.65,0,0,0,1.84.65,16.79,16.79,0,0,1,2.22.78,9.61,9.61,0,0,1,5,4.61,14.68,14.68,0,0,1,.66,2A4.71,4.71,0,0,0,227.65,210Z" transform="translate(-146.02 -165.14)"/><path class="i" d="M229.7,226.17c-1.36.07-2.16-.18-2.39-.75-.45-1.1-.63-4.83-.56-11.18,0-1.24,0-2.37.06-3.4q.16-6.19.78-7.65c.62-1.5,2.11-2.43,4.49-2.79a12.29,12.29,0,0,1,1.5-.15,15.38,15.38,0,0,1,4.23.39,9.73,9.73,0,0,1,6.09,4.5,10.59,10.59,0,0,1,1.87,6.13c0,.3,0,.59-.06.88a7.54,7.54,0,0,1-2.39,4.54,8.44,8.44,0,0,1-1.71,1.22c-.48.24-1.05.5-1.7.76a1.77,1.77,0,0,0-.59.33.11.11,0,0,0,0,.07q0,.15.3.36c.32.24,1,.79,1.91,1.63s1.59,1.37,2,1.64c.65.47,1,.88,1,1.25a.59.59,0,0,1-.14.38c-.51.67-1.78,1.07-3.82,1.21h-.24A5.81,5.81,0,0,1,237,225s-.84-1.22-2.53-3.51c-.39-.6-.71-.89-1-.88l-.06,0c-.18.05-.27.34-.29.87v.29c0,.16,0,.54,0,1.13,0,1.32-.27,2.14-.7,2.48a5,5,0,0,1-2.79.73m-.6-22a2.91,2.91,0,0,1,1-1.29,6.6,6.6,0,0,1,1.61-.85,2.75,2.75,0,0,1,.42-.15l.09-.25a4.36,4.36,0,0,0-2.67.78,3,3,0,0,0-.85,2.32.76.76,0,0,0,.45-.56m4,7.25v.13c0,1.1.38,1.63,1.24,1.59a3.21,3.21,0,0,0,1-.21c1.63-.57,2.48-1.34,2.55-2.29v0c0-.57-.37-1-1.16-1.24a6.53,6.53,0,0,0-2.13-.23h-.06a1.23,1.23,0,0,0-1.2.67,7.19,7.19,0,0,0-.19,1.62m5.08,1.63a2.57,2.57,0,0,0,1.05-1.61,1.07,1.07,0,0,0-.12-.48,3.65,3.65,0,0,1-.82,1.21,9.06,9.06,0,0,1-2.31,1.69,7.18,7.18,0,0,1-1.23.52,5.26,5.26,0,0,0,3.43-1.33" transform="translate(-146.02 -165.14)"/><path class="e" d="M229.7,226.17c-1.36.07-2.16-.18-2.39-.75-.45-1.1-.63-4.83-.56-11.18,0-1.24,0-2.37.06-3.4q.16-6.19.78-7.65c.62-1.5,2.11-2.43,4.49-2.79a12.29,12.29,0,0,1,1.5-.15,15.38,15.38,0,0,1,4.23.39,9.73,9.73,0,0,1,6.09,4.5,10.59,10.59,0,0,1,1.87,6.13c0,.3,0,.59-.06.88a7.54,7.54,0,0,1-2.39,4.54,8.44,8.44,0,0,1-1.71,1.22c-.48.24-1.05.5-1.7.76a1.77,1.77,0,0,0-.59.33.11.11,0,0,0,0,.07q0,.15.3.36c.32.24,1,.79,1.91,1.63s1.59,1.37,2,1.64c.65.47,1,.88,1,1.25a.59.59,0,0,1-.14.38c-.51.67-1.78,1.07-3.82,1.21h-.24A5.81,5.81,0,0,1,237,225s-.84-1.22-2.53-3.51c-.39-.6-.71-.89-1-.88l-.06,0c-.18.05-.27.34-.29.87v.29c0,.16,0,.54,0,1.13,0,1.32-.27,2.14-.7,2.48A5,5,0,0,1,229.7,226.17Zm-.6-22a2.91,2.91,0,0,1,1-1.29,6.6,6.6,0,0,1,1.61-.85,2.75,2.75,0,0,1,.42-.15l.09-.25a4.36,4.36,0,0,0-2.67.78,3,3,0,0,0-.85,2.32A.76.76,0,0,0,229.1,204.19Zm4,7.25v.13c0,1.1.38,1.63,1.24,1.59a3.21,3.21,0,0,0,1-.21c1.63-.57,2.48-1.34,2.55-2.29v0c0-.57-.37-1-1.16-1.24a6.53,6.53,0,0,0-2.13-.23h-.06a1.23,1.23,0,0,0-1.2.67A7.19,7.19,0,0,0,233.12,211.44Zm5.08,1.63a2.57,2.57,0,0,0,1.05-1.61,1.07,1.07,0,0,0-.12-.48,3.65,3.65,0,0,1-.82,1.21,9.06,9.06,0,0,1-2.31,1.69,7.18,7.18,0,0,1-1.23.52A5.26,5.26,0,0,0,238.2,213.07Z" transform="translate(-146.02 -165.14)"/><path class="j" d="M176.32,251.84c-.13,0-.75,1.89-1.38,2.74a8.42,8.42,0,0,1-8.72,2.74c-5.22-1.39-8.78-7.63-7.68-11.63a5,5,0,0,1,1.57-2.34,3.78,3.78,0,0,1,1.17-.51,3.47,3.47,0,0,1-.09-.63c.24-.9,1.83-.75,3-.41,3.52,1.07,8.85,4.87,10.06,5.92.61.53.83.94.79,1.16s-.32.32-.71.23a3.1,3.1,0,0,1-1.31-.74c-1.28-1.13-5.91-4.67-8.86-5.55-1.19-.36-2.16-.2-2.46.59a.33.33,0,0,1-.11.17,4,4,0,0,0-1.65,2.32c-.9,3.34,1.83,7.89,4.73,9.63a7.56,7.56,0,0,0,1.93.82c5.38,1.43,8.44-3.06,9.17-7,.6-3.27-.11-6.53-.55-9.75-.08-.63-.26-1.78-.55-3.13a1.72,1.72,0,0,1,0-.71c.09-.44.36-.67.64-.6,1.45.34,2,11,1.53,14.75a1.74,1.74,0,0,0,1.46,2.13.42.42,0,0,1,.33.49.39.39,0,0,1-.46.32,5.06,5.06,0,0,1-1.79-1" transform="translate(-146.02 -165.14)"/><path class="k" d="M176.32,251.84c-.13,0-.75,1.89-1.38,2.74a8.42,8.42,0,0,1-8.72,2.74c-5.22-1.39-8.78-7.63-7.68-11.63a5,5,0,0,1,1.57-2.34,3.78,3.78,0,0,1,1.17-.51,3.47,3.47,0,0,1-.09-.63c.24-.9,1.83-.75,3-.41,3.52,1.07,8.85,4.87,10.06,5.92.61.53.83.94.79,1.16s-.32.32-.71.23a3.1,3.1,0,0,1-1.31-.74c-1.28-1.13-5.91-4.67-8.86-5.55-1.19-.36-2.16-.2-2.46.59a.33.33,0,0,1-.11.17,4,4,0,0,0-1.65,2.32c-.9,3.34,1.83,7.89,4.73,9.63a7.56,7.56,0,0,0,1.93.82c5.38,1.43,8.44-3.06,9.17-7,.6-3.27-.11-6.53-.55-9.75-.08-.63-.26-1.78-.55-3.13a1.72,1.72,0,0,1,0-.71c.09-.44.36-.67.64-.6,1.45.34,2,11,1.53,14.75a1.74,1.74,0,0,0,1.46,2.13.42.42,0,0,1,.33.49.39.39,0,0,1-.46.32A5.06,5.06,0,0,1,176.32,251.84Z" transform="translate(-146.02 -165.14)"/><path class="j" d="M183.52,253c0-.07-2-3.47-2.31-4.85-.16-.73.85-3.08.85-3.08s.79-1.85,1.35-2.1c4.74-2.09,7.9,8.2,4.55,10.71,1,.14,1.48.21,2.46.33a.43.43,0,0,1,.36.47.4.4,0,0,1-.44.35c-1.34-.17-2.59-.34-4-.54v0a4.1,4.1,0,0,1-.66-.06c-8.28-1.26-1.7-.26-.08,0,0,0-4.77-.77-7.54-1.33a.43.43,0,0,1-.33-.5.4.4,0,0,1,.46-.31l5.28,1m3.08.24c2.42-1.14,1.19-6.39-.1-8.1-.95-1.26-1.8-1.74-2.51-1.41s-1,1.46-1.24,1.6l-.09,0,.1.13a2,2,0,0,1,.06.9c0,.46.7,8.35,3.78,6.9m-2.38-11.83a.74.74,0,0,1-.31-.68c.07-.49.4-.66,1-.56.87.15,1.27.41,1.21.81a.85.85,0,0,1-1.09.82,1.52,1.52,0,0,1-.79-.39" transform="translate(-146.02 -165.14)"/><path class="k" d="M183.52,253c0-.07-2-3.47-2.31-4.85-.16-.73.85-3.08.85-3.08s.79-1.85,1.35-2.1c4.74-2.09,7.9,8.2,4.55,10.71,1,.14,1.48.21,2.46.33a.43.43,0,0,1,.36.47.4.4,0,0,1-.44.35c-1.34-.17-2.59-.34-4-.54v0a4.1,4.1,0,0,1-.66-.06c-8.28-1.26-1.7-.26-.08,0,0,0-4.77-.77-7.54-1.33a.43.43,0,0,1-.33-.5.4.4,0,0,1,.46-.31Zm3.08.24c2.42-1.14,1.19-6.39-.1-8.1-.95-1.26-1.8-1.74-2.51-1.41s-1,1.46-1.24,1.6l-.09,0,.1.13a2,2,0,0,1,.06.9C182.77,246.77,183.52,254.66,186.6,253.21Zm-2.38-11.83a.74.74,0,0,1-.31-.68c.07-.49.4-.66,1-.56.87.15,1.27.41,1.21.81a.85.85,0,0,1-1.09.82A1.52,1.52,0,0,1,184.22,241.38Z" transform="translate(-146.02 -165.14)"/><path class="j" d="M190.34,254.8a.42.42,0,0,1-.36-.45.41.41,0,0,1,.45-.37l3.34.38c.3-.44-2.73-8.07-3-12.08a23.82,23.82,0,0,1-.1-2.45c.06-2,1.42-1.35,1.44,0l0,.95c0,.9,0,1.66.07,2.15.11,1.16,1,7,1,7S193.92,247,195,246c2.26-2.14,5.66-1.51,8.34-.22,3.21,1.55,6.44,4.29,6.17,6.74-.5,4.51-13.86,2.8-13.86,2.8a3.76,3.76,0,0,0,.44.62,6.74,6.74,0,0,1,.94,1.25c0,.39-.26.62-.74.59-.31,0-.71-.36-1.17-1a13,13,0,0,1-1-1.57c-1.51-.16-2.27-.24-3.78-.43m17-.79c3.1-2.33-2-6.35-5.75-7.88-2.28-.93-5-.88-6.4,1s-1,6.73-.12,7.34c1.34.94,9.74,1.42,12.27-.48" transform="translate(-146.02 -165.14)"/><path class="k" d="M190.34,254.8a.42.42,0,0,1-.36-.45.41.41,0,0,1,.45-.37l3.34.38c.3-.44-2.73-8.07-3-12.08a23.82,23.82,0,0,1-.1-2.45c.06-2,1.42-1.35,1.44,0l0,.95c0,.9,0,1.66.07,2.15.11,1.16,1,7,1,7S193.92,247,195,246c2.26-2.14,5.66-1.51,8.34-.22,3.21,1.55,6.44,4.29,6.17,6.74-.5,4.51-13.86,2.8-13.86,2.8a3.76,3.76,0,0,0,.44.62,6.74,6.74,0,0,1,.94,1.25c0,.39-.26.62-.74.59-.31,0-.71-.36-1.17-1a13,13,0,0,1-1-1.57C192.61,255.07,191.85,255,190.34,254.8Zm17-.79c3.1-2.33-2-6.35-5.75-7.88-2.28-.93-5-.88-6.4,1s-1,6.73-.12,7.34C196.44,255.43,204.84,255.91,207.37,254Z" transform="translate(-146.02 -165.14)"/><path class="j" d="M222.57,254.46c-.07,0-.5.7-.85,1a3,3,0,0,1-2.49.52c-4.67-.86-6.77-11.74-1.15-11a7.65,7.65,0,0,1,2.25,1.54,3.29,3.29,0,0,0,.55,0c.15-.14-.16-1.84.16-1.84,1.8,0,1.16,2.84,1.32,3.7,0,.25.18.55.23.72a12.32,12.32,0,0,1,.5,3.48c0,.89.38,2.25,1.94,2.11a.41.41,0,0,1,.42.4.41.41,0,0,1-.37.43,4.51,4.51,0,0,1-2.51-1m-6.75-10.9a.78.78,0,0,1-.44-.61c0-.49.28-.73.87-.75.9,0,1.33.15,1.34.56a.88.88,0,0,1-1,1,1.52,1.52,0,0,1-.81-.22m4,3.32c-.47-.2-1.24-1-1.89-1.11-.83-.11-1.41.55-1.74,2-.45,1.91.94,7,3.81,7.36,3.53.37.75-6.46.24-7.28a1.74,1.74,0,0,1-.36-.83s0-.13,0-.14-.07,0-.08,0m-1.5-3.42a.71.71,0,0,1-.42-.61c0-.49.27-.72.85-.75.88,0,1.31.13,1.33.53a.88.88,0,0,1-.92,1,1.66,1.66,0,0,1-.84-.21" transform="translate(-146.02 -165.14)"/><path class="k" d="M222.57,254.46c-.07,0-.5.7-.85,1a3,3,0,0,1-2.49.52c-4.67-.86-6.77-11.74-1.15-11a7.65,7.65,0,0,1,2.25,1.54,3.29,3.29,0,0,0,.55,0c.15-.14-.16-1.84.16-1.84,1.8,0,1.16,2.84,1.32,3.7,0,.25.18.55.23.72a12.32,12.32,0,0,1,.5,3.48c0,.89.38,2.25,1.94,2.11a.41.41,0,0,1,.42.4.41.41,0,0,1-.37.43A4.51,4.51,0,0,1,222.57,254.46Zm-6.75-10.9a.78.78,0,0,1-.44-.61c0-.49.28-.73.87-.75.9,0,1.33.15,1.34.56a.88.88,0,0,1-1,1A1.52,1.52,0,0,1,215.82,243.56Zm4,3.32c-.47-.2-1.24-1-1.89-1.11-.83-.11-1.41.55-1.74,2-.45,1.91.94,7,3.81,7.36,3.53.37.75-6.46.24-7.28a1.74,1.74,0,0,1-.36-.83s0-.13,0-.14S219.79,246.89,219.78,246.88Zm-1.5-3.42a.71.71,0,0,1-.42-.61c0-.49.27-.72.85-.75.88,0,1.31.13,1.33.53a.88.88,0,0,1-.92,1A1.66,1.66,0,0,1,218.28,243.46Z" transform="translate(-146.02 -165.14)"/><path class="j" d="M224.66,255.08a.42.42,0,0,1,.37-.46c3.7-.31.09-7.05,0-8.44,0-.47.2-.71.68-.76s1.14.72,1.62,2.33,1.89,7.34-2.25,7.7a.39.39,0,0,1-.42-.37m2.51,1.61c0-.4-.5-.55-1.46-.46-.63,0-.93.3-.9.79a.77.77,0,0,0,.5.59,1.62,1.62,0,0,0,.88.17c.71-.07,1-.44,1-1.09m2.49-.26c0-.4-.51-.55-1.45-.45-.63.07-.92.32-.89.81a.7.7,0,0,0,.48.58,1.76,1.76,0,0,0,.91.16.93.93,0,0,0,.95-1.1" transform="translate(-146.02 -165.14)"/><path class="k" d="M224.66,255.08a.42.42,0,0,1,.37-.46c3.7-.31.09-7.05,0-8.44,0-.47.2-.71.68-.76s1.14.72,1.62,2.33,1.89,7.34-2.25,7.7A.39.39,0,0,1,224.66,255.08Zm2.51,1.61c0-.4-.5-.55-1.46-.46-.63,0-.93.3-.9.79a.77.77,0,0,0,.5.59,1.62,1.62,0,0,0,.88.17C226.9,257.71,227.22,257.34,227.17,256.69Zm2.49-.26c0-.4-.51-.55-1.45-.45-.63.07-.92.32-.89.81a.7.7,0,0,0,.48.58,1.76,1.76,0,0,0,.91.16A.93.93,0,0,0,229.66,256.43Z" transform="translate(-146.02 -165.14)"/><path class="j" d="M237,253.58a.43.43,0,0,1-.35.47c-4.05.63-6.65-9.27-7.31-11.58a15.91,15.91,0,0,1-.62-2.67c-.06-.71.17-1.06.49-1.1,1-.12,1.44,3.1,1.66,4.08.4,1.76,2.56,10.91,5.68,10.45a.39.39,0,0,1,.45.35" transform="translate(-146.02 -165.14)"/><path class="k" d="M237,253.58a.43.43,0,0,1-.35.47c-4.05.63-6.65-9.27-7.31-11.58a15.91,15.91,0,0,1-.62-2.67c-.06-.71.17-1.06.49-1.1,1-.12,1.44,3.1,1.66,4.08.4,1.76,2.56,10.91,5.68,10.45A.39.39,0,0,1,237,253.58Z" transform="translate(-146.02 -165.14)"/><path class="j" d="M236.18,253.71a.43.43,0,0,1,.34-.48c3.12-.52,10.54-1.56,9.91-5.14-.09-.48-.65-.72-1.7-.77-.51,0-1.63,0-3.35.14a30.86,30.86,0,0,1-3.61,0c-1.19-.07-1.9-.53-2-1.13-.4-3.21,5.09-8,8.61-8.79a1.78,1.78,0,0,1,2.41,1.64,1.63,1.63,0,0,1-.09.82c-.12.37-.3.6-.54.66a.8.8,0,0,1-.51-.09.44.44,0,0,1-.26-.38c0-.56,0-.82,0-.82s-.46-.94-1-.82c-2.21.49-7.56,5.4-7.3,7.37.05.36.54.57,1.44.64a34.1,34.1,0,0,0,3.48-.08,20,20,0,0,1,3.66,0c1.21.19,1.93.69,2.08,1.5a4.89,4.89,0,0,1,0,.66,1.76,1.76,0,0,0,2.19,1.84l2.32-.59a.4.4,0,0,1,.48.32.44.44,0,0,1-.31.49c-2.33.61-2.34.59-2.34.59-1.42.34-2.88-1.06-3-1.07s-.58.66-1,1c-2.51,1.83-6.39,2.32-9.5,2.8a.39.39,0,0,1-.44-.33" transform="translate(-146.02 -165.14)"/><path class="k" d="M236.18,253.71a.43.43,0,0,1,.34-.48c3.12-.52,10.54-1.56,9.91-5.14-.09-.48-.65-.72-1.7-.77-.51,0-1.63,0-3.35.14a30.86,30.86,0,0,1-3.61,0c-1.19-.07-1.9-.53-2-1.13-.4-3.21,5.09-8,8.61-8.79a1.78,1.78,0,0,1,2.41,1.64,1.63,1.63,0,0,1-.09.82c-.12.37-.3.6-.54.66a.8.8,0,0,1-.51-.09.44.44,0,0,1-.26-.38c0-.56,0-.82,0-.82s-.46-.94-1-.82c-2.21.49-7.56,5.4-7.3,7.37.05.36.54.57,1.44.64a34.1,34.1,0,0,0,3.48-.08,20,20,0,0,1,3.66,0c1.21.19,1.93.69,2.08,1.5a4.89,4.89,0,0,1,0,.66,1.76,1.76,0,0,0,2.19,1.84l2.32-.59a.4.4,0,0,1,.48.32.44.44,0,0,1-.31.49c-2.33.61-2.34.59-2.34.59-1.42.34-2.88-1.06-3-1.07s-.58.66-1,1c-2.51,1.83-6.39,2.32-9.5,2.8A.39.39,0,0,1,236.18,253.71Z" transform="translate(-146.02 -165.14)"/><path class="j" d="M267.41,241.11c-.29-2-9.47-2.12-12-1.39-1.32.38-1.88,1-1.69,1.87.16.7,1.65,1.77,1.72,2.1s-.14.62-.71.78-1.92-1.75-2-2.32c-.33-1.52.76-3,2.59-3.57,3-.89,13.4-.08,13.32,1.72-.19,4.36-10.46,8.82-16.22,10.47a.38.38,0,0,1-.47-.29.47.47,0,0,1,.3-.52c4.1-1.21,15.45-6.82,15.16-8.85" transform="translate(-146.02 -165.14)"/><path class="k" d="M267.41,241.11c-.29-2-9.47-2.12-12-1.39-1.32.38-1.88,1-1.69,1.87.16.7,1.65,1.77,1.72,2.1s-.14.62-.71.78-1.92-1.75-2-2.32c-.33-1.52.76-3,2.59-3.57,3-.89,13.4-.08,13.32,1.72-.19,4.36-10.46,8.82-16.22,10.47a.38.38,0,0,1-.47-.29.47.47,0,0,1,.3-.52C256.35,248.75,267.7,243.14,267.41,241.11Z" transform="translate(-146.02 -165.14)"/><path class="l" d="M262.36,196.29a50.6,50.6,0,0,1,3.13-4.89q3.6-4.86,7.76-4.65l.2,0a14.55,14.55,0,0,1,4.71,1.08q2.59,1.14,2.88,2.94a3.39,3.39,0,0,1,0,1q.1,4-11.93,14.13-5.58,4.68-4,11.05c.11,3.55-.19,6.13-.92,7.73s-1.3,2.49-2.16,2.82q-1.63.77-6.1.47h-.16a16.13,16.13,0,0,1-5.81-1.16,4.7,4.7,0,0,1-2.2-2.25,8.16,8.16,0,0,1-.44-3,20.13,20.13,0,0,1,.61-4.82,37.61,37.61,0,0,1,1.46-4.88,5.21,5.21,0,0,0-.38-4.43,32.51,32.51,0,0,0-3.8-4.88q-5.74-6.5-6-6.86-3.89-4.87-3.65-7.11v-.15q.44-2.24,3.35-3.16a9.79,9.79,0,0,1,3.63-.41,12.19,12.19,0,0,1,2.62.5,15.19,15.19,0,0,1,8.56,6.19,31.16,31.16,0,0,1,3.67,8.8c.36,1.21.67,1.83.93,1.85s.75-.57,1.53-1.7q.51-.76,2.5-4.15M240.27,188a4.53,4.53,0,0,0,1.51-1.06c-2.27-.16-3.45.17-3.53,1a1.53,1.53,0,0,0,.19.82,7.71,7.71,0,0,0,1.83-.76m18.3,15.34a1.73,1.73,0,0,0,.92.34q1.58.12,3.66-2.73a33.52,33.52,0,0,0,1.86-3l1.12-2c2.13-3.36,3.75-5.23,4.88-5.6a15.76,15.76,0,0,1,2.2-1.28v0a1.92,1.92,0,0,0-1-.34q-2.22-.17-4.9,3.5c-.84,1.15-1.8,2.64-2.89,4.49s-1.75,2.9-1.87,3.05a10.71,10.71,0,0,1-2.4,2c-1.05.7-1.59,1.19-1.62,1.45Z" transform="translate(-146.02 -165.14)"/><path class="e" d="M262.36,196.29a50.6,50.6,0,0,1,3.13-4.89q3.6-4.86,7.76-4.65l.2,0a14.55,14.55,0,0,1,4.71,1.08q2.59,1.14,2.88,2.94a3.39,3.39,0,0,1,0,1q.1,4-11.93,14.13-5.58,4.68-4,11.05c.11,3.55-.19,6.13-.92,7.73s-1.3,2.49-2.16,2.82q-1.63.77-6.1.47h-.16a16.13,16.13,0,0,1-5.81-1.16,4.7,4.7,0,0,1-2.2-2.25,8.16,8.16,0,0,1-.44-3,20.13,20.13,0,0,1,.61-4.82,37.61,37.61,0,0,1,1.46-4.88,5.21,5.21,0,0,0-.38-4.43,32.51,32.51,0,0,0-3.8-4.88q-5.74-6.5-6-6.86-3.89-4.87-3.65-7.11v-.15q.44-2.24,3.35-3.16a9.79,9.79,0,0,1,3.63-.41,12.19,12.19,0,0,1,2.62.5,15.19,15.19,0,0,1,8.56,6.19,31.16,31.16,0,0,1,3.67,8.8c.36,1.21.67,1.83.93,1.85s.75-.57,1.53-1.7Q260.37,199.68,262.36,196.29ZM240.27,188a4.53,4.53,0,0,0,1.51-1.06c-2.27-.16-3.45.17-3.53,1a1.53,1.53,0,0,0,.19.82A7.71,7.71,0,0,0,240.27,188Zm18.3,15.34a1.73,1.73,0,0,0,.92.34q1.58.12,3.66-2.73a33.52,33.52,0,0,0,1.86-3l1.12-2c2.13-3.36,3.75-5.23,4.88-5.6a15.76,15.76,0,0,1,2.2-1.28v0a1.92,1.92,0,0,0-1-.34q-2.22-.17-4.9,3.5c-.84,1.15-1.8,2.64-2.89,4.49s-1.75,2.9-1.87,3.05a10.71,10.71,0,0,1-2.4,2c-1.05.7-1.59,1.19-1.62,1.45Z" transform="translate(-146.02 -165.14)"/><path class="i" d="M224.58,199.57a1,1,0,0,1,0,.24,1.62,1.62,0,0,1-.73,1.23,2.61,2.61,0,0,1-1.79.49,3.18,3.18,0,0,1-2-.92,4.77,4.77,0,0,1-1.25-2.67c-.17-1-.67-1.6-1.5-1.69h-.07a2.31,2.31,0,0,0-2.11,1.23c-.81,1.17-1.21,1.76-1.21,1.77h0a3.71,3.71,0,0,1-1.67,1.18,3.49,3.49,0,0,1-1.5.22l-.41-.06a2,2,0,0,1-1.4-.9,2.12,2.12,0,0,1-.29-1.32,4.89,4.89,0,0,1,.12-.7c.21-.79.5-1.7.87-2.71.49-1.32.89-2.35,1.19-3.08q.71-1.63,1.29-2.79,3.12-6.35,5.67-7.15a2.41,2.41,0,0,1,.87-.1c1.07.09,2,1,2.89,2.71q2.48,5,3,15m-14.51-2h0a43.31,43.31,0,0,1,1.59-4.08c.63-1.53,1.23-2.85,1.82-4q2.28-4.4,4.37-5.95c.3-.21.45-.39.46-.54a.27.27,0,0,0,0-.09l-.17,0c-.59-.05-1.36.54-2.32,1.78a31.44,31.44,0,0,0-2.79,4.7c-1.89,3.78-2.89,6.32-3,7.62a1.65,1.65,0,0,0,0,.57m8.52-5.69c-.09-.61-.17-1.1-.25-1.47-.16-.72-.35-1.09-.55-1.11s-.31.12-.46.39a17.05,17.05,0,0,0-.94,2.55,2.14,2.14,0,0,0-.07.32v.05s.05.06.12.06a.38.38,0,0,0,.15,0,3,3,0,0,1,.67,0,2.87,2.87,0,0,1,.72.14l.51.16.16,0h0s.05,0,.05,0v0s-.05-.41-.13-1.07m-.6,1.93a5.52,5.52,0,0,0,.55.07c.54.05.88,0,1-.24a.58.58,0,0,0,.11-.32,3,3,0,0,0-.24-1.14v.21a1.74,1.74,0,0,1-.2.67,1.43,1.43,0,0,1-1.26.75" transform="translate(-146.02 -165.14)"/><path class="e" d="M224.58,199.57a1,1,0,0,1,0,.24,1.62,1.62,0,0,1-.73,1.23,2.61,2.61,0,0,1-1.79.49,3.18,3.18,0,0,1-2-.92,4.77,4.77,0,0,1-1.25-2.67c-.17-1-.67-1.6-1.5-1.69h-.07a2.31,2.31,0,0,0-2.11,1.23c-.81,1.17-1.21,1.76-1.21,1.77h0a3.71,3.71,0,0,1-1.67,1.18,3.49,3.49,0,0,1-1.5.22l-.41-.06a2,2,0,0,1-1.4-.9,2.12,2.12,0,0,1-.29-1.32,4.89,4.89,0,0,1,.12-.7c.21-.79.5-1.7.87-2.71.49-1.32.89-2.35,1.19-3.08q.71-1.63,1.29-2.79,3.12-6.35,5.67-7.15a2.41,2.41,0,0,1,.87-.1c1.07.09,2,1,2.89,2.71Q224,189.54,224.58,199.57Zm-14.51-2h0a43.31,43.31,0,0,1,1.59-4.08c.63-1.53,1.23-2.85,1.82-4q2.28-4.4,4.37-5.95c.3-.21.45-.39.46-.54a.27.27,0,0,0,0-.09l-.17,0c-.59-.05-1.36.54-2.32,1.78a31.44,31.44,0,0,0-2.79,4.7c-1.89,3.78-2.89,6.32-3,7.62A1.65,1.65,0,0,0,210.07,197.54Zm8.52-5.69c-.09-.61-.17-1.1-.25-1.47-.16-.72-.35-1.09-.55-1.11s-.31.12-.46.39a17.05,17.05,0,0,0-.94,2.55,2.14,2.14,0,0,0-.07.32v.05s.05.06.12.06a.38.38,0,0,0,.15,0,3,3,0,0,1,.67,0,2.87,2.87,0,0,1,.72.14l.51.16.16,0h0s.05,0,.05,0v0S218.67,192.51,218.59,191.85Zm-.6,1.93a5.52,5.52,0,0,0,.55.07c.54.05.88,0,1-.24a.58.58,0,0,0,.11-.32,3,3,0,0,0-.24-1.14v.21a1.74,1.74,0,0,1-.2.67A1.43,1.43,0,0,1,218,193.78Z" transform="translate(-146.02 -165.14)"/></g></g></g><rect class="a" x="57.98" y="21.39" width="135.94" height="94.06"/></svg>