<svg xmlns="http://www.w3.org/2000/svg" viewBox="0 0 261.55 68.53"><defs><style>.cls-1{fill:#fff;}</style></defs><g id="Layer_2" data-name="Layer 2"><g id="Layer_1-2" data-name="Layer 1"><path class="cls-1" d="M16.63,50.11c0-5.29,0-10.58,0-15.87a36.32,36.32,0,0,1,.74-6.66,31.33,31.33,0,0,1,1.19-4.34,28.9,28.9,0,0,1,1.77-4.08,25.49,25.49,0,0,1,2.46-3.86,24.94,24.94,0,0,1,4.43-4.4,24.18,24.18,0,0,1,4.58-2.79A20.33,20.33,0,0,1,38.18,6.3a24.31,24.31,0,0,1,9.39,1.15A31.11,31.11,0,0,1,54,10.13a28.84,28.84,0,0,1,4,2.69,28,28,0,0,1,3.39,3.23A30.63,30.63,0,0,1,63.52,19a26.71,26.71,0,0,1,2.24,4.1,32.16,32.16,0,0,1,1.37,3.82c.3,1,.42,2,.64,3a32.47,32.47,0,0,1,.5,7.3V67.66c0,.42-.09.59-.56.59-3.18,0-6.36,0-9.54,0-.74,0-.75,0-.75-.71q0-16,0-31.93a20.74,20.74,0,0,0-.35-4.52,21.11,21.11,0,0,0-1.27-4,18.18,18.18,0,0,0-2.38-4,20.73,20.73,0,0,0-12-7.48,16.17,16.17,0,0,0-9.34.47,9.94,9.94,0,0,0-3.49,2.15c-.19.2-.64.37-.5.61s.53-.06.81-.14a18.1,18.1,0,0,1,10.21-.1,17.07,17.07,0,0,1,5.21,2.5,16.51,16.51,0,0,1,3.43,3.2,18.89,18.89,0,0,1,2.42,3.93,20.47,20.47,0,0,1,1.14,3.39,17.93,17.93,0,0,1,.44,4.55q0,15.72,0,31.44c0,.49-.17.6-.62.59q-4.84,0-9.69,0c-.47,0-.57-.16-.57-.59q0-16,0-32a6.85,6.85,0,0,0-.8-3.33,7.52,7.52,0,0,0-1.2-1.6c-.21-.23-.42-.33-.7,0-.78.93-1.58,1.83-2.33,2.78-.46.57-1,1.1-1.43,1.66-.17.21-.29.24-.48,0-.78-.93-1.58-1.83-2.32-2.78-.48-.6-1-1.14-1.5-1.73-.24-.29-.44-.17-.6,0A8,8,0,0,0,28,33a7.71,7.71,0,0,0-.48,3.11q0,15.76,0,31.54c0,.47-.13.61-.6.6-3.21,0-6.43,0-9.64,0-.62,0-.62,0-.62-.61V50.11Z"/><path class="cls-1" d="M34.87,5.82a1.42,1.42,0,0,1-1,.43,25.09,25.09,0,0,0-4.49,1.47,27.33,27.33,0,0,0-4.75,2.52,33.64,33.64,0,0,0-4.55,3.6,28.9,28.9,0,0,0-3.9,4.52,23.69,23.69,0,0,0-1.72,2.83,31.93,31.93,0,0,0-1.53,3.24,33.47,33.47,0,0,0-1.54,5.5,28.8,28.8,0,0,0-.47,5.7q0,16,0,32c0,.64,0,.65-.65.65q-4.83,0-9.68,0c-.42,0-.58-.1-.58-.54Q0,51.06,0,34.39a19.62,19.62,0,0,1,.28-3.75,34.54,34.54,0,0,1,1.24-5.13,21.93,21.93,0,0,1,1.19-2.87A33.21,33.21,0,0,1,5.4,18.22a27.91,27.91,0,0,1,2.13-2.59,26.86,26.86,0,0,1,3.24-3,36.65,36.65,0,0,1,3.83-2.58,29.71,29.71,0,0,1,5.81-2.53,34.19,34.19,0,0,1,6-1.37,37,37,0,0,1,6-.36Z"/><path class="cls-1" d="M142.65,24.37H113.39c-.14,0-.29,0-.43,0-.4-.05-.57.09-.64.51a7.18,7.18,0,0,1-3,4.85,8.48,8.48,0,0,1-7.08,1.34,8.23,8.23,0,0,1-4.15-2.47,6.27,6.27,0,0,1-1.47-2.44c-.14-.43-.33-.86-.43-1.31,0-.16-.11-.38.12-.46a.44.44,0,0,1,.57.13,3.88,3.88,0,0,1,.3.48A5.64,5.64,0,0,0,105,27.81a4.46,4.46,0,0,0,2.2-2.45c.38-1,.4-1-.68-1-2.29,0-4.58,0-6.88,0-.41,0-.54-.12-.57-.55A18.84,18.84,0,0,1,99.36,19a10.52,10.52,0,0,1,1.3-3.37c1.24-2.13,3.37-2.9,5.49-3.71.76-.29,1.58-.43,2.37-.65a.68.68,0,0,1,.77.26,11.2,11.2,0,0,1,1.36,2.07,16.53,16.53,0,0,1,1.52,4.95c0,.37.2.74.24,1.12a.33.33,0,0,0,.4.32h54.74c.66,0,.71-.06.61-.75a.4.4,0,0,1,0-.19c.23-.5-.1-.57-.45-.57H165a6.28,6.28,0,0,1-3.47-.85,4.59,4.59,0,0,1-2-6,8.07,8.07,0,0,1,3.22-3.46,16.63,16.63,0,0,1,5.68-2.42,18.8,18.8,0,0,1,4-.47c.46,0,.57.16.46.61a1.6,1.6,0,0,0,0,.44q0,8.78-.05,17.56c0,.4-.13.52-.53.52Q157.5,24.35,142.65,24.37Zm25.26-12.52h0c0-.58,0-1.16,0-1.74,0-.32-.13-.48-.43-.4A5.79,5.79,0,0,0,164,11.47a1.71,1.71,0,0,0-.24,1.8,1.32,1.32,0,0,0,1.31.73l2.42,0c.31,0,.43-.13.43-.44C167.9,13,167.91,12.42,167.91,11.85ZM105.73,20h0c.57,0,1.13,0,1.69,0,.26,0,.43-.06.42-.34a8.59,8.59,0,0,0-.77-3.35.4.4,0,0,0-.5-.2,3.9,3.9,0,0,0-1.32.66,5.66,5.66,0,0,0-1.6,2.71c-.14.37,0,.51.39.5Z"/><path class="cls-1" d="M229.23,24.38H197.89c-.65,0-.67,0-.67-.63q0-7.71,0-15.43c0-.23,0-.45,0-.68a1.65,1.65,0,0,0-1.54-1.55.4.4,0,0,1-.42-.39c0-.28.21-.27.4-.29a9.37,9.37,0,0,0,4.77-1.65,9,9,0,0,0,.95-.79.64.64,0,0,1,.65-.22c.27.09.18.35.16.54-.67,5.37-.22,10.76-.36,16.13,0,.52.26.52.63.52h53.63c.45,0,.58-.12.56-.58-.05-.87,0-1.74,0-2.61,0-.39-.12-.5-.5-.5H239.64c-.72,0-.72,0-.72-.73,0-2.1,0-4.19,0-6.29a.69.69,0,0,1,.49-.75c2.15-.9,4.27-1.85,6.41-2.77l6.63-2.84c.26-.11.43-.09.53.21a1.54,1.54,0,0,0,.15.35c.4.71.4.71-.28,1.16L248,7.84l-4,2.65a7.21,7.21,0,0,0-.62.47.45.45,0,0,0-.13.52c0,.19.21.23.38.23h16.9c.92,0,.92,0,.92.92q0,5.61,0,11.22c0,.34-.06.51-.43.49-.17,0-.35,0-.53,0Z"/><path class="cls-1" d="M85.1,54.24a15.45,15.45,0,0,0,.32,3.4,11,11,0,0,0,2.43,5.11,6.64,6.64,0,0,0,8,1.67,5.3,5.3,0,0,0,1.9-1.59c.19-.23.1-.45-.09-.64a3,3,0,0,1,1.23-4.91,3.1,3.1,0,0,1,3,.41,2.91,2.91,0,0,1,1.16,2,5.63,5.63,0,0,1-1.16,4.34,11.24,11.24,0,0,1-7.06,4.21,13.2,13.2,0,0,1-7.94-.85A12.42,12.42,0,0,1,83,64.94a12.67,12.67,0,0,1-2.23-2.75,18.33,18.33,0,0,1-2-5.56A22,22,0,0,1,78.43,53a4.12,4.12,0,0,1,.36-1.46c.16-.51.21-1,.32-1.55a13.23,13.23,0,0,1,2-4.53,12.9,12.9,0,0,1,5.79-4.81,13.15,13.15,0,0,1,8.85-.57,10.89,10.89,0,0,1,5.43,3.28A6.07,6.07,0,0,1,103,48a3,3,0,0,1-2,2.89,3.19,3.19,0,0,1-3.4-.75,3,3,0,0,1-.44-3.55,3.33,3.33,0,0,1,.58-.81c.13-.1.09-.27,0-.39a5.62,5.62,0,0,0-3.6-2.21,6.31,6.31,0,0,0-6,1.89,10.1,10.1,0,0,0-1.82,2.79A15,15,0,0,0,85.1,54.24Z"/><path class="cls-1" d="M240.85,56.6c0,2,0,4,0,6a1.84,1.84,0,0,0,2.07,2c.78,0,1,.28.89,1.05a2.39,2.39,0,0,1-1.39,1.73,8.43,8.43,0,0,1-3.82.94,2.55,2.55,0,0,1-2.68-2.15c0-.06,0-.13,0-.19s0-.32-.18-.36-.26.09-.36.2a7.88,7.88,0,0,1-10.2,1,5.82,5.82,0,0,1-2.2-3.34,18.29,18.29,0,0,1-.46-4.83c0-1.6,0-3.2,0-4.79a2.25,2.25,0,0,0-.24-1.31,1.93,1.93,0,0,0-2-.79c-.49.05-.65-.13-.71-.54a2.11,2.11,0,0,1,.89-2.11,7.06,7.06,0,0,1,4-1.45,3.15,3.15,0,0,1,2.74,1,3.34,3.34,0,0,1,.75,2.24c0,2.2,0,4.39,0,6.58a17.75,17.75,0,0,0,.23,3.71c.47,2.26,1.52,3.21,4,2.91A3.46,3.46,0,0,0,235,61.9a7.23,7.23,0,0,0,.5-2.81c0-1.84,0-3.68,0-5.51,0-1.45-.93-1.78-2.11-1.74-.67,0-.79-.05-.84-.7a2.38,2.38,0,0,1,1.28-2.23,7.15,7.15,0,0,1,3.58-1.17,3.21,3.21,0,0,1,3.19,1.46,2.37,2.37,0,0,1,.3,1.06c.1,1.07,0,2.13,0,3.19s0,2.1,0,3.15Z"/><path class="cls-1" d="M124,58.31c0,1.41,0,2.83,0,4.25,0,1.76.35,2.21,2.27,2.58.7.13.73.28.51,1A2.83,2.83,0,0,1,125.1,68a4.58,4.58,0,0,1-3.26.1,3.65,3.65,0,0,1-2.06-1.57c-.2-.32-.37-.32-.66-.11a9.59,9.59,0,0,1-4.33,1.86,8.08,8.08,0,0,1-6.63-1.76,6.16,6.16,0,0,1-1.84-2.69,5.64,5.64,0,0,1-.23-3.12A5.18,5.18,0,0,1,108,57.52c2.62-2,5.65-2.19,8.78-1.8a7.12,7.12,0,0,1,1.64.39c.26.09.39,0,.38-.26a15.76,15.76,0,0,0-.14-3.22,2.53,2.53,0,0,0-1.81-1.88,6.78,6.78,0,0,0-3.63.06c-.33.08-.32.35-.28.63a3,3,0,0,1-.78,2.46,2.85,2.85,0,0,1-3.09.52,2.7,2.7,0,0,1-1.15-3.87,5.14,5.14,0,0,1,3-2.31,15.1,15.1,0,0,1,9.19-.17,4.87,4.87,0,0,1,3.17,2.46,7.05,7.05,0,0,1,.66,3.08v4.7Zm-5.17,3.1v-.82a1.58,1.58,0,0,0-1.24-1.81,5.74,5.74,0,0,0-3.66-.15,2.7,2.7,0,0,0-2.1,1.86A3.75,3.75,0,0,0,112,63a2.39,2.39,0,0,0,1,1.1,4.11,4.11,0,0,0,4.43.08,2.13,2.13,0,0,0,1.47-2.49A1.92,1.92,0,0,1,118.83,61.41Z"/><path class="cls-1" d="M218.45,57.74a9.26,9.26,0,0,1-.31,3,10,10,0,0,1-1.38,3,11.33,11.33,0,0,1-1.95,2.14A10.48,10.48,0,0,1,210.24,68a11.26,11.26,0,0,1-4.09.18,10.73,10.73,0,0,1-4.89-1.89,10,10,0,0,1-3.21-3.79,10.63,10.63,0,0,1-.78-7.12,9,9,0,0,1,1.78-3.73,10.83,10.83,0,0,1,7.51-4.11,11.5,11.5,0,0,1,6.7,1.19,9.24,9.24,0,0,1,3.41,3A9.88,9.88,0,0,1,218.45,57.74Zm-5.75.13c0-.5-.06-1.2-.19-1.9a8.09,8.09,0,0,0-1.47-3.7,4.16,4.16,0,0,0-2.71-1.69c-2.79-.37-4.34,1.38-5,3.62a11.83,11.83,0,0,0-.32,4,8.33,8.33,0,0,0,1.87,5.46,3.91,3.91,0,0,0,2.8,1.42A4.31,4.31,0,0,0,212,62,9.93,9.93,0,0,0,212.7,57.87Z"/><path class="cls-1" d="M191,57.32v5.32a2.21,2.21,0,0,0,2.12,2.44c.35.06.75,0,1,.41a1.22,1.22,0,0,1-.48,1.75,5,5,0,0,1-2.45.66,24.92,24.92,0,0,1-6-.12,3.06,3.06,0,0,1-1.7-.71,1.28,1.28,0,0,1-.32-1.24c0-.44.34-.61.73-.72a2,2,0,0,0,1.73-2.21c0-3.8,0-7.61,0-11.41,0-.36-.15-.49-.5-.48-.68,0-1.35,0-2,0a.64.64,0,0,1-.71-.57A1.82,1.82,0,0,1,184.21,48c.31,0,.62,0,.92,0s.46-.15.46-.46c0-.57,0-1.13,0-1.7a8.66,8.66,0,0,1,.71-3.57,6.35,6.35,0,0,1,4.8-3.93,10.88,10.88,0,0,1,6.82.67,4.35,4.35,0,0,1,2.68,2.82,2.75,2.75,0,0,1-3.28,3.55,2.63,2.63,0,0,1-2.06-2.93,1.77,1.77,0,0,1,.15-.46c.26-.54.25-.66-.33-.84a3.37,3.37,0,0,0-3.26.39,2.35,2.35,0,0,0-.81,1.32,20.48,20.48,0,0,0-.17,4.14c0,1-.06.93.89.92,1.28,0,2.55,0,3.83,0a.65.65,0,0,1,.75.55,2.07,2.07,0,0,1-2.05,2.69c-.92,0-1.84,0-2.76,0-.4,0-.55.1-.55.55,0,1.87,0,3.74,0,5.61Z"/><path class="cls-1" d="M173.75,58h-5.91c-.56,0-.63.08-.53.62a6.2,6.2,0,0,0,2.5,4.31,7.32,7.32,0,0,0,4.6,1.17,6.79,6.79,0,0,0,4.67-2c.26-.27.55-.28.76,0a2.2,2.2,0,0,1,.41,2c-.61,2.14-2.29,3-4.15,3.6a11.81,11.81,0,0,1-6.64.21,10.12,10.12,0,0,1-7.26-6.78,11,11,0,0,1-.17-5.77,9.53,9.53,0,0,1,1.74-3.85,9.94,9.94,0,0,1,6.12-3.84,11.05,11.05,0,0,1,5.45.13,7.61,7.61,0,0,1,4.19,2.88,8.24,8.24,0,0,1,1.26,2.76,6.78,6.78,0,0,1,.14,2.57,5.82,5.82,0,0,1-.5,1.6c-.12.32-.45.36-.77.36Zm-2.42-2.88h3.49c.65,0,.82-.19.84-.84a3.64,3.64,0,0,0-.95-2.47,4.36,4.36,0,0,0-5-.88,4.75,4.75,0,0,0-2.36,3.53c-.13.57,0,.66.54.66Z"/><path class="cls-1" d="M253.43,59.36c0,1.3-.08,2.61.09,3.91a1.75,1.75,0,0,0,1.32,1.64l.6.17c.89.2,1.18.62,1,1.52a1.28,1.28,0,0,1-.82.87,6.73,6.73,0,0,1-2.87.54,21.19,21.19,0,0,1-4.64-.18,2.86,2.86,0,0,1-2.1-1,1.11,1.11,0,0,1,.56-1.7,2.09,2.09,0,0,0,1.74-2.3c0-3.22,0-6.44,0-9.67A1.21,1.21,0,0,0,247,51.78a2.84,2.84,0,0,0-1,.07c-.24.08-.38,0-.48-.27a2.35,2.35,0,0,1,1.07-2.76,7,7,0,0,1,3.09-1.15,3,3,0,0,1,3.21,2.06c.06.15,0,.38.27.39s.27-.19.39-.32A5.47,5.47,0,0,1,258,47.43,3.06,3.06,0,0,1,261,49.22l.09.17c.09.13.36-.07.37.23,0,.52.24,1.18,0,1.52-.62.79-1,1.86-2.16,2.15a2.84,2.84,0,0,1-3.33-1.52c-.14-.34-.33-.35-.59-.17A3.43,3.43,0,0,0,254,53.25a12.64,12.64,0,0,0-.59,4.8C253.42,58.49,253.43,58.92,253.43,59.36Z"/><path class="cls-1" d="M136.45,59.29c0,1.08,0,2.16,0,3.23a3.5,3.5,0,0,0,.38,1.57c.33.7,1,.83,1.67,1a1.23,1.23,0,0,1,.87,1.81,1.5,1.5,0,0,1-1,.73,8.06,8.06,0,0,1-2.24.35,21.1,21.1,0,0,1-5.72-.32c-1-.25-1.55-.85-1.41-1.7a.89.89,0,0,1,.72-.83,2.67,2.67,0,0,0,1.31-.75,1.48,1.48,0,0,0,.38-.81,8.25,8.25,0,0,0,.12-1.49c0-2.74,0-5.48,0-8.22a6.77,6.77,0,0,0-.07-1,1.14,1.14,0,0,0-1.12-1.07,3.18,3.18,0,0,0-1.11,0,.49.49,0,0,1-.64-.4,2.08,2.08,0,0,1,.67-2.18,6.22,6.22,0,0,1,3.47-1.52,2.94,2.94,0,0,1,3.09,1.56.58.58,0,0,0,.19.27c.21.13,0,.66.42.53.2-.07.32-.38.5-.57a5.43,5.43,0,0,1,4.51-2A3.29,3.29,0,0,1,144,49a3.33,3.33,0,0,1-.23,3.28,2.89,2.89,0,0,1-3.59.77A3,3,0,0,1,139,51.72c-.15-.27-.27-.29-.52-.13A3.85,3.85,0,0,0,136.79,54,20.33,20.33,0,0,0,136.45,59.29Z"/><path class="cls-1" d="M153.86,59.36c0,1.13,0,2.26,0,3.39a2.15,2.15,0,0,0,2,2.36c.86.19,1,.34,1.06,1a1.37,1.37,0,0,1-1,1.36,5.8,5.8,0,0,1-1.69.36,24.82,24.82,0,0,1-6.09-.16,3.06,3.06,0,0,1-1.09-.37,1.24,1.24,0,0,1-.67-1.45.8.8,0,0,1,.66-.76,2.19,2.19,0,0,0,1.84-2.32c0-3.18,0-6.35,0-9.53a1.45,1.45,0,0,0-1.66-1.56l-.39,0c-.82.07-1,0-1-.89a2.35,2.35,0,0,1,1.35-2.12,6.55,6.55,0,0,1,3.23-1,2.93,2.93,0,0,1,2.92,2.13c0,.13,0,.29.24.31s.23-.13.31-.24a6.06,6.06,0,0,1,3.75-2.41,3.42,3.42,0,0,1,3.91,2,3.3,3.3,0,0,1-.76,3.08,2.92,2.92,0,0,1-3.41.34,2.29,2.29,0,0,1-1.07-1.24c-.09-.33-.32-.33-.51-.19A3.55,3.55,0,0,0,154.51,53a9.33,9.33,0,0,0-.68,3.57c0,.92,0,1.84,0,2.76Z"/><path class="cls-1" d="M94.22,23.11a7.8,7.8,0,0,1-.73,3.06,8.15,8.15,0,0,1-13.33,3,5.74,5.74,0,0,1-1.27-1.67c0-.08-.17-.13-.08-.23a.23.23,0,0,1,.31,0,4.11,4.11,0,0,0,1,.59,6.88,6.88,0,0,0,6.57-.31,5.09,5.09,0,0,0,1.49-1.47,5.48,5.48,0,0,0,1-4.13,4.47,4.47,0,0,0-3.58-3.86c-.2,0-.46,0-.48-.28s.25-.32.46-.39a8.94,8.94,0,0,0,4.48-3.08,3.62,3.62,0,0,0,.68-1,.23.23,0,0,1,.27-.15c.12,0,.14.13.15.23.16,1.51,1.1,2.69,1.68,4a20.57,20.57,0,0,1,.89,2.17A9.74,9.74,0,0,1,94.22,23.11Z"/><path class="cls-1" d="M191.45,22.42a9.13,9.13,0,0,1-.65,3.49A8.55,8.55,0,0,1,188.72,29,7.93,7.93,0,0,1,185,31.25a8.18,8.18,0,0,1-5.54-.68,9.24,9.24,0,0,1-2.83-2.25,2.76,2.76,0,0,1-.36-.57c0-.09-.14-.2,0-.3s.21,0,.3.06a7.86,7.86,0,0,0,2.24.88,6.7,6.7,0,0,0,5.29-.85,5,5,0,0,0,1.42-1.47,5.63,5.63,0,0,0,1.05-3.87,4.53,4.53,0,0,0-3.72-4.12c-.17,0-.33,0-.35-.25s.12-.27.29-.32A9,9,0,0,0,187,14.86a4.83,4.83,0,0,0,.95-1.32c.05-.14.12-.29.3-.27s.19.21.19.35a5.61,5.61,0,0,0,.95,2.33c.37.78.81,1.53,1.14,2.33A11.39,11.39,0,0,1,191.45,22.42Z"/><path class="cls-1" d="M161.6,0a2.73,2.73,0,0,1,2.53,2.35,2.53,2.53,0,0,1-2.75,2.3,2.35,2.35,0,0,1-2.23-2.32C159.09,1.31,160.54-.18,161.6,0Z"/></g></g></svg>