<svg xmlns="http://www.w3.org/2000/svg" viewBox="0 0 262.72 68.84"><defs><style>.cls-1{fill:#0357a2;}.cls-2{fill:#ef3742;}</style></defs><g id="Layer_2" data-name="Layer 2"><g id="Layer_1-2" data-name="Layer 1"><path class="cls-1" d="M16.7,50.33c0-5.31,0-10.62,0-15.94a37.34,37.34,0,0,1,.75-6.68,30.42,30.42,0,0,1,1.2-4.37,27.9,27.9,0,0,1,1.77-4.09,24.56,24.56,0,0,1,2.48-3.88A24.83,24.83,0,0,1,27.34,11a23.76,23.76,0,0,1,4.6-2.8,20.39,20.39,0,0,1,6.41-1.82,24.51,24.51,0,0,1,9.43,1.15,31.43,31.43,0,0,1,6.41,2.7,28.62,28.62,0,0,1,7.39,5.94,30.45,30.45,0,0,1,2.22,3,26.58,26.58,0,0,1,2.25,4.12A31.88,31.88,0,0,1,67.43,27c.3,1,.42,2,.65,3a32.77,32.77,0,0,1,.49,7.33q0,15.31,0,30.62c0,.43-.09.59-.57.59-3.19,0-6.39,0-9.58,0-.74,0-.75,0-.75-.72q0-16,0-32.07a21.7,21.7,0,0,0-.34-4.55,21.47,21.47,0,0,0-1.28-4,18.76,18.76,0,0,0-2.39-4,20.85,20.85,0,0,0-12.08-7.51,16.27,16.27,0,0,0-9.37.47,10,10,0,0,0-3.51,2.16c-.2.2-.65.37-.5.61s.53-.05.81-.13a18,18,0,0,1,10.25-.1,17,17,0,0,1,5.24,2.51,16.61,16.61,0,0,1,3.44,3.21,18.58,18.58,0,0,1,2.43,3.94,20.72,20.72,0,0,1,1.15,3.41A18,18,0,0,1,52,36.37Q52,52.17,52,68c0,.48-.17.59-.63.59q-4.86,0-9.73,0c-.47,0-.57-.16-.57-.59q0-16.08,0-32.17a7,7,0,0,0-.8-3.35A7.49,7.49,0,0,0,39,30.84c-.21-.23-.42-.33-.7,0-.78.93-1.58,1.84-2.34,2.79-.46.57-1,1.11-1.43,1.67-.18.21-.29.24-.49,0-.78-.94-1.58-1.84-2.33-2.8-.48-.6-1-1.14-1.51-1.73-.23-.29-.43-.18-.6,0a8,8,0,0,0-1.57,2.35,7.91,7.91,0,0,0-.48,3.12q0,15.84,0,31.68c0,.47-.14.61-.61.61-3.23,0-6.45,0-9.68,0-.63,0-.63,0-.63-.62V50.33Z"/><path class="cls-2" d="M35,5.85a1.53,1.53,0,0,1-1,.43A24.54,24.54,0,0,0,29.5,7.76a27.88,27.88,0,0,0-4.77,2.52,33.35,33.35,0,0,0-4.57,3.62,28.59,28.59,0,0,0-3.91,4.54,24.79,24.79,0,0,0-1.74,2.84A33.31,33.31,0,0,0,13,24.54a33.73,33.73,0,0,0-1.55,5.52A29.1,29.1,0,0,0,11,35.79q0,16.05,0,32.11c0,.64-.05.65-.65.65-3.24,0-6.49,0-9.73,0-.42,0-.58-.1-.58-.53Q0,51.29,0,34.55a19.83,19.83,0,0,1,.28-3.77,35,35,0,0,1,1.25-5.16,21.28,21.28,0,0,1,1.19-2.88A33.93,33.93,0,0,1,5.42,18.3a29.54,29.54,0,0,1,2.14-2.6,27.2,27.2,0,0,1,3.26-3,35.28,35.28,0,0,1,3.84-2.58A30,30,0,0,1,20.5,7.58a35.48,35.48,0,0,1,6-1.38,39.6,39.6,0,0,1,6.06-.36C33.38,5.86,34.21,5.85,35,5.85Z"/><path class="cls-1" d="M143.29,24.47H113.9a3.23,3.23,0,0,1-.44,0c-.39,0-.56.1-.64.52a7.24,7.24,0,0,1-3,4.88,8.54,8.54,0,0,1-7.11,1.34,8.35,8.35,0,0,1-4.18-2.49,6.39,6.39,0,0,1-1.47-2.44c-.14-.44-.33-.87-.43-1.32,0-.16-.11-.38.12-.46a.44.44,0,0,1,.57.13,3.94,3.94,0,0,1,.31.48,5.64,5.64,0,0,0,7.85,2.83,4.51,4.51,0,0,0,2.21-2.45c.38-1,.4-1-.68-1h-6.91c-.42,0-.55-.11-.58-.54a19.07,19.07,0,0,1,.27-4.89,10.93,10.93,0,0,1,1.31-3.38c1.25-2.14,3.39-2.92,5.51-3.72.77-.3,1.59-.43,2.39-.66a.69.69,0,0,1,.77.26,11.86,11.86,0,0,1,1.37,2.08,16.65,16.65,0,0,1,1.52,5c0,.38.2.74.24,1.13a.34.34,0,0,0,.4.32h55c.66,0,.71-.06.61-.76a.41.41,0,0,1,0-.19c.23-.5-.1-.57-.46-.57-.9,0-1.81,0-2.72,0a6.35,6.35,0,0,1-3.49-.85,4.6,4.6,0,0,1-2-6,8,8,0,0,1,3.22-3.47,16.6,16.6,0,0,1,5.71-2.43,18.37,18.37,0,0,1,4.05-.47c.46,0,.57.15.46.61a1.56,1.56,0,0,0,0,.43q0,8.82,0,17.64c0,.41-.13.53-.53.53ZM168.66,11.9h0c0-.58,0-1.17,0-1.75,0-.31-.13-.48-.43-.4a5.85,5.85,0,0,0-3.45,1.77,1.71,1.71,0,0,0-.24,1.81,1.32,1.32,0,0,0,1.32.73c.81,0,1.62,0,2.43,0,.31,0,.43-.13.42-.44C168.65,13.06,168.66,12.48,168.66,11.9ZM106.2,20.05h1.7c.26,0,.43,0,.42-.33a8.52,8.52,0,0,0-.78-3.37.39.39,0,0,0-.49-.2,4,4,0,0,0-1.33.67,5.54,5.54,0,0,0-1.61,2.72c-.14.37,0,.51.39.5Z"/><path class="cls-1" d="M230.25,24.49H198.77c-.65,0-.67,0-.67-.63V8.35c0-.22,0-.45,0-.67a1.65,1.65,0,0,0-1.55-1.56.4.4,0,0,1-.42-.39c0-.29.21-.28.4-.3a9.47,9.47,0,0,0,4.8-1.65,10.31,10.31,0,0,0,.95-.8.63.63,0,0,1,.65-.22c.28.1.18.36.16.55-.67,5.39-.22,10.8-.36,16.2,0,.52.26.52.64.52H257.2c.45,0,.59-.12.56-.59-.05-.87,0-1.75,0-2.62,0-.39-.11-.5-.5-.5H240.71c-.73,0-.73,0-.72-.73,0-2.11,0-4.21,0-6.32a.67.67,0,0,1,.49-.75c2.15-.91,4.29-1.86,6.44-2.79s4.44-1.89,6.66-2.85c.26-.11.43-.09.52.21a2.21,2.21,0,0,0,.16.35c.4.72.4.71-.28,1.17l-4.86,3.25-4,2.66c-.21.14-.41.3-.61.46a.48.48,0,0,0-.14.54c.05.19.21.22.38.22h17c.92,0,.91,0,.91.92q0,5.64,0,11.28c0,.33-.05.51-.43.49a4.91,4.91,0,0,0-.53,0Z"/><path class="cls-1" d="M85.48,54.49a15.59,15.59,0,0,0,.32,3.41A11.07,11.07,0,0,0,88.24,63a6.67,6.67,0,0,0,8.07,1.67,5.41,5.41,0,0,0,1.91-1.59c.19-.23.1-.45-.09-.65a3,3,0,0,1,1.23-4.92,3.11,3.11,0,0,1,3,.4,3,3,0,0,1,1.16,2,5.61,5.61,0,0,1-1.17,4.35,11.27,11.27,0,0,1-7.09,4.23,13.3,13.3,0,0,1-8-.85,12.43,12.43,0,0,1-3.88-2.48,13.34,13.34,0,0,1-2.24-2.76,18.8,18.8,0,0,1-2-5.59,22.21,22.21,0,0,1-.37-3.61,4.18,4.18,0,0,1,.36-1.46c.16-.51.21-1,.33-1.55a13.21,13.21,0,0,1,2-4.56,12.94,12.94,0,0,1,5.81-4.83,13.24,13.24,0,0,1,8.88-.58,11,11,0,0,1,5.46,3.3,6.1,6.1,0,0,1,1.79,4.59,3.06,3.06,0,0,1-2,2.91A3.21,3.21,0,0,1,98,50.33a3,3,0,0,1-.43-3.56,3.06,3.06,0,0,1,.58-.82c.13-.1.08-.26,0-.39a5.6,5.6,0,0,0-3.62-2.21,6.33,6.33,0,0,0-6,1.89,10.08,10.08,0,0,0-1.83,2.81A15.15,15.15,0,0,0,85.48,54.49Z"/><path class="cls-1" d="M241.92,56.85c0,2,0,4,0,6.07a1.85,1.85,0,0,0,2.08,2c.78,0,1,.28.89,1a2.35,2.35,0,0,1-1.39,1.74,8.26,8.26,0,0,1-3.84.94A2.57,2.57,0,0,1,237,66.49c0-.06,0-.12-.05-.18s0-.32-.18-.37-.26.1-.36.2a7.9,7.9,0,0,1-10.24,1,5.85,5.85,0,0,1-2.22-3.35,18.56,18.56,0,0,1-.46-4.86c0-1.61,0-3.21,0-4.81a2.3,2.3,0,0,0-.25-1.31,1.93,1.93,0,0,0-2-.8c-.49,0-.65-.13-.71-.54a2.12,2.12,0,0,1,.9-2.12,7,7,0,0,1,4-1.45,3.14,3.14,0,0,1,2.76,1,3.45,3.45,0,0,1,.75,2.25c0,2.2,0,4.41,0,6.61a18.56,18.56,0,0,0,.23,3.72c.48,2.28,1.53,3.23,4,2.93a3.48,3.48,0,0,0,2.9-2.31,7.33,7.33,0,0,0,.5-2.83c0-1.84,0-3.69,0-5.54,0-1.45-.93-1.78-2.12-1.74-.67,0-.8,0-.85-.7a2.41,2.41,0,0,1,1.29-2.24,7.33,7.33,0,0,1,3.6-1.18,3.21,3.21,0,0,1,3.2,1.47,2.56,2.56,0,0,1,.31,1.06c.1,1.07,0,2.14,0,3.21s0,2.11,0,3.16Z"/><path class="cls-1" d="M124.55,58.57c0,1.42,0,2.85,0,4.27,0,1.76.36,2.22,2.28,2.59.71.13.74.29.52,1a2.84,2.84,0,0,1-1.68,1.87,4.58,4.58,0,0,1-3.28.1,3.67,3.67,0,0,1-2.07-1.57c-.2-.32-.36-.32-.66-.12a9.57,9.57,0,0,1-4.35,1.87,8.08,8.08,0,0,1-6.66-1.77,6.18,6.18,0,0,1-1.85-2.69,5.82,5.82,0,0,1-.23-3.14,5.21,5.21,0,0,1,1.93-3.17c2.63-2,5.68-2.2,8.82-1.81a7.21,7.21,0,0,1,1.65.39c.26.09.39,0,.38-.26a15.28,15.28,0,0,0-.15-3.24A2.48,2.48,0,0,0,117.38,51a6.85,6.85,0,0,0-3.65.06c-.33.07-.32.35-.27.63a3,3,0,0,1-.79,2.47,2.87,2.87,0,0,1-3.1.52,2.71,2.71,0,0,1-1.16-3.88,5.09,5.09,0,0,1,3-2.32,15,15,0,0,1,9.22-.17,4.84,4.84,0,0,1,3.19,2.47,7.07,7.07,0,0,1,.67,3.09v4.72Zm-5.19,3.12v-.83A1.59,1.59,0,0,0,118.11,59a5.8,5.8,0,0,0-3.68-.15,2.71,2.71,0,0,0-2.1,1.87,3.78,3.78,0,0,0,.14,2.48,2.41,2.41,0,0,0,1,1.11,4.16,4.16,0,0,0,4.46.08,2.14,2.14,0,0,0,1.47-2.5A1.92,1.92,0,0,1,119.36,61.69Z"/><path class="cls-1" d="M219.43,58a9.64,9.64,0,0,1-.32,3,10,10,0,0,1-1.38,3,10.94,10.94,0,0,1-2,2.16,10.65,10.65,0,0,1-4.58,2.16,11.83,11.83,0,0,1-4.11.18,10.85,10.85,0,0,1-4.92-1.9,10,10,0,0,1-3.21-3.81,10.69,10.69,0,0,1-.79-7.16,9,9,0,0,1,1.79-3.74,10.88,10.88,0,0,1,7.54-4.13,11.52,11.52,0,0,1,6.73,1.2,9.21,9.21,0,0,1,3.42,3A9.92,9.92,0,0,1,219.43,58Zm-5.78.12c-.06-.5-.06-1.2-.19-1.9A8.18,8.18,0,0,0,212,52.5a4.21,4.21,0,0,0-2.72-1.69c-2.8-.38-4.36,1.38-5,3.63a11.93,11.93,0,0,0-.33,4,8.37,8.37,0,0,0,1.89,5.49,3.92,3.92,0,0,0,2.81,1.42,4.32,4.32,0,0,0,4.39-3A10,10,0,0,0,213.65,58.12Z"/><path class="cls-1" d="M191.85,57.57v5.35A2.22,2.22,0,0,0,194,65.37c.35.06.76,0,1,.41a1.24,1.24,0,0,1-.49,1.76,5,5,0,0,1-2.46.66,24.1,24.1,0,0,1-6.06-.12,3.06,3.06,0,0,1-1.72-.72,1.3,1.3,0,0,1-.32-1.24c.06-.43.35-.61.74-.72a2,2,0,0,0,1.74-2.21c0-3.83,0-7.65,0-11.47,0-.36-.14-.49-.49-.49-.68,0-1.37,0-2.05,0a.63.63,0,0,1-.71-.56,1.82,1.82,0,0,1,1.8-2.42c.31,0,.62,0,.93,0s.46-.14.46-.46c0-.57,0-1.14,0-1.7a8.75,8.75,0,0,1,.71-3.59A6.39,6.39,0,0,1,192,38.53a11,11,0,0,1,6.85.67A4.38,4.38,0,0,1,201.51,42a2.76,2.76,0,0,1-3.29,3.57,2.64,2.64,0,0,1-2.07-2.94,1.77,1.77,0,0,1,.15-.46c.27-.55.26-.67-.33-.84a3.36,3.36,0,0,0-3.28.39,2.35,2.35,0,0,0-.81,1.32,20.68,20.68,0,0,0-.17,4.16c0,1-.06.93.9.93h3.84a.65.65,0,0,1,.75.56,2.08,2.08,0,0,1-2,2.7c-.92,0-1.85,0-2.77,0-.41,0-.56.09-.56.55,0,1.88,0,3.75,0,5.63Z"/><path class="cls-1" d="M174.52,58.28h-5.93c-.56,0-.64.08-.54.62a6.24,6.24,0,0,0,2.52,4.33,7.29,7.29,0,0,0,4.62,1.17,6.81,6.81,0,0,0,4.69-2c.26-.28.55-.28.76,0a2.2,2.2,0,0,1,.41,2c-.61,2.15-2.3,3-4.17,3.62a11.88,11.88,0,0,1-6.66.21,10.14,10.14,0,0,1-7.3-6.81,11.06,11.06,0,0,1-.17-5.79,9.63,9.63,0,0,1,1.75-3.87,10,10,0,0,1,6.14-3.86,11.33,11.33,0,0,1,5.49.13,7.71,7.71,0,0,1,4.2,2.9,8.22,8.22,0,0,1,1.27,2.77,7.27,7.27,0,0,1,.14,2.58,6.25,6.25,0,0,1-.5,1.61c-.13.32-.46.36-.78.35Zm-2.43-2.89h3.51c.65,0,.82-.19.84-.83a3.66,3.66,0,0,0-.95-2.49,4.37,4.37,0,0,0-5-.88,4.76,4.76,0,0,0-2.36,3.55c-.13.56,0,.65.54.66Z"/><path class="cls-1" d="M254.55,59.62c.06,1.31-.07,2.62.1,3.93A1.75,1.75,0,0,0,256,65.2l.61.17c.89.2,1.19.62,1,1.52a1.27,1.27,0,0,1-.82.88,6.83,6.83,0,0,1-2.89.55,22.61,22.61,0,0,1-4.65-.18,3,3,0,0,1-2.12-1,1.12,1.12,0,0,1,.57-1.71,2.1,2.1,0,0,0,1.75-2.31c0-3.23,0-6.47,0-9.71A1.22,1.22,0,0,0,248.1,52a2.82,2.82,0,0,0-1,.07c-.25.08-.39,0-.48-.27A2.34,2.34,0,0,1,247.73,49a7.14,7.14,0,0,1,3.1-1.16A3,3,0,0,1,254.06,50c.05.16,0,.38.27.4s.27-.2.39-.33a5.5,5.5,0,0,1,4.47-2.38,3.12,3.12,0,0,1,3,1.8.7.7,0,0,0,.09.17c.08.14.35-.07.37.23,0,.52.23,1.18,0,1.52-.62.8-1,1.88-2.16,2.17A2.86,2.86,0,0,1,257.07,52c-.14-.34-.33-.35-.6-.17a3.53,3.53,0,0,0-1.32,1.65,13,13,0,0,0-.6,4.83Z"/><path class="cls-1" d="M137.06,59.55c0,1.08,0,2.17,0,3.25a3.57,3.57,0,0,0,.38,1.58c.33.7,1,.83,1.68,1a1.23,1.23,0,0,1,.87,1.81,1.5,1.5,0,0,1-1,.74,8.19,8.19,0,0,1-2.25.35A20.92,20.92,0,0,1,131,68c-1-.25-1.56-.85-1.42-1.7a.92.92,0,0,1,.72-.84,2.67,2.67,0,0,0,1.33-.76,1.52,1.52,0,0,0,.38-.81,9.3,9.3,0,0,0,.11-1.5V54.09a7,7,0,0,0-.08-1A1.14,1.14,0,0,0,130.87,52a3.18,3.18,0,0,0-1.11,0,.49.49,0,0,1-.65-.41,2.09,2.09,0,0,1,.67-2.18,6.29,6.29,0,0,1,3.49-1.53,3,3,0,0,1,3.11,1.57c.05.1.08.21.19.27s0,.67.42.53c.2-.06.32-.38.5-.56A5.42,5.42,0,0,1,142,47.66a3.28,3.28,0,0,1,2.6,1.55,3.35,3.35,0,0,1-.23,3.29,2.9,2.9,0,0,1-3.61.77A3,3,0,0,1,139.57,52c-.16-.27-.27-.29-.52-.13a3.85,3.85,0,0,0-1.65,2.43A20.08,20.08,0,0,0,137.06,59.55Z"/><path class="cls-1" d="M154.54,59.63c0,1.13,0,2.26,0,3.4a2.16,2.16,0,0,0,2,2.37c.86.19,1,.35,1.06,1.06a1.38,1.38,0,0,1-.95,1.36,5.62,5.62,0,0,1-1.71.36,25,25,0,0,1-6.11-.16,3.06,3.06,0,0,1-1.09-.37,1.23,1.23,0,0,1-.68-1.45.82.82,0,0,1,.67-.77,2.19,2.19,0,0,0,1.84-2.33c0-3.19,0-6.38,0-9.57A1.46,1.46,0,0,0,147.91,52l-.39,0c-.82.07-1,0-1-.89A2.36,2.36,0,0,1,147.91,49a6.46,6.46,0,0,1,3.24-1,2.94,2.94,0,0,1,2.93,2.14c0,.13,0,.29.24.32s.23-.13.32-.24a6,6,0,0,1,3.76-2.43,3.43,3.43,0,0,1,3.93,2,3.35,3.35,0,0,1-.76,3.1,3,3,0,0,1-3.43.34,2.23,2.23,0,0,1-1.07-1.25c-.09-.33-.32-.33-.52-.19a3.52,3.52,0,0,0-1.35,1.53,9.35,9.35,0,0,0-.68,3.59c0,.92,0,1.84,0,2.77Z"/><path class="cls-1" d="M94.64,23.21a7.75,7.75,0,0,1-.74,3.08,8.19,8.19,0,0,1-13.39,3,6,6,0,0,1-1.27-1.68c0-.08-.17-.13-.08-.23a.23.23,0,0,1,.31,0,4.69,4.69,0,0,0,1,.6,7,7,0,0,0,6.61-.31,5.16,5.16,0,0,0,1.49-1.49,5.44,5.44,0,0,0,1-4.15,4.46,4.46,0,0,0-3.58-3.87c-.21,0-.47,0-.49-.28s.25-.33.47-.39a9,9,0,0,0,4.49-3.09,3.85,3.85,0,0,0,.69-1,.22.22,0,0,1,.27-.15c.12,0,.13.13.15.23.16,1.51,1.1,2.7,1.69,4a22.09,22.09,0,0,1,.89,2.18A9.83,9.83,0,0,1,94.64,23.21Z"/><path class="cls-1" d="M192.3,22.52a9,9,0,0,1-.65,3.51,8.61,8.61,0,0,1-2.09,3.14,8.07,8.07,0,0,1-3.77,2.22,8.21,8.21,0,0,1-5.57-.69,9,9,0,0,1-2.84-2.25,3,3,0,0,1-.36-.57c-.06-.1-.14-.21,0-.31s.21,0,.3.06a7.53,7.53,0,0,0,2.25.88,6.71,6.71,0,0,0,5.31-.84,4.93,4.93,0,0,0,1.42-1.49,5.55,5.55,0,0,0,1.06-3.88,4.55,4.55,0,0,0-3.73-4.14c-.17,0-.34,0-.36-.25s.12-.27.29-.32a9.08,9.08,0,0,0,4.29-2.66,4.68,4.68,0,0,0,1-1.33c.06-.14.12-.29.3-.27s.2.21.2.35a5.63,5.63,0,0,0,1,2.35c.36.78.8,1.53,1.13,2.33A11.3,11.3,0,0,1,192.3,22.52Z"/><path class="cls-1" d="M162.32,0a2.73,2.73,0,0,1,2.54,2.36,2.54,2.54,0,0,1-2.76,2.31,2.36,2.36,0,0,1-2.24-2.33C159.8,1.32,161.26-.18,162.32,0Z"/></g></g></svg>