<svg xmlns="http://www.w3.org/2000/svg" viewBox="0 0 132.11 146.02"><defs><style>.a{fill:#2075bb;}.b{fill:#1f76bc;}.c{fill:#1e1d1d;}.d{fill:#533019;}.e{fill:#533018;}.f{fill:#714121;}.g{fill:#54321b;}.h{fill:#57351c;}.i{fill:#5e3f2b;}.j{fill:#5a3921;}.k{fill:#705340;}.l{fill:#6f523e;}.m{fill:#765c49;}.n{fill:#af9b8e;}.o{fill:#644223;}.p{fill:#694d3a;}.q{fill:#fff;}.r{fill:#1c629b;}.s{fill:#1b629b;}.t{fill:#1d639c;}.u{fill:#22669e;}.v{fill:#23659d;}.w{fill:#20649c;}.x{fill:#24669e;}.y{fill:#316da2;}.z{fill:#19649f;}.aa{fill:#fefeff;}.ab{fill:#feffff;}.ac{fill:#fdfdfe;}.ad{fill:#2a6ca4;}.ae{fill:#2e6ea5;}.af{fill:#2569a2;}.ag{fill:#1866a3;}.ah{fill:#2267a1;}.ai{fill:#1d659f;}.aj{fill:#fdfefe;}.ak{fill:#fcfdfe;}.al{fill:#296ea6;}.am{fill:#2e7cbe;}.an{fill:#276ba3;}.ao{fill:#18639e;}.ap{fill:#155f99;}.aq{fill:#3e76aa;}.ar{fill:#3271a4;}.as{fill:#1865a2;}.at{fill:#1e67a2;}.au{fill:#784521;}.av{fill:#e8c6af;}.aw{fill:#292422;}.ax{fill:#423e3c;}.ay{fill:#3d2516;}.az{fill:#fcc907;}.ba{fill:#fac808;}.bb{fill:#3c3633;}.bc{fill:#422d21;}.bd{fill:#57473c;}.be{fill:#373433;}.bf{fill:#e5c4ad;}.bg{fill:#565453;}.bh{fill:#f8f7f7;}.bi{fill:#2c2b2b;}.bj{fill:#7f7e7e;}.bk{fill:#929191;}.bl{fill:#585655;}.bm{fill:#1f1e1e;}.bn{fill:#514a47;}.bo{fill:#4a4848;}.bp{fill:#f0edee;}.bq{fill:#443d37;}.br{fill:#6e472c;}.bs{fill:#646362;}.bt{fill:#5b5958;}.bu{fill:#7c7b7a;}.bv{fill:#71706f;}.bw{fill:#7b7a79;}.bx{fill:#999998;}.by{fill:#3a3634;}.bz{fill:#787676;}.ca{fill:#8b8b8a;}.cb{fill:#4e4037;}.cc{fill:#794521;}.cd{fill:#87562f;}.ce{fill:#754420;}.cf{fill:#fac807;}.cg{fill:#70401e;}.ch{fill:#f1c00f;}.ci{fill:#f7c508;}.cj{fill:#f1bf09;}.ck{fill:#ebe6e3;}.cl{fill:#f6c408;}.cm{fill:#674018;}.cn{fill:#aa9383;}.co{fill:#be8e10;}.cp{fill:#957c6c;}.cq{fill:#bb8810;}.cr{fill:#fcca07;}.cs{fill:#794621;}.ct{fill:#f5af15;}.cu{fill:#fac707;}.cv{fill:#f7c408;}.cw{fill:#a87d4f;}.cx{fill:#f8b115;}.cy{fill:#e8317b;}.cz{fill:#2779bd;}.da{fill:#1e76bc;}.db{fill:#3b73a7;}.dc{fill:#4d3829;}.dd{fill:#51453d;}.de{fill:#cbc9ca;}.df{fill:#929292;}.dg{fill:#a1a0a0;}.dh{fill:#dcb8a0;}.di{fill:#d0cfce;}.dj{fill:#b6b4b2;}.dk{fill:#5a371f;}.dl{fill:#5b361c;}.dm{fill:#ae917c;}.dn{fill:#f9f8f8;}.do{fill:#5a3922;}.dp{fill:#fbfafa;}.dq{fill:#673d1f;}.dr{fill:#633a1d;}.ds{fill:#fdfcfc;}.dt{fill:#fdfcfd;}.du{fill:#fdfdfd;}.dv{fill:#fffefe;}.dw{fill:#e6dee2;}.dx{fill:#fcfbfb;}.dy{fill:#794723;}.dz{fill:#a1a1a0;}.ea{fill:#966638;}</style></defs><path class="a" d="M304.08,325c2.13,0,4.26,0,6.4,0,.91,0,1.3.34,1.29,1.24,0,1.1.05,2.2,0,3.3,0,.77.28,1,1.05,1.28a32.83,32.83,0,0,1,4.92,2.11,1.46,1.46,0,0,0,1.67,0,37.35,37.35,0,0,1,5.22-2.41c.74-.27,1.09-.52,1.09-1.28,0-1.1.06-2.2,0-3.3,0-.76.31-1,1-1q6.69.06,13.39.05c.93,0,1,.42.95,1.21-.11,1.29-.05,2.59-.15,3.88-.07,1,.31,1.25,1.24,1a12.33,12.33,0,0,1,5.54-.3,11.85,11.85,0,0,1,5.58,2.52,1.25,1.25,0,0,0,1.69.15,13.37,13.37,0,0,1,10.58-1.63c1.23.33,1.3-.2,1.31-1.11,0-1.1.07-2.2.13-3.3,0-.8.3-1.3,1.3-1.22q6.47.56,12.94,1c.9.06,1.27.35,1.18,1.29-.12,1.34-.65,3-.08,4s2.35,1.1,3.51,1.74a12.83,12.83,0,0,1,6.13,13.57c-1.19,6-5.45,10.06-11.06,10.6a15.58,15.58,0,0,1-2.88-.21c-4.36-.43-8.72-1.06-13.09-1.21-2.22-.08-4.5.58-6.69-.25a25.52,25.52,0,0,1-4.16-2c-.8-.48-1.34-.73-2.24-.2a13.16,13.16,0,0,1-10.44,1.37,14.29,14.29,0,0,0-3.47-.17c-2.46,0-4.91,0-7.37,0a6.14,6.14,0,0,0-1.55.08,10.28,10.28,0,0,1-8.34-1.41,3.08,3.08,0,0,0-3.76,0c-2.32,1.7-5,1.89-7.75,1.81-3.79-.11-7.6,0-11.38.15-2.57.13-5.14,1-7.67.84a79,79,0,0,0-10,.5c-2,.12-3.95.52-5.93.79a12.21,12.21,0,0,1-13.71-9.56c-1.4-5.81.94-13.32,8.49-15.5.92-.26,1.21-.64,1.09-1.62-.16-1.34-.64-3.14,0-3.92s2.51-.45,3.84-.56c3.22-.26,6.44-.44,9.66-.75,1.31-.12,1.79.37,1.71,1.6,0,.06,0,.13,0,.19.09,1.16.17,2.31.26,3.46a24.71,24.71,0,0,1,3.17-.46c1.48,0,3,.17,4.44.24a8.66,8.66,0,0,0,1.35-.07c1.73-.18,1.73-.19,1.72-2,0-.13,0-.26,0-.39.07-1.27-.3-2.91.35-3.69s2.29-.28,3.51-.31,2.58,0,3.88,0Z" transform="translate(-260.22 -233.8)"/><path class="b" d="M358.07,375.9a13.34,13.34,0,0,1-2.56-.44c-1.19-.43-1.73-.2-2.32,1-1.43,2.9-4.23,3.92-7.34,3-1-.3-1.62-.73-1.44-1.87a5.06,5.06,0,0,0,0-.78c0-1.68,0-1.5-1.59-1.31a31.55,31.55,0,0,1-4.55-.12,5.44,5.44,0,0,0-2,.07c-3.23,1.18-7.33,0-7.33-4.94,0-.65.09-1.36-.91-1.32l0-5.72c1.15-.35,1.31-1.95,2.82-2a15.65,15.65,0,0,0,3.71-1c1-.31,1.1.18,1.1,1,0,.63,0,1.7.24,1.81a8.25,8.25,0,0,0,2.69.33c1.42,0,2.83-.06,4.24-.08l17.23-.24c.26,0,.52,0,.77,0,3,.3,3,.38,3,3.35a18.51,18.51,0,0,0,.39,3.22c.64,3.12-1.17,5.44-4.74,6C359.15,375.87,358.76,375.86,358.07,375.9Z" transform="translate(-260.22 -233.8)"/><path class="b" d="M295.09,367.3c0-1.42,0-2.84,0-4.26-.05-2.18.95-3.33,3.16-3.58,1.93-.22,3.66.82,3.81,2.69.11,1.39.78,1.31,1.72,1.3a49.1,49.1,0,0,1,7,.06c2.37.33,4.66-.7,7-.1.19,0,.69-.26.69-.4,0-1.14.91-1.13,1.6-1.35,1.34-.44,2.72-.79,4.08-1.2.78-.25,1.22-.13,1.22.83s-.44,2.34,1.4,2.27c.09,0,.28.66.28,1,0,3.1,0,6.2,0,9.31a1.46,1.46,0,0,1-1.27,1.61c-2.17.62-4.24.65-5.94-1.09-.44-.44-.62-.38-1.06,0-1.71,1.39-3.72,1.5-5.85,1.41-2.75-.11-5.51,0-8.26,0-.93,0-2-.44-2.75-.08s-.77,1.58-1.31,2.28a5.48,5.48,0,0,1-6.37,1.3,1.63,1.63,0,0,1-.64-1.2c-.08-1.55-.06-3.1,0-4.65a1.37,1.37,0,0,1,.48-.69c1.45.83,1.08-.37,1.09-1,0-1.49,0-3,0-4.46Z" transform="translate(-260.22 -233.8)"/><path class="c" d="M305.19,257.74c-1.35-1.05-1-2.57-1-4,0-.21.51-.49.83-.64.62-.3,1.27-.53,1.91-.79a3.38,3.38,0,0,1,1.06-.56,7.08,7.08,0,0,1,2.14-.38c3.73-.56,7.4-.73,11.07.61a8.47,8.47,0,0,0,5.53-.19c6.41-2.14,12.59-1.38,18.68,1.2a3.79,3.79,0,0,0,.73.21c.73.24.9,1.07,1.51,1.43,1.12,1,2.24,2.09,3.35,3.15a.29.29,0,0,1,.11.16c.11.79.23,1.59.34,2.38l-1.93-.33c-.39-.1-.8.1-1.19-.08l-1-.3c-.5-.16-1-.29-1.5-.49-2.35-1.17-2.45-1.15-3.52,1.25a6.36,6.36,0,0,1-6.14,4.08c-.64-.08-1.15.35-1.76.42a5.13,5.13,0,0,0-1.54-.39,8.76,8.76,0,0,1-5.21-1.66,5.59,5.59,0,0,1-1.76-2.52c-.57-.85-.42-1.87-.68-2.79a4.24,4.24,0,0,0-.33-.39c-1-1.26-1.29-1.23-2,.17a6.56,6.56,0,0,0-.54,1.73,4.36,4.36,0,0,1-.56,1.52,19,19,0,0,1-1.29,1.8c-1.13,1.22-2.72,1.19-4.17,1.52a10.51,10.51,0,0,1-1.09.33,2.33,2.33,0,0,1-.59,0c-2.79-.09-5.56-.27-7.57-2.62-.8-1-.87-2.36-1.64-3.38A1.92,1.92,0,0,1,305.19,257.74Z" transform="translate(-260.22 -233.8)"/><path class="d" d="M348.36,259.7l1.12.31a3.59,3.59,0,0,0-.27,1c.69,8.59-3.68,13.36-10.94,16.18-.68.27-1.81.16-1.54,1.47.23.48-.05.76-.39,1a1.2,1.2,0,0,1-1.12,0,1,1,0,0,1-.27-.45c-.9-.85-1.85-.11-2.71,0-3.11.52-6.29.14-9.39.7a5.48,5.48,0,0,1-2.09-.32,4.73,4.73,0,0,0-4.72.82c-.68.34-1,1.05-1.48,1.56a1.66,1.66,0,0,1-1.31.08,3,3,0,0,0-3.71,1.59,6.14,6.14,0,0,0-.3.7c-.84,2.76-.73,3,2,3.81a6,6,0,0,1,1.38.64,8.4,8.4,0,0,0,6.45.77,2.59,2.59,0,0,1,1.32-.12c.82.61.47,1-.23,1.39a11.82,11.82,0,0,1-2,.61,7.89,7.89,0,0,1-4-.05c-1.36-.43-1.53.24-1.54,1.28,0,1.74,1.19,2.88,2.06,4.18a4.79,4.79,0,0,0,.68.67c3,2.37,6.64,2.3,10.13,2.78,1,.13,2,0,2.78.65a1.31,1.31,0,0,1,.45,1.13c-.73.91-1.52,0-2.27,0a37.15,37.15,0,0,1-5.65-.63c-1.28.31-.2,1.35-.58,1.93a1.75,1.75,0,0,1-1.66,1c-2.06-.23-3.65,1.13-5.49,1.67-.31-.08-.55-.22-.44-.61,1.31-1.48,3.08-2,4.91-2.45.54-.14,1.54.33,1.55-.86s0-1.9-1.44-2.15a7.89,7.89,0,0,1-4.44-2.94,6.57,6.57,0,0,1-1.83-6c.21-.94-.14-1.34-1-1.47a12.83,12.83,0,0,1-2.09-.29c-.44-.15-.71-.72-1.14-.95-.75-.41-1.75-.64,0-1.18.28-.09.4-.95.45-1.47.2-2.13,1-3.86,3.06-4.77.11-.06.24-.18.34-.16,2.76.58,4.29-1.79,6.62-2.77-4.93-1.71-9.51-3.78-11.62-8.94a17.48,17.48,0,0,1-.78-11.35l.58.11c.75,2.39-.18,4.84.36,7.29.68,3.15,1.78,5.92,4.5,7.83,2.91,2.72,6.56,3.78,10.32,4.39a31.82,31.82,0,0,0,7.49.47,8.6,8.6,0,0,0,2.9-.23,32.92,32.92,0,0,0,9.94-3.54,13,13,0,0,0,6.77-9.79,6.25,6.25,0,0,0,0-3.27C348.08,260.55,347.34,259.9,348.36,259.7Z" transform="translate(-260.22 -233.8)"/><path class="e" d="M308,252.3l-1.13,0a8.61,8.61,0,0,1,.34-.89c.4-.81.82-1.6,1.23-2.4-.84-.2-1.7-.36-2.53-.61a2.88,2.88,0,0,1-2.15-3.06,12.12,12.12,0,0,1,7.08-9.87,4.34,4.34,0,0,1,5.13,1,1.76,1.76,0,0,0,1.44.46,18.78,18.78,0,0,1,11,.54c.72.26.94,0,.84-.66s-.2-1.28-.27-1.92c0-.37,0-.76,0-1.14.39.19.79.35,1.15.57.16.09.25.28.37.43.12.74-.52,1.47-.06,2.22a2.8,2.8,0,0,1-.57,2.49.88.88,0,0,1-.54.18c-2.84-2.11-6.08-2.21-9.4-1.86-1.24.13-2.46.49-3.6.66a9,9,0,0,1,4.57,3.57c.87,1.19.58,1.83-.84,2.19a8.43,8.43,0,0,0-1.5.37c-.27.13-.77-.06-.76.41,0,.09.54.26.79.48s.47.65.21,1.07c-1.62-.08-3.25-.07-4.87-.25-.62-.86.15-1.29.62-1.72a8.58,8.58,0,0,1,3.6-1.81c.25-.08.8,0,.64-.48-.11-.3-.58-.16-.88,0a9.48,9.48,0,0,0-2.2,1.22A26.61,26.61,0,0,0,308,252.3Z" transform="translate(-260.22 -233.8)"/><path class="f" d="M337.56,289.69l.3.32a2.77,2.77,0,0,1,.67,1.92,7.42,7.42,0,0,0,.05,3.18c.07,1.31-.74,2.23-1.42,3.21l1.09,1.43c1.81.56,1.71,2.54,2.76,3.67a22.3,22.3,0,0,1,3.36,6.45,2.82,2.82,0,0,1-.5,3.23,10.36,10.36,0,0,1-9.25,2.1c-.18-.82.39-1,1-1.14s1.4-.29,2.09-.43c4-.83,5.14-3.24,2.84-7.45a17.53,17.53,0,0,0-4.48-5.31,2.38,2.38,0,0,1-.59-3.68,6.64,6.64,0,0,0,1-2.92c.2-1.39.46-2.82-1.7-2.86-.41,0-.62-.42-.55-.88a3.24,3.24,0,0,1,2.89-1.19A.79.79,0,0,1,337.56,289.69Z" transform="translate(-260.22 -233.8)"/><path class="g" d="M334.76,315.27a56.93,56.93,0,0,0,5.7-.74,15,15,0,0,0,3.17-1.55.43.43,0,0,1,.34.31,18.6,18.6,0,0,1-3.57,2,20.39,20.39,0,0,1-13.79-.72c-1.19-.46-2.23-1.11-2.27-2.58,0-.9-.66-.58-1.1-.61-2.44-.15-4.89-.23-7.33-.42a22.15,22.15,0,0,1-3.62-.56c-1.8-.45-2.14-1.17-1.27-2.77a16,16,0,0,1,1.6-2.11l.41.42c.24.73-.39,1.13-.66,1.66-.5,1-.31,1.56.82,1.74a56.58,56.58,0,0,0,9.55.74,3.81,3.81,0,0,0,2.85-1.34,17.78,17.78,0,0,1,2.15-1.91,2.68,2.68,0,0,0,1.08-1.93c.08-.54.07-1.17.77-1.39,1.21.88.49,2.52,1.38,3.53-1.23.89-2.81,1.23-3.85,2.39-.81.92-2,1.82-.84,3.27a15.56,15.56,0,0,0,6.34,1.93A3.33,3.33,0,0,1,334.76,315.27Z" transform="translate(-260.22 -233.8)"/><path class="h" d="M347.61,254.65l-1.23-1.05a17.24,17.24,0,0,1-3.75-6.19c.14-.8.79-.9,1.42-1a8.43,8.43,0,0,0,1.48-.37c2.64-1,3-1.58,2.41-4.46a8.7,8.7,0,0,0-7-6.2c-3.49-.36-4.59.64-4.53,4.12,0,.76.41,1.53,0,2.3-.74.61-1.25,0-1.81-.35a8.32,8.32,0,0,1-2.51-2.86c-.47-.67-1.1-1.27-1.07-2.18.09-.28.22-.51.58-.38.84,1.13,1.65,2.28,2.53,3.39.16.21.55.23.84.35,0-.18.05-.36.06-.54.24-4.32,2-5.9,6.29-5.13a9.92,9.92,0,0,1,8.23,9.44,2.8,2.8,0,0,1-1.91,3,12.44,12.44,0,0,1-2.77.78c-.87.1-1.13.14-.56,1,1,1.64,1.93,3.35,2.85,5A6.81,6.81,0,0,1,347.61,254.65Z" transform="translate(-260.22 -233.8)"/><path class="i" d="M344,313.29l-.34-.31a3.09,3.09,0,0,0,.08-3.52c-1-2-2-3.93-3-5.89-.47-.82-.17-1.16.71-1.13,1.18,2.52,2.43,5,3.52,7.57C345.42,311.24,345.39,312.51,344,313.29Z" transform="translate(-260.22 -233.8)"/><path class="j" d="M336.31,279.45l.42-.77a13.41,13.41,0,0,1,3,.63c2.75,1.26,4.06,4.22,1.58,7.58-.56,0-.59-.37-.65-.76a16.2,16.2,0,0,1,.49-2c.31-1.86-.63-3.15-2.94-4C337.55,280,336.8,280.12,336.31,279.45Z" transform="translate(-260.22 -233.8)"/><path class="k" d="M341.38,302.44l-.71,1.13c-.21-.12-.53-.18-.63-.35-.62-1.15-1.19-2.31-1.79-3.47C340.13,299.67,340.7,301.12,341.38,302.44Z" transform="translate(-260.22 -233.8)"/><path class="l" d="M341,286.13l.35.76c-.88,1.25-1.55,2.75-3.46,2.64a.67.67,0,0,1-.17-.49A8.76,8.76,0,0,1,341,286.13Z" transform="translate(-260.22 -233.8)"/><path class="m" d="M337.16,298.32l1.1-3.22c-.06-.7.27-.68.75-.41C338.83,296.13,339,297.74,337.16,298.32Z" transform="translate(-260.22 -233.8)"/><path class="n" d="M339,294.69l-.75.41a2.85,2.85,0,0,1,0-3.18c.4.11.53.48.73.78Z" transform="translate(-260.22 -233.8)"/><path class="o" d="M331.65,236l-.41.44c-.36.27-1.08-.74-1.22.34-.79-.9,0-1.41.5-2Z" transform="translate(-260.22 -233.8)"/><path class="p" d="M339,292.7l-.73-.78-.4-1.91C339.25,290.48,338.76,291.74,339,292.7Z" transform="translate(-260.22 -233.8)"/><path class="p" d="M337.8,289.24c0,.1,0,.2.06.3a.3.3,0,0,1-.3.15l-.12-.09Q337.37,289.16,337.8,289.24Z" transform="translate(-260.22 -233.8)"/><path class="q" d="M309.91,333.09c4.13.27,5.9,1.19,8.79,4.6a9.28,9.28,0,0,1,5.15-4.19,9.57,9.57,0,0,1,3-.41c1.2.08,1.43-.39,1.41-1.42s.14-2.07.16-3.1c0-.65.27-.93.93-.92,2.71,0,5.43,0,8.14,0,.8,0,.93.32.89,1.07-.11,2-.09,4-.15,6,0,.82.09,1.06.92.5a10.83,10.83,0,0,1,8.45-1.76,9,9,0,0,1,5.65,3.44c.51.67.73.79,1.41.16,4-3.66,8.7-4.09,13.32-1.29,1.24.75,1.23.75,1.32-.75.11-1.68.27-3.35.34-5,0-.86.31-1.06,1.18-1q3.86.41,7.73.6c1,0,1.24.38,1.12,1.29-.14,1.09-.19,2.19-.28,3.29,0,.57,0,.92.81,1,4.95.3,7.83,3.13,9.21,7.72,1.68,5.19-1.05,12.45-8.74,13-2.41.19-4.93-.67-7.43-.94-1.45-.17-3,.23-4.36-.5l-.81-.75c-1.64-.35-3,.8-4.55.92a9.58,9.58,0,0,1-5.09-.68l-4.53-3c-.81-.38-1.14.38-1.64.71-3.25,2.14-6.67,3.25-10.51,1.63l-3.09-1.59c-.53,1.43-1.61,1.79-3,1.65-3.79-.37-7.57.63-11.36,0l-5-3.68c-.71,0-.93.59-1.31,1a9.21,9.21,0,0,1-9.28,2.8c-5.77.34-11.6-.13-17.3,1.23a8.08,8.08,0,0,1-3.24-.21l-3.1-1.52a2.9,2.9,0,0,1-3.12,2.25,45.62,45.62,0,0,0-8.41.87c-.7.1-1.37.33-2-.14a10.83,10.83,0,0,1-5.84-3.14,10.57,10.57,0,0,1-2.1-11c1.31-3.92,4.25-5.87,8.22-6.31,1.06-.11,1.31-.47,1.2-1.4s-.17-2.06-.28-3.09c-.07-.72.18-1,.94-1.08,2.64-.19,5.27-.45,7.9-.67.56-.05,1.22-.19,1.24.73.55,1.57.41,3.24.69,4.86.08.42-.07.92.47,1.14a10.33,10.33,0,0,1,8.16-1.9c2,.34,4.1-.17,6.15-.27.73,0,.81-.46.8-1,0-1.29,0-2.58-.05-3.87,0-.81.23-1.15,1.09-1.15,2.64,0,5.27-.07,7.91,0,.38,0,.76.45,1.14.69.58.8.27,1.73.35,2.6C309.59,331.76,309.35,332.5,309.91,333.09Z" transform="translate(-260.22 -233.8)"/><path class="r" d="M368.92,354.49c3,.27,6.07.2,9,.87a9.59,9.59,0,0,0,11.6-8.81c.1-1.21,0-2.44,0-3.66.26.37.68.71.74,1.1.92,5.83-2.54,11.51-8.22,12.08a15.61,15.61,0,0,1-3,0c-2.55-.22-5.09-.46-7.62-.79A13.63,13.63,0,0,1,368.92,354.49Z" transform="translate(-260.22 -233.8)"/><path class="s" d="M288.18,354.54c3.06-.32,6.11-.74,9.18-1,3.55-.25,7.1-.33,10.65-.45a4,4,0,0,1,1.13.27c.08.07.11.14.08.21s-.05.11-.08.11c-4.91.26-9.82.51-14.72.8A8.64,8.64,0,0,0,292,355C290.61,355.51,289.41,355,288.18,354.54Z" transform="translate(-260.22 -233.8)"/><path class="t" d="M271.53,356c3.8-.43,7.6-.86,11.4-1.26.93-.1,1.52-.34,1.38-1.49-.11-.93.41-.48.77-.23a5,5,0,0,1-.05,1.35c-.11.34-.42.81-.72.87-1.06.23-2.15.3-3.23.43-2,.24-4.05.53-6.09.71-1.25.11-2.51.05-3.77.06Z" transform="translate(-260.22 -233.8)"/><path class="u" d="M324.3,353.4c3.85-.14,7.71-.29,11.56-.41,1.05,0,2.3.33,2.23-1.42l.61.13c-.12,2-.12,2-2.17,2.05-2.86.08-5.71.32-8.57.32A19.59,19.59,0,0,1,324.3,353.4Z" transform="translate(-260.22 -233.8)"/><path class="v" d="M309.14,353.73v-.32c3.77.36,6.94-.7,9.2-3.92.51-.73.79-.42,1,.23-2.19,3.62-5.51,4.77-9.54,4.37C309.55,354.07,309.35,353.86,309.14,353.73Z" transform="translate(-260.22 -233.8)"/><path class="w" d="M341.79,353.29a11.31,11.31,0,0,0,10.93-2.7c.71-.66,1-.28,1.22.36A13.83,13.83,0,0,1,347,354.3c-1.95.33-3.6-.27-5.36-.7a.34.34,0,0,1,0-.17C341.68,353.38,341.75,353.34,341.79,353.29Z" transform="translate(-260.22 -233.8)"/><path class="x" d="M358.47,354a12.07,12.07,0,0,0,9-1c1.11-.62.58.4.64.8-2.67,1.56-5.56,1.55-8.48,1.08C359.21,354.76,358.85,354.27,358.47,354Z" transform="translate(-260.22 -233.8)"/><path class="y" d="M284,336c-.29.2-.71,1-.81,0-.19-2-.24-4-.35-6,.24.24.64.46.67.73C283.69,332.52,283.81,334.28,284,336Z" transform="translate(-260.22 -233.8)"/><path class="z" d="M309.91,333.09c-.25-.22-.71-.44-.73-.67-.06-1.31,0-2.63,0-3.94.25.35.68.68.71,1C310,330.71,309.91,331.9,309.91,333.09Z" transform="translate(-260.22 -233.8)"/><path class="aa" d="M346,366.94a3.62,3.62,0,0,1-.29-1.08c0-.26.27-.75.41-.75,1.11.05,2.22.18,3.32.29.92,1.39.87,3.1,1.49,4.59.12.23.31-.15.09,0s-.11,0-.15-.11c-.17-.5-.32-1,.27-1.32.11-.35.25-.7.34-1.06.7-2.7,1-2.88,4-2.15a1.35,1.35,0,0,1,.09,1.29c-1.26,2.68-2,5.53-3.08,8.28a2.56,2.56,0,0,1-1,1.37c-.8,1.49-4,2.52-5.11,1.48-.41-.39-.26-1.41-.3-2.14a3.49,3.49,0,0,1,1-.16,1.58,1.58,0,0,0,1.58-2.34c-.66-1.73-1.46-3.42-2.19-5.12A1,1,0,0,1,346,366.94Z" transform="translate(-260.22 -233.8)"/><path class="ab" d="M336.74,366.62c2.79-2.3,5.12-2.32,8.18-.09a4.54,4.54,0,0,1-1,7c-1.4.38-2.79,1.11-4.28.46-1-.45-2-1-3-1.57a1.55,1.55,0,0,1-.93-1.12,4.81,4.81,0,0,1,0-3.54A2,2,0,0,1,336.74,366.62Z" transform="translate(-260.22 -233.8)"/><path class="ac" d="M335.84,373.91l-1.13.22a3.18,3.18,0,0,1-4.1-2.91c-.11-.83,0-1.68-.07-2.51a1.64,1.64,0,0,0-.38-1c-1.21-1.13-1.23-1.65,0-2.72.13-.12.32-.28.32-.42,0-2.13,1.92-1.42,3-2,0,0,.58.58.54.84-.19,1.51.58,1.78,1.82,1.56.77.74.46,1.61.29,2.46-.15.42-.53.56-.9.7-1.25.74-.86,1.65-.25,2.57.38.3,1.14.13,1.16.9S336.62,373.25,335.84,373.91Z" transform="translate(-260.22 -233.8)"/><path class="aa" d="M356.18,365.92a6.74,6.74,0,0,1,6.11-.51,1.58,1.58,0,0,1-.08,2.27,21.35,21.35,0,0,0-2.24-.51c-.22,0-.48.27-.72.42.17.22.29.54.52.65.8.39,1.64.72,2.46,1.07,1.17,1.31,1.19,2.1.08,3.49-1.76,1.62-3.86,1.47-6,1.14-.75-.12-1.29-1.78-.78-2.36.12-.14.54-.05.81,0,.82.08,1.64.21,2.46.25.19,0,.4-.27.6-.42a2.09,2.09,0,0,0-.48-.54,5.6,5.6,0,0,0-1.08-.41A3.17,3.17,0,0,1,355.4,368C354.93,367.05,355.52,366.47,356.18,365.92Z" transform="translate(-260.22 -233.8)"/><path class="ad" d="M356.18,365.92,355.4,368c-.8,2.17-1.59,4.34-2.4,6.51-.28.76-.41,1.69-1.52,1.74l4-10.94C356.19,364.94,356.11,365.53,356.18,365.92Z" transform="translate(-260.22 -233.8)"/><path class="ae" d="M344,373.51c2.07-2.25,2.36-4.32,1-7l1.12.41.43,1.06c-.16,1.44.28,3-.8,4.24A9.57,9.57,0,0,1,344,373.51Z" transform="translate(-260.22 -233.8)"/><path class="ad" d="M351.18,368.55l-.24,1.6-.37.05-1.09-4.8c.27.18.67.3.78.55C350.62,366.8,350.88,367.68,351.18,368.55Z" transform="translate(-260.22 -233.8)"/><path class="af" d="M362.31,372.8a3.18,3.18,0,0,0-.08-3.49c1.36.15,1.26,1.2,1.25,2.12S363.41,372.4,362.31,372.8Z" transform="translate(-260.22 -233.8)"/><path class="ag" d="M362.21,367.68l.08-2.27c.15-.1.39-.31.42-.28A1.6,1.6,0,0,1,362.21,367.68Z" transform="translate(-260.22 -233.8)"/><path class="ah" d="M335.87,367.7l0-2.67c1.26,0,.73,1,.91,1.59l-.54,1.1C336.08,367.85,336,367.85,335.87,367.7Z" transform="translate(-260.22 -233.8)"/><path class="ai" d="M335.84,373.91l0-2.65c.08-.15.17-.17.28,0l.57,1.18C336.59,373,337,373.93,335.84,373.91Z" transform="translate(-260.22 -233.8)"/><path class="aj" d="M310.3,373.93c-.84,0-1.68.06-2.51,0-.34,0-.63-.41-1-.58-.18-.09-.5-.17-.6-.08a2.72,2.72,0,0,1-3.35.67c-1.35-.68-1.54-2-1.55-3.29s0-2.85,0-4.26c0-1,.3-1.42,1.32-1.32.71.06,1.42,0,2.13,0,.94,1,.38,2.2.49,3.3s0,1.92.07,2.88c1.21.6,1.43-.24,1.48-1.11a27.1,27.1,0,0,0,0-3.49c-.08-1.14.22-1.72,1.48-1.56a14,14,0,0,0,1.94,0A14.85,14.85,0,0,1,310.3,373.93Z" transform="translate(-260.22 -233.8)"/><path class="ac" d="M325.37,373.92l-1.13.22a3.19,3.19,0,0,1-4.09-2.94,15,15,0,0,1,0-2.51c0-.91-.4-1.12-1.17-1a1.77,1.77,0,0,1,0-2.64,4.43,4.43,0,0,0,1.13-.64c.27-.29.26-1,.54-1.1a9.39,9.39,0,0,1,2.41-.62c.15,0,.56.52.54.76-.17,1.45.51,1.85,1.8,1.59a2,2,0,0,1,0,2.66l-1.07.05a3.78,3.78,0,0,0,0,3.55l1,0A1.88,1.88,0,0,1,325.37,373.92Z" transform="translate(-260.22 -233.8)"/><path class="aa" d="M318,367.68a11,11,0,0,0-1.68-.39c-.29,0-.61.23-.91.36.23.27.41.62.7.78a21,21,0,0,0,1.93.87c1.37,1.1,1.16,2.27.14,3.48a5.09,5.09,0,0,1-4.53,1.31c-.68-.09-1.38-.13-2.07-.19-1.14-2.26-.65-2.84,2.33-2.72-3-1.74-3.22-2.09-2.45-4.24a3.89,3.89,0,0,1,3.66-2c1,0,1.9,0,2.85.06A1.87,1.87,0,0,1,318,367.68Z" transform="translate(-260.22 -233.8)"/><path class="ak" d="M299.48,377c-.94,1.13-2.29,1-3.53,1-.25,0-.76-.56-.75-.84,0-.59-.53-1.52.51-1.73s1-1,1-1.75c0-2.39.05-4.77,0-7.15,0-1.13.21-1.72,1.48-1.56a12.31,12.31,0,0,0,1.92,0c.57.49.46,1.16.46,1.79q0,3.65,0,7.29A3.42,3.42,0,0,1,299.48,377Z" transform="translate(-260.22 -233.8)"/><path class="ak" d="M300.19,363.84a9.37,9.37,0,0,1-2,.45,1.39,1.39,0,0,1-1.53-1.55,1.51,1.51,0,0,1,1.49-1.65,9.58,9.58,0,0,1,1.51.06C301,361.83,301.43,362.67,300.19,363.84Z" transform="translate(-260.22 -233.8)"/><path class="al" d="M299.48,377a23.16,23.16,0,0,0,.76-3.9c.08-2.7-.06-5.41-.11-8.11.29.32.81.64.82,1,.06,2.89.13,5.79,0,8.68C300.88,375.53,301,376.88,299.48,377Z" transform="translate(-260.22 -233.8)"/><path class="am" d="M311.43,366.94c-.38,2.21.88,3.14,2.76,3.68.4.11.69.56,1,.85-.47.15-.93.32-1.4.45-.11,0-.25-.07-.37-.09-2.23-.39-2.23-.39-1.91,2.07l-.47,0a12.83,12.83,0,0,1,0-7Z" transform="translate(-260.22 -233.8)"/><path class="an" d="M311.11,367l0,7h-.78c0-3-.05-5.93-.08-8.9C311.68,365.13,310.85,366.29,311.11,367Z" transform="translate(-260.22 -233.8)"/><path class="ao" d="M305.31,371.21a9.16,9.16,0,0,1-.44-1.75c-.09-1.47-.09-2.95-.12-4.43.27.12.78.25.78.36C305.49,367.34,305.39,369.27,305.31,371.21Z" transform="translate(-260.22 -233.8)"/><path class="ap" d="M324.27,371.29c-.92-1.35-.92-2.73,0-3.55Z" transform="translate(-260.22 -233.8)"/><path class="aq" d="M318.15,372.78a3,3,0,0,0-.14-3.48c1,0,1.25.61,1.22,1.47S319.45,372.61,318.15,372.78Z" transform="translate(-260.22 -233.8)"/><path class="ar" d="M318,367.68l0-2.64h1v2.64Z" transform="translate(-260.22 -233.8)"/><path class="as" d="M325.35,367.69V365A1.41,1.41,0,0,1,325.35,367.69Z" transform="translate(-260.22 -233.8)"/><path class="as" d="M325.37,373.92l-.08-2.65c.84-.1,1,.43.92,1.08S326.57,373.89,325.37,373.92Z" transform="translate(-260.22 -233.8)"/><path class="at" d="M300.19,363.84a1.88,1.88,0,0,0-.52-2.69c1.1-.12,1.39.69,1.6,1.48C301.39,363.1,300.91,363.56,300.19,363.84Z" transform="translate(-260.22 -233.8)"/><path class="au" d="M348.36,264.26c-.19,4.38-2.53,7.43-6,9.74a27,27,0,0,1-10.66,4,29.47,29.47,0,0,0-3.1.38c-4.91.09-9.76-.31-14.29-2.39a27.58,27.58,0,0,1-3.91-2.63,14.6,14.6,0,0,1-3.69-10.15c0-.7-.07-1.45.61-1.95a8,8,0,0,0,6.08,2.39,6.15,6.15,0,0,1,1.6.36c.22.94-.11,1.92.29,2.84l.26.48a3.82,3.82,0,0,1,1.12,3.11,4.64,4.64,0,0,0,1,3.2,7.41,7.41,0,0,0,5.1,3.15,12.9,12.9,0,0,0,9.69-1.36c3.14-1.9,4-5,2.77-8.95-.33-1-.72-2,.75-2.46a5.9,5.9,0,0,0,6.06-4c1.1-2.77,1.52-2.88,4-1a1.13,1.13,0,0,0,1.54.41l.78.38V261C348.36,262.06,348.34,263.16,348.36,264.26Z" transform="translate(-260.22 -233.8)"/><path class="au" d="M334.82,241.05l1.49.78c.81-.13.86.64,1.18,1,1.5,1.91,2.95,3.87,5.38,4.73l3.51,6c-.37,0-.81.21-1.09.07a23.76,23.76,0,0,0-16.25-2,36.82,36.82,0,0,1-6.56,1.16,3,3,0,0,1-1.27-.15c-3.42-1.66-7-1.32-10.57-.83a6.52,6.52,0,0,1-.77,0,9.31,9.31,0,0,1,3.86-5.8,2.48,2.48,0,0,0,.77,0,6.2,6.2,0,0,1,4.4.39c.94-1.41,2.41-1.58,3.92-1.72.47,0,1.32.21.71-.85a.68.68,0,0,1,.57-1c.83-.07,1-.38.93-1.19-.06-.45.45-.57.85-.6a2.68,2.68,0,0,1,1.67.41c1.35.93,2.45,1.24,3.28-.66.34-.81,1.22-.84,2-.64S334.13,240.87,334.82,241.05Z" transform="translate(-260.22 -233.8)"/><path class="av" d="M316.11,263.53l4.3-1.58c.07,0,.15,0,.19,0,3.33,2.88,3.33,2.88,6.79.43a.43.43,0,0,1,.37,0,9.09,9.09,0,0,0,5.33,1.68c.56.14.83.46.64,1.06-1,.3-1.47,1.27-2.36,1.69-4.41,1.48-8.87,2.48-13.55,1.64a7.2,7.2,0,0,1-1.81-.63c-.89-.75-.2-1.54,0-2.3S316.71,264.24,316.11,263.53Z" transform="translate(-260.22 -233.8)"/><path class="aw" d="M337.79,252.69c4,.08,4,.08,3.92,4.05a14.48,14.48,0,0,1-.94,3.49l-.51-.13c0-.05-.13-.12-.12-.14.09-.18,0-.27-.07-.15-.65,1.42-1.56,2.51-3.27,2.61-1.61-.08-3.31.85-4.81-.43-.06-1.06.91-1.34,1.51-1.84a8.64,8.64,0,0,0,2.75-3.91c.44-1.3.23-2.19-1.37-2.23-2.35,0-4.7,0-6.88,1.11-1.77-.18-1.15-1-.44-1.75a2.87,2.87,0,0,1,2.15-.63l.05-.48c2,.13,4,0,6,.07C336.44,252.35,337.18,252.18,337.79,252.69Z" transform="translate(-260.22 -233.8)"/><path class="ax" d="M316.92,262.05c-1.53,1.19-3.26.74-4.95.61-.55,0-1.11-.16-1.66-.24.23-1.4,1.67-.51,2.28-1.21a8.43,8.43,0,0,0,3.6-6.36c0-.55-.13-1.2.52-1.56a3.7,3.7,0,0,1,2.72.66c.66,1.59.28,3.25.33,4.87-.41,2.18-.88,2.59-3.29,2.95a5.37,5.37,0,0,1-1,.05,4.13,4.13,0,0,0,.93,0A.61.61,0,0,1,316.92,262.05Z" transform="translate(-260.22 -233.8)"/><path class="ay" d="M327.76,262.38c-1.71,2.45-3.32,3.07-5.42,1.82a8.88,8.88,0,0,1-1.93-2.25l1.07-1.45c1.51-1.25,3.14-1,4.81-.4Z" transform="translate(-260.22 -233.8)"/><path class="az" d="M313.73,246.1l-3.86,5.8-1.85.4a22.13,22.13,0,0,1,1.34-2.92,21.67,21.67,0,0,1,8.2-7.53c.56-.3,1.13-.73,1.71,0,.45.56.86,1-.32,1.24A8.21,8.21,0,0,0,313.73,246.1Z" transform="translate(-260.22 -233.8)"/><path class="ba" d="M307.28,261.23a16.32,16.32,0,0,0,2.26,10.37c.32.55.55,1.15.82,1.73-3.13-1.83-4.29-4.89-4.67-8.19a53.84,53.84,0,0,1,.08-7.29Z" transform="translate(-260.22 -233.8)"/><path class="bb" d="M319.24,259.33c0-1.81,0-3.63,0-5.44.17-.35.52-.42.84-.53.77.09,1.28,1.21,2.23.54l2-.37c1,.74,2,.28,2.94-.21a.6.6,0,0,1,.49.14c-.06.53-1.27,1,0,1.58.74.71.54,1.58.42,2.44a2,2,0,0,1-1.16,1.44,7.13,7.13,0,0,1-.72-2.24c.06-1.25-.43-1.81-1.58-1.8a12.17,12.17,0,0,0-2.76.32c-.21.05-.27.76-.37,1.17-.14.59-.25,1.19-.37,1.79s-.67-1-.63.21C320.59,259,320.22,259.77,319.24,259.33Z" transform="translate(-260.22 -233.8)"/><path class="bc" d="M335.94,264c-.84.5-.8,1.08-.43,1.94a8.38,8.38,0,0,1,.54,5.43,7.12,7.12,0,0,1-2.91,4.14c-3.81,2.88-10.71,2.85-14.52,0a8,8,0,0,1-1.34-1.77.63.63,0,0,1,.53-.1c1.4,1.31,3.24,1.74,4.95,2.44,3.22,1.22,6.27.5,9.09-1.08s3.72-4,3-7.45c-.2-.91-.85-1.77-.44-2.79Z" transform="translate(-260.22 -233.8)"/><path class="bd" d="M334.41,264.73a41.5,41.5,0,0,1,1.1,4.63c.43,3.26-1.56,5.3-4.15,6.51a11.8,11.8,0,0,1-8.76.79c-.1,0-.16-.19-.23-.29.83-.7,1.84-.46,2.77-.45a12.78,12.78,0,0,0,5.26-1.05c3.74-1.6,4.87-5.23,2.74-8.72-.19-.49.09-.77.45-1l-.5-1.07Z" transform="translate(-260.22 -233.8)"/><path class="be" d="M313,261.62l-1.34.42-1.36.38-.4-.37a5.61,5.61,0,0,1-2.34-3.13L306.41,257a4.69,4.69,0,0,1,.18-2.75c1.21-1.17,2.8-1.12,4.3-1.33a.82.82,0,0,1,.66.51c-.09,1-1,.86-1.61,1a1.89,1.89,0,0,0-1.49,2.78c.51,1.53,1,3.07,2.66,3.84C311.77,261.19,312.48,261.08,313,261.62Z" transform="translate(-260.22 -233.8)"/><path class="bf" d="M326.29,260.1c-.07.09-.14.26-.22.27l-4.59.13.55-1.59c.89-1.08,2.31-1.21,3.43-1.88Z" transform="translate(-260.22 -233.8)"/><path class="bg" d="M319.24,259.33a10.1,10.1,0,0,0,1.08-1.09,3,3,0,0,0,.28-.94l.59.86a4,4,0,0,1-4.27,3.89h-2.06v-.18c1-.27,1.92-.52,2.86-.82S319.22,260.34,319.24,259.33Z" transform="translate(-260.22 -233.8)"/><path class="bh" d="M316.11,263.53c.26.25,1.21-.3.84.7s-.82,2.1-1.23,3.14c-.47.38-.55-.08-.72-.34l0,.05a3,3,0,0,1,.26-3.1Z" transform="translate(-260.22 -233.8)"/><path class="bi" d="M327,258.92l.71-1.15c.52.26.57.83.82,1.27l.33.67a3.49,3.49,0,0,0,1.65,1.74,1.92,1.92,0,0,1,.53.87.56.56,0,0,1-.13.48,4.25,4.25,0,0,1-3.54-3.26A2.12,2.12,0,0,0,327,258.92Z" transform="translate(-260.22 -233.8)"/><path class="bj" d="M337.79,252.69c-2.13,0-4.26.05-6.4,0a7.15,7.15,0,0,1-1.63-.43l1.54-.27a10.61,10.61,0,0,0,3.81,0,15.41,15.41,0,0,1,2,0C337.39,252.06,337.58,252.46,337.79,252.69Z" transform="translate(-260.22 -233.8)"/><path class="bk" d="M311.1,253.16l-4.28,1.14c-.59.41-1.16.92-1.92.31.3-.33.54-.88.89-1,1.72-.4,3.48-.67,5.22-1,.43-.15.83-.25.92.39C311.69,253.36,311.4,253.3,311.1,253.16Z" transform="translate(-260.22 -233.8)"/><path class="bl" d="M347.53,257.81a5.79,5.79,0,0,1-1.11-.26c-.38-.15-1-.4-1-.63a3.78,3.78,0,0,1,.43-1.64c0-.13.62-.18.82-.05a6,6,0,0,1,.95.93C347.55,256.71,348.15,257.29,347.53,257.81Z" transform="translate(-260.22 -233.8)"/><path class="bm" d="M311.1,253.16l.71-.13a1.58,1.58,0,0,1,1.3-.23c1.69.35,3.37-.11,5.05-.09l1.4.38c.16.15.46.18.43.5l-.76.3-2.79-.35a2.23,2.23,0,0,1-1.59.48c-1.11-.05-2.28.29-3.29-.48Z" transform="translate(-260.22 -233.8)"/><path class="bn" d="M304.9,254.61l1.92-.31-.41,2.71C305,256.8,304.8,255.79,304.9,254.61Z" transform="translate(-260.22 -233.8)"/><path class="bo" d="M330.9,262.8l0-.71c.25-.57.59-.87,1.19-.42.9,1,2.07.76,3.19.66.62-.05,1.24-.19,1.86-.28.19.27.63.08.79.4-1,.13-2,.33-3,.37C333.59,262.88,332.25,262.81,330.9,262.8Z" transform="translate(-260.22 -233.8)"/><path class="bp" d="M325.46,257c-.69,1.46-2.27,1.29-3.43,1.88-.18-.72-.08-1.32.7-1.61.74-1.18,1.8-.35,2.71-.45Z" transform="translate(-260.22 -233.8)"/><path class="bq" d="M348.31,256.63c.34.26.82.44,1,.78.35.6,1.66.6,1.13,1.59-.09.17-1.37-.29-2.1-.46A1.48,1.48,0,0,1,348.31,256.63Z" transform="translate(-260.22 -233.8)"/><path class="br" d="M325.44,256.85l-2.71.45c-.63-1-.52-1.56.79-1.5h.39c.45,0,.4,0,.74.65C324.77,256.67,325.17,256.73,325.44,256.85Z" transform="translate(-260.22 -233.8)"/><path class="bs" d="M337.89,262.45l-.79-.4a3.51,3.51,0,0,0,2.68-2.23,6.36,6.36,0,0,1,.69-1l-.21,1.25C339.67,261.09,339.2,262.19,337.89,262.45Z" transform="translate(-260.22 -233.8)"/><path class="bt" d="M318.16,252.71l-5.16.34c0-.33,0-.58.44-.34,1.06-.08,2.11-.2,3.16-.23A9.33,9.33,0,0,1,318.16,252.71Z" transform="translate(-260.22 -233.8)"/><path class="bu" d="M327.38,253.31a2.26,2.26,0,0,1-2.73.83c-.15,0-.21-.4-.31-.61l3.06-.26Z" transform="translate(-260.22 -233.8)"/><path class="ax" d="M307.57,258.92l2.34,3.13A3.11,3.11,0,0,1,307.57,258.92Z" transform="translate(-260.22 -233.8)"/><path class="bv" d="M348.31,256.63l0,1.91-.82-.73.09-1.65Z" transform="translate(-260.22 -233.8)"/><path class="bw" d="M327.38,253.31l0,0a1.49,1.49,0,0,1,2.31-.53l-1.94.72Z" transform="translate(-260.22 -233.8)"/><path class="bx" d="M335.11,252h0Z" transform="translate(-260.22 -233.8)"/><path class="by" d="M315.3,264l-.26,3.1A2.64,2.64,0,0,1,315,264Z" transform="translate(-260.22 -233.8)"/><path class="bz" d="M313.44,252.71l-.44.34-1.19,0-.8-.37Z" transform="translate(-260.22 -233.8)"/><path class="aw" d="M342.42,253.8v2.88h-.18V253.8Z" transform="translate(-260.22 -233.8)"/><path class="ca" d="M320,253.59l-.43-.5,2.74.81C321.37,255,320.76,253.68,320,253.59Z" transform="translate(-260.22 -233.8)"/><path class="cb" d="M347.58,259.32c-.94,1-1.1,1-1.54-.41Z" transform="translate(-260.22 -233.8)"/><path class="au" d="M334.76,315.27c-3.14-.11-6.21-.52-8.94-2.27a6.45,6.45,0,0,1,6.91-5.75c.26,0-.07,0,.19,0-.09-.06-.19,0-.29-.08-1.4,0-1.73-.87-2-2-.36-1.55-.47-3.36-2.51-3.86-.87-.14-1.74-.28-2.61-.39-3.27-.43-6.62-.5-9.57-2.27a7,7,0,0,1-1-.85c.88-.56,1.6.12,2.35.35,3.62,1.07,6.32-2.77,5.95-5.69-.17-1.29-1.22-1.47-2.4-1.17-.92.24-1.91,1-2.8-.09.72-.26,1.46-.49,2.17-.79.12-.06.11-.43.16-.66.17-.53.62-.68,1.09-.8,1.09-.09,1.86.61,2.7,1.12.37.36,1,.22,1.32.61,1.63.95,3.5,1.23,5.21,1.94,1.07.44,1.77-1.22,2.85-.43,0-.45-.48-.87-.16-1.37.24-.33.52-.56,1-.38,0,.73.46.89,1.05.61,1.26-.6,1.54.35,1.61,1.16a7.81,7.81,0,0,1-1.08,5.15c-1.14,1.75-1,1.64.53,3.21a31.1,31.1,0,0,1,4.75,5.78,7.94,7.94,0,0,1,.75,4.82c-.13.92-1.45,1.89-2.46,2.42a20.66,20.66,0,0,1-3.7.94A4.39,4.39,0,0,0,334.76,315.27Z" transform="translate(-260.22 -233.8)"/><path class="cc" d="M334.38,290.42l-.78.37c-.15.16-.22.38-.39.52a1,1,0,0,1-.43,0,2.71,2.71,0,0,0-.85-.09l-.44.09c-.49-.06-.58.25-.58.64-.29.39-.81.72-1.14.5-1.44-1-3.29-.73-4.71-1.7l-.81-.38a24.82,24.82,0,0,1-3.77-3.48c.17.76,1.95,1.05.58,2.22a11.39,11.39,0,0,1-8.84,0,12.24,12.24,0,0,0-1.58-.61c-2.58-.61-2.75-.85-2.14-3.4a15.35,15.35,0,0,1,.62-1.72,4.09,4.09,0,0,1,5.26-.84c.51.28-.09-.42.17-.56,0-.83,0-1.69,1.2-1.71a8,8,0,0,1,5.63-.11,40.69,40.69,0,0,1,8.68,3.05c.15.09-.24-.28-.14-.49a.89.89,0,0,1,.12-.53,8.18,8.18,0,0,0,3.23-1.15c1.63-1.06,3.58-.9,5.32-1.51,3.18,1.48,3.78,3.13,2.38,6.57l-3.17,3.11-.36.36Z" transform="translate(-260.22 -233.8)"/><path class="au" d="M328.17,307.11a9.92,9.92,0,0,0-1.56,1.39,5.11,5.11,0,0,1-5.15,2.12c-3-.36-5.94-.57-8.91-.85a6.19,6.19,0,0,1,4.05-5.21,8.68,8.68,0,0,0,1.82-.54l1.6-.82c.2-.58-.26-1.4.63-1.73,1.64.17,3.26.56,4.92.59,2.6.06,3.51,1.21,3,3.8A3.28,3.28,0,0,1,328.17,307.11Z" transform="translate(-260.22 -233.8)"/><path class="cd" d="M318.07,291.18a21.42,21.42,0,0,0,2.9-.5,2.12,2.12,0,0,1,2.91,2c-.07,2.51-1.49,5.66-4.73,6.11a5.66,5.66,0,0,1-2-.22,21.2,21.2,0,0,1-2.15-.77c-1.83-1.64-3.09-3.49-2.77-6.14.1-.85.25-1,1.11-.88C314.88,291,316.48,291.05,318.07,291.18Z" transform="translate(-260.22 -233.8)"/><path class="ce" d="M322.7,279.54c1-.13,2-.3,3-.4q4.64-.48,9.28-.89a2.7,2.7,0,0,1,.89.22l-.73.67a1.52,1.52,0,0,1-1,.81c-1.94.45-3.52,1.65-5.28,2.48a47.2,47.2,0,0,1-5.54-2.06C323,280.25,322.63,280,322.7,279.54Z" transform="translate(-260.22 -233.8)"/><path class="cf" d="M322.7,279.54l6.26,2.63a1.53,1.53,0,0,1,1.16.34c.35.26.72.51,1.05.79s.46.51.7.76a4.79,4.79,0,0,1-1.09-.13c-2.37-.83-4.73-1.66-7.08-2.55a16.73,16.73,0,0,0-7.95-1.08,3.94,3.94,0,0,1,4.39-1.36C321,279.18,321.85,279.34,322.7,279.54Z" transform="translate(-260.22 -233.8)"/><path class="cg" d="M328.17,307.11c0-.77,0-1.55,0-2.33,0-1.89-.42-2.21-2.23-2.36s-3.67-.49-5.5-.75a.51.51,0,0,1,0-.78c1.57.26,3.15.54,4.72.76,1.14.17,2.29.27,3.43.39.9.17,1.41.59,1,1.59S329.68,306.37,328.17,307.11Z" transform="translate(-260.22 -233.8)"/><path class="ch" d="M318.42,304a2.32,2.32,0,0,1-.54.42,8.16,8.16,0,0,0-5.33,5.33c-1.31-.34-1.4-1.11-.72-2.12.39-.58.8-1.14,1.2-1.7C314.65,304.83,316.29,303.74,318.42,304Z" transform="translate(-260.22 -233.8)"/><path class="ci" d="M338.59,279.56c-.22.22-.43.63-.66.65a14.12,14.12,0,0,0-5.92,2,1.52,1.52,0,0,1-1.92.06c-.08-1.15.93-1.24,1.61-1.57a10.09,10.09,0,0,1,3.46-1.15l1.15-.13Z" transform="translate(-260.22 -233.8)"/><path class="cj" d="M329.57,303.63l-1-1.59-.44-.75c.62-.72,1.23-.42,1.55.21a9.66,9.66,0,0,1,1.41,3.53c.07,1.42.73,1.81,1.85,2a2,2,0,0,1-2.16,0c-.63-.35-1.23-.6-.88-1.61C330.07,304.93,329.69,304.24,329.57,303.63Z" transform="translate(-260.22 -233.8)"/><path class="ck" d="M312.22,289.14a2.75,2.75,0,0,1,.95,0,11.87,11.87,0,0,0,8.4-.47.53.53,0,0,1,.06.59l-1.23.47a10,10,0,0,1-8.13-.25C312.21,289.46,312.23,289.26,312.22,289.14Z" transform="translate(-260.22 -233.8)"/><path class="cl" d="M314.55,282a8.39,8.39,0,0,1,.68.65,3,3,0,0,1,.35.61,2.33,2.33,0,0,1-.69,0,4.18,4.18,0,0,1-.86-.4,3.3,3.3,0,0,0-4,.25c-.21.18-.58.17-.88.25C310.74,281.14,311.5,280.94,314.55,282Z" transform="translate(-260.22 -233.8)"/><path class="cm" d="M335.16,279.58c-1.22.52-2.46,1-3.64,1.57a8.2,8.2,0,0,0-1.43,1.15.76.76,0,0,0,0,.21l-1.16-.34c1.71-1.73,4-2.32,6.19-3Z" transform="translate(-260.22 -233.8)"/><path class="cn" d="M348.36,264.26a3.08,3.08,0,0,1,0-3.3A3.35,3.35,0,0,1,348.36,264.26Z" transform="translate(-260.22 -233.8)"/><path class="co" d="M320.41,300.89l0,.78L320,303.2C319.64,302.34,319,301.44,320.41,300.89Z" transform="translate(-260.22 -233.8)"/><path class="cp" d="M328.56,278.35a4.5,4.5,0,0,1,3.1-.38Z" transform="translate(-260.22 -233.8)"/><path class="cq" d="M334.82,241.05c-.63-.13-1.27-.2-1.89-.38-1-.29-1.73-.12-2.12,1-.13.36-.38.67-.53,1-.32.76-.69.7-1.32.28a18.75,18.75,0,0,0-2.71-1.4c-.26-.11-.62,0-.93,0a2.76,2.76,0,0,0,.27.87c.52.74.75,1.21-.52.8a1.46,1.46,0,0,0-.75,0,3.14,3.14,0,0,0-.64.25,3.64,3.64,0,0,0,.33.62c.28.34.59.64,1.13,1.2a9.14,9.14,0,0,0-6.24,1.2l-.47-.75a1.9,1.9,0,0,1,1.6-1.26c1.75-.33,1.7-1.18.88-2.39s-1.07-2.21.92-2.25c.5,0,.48-.14.31-.53-.64-1.4.39-1.43,1.24-1.32a9.09,9.09,0,0,1,4.4,1.36c.49.36,1,.72,1.53.18a.81.81,0,0,1,.34-.08c.89-.48,1.43-1.83,2.8-1.13Z" transform="translate(-260.22 -233.8)"/><path class="au" d="M308.75,240.67a8.16,8.16,0,0,1,4.72-1.23,17.76,17.76,0,0,1,2.55.26,5.59,5.59,0,0,1,1.51,1,12.12,12.12,0,0,1-1.33,1.06c-.56.34-1.21.72-1.27-.49a4.42,4.42,0,0,0-.52-1.27c-.05,1,.23,2.09-.2,2.62a19.24,19.24,0,0,1-3.79,3.53,1.52,1.52,0,0,1-2.4-1.39,29.27,29.27,0,0,1,.73-4.11Z" transform="translate(-260.22 -233.8)"/><path class="cr" d="M329.31,239.53c-.13.84-.06,1.8-1.27.57s-3.23-1.43-5-1.72c-.81-.13-1.1.1-.48.88s.27,1-.64,1c-1.45,0-1.45.09-.81,1.43l.34.69c.83,1.64.82,1.61-1,2.29-.71.28-1.37.69-2.06,1l-2-.63a5.63,5.63,0,0,1,3.8-1.28c1.19,0,1.13-.46.59-1.26a11.08,11.08,0,0,0-5.37-4.07,18.6,18.6,0,0,1,8.76-1.21,38.06,38.06,0,0,1,3.78.83A1.55,1.55,0,0,1,329.31,239.53Z" transform="translate(-260.22 -233.8)"/><path class="cs" d="M308.75,240.67c-.9.34-1.46.87-1.22,2a4.6,4.6,0,0,1,0,1.33c-.09,1.28,0,2.42,1.54,2.87.24.07.42.32.63.48-.26.24-.51.67-.79.69-1.26.09-2.55.2-3.61-.75a9.83,9.83,0,0,1,5.95-10.1c1.46-.61,2.88-.73,4.15.44a32.9,32.9,0,0,0-3.68,1.19,23.43,23.43,0,0,0-2.92,1.89Z" transform="translate(-260.22 -233.8)"/><path class="ct" d="M315.35,237.59a5.76,5.76,0,0,0-5.92,1.09,10.08,10.08,0,0,0-3.79,6.71c-.1.62-.26,1.24-.39,1.86-.23-.69-.73-1.41-.65-2.07a11.45,11.45,0,0,1,5.75-8.63,3.9,3.9,0,0,1,4.81.26C315.32,237,315.29,237.33,315.35,237.59Z" transform="translate(-260.22 -233.8)"/><path class="cu" d="M332.45,238.32c-.65.34-1.3.7-2,1a2.71,2.71,0,0,1-.82.12l.37-2.66c0-1.71.69-.69,1.22-.34Z" transform="translate(-260.22 -233.8)"/><path class="cv" d="M330.77,307.05h2.16a1.7,1.7,0,0,1,.39,0c.24.05.48.13.71.19a1.86,1.86,0,0,1-.51.25c-1,.2-2,.27-3,.56a5.38,5.38,0,0,0-4,3.86,4.43,4.43,0,0,1-.69,1.09,1.72,1.72,0,0,1-.17-2.56A7.42,7.42,0,0,1,330.77,307.05Z" transform="translate(-260.22 -233.8)"/><path class="cw" d="M342.87,247.61c-3.68-.23-4.69-3.49-6.56-5.78l-.33-2.36c.63-2.87,2.68-4.13,5.55-3.31a11.08,11.08,0,0,1,6.81,5.3,15.23,15.23,0,0,1,.36,2.82,1.82,1.82,0,0,1-.94,1.3c-1.34.54-2.76.88-4.12,1.35C343.34,247,343.12,247.37,342.87,247.61Z" transform="translate(-260.22 -233.8)"/><path class="cx" d="M348.34,241.46c-.65-.6-1.26-1.26-2-1.8a23.42,23.42,0,0,0-3.58-2.49c-3.25-1.62-5.24-.88-6.82,2.3-.4-3.55.64-4.71,4.21-4.67A8.78,8.78,0,0,1,348.34,241.46Z" transform="translate(-260.22 -233.8)"/><path class="cy" d="M301.76,337.41c0-1.94,0-3.89,0-5.83,0-.81.24-1.1,1.1-1.15,3.6-.2,3.59-.23,3.67,3.31,0,.9.16,1.8.19,2.71s.29.78.9.38c4.22-2.81,9.29.86,9.77,5.13s-1.17,7.44-4.54,8.66a5,5,0,0,1-5.27-.83,2.14,2.14,0,0,0-.7-.24c-.1.48,0,1.09-.78,1.07-1.16,0-2.33,0-3.48-.13-.22,0-.48-.81-.48-1.25,0-3.95,0-7.89,0-11.83Z" transform="translate(-260.22 -233.8)"/><path class="cy" d="M386.86,344.77c.09,3.55-1.06,6-3.9,7.42-2.17,1.1-4.33,1.25-6.29-.51-.34-.3-.52-.66-.93.08s-4.06.56-4.53,0a1.73,1.73,0,0,1-.21-1.07c.35-5.8.75-11.59,1.06-17.39.06-1.15.5-1.35,1.53-1.32,3.34.08,3.34,0,3.16,3.35a6.52,6.52,0,0,0,0,.77c0,.9,0,1.8.06,2.7.79-.24,1.57-.5,2.37-.7,3.38-.88,7.14,1.87,7.64,5.58A8.82,8.82,0,0,1,386.86,344.77Z" transform="translate(-260.22 -233.8)"/><path class="cy" d="M275.75,335.84c0-.58-.05-1.16-.08-1.75-.08-1.63-.08-1.63,1.62-1.71,3-.15,3-.15,3.16,2.84.31,4.83.7,9.65,1,14.47a7.26,7.26,0,0,1,0,1.74,1,1,0,0,1-.66.72c-1,.18-2,.26-3.06.36-.19,0-.51,0-.56-.06-.74-1.42-1.35-.42-2.06.05a5.8,5.8,0,0,1-7-.77,8.31,8.31,0,0,1-.3-11.78,5.8,5.8,0,0,1,6.6-1.25c1.32.53,1.32.52,1.31-.93,0-.64,0-1.29,0-1.93Z" transform="translate(-260.22 -233.8)"/><path class="cy" d="M332.84,350.31c-.7-.34-1.91.59-2.38-.82a.53.53,0,0,0-.43,0c-1.85,1.63-3.91,1.58-6,.65a7.08,7.08,0,0,1-3.87-5.05,7.58,7.58,0,0,1,3.61-8.65,5.34,5.34,0,0,1,6.18.23,5.64,5.64,0,0,0,.81.42c0-.32.09-.63.1-.95,0-1.55,0-3.1.08-4.66,0-.4.25-1.15.39-1.15a39.42,39.42,0,0,1,4.21.2c.12,0,.28.56.27.86-.1,5.95-.23,11.9-.32,17.85,0,.87-.41,1.14-1.2,1.08C333.86,350.28,333.4,350.31,332.84,350.31Z" transform="translate(-260.22 -233.8)"/><path class="cy" d="M299,348.88c0,2.45.63,2.07-2.81,2.13-.71,0-1.8.59-1.92-.85-.2.07-.45.08-.59.21-3,3-8.35,1.22-9.91-2.92-1.49-4-.43-7.84,2.86-9.9a5.37,5.37,0,0,1,5.85-.21c.48.28.83.78,1.26-.22.17-.38,1.35-.41,2.07-.45,2.62-.11,2.63-.09,2.75,2.53C298.74,342.17,298.87,345.14,299,348.88Z" transform="translate(-260.22 -233.8)"/><path class="cy" d="M344.93,351c-4,.27-7.3-2.94-7.3-7.53,0-4.1,2.72-7.57,8-7.6a7.57,7.57,0,1,1-.66,15.13Z" transform="translate(-260.22 -233.8)"/><path class="cy" d="M354.47,344.19c0-4.39,3.21-7.48,7.82-7.52a7.41,7.41,0,0,1,7.41,7.53c0,4.39-3.37,7.6-8,7.58C357.44,351.77,354.47,348.66,354.47,344.19Z" transform="translate(-260.22 -233.8)"/><path class="cz" d="M340.6,367.72c.93-.18,1.49.21,1.54,1.15s.27,2.22-1.2,2.58C339.52,370,339.47,369.53,340.6,367.72Z" transform="translate(-260.22 -233.8)"/><path class="da" d="M336.14,371.22l-.28,0-1.12.07a4.11,4.11,0,0,1,0-3.59l1.11,0,.33,0Z" transform="translate(-260.22 -233.8)"/><path class="db" d="M340.6,367.72a3.43,3.43,0,0,0,.34,3.73c-1.17.09-1.32-.84-1.42-1.61S339.45,368,340.6,367.72Z" transform="translate(-260.22 -233.8)"/><path class="ap" d="M334.76,367.74l0,3.59C333.79,370,333.8,368.52,334.76,367.74Z" transform="translate(-260.22 -233.8)"/><path class="dc" d="M315,267l.72.34c5.1,1.66,10,.62,15-.85.3-.09.61-.16.92-.24s.51.09.53.42c-1.07,1.41-2.73,1.8-4.28,2.3a23.38,23.38,0,0,1-5.26.92c-.53,0-1.28-.11-1.05.87.15.33.32.66.46,1,.26.94,1.06.9,1.8,1s1.43-.16,1.69.76c-1.42,1.18-3,.62-4.6.51-.7-.18-.5-.73-.54-1.23a3.39,3.39,0,0,0-2.88-3.32c-1,.59-.25,1.34-.19,2s.8,1.35.29,2.15h-.3c-.37-.65-1-1.27-1-1.93C316.12,270.1,316.1,268.44,315,267Z" transform="translate(-260.22 -233.8)"/><path class="dd" d="M332,266.75l-.43-.47c.57-.55,1-1.34,2-1.15l-.38.72c.41,1.42,1,2.86-.47,4.07-.93.18-.83-.55-.94-1.08A5.69,5.69,0,0,1,332,266.75Z" transform="translate(-260.22 -233.8)"/><path class="de" d="M330.42,261.72a2.41,2.41,0,0,1-2-2,2,2,0,0,1,.5-.58c-.23.06-.44.27-.71.13l-.52-1.53,0-2.73c1.12-1.87,3.13-1,4.71-1.5a10,10,0,0,1,2.68,0C335.29,255.21,331.94,261,330.42,261.72Z" transform="translate(-260.22 -233.8)"/><path class="df" d="M330.42,261.72c.78-1.21,1.6-2.41,2.31-3.66.85-1.48,1.6-3,2.39-4.52,1.8.27,2.15.74,1.77,2.31a8.93,8.93,0,0,1-4.84,5.82l-1.19.42Z" transform="translate(-260.22 -233.8)"/><path class="dg" d="M314.94,253.54h1.5c.72,3-.66,5.26-2.6,7.32-.25.27-.55.51-.83.76l-2.34-.06C311.29,258.46,313.16,256,314.94,253.54Z" transform="translate(-260.22 -233.8)"/><path class="dh" d="M332.36,270a3.13,3.13,0,0,0,.82-2.93,7.75,7.75,0,0,1,0-1.18c2.35,2.12,2,6.38-.65,8.41a11.43,11.43,0,0,1-6.71,2.17c-1.16,0-2.32,0-3.48-.06-1.73-.66-3.69-.9-4.79-2.67-.34-1.46-.69-2.92-1-4.39a4.83,4.83,0,0,1,.58-.21c1.59,1.13,1.68,3.34,3.25,4.48l5-.22A66.8,66.8,0,0,0,332.36,270Z" transform="translate(-260.22 -233.8)"/><path class="di" d="M314.94,253.54c-.59,1.18-1.16,2.37-1.78,3.53-.81,1.51-1.66,3-2.49,4.49a7.43,7.43,0,0,1-2.73-4.56c-.4-2,0-2.69,2-3.09l1.63-.37Z" transform="translate(-260.22 -233.8)"/><path class="dj" d="M328.22,259.3l1.65-1.35.28.31-1.72,1.49Z" transform="translate(-260.22 -233.8)"/><path class="dk" d="M333.21,291.19l.39-.4.27,1.08.1.42c-1.31-.52-1.9,1.55-3.38.84s-3.15-1-4.71-1.61c-.32-.11-.55-.48-.82-.74,1.45.66,3.3,0,4.57,1.4.09.1.82-.39,1.25-.61a.81.81,0,0,1,.64-.24,6.92,6.92,0,0,0,1.11.17A.92.92,0,0,0,333.21,291.19Z" transform="translate(-260.22 -233.8)"/><path class="dl" d="M321.63,289.26l-.06-.59c-.64-.7-1.3-1.39-1.91-2.12-.13-.15-.08-.44-.12-.67.22.08.5.11.64.26,1.37,1.4,2.72,2.83,4.07,4.26Z" transform="translate(-260.22 -233.8)"/><path class="dm" d="M331.71,291.57h-.83l-.51-.13a1.32,1.32,0,0,1,.29-.24c.34-.14.68-.26,1-.39.16.16.4.23.47.48S332,291.72,331.71,291.57Z" transform="translate(-260.22 -233.8)"/><path class="dn" d="M331.71,291.57l.34-.4c-.1-.07-.14-.15-.1-.22s.06-.11.09-.11l.79.34c-.05.25.22.52,0,.77Z" transform="translate(-260.22 -233.8)"/><path class="do" d="M332.79,292l0-.77h.38Z" transform="translate(-260.22 -233.8)"/><path class="dp" d="M332,290.84c0,.11,0,.22,0,.33l-.36-.36Z" transform="translate(-260.22 -233.8)"/><path class="au" d="M343.31,245.41a2.26,2.26,0,0,1-3.25-.76,16.78,16.78,0,0,0-2.14-2.07,1,1,0,0,0,.12-.36c0-1.32-1-3,.84-3.74a4.61,4.61,0,0,1,5.63,1.77,4.73,4.73,0,0,1,1,2.87C345.61,244.68,344.27,244.86,343.31,245.41Z" transform="translate(-260.22 -233.8)"/><path class="dq" d="M345.25,243.39c-.22-3.57-2.66-5.41-6.19-4.61-.33.07-.68.64-.77,1a25.42,25.42,0,0,0-.37,2.76c0-.12-.06-.25-.1-.37-.89-3-.26-4,2.77-4.27,2.79-.26,5.39,2.53,5.11,5.47C345.54,243.61,345.39,243.6,345.25,243.39Z" transform="translate(-260.22 -233.8)"/><path class="dr" d="M345.25,243.39l.45,0c0,1.59-1.06,2-2.39,2Z" transform="translate(-260.22 -233.8)"/><path class="ds" d="M309.79,346.45a2.88,2.88,0,0,1-3.07-3.15,3.16,3.16,0,0,1,3.4-3.14,3.39,3.39,0,0,1,3.2,3.23A3.29,3.29,0,0,1,309.79,346.45Z" transform="translate(-260.22 -233.8)"/><path class="ds" d="M382.63,345.38a3.23,3.23,0,0,1-3.21,3.21,3.5,3.5,0,0,1-3.41-3.32,3.4,3.4,0,0,1,3.4-3.08A3.2,3.2,0,0,1,382.63,345.38Z" transform="translate(-260.22 -233.8)"/><path class="dt" d="M273.19,342.49a3.42,3.42,0,0,1,3.31,3.37,3.32,3.32,0,0,1-3.69,2.92,3,3,0,0,1-2.92-3.22A3.16,3.16,0,0,1,273.19,342.49Z" transform="translate(-260.22 -233.8)"/><path class="du" d="M327.28,340.08c2.15,0,3.6,1.23,3.61,3.12a3.23,3.23,0,0,1-3.23,3.15,3.35,3.35,0,0,1-3.39-3.21A3,3,0,0,1,327.28,340.08Z" transform="translate(-260.22 -233.8)"/><path class="dt" d="M294.12,344.1a3,3,0,1,1-6,0,3,3,0,1,1,6,0Z" transform="translate(-260.22 -233.8)"/><path class="ds" d="M348.2,343.5a3.26,3.26,0,0,1-2.79,3.22,3.07,3.07,0,0,1-3-3.18,3,3,0,0,1,2.83-3.29A3.17,3.17,0,0,1,348.2,343.5Z" transform="translate(-260.22 -233.8)"/><path class="dv" d="M363.58,341.63c1.43,1.36,1.77,2.48,1.09,3.91a2.73,2.73,0,0,1-2.45,1.92,2.52,2.52,0,0,1-2.66-1.79C359.25,342.56,360.72,341.07,363.58,341.63Z" transform="translate(-260.22 -233.8)"/><path class="dw" d="M363.58,341.63c-2.7.15-3.77,1.23-4,4-.66-1.84-.48-3.13.71-4S362.46,340.54,363.58,341.63Z" transform="translate(-260.22 -233.8)"/><path class="dx" d="M332.36,270a11.49,11.49,0,0,1-7,3.4c-.75,0-1.51-.1-2.26-.06-1.13.06-1.66-.4-1.58-1.54,1-.82-.51-.41-.38-.8l-.72-1.09a6.45,6.45,0,0,1,1.17-.34c3.66-.23,7.23-.76,10.41-2.78Z" transform="translate(-260.22 -233.8)"/><path class="dy" d="M320.41,273.58c-.53-.36-1.23-.61-1.55-1.11a35.4,35.4,0,0,1-1.7-3.37,3.94,3.94,0,0,1,3.77,3.79C320.93,273.12,320.59,273.35,320.41,273.58Z" transform="translate(-260.22 -233.8)"/><path class="dz" d="M321.18,271l2,.15,0,.37-1.71.28Z" transform="translate(-260.22 -233.8)"/><path class="ea" d="M324.49,274.59c1.47-.3,2.85-.59,4.24-.85a2.42,2.42,0,0,1,.75.07,3,3,0,0,1-.56.67A4.16,4.16,0,0,1,324.49,274.59Z" transform="translate(-260.22 -233.8)"/></svg>