<svg xmlns="http://www.w3.org/2000/svg" viewBox="0 0 132.11 146.02"><defs><style>.a{fill:#fcfdfe;}.b{fill:#1e67a2;}.c{fill:#fff;}.d{fill:#e6dee2;}</style></defs><path class="a" d="M-230.47,361.15a10.05,10.05,0,0,1-2,.46,1.4,1.4,0,0,1-1.53-1.56,1.5,1.5,0,0,1,1.49-1.64,9.57,9.57,0,0,1,1.51,0C-229.67,359.14-229.23,360-230.47,361.15Z" transform="translate(270.44 -231.11)"/><path class="b" d="M-230.47,361.15a1.88,1.88,0,0,0-.52-2.69c1.1-.11,1.39.69,1.6,1.49C-229.27,360.42-229.75,360.87-230.47,361.15Z" transform="translate(270.44 -231.11)"/><path class="c" d="M-179.6,367.3s-.06,0-.08,0C-179.56,367.53-179.38,367.16-179.6,367.3Z" transform="translate(270.44 -231.11)"/><path class="c" d="M-166.39,367.16a18.51,18.51,0,0,1-.39-3.23c-.05-3-.08-3-3-3.34a6.51,6.51,0,0,0-.77,0l-17.23.24c-1.41,0-2.82.1-4.24.08a7.74,7.74,0,0,1-2.69-.33c-.28-.1-.23-1.17-.24-1.8,0-.79-.13-1.28-1.1-1a14.76,14.76,0,0,1-3.71,1c-1.51.08-1.67,1.67-2.82,2l0,5.71c1,0,.91.67.91,1.33,0,4.89,4.1,6.12,7.33,4.93a5.44,5.44,0,0,1,2-.07,31.57,31.57,0,0,0,4.55.13c1.59-.2,1.57-.37,1.59,1.31a4.93,4.93,0,0,1,0,.77c-.18,1.14.41,1.58,1.44,1.87,3.11.89,5.91-.12,7.34-3,.59-1.2,1.13-1.43,2.32-1a12.61,12.61,0,0,0,2.56.44c.69,0,1.08,0,1.46-.08C-167.56,372.6-165.75,370.28-166.39,367.16Zm-.79,1.58c0,1-.07,1-1.17,1.37-1.76,1.62-3.86,1.47-6,1.14-.75-.11-1.29-1.77-.78-2.36.12-.14.54-.05.81,0,.82.08,1.64.21,2.46.25.19,0,.4-.27.6-.41a1.94,1.94,0,0,0-.48-.54,4.54,4.54,0,0,0-1.08-.41,3.18,3.18,0,0,1-2.46-2.42c-.8,2.17-1.59,4.34-2.4,6.51-.28.76-.41,1.69-1.52,1.74-.8,1.49-4,2.52-5.11,1.48-.41-.39-.26-1.4-.3-2.13a3.49,3.49,0,0,1,1-.16,1.58,1.58,0,0,0,1.58-2.35c-.66-1.73-1.46-3.41-2.19-5.12-.16,1.44.28,3-.8,4.25a9.52,9.52,0,0,1-1.72,1.26c-1.4.39-2.79,1.11-4.28.46-1-.44-2-1-3-1.57-.12.61.33,1.53-.87,1.51l-1.13.23a3.18,3.18,0,0,1-4.1-2.92c-.11-.83,0-1.67-.07-2.51a1.61,1.61,0,0,0-.38-1c-1.21-1.13-1.23-1.66,0-2.73.13-.11.32-.28.32-.42,0-2.12,1.92-1.42,3-2,0,0,.58.58.54.85-.19,1.51.58,1.77,1.82,1.56,1.26,0,.73,1,.91,1.59,2.79-2.3,5.12-2.33,8.18-.09l1.12.4a3.64,3.64,0,0,1-.29-1.07c0-.27.27-.76.41-.75,1.11,0,2.22.18,3.32.28.27.18.67.31.78.56.36.84.62,1.73.92,2.6h0c.11-.36.25-.71.34-1.07.7-2.7,1-2.88,4-2.15.71-.39.63.19.7.58a6.77,6.77,0,0,1,6.11-.51c.15-.1.39-.31.42-.28a1.6,1.6,0,0,1-.5,2.55c-.74-.18-1.48-.4-2.24-.51-.22,0-.48.27-.72.42.17.23.29.54.52.65.8.39,1.64.72,2.46,1.07C-167.07,366.77-167.17,367.82-167.18,368.74Z" transform="translate(270.44 -231.11)"/><path class="c" d="M-203.93,360.87c-1.84.07-1.4-1.27-1.4-2.27s-.44-1.07-1.22-.83c-1.36.41-2.74.76-4.08,1.2-.69.22-1.62.22-1.6,1.36,0,.13-.5.45-.69.4-2.34-.61-4.63.42-7,.1a46.3,46.3,0,0,0-7-.06c-.94,0-1.61.08-1.72-1.31-.15-1.87-1.88-2.91-3.81-2.69-2.21.25-3.21,1.4-3.16,3.58,0,1.42,0,2.84,0,4.26h.07c0,1.49,0,3,0,4.46,0,.65.36,1.85-1.09,1a1.47,1.47,0,0,0-.48.69c0,1.55-.07,3.11,0,4.65a1.63,1.63,0,0,0,.64,1.2,5.47,5.47,0,0,0,6.37-1.3c.54-.7.66-1.94,1.31-2.27s1.82.07,2.75.08c2.75,0,5.51-.11,8.26,0,2.13.08,4.14,0,5.85-1.42.44-.36.62-.43,1.06,0,1.7,1.74,3.77,1.71,5.94,1.08a1.45,1.45,0,0,0,1.27-1.61c-.06-3.1,0-6.21,0-9.31A2,2,0,0,0-203.93,360.87ZM-229.73,372c-.05.85,0,2.21-1.45,2.37-.94,1.12-2.29.95-3.53,1-.25,0-.76-.55-.75-.84,0-.59-.53-1.52.51-1.73s1-1,1-1.75c0-2.38,0-4.77,0-7.15,0-1.13.21-1.72,1.48-1.55a13.69,13.69,0,0,0,1.92,0c.29.32.81.64.82,1C-229.65,366.21-229.58,369.11-229.73,372Zm24.36-3.41c.84-.1,1,.43.92,1.08s.36,1.54-.84,1.57l-1.13.22a3.19,3.19,0,0,1-4.09-2.94,14.89,14.89,0,0,1-.05-2.5c.05-.91-.4-1.12-1.17-1h-1a9.93,9.93,0,0,0-1.68-.38c-.29,0-.61.23-.91.36.23.26.41.62.7.78a21,21,0,0,0,1.93.86c1,0,1.25.62,1.22,1.47s.22,1.85-1.08,2a5.1,5.1,0,0,1-4.53,1.32c-.68-.1-1.38-.13-2.07-.2l-.47,0h-.78c-.84,0-1.68.06-2.51,0-.34,0-.63-.41-1-.58-.18-.09-.5-.16-.6-.07a2.73,2.73,0,0,1-3.35.66c-1.35-.68-1.54-2-1.55-3.29s0-2.84,0-4.26c-.05-1,.29-1.41,1.31-1.32a18.92,18.92,0,0,0,2.13,0c.27.12.78.24.78.36,0,1.94-.14,3.88-.22,5.82,1.21.59,1.43-.25,1.48-1.12a27.1,27.1,0,0,0,0-3.49c-.08-1.14.22-1.72,1.48-1.56a14,14,0,0,0,1.94,0c1.46.1.63,1.26.89,1.92h.32a3.91,3.91,0,0,1,3.66-2c.95,0,1.9,0,2.85.07h1a4.43,4.43,0,0,0,1.13-.64c.27-.29.26-1,.54-1.1a9,9,0,0,1,2.41-.61c.15,0,.56.51.54.75-.16,1.45.51,1.85,1.8,1.59a1.41,1.41,0,0,1,0,2.66l-1.07.05c0,1.18,0,2.37,0,3.56Z" transform="translate(270.44 -231.11)"/><path class="c" d="M-194.89,368.58h0a1.8,1.8,0,0,0,.08.21v-.23Z" transform="translate(270.44 -231.11)"/><path class="c" d="M-194.79,364.92l-.05.09h.05Z" transform="translate(270.44 -231.11)"/><path class="c" d="M-178.17,372.22c.94-2.49,1.69-5.05,2.75-7.49a1.36,1.36,0,0,1,.39-1,1.37,1.37,0,0,0-.15-1.11q-2,5.48-4,10.94A2.56,2.56,0,0,0-178.17,372.22Z" transform="translate(270.44 -231.11)"/><path class="c" d="M-175,363.76c0,.06,0,.12-.06.19-.12.25-.22.52-.33.78a1.54,1.54,0,0,0,.16.61l.78-2.11A4.62,4.62,0,0,0-175,363.76Z" transform="translate(270.44 -231.11)"/><path class="c" d="M-184.19,365.31l-.43-1.06C-184.66,364.68-184.63,365.08-184.19,365.31Z" transform="translate(270.44 -231.11)"/><path class="c" d="M-185.74,363.85c1.39,2.66,1.1,4.73-1,7A4.53,4.53,0,0,0-185.74,363.85Z" transform="translate(270.44 -231.11)"/><path class="c" d="M-179.72,367.47l.24-1.6a.77.77,0,0,0-.38,1c-.45-1.37-.5-2.88-1.32-4.13l1.09,4.8Z" transform="translate(270.44 -231.11)"/><path class="c" d="M-168.43,366.62a3.18,3.18,0,0,1,.08,3.49C-167.24,368.73-167.26,367.94-168.43,366.62Z" transform="translate(270.44 -231.11)"/><path class="c" d="M-168.37,362.72c0,.76,0,1.52-.08,2.27A1.58,1.58,0,0,0-168.37,362.72Z" transform="translate(270.44 -231.11)"/><path class="c" d="M-194.44,364.35c0,.15-.07.3-.1.45a.78.78,0,0,1-.12.22h.2l.54-1.09A1.34,1.34,0,0,0-194.44,364.35Z" transform="translate(270.44 -231.11)"/><path class="c" d="M-194.44,364.35a1.89,1.89,0,0,0-.39-2c0,.85,0,1.71,0,2.57A3,3,0,0,1-194.44,364.35Z" transform="translate(270.44 -231.11)"/><path class="c" d="M-194.67,368.56a.68.68,0,0,1,.14.42c0,.12,0,.25.06.38a1.09,1.09,0,0,0,.52.35l-.57-1.17Z" transform="translate(270.44 -231.11)"/><path class="c" d="M-194.47,369.36a2.07,2.07,0,0,1-.33-.56c0,.81,0,1.61,0,2.42C-194.17,370.67-194.34,370-194.47,369.36Z" transform="translate(270.44 -231.11)"/><path class="c" d="M-230.07,371.42q0-3.65,0-7.29c0-.63.11-1.3-.46-1.79.05,2.71.19,5.41.11,8.12a23.35,23.35,0,0,1-.76,3.9A3.44,3.44,0,0,0-230.07,371.42Z" transform="translate(270.44 -231.11)"/><path class="c" d="M-217.2,369.14c.12,0,.26.12.37.09.47-.13.93-.29,1.4-.44-.35-.3-.64-.75-1-.86-1.88-.53-3.14-1.47-2.76-3.68a8.44,8.44,0,0,0-.33,1.1v.84c.19.73,1,1.27,2.78,2.3-1.63-.06-2.51.09-2.79.6,0,.34,0,.67,0,1a7.54,7.54,0,0,0,.47,1.11C-219.43,368.75-219.43,368.75-217.2,369.14Z" transform="translate(270.44 -231.11)"/><path class="c" d="M-219.82,365.37a17.16,17.16,0,0,0-.62-3l.08,8.9a15,15,0,0,0,.43-1.79A12.71,12.71,0,0,1-219.82,365.37Z" transform="translate(270.44 -231.11)"/><path class="c" d="M-219.57,369.09c0-1,0-1.93,0-2.9a1.83,1.83,0,0,1,0-.84c0-.36,0-.73,0-1.09a11.2,11.2,0,0,0-.27,1.11,14.32,14.32,0,0,1-.11,4.08,12.7,12.7,0,0,0,.35,1.8V370.1A1.28,1.28,0,0,1-219.57,369.09Z" transform="translate(270.44 -231.11)"/><path class="c" d="M-225.35,368.53c-.09-1,0-1.93-.07-2.88-.11-1.11.45-2.32-.49-3.3,0,1.47,0,2.95.12,4.43A9.35,9.35,0,0,0-225.35,368.53Z" transform="translate(270.44 -231.11)"/><path class="c" d="M-206.38,365.05c-.93.82-.93,2.21,0,3.56A3.8,3.8,0,0,1-206.38,365.05Z" transform="translate(270.44 -231.11)"/><path class="c" d="M-212.51,370.09c1-1.2,1.23-2.38-.14-3.48A3,3,0,0,1-212.51,370.09Z" transform="translate(270.44 -231.11)"/><path class="c" d="M-212.24,363.2a1.59,1.59,0,0,1,0,.94,2.3,2.3,0,0,0,.51.86v-2.65A2.26,2.26,0,0,0-212.24,363.2Z" transform="translate(270.44 -231.11)"/><path class="c" d="M-212.24,363.2a2.13,2.13,0,0,0-.48-.84l0,2.63a2.51,2.51,0,0,0,.45-.85A1.51,1.51,0,0,1-212.24,363.2Z" transform="translate(270.44 -231.11)"/><path class="c" d="M-205.31,362.34V365A2,2,0,0,0-205.31,362.34Z" transform="translate(270.44 -231.11)"/><path class="c" d="M-205.37,368.58c0,.88.05,1.77.08,2.65A1.88,1.88,0,0,0-205.37,368.58Z" transform="translate(270.44 -231.11)"/><path class="c" d="M-190.06,365a3.42,3.42,0,0,0,.34,3.73c1.47-.36,1.27-1.53,1.2-2.58S-189.13,364.85-190.06,365Z" transform="translate(270.44 -231.11)"/><path class="c" d="M-194.7,365.08a1.06,1.06,0,0,1-.23.19,4.77,4.77,0,0,0,0,3.1.74.74,0,0,1,.21.13c.07-.05.13-.06.21,0l.06-3.51C-194.55,365.13-194.63,365.13-194.7,365.08Z" transform="translate(270.44 -231.11)"/><path class="c" d="M-195.69,368.07c-.08-.11-.15-.23-.22-.35v.92l1-.06c0-.07,0-.14-.05-.21A3.36,3.36,0,0,1-195.69,368.07Z" transform="translate(270.44 -231.11)"/><path class="c" d="M-195.44,365.5a2.15,2.15,0,0,0,.51-.23c0-.07,0-.14.07-.22l0,0-1.06,0h0v.82A2,2,0,0,1-195.44,365.5Z" transform="translate(270.44 -231.11)"/><path class="c" d="M-194.7,365.08l0-.06h-.13A.28.28,0,0,0-194.7,365.08Z" transform="translate(270.44 -231.11)"/><path class="c" d="M-194.73,368.5s-.05,0-.07.07h.13Z" transform="translate(270.44 -231.11)"/><path class="c" d="M-190.06,365c-1.15.31-1.19,1.25-1.08,2.13s.25,1.7,1.42,1.6C-191.14,367.34-191.19,366.85-190.06,365Z" transform="translate(270.44 -231.11)"/><path class="c" d="M-195.9,365.05h0c-1,.78-1,2.22,0,3.59A4.08,4.08,0,0,1-195.9,365.05Z" transform="translate(270.44 -231.11)"/><path class="c" d="M-195.91,367.72c0-.62,0-1.23,0-1.85C-196.45,366.43-196.29,367.07-195.91,367.72Z" transform="translate(270.44 -231.11)"/><path class="d" d="M-144.7,331.46c-1.17-.65-3-.81-3.52-1.75s0-2.62.08-4c.09-.94-.28-1.22-1.18-1.28q-6.47-.44-12.94-1c-1-.09-1.25.41-1.3,1.21-.06,1.1-.12,2.2-.13,3.3,0,.91-.08,1.45-1.31,1.12a13.32,13.32,0,0,0-10.58,1.62,1.24,1.24,0,0,1-1.69-.14,12,12,0,0,0-5.58-2.53,12.42,12.42,0,0,0-5.53.31c-.94.25-1.32,0-1.25-1,.1-1.29,0-2.59.15-3.88.08-.79,0-1.21-1-1.21q-6.69,0-13.39,0c-.73,0-1.05.24-1,1,0,1.1,0,2.2,0,3.3,0,.77-.35,1-1.09,1.28a38.53,38.53,0,0,0-5.22,2.41,1.43,1.43,0,0,1-1.67,0,33.89,33.89,0,0,0-4.92-2.11c-.77-.25-1.07-.51-1-1.28,0-1.1-.06-2.2,0-3.3,0-.9-.38-1.25-1.29-1.23-2.14,0-4.27,0-6.4,0v0c-1.3,0-2.59,0-3.88,0s-3-.33-3.51.3c-.65.78-.28,2.42-.35,3.69,0,.13,0,.26,0,.39,0,1.81,0,1.82-1.72,2a8.66,8.66,0,0,1-1.35.07c-1.48-.07-3-.26-4.44-.23a21.63,21.63,0,0,0-3.17.46c-.09-1.16-.17-2.31-.26-3.46,0-.07,0-.13,0-.2.08-1.23-.4-1.72-1.71-1.59-3.22.31-6.44.49-9.66.75-1.33.1-3.22-.19-3.84.55s-.16,2.59,0,3.92c.12,1-.17,1.36-1.09,1.63-7.55,2.17-9.89,9.69-8.49,15.49a12.2,12.2,0,0,0,13.71,9.56c2-.27,3.94-.66,5.93-.79a80.93,80.93,0,0,1,10-.5c2.53.15,5.1-.7,7.67-.84,3.78-.19,7.59-.25,11.38-.15,2.78.08,5.43-.1,7.75-1.81a3.08,3.08,0,0,1,3.76,0,10.34,10.34,0,0,0,8.35,1.42A5.61,5.61,0,0,1-200,353c2.46,0,4.91,0,7.37,0a14.8,14.8,0,0,1,3.47.18,13.2,13.2,0,0,0,10.44-1.38,1.85,1.85,0,0,1,2.24.21,25.47,25.47,0,0,0,4.16,2c2.19.84,4.47.17,6.69.25,4.37.15,8.73.78,13.09,1.21a14.76,14.76,0,0,0,2.88.21c5.61-.53,9.87-4.65,11.06-10.6A12.82,12.82,0,0,0-144.7,331.46Zm-4,21.92a15.61,15.61,0,0,1-3,0c-2.55-.22-5.09-.46-7.62-.79a7.55,7.55,0,0,1-1.59-.45,4,4,0,0,1-.86-.31l-.81-.76c-2.67,1.57-5.56,1.55-8.48,1.09-.42-.07-.78-.56-1.16-.85l-4.53-3a13.84,13.84,0,0,1-6.93,3.36c-1.95.32-3.6-.28-5.36-.71a.34.34,0,0,1,0-.17c0-.05.09-.09.13-.13L-192,349c-.12,2-.12,2-2.17,2.05-2.86.08-5.71.33-8.57.33a19.62,19.62,0,0,1-3.66-.68l-5-3.67c-2.19,3.62-5.51,4.77-9.54,4.37-.22,0-.42-.24-.63-.36-4.91.26-9.82.5-14.72.79a8.31,8.31,0,0,0-2.43.47c-1.38.51-2.58,0-3.81-.46h0l-3.1-1.51a5,5,0,0,1,0,1.34c-.11.35-.42.81-.72.88-1.06.22-2.15.3-3.23.43-2,.24-4,.52-6.09.7-1.25.11-2.51.05-3.77.06l.31-.44a10.85,10.85,0,0,1-5.84-3.13,10.59,10.59,0,0,1-2.1-11c1.31-3.92,4.25-5.87,8.22-6.31,1.06-.11,1.31-.47,1.2-1.4s-.17-2.06-.28-3.08c-.07-.73.18-1,.94-1.09,2.64-.19,5.27-.45,7.9-.67.56-.05,1.22-.19,1.24.73.24.24.64.46.67.73.21,1.75.33,3.52.49,5.28a10.34,10.34,0,0,1,8.16-1.91c2,.34,4.1-.17,6.15-.27.73,0,.81-.46.8-1,0-1.29,0-2.58,0-3.86,0-.81.23-1.16,1.09-1.16,2.64,0,5.27-.06,7.91,0,.38,0,.76.45,1.14.69s.68.69.71,1.06c.09,1.18,0,2.37,0,3.55,4.13.27,5.9,1.19,8.79,4.6a9.22,9.22,0,0,1,5.15-4.18,9.31,9.31,0,0,1,3-.42c1.2.08,1.43-.39,1.41-1.42s.14-2.06.16-3.1c0-.64.27-.92.93-.92q4.07,0,8.15,0c.79,0,.92.31.88,1.07-.11,2-.09,4-.15,6,0,.83.09,1.07.92.51a10.75,10.75,0,0,1,8.45-1.76,9,9,0,0,1,5.65,3.43c.51.67.73.79,1.41.17,4-3.67,8.7-4.09,13.32-1.3,1.24.76,1.23.75,1.32-.75.11-1.68.27-3.35.34-5,0-.86.31-1.06,1.18-1q3.86.41,7.73.6c.95.05,1.24.38,1.12,1.3-.14,1.08-.19,2.18-.28,3.28,0,.58,0,.92.81,1,4.95.29,7.83,3.12,9.21,7.71.26.37.68.71.74,1.11C-139.55,347.13-143,352.82-148.69,353.38Z" transform="translate(270.44 -231.11)"/><path class="d" d="M-157.38,352.3c2.5.28,5,1.13,7.43.94,7.69-.59,10.42-7.85,8.74-13,0,1.22.14,2.45,0,3.67a9.58,9.58,0,0,1-11.6,8.8c-2.9-.67-6-.6-9-.86.29.09.57.2.86.31A29.31,29.31,0,0,0-157.38,352.3Z" transform="translate(270.44 -231.11)"/><path class="d" d="M-239.24,352.07c5.7-1.36,11.53-.89,17.31-1.24.13,0,.27,0,.41.06v-.17a4.75,4.75,0,0,0-1.13-.27c-3.55.12-7.1.2-10.65.45-3.07.22-6.12.63-9.18,1h0A8.27,8.27,0,0,0-239.24,352.07Z" transform="translate(270.44 -231.11)"/><path class="d" d="M-246.35,350.56c.14,1.15-.45,1.39-1.38,1.49-3.8.4-7.6.84-11.4,1.26.65.48,1.33.24,2,.14a45.62,45.62,0,0,1,8.41-.87,2.9,2.9,0,0,0,3.12-2.24C-245.94,350.09-246.46,349.63-246.35,350.56Z" transform="translate(270.44 -231.11)"/><path class="d" d="M-194.8,350.3c-3.85.12-7.71.27-11.56.41,3.79.59,7.57-.42,11.36,0,1.43.14,2.51-.23,3-1.66l-.61-.13C-192.5,350.64-193.75,350.27-194.8,350.3Z" transform="translate(270.44 -231.11)"/><path class="d" d="M-212.32,346.8c-2.26,3.22-5.43,4.28-9.2,3.92a.2.2,0,0,1,.08.19,9.11,9.11,0,0,0,8.78-2.87c.38-.41.6-1,1.31-1C-211.53,346.38-211.81,346.07-212.32,346.8Z" transform="translate(270.44 -231.11)"/><path class="d" d="M-221.44,350.91l-.08,0v.16s.05,0,.08-.11S-221.44,350.92-221.44,350.91Z" transform="translate(270.44 -231.11)"/><path class="d" d="M-177.94,347.91a11.36,11.36,0,0,1-10.93,2.7h0c3.84,1.62,7.26.5,10.51-1.64.5-.33.83-1.09,1.64-.71C-177,347.62-177.23,347.25-177.94,347.91Z" transform="translate(270.44 -231.11)"/><path class="d" d="M-163.19,350.25a12.07,12.07,0,0,1-9,1,9.58,9.58,0,0,0,5.09.68c1.59-.11,2.91-1.27,4.55-.92C-162.61,350.65-162.08,349.63-163.19,350.25Z" transform="translate(270.44 -231.11)"/><path class="d" d="M-246.69,333.36c-.54-.23-.39-.72-.47-1.15-.28-1.61-.14-3.29-.69-4.86.11,2,.16,4,.35,6C-247.4,334.34-247,333.56-246.69,333.36Z" transform="translate(270.44 -231.11)"/><path class="d" d="M-221.48,329.73c0,.24.48.45.73.67-.56-.58-.32-1.32-.39-2-.08-.88.23-1.81-.35-2.61C-221.5,327.11-221.54,328.42-221.48,329.73Z" transform="translate(270.44 -231.11)"/><path class="d" d="M-223,334.14c-.61.41-.87.47-.9-.38s-.17-1.8-.19-2.7c-.08-3.55-.07-3.52-3.67-3.31-.86.05-1.11.33-1.1,1.15,0,1.94,0,3.88,0,5.82h.34c0,3.94,0,7.89,0,11.83,0,.44.26,1.23.48,1.26,1.15.14,2.32.08,3.48.12.82,0,.68-.59.78-1.07a2.41,2.41,0,0,1,.7.24,5.07,5.07,0,0,0,5.27.84c3.37-1.23,5-4.54,4.54-8.67S-218.83,331.33-223,334.14Zm2.18,9.62a2.88,2.88,0,0,1-3.07-3.15,3.17,3.17,0,0,1,3.4-3.14,3.39,3.39,0,0,1,3.2,3.23A3.28,3.28,0,0,1-220.87,343.76Z" transform="translate(270.44 -231.11)"/><path class="d" d="M-147.7,349.51c2.84-1.44,4-3.88,3.9-7.42a8.82,8.82,0,0,0-.07-1.11c-.5-3.72-4.26-6.46-7.64-5.59-.8.2-1.58.47-2.37.7,0-.9-.05-1.8-.06-2.7a6.69,6.69,0,0,1,0-.77c.18-3.3.18-3.26-3.16-3.35-1,0-1.47.18-1.53,1.33-.31,5.79-.71,11.59-1.06,17.38a1.71,1.71,0,0,0,.21,1.07c.47.58,4.16.68,4.53,0s.59-.38.93-.08C-152,350.75-149.87,350.6-147.7,349.51Zm-7-6.92a3.41,3.41,0,0,1,3.4-3.09,3.21,3.21,0,0,1,3.22,3.2,3.23,3.23,0,0,1-3.21,3.2A3.49,3.49,0,0,1-154.65,342.59Z" transform="translate(270.44 -231.11)"/><path class="d" d="M-250.21,332.54c-.18-3-.13-3-3.16-2.85-1.7.09-1.7.09-1.62,1.72,0,.58.05,1.16.08,1.74h0c0,.65,0,1.29,0,1.94,0,1.44,0,1.45-1.31.93a5.8,5.8,0,0,0-6.6,1.24,8.31,8.31,0,0,0,.3,11.78,5.79,5.79,0,0,0,7,.77c.71-.47,1.32-1.47,2.06,0,0,.09.37.07.56.05,1-.1,2.05-.17,3.06-.36a1,1,0,0,0,.66-.72,7.16,7.16,0,0,0,0-1.73C-249.51,342.18-249.9,337.36-250.21,332.54Zm-7.64,13.55a3,3,0,0,1-2.92-3.22,3.16,3.16,0,0,1,3.3-3.07,3.42,3.42,0,0,1,3.31,3.37A3.32,3.32,0,0,1-257.85,346.09Z" transform="translate(270.44 -231.11)"/><path class="d" d="M-199.31,327.64c-.14,0-.38.75-.39,1.16-.07,1.55-.05,3.1-.08,4.66,0,.31-.07.62-.1.94a5.64,5.64,0,0,1-.81-.42,5.32,5.32,0,0,0-6.18-.22,7.56,7.56,0,0,0-3.61,8.64,7.06,7.06,0,0,0,3.87,5.05,5.17,5.17,0,0,0,6-.64.54.54,0,0,1,.43,0c.47,1.41,1.68.48,2.38.82.56,0,1,0,1.47,0,.79.06,1.18-.21,1.2-1.07.09-6,.22-11.91.32-17.86,0-.29-.15-.84-.27-.85A37,37,0,0,0-199.31,327.64Zm-3.69,16a3.33,3.33,0,0,1-3.39-3.21,3,3,0,0,1,3-3.06c2.15,0,3.6,1.23,3.61,3.13A3.21,3.21,0,0,1-203,343.66Z" transform="translate(270.44 -231.11)"/><path class="d" d="M-232.06,336.52c-.12-2.63-.13-2.65-2.75-2.53-.72,0-1.9.06-2.07.45-.43,1-.78.49-1.26.22a5.35,5.35,0,0,0-5.85.21c-3.29,2.05-4.35,5.93-2.86,9.89,1.56,4.14,6.88,5.93,9.91,2.93.14-.14.39-.14.59-.21.12,1.43,1.21.86,1.92.84,3.44-.06,2.79.32,2.81-2.12C-231.79,342.45-231.92,339.48-232.06,336.52Zm-7.45,8.22a3.06,3.06,0,0,1-3-3.3,3,3,0,0,1,2.87-3.21,3,3,0,0,1,3.11,3.18A3.08,3.08,0,0,1-239.51,344.74Z" transform="translate(270.44 -231.11)"/><path class="d" d="M-185.07,333.21c-5.24,0-8,3.51-8,7.61,0,4.58,3.34,7.8,7.3,7.53a7.38,7.38,0,0,0,8-7.54A7.31,7.31,0,0,0-185.07,333.21Zm-.18,10.83a3.07,3.07,0,0,1-3-3.18,3,3,0,0,1,2.83-3.3,3.18,3.18,0,0,1,2.93,3.26A3.27,3.27,0,0,1-185.25,344Z" transform="translate(270.44 -231.11)"/><path class="d" d="M-168.37,334c-4.61,0-7.82,3.12-7.82,7.51s3,7.58,7.23,7.6c4.63,0,8-3.19,8-7.59A7.39,7.39,0,0,0-168.37,334Zm2.38,8.87a2.76,2.76,0,0,1-2.45,1.92,2.54,2.54,0,0,1-2.66-1.8c-.66-1.83-.48-3.13.71-4s2.19-1.15,3.31-.06C-165.64,340.31-165.31,341.42-166,342.86Z" transform="translate(270.44 -231.11)"/><path class="d" d="M-167.08,338.94c-2.86-.55-4.33.93-4,4C-170.85,340.17-169.78,339.1-167.08,338.94Z" transform="translate(270.44 -231.11)"/><path class="c" d="M-223.38,258.54a8,8,0,0,0,6.08,2.39,6.18,6.18,0,0,1,1.6.37h.34l.81-.44,4.3-1.59,1.07-1.44c.18-.53.36-1.06.55-1.59-.18-.72-.08-1.32.7-1.62-.63-1-.52-1.55.79-1.5h.39c.45,0,.4,0,.74.66.12.21.52.27.79.4l0,.18c.28,1,.55,2,.83,3.06l1.47,2.28a9,9,0,0,0,5.33,1.68,1,1,0,0,1,.47.24l.85.44.94-.46a1.91,1.91,0,0,1,.59-.28,5.9,5.9,0,0,0,6.06-4c1.1-2.78,1.52-2.88,4-1.06l1.54.41.78.39,1.12.3,1.93.34c-.11-.8-.23-1.6-.34-2.39a.29.29,0,0,0-.11-.16L-183,252l-1.23-1.05c-.37,0-.81.21-1.09.07a23.76,23.76,0,0,0-16.25-2,35.94,35.94,0,0,1-6.56,1.16,2.8,2.8,0,0,1-1.27-.15c-3.42-1.65-7-1.31-10.57-.82-.25,0-.51,0-.77,0l-1.85.4-1.13,0c-.64.26-1.29.49-1.91.79-.32.16-.83.43-.83.65,0,1.4-.31,2.92,1,4l.58.11C-224.38,256.29-223.88,257.42-223.38,258.54Zm38.57-6c.05-.12.62-.17.82-.05a5.56,5.56,0,0,1,1,.93l.69.48c.34.25.82.43,1,.78.35.6,1.66.6,1.13,1.58-.09.18-1.37-.29-2.1-.46l-.82-.73a6.64,6.64,0,0,1-1.11-.25c-.38-.16-1-.41-1-.64A3.78,3.78,0,0,1-184.81,252.59Zm-3.61-1.48h.18V254h-.18Zm-37.34.81c.3-.33.54-.88.89-1,1.72-.4,3.48-.67,5.22-1,.31-.11.6-.18.77,0l1.27,0c.06-.09.17-.12.39,0,1.06-.08,2.11-.2,3.16-.22a7.64,7.64,0,0,1,1.56.23l1.4.37,2.74.81,2-.37,3.06-.26a1.49,1.49,0,0,1,2.31-.53l0-.48,1.54-.27a10.61,10.61,0,0,0,3.81,0,15.41,15.41,0,0,1,2,0c.24,0,.43.43.64.66,4,.08,4.05.09,3.92,4.05a14.35,14.35,0,0,1-.94,3.49l-.51-.12c-.59,1-1.06,2.08-2.37,2.35-1,.12-2,.32-3,.36-1.34.06-2.68,0-4,0a4.24,4.24,0,0,1-3.54-3.25,2,2,0,0,0-.37-.63,7,7,0,0,1-.72-2.24c.06-1.25-.43-1.8-1.58-1.8a12.77,12.77,0,0,0-2.76.32c-.21.05-.27.76-.37,1.17-.14.59-.24,1.19-.37,1.79a.17.17,0,0,1,0,.08,4,4,0,0,1-4.26,3.82c-1.53,1.18-3.26.74-4.95.61-.55,0-1.11-.16-1.66-.24l-.4-.37a3.13,3.13,0,0,1-2.34-3.14l-1.16-1.91C-225.69,254.11-225.86,253.1-225.76,251.92Z" transform="translate(270.44 -231.11)"/><path class="c" d="M-203.29,250.64h.06l-.05,0Z" transform="translate(270.44 -231.11)"/><path class="c" d="M-215.73,250.23l.86,0Z" transform="translate(270.44 -231.11)"/><path class="c" d="M-219.1,250.86l0,0v0Z" transform="translate(270.44 -231.11)"/><path class="c" d="M-182.3,257.26v1a3.37,3.37,0,0,1,0,3.31c-.19,4.37-2.53,7.42-6,9.73a26.72,26.72,0,0,1-10.66,4,5.89,5.89,0,0,1-.94.12l-2.16.26c-4.91.09-9.76-.31-14.29-2.38a28.53,28.53,0,0,1-3.91-2.64c-3.13-1.82-4.29-4.88-4.67-8.18a42.91,42.91,0,0,1,.05-6.51,3,3,0,0,0-.28-.44,2.07,2.07,0,0,1-.27-.45,17.49,17.49,0,0,0,.78,11.35c2.11,5.15,6.69,7.22,11.62,8.94-2.33,1-3.86,3.34-6.62,2.76-.1,0-.23.11-.34.16-2.08.91-2.86,2.64-3.06,4.78,0,.51-.17,1.37-.45,1.46-1.71.54-.71.77,0,1.18.43.24.7.81,1.14.95a11.83,11.83,0,0,0,2.09.29c.84.13,1.19.54,1,1.47a6.59,6.59,0,0,0,1.83,6.05,7.94,7.94,0,0,0,4.44,2.94c1.41.24,1.45,1.09,1.44,2.14,0,1.2-1,.72-1.55.86-1.83.46-3.6,1-4.91,2.46l.41.41c1.62-1.12,3.26-2.21,5.39-1.93l1.6-.82c-.38-.85-1-1.76.39-2.31,1.57.26,3.15.54,4.72.77,1.14.16,2.29.26,3.43.39l-.44-.76c-.87-.13-1.74-.28-2.61-.39-3.27-.42-6.62-.49-9.57-2.26a7.11,7.11,0,0,1-1-.86c-1.83-1.64-3.09-3.49-2.77-6.14.1-.85.25-1,1.11-.88,1.57.24,3.17.29,4.76.42h0c.72-.25,1.46-.48,2.17-.79.12-.05.11-.43.16-.65a10.05,10.05,0,0,1-8.13-.25c-.06,0,0-.23-.05-.35h0a13.89,13.89,0,0,0-1.58-.61c-2.58-.61-2.75-.84-2.14-3.4a16.1,16.1,0,0,1,.62-1.72c1.62-2.27,2.38-2.46,5.43-1.39,0-.84,0-1.69,1.2-1.72a4,4,0,0,1,4.39-1.35c.84.23,1.71.4,2.56.6,1-.14,2-.3,3-.41q4.63-.46,9.28-.89a2.73,2.73,0,0,1,.89.23l-.73.66v.44l1.15-.13.42-.77c-.27-1.3.86-1.2,1.54-1.46,7.26-2.83,11.63-7.59,10.94-16.18a3.57,3.57,0,0,1,.27-1C-181.55,257.23-181.93,257.39-182.3,257.26Z" transform="translate(270.44 -231.11)"/><path class="c" d="M-222.37,249a13.69,13.69,0,0,1,1.07-2.29,21.75,21.75,0,0,1,8.2-7.53c.56-.3,1.13-.73,1.71,0,.45.56.86,1-.32,1.24a8.22,8.22,0,0,0-5.16,3l0,.07a1.67,1.67,0,0,0,.67,0,6.2,6.2,0,0,1,4.36.38v0c-.14-.24-.29-.47-.44-.7l-2-.64a5.74,5.74,0,0,1,3.8-1.28c1.19,0,1.13-.46.59-1.25a11.16,11.16,0,0,0-5.37-4.08,18.49,18.49,0,0,1,8.77-1.2,38.44,38.44,0,0,1,3.77.82,1.56,1.56,0,0,1,1.36,1.41.67.67,0,0,1,.34-.07l.37-2.67c-.79-.9,0-1.41.5-2-.12-.14-.21-.34-.36-.43-.37-.22-.77-.38-1.16-.57,0,.38,0,.77,0,1.15.07.64.18,1.27.27,1.91s-.12.92-.84.67a18.62,18.62,0,0,0-11-.54,1.76,1.76,0,0,1-1.44-.47,4.37,4.37,0,0,0-5.13-1,12.14,12.14,0,0,0-7.08,9.87,2.87,2.87,0,0,0,2.15,3.06c.83.26,1.69.42,2.53.62-.41.79-.83,1.59-1.23,2.39a8.61,8.61,0,0,0-.34.89,3.85,3.85,0,0,1,1.06-.56Zm-3-4.42c-.23-.69-.73-1.41-.65-2.06a11.41,11.41,0,0,1,5.75-8.63,3.9,3.9,0,0,1,4.81.25c.16.17.13.52.19.78a32.9,32.9,0,0,0-3.68,1.19,23.43,23.43,0,0,0-2.92,1.89h0a8.34,8.34,0,0,1,4.72-1.23,17.76,17.76,0,0,1,2.55.27,5.37,5.37,0,0,1,1.51,1,12,12,0,0,1-1.33,1.05c-.56.34-1.21.72-1.27-.49a4.38,4.38,0,0,0-.52-1.26c-.05,1,.23,2.09-.2,2.61a19.29,19.29,0,0,1-3.79,3.54,1.53,1.53,0,0,1-2.4-1.4,29.53,29.53,0,0,1,.73-4.11h0c-.9.35-1.46.87-1.22,2a4.6,4.6,0,0,1-.05,1.33c-.09,1.29.05,2.43,1.54,2.87a2.39,2.39,0,0,1,.63.49c-.26.24-.51.66-.79.68C-223.06,245.41-224.35,245.51-225.41,244.56Z" transform="translate(270.44 -231.11)"/><path class="c" d="M-196.28,287.73h0c0,.74.46.89,1.05.61,1.26-.6,1.54.36,1.61,1.16a7.8,7.8,0,0,1-1.08,5.15c-1.14,1.75-1,1.64.53,3.22a30.77,30.77,0,0,1,4.75,5.78,7.9,7.9,0,0,1,.75,4.81c-.13.93-1.45,1.9-2.46,2.42a20,20,0,0,1-3.69.95,3.63,3.63,0,0,0-1,.72l.1,0a54.36,54.36,0,0,0,5.55-.73A14.94,14.94,0,0,0-187,310.3a3.1,3.1,0,0,0,.08-3.53c-1-1.95-2-3.93-3-5.89-.21-.11-.53-.17-.63-.35-.62-1.14-1.19-2.31-1.79-3.47l-1.09-1.43c.37-1.07.73-2.14,1.1-3.22a2.84,2.84,0,0,1,0-3.17l-.4-1.92-.3-.32h0l-.12-.09Z" transform="translate(270.44 -231.11)"/><path class="c" d="M-195.75,312.57h-.15c-3.14-.11-6.21-.52-8.94-2.27a1.71,1.71,0,0,1-.17-2.55,7.39,7.39,0,0,1,5.12-3.39c-.63-.35-1.23-.61-.88-1.62.18-.5-.2-1.2-.32-1.81-.52,1.14.11,2.75-1.4,3.49a9.39,9.39,0,0,0-1.56,1.38,5.11,5.11,0,0,1-5.15,2.12c-3-.36-5.94-.57-8.91-.85-1.31-.34-1.4-1.11-.72-2.12.35-.52.73-1,1.09-1.56a.4.4,0,0,1-.3-.55,15.32,15.32,0,0,0-1.6,2.1c-.87,1.6-.53,2.33,1.27,2.78a23.29,23.29,0,0,0,3.62.56c2.44.18,4.89.27,7.33.42.44,0,1.08-.29,1.1.61,0,1.47,1.08,2.11,2.27,2.57a20.39,20.39,0,0,0,13.79.72,18.54,18.54,0,0,0,3.57-2l-.16-.15A10.36,10.36,0,0,1-195.75,312.57Z" transform="translate(270.44 -231.11)"/><path class="c" d="M-198.21,235.63l2.37,2.73,1.49.79-.33-2.36c-.4-3.55.64-4.71,4.21-4.68a8.78,8.78,0,0,1,8.15,6.66,15.33,15.33,0,0,1,.36,2.83,1.82,1.82,0,0,1-.94,1.29c-1.34.55-2.76.88-4.12,1.35-.3.11-.52.45-.77.68q1.65,2.84,3.32,5.67c.64.27.84,1,1.42,1.37a6.49,6.49,0,0,0-.4-1.27c-.92-1.7-1.83-3.41-2.85-5-.57-.9-.31-.94.56-1a12.44,12.44,0,0,0,2.77-.78,2.79,2.79,0,0,0,1.91-3,9.92,9.92,0,0,0-8.23-9.45c-4.25-.77-6.05.81-6.29,5.14,0,.18,0,.35-.06.53-.29-.11-.68-.14-.84-.35-.88-1.1-1.69-2.25-2.53-3.39l-.41.45C-199,234.39-198.61,235-198.21,235.63Z" transform="translate(270.44 -231.11)"/><path class="c" d="M-189.65,300.73a22.35,22.35,0,0,1,3.36,6.46,2.81,2.81,0,0,1-.5,3.22h0a.4.4,0,0,1,.11.19c1.42-.78,1.45-2.06.93-3.29-1.09-2.56-2.34-5.05-3.52-7.57l-.5.81A1.92,1.92,0,0,0-189.65,300.73Z" transform="translate(270.44 -231.11)"/><path class="c" d="M-186.8,310.42a.42.42,0,0,0-.23-.12l.18.16A.1.1,0,0,1-186.8,310.42Z" transform="translate(270.44 -231.11)"/><path class="c" d="M-194.06,276.78l2,.09c3.18,1.48,3.78,3.14,2.38,6.57.11.26.23.51.35.76,2.48-3.36,1.17-6.32-1.58-7.58a13.41,13.41,0,0,0-3-.63A.65.65,0,0,1-194.06,276.78Z" transform="translate(270.44 -231.11)"/><path class="c" d="M-190.14,300c.12-.18.42-.26.86-.25-.68-1.32-1.25-2.76-3.13-2.69C-190.95,297.51-190.73,298.9-190.14,300Z" transform="translate(270.44 -231.11)"/><path class="c" d="M-190.14,300c-.12.19-.08.48.15.88l.21-.32A3.33,3.33,0,0,1-190.14,300Z" transform="translate(270.44 -231.11)"/><path class="c" d="M-189.95,283.7l-2.91,2.85c0,.1,0,.2.06.3,1.91.1,2.58-1.4,3.46-2.65C-189.78,284.23-189.89,284-189.95,283.7Z" transform="translate(270.44 -231.11)"/><path class="c" d="M-192.08,292.42c.07,1.31-.74,2.23-1.42,3.21,1.85-.58,1.67-2.19,1.85-3.62l-.46.25A.9.9,0,0,0-192.08,292.42Z" transform="translate(270.44 -231.11)"/><path class="c" d="M-192.19,291.84a.85.85,0,0,1,.54.17c0-.67,0-1.33,0-2l-.49-.52A7.72,7.72,0,0,0-192.19,291.84Z" transform="translate(270.44 -231.11)"/><path class="c" d="M-192.19,291.84c-.16,0-.24.2-.21.57l.29-.15C-192.14,292.12-192.17,292-192.19,291.84Z" transform="translate(270.44 -231.11)"/><path class="c" d="M-200.28,233.16a2.6,2.6,0,0,1,.71.49c.09-.25.23-.45.56-.33-.38-.4-.76-.8-1.13-1.21A2.93,2.93,0,0,1-200.28,233.16Z" transform="translate(270.44 -231.11)"/><path class="c" d="M-192.14,289.36a2.77,2.77,0,0,1,.47.65c-.23-1,.26-2.22-1.13-2.69a2.78,2.78,0,0,1,.67,1.93S-192.14,289.32-192.14,289.36Z" transform="translate(270.44 -231.11)"/><path class="c" d="M-192.14,289.36a.77.77,0,0,0-.26-.12l.24.25A.59.59,0,0,1-192.14,289.36Z" transform="translate(270.44 -231.11)"/><path class="c" d="M-192.93,286.63l-.27.26.1.11h0a.28.28,0,0,0,.3-.15h0A.71.71,0,0,1-192.93,286.63Z" transform="translate(270.44 -231.11)"/><path class="c" d="M-183.37,256.93c-.61.62-.82.54-1.13-.36l-.33-.11c-2.35-1.18-2.45-1.16-3.52,1.25a6.35,6.35,0,0,1-6.14,4.07,1.78,1.78,0,0,0-.83.14,1.66,1.66,0,0,0,.17,1.32,8.4,8.4,0,0,1,.54,5.43,7.12,7.12,0,0,1-2.91,4.14c-3.81,2.88-10.71,2.86-14.52,0a8.06,8.06,0,0,1-1.34-1.78c-.37-.64-1-1.26-1.05-1.93a9.09,9.09,0,0,0-.92-4.29c-.14-.08-.21-.3-.31-.46h0a2.54,2.54,0,0,1-.15-2.83H-216c-2.73-.08-5.42-.27-7.43-2.47a16.45,16.45,0,0,0,2.3,9.88,7.91,7.91,0,0,1,.42.82,7.18,7.18,0,0,0,.67.54c2.91,2.73,6.56,3.79,10.33,4.39a31.71,31.71,0,0,0,7.48.48,8.87,8.87,0,0,0,2.9-.24,32.65,32.65,0,0,0,9.94-3.54,13,13,0,0,0,6.77-9.79c0-.15.06-.31.09-.46a3,3,0,0,1,0-2.35c0-.16-.05-.31-.09-.46,0-.37-.44-.88,0-1.15l-.66-.21Z" transform="translate(270.44 -231.11)"/><path class="c" d="M-182.67,257.16l.3.09h.07V257A.92.92,0,0,0-182.67,257.16Z" transform="translate(270.44 -231.11)"/><path class="c" d="M-220.44,248.68c3.69-.54,7.32-.69,10.94.63a8.53,8.53,0,0,0,5.53-.18c6.41-2.14,12.59-1.39,18.68,1.19a4.07,4.07,0,0,0,.68.2A16.83,16.83,0,0,1-188,244.9c-3.51-.32-4.53-3.48-6.36-5.72-.67.44-1.16-.08-1.68-.44-.22-.16-.43-.34-.64-.52a8,8,0,0,1-1.08-.24c-1-.29-1.73-.12-2.12,1-.13.36-.38.67-.53,1-.32.75-.68.69-1.32.27a17.75,17.75,0,0,0-2.71-1.39c-.26-.12-.62,0-.93,0a2.76,2.76,0,0,0,.27.87c.52.75.75,1.22-.52.8a1.58,1.58,0,0,0-.75,0,3.14,3.14,0,0,0-.64.25,4.17,4.17,0,0,0,.33.63c.28.33.59.63,1.13,1.2a9.08,9.08,0,0,0-6.24,1.19h0a.76.76,0,0,1,0,.11c-1.62-.09-3.25-.08-4.87-.26a1.64,1.64,0,0,1-.12-.22h-.1Z" transform="translate(270.44 -231.11)"/><path class="c" d="M-184.56,250.54l-.05,0c.11.13.21.26.33.39l-.19-.32A.26.26,0,0,0-184.56,250.54Z" transform="translate(270.44 -231.11)"/><path class="c" d="M-213.71,261.54c-.4,1.06-.82,2.1-1.23,3.15,5.1,1.65,10.05.61,15-.86.3-.09.61-.16.92-.24.57-.54,1-1.33,2-1.14l-.27-.6a1.71,1.71,0,0,0-.45,0,8.75,8.75,0,0,1-5.21-1.65c-.06,0-.1-.1-.15-.14-1.62,2.16-3.18,2.68-5.17,1.5a7.09,7.09,0,0,1-1.72-2,1.13,1.13,0,0,0-.1.13c-1,1-2.25,1.17-3.51,1.39A.68.68,0,0,1-213.71,261.54Z" transform="translate(270.44 -231.11)"/><path class="c" d="M-203.4,259.8a6.52,6.52,0,0,1-1.34-2.12l-4.08.13s0,0,0,.06c-.35.51-.69,1-1.07,1.52C-206.78,262.11-206.68,262.12-203.4,259.8Z" transform="translate(270.44 -231.11)"/><path class="c" d="M-203.27,259.7l-.13.1.25.22c.08-.11.17-.21.25-.33A.43.43,0,0,0-203.27,259.7Z" transform="translate(270.44 -231.11)"/><path class="c" d="M-209.92,259.39l-.14-.12s-.12,0-.19,0c.08.09.14.19.21.28Z" transform="translate(270.44 -231.11)"/><path class="c" d="M-216.09,241.92a8.56,8.56,0,0,1,3.6-1.8c.25-.08.8,0,.64-.48-.11-.3-.58-.16-.88,0a9.87,9.87,0,0,0-2.2,1.22,26.32,26.32,0,0,0-7.31,8.13,7.53,7.53,0,0,1,1.57-.23,9.55,9.55,0,0,1,3.74-5.3l.06-.06C-217.15,242.68-216.5,242.31-216.09,241.92Z" transform="translate(270.44 -231.11)"/><path class="c" d="M-222.37,249c-.09.21-.17.42-.27.63.13-.23.27-.45.4-.67Z" transform="translate(270.44 -231.11)"/><path class="c" d="M-220.57,248.7h-.1c0,.16-.09.33-.12.5l.35-.53Z" transform="translate(270.44 -231.11)"/><path class="c" d="M-223.63,258.79a9.37,9.37,0,0,1-1-2.21c.17,1.94-.33,3.91.1,5.88a13.61,13.61,0,0,0,2.83,6.33,14.88,14.88,0,0,1-2.29-8.3A2.56,2.56,0,0,1-223.63,258.79Z" transform="translate(270.44 -231.11)"/><path class="c" d="M-224.89,255.17c0,.26,0,.52,0,.78a6,6,0,0,1,.29.63A6.25,6.25,0,0,0-224.89,255.17Z" transform="translate(270.44 -231.11)"/><path class="c" d="M-223.63,258.79l.07.11.14.14c0-.16,0-.33,0-.5A1.48,1.48,0,0,0-223.63,258.79Z" transform="translate(270.44 -231.11)"/><path class="c" d="M-221.7,268.79a15,15,0,0,0,1.4,1.85c-.14-.3-.27-.6-.4-.9A10.06,10.06,0,0,1-221.7,268.79Z" transform="translate(270.44 -231.11)"/><path class="c" d="M-202.89,250.77l-.22-.08c-.66.75-1.22,1.47.18,1.7v0C-204.16,251.8-202.95,251.3-202.89,250.77Z" transform="translate(270.44 -231.11)"/><path class="c" d="M-211.42,256.65c.16-.17.34-.32.51-.49v0c0-1.62.33-3.28-.33-4.87l-.14-.08-.06,0C-211.43,253-211.43,254.83-211.42,256.65Z" transform="translate(270.44 -231.11)"/><path class="c" d="M-207.93,274.07l.67.12c-.27-.06-.53-.13-.8-.21-.1,0-.16-.19-.23-.29a15.37,15.37,0,0,1-3.73-1.55A8.28,8.28,0,0,0-207.93,274.07Z" transform="translate(270.44 -231.11)"/><path class="c" d="M-199.3,273.18a13.8,13.8,0,0,1-3.88,1.18,11.67,11.67,0,0,0,4.94-1.65c3.14-1.89,4-5,2.77-8.95a2.79,2.79,0,0,1-.23-1.7,3.23,3.23,0,0,1-.51.14,41.41,41.41,0,0,1,1.06,4.47C-194.72,269.93-196.71,272-199.3,273.18Z" transform="translate(270.44 -231.11)"/><path class="c" d="M-195.7,262.06l.38-.14a1.29,1.29,0,0,1,.6-.61l-.59.28A1.07,1.07,0,0,0-195.7,262.06Z" transform="translate(270.44 -231.11)"/><path class="c" d="M-196.93,262.43l-.17.07-.35.66c2.35,2.12,2,6.38-.65,8.41a11.43,11.43,0,0,1-6.71,2.17c-.63,0-1.26,0-1.9,0a10.81,10.81,0,0,0,7.9-1.45c2.91-1.63,3.72-4,3-7.44-.19-.87-.78-1.7-.48-2.65a5.8,5.8,0,0,1-.59-.19A1,1,0,0,1-196.93,262.43Z" transform="translate(270.44 -231.11)"/><path class="c" d="M-196.88,262a.6.6,0,0,0-.22-.39l-.47-.24.23.48A4.11,4.11,0,0,1-196.88,262Z" transform="translate(270.44 -231.11)"/><path class="c" d="M-196.25,262.21h0c0-.05,0-.1,0-.15a.74.74,0,0,0,0,.14Z" transform="translate(270.44 -231.11)"/><path class="c" d="M-203.18,274.36a14.8,14.8,0,0,1-4.08-.17A10.64,10.64,0,0,0-203.18,274.36Z" transform="translate(270.44 -231.11)"/><path class="c" d="M-217.65,258.93l-1.85,0a.89.89,0,0,0-.85.85c.46-.13.91-.25,1.36-.39S-218.09,259.07-217.65,258.93Z" transform="translate(270.44 -231.11)"/><path class="c" d="M-205,257.21a21.54,21.54,0,0,1-.46-2.37s0,0,0,0c-.68.85-1.81.91-2.76,1.26a1.47,1.47,0,0,0,0,.29,4.2,4.2,0,0,1-.35,1.09A4.34,4.34,0,0,1-205,257.21Z" transform="translate(270.44 -231.11)"/><path class="c" d="M-204.76,257.63l0,.05h.15c.08,0,.15-.18.22-.27l-.61-.2A2.82,2.82,0,0,0-204.76,257.63Z" transform="translate(270.44 -231.11)"/><path class="c" d="M-208.64,257.44a3.56,3.56,0,0,0-.54.38h.36C-208.75,257.69-208.7,257.56-208.64,257.44Z" transform="translate(270.44 -231.11)"/><path class="c" d="M-215.17,259.13a4.6,4.6,0,0,0,1-.05c2.16-.32,2.76-.69,3.15-2.32a1.73,1.73,0,0,1-.38-.11c0,1-.7,1.44-1.52,1.71s-1.9.55-2.86.82v.19h2.06a.61.61,0,0,0-.5-.22A4.13,4.13,0,0,1-215.17,259.13Z" transform="translate(270.44 -231.11)"/><path class="c" d="M-210.34,255.55a4.09,4.09,0,0,1-.57.61c0,.22-.08.41-.13.6.7.09,1-.56.94-1.07,0-1.09.53.13.62-.14,0,0,0-.05,0-.08l-.59-.85A3,3,0,0,1-210.34,255.55Z" transform="translate(270.44 -231.11)"/><path class="c" d="M-215.41,264.13c.09.15.16.3.24.45l.16.07c-.25-.6.2-1.22.33-1.82s.53-1.06.33-1.63a7.61,7.61,0,0,1-1,.31l-.18,2.12A2.88,2.88,0,0,0-215.41,264.13Z" transform="translate(270.44 -231.11)"/><path class="c" d="M-214.31,261.19l.66-.13c-.11-.29-.7,0-.9-.21a1.15,1.15,0,0,1,.2.35Z" transform="translate(270.44 -231.11)"/><path class="c" d="M-202.82,255.5l-.14-.42-.71,1.15A1.67,1.67,0,0,0-202.82,255.5Z" transform="translate(270.44 -231.11)"/><path class="c" d="M-192.87,250c-.61-.51-1.35-.34-2-.35-2-.05-4,0-6-.08a7.75,7.75,0,0,0,1.63.44C-197.13,250.05-195,250-192.87,250Z" transform="translate(270.44 -231.11)"/><path class="c" d="M-219.56,250.48l.21,0a.75.75,0,0,0-.42-.2c-1.5.21-3.09.16-4.3,1.33l0,.09.26,0Z" transform="translate(270.44 -231.11)"/><path class="c" d="M-211.43,251.2l0,0a3.86,3.86,0,0,0-2.55-.56.91.91,0,0,0-.29.25h0Z" transform="translate(270.44 -231.11)"/><path class="c" d="M-210.67,250.91l-.14-.16a1,1,0,0,0-.59.41l0,0Z" transform="translate(270.44 -231.11)"/><path class="c" d="M-219.12,250.84s0-.06,0-.09a1.18,1.18,0,0,0-.13-.18,1,1,0,0,1-.32-.09Z" transform="translate(270.44 -231.11)"/><path class="c" d="M-218.73,250.36v0h-.12l-.5.1a1.5,1.5,0,0,1,.11.13A.49.49,0,0,0-218.73,250.36Z" transform="translate(270.44 -231.11)"/><path class="c" d="M-224.15,251.83a4.78,4.78,0,0,0-.1,2.49c.14-.9.27-1.8.41-2.7Z" transform="translate(270.44 -231.11)"/><path class="c" d="M-224.15,251.83c0-.06,0-.12.05-.17l-1.66.26C-225.14,252.43-224.64,252.16-224.15,251.83Z" transform="translate(270.44 -231.11)"/><path class="c" d="M-198.67,259.3c1.5,1.28,3.2.35,4.81.44a3.63,3.63,0,0,0,.77-.14l-.14-.07a.43.43,0,0,1-.33-.17c-.62.1-1.24.23-1.86.29-1.12.09-2.29.35-3.19-.66h0A1,1,0,0,0-198.67,259.3Z" transform="translate(270.44 -231.11)"/><path class="c" d="M-199.74,259.39l-.06,0,0,.7a.53.53,0,0,0,.13-.47A1.89,1.89,0,0,0-199.74,259.39Z" transform="translate(270.44 -231.11)"/><path class="c" d="M-205.77,254.46l-.15-.18-1.8.3,0,0c-.14.39-.32.77-.44,1.17a11.55,11.55,0,0,1,2.53-1.21Z" transform="translate(270.44 -231.11)"/><path class="c" d="M-208.19,255.8a2.54,2.54,0,0,0-.44.43,2.3,2.3,0,0,1,.39-.17A2,2,0,0,1-208.19,255.8Z" transform="translate(270.44 -231.11)"/><path class="c" d="M-205.48,254.8a2.86,2.86,0,0,0,.28-.45c-.15.09-.3.16-.46.24C-205.6,254.66-205.54,254.72-205.48,254.8Z" transform="translate(270.44 -231.11)"/><path class="c" d="M-206.08,254.08c-.64-.74-1-.72-1.43.1A1.77,1.77,0,0,1-206.08,254.08Z" transform="translate(270.44 -231.11)"/><path class="c" d="M-207.51,254.18a1.33,1.33,0,0,0-.42.43l.21,0A3.65,3.65,0,0,1-207.51,254.18Z" transform="translate(270.44 -231.11)"/><path class="c" d="M-205.92,254.28l.7-.11a2.83,2.83,0,0,1-.86-.09Z" transform="translate(270.44 -231.11)"/><path class="c" d="M-190.88,257.13a3.51,3.51,0,0,1-2.68,2.23l.33.17.2.05a4.09,4.09,0,0,0,2.44-2.46c.06-.12.16,0,.07.15,0,0,.08.1.12.15l.21-1.25A6.28,6.28,0,0,0-190.88,257.13Z" transform="translate(270.44 -231.11)"/><path class="c" d="M-193.09,259.6l.32.17a.36.36,0,0,0-.26-.19Z" transform="translate(270.44 -231.11)"/><path class="c" d="M-215.73,250.23a7.53,7.53,0,0,1-1.64-.09l-.29.22Z" transform="translate(270.44 -231.11)"/><path class="c" d="M-212.5,250a23.56,23.56,0,0,0-2.37.15Z" transform="translate(270.44 -231.11)"/><path class="c" d="M-206,251.45a2.26,2.26,0,0,0,2.72-.81h-.09c-1,.49-1.9,1-2.94.21C-206.22,251.05-206.16,251.4-206,251.45Z" transform="translate(270.44 -231.11)"/><path class="c" d="M-220.75,259.37l-2.34-3.14A5.64,5.64,0,0,0-220.75,259.37Z" transform="translate(270.44 -231.11)"/><path class="c" d="M-183,253.47l-.09,1.65C-182.51,254.6-183.11,254-183,253.47Z" transform="translate(270.44 -231.11)"/><path class="c" d="M-182.31,255.85c0-.63,0-1.27,0-1.9A1.47,1.47,0,0,0-182.31,255.85Z" transform="translate(270.44 -231.11)"/><path class="c" d="M-202.89,250.77l1.94-.72a2.94,2.94,0,0,0-2.14.62A.54.54,0,0,1-202.89,250.77Z" transform="translate(270.44 -231.11)"/><path class="c" d="M-203.09,250.67a.58.58,0,0,0-.14,0l.12.05h0Z" transform="translate(270.44 -231.11)"/><path class="c" d="M-215.48,261.52h-.18l0,.29A1.59,1.59,0,0,1-215.48,261.52Z" transform="translate(270.44 -231.11)"/><path class="c" d="M-215.66,261.52a1.43,1.43,0,0,0,0-.22,2,2,0,0,0-.1.21Z" transform="translate(270.44 -231.11)"/><path class="c" d="M-215.4,261.52h0l0-.22a1,1,0,0,0-.12.23Z" transform="translate(270.44 -231.11)"/><path class="c" d="M-215.56,263.63a15.82,15.82,0,0,1-.07-1.82,2.94,2.94,0,0,0,0,2.54h0Z" transform="translate(270.44 -231.11)"/><path class="c" d="M-218.75,250.28a.6.6,0,0,0-.13-.29l-.77,0,.8.37Z" transform="translate(270.44 -231.11)"/><path class="c" d="M-217.66,250.36a1.84,1.84,0,0,1,0-.26,1.65,1.65,0,0,0-1.11.18s0,0,0,.06Z" transform="translate(270.44 -231.11)"/><path class="c" d="M-217.55,250.11l.18,0,.15-.12h-.39l0,.09Z" transform="translate(270.44 -231.11)"/><path class="c" d="M-210.59,250.68l-.11,0a.32.32,0,0,1,0,.2c.77.08,1.38,1.4,2.31.3C-209.31,251.88-209.82,250.76-210.59,250.68Z" transform="translate(270.44 -231.11)"/><path class="c" d="M-210.7,250.71c-.08-.15-.28-.2-.4-.31l.29.35Z" transform="translate(270.44 -231.11)"/><path class="c" d="M-183.37,256.93c.09-.08.18-.18.29-.3a1.13,1.13,0,0,1-1.54-.41c0,.13.08.24.12.35C-184.13,256.7-183.75,256.81-183.37,256.93Z" transform="translate(270.44 -231.11)"/><path class="c" d="M-201,298.81a9.73,9.73,0,0,1,1.41,3.53c.07,1.43.73,1.82,1.85,2a1.71,1.71,0,0,1,.39,0c.24.05.48.13.71.2a2.67,2.67,0,0,1-.51.25,27.88,27.88,0,0,0-3,.56,5.35,5.35,0,0,0-4,3.85,2.1,2.1,0,0,1-.34.62,1.74,1.74,0,0,0,.11.18A15.4,15.4,0,0,0-198,312a3.94,3.94,0,0,1,2,.51c-.15-.77.41-1,1-1.09l2.09-.43c4-.83,5.14-3.24,2.84-7.44a17.57,17.57,0,0,0-4.48-5.32,2.38,2.38,0,0,1-.59-3.68,6.64,6.64,0,0,0,1-2.92c.2-1.38.46-2.82-1.7-2.86-.41,0-.62-.42-.55-.87,0,0,0,0,.05-.05l-.65.3.27,1.09c0,.14.07.27.1.41-1.31-.52-1.9,1.55-3.38.85s-3.15-1.05-4.71-1.61c-.32-.12-.55-.49-.82-.74l-.81-.39-2.62-1.14-1.06.41c.53.52.2.89-.42,1.21a5.77,5.77,0,0,0,.82-.2,2.12,2.12,0,0,1,2.91,2c-.07,2.5-1.49,5.65-4.73,6.1a5.66,5.66,0,0,1-2-.22c-.22-.05-.43-.14-.65-.21,2.76,1.59,5.95,1.59,9,2,1,.13,2-.05,2.78.64l.07.09C-201.78,298-201.27,298.26-201,298.81Z" transform="translate(270.44 -231.11)"/><path class="c" d="M-195.9,312.58l.05,0-.12,0Z" transform="translate(270.44 -231.11)"/><path class="c" d="M-196,312.52l-.07-.06v.05Z" transform="translate(270.44 -231.11)"/><path class="c" d="M-209.21,286l.06-.11c-.62-.68-1.26-1.35-1.85-2.05-.13-.15-.08-.45-.12-.67.22.08.5.1.64.25,1.11,1.14,2.2,2.3,3.3,3.45.24.16.47.32.71.46.37.36,1,.22,1.32.61a9.44,9.44,0,0,0,.9.45c1.13.12,2.32.09,3.22,1.07.09.1.82-.39,1.25-.61l-.51-.12a1.09,1.09,0,0,1,.29-.24c.34-.15.68-.27,1-.39l.35,0,.79.34h.38l.1-.1a.63.63,0,0,1,.1-.28c.23-.32.5-.53.9-.4a3.31,3.31,0,0,1,2.78-1.06.7.7,0,0,1,.35.21c0-.23.07-.33.27-.32a1.23,1.23,0,0,1,0-.19,9.51,9.51,0,0,1,3-2.79s0-.08,0-.12a15.79,15.79,0,0,1,.49-2c.31-1.87-.63-3.15-2.94-4h-.06a.48.48,0,0,1-.23.14,14,14,0,0,0-5.92,2,1.54,1.54,0,0,1-1.92.06.69.69,0,0,0,0,.2c.35.26.72.51,1,.8s.46.5.7.75a4.79,4.79,0,0,1-1.09-.12c-2.37-.83-4.73-1.67-7.08-2.55a17,17,0,0,0-7.36-1.14l-.3.22c-.68.33-1,1-1.48,1.55h0a6.86,6.86,0,0,1,.68.64,3.7,3.7,0,0,1,.35.61,2.33,2.33,0,0,1-.69,0,4.74,4.74,0,0,1-.86-.39,3.3,3.3,0,0,0-4,.25.56.56,0,0,1-.17.09c-.1.14-.2.28-.29.43a6.14,6.14,0,0,0-.3.7c-.84,2.77-.73,3,2,3.82a5.24,5.24,0,0,1,1.38.64,6.27,6.27,0,0,0,.58.29h0A11.81,11.81,0,0,0-209.21,286Z" transform="translate(270.44 -231.11)"/><path class="c" d="M-189.95,283.7l.26-.26-.28.13S-190,283.66-189.95,283.7Z" transform="translate(270.44 -231.11)"/><path class="c" d="M-193.22,286.91l0,0,0,0Z" transform="translate(270.44 -231.11)"/><path class="c" d="M-192.93,286.63l.07-.08h-.09S-192.94,286.6-192.93,286.63Z" transform="translate(270.44 -231.11)"/><path class="c" d="M-196.41,287.8l.13-.07h-.07Z" transform="translate(270.44 -231.11)"/><path class="c" d="M-217.9,306.56a2.47,2.47,0,0,0,.43.1,56.58,56.58,0,0,0,9.55.74,3.81,3.81,0,0,0,2.85-1.34,16.89,16.89,0,0,1,2.15-1.9,2.62,2.62,0,0,0,.42-.39c0-.55,0-1.11,0-1.67,0-1.9-.42-2.21-2.23-2.36s-3.66-.5-5.48-.76h0c-.08.29-.16.58-.23.87a1.24,1.24,0,0,1,0,.91,1.76,1.76,0,0,1-1.66,1,4.36,4.36,0,0,0-.72,0A8.09,8.09,0,0,0-217.9,306.56Z" transform="translate(270.44 -231.11)"/><path class="c" d="M-213.33,295.44c3.61,1.08,6.31-2.76,5.94-5.68-.17-1.3-1.22-1.47-2.4-1.17-.83.21-1.71.84-2.53.16l-.21.06a8.12,8.12,0,0,1-4-.05c-1.36-.44-1.53.23-1.54,1.27,0,1.74,1.19,2.88,2.06,4.18a4.37,4.37,0,0,0,.68.68l0,0C-214.57,294.75-214,295.25-213.33,295.44Z" transform="translate(270.44 -231.11)"/><path class="c" d="M-210.53,288.2h0c-.69.13-1.39.19-2.08.3a1.63,1.63,0,0,0,.27.26A10,10,0,0,0-210.53,288.2Z" transform="translate(270.44 -231.11)"/><path class="c" d="M-215.27,294.92a1.24,1.24,0,0,0-.42.17c.5.19,1,.39,1.5.56A9.31,9.31,0,0,1-215.27,294.92Z" transform="translate(270.44 -231.11)"/><path class="c" d="M-195.73,276.52c-.9-.81-1.84-.09-2.69.06-2.9.48-5.86.19-8.76.6l5.48,2.3C-200,277.81-197.87,277.21-195.73,276.52Z" transform="translate(270.44 -231.11)"/><path class="c" d="M-209.28,277.5a40.72,40.72,0,0,1,8.68,3.06c.15.08-.24-.28-.14-.5a.93.93,0,0,1,0-.29l-.7-.2-.36.18a49.12,49.12,0,0,1-5.54-2.07,1,1,0,0,1-.56-.41,5.55,5.55,0,0,1-2-.32,4.7,4.7,0,0,0-3.91.29A9,9,0,0,1-209.28,277.5Z" transform="translate(270.44 -231.11)"/><path class="c" d="M-213.81,277.24a6.47,6.47,0,0,0-1.1.37l.59-.05C-214.15,277.44-214,277.34-213.81,277.24Z" transform="translate(270.44 -231.11)"/><path class="c" d="M-207.81,277.27l.63-.09-.78-.32a.66.66,0,0,0,.08.41Z" transform="translate(270.44 -231.11)"/><path class="c" d="M-202,302.93a3.78,3.78,0,0,0,.18-.7c.08-.52.07-1.13.7-1.37l-.87-1.36a1,1,0,0,1-1.18.26C-202.13,300.26-201.77,301.28-202,302.93Z" transform="translate(270.44 -231.11)"/><path class="c" d="M-204,299.5l.14,0Z" transform="translate(270.44 -231.11)"/><path class="c" d="M-209.87,298.85a38.44,38.44,0,0,0,5.65.62l.24,0a6,6,0,0,0-1.11-.12c-1.66,0-3.28-.42-4.92-.6l-.22.12V299h0A1.1,1.1,0,0,1-209.87,298.85Z" transform="translate(270.44 -231.11)"/><path class="c" d="M-203.84,299.53c.21.06.43.15.65.23A2.92,2.92,0,0,0-203.84,299.53Z" transform="translate(270.44 -231.11)"/><path class="c" d="M-202,302.93a2.42,2.42,0,0,1-.48.84c0,.22,0,.44,0,.66a3.33,3.33,0,0,0,.44-1.26A1.75,1.75,0,0,1-202,302.93Z" transform="translate(270.44 -231.11)"/><path class="c" d="M-218.29,304.93c-.39.76-.35,1.29.25,1.57a6.21,6.21,0,0,1,2.89-4.07,20.64,20.64,0,0,1-2.44,1C-217.5,304.07-218,304.45-218.29,304.93Z" transform="translate(270.44 -231.11)"/><path class="c" d="M-217.6,303.45h0a1.62,1.62,0,0,0,0-.19,1.71,1.71,0,0,1-.11.14Z" transform="translate(270.44 -231.11)"/><path class="c" d="M-215.15,302.43a6.71,6.71,0,0,1,2.32-.66l.05,0a2.08,2.08,0,0,0,.54-.42,8.12,8.12,0,0,1-1.82.54A5.91,5.91,0,0,0-215.15,302.43Z" transform="translate(270.44 -231.11)"/><path class="c" d="M-218,306.5a3.83,3.83,0,0,0-.07.58l.21-.52Z" transform="translate(270.44 -231.11)"/><path class="c" d="M-200.43,279.49a8,8,0,0,0,3.05-1.11,9.81,9.81,0,0,1,3.77-1.13,1.2,1.2,0,0,1-.6-.33l-.11.09a1.2,1.2,0,0,1-1.12,0l-.08-.1c-1.21.52-2.44,1-3.62,1.57A6.58,6.58,0,0,0-200.43,279.49Z" transform="translate(270.44 -231.11)"/><path class="c" d="M-194.06,276.78l-.29,0,.14.16A1,1,0,0,0-194.06,276.78Z" transform="translate(270.44 -231.11)"/><path class="c" d="M-192.5,277.38c.15-.14.28-.36.43-.51a9.12,9.12,0,0,1-1.54.38A9.91,9.91,0,0,0-192.5,277.38Z" transform="translate(270.44 -231.11)"/><path class="c" d="M-201.06,300.84c1.19.89.48,2.52,1.37,3.52h.81c-.71-.3-.94-1-1.15-1.91-.33-1.41-.47-3-2-3.69a1.17,1.17,0,0,1,.11.62C-201.18,299.57-200.75,300-201.06,300.84Z" transform="translate(270.44 -231.11)"/><path class="c" d="M-202.33,298.4a1.29,1.29,0,0,0-.21.2,3,3,0,0,1,.48.17A1.59,1.59,0,0,0-202.33,298.4Z" transform="translate(270.44 -231.11)"/><path class="c" d="M-201.95,299.44s0,0,0-.05l-.15,0,.09.14Z" transform="translate(270.44 -231.11)"/><path class="c" d="M-201.07,300.83l-.07,0,0,.08,0-.1Z" transform="translate(270.44 -231.11)"/><path class="c" d="M-209.21,286a2.12,2.12,0,0,1-.26.3l.3-.09h.11l0-.25Z" transform="translate(270.44 -231.11)"/><path class="c" d="M-209.92,286.57l-.56.21.18,0a.58.58,0,0,1,.12.1A.88.88,0,0,1-209.92,286.57Z" transform="translate(270.44 -231.11)"/><path class="c" d="M-210.18,286.91a.47.47,0,0,0-.08.14l.17-.07Z" transform="translate(270.44 -231.11)"/><path class="c" d="M-210.48,286.78a3.16,3.16,0,0,0-1.14.14,8.47,8.47,0,0,1-5.87-.47,3,3,0,0,0-.95,0h0A11.55,11.55,0,0,0-210.48,286.78Z" transform="translate(270.44 -231.11)"/><path class="c" d="M-209.6,286.45l.13-.12a1.61,1.61,0,0,0-.45.24Z" transform="translate(270.44 -231.11)"/><path class="c" d="M-216.12,279.34a1.7,1.7,0,0,1-1.29.08l-.18,0a5.63,5.63,0,0,1,1.31.5C-215.78,280.15-216.34,279.49-216.12,279.34Z" transform="translate(270.44 -231.11)"/><path class="c" d="M-218.95,279.32a2.72,2.72,0,0,1,.49-.05A2.63,2.63,0,0,0-218.95,279.32Z" transform="translate(270.44 -231.11)"/><path class="c" d="M-218.35,279.28a2.83,2.83,0,0,1,.5.05A2.83,2.83,0,0,0-218.35,279.28Z" transform="translate(270.44 -231.11)"/><path class="c" d="M-218.46,279.27h0Z" transform="translate(270.44 -231.11)"/><path class="c" d="M-217.85,279.33l.26.05Z" transform="translate(270.44 -231.11)"/><path class="c" d="M-216.11,279.33Z" transform="translate(270.44 -231.11)"/><path class="c" d="M-218.95,279.32a4.83,4.83,0,0,0-2.59,1.4,4.06,4.06,0,0,0,.71-.15A2.94,2.94,0,0,1-218.95,279.32Z" transform="translate(270.44 -231.11)"/><path class="c" d="M-195.52,276.9a1.27,1.27,0,0,1-.13-.22,1.73,1.73,0,0,1-.26.28Z" transform="translate(270.44 -231.11)"/><path class="c" d="M-200.62,279.53h.05a1.4,1.4,0,0,1,.07-.44l-.77.41a1.75,1.75,0,0,1,.57.23A.77.77,0,0,1-200.62,279.53Z" transform="translate(270.44 -231.11)"/><path class="c" d="M-195.71,276.54l.06.14c.05-.08.1-.15.14-.23l-.22.07S-195.71,276.53-195.71,276.54Z" transform="translate(270.44 -231.11)"/><path class="c" d="M-200.72,279.77l.18.05-.16-.1S-200.71,279.75-200.72,279.77Z" transform="translate(270.44 -231.11)"/><path class="c" d="M-201.7,279.48l.28.09.15-.08A1,1,0,0,0-201.7,279.48Z" transform="translate(270.44 -231.11)"/><path class="c" d="M-195.52,276.9h0Z" transform="translate(270.44 -231.11)"/><path class="c" d="M-200.57,279.52v.1l.14-.13Z" transform="translate(270.44 -231.11)"/><path class="c" d="M-195.91,277A11.31,11.31,0,0,0-199,278c-.55.27-1.31.39-1.54,1a15.73,15.73,0,0,1,4-1.82A1.32,1.32,0,0,0-195.91,277Z" transform="translate(270.44 -231.11)"/><path class="c" d="M-182.52,261.12a3.21,3.21,0,0,0,.22.46c0-1.1,0-2.21,0-3.31-.09.17-.17.33-.24.5A6.19,6.19,0,0,1-182.52,261.12Z" transform="translate(270.44 -231.11)"/><path class="c" d="M-210.23,299h0l0-.06c-.53.39-.2,1.08-.37,1.59l.18-.65C-210.54,299.52-210.58,299.2-210.23,299Z" transform="translate(270.44 -231.11)"/><path class="c" d="M-210.27,298.92l0,0,0-.7A.49.49,0,0,0-210.27,298.92Z" transform="translate(270.44 -231.11)"/><path class="c" d="M-202.1,275.66a8.35,8.35,0,0,1,2.16-.26l.94-.12A4.5,4.5,0,0,0-202.1,275.66Z" transform="translate(270.44 -231.11)"/><path class="c" d="M-207.84,242.09c.47-.05,1.32.2.71-.86a.67.67,0,0,1,.57-1c.83-.08,1.05-.39.93-1.2-.06-.45.46-.56.85-.59a2.61,2.61,0,0,1,1.67.4c1.35.93,2.45,1.25,3.28-.66.34-.81,1.22-.83,2-.64a3.09,3.09,0,0,1,.73.29,7.84,7.84,0,0,1-1.46-2l0-.06c-.53.29-1.07.57-1.62.83a1.51,1.51,0,0,1-.53.09l-.05.09a.88.88,0,0,1-.54.18l-.05,0c-.11.8-.11,1.61-1.26.45-1.33-1.35-3.23-1.44-5-1.72-.81-.14-1.1.09-.48.87s.27,1-.64,1c-1.45,0-1.45.08-.81,1.42l.34.69c.83,1.64.82,1.62-1,2.3a16.12,16.12,0,0,0-1.81.91.82.82,0,0,1,.19.83l0,0C-210.82,242.39-209.35,242.22-207.84,242.09Z" transform="translate(270.44 -231.11)"/><path class="c" d="M-196.65,238.22l.81.14a6.93,6.93,0,0,1-1.22-.53Z" transform="translate(270.44 -231.11)"/><path class="c" d="M-210.63,241.79c1.26-.24,1.58-.75,1.35-1.47.11.61-.32,1-1.3,1.24a9.39,9.39,0,0,0-1.5.37c-.27.13-.77-.06-.76.42,0,.08.49.24.74.45A2,2,0,0,1-210.63,241.79Z" transform="translate(270.44 -231.11)"/><path class="c" d="M-208.83,237.16c.5,0,.48-.14.31-.53-.64-1.41.39-1.43,1.24-1.32a9,9,0,0,1,4.4,1.36c.46.33.9.66,1.44.25-2.81-2-6-2.12-9.27-1.77-1.24.13-2.46.49-3.6.65a8.89,8.89,0,0,1,4.41,3.36C-210.57,238.07-210.69,237.19-208.83,237.16Z" transform="translate(270.44 -231.11)"/><path class="c" d="M-209.9,239.16l.15.24a3.34,3.34,0,0,1,.47.92,2.39,2.39,0,0,0-.46-.95Z" transform="translate(270.44 -231.11)"/><path class="c" d="M-201.36,237s0-.08,0-.13a.65.65,0,0,1-.09.08Z" transform="translate(270.44 -231.11)"/><path class="c" d="M-212,242.82l0,0a1.58,1.58,0,0,0-.13.26l.25-.13Z" transform="translate(270.44 -231.11)"/><path class="c" d="M-221.23,236a5.76,5.76,0,0,1,5.92-1.1,3.59,3.59,0,0,0-4.15-.44,9.83,9.83,0,0,0-5.95,10.1c.13-.62.29-1.23.39-1.86A10.08,10.08,0,0,1-221.23,236Z" transform="translate(270.44 -231.11)"/><path class="c" d="M-198.84,235.45a2.83,2.83,0,0,1-.75-1.64c-.24,0-.55-.25-.77-.2a1.12,1.12,0,0,0,.16.72,3.12,3.12,0,0,1-.23,2C-200,235.89-199.51,235.41-198.84,235.45Z" transform="translate(270.44 -231.11)"/><path class="c" d="M-200.36,233.61a2.36,2.36,0,0,1,.08-.45c-.22,0-.38.14-.36.94C-200.6,233.76-200.49,233.64-200.36,233.61Z" transform="translate(270.44 -231.11)"/><path class="c" d="M-199.59,233.81a.33.33,0,0,0,.17,0l-.15-.12,0,0A.41.41,0,0,0-199.59,233.81Z" transform="translate(270.44 -231.11)"/><path class="c" d="M-200.43,236.32a3.11,3.11,0,0,1-.58.45l.29,0A1.66,1.66,0,0,0-200.43,236.32Z" transform="translate(270.44 -231.11)"/><path class="c" d="M-198.57,235.82l.36-.19a1.69,1.69,0,0,0-.63-.18Z" transform="translate(270.44 -231.11)"/><path class="c" d="M-199.79,304.43a9.83,9.83,0,0,1-1.27.71,6.93,6.93,0,0,1,1.73-.5A1.46,1.46,0,0,1-199.79,304.43Z" transform="translate(270.44 -231.11)"/><path class="c" d="M-201.75,305.49a5.75,5.75,0,0,0-1.79,1.26c-.72.82-1.71,1.63-1.12,2.83A6.47,6.47,0,0,1-201.75,305.49Z" transform="translate(270.44 -231.11)"/><path class="c" d="M-197.93,304.56c.26,0-.07,0,.19,0-.09-.06-.19,0-.29-.09h0l-.25.08Z" transform="translate(270.44 -231.11)"/><path class="c" d="M-204.66,309.58c-.06.24-.13.47-.18.73.11-.16.23-.31.35-.47A2.85,2.85,0,0,1-204.66,309.58Z" transform="translate(270.44 -231.11)"/><path class="c" d="M-201.75,305.49l.69-.35A7.43,7.43,0,0,0-201.75,305.49Z" transform="translate(270.44 -231.11)"/><path class="c" d="M-199.7,304.37h-.19l.1.06Z" transform="translate(270.44 -231.11)"/><path class="c" d="M-198.32,304.58a6.69,6.69,0,0,0-1,.06A1.83,1.83,0,0,0-198.32,304.58Z" transform="translate(270.44 -231.11)"/><path class="c" d="M-197.73,304.37h-1.15a2.12,2.12,0,0,0,.81.13Z" transform="translate(270.44 -231.11)"/><path class="c" d="M-193.17,240.19c1.45,1.86,2.88,3.75,5.18,4.64l0-.1c.14-.81.79-.91,1.42-1a9.39,9.39,0,0,0,1.48-.36c2.64-1,3-1.58,2.41-4.46a6.71,6.71,0,0,0-.27-.75,15.89,15.89,0,0,0-1.29-1.16,23.42,23.42,0,0,0-3.58-2.49c-2.92-1.45-4.83-1-6.33,1.43,0,.28,0,.57,0,.88,0,.77.41,1.54,0,2.31l-.08,0C-193.54,239.08-193.48,239.8-193.17,240.19Zm3.1-4.94c2.79-.26,5.39,2.53,5.11,5.48,0,1.58-1.06,2-2.39,2a2.26,2.26,0,0,1-3.25-.76,16.71,16.71,0,0,0-2.14-2.06c0-.13-.06-.25-.1-.38C-193.73,236.51-193.1,235.53-190.07,235.25Z" transform="translate(270.44 -231.11)"/><path class="c" d="M-192.65,239.07l-.09.83a1,1,0,0,0,.12-.37A3.67,3.67,0,0,0-192.65,239.07Z" transform="translate(270.44 -231.11)"/><path class="c" d="M-188,244.9l.18,0-.2-.09A.64.64,0,0,0-188,244.9Z" transform="translate(270.44 -231.11)"/><path class="c" d="M-194.27,239.14h-.08l0,0Z" transform="translate(270.44 -231.11)"/><path class="c" d="M-189.13,233.47a11.07,11.07,0,0,1,5.7,3.7,8.53,8.53,0,0,0-6.25-4.49c-2.93-.31-4.18.36-4.46,2.64C-193.21,233.52-191.44,232.81-189.13,233.47Z" transform="translate(270.44 -231.11)"/><path class="c" d="M-183,238.13l.67.64a12.28,12.28,0,0,0-1.11-1.6A8.33,8.33,0,0,1-183,238.13Z" transform="translate(270.44 -231.11)"/><path class="c" d="M-194.14,235.32a5.91,5.91,0,0,0-.54,1.47c.16-.32.32-.61.49-.88C-194.18,235.7-194.16,235.51-194.14,235.32Z" transform="translate(270.44 -231.11)"/><path class="c" d="M-213.5,266.41a3.94,3.94,0,0,1,3.77,3.79c0,.23-.34.46-.52.69l5-.22c-.75,0-1.51-.1-2.26-.06-1.13.07-1.66-.4-1.58-1.54l-.31-.65a.12.12,0,0,1-.07-.15l-.72-1.08a5.17,5.17,0,0,1,1.17-.34c3.66-.24,7.23-.76,10.41-2.79l-.21-.23a2.43,2.43,0,0,1-.46.3c-4.41,1.47-8.87,2.47-13.55,1.63a7.2,7.2,0,0,1-1.81-.63,1.22,1.22,0,0,1-.33-.41l-.06,0a3.78,3.78,0,0,1,1,3,4.63,4.63,0,0,0,.89,3c-.32-1.37-.65-2.74-.94-4.12A4.32,4.32,0,0,1-213.5,266.41Z" transform="translate(270.44 -231.11)"/><path class="c" d="M-213.1,270.91a.75.75,0,0,0-.28.11h.3A.43.43,0,0,1-213.1,270.91Z" transform="translate(270.44 -231.11)"/><path class="c" d="M-215,264.75a1.71,1.71,0,0,1-.11-.14l0,0-.45-.22v0l0-.05a3.37,3.37,0,0,1,.31.46A.29.29,0,0,0-215,264.75Z" transform="translate(270.44 -231.11)"/><path class="c" d="M-214.94,264.69l-.07,0,0,.07Z" transform="translate(270.44 -231.11)"/><path class="c" d="M-215.63,264.35h0l0,.05S-215.63,264.37-215.63,264.35Z" transform="translate(270.44 -231.11)"/><path class="c" d="M-198.61,264.12l.31,3.12h0a3.15,3.15,0,0,0,.79-2.9,5.34,5.34,0,0,1,0-.8.36.36,0,0,0,0-.09.72.72,0,0,1,.34-.92,6.77,6.77,0,0,0-1.44,1.13.65.65,0,0,1,.1.34Z" transform="translate(270.44 -231.11)"/><path class="c" d="M-197.1,262.5l0-.05-.11.09A.2.2,0,0,1-197.1,262.5Z" transform="translate(270.44 -231.11)"/><path class="c" d="M-198.62,263.67c-.07-.12-.2-.17-.43-.08l.22.24A1.66,1.66,0,0,0-198.62,263.67Z" transform="translate(270.44 -231.11)"/><path class="c" d="M-202.66,252.44a15,15,0,0,1,6.88-1.12l.24-.46a9.25,9.25,0,0,0-2.68,0c-1.58.44-3.59-.37-4.71,1.49l0,.05Z" transform="translate(270.44 -231.11)"/><path class="c" d="M-202.51,254.79c.12-.84.31-1.69-.38-2.39h0l0,2.69a.92.92,0,0,1,.26.21A2.72,2.72,0,0,0-202.51,254.79Z" transform="translate(270.44 -231.11)"/><path class="c" d="M-200.16,258.77a3.51,3.51,0,0,1-1.65-1.75c0-.07-.07-.15-.11-.23l-.31.27a2.43,2.43,0,0,0,2,2l.14-.21Z" transform="translate(270.44 -231.11)"/><path class="c" d="M-202.14,256.35a4.87,4.87,0,0,0-.56-1.06,2.25,2.25,0,0,1-.12.21l.38,1.11.3-.24Z" transform="translate(270.44 -231.11)"/><path class="c" d="M-194.41,253.56a8.62,8.62,0,0,1-2.75,3.9c-.53.45-1.34.71-1.49,1.5l0,0a8.92,8.92,0,0,0,4.84-5.83c.38-1.57,0-2-1.77-2.3a1.65,1.65,0,0,1,0,.48C-194.18,251.46-194,252.32-194.41,253.56Z" transform="translate(270.44 -231.11)"/><path class="c" d="M-200,258.91a.86.86,0,0,1-.2.13l.44.37,0-.08A2.36,2.36,0,0,0-200,258.91Z" transform="translate(270.44 -231.11)"/><path class="c" d="M-199.76,259.33a.14.14,0,0,0,0,.06l1.09-.39v0C-199.2,258.57-199.53,258.82-199.76,259.33Z" transform="translate(270.44 -231.11)"/><path class="c" d="M-200.1,258.83l.06.08c1.46-1,4.15-5.56,4.47-7.57l-.21,0h0c-.7,1.36-1.39,2.73-2.15,4.06S-199.37,257.69-200.1,258.83Z" transform="translate(270.44 -231.11)"/><path class="c" d="M-214.47,252.16a8.41,8.41,0,0,1-3.6,6.36s-.07.05-.11.08a1.42,1.42,0,0,1,.53.33c.28-.25.58-.49.83-.76,1.94-2.06,3.32-4.32,2.6-7.32l-.06,0A2.49,2.49,0,0,0-214.47,252.16Z" transform="translate(270.44 -231.11)"/><path class="c" d="M-219.55,258.4l-.13-.07-.31.55h.49c.46-.07,1,0,1.32-.29A6.86,6.86,0,0,0-219.55,258.4Z" transform="translate(270.44 -231.11)"/><path class="c" d="M-215.81,251.33a2.26,2.26,0,0,0,1.53-.44s0,0,0,0h-1.48l-.23.48Z" transform="translate(270.44 -231.11)"/><path class="c" d="M-197.92,267.23a1.09,1.09,0,0,1-.35,0l0,0a11.46,11.46,0,0,1-6.95,3.4.73.73,0,0,1,.09.22c-1.42,1.17-3,.61-4.6.51a.61.61,0,0,1-.52-.53c-.53-.35-1.21-.6-1.52-1.08a25.09,25.09,0,0,1-1.46-2.88c-.84.58-.17,1.3-.11,1.95s.73,1.3.33,2.06h0a.37.37,0,0,1,.18,0c1.41,1.31,3.24,1.73,4.95,2.43l.09,0a5.2,5.2,0,0,1,2.29-.15,12.63,12.63,0,0,0,5.26-1.06c3.53-1.51,4.73-4.83,3.07-8.12A2.7,2.7,0,0,1-197.92,267.23Zm-3.82,4.56a4.14,4.14,0,0,1-4.42.11c1.46-.3,2.84-.59,4.23-.85a2.42,2.42,0,0,1,.75.07A2.63,2.63,0,0,1-201.74,271.79Z" transform="translate(270.44 -231.11)"/><path class="c" d="M-213,270.92h0l0,.1a4.07,4.07,0,0,0,1.06,1.12,6.08,6.08,0,0,1-1-1.22Z" transform="translate(270.44 -231.11)"/><path class="c" d="M-208.29,273.69l1.58,0a9.87,9.87,0,0,1-1.1-.34A1.54,1.54,0,0,0-208.29,273.69Z" transform="translate(270.44 -231.11)"/><path class="c" d="M-213,270.92l-.1-.17a.75.75,0,0,0,0,.16Z" transform="translate(270.44 -231.11)"/><path class="c" d="M-197.19,264.06c-.08-.3-.18-.6-.26-.9l0,.39C-197.37,263.72-197.28,263.89-197.19,264.06Z" transform="translate(270.44 -231.11)"/><path class="c" d="M-222.21,254.56a1.89,1.89,0,0,1,1.49-2.78c.59-.16,1.43,0,1.59-.92l-1.6.36c-2,.41-2.39,1.09-2,3.1a7.49,7.49,0,0,0,2.73,4.56c.05-.22.11-.43.16-.64C-221.23,257.43-221.73,256-222.21,254.56Z" transform="translate(270.44 -231.11)"/><path class="c" d="M-216.06,251.33l.34-.48h-3.38C-218.17,251.57-217.1,251.33-216.06,251.33Z" transform="translate(270.44 -231.11)"/><path class="c" d="M-217.5,254.38c.54-1,1-2,1.55-3h-.11a21.17,21.17,0,0,0-3.77,6.91l.15.09C-218.95,257-218.21,255.71-217.5,254.38Z" transform="translate(270.44 -231.11)"/><path class="c" d="M-202,256.71l-.06-.11a.44.44,0,0,1-.42,0l.21.45A1.31,1.31,0,0,1-202,256.71Z" transform="translate(270.44 -231.11)"/><path class="c" d="M-200.79,255.26l-1.35,1.11.12.23c.1,0,.19-.09.29-.12l-.23.23,0,.08,1.41-1.22Z" transform="translate(270.44 -231.11)"/><path class="c" d="M-197.52,288.63l-.24.43a.31.31,0,0,1-.11.2l-1.08-.38h-.72a.93.93,0,0,0-.08.42,1.75,1.75,0,0,1-.55.47l.36.14c1.07.44,1.77-1.22,2.85-.42,0-.34-.26-.64-.27-1a.48.48,0,0,1-.09.11Z" transform="translate(270.44 -231.11)"/><path class="c" d="M-197.36,288.51c.11-.13.19-.28.3-.41l-.29.3A.41.41,0,0,0-197.36,288.51Z" transform="translate(270.44 -231.11)"/><path class="c" d="M-200.3,289.77c-1.3-.49-2.67-.79-3.95-1.35a4.37,4.37,0,0,1-1.35-.32c1.42,1,3.27.74,4.71,1.7A.57.57,0,0,0-200.3,289.77Z" transform="translate(270.44 -231.11)"/><path class="c" d="M-209,286.24a2.42,2.42,0,0,1,1.08.26,23.16,23.16,0,0,1-2.28-2.26c.14.62,1.38.93,1,1.68l.06.07A.55.55,0,0,1-209,286.24Z" transform="translate(270.44 -231.11)"/><path class="c" d="M-207.9,286.5c.49.42,1,.82,1.49,1.21l-.77-.81A5.07,5.07,0,0,0-207.9,286.5Z" transform="translate(270.44 -231.11)"/><path class="c" d="M-209,286.24h-.08l0,.33A.48.48,0,0,0-209,286.24Z" transform="translate(270.44 -231.11)"/><path class="c" d="M-198.68,288.56h0l-.41.08.34.07Z" transform="translate(270.44 -231.11)"/><path class="c" d="M-199.5,288.7l.15,0A.37.37,0,0,0-199.5,288.7Z" transform="translate(270.44 -231.11)"/><path class="c" d="M-199.14,288.64h0a1.52,1.52,0,0,0-.21,0,.52.52,0,0,1,.18,0Z" transform="translate(270.44 -231.11)"/><path class="c" d="M-199.5,288.7a.71.71,0,0,0-.28.18h.11A.33.33,0,0,1-199.5,288.7Z" transform="translate(270.44 -231.11)"/><path class="c" d="M-198.55,288.76a3.05,3.05,0,0,0,.52.05.35.35,0,0,0,.18-.06v-.1h0a2.74,2.74,0,0,0-.64-.09l0,0A.75.75,0,0,1-198.55,288.76Z" transform="translate(270.44 -231.11)"/><path class="c" d="M-198.61,288.41v.08h0l-.07.07h.16A.42.42,0,0,0-198.61,288.41Z" transform="translate(270.44 -231.11)"/><path class="c" d="M-198.55,288.76l-.25-.05-.15.17h0C-198.72,289-198.61,288.92-198.55,288.76Z" transform="translate(270.44 -231.11)"/><path class="c" d="M-197.61,288.63a.75.75,0,0,1-.21,0s0,.06,0,.09A.78.78,0,0,0-197.61,288.63Z" transform="translate(270.44 -231.11)"/><path class="c" d="M-197.52,288.63l.07-.13-.16.13Z" transform="translate(270.44 -231.11)"/><path class="c" d="M-197.82,288.65a.43.43,0,0,1,0-.16v.16Z" transform="translate(270.44 -231.11)"/><path class="c" d="M-197.85,288.75l0,.51.11-.2a.93.93,0,0,0-.05-.32Z" transform="translate(270.44 -231.11)"/><path class="c" d="M-198.61,288.49h0a.21.21,0,0,1-.1-.17,2.93,2.93,0,0,1-.26-.19l.36.36Z" transform="translate(270.44 -231.11)"/><path class="c" d="M-198.71,288.32l.1.09a2.26,2.26,0,0,1,0-.26s-.06,0-.09.11S-198.71,288.3-198.71,288.32Z" transform="translate(270.44 -231.11)"/><path class="c" d="M-191.6,236.09c3.53-.8,6,1,6.19,4.61l.26,0a2.62,2.62,0,0,0,0-.28,4.73,4.73,0,0,0-1-2.87,4.61,4.61,0,0,0-5.63-1.78c-1.59.68-1,2.06-.87,3.28a15.9,15.9,0,0,1,.28-1.94C-192.28,236.73-191.93,236.17-191.6,236.09Z" transform="translate(270.44 -231.11)"/><path class="c" d="M-185.16,240.86c-.09,0-.17,0-.25-.16l-1.94,2C-186.48,242.23-185.33,242-185.16,240.86Z" transform="translate(270.44 -231.11)"/><path class="c" d="M-185.16,240.86a.36.36,0,0,0,.2-.13h-.19A.66.66,0,0,0-185.16,240.86Z" transform="translate(270.44 -231.11)"/><path class="c" d="M-198.85,266.15a4.84,4.84,0,0,1,.22-2c-1.08,1.3-2.67,1.68-4.17,2.16a22.84,22.84,0,0,1-5.26.92c-.53,0-1.28-.11-1.05.88l.09.2,1.58.11.05.37-1.3.21s0,.06,0,.1c.26.94,1.06.9,1.8,1,.56.1,1.28-.1,1.6.55a66.65,66.65,0,0,0,6.95-3.4v0C-198.82,267.17-198.77,266.59-198.85,266.15Z" transform="translate(270.44 -231.11)"/><path class="c" d="M-198.61,264.12v-.06s0,.06,0,.09Z" transform="translate(270.44 -231.11)"/><path class="c" d="M-205.25,270.67h0Z" transform="translate(270.44 -231.11)"/><path class="c" d="M-210.3,270.16a3.33,3.33,0,0,0-2.63-3.23c1.06,1.18,1.32,2.94,2.65,3.93C-210.31,270.64-210.28,270.4-210.3,270.16Z" transform="translate(270.44 -231.11)"/><path class="c" d="M-210.28,270.87l0,0,0,0Z" transform="translate(270.44 -231.11)"/><path class="c" d="M-212.93,266.93a3.15,3.15,0,0,0-.57-.52l.24.5.08-.06Z" transform="translate(270.44 -231.11)"/><path class="c" d="M-208.92,268.52l.12.26C-208.68,268.62-208.77,268.56-208.92,268.52Z" transform="translate(270.44 -231.11)"/><path class="c" d="M-208.8,268.78a1.18,1.18,0,0,1-.3.29l.41-.07Z" transform="translate(270.44 -231.11)"/><path class="c" d="M-209,268.31l-.46,0,.07.15a4.67,4.67,0,0,0,.49.1A2,2,0,0,0-209,268.31Z" transform="translate(270.44 -231.11)"/></svg>