<svg xmlns="http://www.w3.org/2000/svg" viewBox="0 0 142.69 81.6"><defs><style>.a{fill:#fff;}</style></defs><path class="a" d="M233.78,204.85a6.72,6.72,0,0,1,2.07-2.75,3.76,3.76,0,0,1,2.91-.65c1.32.11,2.6.45,3.16,1.84,1,2.51.4,4.54-2.57,5.13a5.78,5.78,0,0,1-1.72.15,16.82,16.82,0,0,0,3.2,2.45c1.79,1,3.39.35,4.9-.66,1.71-1.16,3.07-2.76,4.81-3.87a10.11,10.11,0,0,1,9.55-.89,9.41,9.41,0,0,1,5,4.1,5.33,5.33,0,0,1,.82,2.65q0,11.43,0,22.87c0,.58-.14.82-.71,1a9.69,9.69,0,0,0-4.9,3.62c-.74,1-.88.94-2,.38a25.21,25.21,0,0,0-5.38-2,19.08,19.08,0,0,0-4.76-.63,21.71,21.71,0,0,0-7.91,1.66,30.22,30.22,0,0,0-6,3.31c-.93.07-.28-.64-.47-.93a1.14,1.14,0,0,0,.25-.18A26,26,0,0,1,240,235a.8.8,0,0,0,.33-.73q0-9.53,0-19.05a.6.6,0,0,0-.31-.63,20.55,20.55,0,0,1-2.1-1.5,14.37,14.37,0,0,1-4.11-4.7Zm25.31,28.42v-1c0-5.94,0-11.88,0-17.83a4.9,4.9,0,0,0-4.91-4.95,4.54,4.54,0,0,0-4.81,4.68c-.18,5.68-.05,11.37-.07,17.06,0,.5.17.61.63.59A24.63,24.63,0,0,1,259.09,233.27Zm-16.55-17.52v17.43a1.39,1.39,0,0,0,.72-1.44q0-7.56,0-15.11C243.27,216.08,243.18,215.74,242.54,215.75Z" transform="translate(-233.74 -160.96)"/><path class="a" d="M342.45,215.12a10.52,10.52,0,0,1,5.2-2.86,5.78,5.78,0,0,1,5.24,1.4,11.58,11.58,0,0,1,3.53,7.71,16.46,16.46,0,0,1-3.73,12.11A22,22,0,0,1,343,240.4c-.51.19-.78.27-1.21-.26a12.93,12.93,0,0,0-4-3.46,4.24,4.24,0,0,0-4.52.43,18.15,18.15,0,0,0-3.52,3.08c-.41.43-.59.33-.92-.1a35.71,35.71,0,0,0-3.35-3.61c-.57-.55-1-.07-1.49.16a23,23,0,0,0-5.15,3.9c-.2.18-.3.33-.59.06-1.83-1.7-3.56-3.54-6-4.41-.23-.08-.16-.19-.09-.34.9-1.94.67-4,.68-6,0-2.71,0-5.43,0-8.14a5.33,5.33,0,0,0-1-3.14c-.37-.51-.35-1,.2-1.3a14,14,0,0,0,4.73-5.19c0-.07.11-.11.2-.2.68.9,1.35,1.78,2,2.68a18.68,18.68,0,0,0,2.37,2.8c.41.37.4.65,0,1a8.86,8.86,0,0,0-.89.95,5.16,5.16,0,0,0-1.12,3.62c.08,2.46.11,4.92,0,7.37a3.92,3.92,0,0,0,1.25,3.05c.87.93.92.93,2,.19a14.57,14.57,0,0,0,1.38-.94,2.57,2.57,0,0,0,1.15-2.2c-.1-2.82-.07-5.64,0-8.45a4.26,4.26,0,0,0-2-3.73c-.16-.12-.4-.13-.51-.41a25.36,25.36,0,0,0,4.55-5.72,3.57,3.57,0,0,1,1.11,1.39,13.39,13.39,0,0,0,3.59,3.72,1,1,0,0,1,.41,1.4,8.25,8.25,0,0,0-.53,3.45c0,3,0,6.05,0,9.07a3.44,3.44,0,0,0,1.69,2.92c.82.58,2.33-.41,2.35-1.51s0-2.07,0-3.11c0-6.07,0-12.15,0-18.22a4.4,4.4,0,0,0-2.1-3.69c-.22-.15-.59-.24-.15-.57a13,13,0,0,0,3.05-3.67c.3-.47.55-1,.82-1.45s.58-.47.88,0a19.94,19.94,0,0,0,2.85,3.67,4.24,4.24,0,0,0,.65.54,5.86,5.86,0,0,1,1.09.95c.39.43-.34.8-.3,1.28,0,.11-.1.23-.1.35C342.45,210.71,342.45,212.85,342.45,215.12Zm8.27,10.12a12.56,12.56,0,0,0-2.06-6.57,3.17,3.17,0,0,0-3.34-1.52,4.13,4.13,0,0,0-2.43,3.3c.08,3.57,0,7.14,0,10.7a1.08,1.08,0,0,0,.12.74A6.55,6.55,0,0,0,345.4,234a.68.68,0,0,0,.76,0,8,8,0,0,0,1.65-1.69A11.21,11.21,0,0,0,350.72,225.24Z" transform="translate(-233.74 -160.96)"/><path class="a" d="M275.61,240.7A20.19,20.19,0,0,0,271.5,237a6.74,6.74,0,0,0-1.79-.82c-.43-.11-.54-.33-.54-.75,0-2.93,0-5.85,0-8.77,0-.89.72-1.07,1.18-1.47,1.54-1.32,3.16-2.56,4.74-3.85.25-.21.38-.21.62,0,.83.71,1.69,1.4,2.55,2.08.21.16.49.41.69.37s.09-.45.18-.67A3,3,0,0,0,279,221a1.76,1.76,0,0,0-1.92-1.4,13.2,13.2,0,0,1-4.76-.31c-1.91-.62-3.59-1.79-3.41-4.27a4.33,4.33,0,0,1,.11-1.52,2.64,2.64,0,0,1,2.66-1.51,2.74,2.74,0,0,1,2.51,2.45,2.24,2.24,0,0,1-.38,1.68c-.28.37-.13.43.18.58a1.3,1.3,0,0,0,1,0,8,8,0,0,0,3.1-1.87,17.75,17.75,0,0,0,2.38-2.52c.28-.41.5-.35.75.06a16.41,16.41,0,0,0,5,5.19c.25.17.2.26,0,.46a4.71,4.71,0,0,0-.88,3.24c0,3.56,0,7.13,0,10.7a3.34,3.34,0,0,0,1.66,2.77c.84.56,2,0,2.69-1.22a3.26,3.26,0,0,0,.47-1.73c0-3.39-.06-6.78,0-10.16a5.7,5.7,0,0,0-1.28-3.51c-.24-.33-.32-.48,0-.8a35.82,35.82,0,0,0,4.46-5.06A.73.73,0,0,1,294,212q4.58,0,9.16,0a1,1,0,0,1,.73.34l4.55,4.41a5.24,5.24,0,0,0,.54.42c.48.37,1,.7.3,1.44a2.65,2.65,0,0,0-.53,1.94c.09,4.28.19,8.56.16,12.85a3.74,3.74,0,0,0,1.54,2.59,23.77,23.77,0,0,0-2.67,2.64,11.83,11.83,0,0,0-1,1.41c-.27.51-.47.64-.94.16-1.29-1.29-2.62-2.55-4-3.8-.37-.35-.54-.63-.11-1.08a2,2,0,0,0,.5-1.63c-.05-.69,0-1.39,0-2.09,0-2.78.24-5.56.18-8.35a3.73,3.73,0,0,0-.73-2.27,8.12,8.12,0,0,0-1.95-1.93.85.85,0,0,0-1.1.08A7.6,7.6,0,0,0,297,221a3.45,3.45,0,0,0-.47,1.81c0,3.08,0,6.16,0,9.23a3.36,3.36,0,0,0,.72,2.12,7.27,7.27,0,0,0,1.17,1.31c.45.39.43.65,0,1a15.22,15.22,0,0,0-3.69,4.25,33.44,33.44,0,0,0-3.85-3.95,1.2,1.2,0,0,0-1.45-.16,16.66,16.66,0,0,0-3,2.08,18.41,18.41,0,0,0-1.55,1.38c-.74.71-.77.73-1.4-.11a15.68,15.68,0,0,0-2.83-2.81.85.85,0,0,0-1.27,0C278,238.21,276.87,239.45,275.61,240.7ZM278.1,227c-.93.51-1.54,1.45-2.44,2.05a1,1,0,0,0-.44.92c0,1.11,0,2.22,0,3.33a1,1,0,0,0,.51.93c1.36.86,1.35.88,2.64,0a2,2,0,0,1,.25-.18.79.79,0,0,0,.49-.86c0-1.35-.05-2.69,0-4C279.16,228.19,279.16,227.33,278.1,227Z" transform="translate(-233.74 -160.96)"/><path class="a" d="M310,181.68c0,2.38,0,4.76,0,7.14a1.08,1.08,0,0,1-.59,1.06,12.11,12.11,0,0,0-3.42,3.27,1,1,0,0,1-1,.53c-2.2,0-4.4,0-6.6,0-.53,0-.73.12-.69.68a18.7,18.7,0,0,0,0,2.25c.37,2-.74,3.09-2.15,4.14-.84.63-1.51,1.47-2.32,2.15a1.41,1.41,0,0,1-1.75.33,31.65,31.65,0,0,1-6.38-3.63,3.5,3.5,0,0,1-.92-.92c-.15-.23-.29-.51-.08-.78a.64.64,0,0,1,.78-.12c1,.31,1.91.68,2.88,1,.66.19,1.33.65,2,.26a5.33,5.33,0,0,0,2.65-2.54,7.12,7.12,0,0,0,.09-2.53c0-.27-.23-.24-.4-.23a22.75,22.75,0,0,1-5.07-.61,4.11,4.11,0,0,1-3.37-3.86c0-4.16,0-8.32,0-12.49a1.74,1.74,0,0,1,.84-1.62c2.26-1.62,4.51-3.27,6.77-4.91a.71.71,0,0,1,1.06.06c1.64,1.46,3.33,2.85,5,4.26a1.26,1.26,0,0,1,.48,1.06c0,3.78,0,7.55,0,11.33,0,.55.09.76.7.74,1.89,0,3.78,0,5.67,0,.52,0,.64-.16.63-.65,0-3.37,0-6.73,0-10.09,0-.78-.54-1.11-1-1.45-.77-.59-1.36-1.34-2.07-2-.22-.19-.28-.35,0-.57,1.13-1,2.25-1.93,3.38-2.88.21-.19.45-.11.7,0a9.64,9.64,0,0,1,1.28,1.1c.89.77,1.75,1.58,2.64,2.36.25.22.2.51.2.78Zm-17.55,1.71a29.33,29.33,0,0,0,0-3.25c-.11-.91.15-2-.86-2.64-.39-.24-.75-.52-1.11-.79a.26.26,0,0,0-.28-.06,3.29,3.29,0,0,0-1.3,1.88c0,2.24,0,4.47.14,6.71.13,2.49-.49,2.4,2.42,2.39.85,0,1-.16,1-1.06C292.47,185.51,292.46,184.45,292.46,183.39Z" transform="translate(-233.74 -160.96)"/><path class="a" d="M340.26,165.35a31.78,31.78,0,0,0,3.44-3.1,5.89,5.89,0,0,0,.42-.45c.49-.66.72-.73,1.19-.08a17.26,17.26,0,0,0,3.68,3.66c.32.24.32.43,0,.73a2,2,0,0,0-.52,1.47q0,9.34,0,18.7a2.85,2.85,0,0,0,.79,2.15c.43.4.29.57,0,.82-1,.81-2,1.68-3,2.48a15.27,15.27,0,0,0-1.83,2c-.33.37-.43.24-.67,0a29.19,29.19,0,0,0-4-3.41,5.62,5.62,0,0,0-.9-.56,1.19,1.19,0,0,0-1.27,0,23.15,23.15,0,0,0-4,3.69c-.37.39-.74.67-1.33.39a19.57,19.57,0,0,1-5.73-3.57,2,2,0,0,1-.35-.41c-.19-.31-.35-.68-.08-1s.63-.12.9,0a3.72,3.72,0,0,0,4.76-1.23,1.75,1.75,0,0,0,.29-1c0-2.41,0-4.81,0-7.22,0-1-.81-1.49-1.52-1.93s-1.33,0-1.89.41a12.27,12.27,0,0,0-1.1.95.73.73,0,0,1-.85.16.7.7,0,0,1-.39-.77,3.69,3.69,0,0,1,1-1.92,20.91,20.91,0,0,1,4.23-4.12c1.84-1.26,2.47-1.21,4.18.2.95.79,1.82,1.67,2.69,2.54.46.46.74.92.1,1.49a1.16,1.16,0,0,0-.25.94c0,3,0,6,0,9a3.1,3.1,0,0,0,2.5,2.59c.62,0,.91-.64,1.27-1.05a3.76,3.76,0,0,0,.92-2.63q-.1-8.25,0-16.52a3.14,3.14,0,0,0-1.38-2.56C341.18,165.91,340.73,165.67,340.26,165.35Z" transform="translate(-233.74 -160.96)"/><path class="a" d="M376.43,231.07v1.56a20.91,20.91,0,0,1-3.16,2.3,44.15,44.15,0,0,0-6,5.26c-.3.32-.46.37-.86.05a27.73,27.73,0,0,0-5-3.33A10.61,10.61,0,0,0,359,236a.62.62,0,0,1-.58-.72q0-9.24,0-18.46a1.32,1.32,0,0,1,.45-1,18.38,18.38,0,0,1,5.95-3.74,2.75,2.75,0,0,1,1.52-.09,9.49,9.49,0,0,1,7.18,7.72,10.53,10.53,0,0,1-2.61,8.58,23.86,23.86,0,0,1-5.13,4.44c-.35.24-.46.27-.05.59.68.53,1.4,1,2.11,1.48.3.2.49.07.7,0a14.34,14.34,0,0,0,2.63-1.95c.84-.71,1.64-1.47,2.5-2.15C374.7,229.87,375.14,230,376.43,231.07Zm-11.29-12.92v10.34c2-.67,3-3.07,3.07-5.35S366.83,218.7,365.14,218.15Z" transform="translate(-233.74 -160.96)"/><path class="a" d="M263.61,193.68c-2.59,0-5.17,0-7.76,0a6.73,6.73,0,0,1-3.62-1.44,9.13,9.13,0,0,1-2.58-2.49,3.76,3.76,0,0,1-.64-2,18.55,18.55,0,0,1,1.22-8.56,23.7,23.7,0,0,1,2.7-5.16,1.17,1.17,0,0,1,1.43-.57c.65.25.87.6.54,1.2-.51.93-1.11,1.81-1.65,2.73a6.29,6.29,0,0,0,.53,7.5,9.24,9.24,0,0,0,4.07,2.66,1.75,1.75,0,0,0,.68.06h11.18c1.06,0,1.49-.42,1.49-1.45,0-2.77-.06-5.53,0-8.3a4.32,4.32,0,0,0-.88-2.3,8.53,8.53,0,0,0-1.44-2c-.31-.29-.36-.57,0-.86,1.11-.84,2.23-1.68,3.31-2.56.28-.23.4-.16.6.05q1.8,1.94,3.4,4a1.36,1.36,0,0,1,.25.86q0,6.83,0,13.66a.62.62,0,0,1-.37.66,7.47,7.47,0,0,0-3.32,3.55,1.06,1.06,0,0,1-1.11.68C269,193.66,266.3,193.68,263.61,193.68Z" transform="translate(-233.74 -160.96)"/><path class="a" d="M317,177.47c0-2.79-.06-5.59,0-8.38a4.42,4.42,0,0,0-2.16-3.24c-.53-.18-.5-.43-.09-.75a20.6,20.6,0,0,0,3.54-3.38c.31-.41.58-.39.94,0a45.92,45.92,0,0,0,3.9,3.61c.37.3.52.52,0,.92a2,2,0,0,0-.74,1.68c0,4.58,0,9.15,0,13.73a29.64,29.64,0,0,1-.16,3.77,3.36,3.36,0,0,0,1.3,3.11c.52.44.42.66-.14,1a11.43,11.43,0,0,0-3.34,3,5.82,5.82,0,0,1-1.47,1.2,1,1,0,0,1-1.34-.14,36.62,36.62,0,0,0-4.42-3.93,1,1,0,0,1-.34-.41.5.5,0,0,1,.05-.43c.09-.14.22,0,.33.06a1.32,1.32,0,0,1,.3.07c1.39.86,2,.19,2.76-.65a3.47,3.47,0,0,0,1.06-2.65C316.93,182.9,317,180.18,317,177.47Z" transform="translate(-233.74 -160.96)"/><path class="a" d="M358.6,177c0,3.18,0,6.36,0,9.54a2.75,2.75,0,0,0,1.17,2.28l.59.47c.82.72.86.78,0,1.44a19.46,19.46,0,0,0-2.82,2.92c-.18.22-.24.18-.4.05s-.5-.36-.72-.56c-1.42-1.33-2.62-2.9-4.35-3.89-.28-.16-.24-.33,0-.59a5.42,5.42,0,0,0,1-3.51c0-5.32-.07-10.65,0-16a3.68,3.68,0,0,0-2-3.27c-.57-.38-.56-.56-.1-1,1.16-1.06,2.29-2.15,3.41-3.25.34-.34.57-.31.89,0,1,1.07,2.06,2.18,3.19,3.16.66.58,1.07,1,.24,1.71-.12.11-.08.44-.08.67Z" transform="translate(-233.74 -160.96)"/><path class="a" d="M265.42,199.3a27.42,27.42,0,0,1-2.82,3.06c-.34.36-.59.42-.94,0a35.74,35.74,0,0,1-2.54-2.68c-.25-.34-.19-.52.07-.78l2.19-2.18c.57-.57.87-.58,1.47,0C263.72,197.59,264.57,198.45,265.42,199.3Z" transform="translate(-233.74 -160.96)"/><path class="a" d="M305.35,161h.47c.86.88,1.71,1.78,2.6,2.64.37.37.44.62,0,1-.83.77-1.63,1.58-2.42,2.4-.27.29-.44.32-.73,0-.86-.9-1.74-1.78-2.63-2.63-.32-.3-.25-.47,0-.74C303.59,162.77,304.47,161.86,305.35,161Z" transform="translate(-233.74 -160.96)"/></svg>