<svg xmlns="http://www.w3.org/2000/svg" viewBox="0 0 144.47 124.83"><defs><style>.a{fill:#119d46;}</style></defs><path class="a" d="M206.12,266.24c-9.45,0-18.88-.33-28.3-1.15-7-.61-14-1.54-21-2.71a120.06,120.06,0,0,1-15.6-3.5c-8.9-2.73-12.93-11.55-9.87-20.88,3.76-11.45,9.56-21.9,15.68-32.21,11.71-19.72,25.63-37.82,40.45-55.26a34.37,34.37,0,0,1,6.92-6.43c5.2-3.52,10.08-3.63,15.28-.09,4.67,3.18,8.17,7.6,11.91,11.75A220.07,220.07,0,0,1,237,175c10.5,14.66,20.51,29.62,28.37,45.92,3.22,6.68,6.5,13.36,8.56,20.5,1.59,5.52,1.47,11-2.95,15.51-2.27,2.3-5.33,2.93-8.36,3.48q-15.27,2.76-30.73,4.29C223.29,265.54,214.71,266.08,206.12,266.24ZM202,251V251c5.61,0,11.22,0,16.83,0,11.71,0,23.42,0,35.13,0a8.56,8.56,0,0,0,8.94-8.06,13,13,0,0,0-2.51-8.76q-12.85-19.38-25.72-38.76-12-18.09-24-36.16c-2.49-3.74-5.87-5.6-10.39-4.9-3.53.54-5.71,2.94-7.58,5.77q-9.57,14.43-19.23,28.81-14.94,22.37-29.93,44.72a13.22,13.22,0,0,0-2.54,8.29c.23,4.28,4.47,9,8.16,9Z" transform="translate(-130.34 -141.4)"/><path class="a" d="M202.1,249.21q-25.33,0-50.67,0c-4.42,0-7.7-2.14-8.56-5.71a10.22,10.22,0,0,1,1.74-8.34L154.75,220l39.93-59.74c3.88-5.81,10.68-5.75,14.53.06q19.83,30,39.72,59.86,5.15,7.76,10.29,15.5a12.3,12.3,0,0,1,1.94,4.88,7.35,7.35,0,0,1-6.58,8.83,42.17,42.17,0,0,1-5.84,0H202.1Zm13.74-16.34h0c0-3.65,0-7.31,0-11,0-.7.17-1.58-.91-1.67-4.1-.36-8-2.1-12.25-1.47-2,.29-4-.11-6,.09-2.49.25-5.14-1-7.51,1.23-.7.66-1.41.93-1.41,2,0,7.12-.06,14.24-.06,21.37,0,2.55.86,3.4,3.39,3.41q10.5.06,21,.09c2.88,0,3.76-.91,3.77-3.86C215.85,239.69,215.84,236.28,215.84,232.87Zm-44.2,14c3.54,0,7.07,0,10.6,0,2.52,0,3.49-1,3.51-3.57,0-6.15,0-12.3.09-18.45a2.57,2.57,0,0,0-1.59-2.58c-1.26-.64-2.78-1.3-3.33-2.55-.42-1-.85-.95-1.55-.95-6.21,0-12.42,0-18.63,0-2.09,0-3.06.9-3.08,3-.09,7.18-.16,14.36-.17,21.55,0,2.5,1.07,3.54,3.56,3.56C164.58,246.9,168.11,246.87,171.64,246.88Zm74.25-14V222.45c0-2.63-.93-3.57-3.64-3.58q-8.22,0-16.45,0c-2.35,0-4.75-.54-6.8,1.4-.6.56-1.16.84-1.17,1.76,0,7.31-.07,14.62-.06,21.93,0,2.06,1,3,3.07,3q10.88.07,21.75.08c2.34,0,3.29-1,3.3-3.39C245.91,240.06,245.89,236.46,245.89,232.87Zm-42.33-66.18c-2.36.24-4.56.38-6.72.71a6.27,6.27,0,0,0-4.73,3.63c-2.54,5-2.3,6.71,1.58,10.75.38.4.73.82,1.13,1.19a3.6,3.6,0,0,0,6.13-1.29c.2-.48.36-1.31,1-1.09,1.69.59,1.59-.54,1.52-1.49-.11-1.67.82-2.56,2.11-3.3a19.32,19.32,0,0,0,2.6-1.64,3.46,3.46,0,0,0,.72-4.86C207.6,167.25,205.58,166.78,203.56,166.69Zm-1.88,37.82a11.4,11.4,0,0,0-5.17,1.35c-1.16.7-1.14,2.11-1.76,3.07-1.4,2.14-.76,4.07,0,6,.44,1.11,1,2.43,2.34,2.6s1.74-1.28,2.43-2.16a2,2,0,0,0,.28-.47c.37-.95.9-1,1.66-.39a11.84,11.84,0,0,0,4.39,1.71c1.85.47,4.23-.28,5.29,2.17.07.15.44.17.67.26,2,.77,4.13.64,6.21.84,1.07.11,2.75-2.19,2.63-3.29,0-.29-.16-.51-.41-.48-1.69.23-3-1-4.47-1.29a13.29,13.29,0,0,1-7.36-4.73c-1.1-1.29-2.34-2.48-3.43-3.78A3.74,3.74,0,0,0,201.68,204.51ZM189.54,219c-1.82-2.06-1.73-2,0-4.09s4-4.35,4.56-7.33a3.5,3.5,0,0,1,1.22-2.13c3.44-2.87,4.74-7,6.56-10.85a5,5,0,0,0,.22-2,3.12,3.12,0,0,0-2.14-2.91,3,3,0,0,0-3.26.51,6.69,6.69,0,0,0-2,3.59c-1.24,4-3.54,7.65-4.55,11.77a.79.79,0,0,1-.19.31,31.19,31.19,0,0,0-4.12,6.64,14,14,0,0,1-2.77,4.16c-1.78,1.68-1.58,2.43.47,3.91.92.66,1.9,1.23,2.91,1.88C186.69,219.5,186.69,219.5,189.54,219Zm17.56-17.7c.27,8,4.59,11.84,11.59,13.27.07-.75-.51-1-.94-1.24-3.48-1.78-4.78-4.65-4.9-8.48-.09-3.26-.33-6.58-1.87-9.6a3.53,3.53,0,0,0-3.85-2.13c-1.77.24-1.93,1.86-2.16,3.2-.36,2.12.27,4.36-.76,6.43a.76.76,0,0,0,.24,1c.39.23.71-.11.94-.35C205.87,202.85,206.29,202.28,207.1,201.28ZM198,204a16.25,16.25,0,0,1,3.17-.44c1.36.11,1.86-.47,2.3-1.69.84-2.37,0-4.87.79-7.2.56-1.72-.09-3.17-.88-4.63a9.91,9.91,0,0,0-2.11-2.13c-2.76-2.72-4.91-2.27-6.93-.3-5,4.85-6.87,11-7.63,17.67-.14,1.19.44,1.27,1.26.77a3.09,3.09,0,0,0,1.31-1.21q1.94-5.16,4-10.25a23.66,23.66,0,0,1,1.69-4c1.3-2,2.64-2.55,4.58-1.94,2.58.81,3.46,2,3.46,4.51a8.24,8.24,0,0,1-.77,3.14C201.23,198.92,200.32,201.63,198,204Zm5.71-15.7c.18-1,.27-1.72.45-2.42a3.1,3.1,0,0,1,2.14-2.49c5.37-1.61,4.66-2.72,4.47-6.44,0-.3.14-.63.06-.9-.23-.87-.75-1.62-1.74-1.41-2,.44-4.71,3.66-4.91,5.76-.09.88-.1,1.63-1.41,1.59-1.05,0-.89.7-.39,1.36.26.35,1,.17.94.9-1.1,1-2.83-1.09-3.83.83C201.26,185.64,202.27,187.08,203.75,188.28ZM195,217.63a11.31,11.31,0,0,0-1-1.63c-.71-.88-.25-2.76-1.56-2.8-1.11,0-1.5,1.73-2.46,2.45a.92.92,0,0,0-.24.28c-.47.77-.39,1.35.57,1.65A7.39,7.39,0,0,0,195,217.63Z" transform="translate(-130.34 -141.4)"/><path class="a" d="M196.83,232.79c0-2.49.07-5,0-7.48-.05-1.26.41-1.49,1.55-1.53,1.29,0,1.46.5,1.44,1.6-.07,4,0,8-.1,12,0,1.31.42,1.73,1.67,1.63s2.43,0,3.65,0,1.23.59,1.25,1.49-.3,1.31-1.26,1.28q-3.56-.14-7.11-.15c-.88,0-1.13-.31-1.11-1.18.06-2.56,0-5.11,0-7.67Z" transform="translate(-130.34 -141.4)"/><path class="a" d="M166.13,232.93c0-2.5.05-5,0-7.49,0-1.07.19-1.51,1.39-1.46,2.43.1,4.87,0,7.31,0,.66,0,1.36-.15,1.21,1-.12.86.1,1.71-1.28,1.6s-2.8,0-4.2,0c-1.09-.06-1.48.3-1.49,1.44,0,3-.09,3,2.85,3,1,0,2,0,2.93,0s1.4.31,1.42,1.36-.58,1.27-1.49,1.24a15.71,15.71,0,0,0-4.55.07c-2.42.69-.65,2.85-1.1,4.29-.27.88.09,1.48,1.23,1.41,1.58-.09,3.17,0,4.75,0,.88,0,1.19.3,1.14,1.17s0,1.48-1.1,1.47c-2.68,0-5.36,0-8,0-1,0-1-.66-1-1.34C166.14,238.05,166.13,235.49,166.13,232.93Z" transform="translate(-130.34 -141.4)"/><path class="a" d="M238.54,237.61c.45,3.34.14,3.73-3.39,4.53a9.66,9.66,0,0,1-10.75-5.31c-1.81-4.12-.41-9.44,3.31-11.82,3.15-2,6.51-2,9.93-.53,1.76.75,1.29,2.07,1.14,3.59-4-2.31-7.92-3.25-11.05,1.12-1.73,2.4-1.21,6.33.82,8.47C230.75,240,233.77,240,238.54,237.61Z" transform="translate(-130.34 -141.4)"/><path class="a" d="M244.51,222.76a2.37,2.37,0,0,1-2.49,2.68,2.6,2.6,0,0,1-2.65-2.62,2.53,2.53,0,0,1,2.51-2.56A2.31,2.31,0,0,1,244.51,222.76Zm-1.16,1.56a1.46,1.46,0,0,0,.51-2.3c-.58-.71-1.51-.34-2.41.3,1.69-.56,1.55.49,1.6,1.4,0,.22.21.42.33.63-.37,0-.88,0-1-.39-.34-1.64-1.16.7-1.54-.21-.06.14-.19.3-.17.44.1.71.72.75,1.24.79A1.44,1.44,0,0,0,243.35,224.32Z" transform="translate(-130.34 -141.4)"/></svg>