<svg xmlns="http://www.w3.org/2000/svg" viewBox="0 0 130.97 113.17"><defs><style>.a{fill:#fff;}</style></defs><path class="a" d="M278.85,307.29c-8.56,0-17.11-.3-25.65-1-6.38-.56-12.72-1.4-19-2.45A110.43,110.43,0,0,1,220,300.62c-8.06-2.48-11.72-10.48-8.94-18.93,3.41-10.38,8.67-19.86,14.22-29.2,10.61-17.88,23.23-34.29,36.66-50.1a31.32,31.32,0,0,1,6.28-5.83c4.71-3.19,9.14-3.29,13.85-.08,4.24,2.88,7.41,6.89,10.8,10.65a199.55,199.55,0,0,1,13.92,17.44c9.52,13.29,18.59,26.86,25.71,41.63,2.92,6.06,5.91,12.12,7.77,18.59,1.44,5,1.33,10-2.68,14.06-2.05,2.09-4.83,2.66-7.57,3.15q-13.86,2.52-27.87,3.9C294.42,306.65,286.65,307.15,278.85,307.29Zm-3.77-13.85v.05h15.26c10.61,0,21.23.05,31.84,0a7.76,7.76,0,0,0,8.11-7.31,11.82,11.82,0,0,0-2.27-7.94l-23.33-35.14q-10.87-16.39-21.78-32.78c-2.25-3.39-5.32-5.08-9.42-4.45-3.2.49-5.17,2.67-6.87,5.23q-8.69,13.1-17.43,26.13-13.56,20.28-27.14,40.53a12,12,0,0,0-2.3,7.53c.21,3.87,4.05,8.11,7.4,8.11Z" transform="translate(-210.16 -194.12)"/><path class="a" d="M276.54,217c-2.15.22-4.13.35-6.09.65a5.65,5.65,0,0,0-4.29,3.28c-2.31,4.53-2.09,6.09,1.43,9.75.35.36.66.74,1,1.08a3.27,3.27,0,0,0,5.56-1.17c.18-.44.33-1.19.9-1,1.53.53,1.44-.49,1.38-1.35-.11-1.51.74-2.32,1.9-3a17.5,17.5,0,0,0,2.37-1.49,3.14,3.14,0,0,0,.64-4.41C280.2,217.55,278.37,217.12,276.54,217Zm-1.71,34.28a10.24,10.24,0,0,0-4.68,1.24c-1.06.63-1,1.91-1.6,2.77-1.27,1.94-.69,3.7,0,5.48.4,1,.92,2.21,2.13,2.36s1.58-1.17,2.2-2a1.67,1.67,0,0,0,.25-.43c.34-.86.82-.87,1.51-.35a10.88,10.88,0,0,0,4,1.55c1.68.42,3.83-.26,4.8,2,.06.14.4.15.6.23,1.82.7,3.75.59,5.63.77,1,.09,2.5-2,2.39-3,0-.26-.15-.46-.37-.43-1.53.21-2.68-.88-4.06-1.17a12.05,12.05,0,0,1-6.67-4.29c-1-1.17-2.12-2.25-3.11-3.43A3.4,3.4,0,0,0,274.83,251.32Zm-11,13.12c-1.66-1.86-1.57-1.79,0-3.7s3.59-3.94,4.14-6.65a3.21,3.21,0,0,1,1.1-1.93c3.12-2.6,4.3-6.36,5.95-9.83a4.65,4.65,0,0,0,.2-1.8,2.83,2.83,0,0,0-1.94-2.64,2.73,2.73,0,0,0-3,.46,6.13,6.13,0,0,0-1.83,3.26c-1.12,3.65-3.21,6.93-4.12,10.67a.79.79,0,0,1-.18.28,28.53,28.53,0,0,0-3.73,6,12.74,12.74,0,0,1-2.51,3.77c-1.61,1.52-1.44,2.2.42,3.54.84.61,1.73,1.13,2.64,1.71C261.24,264.92,261.24,264.92,263.83,264.44Zm15.91-16c.25,7.23,4.17,10.74,10.51,12,.07-.68-.46-.92-.85-1.12-3.15-1.62-4.34-4.22-4.44-7.7-.09-3-.3-6-1.69-8.7a3.21,3.21,0,0,0-3.5-1.93c-1.6.22-1.75,1.69-1.95,2.9-.33,1.93.24,4-.7,5.83a.7.7,0,0,0,.22.89c.36.21.65-.1.86-.32C278.63,249.82,279,249.31,279.74,248.4Zm-8.21,2.45a14.31,14.31,0,0,1,2.88-.4c1.23.1,1.68-.43,2.08-1.54.76-2.14,0-4.41.72-6.52.51-1.56-.08-2.88-.8-4.2a8.58,8.58,0,0,0-1.92-1.93c-2.5-2.47-4.44-2.06-6.27-.28-4.53,4.41-6.24,10-6.93,16-.12,1.07.41,1.15,1.15.69a2.81,2.81,0,0,0,1.19-1.09q1.75-4.68,3.65-9.3a21.16,21.16,0,0,1,1.53-3.6c1.18-1.84,2.4-2.31,4.15-1.76,2.34.73,3.14,1.81,3.14,4.09a7.12,7.12,0,0,1-.7,2.84C274.43,246.26,273.6,248.71,271.53,250.85Zm5.17-14.23c.17-.91.26-1.57.42-2.2a2.8,2.8,0,0,1,1.94-2.26c4.86-1.46,4.22-2.46,4.05-5.84a4.55,4.55,0,0,0,.06-.81c-.22-.79-.68-1.47-1.58-1.28-1.84.4-4.27,3.32-4.46,5.22-.07.8-.08,1.48-1.27,1.44-.95,0-.81.64-.36,1.23.24.32.95.16.86.82-1,.92-2.57-1-3.47.75C274.45,234.22,275.37,235.52,276.7,236.62Zm-7.93,26.6a11.65,11.65,0,0,0-.87-1.47c-.65-.8-.23-2.51-1.42-2.54-1,0-1.36,1.56-2.23,2.22a1,1,0,0,0-.22.25c-.42.7-.35,1.23.52,1.5A6.76,6.76,0,0,0,268.77,263.22Z" transform="translate(-210.16 -194.12)"/><path class="a" d="M270.44,277c0-2.26.06-4.53,0-6.79-.05-1.13.37-1.34,1.4-1.38s1.33.45,1.31,1.45c-.06,3.64,0,7.28-.09,10.92,0,1.18.38,1.56,1.51,1.48s2.21,0,3.31,0,1.12.53,1.13,1.35-.26,1.18-1.14,1.15q-3.22-.12-6.45-.13c-.8,0-1-.28-1-1.07.06-2.32,0-4.64,0-6.95Z" transform="translate(-210.16 -194.12)"/><path class="a" d="M242.61,277.09c0-2.26,0-4.53,0-6.79,0-1,.17-1.37,1.25-1.32,2.21.09,4.42,0,6.63,0,.6,0,1.23-.14,1.1.89-.11.78.09,1.56-1.16,1.46s-2.54,0-3.81,0c-1-.05-1.34.27-1.35,1.3,0,2.71-.08,2.71,2.59,2.71.88,0,1.77,0,2.65,0s1.27.28,1.29,1.23-.53,1.15-1.35,1.12a14.59,14.59,0,0,0-4.13.07c-2.19.62-.59,2.58-1,3.89-.25.79.07,1.33,1.11,1.28,1.43-.08,2.87,0,4.31,0,.8,0,1.07.27,1,1.05s0,1.35-1,1.34c-2.43,0-4.87,0-7.3,0-.94,0-.87-.6-.87-1.22Q242.62,280.57,242.61,277.09Z" transform="translate(-210.16 -194.12)"/><path class="a" d="M308.25,281.33c.41,3,.13,3.39-3.07,4.11a8.74,8.74,0,0,1-9.75-4.81,8.85,8.85,0,0,1,3-10.72,9.16,9.16,0,0,1,9-.48c1.59.68,1.17,1.88,1,3.26-3.62-2.1-7.18-2.95-10,1-1.57,2.18-1.09,5.74.75,7.68C301.19,283.48,303.93,283.48,308.25,281.33Z" transform="translate(-210.16 -194.12)"/><path class="a" d="M313.66,267.88a2.14,2.14,0,0,1-2.25,2.42,2.37,2.37,0,0,1-2.41-2.37,2.3,2.3,0,0,1,2.27-2.32A2.1,2.1,0,0,1,313.66,267.88Zm-1.05,1.4a1.32,1.32,0,0,0,.46-2.08c-.52-.64-1.37-.31-2.18.27,1.53-.5,1.4.44,1.45,1.27,0,.2.19.38.29.57-.32,0-.79,0-.86-.35-.31-1.48-1,.63-1.4-.19-.06.13-.17.27-.15.39.09.65.65.69,1.12.73A1.31,1.31,0,0,0,312.61,269.28Z" transform="translate(-210.16 -194.12)"/></svg>