<svg xmlns="http://www.w3.org/2000/svg" viewBox="0 0 272.21 71.57"><defs><style>.cls-1{fill:#fff;}</style></defs><g id="Layer_2" data-name="Layer 2"><g id="Layer_1-2" data-name="Layer 1"><g id="Group_227" data-name="Group 227"><g id="Group_224" data-name="Group 224"><g id="Group_222" data-name="Group 222"><path id="Path_556" data-name="Path 556" class="cls-1" d="M268.88,5a3.21,3.21,0,0,1,.69,0,1.14,1.14,0,0,1,.8.22.67.67,0,0,1,.22.53.73.73,0,0,1-.52.7v0a.69.69,0,0,1,.41.56,4.08,4.08,0,0,0,.21.76h-.37a3.9,3.9,0,0,1-.18-.67c-.09-.38-.24-.52-.56-.53h-.34v1.2h-.35Zm.36,1.26h.37c.38,0,.62-.2.62-.52s-.26-.52-.64-.52l-.35,0Z"/></g><g id="Group_223" data-name="Group 223"><path id="Path_557" data-name="Path 557" class="cls-1" d="M269.68,4a2.53,2.53,0,0,0-2.53,2.53h0A2.53,2.53,0,1,0,269.68,4Zm0,4.64a2.12,2.12,0,0,1-2.12-2.11h0a2.11,2.11,0,0,1,2.12-2.11h0a2.11,2.11,0,0,1,2.11,2.11h0a2.11,2.11,0,0,1-2.11,2.11Z"/></g></g><g id="Group_225" data-name="Group 225"><path id="Path_558" data-name="Path 558" class="cls-1" d="M152.51,45.59c-6.06,0-12.12,0-18.17,0a27.22,27.22,0,0,1-4.13-.29,6,6,0,0,1-1.91-1,1.52,1.52,0,0,0-1.88,0,7.85,7.85,0,0,1-4.94,1.65q-10.51,0-21,0a3.5,3.5,0,0,1-3.82-3.15c0-.11,0-.21,0-.32-.15-2.26,0-4.53,0-6.8q0-8.05,0-16.12c0-1.13-.08-2.27-.13-3.4,0-.8.23-1.24,1.13-1.06,1.1.22,2.22.36,3.31.62a1,1,0,0,1,.52.77q-.11,5.88-.27,11.77c-.1,3.28-.27,6.55-.3,9.83a7.2,7.2,0,0,0,.68,2.62,1.36,1.36,0,0,0,1,.57c1.75.09,3.5.1,5.25.1,4.15,0,8.31-.13,12.45,0a4.17,4.17,0,0,0,4.47-3.85,5.23,5.23,0,0,0,0-.56c-.15-4.08-.08-8.17-.1-12.25,0-.93.15-1,1.08-.89A21.38,21.38,0,0,0,129,24c1,0,1.12.34,1,1.19-.26,2.72-.49,5.43-.66,8.15-.1,1.53-.05,3.07-.06,4.6a1.4,1.4,0,0,0,.87,1.48,30.1,30.1,0,0,0,3.21,1.19c3.74,1,7.59.49,11.38.51,8.7,0,17.4,0,26.1,0a5.53,5.53,0,0,0,4-1.23A3.9,3.9,0,0,0,176,38a15.27,15.27,0,0,0,.06-3.31c0-.22-.24-.62-.38-.62a1.54,1.54,0,0,0-1,.27c-.68.51-1.28,1.13-2,1.64a5.13,5.13,0,0,1-3.55,1.16c-.57,0-1.16,0-1.75,0-3.74,0-5.95-2.3-7.86-5.16a10.79,10.79,0,0,1-1.54-5.39,11.91,11.91,0,0,1,3.61-10,9.23,9.23,0,0,1,7.93-2.25,7.59,7.59,0,0,1,5.12,2.5,1.13,1.13,0,0,0,1,.2c.22-.07.31-.52.46-.8a.28.28,0,0,0,0-.09c.11-1.74.11-1.75,1.86-1.65a20.39,20.39,0,0,1,2.21.2c.66.11,1.2.38.82,1.24a1.72,1.72,0,0,0-.12.63,155,155,0,0,0-.6,17.1,35.13,35.13,0,0,1-.09,5.23,6.87,6.87,0,0,1-4.15,5.88,10.18,10.18,0,0,1-4.36.8C165.36,45.63,158.93,45.59,152.51,45.59ZM169.41,33c.66,0,1.16,0,1.64-.09A4.78,4.78,0,0,0,174.4,31a8.6,8.6,0,0,0,1.7-6.33c-.42-2.71-1.5-5.08-4.21-6.25a6.41,6.41,0,0,0-8.38,3.29,9.29,9.29,0,0,0-.66,5.81c.53,2.95,3.5,5.79,6.57,5.45Z"/><path id="Path_559" data-name="Path 559" class="cls-1" d="M64.23,40.58h18a5.46,5.46,0,0,0,4.48-1.89,2.17,2.17,0,0,0,.45-1.23c0-3.26,0-6.51-.15-9.76a32.6,32.6,0,0,0-.5-3.55c-.09-.52.09-.73.62-.75,1.38-.07,2.76-.17,4.14-.26.66,0,.65.43.64.86,0,1.63-.06,3.26-.06,4.89,0,2.91.2,5.85-.08,8.74-.23,2.49-1.36,5.34-4.43,6.54a14.63,14.63,0,0,1-5.62,1.11c-5.62-.11-11.24-.2-16.87-.18-6.48,0-13,.2-19.44.19a14.55,14.55,0,0,1-3.91-.91c-.62-.18-1.14-.66-1.75-.88a1.41,1.41,0,0,0-1.12.08,9,9,0,0,1-5.5,1.81c-6.64-.06-13.28,0-19.92,0-1.43,0-1.5.09-1.5,1.53,0,1.26,0,2.52-.07,3.77a3.19,3.19,0,0,1-1.38,2.67,6.69,6.69,0,0,1-2.68.85,17.92,17.92,0,0,1-6.48-.59,1.49,1.49,0,0,1-.93-.87A9.91,9.91,0,0,1,0,50.33c0-.12.39-.35.57-.33,1,.12,1.94.31,2.91.48A2.88,2.88,0,0,0,7,48.39a2.33,2.33,0,0,0,.08-.46A53.52,53.52,0,0,0,7,38.29c-.09-1,0-2.08,0-3.13,0-3.43-.07-6.87-.15-10.31,0-.6.17-.82.74-.9,1-.16,2-.4,3.05-.59.77-.14,1.1.11,1.09,1-.09,4.79-.12,9.58-.17,14.37v.83c0,1.07.25,1.3,1.31,1.3,2.77,0,5.54,0,8.3,0,3.39,0,6.77,0,10.15,0,1.63,0,3.36,0,4.37-1.57a5.39,5.39,0,0,0,1-2.66c0-4.08-.12-8.16-.23-12.24,0-1,.15-1.17,1.16-1.11s2.21.14,3.32.16c.66,0,.87.17.8.92-.24,2.69-.36,5.39-.52,8.09-.07,1.22-.09,2.45-.16,3.67-.17,3.1,1.55,3.91,4.15,4.46a10,10,0,0,0,2.12.05Z"/><path id="Path_560" data-name="Path 560" class="cls-1" d="M104.91,56.53c0,.44-.09.71-.1,1,0,.56-.29.71-.84.69-1.41-.07-2.82-.11-4.23-.11S98,58.48,98,59.79s.11,2.45.17,3.68,0,1.38-1.26,1.39-1.31-.21-1.26-1.37c.07-1.62.24-3.24.23-4.87q0-3.43-.21-6.89c-.09-1.42,0-1.56,1.47-1.53,2.42,0,4.84,0,7.27-.06.59,0,1,.06,1.08.78.11.89,0,1.14-.92,1.1-1.69-.06-3.37-.19-5.06-.23-1.16,0-1.62.42-1.66,1.58a19.48,19.48,0,0,0,.07,2c0,.81.48,1.18,1.33,1.14,1.54-.07,3.07-.06,4.61-.08C104.2,56.45,104.52,56.5,104.91,56.53Z"/><path id="Path_561" data-name="Path 561" class="cls-1" d="M131.27,60c.26-2.77,1-4.22,3.59-5.24a3.68,3.68,0,0,1,3.86.77c.64.55,1.19,1,1.83-.06.13-.22.83-.17,1.25-.1.11,0,.25.6.17.87-.78,2.41-.45,4.86-.22,7.3.1,1.15-.09,1.52-1,1.4a1,1,0,0,1-.69-.54c-.37-.79-.63-.87-1.35-.3a4.43,4.43,0,0,1-6-.42A6.53,6.53,0,0,1,131.27,60Zm8.64-.14a3.66,3.66,0,0,0-3.27-3.67,3.84,3.84,0,0,0-3.48,3.6,4,4,0,0,0,3.45,3.74,3.8,3.8,0,0,0,3.29-3.67Z"/><path id="Path_562" data-name="Path 562" class="cls-1" d="M112.08,54.4a20.36,20.36,0,0,1,2.34,1.16c.63.4,1,.8,1.67-.05.19-.26.89-.23,1.33-.18.14,0,.4.59.32.8-.72,1.89-.4,3.83-.39,5.75,0,.7.12,1.4.18,2.11,0,.47,0,.91-.59.94s-1.06.25-1.18-.6c-.1-.7-.71-.84-1.32-.34a4.19,4.19,0,0,1-5.1.42A3.68,3.68,0,0,1,107.9,63c-.69-1.44-1.3-2.85-.64-4.63a5.16,5.16,0,0,1,2.92-3.38A15.79,15.79,0,0,1,112.08,54.4Zm.31,1.75c-2.27-.23-3.46,2-3.56,3.62a3.48,3.48,0,0,0,3.22,3.71h.22a3.58,3.58,0,0,0,3.45-3.67c0-1.81-1.39-3.77-3.33-3.67Z"/><path id="Path_563" data-name="Path 563" class="cls-1" d="M171.08,62.37a1.12,1.12,0,0,1,.08,1.59,1.22,1.22,0,0,1-.36.27,5.94,5.94,0,0,1-5.39.46c-2.49-1-3.48-3.55-2.86-6.19a5.92,5.92,0,0,1,3.07-3.77c1.26-.75,4,.07,5.08,1.37a5.33,5.33,0,0,1,1,3.09c.07.58-.34.89-.91.94l-4.84.44c-.55,0-1.25-.14-1.44.65s.37,1.16.88,1.56c1.83,1.46,3.6.75,5.35-.19Zm-5.34-2.63c1.23-.25,2.25-.45,3.26-.68.76-.17.92-.55.59-1.28a2.71,2.71,0,0,0-4.83-.37,2.39,2.39,0,0,0-.22,1.7C164.66,59.44,165.39,59.57,165.74,59.74Z"/><path id="Path_564" data-name="Path 564" class="cls-1" d="M156.28,60.6c-.62,0-1.24,0-1.85,0a.87.87,0,0,0-.9.85.88.88,0,0,0,.29.67,3.74,3.74,0,0,0,4.93.92,3.49,3.49,0,0,1,.85-.33,4.25,4.25,0,0,1,.8-.06c0,.37.15,1,0,1.07A7.44,7.44,0,0,1,158,64.93a6,6,0,0,1-4.21-.5,3.82,3.82,0,0,1-1.61-1.55c-1.15-2.5-1-5.38,1.45-7.4a4.39,4.39,0,0,1,6.17.65,3.75,3.75,0,0,1,.42.62,6.88,6.88,0,0,1,.5,2.57c0,.26-.47.72-.79.79-1.19.26-2.41.38-3.62.57Zm-1.1-1v.08c1-.18,2.07-.31,3.07-.58.27-.08.66-.68.59-.91a3.62,3.62,0,0,0-1-1.6,2.75,2.75,0,0,0-3.86.54l-.15.21a2.64,2.64,0,0,0-.36,1.76c0,.22.84.34,1.29.5a2.41,2.41,0,0,0,.38,0Z"/><path id="Path_565" data-name="Path 565" class="cls-1" d="M120.31,60.48c-.09-1.44-.21-2.87-.25-4.31,0-.29.24-.81.41-.83.46-.05,1.23,0,1.36.23.44.89.89.83,1.59.36.52-.35,1.13-.58,1.66-.92a2.58,2.58,0,0,1,3.23.43,3.72,3.72,0,0,1,.89,2.41c.13,2.08,0,4.17.05,6.26,0,.85-.55.76-1.12.79s-.92-.15-.91-.8c0-1.75,0-3.5,0-5.25,0-1-.08-1.92-1.2-2.42s-1.9.11-2.73.57a2.31,2.31,0,0,0-1.14,2.33c.06,1.44,0,2.88,0,4.32,0,.68,0,1.25-1,1.27s-1-.62-1-1.32c0-1,0-2.08,0-3.13Z"/><path id="Path_566" data-name="Path 566" class="cls-1" d="M145,60.59V57.82c0-.53-.11-.92-.74-1.09a1,1,0,0,1-.58-.74c0-.27.38-.52.58-.79a2.94,2.94,0,0,0,.68-1,11.23,11.23,0,0,0,0-1.74c0-.39-.18-1,.5-1s1.28.16,1.28,1c0,.49-.07,1-.08,1.47,0,.81.36,1.27,1.23,1.24h1c.49,0,.91,0,.88.69s-.22.9-.87.84c-2.72-.24-2.26.5-2.29,2.34,0,.86,0,1.72,0,2.58,0,1.31.56,1.84,1.84,1.83a2.53,2.53,0,0,1,.55,0c.29.09.57.19.85.3-.21.34-.39.93-.64,1a11.5,11.5,0,0,1-3.1.09,1.29,1.29,0,0,1-1.18-1.41.25.25,0,0,1,0-.08c.07-.92,0-1.84,0-2.76Z"/><path id="Path_567" data-name="Path 567" class="cls-1" d="M175.82,61.57c0,.83,0,1.66,0,2.48,0,.47,0,.94-.73.87s-1.29,0-1.27-.92c0-.49,0-1,0-1.46-.06-2.14-.13-4.28-.17-6.42,0-.29.1-.83.2-.85.51-.07,1.21-.2,1.51.07a1.3,1.3,0,0,0,1.84.16h0a3.7,3.7,0,0,1,1.94-.35c.7,0,.47.71.41,1.09a1,1,0,0,1-.64.64,13.06,13.06,0,0,0-1.76.24,2.23,2.23,0,0,0-1.4,2.52,17.75,17.75,0,0,1,0,1.93Z"/><path id="Path_568" data-name="Path 568" class="cls-1" d="M168.33,10.5a11.13,11.13,0,0,1-2-.7,2.06,2.06,0,0,1-.88-2.5,2.45,2.45,0,0,1,1.79-1.79,3.55,3.55,0,0,1,3.3.51A2.45,2.45,0,0,1,171.21,9a2.14,2.14,0,0,1-2.36,1.37,3.53,3.53,0,0,0-.46,0Z"/><path id="Path_569" data-name="Path 569" class="cls-1" d="M81.65,19.9a7.85,7.85,0,0,1-1.37-.13c-.78-.2-1.4-.6-1.41-1.55s-.22-1.84.6-2.57a3.61,3.61,0,0,1,3.72-.5,2.67,2.67,0,0,1,1.53,2.14,2.36,2.36,0,0,1-2,2.54Z"/><path id="Path_570" data-name="Path 570" class="cls-1" d="M127.05,19.91c-1-.05-2-.07-2.54-1.12a2.52,2.52,0,0,1,.2-2.85,2.84,2.84,0,0,1,2.8-1c2,.22,2.93,1.52,2.49,3.52a1.85,1.85,0,0,1-1.58,1.36A8.94,8.94,0,0,1,127.05,19.91Z"/><path id="Path_571" data-name="Path 571" class="cls-1" d="M89.2,19.94a7,7,0,0,1-1.7-.3c-1-.43-1.27-1.44-1.06-2.84A2.19,2.19,0,0,1,88.29,15a3.3,3.3,0,0,1,3.09.55c1.06,1,.81,2.14.51,3.23-.24.85-1.12,1-2,1.05-.24,0-.49,0-.73,0Z"/><path id="Path_572" data-name="Path 572" class="cls-1" d="M41.65,52.19c.06,1.92-1,2.22-3,2.22s-2.92-.95-2.74-2.45.92-2.72,3.32-2.55C40.92,49.52,41.72,50.42,41.65,52.19Z"/><path id="Path_573" data-name="Path 573" class="cls-1" d="M28.48,52.11c-.21-1.84,1.06-2.69,2.65-2.71,1.95,0,2.88.77,3,2.46.09,2.08-.74,2.51-2.69,2.54S28.37,54.06,28.48,52.11Z"/></g><g id="Group_226" data-name="Group 226"><path id="Path_574" data-name="Path 574" class="cls-1" d="M246,0H218.62A22.17,22.17,0,0,0,196.5,22.12V49.45a22.18,22.18,0,0,0,22.11,22.12H246a22.19,22.19,0,0,0,22.12-22.12V22.12A22.19,22.19,0,0,0,246,0Zm-1,53.07a35.9,35.9,0,0,1-6.54-.58V53.9a4.71,4.71,0,0,1-3.5,4.54l-11.55,3.05A7.88,7.88,0,0,1,218.1,61L207.84,56.3A4.69,4.69,0,0,1,205.11,52V38.86a4.68,4.68,0,0,1,2.82-4.3l2.57-1.12a16.29,16.29,0,1,1,30-10.51l3.09-6.51a1.51,1.51,0,0,1,2-.71,1.46,1.46,0,0,1,.71.7l12.22,25.3a32.09,32.09,0,0,0,1.82,3.17,3,3,0,0,1,.51,1.65C260.89,50.14,253.76,53.07,245,53.07Z"/></g></g></g></g></svg>