<svg xmlns="http://www.w3.org/2000/svg" viewBox="0 0 219.58 147.21"><defs><style>.cls-1{fill:#2b8f57;}.cls-2{fill:#e52e2f;}</style></defs><g id="Layer_2" data-name="Layer 2"><g id="Layer_1-2" data-name="Layer 1"><path class="cls-1" d="M216.84,135.66c-7.31.46-14.39.85-21.46,1.36-14.56,1-28.67,4-42.06,10a3.14,3.14,0,0,1-4.11-1.92c-.23-1.14.84-1.09,1.46-1.35a121.63,121.63,0,0,1,23.88-6.94c13.15-2.52,26.42-2.76,39.74-2a20.08,20.08,0,0,1,2.05.23C216.45,135,216.53,135.24,216.84,135.66Z"/><path class="cls-2" d="M9.32,92.45c1,.68,2.16.43,3.26.43q38.42,0,76.84,0c.81,0,2,.57,2.39-.77,0-1.71.08-3.42.09-5.14,0-5.8,0-5.78-5.71-5.77s-11.67,0-17.5,0c-1.9,0-3.33-.78-3.24-3.08s1.43-2.51,3.29-2.49c6.87.07,13.73,0,20.59.06,1.54,0,2.17-.41,2.09-2-.11-2.31-.09-4.64,0-7,0-1.34-.43-1.83-1.76-1.8-9.6.17-19.21-.54-28.8.48l-3.53,2.12h0c-3.05,4.35-2.49,8.84-.37,13.81-4.64,0-9.12,0-13.61,0-1.31,0-.9-1.26-.91-2,0-5.24-.11-10.48,0-15.71,0-1.91-.42-2.6-2.38-2.48a74.44,74.44,0,0,1-7.47,0c-1.33,0-2,.35-1.67,1.74.4,2.05-.85,2.2-2.4,2.19q-8.24-.08-16.47,0c-1.11,0-2.21.19-3.31.3C2.42,68.32-.5,73.49.07,80.35.55,86.19,3.89,90.21,9.32,92.45ZM14,75.62c2.49.09,5,0,7.47,0h0c2.5,0,5,.07,7.48,0,1.43,0,1.92.39,2,1.88,0,3.8.13,3.8-3.67,3.78-4.13,0-8.25,0-12.37-.09-1.79,0-3.5-.29-3.55-2.74C11.29,76.51,12,75.54,14,75.62Z"/><path class="cls-2" d="M122.6,99.89c.13,2.48.06,5,0,7.46,0,1.23.22,1.89,1.67,1.87,4.37-.08,8.75.09,13.11-.08,4.67-.18,7.32-2.94,7.54-7.66.13-2.73,0-5.48,0-8.22a31.42,31.42,0,0,1,8.77-.17c.5,5.7,2.46,7.5,8.21,7.49,4.81,0,9.62,0,14.43,0,5.33-.06,5.39-.09,5.45-5.39,0-1.75.5-2.37,2.35-2.34,5.58.08,11.16,0,16.74-.08,1.21-.17.84-1.14.84-1.82,0-11.26,0-22.52,0-33.78,0-1.27-.31-1.88-1.74-1.82-2.83.1-5.67,0-8.51.07-.58,0-1.47-.31-1.55.8q0,9.64-.09,19.29c0,6.09,0,6.05-6.23,5.8-1.34-.05-1.74-.54-1.88-1.79a11.74,11.74,0,0,0-11.44-10.66c-4.89-.14-9.78,0-14.67-.07-1.64,0-2,.62-2,2.12.07,3.43,0,6.86,0,10.29l-8.21.2-.49-.53c0-3.51,0-7,.12-10.54,0-1.1-.38-1.53-1.5-1.51-3.43,0-6.87,0-10.3,0-.49,0-1.08,0-1.07.74q0,13.61-.07,27.23l.19-.09-.19.09-.12.5c-2.34,1.31-4.87.44-7.31.58C123.21,98,122.51,98.22,122.6,99.89ZM167,79.71a17.36,17.36,0,0,1,3.94.85c.52,1.14.1,2.7.1,4.07h.11v1c0,4-1.14,4.89-5.23,4-.91-.19-1.09-.64-1.09-1.41,0-2.31,0-4.63,0-7C164.79,79.86,165.28,79.71,167,79.71Z"/><path class="cls-2" d="M79.87,32.37l.07.05c.3,0,.49.1.48.44l.07.1.87.47.66.16,37.89-.12c1,0,1.89,0,2.84-.07v0c0-.52.07-1,.1-1.54q0-8.5,0-17c-.32-4.18-.32-4.29-4.67-4.18-5,.13-10-.38-15,.32a11.6,11.6,0,0,0-2.32,3.56c-1,2.61-.62,5.23-.69,7.84,0,1.26-.26,1.87-1.69,1.81-2.48-.1-5-.11-7.44,0-1.52.07-1.8-.53-1.87-1.92-.14-2.49,1.27-5.89-.69-7.22-1.77-1.21-5-.34-7.52-.38h-.26c-1.14-.11-1.43.44-1.41,1.52.1,5.22.12,10.44.17,15.66Zm29-10.45c.1-1.94.49-2.69,2.58-2.62,1.88.07,2.72.4,2.67,2.54,0,1.89-.5,2.74-2.43,2.32C110,24.39,108.73,24.32,108.85,21.92Z"/><path class="cls-2" d="M115.91,100.82c.07-4.9,0-9.79,0-14.69h0c0-5.06-.09-10.13,0-15.19,0-1.75-.49-2.23-2.17-2.15-2.91.12-5.84.13-8.76,0-1.74-.08-2.09.53-2.08,2.2.09,8,0,16,0,24,0,2.16-.52,3.26-2.91,3-1.52-.17-3.09.05-4.63,0s-2,.27-2,1.82c.11,2.57.08,5.15,0,7.72,0,1.36.5,1.79,1.81,1.78,4.29-.06,8.59.07,12.88,0C113.05,109,115.84,106,115.91,100.82Z"/><path class="cls-2" d="M218.44,56.05c-1.44-1.78-4.83-.51-7.36-.6-3.9-.13-3.92,0-3.9,3.95q.06,16.37.13,32.72l2.91,0-2.91,0c.34,1.26,1.39.72,2.12.75,2.31.07,4.64-.09,6.94.06s3-.72,2.37-2.83q0-13.39.08-26.8C218.83,60.82,219.67,57.57,218.44,56.05Z"/><path class="cls-2" d="M186.11,117.48a57.89,57.89,0,0,0,7.71-2.8c-.12-1.46-.77-2-2.22-1.35a53.58,53.58,0,0,1-6.22,2.34c-.83.23-2.32,2-2.9-.6-.14-.63-1.32-.25-1.48.53-.43,2.08-2.15,2.66-3.72,3.51-.73.4-2,.58-1.39,2a6.35,6.35,0,0,0,3-.77c-.54,1.37-.36,2.56-1.51,3.23-.69.91-1.36,2.12-2.08,0a4.34,4.34,0,0,0-.93-1.5c-.38-.42-.71-1-1.42-1-.87.08-.67.84-.86,1.37-1.1,3.08-3.48,5.24-5.55,7.61-.34.39-.94.34-1.42-.17.53-.93,1.1-1.87,1.61-2.84a2.69,2.69,0,0,0-1-3.62c-1.29-.94-1.7.54-2.34,1.23-.81.88-1.59,1.79-2.38,2.69-1.2,1.75-2.4,3.48-4.47,4.37-.41.18-.61.85-1.13.17s-.1-.91.31-1.28c.64-.57,1.2-1.24,1.87-1.75a2.91,2.91,0,0,0,1.12-3.59c-4.22-.6-4.71,3.5-7,5.68-.11-1.4,1-2.89-.5-3.69s-2.34.45-3.48,1c-.66.31-1.42,1.5-1.88.95-2.12-2.52-2.32.35-3.25,1-1.54,1.14-1.81,3.52-3.73,4.3a1,1,0,0,1-.21-1.16c.15-1,1.47-2-.06-2.85s-2,.43-2.83,1.3c-1,1.06-1.48,2.61-3,3.36-.09-.4-.26-.69-.18-.86.43-.92.78-1.89-.47-2.33a1.93,1.93,0,0,0-2.52,1,4.8,4.8,0,0,1-2.54,2.12c-.55-.5-.35-1.54-1.24-1.81h0a3,3,0,0,0-2.46-1,44.18,44.18,0,0,0-7.8.07c0-.31-.28-.75-.15-.91a18.77,18.77,0,0,1,9.69-6.77,2,2,0,0,1,2.83,1.44c.17.64.19,1.52,1.24,1.13.78-.29.86-1,.78-1.73-.3-2.38-2-3.17-4-3.08a15,15,0,0,0-12,6.93,3,3,0,0,0,.37,4.19,1.62,1.62,0,0,1,.4-.83,1.62,1.62,0,0,0-.4.83h0c2.33,1.11,4.86.46,7.28.83,1.4.26,2.82.5,2,2.52-2,2.18-4.7,3.36-7,5.15-.76.6-2,1.34-1.36,2.41s1.8.24,2.71-.2c3.86-1.84,6.55-5.12,9.77-7.76.76-.08,1.07-1.19,2-.87.07,1.32-.3,3,1.52,3.36s2.45-1.21,3.14-2.35a3.5,3.5,0,0,1,1.46-1.51c.35,1.15.34,2.51,1.72,2.92,1.62.48,1.87-1.2,2.62-2,1.05-1.09,1.45-2.75,3.11-3.7a17.36,17.36,0,0,1-2.57,6.86,21.63,21.63,0,0,0-1.13,3.25c-.64,1.69.75,2.55,1.9,3.11,1.49.72,2-.84,2.28-1.73.59-2.11.82-4.32,1.23-6.49.09-.53-.06-1.45.83-1.28,2.56.47,3.92-1.31,5.44-2.75.77-.73,1.29-1.26,2.28-.21,1.7,1.78,3.42,1.14,4.92-.34a18.85,18.85,0,0,0,4-4.89c.15-.32.48-.8,1-.6a.73.73,0,0,1,.33,1.07c-.84,1.33-.86,2.69.33,3.65s2.53-.16,3.71-.73c1.32-2.55,3.32-4.58,5.34-7.28.45,2.26.9,3.93-1.59,4.61-2,.55-2.12,1.47-.54,2.72,2.54,0,3.45-2.24,4.9-3.65.87-.84,1.48-1.24,2.07-.16.92,1.72,2.06,1.41,3.38.74,0-.61.37-1.64-.74-1.51-2.75.32-1.66-1.19-1.35-2.49C180.35,120.69,182.25,118.33,186.11,117.48Zm-59.32,18.23a2.94,2.94,0,0,1-.71-.59A2.94,2.94,0,0,0,126.79,135.71Zm22.93-5.53c-.62,1.47-1.19,3-3.1,3.29-.71.1-.85-.4-.65-1a5.82,5.82,0,0,1,2.91-3.46Q150.08,129.3,149.72,130.18Z"/><path class="cls-2" d="M126.9,26.28c0,7.68,0,7.64,7.79,7.3,1.36-.06,1.74-.44,1.71-1.77-.08-4.46,0-8.92,0-13.38h0c0-4.38-.06-8.75,0-13.12,0-1.55-.39-2.17-2-2a37.43,37.43,0,0,1-5.4,0c-1.71-.13-2.17.5-2.15,2.18C127,12.38,126.9,19.33,126.9,26.28Z"/><path class="cls-2" d="M218,3.24c-1.89,0-3.79.11-5.67,0s-2.54.37-2.5,2.4c.15,6.61,0,13.23.1,19.85.06,2.67-1.34,6.33.7,7.74,1.86,1.28,5.3.29,8,.29.08,0,.16-.07.23-.11h.18l.08-.16c.12-.21.34-.42.34-.63,0-9.28,0-18.57,0-27.85C219.58,3.64,219.1,3.23,218,3.24Z"/><path class="cls-2" d="M66.31,132.79c2.69-.92,3.28-3.42,3.25-5.78a5.13,5.13,0,0,0-4.14-5.1,18.59,18.59,0,0,0-5.06-.78c-4.12,0-8.24,0-12.37,0,0,1.67,2.7.66,2.55,2.51a.46.46,0,0,1,.06.45c.78,3.54.18,7.12.35,10.68.08,1.79,0,3.58,0,5.37,0,2.12-.06,4.14-2.84,4.79,4,.67,7.8.31,11.63.41l.08-.07a.5.5,0,0,1,.08-.43.17.17,0,0,1-.08-.25c-.72-.23-1.58-.08-2.11-.81-.64-.21-.63-.81-.77-1.32a23.72,23.72,0,0,1-.24-4.91c0-.41.31-3-.27-3h0l.26-.07a.24.24,0,0,0,.13-.3l-.08-1.33a.47.47,0,0,0-.07-.43l-.1,0h.1l.08-7.84a2.57,2.57,0,0,1,.28-1.37,1.88,1.88,0,0,1,1.12-.75,4.16,4.16,0,0,1,4.3,1.61,6.29,6.29,0,0,1,1,4.65,5,5,0,0,1-1.73,3.35c-1.37,1-3.26.94-5,.79l.06,1.33c1.26-.42,1.9,1.59,2.39,2.38.78,1.25,1.66,2.44,2.53,3.63.42.59.8,1.26,1.2,1.92,1,1.61,2,3.16,4.08,3.42s4-.4,6,0c-3.16-3.26-5.1-6.59-7.45-9.6C64.49,134.4,64.12,133.54,66.31,132.79ZM54,143.22h0c0,.27.3.44.57.5s.59.13.7.38v0C55,143.65,53.86,143.79,54,143.22Zm-1.8-2.82a4.54,4.54,0,0,1,.29,2.7,4.56,4.56,0,0,0-.23-2.46Zm-.27,3.82Zm2,.61-1-.06h.22A3.87,3.87,0,0,1,53.89,144.83Zm.32-2-.11.14a2.77,2.77,0,0,1,.19-.26c.09-.11.18-.22.26-.34A3.9,3.9,0,0,1,54.21,142.84Zm1.51-16.63c0-.58,0-1.16,0-1.73,0-.28,0-.58,0-.87a1.48,1.48,0,0,1,0,.21C55.72,124.62,55.72,125.41,55.72,126.21Zm-.67-4a2,2,0,0,0-.66-.12A1.61,1.61,0,0,1,55.05,122.23Zm-2.36.26a2.06,2.06,0,0,0-.63.54.87.87,0,0,1,.17-.21A1.68,1.68,0,0,1,52.69,122.49Zm.3-.14h0Zm-1,.7-.06.1Zm-.38,1.38c.05,1.08.05,2.16,0,3.23,0-.78,0-1.56,0-2.34C51.66,125,51.65,124.73,51.66,124.43Zm.2,14.41c-.13-.84-.22-1.69-.27-2.54C51.64,137.15,51.73,138,51.86,138.84Zm-.3-2.91v0Zm3.32,8.85.13-.07-.06,0Zm-.19.05.11,0Zm.71-4.78c.11-.8.12-1.62.19-2.43,0,.64,0,1.28-.12,1.91C55.45,139.71,55.43,139.88,55.4,140.05Zm.32-4.44a1,1,0,0,1,.42-.9A1.54,1.54,0,0,0,55.72,135.61Zm0-4.54a2,2,0,0,0,.15.77,1.07,1.07,0,0,0,.31.39A1.18,1.18,0,0,1,55.7,131.07Z"/><path class="cls-2" d="M42.26,139.17v0a2.72,2.72,0,0,1-1-2.08c-1.69-3.82-3.31-7.66-5.09-11.44-.8-1.69-1-4.78-2.75-4.6-1.5.15-1.91,3.25-2.54,5.16-.68,1.48-1.3,3-2,4.42-2.47,4.85-3.14,10.62-7.41,14.55,2.82.56,5.64.45,7.22-.28-3.13-1.19-3-1.15-2-4.47a2.3,2.3,0,0,1,2.76-1.94c1.53.12,3.08.08,4.62.11a1.62,1.62,0,0,1,2,.59,1,1,0,0,0,.11-.94,1,1,0,0,1-.11.94c0,.17,0,.35,0,.52l0,.06a4.57,4.57,0,0,1,1,2.51c0,.34,0,.67.05,1-.14,1.35-1.12,1.13-2,1.08h0c-.26.48-.51,1,.39,1h11C43.71,143.59,42.9,141.43,42.26,139.17ZM31.89,129c-.16-.33-.36-.64-.55-1C31.53,128.39,31.73,128.7,31.89,129Zm-1-2.58,0-.18Zm-.35,4.17c.23-.53,0-2,1.47-1.35l2.95,7.61C27.48,137.47,27.46,137.46,30.52,130.62Z"/><path class="cls-2" d="M100.48,121.05c-2.09-.2-3.24.55-3.5,2.63q-3.08,6.93-6.16,13.87c-.79-.25-.82-1-1.07-1.61-1.85-4.24-3.67-8.49-5.52-12.72-.3-.69-.65-1.83-1.1-1.9a30.33,30.33,0,0,0-8.77.15c3,1.43,3,1.43,3,4.74q0,7.33,0,14.68c0,1.22,0,2.41-1,3.3-.77.13-1.67,0-2.51,1.18,3.14,0,5.88.41,9.37-.34l-3.69-1.37h0c-.16-.31-.31-.63-.47-.95h0V125.24c.46.9,1,1.77,1.39,2.7,2.39,5.37,4.74,10.76,7.12,16.13.23.52.27,1.29,1,1.26s.9-.72,1.12-1.26c.73-1.8,1.43-3.63,2.14-5.44a1.26,1.26,0,0,0-.27-.76,1.26,1.26,0,0,1,.27.76l5.92-13.17c.23,6.19,1,12.24.15,18.27-.75.66-2,.36-2.86,1.45h11.89c-2.36-.61-3-2.16-2.93-4.3.08-5.74.08-11.47.11-17.21.21-.36.42-.73.64-1.09h0c.73-.5,1.83-.14,2.65-1.22C104.94,120.87,102.69,121.26,100.48,121.05Zm3.41,1.17h0Z"/><path class="cls-2" d="M132.45,59a6,6,0,0,0,5.94,5.87,6.1,6.1,0,0,0,6-5.93A6,6,0,0,0,138.22,53,5.86,5.86,0,0,0,132.45,59Z"/><path class="cls-2" d="M21.88,61.73a5.93,5.93,0,0,0,7.13.52c2.8-1.69,2.89-4.37,2.47-7.19l0,0c-3-3.83-4.71-4.29-9.25-2.54l0,0-.53.45-1,1.1C19.42,57.43,19.8,59.9,21.88,61.73Z"/><path class="cls-2" d="M119.56,8.5c1.54-1.86,2.21-3.86.91-6.12A4.32,4.32,0,0,0,116,.05c-2,.31-4,.94-4.5,3.43C111.17,7.86,114.81,11.29,119.56,8.5Z"/><path class="cls-2" d="M103.23,9.53c4.35.57,6.87-1.1,7-6l-.84-1.63c-1.72-1.93-3.89-2-6.21-1.54C100,2.36,99.6,6.52,103.23,9.53Z"/><path class="cls-2" d="M22,128.26c.66-1.07.3-2.29.32-3.43.08-3.88,0-3.88-3.77-3.68H1.85c3.09,2,3.08,2,3.07,5.9,0,4.13,0,8.25,0,12.38,0,3.8,0,3.8-3.3,5.79H14.45c-4.12-.34-3.8-3.23-3.65-6.07.07-1.54-.05-3.09-.09-4.64,0-.18.06-.37.08-.56l0-.07c4.1-.74,4.92,2.45,6.34,5.13V127.32l-.59-.37c-.84,2.79-1.8,5.46-5.2,5.47a.33.33,0,0,0-.37-.06c0-2.65-.06-5.3-.14-7.94,0-1.28.52-1.93,1.77-2,4.33-.21,7.42.43,8.58,4.94C21.3,127.79,21.43,128.2,22,128.26Zm-11.72-6.14Zm0,3.47q0,.87,0,1.74Q10.27,126.46,10.29,125.59Zm-.07,4.77a2,2,0,0,0,.37,1.65A2,2,0,0,1,10.22,130.36ZM10.6,132c.05.06.11.11.17.17S10.65,132.08,10.6,132Z"/><path class="cls-2" d="M140.77,41.42c0,5.7,0,5.7,5.7,5.3,4.29,0,8.58.14,12.87.07,3.79-.06,6-2.34,6.23-6.08.08-1.71.1-3.44,0-5.15s.56-2.07,2.12-2c4.37.08,8.76,0,13.13,0,6.7,0,13.4,0,20.1,0,4.17,0,5.39-1.26,5.4-5.33,0-2.15.11-4.3,0-6.44-.15-2.34,1.17-5.52-.59-6.78s-4.63-.33-7-.47c-1.32-.08-1.86.34-1.79,1.72.09,1.89,0,3.78,0,5.67,0,1.29.08,2.26-1.78,2.28s-2.09-.72-2.09-2.28c0-2.37,1.11-5.69-.45-6.86s-4.75-.31-7.22-.45c-1.39-.08-1.79.46-1.73,1.78.08,2.05,0,4.12,0,6.18,0,1-.2,1.47-1.38,1.6-2.11.23-2.34-.75-2.33-2.52,0-7.54,0-7.54-7.55-7.06a1,1,0,0,1-.25,0c-1.24-.12-1.67.5-1.65,1.67,0,2.06-.1,4.13,0,6.18s-1.16,1.74-2.34,1.66-2.71.65-2.63-1.64c.11-3.17-.14-6.36.05-9.53.12-2-.65-2.42-2.48-2.38-4.81.12-9.62,0-14.43,0-4.08,0-6.87,2.48-7,6.55-.15,4.89,0,9.79-.07,14.68,0,1.37.5,1.77,1.82,1.73,2.74-.07,5.49,0,8.24,0,3.78,0,4,.25,3,4-3.92,0-7.84.12-11.76,0-1.83,0-2.47.6-2.22,2.35A11.14,11.14,0,0,1,140.77,41.42Zm12.45-16.33c-2.89.17-2.27-1.66-2.44-3.27-.2-1.95.46-2.6,2.52-2.64s2.71.81,2.54,2.23a5.88,5.88,0,0,0,0,1.39C156.06,24.53,155.13,25,153.22,25.09Z"/><path class="cls-2" d="M217.9,115.89c-1.15-.13-1.27,1.35-2.27,1.44a1.72,1.72,0,0,1-.51.78,1.72,1.72,0,0,0,.51-.78c-1-.7.15-1.69-.31-2.47-.08-.18-.16-.36-.23-.54l-.37-.48c-2.58-2.63-2.46.56-3.35,1.55a17.68,17.68,0,0,1-4.67,5.87c-.45.4-1.22,1-1.78.39s.31-1.16.75-1.57a26.62,26.62,0,0,0,3.69-4.18c-1.76-1.76-4-1.2-5.55,1.64a19.11,19.11,0,0,1-4.36,4.94c-.61.55-1.14,1-1.86.19C198.91,121,200,119.25,199,117a3.36,3.36,0,0,0-3.63,1.21c-.64.8-1.39,1.51-2.08,2.26-.54.59-.84.92-1.45-.1a2.79,2.79,0,0,0-4.64-.66c-1.66,1.58-3.12,3.38-4.63,5.12-.3.35-.76.84-.19,1.31a.77.77,0,0,0,1.14-.18c1.12-2.42,1.6-.17,2.32.29l.21.71c2.53,1.66,4.05.2,5.42-1.74.74-2.12,2.78-3.16,4.05-4.83.4-.52.86-.39,1.16.19-.86,1.5-1.3,3.14.3,4.3,1.79,1.3,2.94-.14,4-1.45.87-1.12,1.57-2.24,3-.4.89,1.13,2.31.82,3.51.13a31,31,0,0,0,4.9-6.38c.25-.41.49-1,1.13-.8s.41.83.5,1.29c-.43,1.46-.82,2.86-2.62,3.34-1.22.32-1.16,1.21-.37,2.07,3.29-.07,4.76-2.75,6.74-4.69C217.41,117.26,218.67,116.67,217.9,115.89Zm-31.1,9.66a1,1,0,0,1-.69.62,1,1,0,0,0,.69-.62,6.34,6.34,0,0,1,.69-2.92c.52-1,1-2.17,2.33-1.9,1.55.32,1,1.7.94,2.73C189.54,124.35,189.63,127.72,186.8,125.55Z"/><path class="cls-2" d="M8.28,61.74l.51.48,0,0c2.06.8,4.1,1.77,6.21.13h0l.64-.3.17-.1c2.39-2,3.11-4.36,2.06-6.74-1.31-3-3.64-4.07-7.59-3.52A2.83,2.83,0,0,0,8.46,53c-2.53,2.72-2.64,5.43-.31,8.21C8.19,61.42,8.23,61.58,8.28,61.74Z"/></g></g></svg>