<svg xmlns="http://www.w3.org/2000/svg" viewBox="0 0 249 166.94"><defs><style>.cls-1{fill:#fff;}</style></defs><g id="Layer_2" data-name="Layer 2"><g id="Layer_1-2" data-name="Layer 1"><path class="cls-1" d="M245.9,153.84c-8.28.52-16.32,1-24.34,1.54-16.5,1.19-32.51,4.52-47.69,11.31-1.76.79-4.29-.39-4.66-2.18-.26-1.29.95-1.23,1.65-1.52a136.56,136.56,0,0,1,27.08-7.87c14.92-2.87,30-3.13,45.07-2.3a22.55,22.55,0,0,1,2.32.26C245.46,153.1,245.55,153.36,245.9,153.84Z"/><path class="cls-1" d="M10.57,104.84c1.15.77,2.45.49,3.7.49q43.56,0,87.13,0c.92,0,2.21.66,2.71-.86,0-1.94.1-3.89.1-5.83,0-6.58,0-6.56-6.47-6.55s-13.23,0-19.85,0c-2.14,0-3.77-.89-3.67-3.5s1.62-2.84,3.74-2.82c7.78.08,15.56,0,23.35.07,1.73,0,2.45-.46,2.36-2.29-.13-2.62-.1-5.26,0-7.88.06-1.52-.49-2.07-2-2-10.88.2-21.78-.61-32.65.55l-4,2.4h0c-3.46,4.93-2.82,10-.42,15.67-5.26,0-10.35.05-15.43,0-1.49,0-1-1.43-1-2.29,0-5.94-.12-11.88,0-17.81.06-2.17-.47-2.95-2.7-2.81-2.81.17-5.65.11-8.47,0-1.51,0-2.21.39-1.9,2,.46,2.33-1,2.5-2.72,2.48-6.23-.06-12.45-.06-18.68,0-1.25,0-2.5.22-3.75.34C2.74,77.48-.56,83.34.08,91.12.63,97.74,4.41,102.3,10.57,104.84ZM15.9,85.75c2.82.11,5.65,0,8.48,0v0c2.82,0,5.65.08,8.47,0,1.63-.06,2.18.44,2.21,2.13.07,4.32.15,4.31-4.16,4.28-4.68,0-9.35,0-14-.09-2,0-4-.33-4-3.11C12.8,86.77,13.57,85.67,15.9,85.75Z"/><path class="cls-1" d="M139,113.28c.15,2.81.07,5.63,0,8.45,0,1.4.25,2.15,1.89,2.12,5-.08,9.92.11,14.87-.08,5.29-.21,8.3-3.34,8.55-8.69.15-3.1,0-6.21,0-9.32a35.59,35.59,0,0,1,9.94-.2c.57,6.47,2.79,8.51,9.31,8.5,5.45,0,10.91,0,16.36,0,6.05-.06,6.12-.09,6.18-6.11,0-2,.57-2.69,2.67-2.65,6.32.09,12.65,0,19-.09,1.37-.19,1-1.3,1-2.06,0-12.77,0-25.54,0-38.31,0-1.44-.34-2.13-2-2.07-3.21.12-6.43,0-9.65.08-.66,0-1.67-.35-1.76.91q-.06,10.93-.11,21.87c0,6.92,0,6.87-7.06,6.59-1.52-.06-2-.62-2.13-2a13.33,13.33,0,0,0-13-12.09c-5.54-.15-11.09,0-16.63-.07-1.85,0-2.29.7-2.25,2.4.07,3.89,0,7.78-.05,11.67l-9.32.22-.55-.59c0-4,.05-8,.14-12,0-1.25-.44-1.73-1.7-1.71-3.89,0-7.79,0-11.69,0-.55,0-1.22,0-1.21.84q0,15.43-.08,30.88l.22-.1-.22.1c0,.19-.09.38-.13.57-2.66,1.48-5.53.5-8.29.66C139.72,111.11,138.93,111.38,139,113.28ZM189.34,90.4a19.73,19.73,0,0,1,4.46,1c.59,1.29.12,3.06.12,4.61H194v1.17c0,4.58-1.29,5.55-5.93,4.58-1-.22-1.24-.72-1.24-1.59,0-2.63,0-5.26,0-7.89C186.87,90.56,187.43,90.4,189.34,90.4Z"/><path class="cls-1" d="M90.57,36.71l.08,0c.34,0,.56.12.54.5l.09.11,1,.54.75.19L136,38c1.08,0,2.15-.06,3.22-.09l0,0c0-.58.07-1.16.11-1.75q0-9.65,0-19.29C139,12.06,139,12,134,12.07c-5.67.14-11.36-.44-17,.36a13.11,13.11,0,0,0-2.62,4c-1.17,3-.71,5.93-.79,8.9,0,1.42-.29,2.12-1.91,2.05-2.81-.11-5.64-.12-8.45,0-1.71.08-2-.6-2.12-2.18-.15-2.82,1.45-6.68-.77-8.19-2-1.37-5.63-.38-8.53-.42-.1,0-.2,0-.29,0-1.3-.13-1.62.49-1.6,1.72.11,5.91.13,11.84.19,17.75Zm32.87-11.85c.11-2.2.55-3.05,2.92-3,2.13.08,3.09.45,3,2.87-.05,2.15-.57,3.11-2.77,2.63C124.68,27.65,123.3,27.58,123.44,24.86Z"/><path class="cls-1" d="M131.45,114.33c.07-5.55,0-11.1,0-16.65h0c0-5.75-.09-11.5.05-17.24.05-2-.55-2.52-2.46-2.44-3.3.15-6.62.16-9.92,0-2-.09-2.39.6-2.36,2.5.1,9,0,18.11,0,27.17,0,2.44-.59,3.69-3.3,3.39-1.73-.19-3.51.07-5.25,0s-2.32.3-2.25,2.06c.11,2.92.08,5.85,0,8.76,0,1.55.57,2,2,2,4.87-.06,9.74.09,14.61,0C128.2,123.65,131.36,120.17,131.45,114.33Z"/><path class="cls-1" d="M247.72,63.56c-1.64-2-5.48-.58-8.35-.68-4.43-.14-4.44,0-4.43,4.48l.15,37.1,3.3.05-3.3-.05c.38,1.44,1.57.83,2.41.85,2.62.09,5.25-.1,7.87.08s3.37-.82,2.68-3.21q.06-15.21.1-30.4C248.15,69,249.11,65.29,247.72,63.56Z"/><path class="cls-1" d="M211.05,133.23c3-.66,5.84-2.09,8.74-3.18-.13-1.66-.87-2.22-2.51-1.54a58.87,58.87,0,0,1-7.05,2.66c-.94.26-2.64,2.23-3.29-.68-.16-.71-1.5-.29-1.68.6-.5,2.36-2.45,3-4.22,4-.83.45-2.28.66-1.58,2.26a7,7,0,0,0,3.45-.88c-.62,1.56-.41,2.91-1.71,3.67-.79,1-1.55,2.4-2.36,0a5,5,0,0,0-1.05-1.7c-.44-.48-.81-1.18-1.62-1.1-1,.09-.75.95-1,1.55-1.24,3.5-3.95,5.94-6.3,8.63-.39.44-1.06.39-1.6-.19.6-1.06,1.24-2.12,1.81-3.22A3,3,0,0,0,188,140c-1.46-1.07-1.92.62-2.64,1.4-.92,1-1.81,2-2.71,3-1.35,2-2.72,4-5.07,5-.46.2-.69,1-1.27.2s-.12-1,.35-1.46c.72-.64,1.35-1.4,2.12-2a3.29,3.29,0,0,0,1.26-4.08c-4.77-.68-5.34,4-7.93,6.45-.12-1.58,1.08-3.27-.57-4.19s-2.65.52-3.94,1.13c-.75.35-1.61,1.7-2.14,1.08-2.4-2.86-2.62.39-3.69,1.17-1.74,1.3-2,4-4.22,4.88-.54-.6-.29-.95-.24-1.32.17-1.08,1.67-2.25-.07-3.23s-2.28.49-3.21,1.48c-1.13,1.2-1.68,3-3.41,3.8-.1-.45-.29-.78-.2-1,.49-1,.89-2.14-.52-2.64a2.2,2.2,0,0,0-2.87,1.14,5.39,5.39,0,0,1-2.87,2.41c-.63-.57-.41-1.75-1.41-2.06h0A3.46,3.46,0,0,0,140,150a50.19,50.19,0,0,0-8.84.09c-.07-.36-.32-.86-.17-1a21.19,21.19,0,0,1,11-7.68c1.38-.4,2.76-.12,3.22,1.63.19.73.21,1.73,1.4,1.29.88-.33,1-1.18.88-2-.34-2.69-2.28-3.6-4.58-3.49-5.83.28-10.29,3.17-13.57,7.86a3.45,3.45,0,0,0,.43,4.75,1.88,1.88,0,0,1,.45-.95,1.88,1.88,0,0,0-.45.95h.05c2.65,1.25,5.52.52,8.26.94,1.59.29,3.2.57,2.31,2.86-2.25,2.47-5.33,3.81-7.89,5.84-.86.69-2.29,1.52-1.54,2.73s2,.28,3.07-.22c4.37-2.09,7.43-5.81,11.08-8.8.86-.1,1.21-1.36,2.3-1,.08,1.5-.34,3.4,1.73,3.81s2.78-1.38,3.56-2.66a3.93,3.93,0,0,1,1.65-1.72c.4,1.3.39,2.85,1.95,3.31,1.85.55,2.13-1.36,3-2.24,1.2-1.23,1.65-3.12,3.53-4.2a19.82,19.82,0,0,1-2.91,7.78,25.31,25.31,0,0,0-1.29,3.69c-.72,1.91.86,2.89,2.16,3.52,1.69.82,2.3-.95,2.58-2,.67-2.39.94-4.9,1.39-7.35.12-.61,0-1.65,1-1.46,2.9.54,4.44-1.49,6.17-3.12.87-.82,1.47-1.42,2.59-.24,1.92,2,3.88,1.3,5.58-.38a21.46,21.46,0,0,0,4.52-5.55c.18-.36.54-.91,1.13-.68a.83.83,0,0,1,.38,1.22c-1,1.51-1,3,.37,4.14,1.53,1.23,2.87-.19,4.21-.83,1.5-2.89,3.76-5.2,6.05-8.26.52,2.56,1,4.45-1.8,5.23-2.24.63-2.4,1.66-.61,3.09,2.88,0,3.92-2.55,5.56-4.14,1-1,1.68-1.41,2.34-.18,1,2,2.34,1.59,3.84.83-.05-.69.41-1.86-.85-1.71-3.12.36-1.87-1.35-1.53-2.83C204.52,136.86,206.68,134.19,211.05,133.23ZM143.78,153.9a3.75,3.75,0,0,1-.8-.67A3.75,3.75,0,0,0,143.78,153.9Zm26-6.28c-.7,1.68-1.34,3.46-3.51,3.74-.81.1-1-.46-.74-1.11a6.56,6.56,0,0,1,3.3-3.91C169.74,146.52,170.06,147,169.78,147.62Z"/><path class="cls-1" d="M143.91,29.8c0,8.71,0,8.66,8.83,8.28,1.54-.06,2-.5,1.94-2-.09-5.06,0-10.12,0-15.17h0c0-5-.06-9.93,0-14.88,0-1.76-.44-2.46-2.29-2.32a41.67,41.67,0,0,1-6.12,0c-1.93-.14-2.46.57-2.44,2.47C144,14,143.91,21.92,143.91,29.8Z"/><path class="cls-1" d="M247.26,3.68c-2.15,0-4.3.12-6.43,0S238,4.07,238,6.37c.16,7.5,0,15,.11,22.51.06,3-1.53,7.18.79,8.78,2.11,1.46,6,.32,9.12.33.09,0,.18-.08.27-.12h.2l.09-.18c.13-.24.38-.48.38-.72,0-10.53,0-21.06,0-31.58C249,4.13,248.46,3.66,247.26,3.68Z"/><path class="cls-1" d="M75.2,150.59c3-1,3.72-3.89,3.69-6.55,0-2.88-1.7-5-4.7-5.79a21.66,21.66,0,0,0-5.74-.89c-4.68,0-9.35,0-14,0,0,1.88,3,.74,2.88,2.84a.52.52,0,0,1,.07.51c.89,4,.2,8.07.39,12.11.1,2,0,4.06.07,6.09,0,2.4-.08,4.7-3.23,5.43,4.48.77,8.85.35,13.19.47l.09-.08a.6.6,0,0,1,.09-.49.2.2,0,0,1-.09-.29c-.81-.25-1.79-.08-2.38-.91-.74-.24-.73-.91-.88-1.5a26.49,26.49,0,0,1-.27-5.56c0-.47.34-3.36-.31-3.42h0l.29-.07a.28.28,0,0,0,.15-.35l-.09-1.51a.55.55,0,0,0-.08-.48l-.11,0h.11l.1-8.88a3,3,0,0,1,.3-1.57,2.15,2.15,0,0,1,1.27-.84,4.75,4.75,0,0,1,4.89,1.83A7.12,7.12,0,0,1,72,146a5.61,5.61,0,0,1-2,3.79c-1.55,1.18-3.7,1.07-5.65.9l.07,1.51c1.43-.48,2.16,1.8,2.71,2.7.88,1.42,1.89,2.76,2.87,4.12.48.67.91,1.43,1.36,2.17,1.11,1.83,2.32,3.59,4.62,3.88s4.55-.45,6.83,0c-3.57-3.7-5.77-7.47-8.44-10.89C73.13,152.41,72.71,151.43,75.2,150.59Zm-14,11.83h0c0,.32.34.5.64.57s.68.14.8.43v0C62.37,162.9,61.08,163.06,61.23,162.42Zm-2-3.21a5.29,5.29,0,0,1,.33,3.07,5.24,5.24,0,0,0-.27-2.8Zm-.31,4.34h0Zm2.23.69-1.18-.06h.25A4.92,4.92,0,0,1,61.11,164.24Zm.36-2.25-.12.15a3.39,3.39,0,0,1,.21-.29q.16-.19.3-.39A4.8,4.8,0,0,1,61.47,162Zm1.71-18.87c0-.65,0-1.31,0-2,0-.32,0-.66,0-1v.23C63.19,141.32,63.19,142.22,63.18,143.12Zm-.76-4.51a2.14,2.14,0,0,0-.74-.13A1.8,1.8,0,0,1,62.42,138.61Zm-2.67.29a2.49,2.49,0,0,0-.71.61,1,1,0,0,1,.19-.23A1.93,1.93,0,0,1,59.75,138.9Zm.34-.15h0Zm-1.07.79a.67.67,0,0,0-.07.11Zm-.43,1.56c0,1.23,0,2.45,0,3.67,0-.89,0-1.77,0-2.66C58.58,141.78,58.57,141.44,58.59,141.1Zm.23,16.35a28.18,28.18,0,0,1-.32-2.88A28.18,28.18,0,0,0,58.82,157.45Zm-.35-3.3v0Zm3.76,10,.15-.07-.06,0Zm-.21.06.13,0Zm.8-5.42c.13-.91.14-1.84.22-2.75,0,.72,0,1.44-.13,2.16A5.58,5.58,0,0,1,62.82,158.82Zm.37-5a1.16,1.16,0,0,1,.47-1A1.73,1.73,0,0,0,63.19,153.79Zm0-5.16a2.32,2.32,0,0,0,.17.87,1.14,1.14,0,0,0,.36.45A1.34,1.34,0,0,1,63.16,148.63Z"/><path class="cls-1" d="M47.92,157.83v-.05a3.12,3.12,0,0,1-1.07-2.36c-1.92-4.33-3.76-8.69-5.78-13-.9-1.92-1.1-5.43-3.12-5.23-1.7.17-2.16,3.69-2.88,5.86-.76,1.67-1.47,3.37-2.3,5-2.8,5.5-3.56,12-8.4,16.5,3.19.63,6.4.51,8.19-.32-3.56-1.34-3.44-1.31-2.29-5.07.53-1.75,1.4-2.33,3.12-2.19s3.5.09,5.25.12a1.85,1.85,0,0,1,2.29.67,1.09,1.09,0,0,0,.11-1.07,1.09,1.09,0,0,1-.11,1.07c0,.19,0,.39-.05.59l0,.07a5.18,5.18,0,0,1,1.15,2.84l.06,1.15c-.16,1.53-1.27,1.28-2.28,1.23h0c-.29.55-.58,1.11.45,1.11H52.76C49.57,162.83,48.65,160.38,47.92,157.83ZM36.16,146.32c-.17-.37-.41-.73-.62-1.09C35.75,145.59,36,146,36.16,146.32ZM35,143.4l0-.2Zm-.41,4.73c.28-.61,0-2.3,1.67-1.53l3.35,8.62C31.17,155.9,31.14,155.89,34.6,148.13Z"/><path class="cls-1" d="M113.94,137.27c-2.36-.23-3.66.62-4,3L103,156c-.9-.28-.92-1.15-1.22-1.82-2.09-4.81-4.15-9.63-6.25-14.43-.34-.78-.74-2.08-1.25-2.15a34.14,34.14,0,0,0-9.94.17c3.35,1.62,3.35,1.62,3.35,5.38q0,8.31,0,16.64c0,1.38,0,2.73-1.17,3.74-.88.15-1.9,0-2.85,1.35,3.56,0,6.66.45,10.62-.4l-4.18-1.54h0l-.53-1.08h0q0-9.92,0-19.82c.53,1,1.12,2,1.58,3.06,2.71,6.1,5.38,12.2,8.08,18.3.26.59.3,1.46,1.19,1.43s1-.82,1.26-1.43c.83-2,1.63-4.11,2.43-6.17a1.41,1.41,0,0,0-.3-.86,1.41,1.41,0,0,1,.3.86l6.72-14.94c.26,7,1.14,13.89.17,20.72-.85.75-2.24.41-3.25,1.65h13.49c-2.68-.7-3.36-2.45-3.32-4.89.09-6.5.09-13,.12-19.5l.72-1.24h0c.83-.56,2.08-.16,3-1.38C119,137.07,116.45,137.51,113.94,137.27Zm3.87,1.33h0Z"/><path class="cls-1" d="M150.21,66.88a6.75,6.75,0,0,0,6.73,6.65,6.92,6.92,0,0,0,6.75-6.72,6.77,6.77,0,0,0-6.95-6.74A6.63,6.63,0,0,0,150.21,66.88Z"/><path class="cls-1" d="M24.81,70a6.71,6.71,0,0,0,8.08.59c3.18-1.92,3.28-5,2.81-8.15l0,0c-3.44-4.34-5.35-4.86-10.49-2.88l0,0-.6.52-1.1,1.24C22,65.13,22.45,67.93,24.81,70Z"/><path class="cls-1" d="M135.59,9.63c1.74-2.1,2.5-4.36,1-6.93A4.89,4.89,0,0,0,131.49.06c-2.27.35-4.58,1.06-5.11,3.89C126.07,8.91,130.2,12.8,135.59,9.63Z"/><path class="cls-1" d="M117.06,10.81C122,11.46,124.85,9.56,125,4L124,2.19c-2-2.19-4.41-2.33-7-1.74C113.36,2.67,112.94,7.39,117.06,10.81Z"/><path class="cls-1" d="M25,145.45c.75-1.22.34-2.6.37-3.89.08-4.4,0-4.4-4.28-4.17H2.1c3.5,2.22,3.49,2.22,3.48,6.69,0,4.68,0,9.35,0,14,0,4.32,0,4.32-3.74,6.58H16.39c-4.68-.4-4.31-3.67-4.15-6.89.09-1.75-.05-3.51-.09-5.26l.09-.63,0-.09c4.64-.84,5.57,2.78,7.19,5.82V144.38l-.67-.42c-1,3.16-2,6.2-5.9,6.21a.37.37,0,0,0-.41-.08c-.05-3-.07-6-.17-9,0-1.45.59-2.19,2-2.26,4.91-.24,8.42.49,9.73,5.61C24.16,144.92,24.3,145.38,25,145.45Zm-13.28-7Zm0,3.94c0,.66,0,1.32,0,2C11.66,143.74,11.66,143.08,11.67,142.42Zm-.08,5.41A2.29,2.29,0,0,0,12,149.7,2.29,2.29,0,0,1,11.59,147.83Zm.43,1.88.2.2Z"/><path class="cls-1" d="M159.64,47c0,6.46,0,6.46,6.46,6,4.87,0,9.73.15,14.6.07,4.29-.07,6.86-2.65,7.06-6.9.09-1.94.11-3.89,0-5.84-.1-1.8.63-2.34,2.39-2.3,5,.1,9.93,0,14.9,0,7.6,0,15.19,0,22.79,0,4.72,0,6.11-1.43,6.12-6,0-2.44.12-4.88,0-7.3-.17-2.65,1.33-6.26-.67-7.69-1.84-1.32-5.26-.37-8-.53-1.5-.09-2.12.38-2,2,.11,2.13,0,4.28,0,6.42,0,1.47.09,2.57-2,2.59s-2.36-.81-2.36-2.58c0-2.69,1.25-6.45-.52-7.78s-5.39-.36-8.19-.52c-1.57-.08-2,.53-2,2,.1,2.33,0,4.67,0,7,0,1.15-.21,1.67-1.56,1.81-2.39.27-2.65-.84-2.64-2.85,0-8.55,0-8.55-8.56-8a1.37,1.37,0,0,1-.29,0c-1.4-.15-1.88.56-1.86,1.89,0,2.33-.12,4.68,0,7s-1.31,2-2.65,1.89-3.07.73-3-1.86c.13-3.6-.16-7.21.06-10.8.14-2.33-.74-2.75-2.81-2.7-5.45.13-10.91,0-16.36,0-4.63,0-7.79,2.81-7.94,7.43-.17,5.55,0,11.1-.07,16.65,0,1.55.57,2,2.06,2,3.11-.09,6.23,0,9.35,0,4.28,0,4.49.28,3.39,4.52-4.45,0-8.9.14-13.33,0-2.09-.06-2.81.68-2.53,2.66A12.61,12.61,0,0,1,159.64,47Zm14.12-18.51c-3.28.19-2.58-1.9-2.77-3.72-.23-2.2.52-2.94,2.86-3s3.07.91,2.88,2.53a6,6,0,0,0,0,1.58C177,27.82,175.92,28.33,173.76,28.46Z"/><path class="cls-1" d="M247.1,131.42c-1.31-.15-1.44,1.53-2.57,1.64a2,2,0,0,1-.58.88,2,2,0,0,0,.58-.88c-1.19-.8.16-1.93-.36-2.81-.08-.2-.17-.4-.26-.6l-.42-.55c-2.92-3-2.78.63-3.8,1.76a20.24,20.24,0,0,1-5.28,6.65c-.52.46-1.4,1.16-2,.45-.76-.87.34-1.32.85-1.79a30.91,30.91,0,0,0,4.18-4.74c-2-2-4.53-1.36-6.3,1.86a21.59,21.59,0,0,1-4.94,5.61c-.7.61-1.3,1.19-2.11.21,1.49-1.92,2.77-3.88,1.55-6.45a3.86,3.86,0,0,0-4.13,1.38c-.71.91-1.57,1.71-2.35,2.57-.61.66-.95,1-1.65-.12-1.3-2.13-3.47-2.45-5.25-.75s-3.55,3.84-5.26,5.81c-.34.39-.86.95-.21,1.48a.87.87,0,0,0,1.29-.2c1.27-2.74,1.81-.19,2.63.33l.24.81c2.86,1.88,4.59.22,6.14-2,.84-2.4,3.15-3.58,4.6-5.48.45-.59,1-.44,1.31.21-1,1.71-1.48,3.57.34,4.89,2,1.47,3.34-.16,4.5-1.65,1-1.27,1.79-2.54,3.42-.46,1,1.29,2.61.94,4,.16a36.22,36.22,0,0,0,5.56-7.24c.28-.46.55-1.11,1.28-.91s.46.94.56,1.46c-.48,1.66-.92,3.25-3,3.79-1.39.37-1.31,1.38-.41,2.35,3.72-.08,5.39-3.12,7.64-5.32C246.55,133,248,132.31,247.1,131.42Zm-35.26,11a1.18,1.18,0,0,1-.79.71,1.18,1.18,0,0,0,.79-.71,7.22,7.22,0,0,1,.77-3.31c.59-1.12,1.18-2.45,2.65-2.15,1.76.36,1.07,1.92,1.06,3.1C215,141,215.05,144.83,211.84,142.37Z"/><path class="cls-1" d="M9.39,70l.58.55,0,0c2.32.91,4.65,2,7,.15h0l.72-.34.19-.11c2.71-2.28,3.52-5,2.34-7.64-1.49-3.39-4.13-4.62-8.61-4a3.17,3.17,0,0,0-2.08,1.5c-2.88,3.08-3,6.16-.36,9.31Z"/></g></g></svg>