<svg xmlns="http://www.w3.org/2000/svg" viewBox="0 0 95.96 148.63"><defs><style>.a{fill:#eb5b30;}.b{fill:#43ad4c;}.c{fill:#f0e637;}.d{fill:#1177bc;}.e{fill:#1777bc;}.f{fill:#1677bc;}.g{fill:#1878bd;}.h{fill:#1978bd;}.i{fill:#237abe;}.j{fill:#317ec0;}.k{fill:#f8ba9c;}.l{fill:#2f7cbf;}.m{fill:#3780c2;}.n{fill:#357fc1;}.o{fill:#337ec0;}.p{fill:#f9c4a9;}.q{fill:#f9c2a7;}.r{fill:#facdb5;}.s{fill:#f28d63;}.t{fill:#f8bc9e;}.u{fill:#f9c5aa;}.v{fill:#598dc9;}.w{fill:#f9c1a5;}.x{fill:#f9c3a7;}.y{fill:#f9c1a6;}.z{fill:#f08357;}.aa{fill:#f8bd9f;}.ab{fill:#adc1e5;}.ac{fill:#f08458;}.ad{fill:#f8bb9d;}.ae{fill:#5f8ec9;}.af{fill:#f8bea1;}.ag{fill:#f6ab88;}.ah{fill:#fbd4bf;}.ai{fill:#f8b99a;}.aj{fill:#87a3d4;}.ak{fill:#f8ba9b;}.al{fill:#fbcfb8;}.am{fill:#ee7347;}.an{fill:#f49b75;}.ao{fill:#f4a078;}.ap{fill:#f6a985;}.aq{fill:#f49f78;}.ar{fill:#f5a681;}.as{fill:#facab2;}.at{fill:#eef2fb;}.au{fill:#d7e0f3;}.av{fill:#fff;}.aw{fill:#fdfdfd;}.ax{fill:#eb5d31;}.ay{fill:#fffefd;}</style></defs><path class="a" d="M307.16,208.34a2,2,0,0,1-1.58-1.71,29.15,29.15,0,0,0-.76-3.83,9.27,9.27,0,0,0-.46-1.28,3.67,3.67,0,0,0-.5-.83,1.48,1.48,0,0,0-1.53-.65,1.72,1.72,0,0,0-1.4,1.18,4.63,4.63,0,0,0-.2,1.34,11.35,11.35,0,0,1-.12,1.75,3.08,3.08,0,0,1-1.65,2.32,2.35,2.35,0,0,1-2.34,0,3.38,3.38,0,0,1-1.82-3,2,2,0,0,1,.93-1.79,5.41,5.41,0,0,1,1.37-.66l1.6-.58a4.44,4.44,0,0,0,1.19-.65,2.25,2.25,0,0,0,.9-1.82,1.07,1.07,0,0,0-.23-.62,8,8,0,0,0-5.77-3.84c-1.36-.22-2.74-.37-4.1-.58a9,9,0,0,1-6.08-3.52,3.45,3.45,0,0,1-.7-1.93,5.83,5.83,0,0,1,4.58-6,4.58,4.58,0,0,1,4.44,1.41,8,8,0,0,1,1.53,2.44,30.83,30.83,0,0,1,1.26,3.65,9,9,0,0,0,3,4.52,7.32,7.32,0,0,0,8.07,1.17,11.51,11.51,0,0,0,5.44-5c.52-.89.92-1.83,1.36-2.75a14.32,14.32,0,0,1,1.72-2.8,8.84,8.84,0,0,1,1.71-1.58,5.28,5.28,0,0,1,5.33-.6,6.82,6.82,0,0,1,4.19,4.63,4.89,4.89,0,0,1-1.17,4.8,7.64,7.64,0,0,1-4.45,2.41,23.45,23.45,0,0,1-3.45.35c-1.7.07-3.41.08-5.1.23a13,13,0,0,0-4.55,1.12,6.59,6.59,0,0,0-1.95,1.36,3.16,3.16,0,0,0-.7,3.56,5.86,5.86,0,0,0,1.92,2.56c.51.39,1,.75,1.56,1.13a5.44,5.44,0,0,1,1.08,1,1.58,1.58,0,0,1,0,2.13,2.2,2.2,0,0,1-1.28.89A1,1,0,0,1,307.16,208.34Z" transform="translate(-257.89 -128.19)"/><path class="a" d="M297.58,151.89c.2-1.2.38-2.28.57-3.36.27-1.62.55-3.24.85-4.86a.73.73,0,0,0-.3-.73l-5.62-5.46-.21-.23A3,3,0,0,1,294,137c2.23-.34,4.45-.66,6.68-1a1.2,1.2,0,0,0,1.07-.73c1.05-2.23,2.16-4.42,3.25-6.62a1.36,1.36,0,0,1,.3-.5,1.39,1.39,0,0,1,.31.52c1.12,2.26,2.24,4.51,3.33,6.77a.82.82,0,0,0,.71.53c1.67.22,3.34.47,5,.71l3.1.46c-.58.6-1.11,1.16-1.66,1.7-1.38,1.35-2.76,2.7-4.15,4a.89.89,0,0,0-.3.9c.45,2.51.88,5,1.31,7.54a.72.72,0,0,1,0,.46,1.4,1.4,0,0,1-.56-.24c-2.23-1.17-4.46-2.33-6.67-3.52a.76.76,0,0,0-.83,0q-3.33,1.77-6.68,3.51Z" transform="translate(-257.89 -128.19)"/><path class="a" d="M347.43,257.11a26.3,26.3,0,0,1,5.37.89.94.94,0,0,1,.45,1.67,2.15,2.15,0,0,1-1.14.58,24.28,24.28,0,0,1-3.89.45c-2,.15-3.93.25-5.88.58a8.36,8.36,0,0,0-2,.53c-.26.11-.59.23-.57.56s.39.37.66.43a19.18,19.18,0,0,0,2.92.41,47.93,47.93,0,0,1,6.08.79,7.77,7.77,0,0,1,1.82.6,4.15,4.15,0,0,1,2.54,3.44,6.83,6.83,0,0,1,0,2.21,5.23,5.23,0,0,1-2.23,3.3,10.74,10.74,0,0,1-4,1.65,10.13,10.13,0,0,1-8.26-1.67,6.22,6.22,0,0,1-1.71-1.72,3,3,0,0,1,1.19-4.42,6.64,6.64,0,0,1,3.31-.62,14.46,14.46,0,0,1,5.84,1.49c.23.11.56.15.56.49s-.28.48-.51.63a4.83,4.83,0,0,1-1.67.7,2.65,2.65,0,0,1-1.5-.1,17,17,0,0,0-2.6-.8,3.66,3.66,0,0,0-1.58-.07,1.35,1.35,0,0,0-.47.18.79.79,0,0,0-.05,1.33,5,5,0,0,0,2.33.85,12.16,12.16,0,0,0,6-.66,4.83,4.83,0,0,0,1.32-.76,2,2,0,0,0,.67-.9,1.21,1.21,0,0,0-.32-1.35,4.28,4.28,0,0,0-1.4-.85,16,16,0,0,0-3.74-.91c-1.61-.23-3.25-.17-4.87-.33a11.45,11.45,0,0,1-2.39-.45,2,2,0,0,1-1.49-1.92,4,4,0,0,1,1.56-3.75,9.29,9.29,0,0,1,3.3-1.6,22.17,22.17,0,0,1,5.3-.88C346.71,257.09,347.07,257.11,347.43,257.11Z" transform="translate(-257.89 -128.19)"/><path class="a" d="M318.16,268.13a6.11,6.11,0,0,0,2.42,1.77v-.71c0-1.64-.05-3.29,0-4.94a8.67,8.67,0,0,1,.34-1.95,3.65,3.65,0,0,1,.55-1.12,2.39,2.39,0,0,1,2.14-.93c.25,0,.25.17.27.34a22.48,22.48,0,0,1,.21,3.06c0,2.39,0,4.77,0,7.16,0,.57,0,.59.56.7a5.2,5.2,0,0,0,3.59-.43,9.78,9.78,0,0,0,1.81-1.26,3.25,3.25,0,0,0,1.06-3.43,8,8,0,0,0-2.95-4.46,13,13,0,0,0-6.47-2.7,15.5,15.5,0,0,0-2.26-.14,1,1,0,0,0-.8.32c-.23.25-.49.47-.76.73a2,2,0,0,1-.75-1.69,1.77,1.77,0,0,1,.85-1.34,4.3,4.3,0,0,1,2.08-.7,15.84,15.84,0,0,1,9.45,2.25,10.79,10.79,0,0,1,5,6.64,7.82,7.82,0,0,1,.15,3.93,6.84,6.84,0,0,1-2.43,3.62,11.13,11.13,0,0,1-7,2.64,1,1,0,0,0-.84.41,1.92,1.92,0,0,1-2.12.85,1.45,1.45,0,0,1-1.17-1.09,1.19,1.19,0,0,1-.09-.44c.09-.6-.27-.86-.7-1.15a8,8,0,0,1-2.16-2.07A3.33,3.33,0,0,1,318.16,268.13Z" transform="translate(-257.89 -128.19)"/><path class="a" d="M258,263.93a10.45,10.45,0,0,0,1.89.91c.46.15.47.15.5-.33.08-1.74.17-3.48.26-5.22a1.88,1.88,0,0,1,0-.34c.05-.28-.07-.63.14-.82a2,2,0,0,1,1-.46,4.46,4.46,0,0,1,2.45.24.43.43,0,0,1,.3.53c-.05.51-.12,1-.17,1.52a56,56,0,0,0-.18,5.79c0,.43,0,.44.42.51a17.66,17.66,0,0,0,3.63.14c.41,0,.42,0,.39-.49-.16-2.38-.31-4.76-.5-7.14a1.9,1.9,0,0,1,1-1.79.58.58,0,0,1,.31-.13,7.32,7.32,0,0,1,2.19.23.42.42,0,0,1,.34.44c.14,3.18.3,6.35.46,9.53.06,1.1.31,2.17.47,3.25a13,13,0,0,1,.06,3.63c-.16,1.13-.59,1.49-1.73,1.47a2.47,2.47,0,0,1-1.34-.42,1.42,1.42,0,0,1-.73-1.2c0-1.09-.11-2.19-.17-3.29,0-.48,0-.51-.52-.45a21.66,21.66,0,0,1-3.69,0c-.44,0-.45,0-.42.41.09,1.13.07,2.27.09,3.4,0,.23,0,.46,0,.68a.58.58,0,0,1-.42.55,3.57,3.57,0,0,1-2.76-.12,1.06,1.06,0,0,1-.54-.68,15.05,15.05,0,0,1-.58-4.32c0-.15,0-.3,0-.45a.56.56,0,0,0-.33-.64,3.46,3.46,0,0,1-.95-.8,2.43,2.43,0,0,1-.65-1.42c-.06-.56-.12-1.13-.19-1.69C257.86,264.61,258,264.33,258,263.93Z" transform="translate(-257.89 -128.19)"/><path class="a" d="M296.64,269.09c.05,1.31.11,2.46.16,3.61,0,.59,0,1.18.08,1.76a.52.52,0,0,1-.3.55,4.19,4.19,0,0,1-3,.32c-.22-.05-.27-.23-.32-.42a8.3,8.3,0,0,1-.15-1.86c0-2.14-.16-4.28-.26-6.41-.07-1.32-.05-2.65-.06-4s0-2.61,0-3.92a.71.71,0,0,1,.28-.63c.24-.18.46-.39.7-.58a1.22,1.22,0,0,1,1.95.29,5,5,0,0,1,.72,1.83,17.3,17.3,0,0,1,.26,4.13v.29c.21.08.37-.06.54-.12a11.73,11.73,0,0,0,5-3.7c.64-.79,1.25-1.61,1.83-2.45.39-.57.59-.61,1.17-.26a6.49,6.49,0,0,1,1.6,1.35c.34.39.34.48.09,1a16.18,16.18,0,0,1-4.84,5.56l-1.78,1.31c-.11.08-.24.13-.3.31a5.34,5.34,0,0,0,.87.84,28.78,28.78,0,0,0,5.42,3.62,2.31,2.31,0,0,1,.54,3.5,1.1,1.1,0,0,1-1.29.3,18.09,18.09,0,0,1-4.9-2.81c-1.1-.84-2.1-1.79-3.15-2.69Z" transform="translate(-257.89 -128.19)"/><path class="a" d="M297.76,241.4a3.12,3.12,0,0,0,.43-.15,1.87,1.87,0,0,0,.58-2.77.77.77,0,0,0-.44-.24,4.81,4.81,0,0,0-1-.12h-8.8a3.89,3.89,0,0,1-1.18-.13,2.3,2.3,0,0,1-1.7-1.94,3.48,3.48,0,0,1,1.39-3.56c1.8-1.32,3.64-2.58,5.47-3.85a1.45,1.45,0,0,1,1.6-.21,1.69,1.69,0,0,1,.82,1.53,2,2,0,0,1-1,1.75c-1.15.8-2.31,1.58-3.47,2.38-.14.1-.33.17-.41.35.13.13.29.08.43.08l7.61,0A3.5,3.5,0,0,1,301,236a5.34,5.34,0,0,1,1.15,4,8.57,8.57,0,0,1-.66,2.68,3.86,3.86,0,0,1-2.31,2.2,1.27,1.27,0,0,1-.34,0,1.32,1.32,0,0,1-.56,0H284.8c-.68,0-.73-.05-.74-.75s0-1.4,0-2.1.08-.67.7-.67h12.38A1.61,1.61,0,0,0,297.76,241.4Z" transform="translate(-257.89 -128.19)"/><path class="a" d="M324,241.39l-1.83-2.12a5.48,5.48,0,0,1,1.16-8.34,3.2,3.2,0,0,1,3.5-.14,5.18,5.18,0,0,1,1.7,1.39c.47.59.92,1.2,1.41,1.78a1.76,1.76,0,0,1-.51,2.73,1.22,1.22,0,0,1-1.43-.1,5,5,0,0,1-.55-.57c-.34-.38-.67-.77-1-1.16l-.19-.21a1.32,1.32,0,0,0-1.67-.42,1.6,1.6,0,0,0-.59,2,3.48,3.48,0,0,0,.59.83c1.45,1.67,2.9,3.35,4.36,5a2.65,2.65,0,0,1,.59,1.27,1.34,1.34,0,0,1-1.06,1.62,2.92,2.92,0,0,1-.78.09H316.47a4.48,4.48,0,0,1-4.48-3.89,7.53,7.53,0,0,1,0-2.72,4.16,4.16,0,0,1,3.45-3.59,4.34,4.34,0,0,1,1.07-.12,1.74,1.74,0,0,1,.61.11,1.71,1.71,0,0,1,1,2,1.51,1.51,0,0,1-1.44,1.43h0a1.55,1.55,0,0,0-1.5,2.27,1.29,1.29,0,0,0,1.2.9c.24,0,.49,0,.73,0h7Z" transform="translate(-257.89 -128.19)"/><path class="b" d="M277.49,143.86l2.12-.32c1.16-.17,2.32-.34,3.49-.49a.88.88,0,0,0,.74-.57c.72-1.5,1.47-3,2.21-4.48.09-.19.18-.37.29-.57.21.11.25.32.34.5.76,1.52,1.52,3,2.26,4.58a.8.8,0,0,0,.7.53c1.69.23,3.37.48,5.06.73a1.25,1.25,0,0,1,.56.13c-.56.58-1.11,1.17-1.68,1.75-.77.76-1.53,1.53-2.32,2.25a.87.87,0,0,0-.29.9c.32,1.79.62,3.58.93,5.37a.33.33,0,0,1,0,.22,1.06,1.06,0,0,1-.51-.22c-1.53-.79-3.06-1.59-4.57-2.41a.84.84,0,0,0-.89,0c-1.5.81-3,1.59-4.52,2.38l-.55.28a12.28,12.28,0,0,1,.24-1.69c.23-1.38.47-2.76.73-4.14a.64.64,0,0,0-.26-.63q-1.83-1.78-3.67-3.56a4.54,4.54,0,0,0-.48-.39Z" transform="translate(-257.89 -128.19)"/><path class="b" d="M317.87,154.38c0-.67.2-1.32.3-2,.2-1.22.4-2.43.63-3.64a.85.85,0,0,0-.29-.89c-1.25-1.19-2.47-2.4-3.71-3.6a4,4,0,0,0-.34-.27.37.37,0,0,1,.38-.22c1.66-.25,3.33-.48,5-.72a2.7,2.7,0,0,1,.28,0,.77.77,0,0,0,.72-.52c.77-1.62,1.58-3.23,2.38-4.84l.14-.26c.18.09.21.26.28.4.77,1.54,1.54,3.08,2.28,4.64a.9.9,0,0,0,.79.59c1.67.23,3.33.48,5,.72.19,0,.37.06.55.09.06.2-.1.25-.18.33-1.26,1.23-2.52,2.47-3.79,3.69a.85.85,0,0,0-.32.87c.33,1.67.59,3.35.88,5a1.59,1.59,0,0,1,0,.58c-.18,0-.31-.09-.45-.16-1.54-.81-3.09-1.61-4.62-2.44a.84.84,0,0,0-.89,0c-1.48.8-3,1.58-4.47,2.36A1.49,1.49,0,0,1,317.87,154.38Z" transform="translate(-257.89 -128.19)"/><path class="a" d="M297.76,241.4c-.19.18-.43.1-.65.1H285c-.75,0-.72-.06-.72.7s0,1.51,0,2.27c0,.42,0,.43.46.44h14.13a.78.78,0,0,1-.54.09q-7.76,0-15.5,0c-.48,0-.49,0-.49-.49s0-.72,0-1.08a.28.28,0,0,1,0-.27c-.06.08,0,.2-.1.25a2.65,2.65,0,0,1-.74,1.12,2.57,2.57,0,0,1-1.61.48c-2.76,0-5.53,0-8.29,0H268a1.59,1.59,0,0,1-1.67-1.11,2.47,2.47,0,0,1,0-1.4,1.3,1.3,0,0,1,1.12-1,6,6,0,0,1,.73-.06h3.58c.43,0,.44,0,.44-.45,0-.7,0-1.4,0-2.1a3.27,3.27,0,0,0-.13-.83,1.3,1.3,0,0,0-2.12-.68,2.61,2.61,0,0,0-.7,1c-.11.24-.21.49-.31.73-.31.68-.76,1-1.28.93a1.59,1.59,0,0,1-1.38-1.31,3.37,3.37,0,0,1,.55-2.33,5.69,5.69,0,0,1,2-2,4.18,4.18,0,0,1,5.39,1.27,5,5,0,0,1,.91,2.65c0,.89,0,1.78.06,2.67,0,.48,0,.48.5.49h2.67c.69,0,.87-.17.87-.88,0-1.21,0-2.42,0-3.64a4.3,4.3,0,0,1,.09-1.07,1.46,1.46,0,0,1,1.41-1.24,1.47,1.47,0,0,1,1.48,1.23,3.46,3.46,0,0,1,.09.85v4.2c0,.57-.06.55.56.55h14.88Z" transform="translate(-257.89 -128.19)"/><path class="a" d="M340.27,213.78l-3.35-.62c-2.14-.39-4.29-.71-6.44-1-2.59-.35-5.19-.63-7.79-.86s-5.13-.38-7.71-.51c-3.44-.18-6.89-.23-10.33-.23-3.62,0-7.24.09-10.85.28q-4.85.27-9.68.74c-3.29.33-6.58.72-9.86,1.19-2.47.35-4.94.74-7.39,1.2-.15,0-.3,0-.45.05s-.14,0-.13-.11c3.09-1,6.23-1.72,9.39-2.4s6.39-1.24,9.61-1.69q3.76-.52,7.56-.85,6.84-.6,13.72-.53h.17c.84.1,1.69,0,2.52.08,2,0,3.93.16,5.9.31,1.62.12,3.24.29,4.85.48,2.5.3,5,.68,7.46,1.13a110.06,110.06,0,0,1,12.65,3.1l.38.12C340.5,213.88,340.38,213.83,340.27,213.78Z" transform="translate(-257.89 -128.19)"/><path class="c" d="M341.86,159.19l-.72.71c-.85.84-1.69,1.68-2.56,2.5a.81.81,0,0,0-.28.84c.27,1.33.48,2.67.7,4a1.15,1.15,0,0,1,0,.59l-3.17-1.67c-.34-.17-.68-.33-1-.53a.65.65,0,0,0-.73,0c-1.21.66-2.44,1.29-3.66,1.93l-.46.23a.47.47,0,0,1-.05-.44c.23-1.36.44-2.72.72-4.07a.92.92,0,0,0-.35-1c-1-1-2-2-3.05-3a.25.25,0,0,1-.12-.21,4.81,4.81,0,0,1,1.3-.24c1.12-.18,2.24-.33,3.37-.48a.63.63,0,0,0,.54-.42c.6-1.24,1.21-2.48,1.82-3.72l.28-.51a1.21,1.21,0,0,1,.32.5c.59,1.19,1.18,2.37,1.75,3.57a.91.91,0,0,0,.84.61c1.35.15,2.69.37,4,.57A.75.75,0,0,1,341.86,159.19Z" transform="translate(-257.89 -128.19)"/><path class="c" d="M284.82,159.14,282,161.89c-.9.87-.89.87-.68,2.09s.43,2.38.63,3.57a.89.89,0,0,1,0,.23c-.2,0-.33-.09-.47-.16-1.23-.64-2.46-1.27-3.67-1.94a.82.82,0,0,0-.88,0c-1.24.68-2.51,1.33-3.76,2l-.36.19a9.41,9.41,0,0,1,.23-1.57c.16-1,.34-2.09.53-3.13a.63.63,0,0,0-.22-.69c-1-.93-1.93-1.87-2.89-2.81l-.51-.51a18.68,18.68,0,0,1,2.22-.37q1.29-.21,2.58-.36c.31,0,.41-.23.52-.46.57-1.17,1.15-2.34,1.73-3.51l.34-.65c.2.08.23.26.3.41.62,1.25,1.24,2.51,1.85,3.77a.72.72,0,0,0,.64.45c1.39.18,2.77.39,4.16.59A5.06,5.06,0,0,1,284.82,159.14Z" transform="translate(-257.89 -128.19)"/><path class="a" d="M303.45,194.23a4.39,4.39,0,0,1-2.7-.9,5.52,5.52,0,0,1-2.07-5.63,4.07,4.07,0,0,1,.88-1.7,5.87,5.87,0,0,1,3.61-2.05,3.94,3.94,0,0,1,2,.17,5.4,5.4,0,0,1,3.83,4.23,3.76,3.76,0,0,1-.16,1.85A5.86,5.86,0,0,1,303.45,194.23Z" transform="translate(-257.89 -128.19)"/><path class="a" d="M339.34,241.17a.33.33,0,0,1,.26.08.24.24,0,0,1,0,.35.21.21,0,0,1-.34.05c-.32-.28-.69-.11-1-.14-.19,0-.25.12-.25.3,0,.92,0,1.85,0,2.77,0,.25.13.34.36.33h13.55a.89.89,0,0,1-.6.09h-16a4.59,4.59,0,0,1-.73-.06,2.13,2.13,0,0,1-2-1.9,7.31,7.31,0,0,1-.13-1.47q0-7.07,0-14.14a3,3,0,0,1,.27-1.38,1.52,1.52,0,0,1,1.52-.89,1.42,1.42,0,0,1,1.26,1.14,4.23,4.23,0,0,1,.15,1.23V240.1c0,.23,0,.46,0,.69,0,.46.16.6.63.6H339C339.2,241.4,339.35,241.4,339.34,241.17Z" transform="translate(-257.89 -128.19)"/><path class="a" d="M313.78,265.62c0,3.28.14,5.55.12,7.82a3.45,3.45,0,0,1-.1.9,1.35,1.35,0,0,1-1.26,1.05,4.83,4.83,0,0,1-1.07-.08,1.51,1.51,0,0,1-1.31-1.23,8,8,0,0,1-.35-2.17c0-1.9.18-3.78.22-5.68,0-1.41,0-2.83.11-4.25s.23-2.94.38-4.41c0-.15.06-.3.08-.45a.33.33,0,0,1,.4-.3,2.33,2.33,0,0,1,2.34,1.56,4.38,4.38,0,0,1,.25,1.39C313.67,262.05,313.74,264.34,313.78,265.62Z" transform="translate(-257.89 -128.19)"/><path class="a" d="M279.86,266.69q0,3.33,0,6.64a5.29,5.29,0,0,1,0,.8,1.38,1.38,0,0,1-1.36,1.27,4.13,4.13,0,0,1-1.56-.26,1,1,0,0,1-.57-.6,6.12,6.12,0,0,1-.52-2.42c0-1.84.13-3.67.18-5.5,0-.8,0-1.59.06-2.38a62.55,62.55,0,0,1,.48-6.85c.07-.56.12-.6.69-.56a2.29,2.29,0,0,1,2.14,1.66,4.66,4.66,0,0,1,.23,1.28c.07,2.31.13,4.62.2,6.92Z" transform="translate(-257.89 -128.19)"/><path class="a" d="M294.26,166.8a5.87,5.87,0,0,0,1.44.58c0-.8.09-1.57.13-2.34,0-.49.08-1,.08-1.48a.56.56,0,0,1,.42-.58,2.37,2.37,0,0,1,1.72.06c.23.07.25.22.22.44a29.47,29.47,0,0,0-.2,4.2c0,.49,0,.49.49.55a10.81,10.81,0,0,0,1.7.08c.57,0,.57,0,.53-.59-.1-1.37-.19-2.75-.3-4.13a1,1,0,0,1,.23-.79.89.89,0,0,1,.83-.4h.28c.95,0,1,.08,1,1,.08,1.77.16,3.55.26,5.33,0,.56.15,1.12.24,1.68a10,10,0,0,1,.09,2.38c-.06.92-.58,1.17-1.45.95a1.06,1.06,0,0,1-.93-1.17c0-.6-.07-1.21-.09-1.81,0-.23-.1-.29-.32-.26a9.75,9.75,0,0,1-2.16,0c-.38,0-.4,0-.37.35.06.7.07,1.4.06,2.1s-.09.64-.63.75a2.1,2.1,0,0,1-.79,0,1,1,0,0,1-1-.86,11,11,0,0,1-.28-2.42.85.85,0,0,0-.39-.8,1.75,1.75,0,0,1-.82-1.36A7.3,7.3,0,0,1,294.26,166.8Z" transform="translate(-257.89 -128.19)"/><path class="a" d="M309.55,169.61a2.13,2.13,0,0,0,.69.71,24.51,24.51,0,0,0,3.25,2.17,1.38,1.38,0,0,1,.48,2,.75.75,0,0,1-1,.34,10.31,10.31,0,0,1-2.8-1.58c-.74-.54-1.4-1.16-2.09-1.75a1.76,1.76,0,0,0-.58-.43,1.46,1.46,0,0,0,0,.55c0,.85.06,1.7.12,2.55a.52.52,0,0,1-.36.61,2.89,2.89,0,0,1-1.67.12.34.34,0,0,1-.26-.33c0-.3-.09-.61-.1-.91,0-2.95-.26-5.9-.18-8.85,0-.22-.09-.48.08-.65a2.34,2.34,0,0,1,.81-.62.74.74,0,0,1,.93.33,3.33,3.33,0,0,1,.48,1.26,11.22,11.22,0,0,1,.15,2.32v.38a6.77,6.77,0,0,0,2.68-1.57,13.54,13.54,0,0,0,1.8-2.19c.34-.49.39-.74,1.17-.18,1,.74,1.05.89.4,1.94a10.47,10.47,0,0,1-2.68,2.83Z" transform="translate(-257.89 -128.19)"/><path class="d" d="M284.5,174.71c0,.23-.17.3-.27.4-.74.73-1.48,1.47-2.24,2.18a.78.78,0,0,0-.25.79c.18,1,.34,2,.51,3a1.28,1.28,0,0,1,0,.52c-.17.08-.28-.05-.4-.11-.93-.48-1.86-.95-2.76-1.46a.78.78,0,0,0-.88,0c-.86.48-1.74.93-2.61,1.38a1,1,0,0,1-.55.21c0-.68.22-1.34.31-2s.17-1.05.28-1.56a.65.65,0,0,0-.23-.7c-.77-.73-1.52-1.47-2.28-2.22-.1-.09-.26-.16-.26-.39l1.77-.27c.6-.08,1.19-.17,1.8-.24a.69.69,0,0,0,.58-.45c.44-.92.9-1.84,1.36-2.75a1,1,0,0,1,.32-.49c.44.88.92,1.74,1.29,2.64a1.6,1.6,0,0,0,1.52,1.15C282.53,174.36,283.5,174.57,284.5,174.71Z" transform="translate(-257.89 -128.19)"/><path class="d" d="M337.06,174.77c0,.17-.15.24-.25.34-.74.73-1.48,1.46-2.24,2.17a.73.73,0,0,0-.25.79c.22,1.11.39,2.24.58,3.35,0,.05,0,.11,0,.17a1,1,0,0,1-.53-.21c-.87-.45-1.75-.89-2.61-1.38a.85.85,0,0,0-.93,0c-.84.47-1.7.91-2.56,1.35a1.36,1.36,0,0,1-.52.23c-.12-.13-.05-.28,0-.42.18-1.06.34-2.12.55-3.18a.62.62,0,0,0-.22-.64c-.74-.7-1.46-1.43-2.19-2.14-.14-.13-.29-.24-.44-.36l.06-.12,1.64-.26c.63-.09,1.27-.19,1.91-.26a.7.7,0,0,0,.63-.47c.52-1.07,1.05-2.13,1.57-3.2.21.06.23.23.29.36.46.91.92,1.82,1.35,2.74a.9.9,0,0,0,.8.59c1.11.13,2.21.31,3.31.47A.28.28,0,0,1,337.06,174.77Z" transform="translate(-257.89 -128.19)"/><path class="a" d="M264.12,241.87V247a5.25,5.25,0,0,1-.23,1.62,2.11,2.11,0,0,1-1.95,1.57,5.12,5.12,0,0,1-1.41,0A1.44,1.44,0,0,1,259.3,249a2.59,2.59,0,0,1,.08-1.56,1.15,1.15,0,0,1,.8-.74c.7-.22.73-.27.73-1v-9a4.64,4.64,0,0,1,.14-1.29,1.49,1.49,0,0,1,2.91,0,4.61,4.61,0,0,1,.16,1.23Z" transform="translate(-257.89 -128.19)"/><path class="a" d="M325.37,248.81a2,2,0,0,1-.63,1.5,1.39,1.39,0,0,1-1.86.08,2.05,2.05,0,0,1-.07-3.13,1.47,1.47,0,0,1,2,.09A2.06,2.06,0,0,1,325.37,248.81Z" transform="translate(-257.89 -128.19)"/><path class="a" d="M321.07,248.86a2,2,0,0,1-.4,1.24,1.44,1.44,0,0,1-2.19.19,2.06,2.06,0,0,1,0-3,1.42,1.42,0,0,1,2,0A2,2,0,0,1,321.07,248.86Z" transform="translate(-257.89 -128.19)"/><path class="a" d="M263.92,227.5a1.89,1.89,0,0,1-.43,1.21,1.45,1.45,0,0,1-2.15.17,2.09,2.09,0,0,1,.14-3.11,1.38,1.38,0,0,1,1.77.06A2,2,0,0,1,263.92,227.5Z" transform="translate(-257.89 -128.19)"/><path class="a" d="M279.94,248.81a2,2,0,0,1-.5,1.41,1.42,1.42,0,0,1-2,.15,2,2,0,0,1-.18-3,1.43,1.43,0,0,1,2.16,0A1.9,1.9,0,0,1,279.94,248.81Z" transform="translate(-257.89 -128.19)"/><path class="a" d="M283.61,248.7a2.07,2.07,0,0,1-.58,1.6,1.4,1.4,0,0,1-1.91.07,2.05,2.05,0,0,1-.63-2.26,1.63,1.63,0,0,1,1.61-1.19,1.67,1.67,0,0,1,1.46,1.38C283.59,248.46,283.6,248.64,283.61,248.7Z" transform="translate(-257.89 -128.19)"/><path class="e" d="M297.72,217.61c.3.42.29.53,0,1a1.21,1.21,0,0,1-1.3.6,3.51,3.51,0,0,0-.56,0,.78.78,0,0,0-.73.36,1.54,1.54,0,0,1-1.57.69,1.88,1.88,0,0,0-1.35.25.14.14,0,0,1-.16,0,.19.19,0,0,1,0-.21.93.93,0,0,1,.7-.6,6.77,6.77,0,0,1,1.35-.1,1.52,1.52,0,0,0,.67-.1c.08,0,.17-.09.16-.2s-.09-.12-.16-.14l-.11,0c-.22-.07-.52-.06-.53-.4a1.25,1.25,0,0,1,.62-.83.43.43,0,0,1,.5.28c.16.41.46.44.82.42s.83,0,1.25,0c.07,0,.16,0,.18-.1s-.08-.17-.16-.19a.9.9,0,0,0-.56,0c-.08,0-.19.08-.26,0s0-.22,0-.31a1.35,1.35,0,0,1,.46-.49,3.4,3.4,0,0,1,1.08-.49,1,1,0,0,1,.77.06.43.43,0,0,1,.25.56,1.42,1.42,0,0,0-.05.16c-.15.59.05.86.66.89a3.2,3.2,0,0,0,.62,0c.44,0,.54-.19.34-.59a.51.51,0,0,1,.09-.7c.13-.13.23-.09.32,0a1.3,1.3,0,0,1-.83,1.8,2.3,2.3,0,0,1-1,.05.78.78,0,0,1-.7-1C298.64,217.55,298.49,217.42,297.72,217.61Z" transform="translate(-257.89 -128.19)"/><path class="f" d="M313.63,215.42a6.49,6.49,0,0,0,.16,2.75,5.65,5.65,0,0,1,.55-.36.64.64,0,0,1,.74.08.58.58,0,0,1,.09.73,1.5,1.5,0,0,1-.87.77,1.94,1.94,0,0,1-.48.16.72.72,0,0,0-.68.56s-.05.11-.14.1.08-.31,0-.5a5.34,5.34,0,0,1-1.58-.16,1.85,1.85,0,0,0-.84.06,2.32,2.32,0,0,1-.91,0c-.54-.12-.74-.36-.69-.92s.12-.93.19-1.4a2.48,2.48,0,0,0-.1-1.18c-.13-.36,0-.56.32-.78a2.38,2.38,0,0,1,.27,1.55c-.07.47-.16.94-.2,1.4s.09.72.65.74c.13,0,.26,0,.39,0a.44.44,0,0,0,.54-.36,1.63,1.63,0,0,1,.45-.71c.13-.14.29-.27.49-.18s.25.31.24.53a1.4,1.4,0,0,1-.19.53c-.08.16,0,.25.14.27h.06c1,.15,1.18,0,1-1-.07-.44-.18-.89-.23-1.34A1.15,1.15,0,0,1,313.63,215.42Z" transform="translate(-257.89 -128.19)"/><path class="g" d="M305.84,218.88a7.06,7.06,0,0,0,1.3,0c.41,0,.51-.19.46-.6s-.24-.91-.34-1.37a1.47,1.47,0,0,1,.28-1.57c.11,0,.16,0,.13.13a3.38,3.38,0,0,0,.15,1.34c.07.28.12.56.2.83a1.53,1.53,0,0,1-.26,1.34,1.07,1.07,0,0,1-1,.54c-.83,0-1.65-.13-2.49-.1s-1-.3-.91-1a10.27,10.27,0,0,1,.17-1.24,2.23,2.23,0,0,0-.08-1.23c-.15-.39,0-.6.3-.85a2.46,2.46,0,0,1,.25,1.77c-.06.41-.15.82-.18,1.23s.09.66.58.72a2.34,2.34,0,0,0,1.23-.09C305.73,218.7,305.77,218.81,305.84,218.88Z" transform="translate(-257.89 -128.19)"/><path class="h" d="M290.33,221.53a2.17,2.17,0,0,0-.52-1.37,4.87,4.87,0,0,1-.32-.47,1.3,1.3,0,0,1,.77-2,.85.85,0,0,0,.6-.43.62.62,0,0,1,.57-.31c.26,0,.5,0,.61.3a.69.69,0,0,1-.25.71,1.6,1.6,0,0,1-.85.26,7.63,7.63,0,0,0-1,.12c-.31.06-.39.21-.26.49a6.13,6.13,0,0,0,.49.82,3,3,0,0,1,.46.91A.84.84,0,0,1,290.33,221.53Z" transform="translate(-257.89 -128.19)"/><path class="i" d="M316,219.75a6.18,6.18,0,0,0-.1-2.74,1.37,1.37,0,0,1,.47-1.42s.1,0,.2-.08a9.57,9.57,0,0,0,.05,2.83A1.39,1.39,0,0,1,316,219.75Z" transform="translate(-257.89 -128.19)"/><path class="j" d="M316.31,214.25c.09.2.23.19.42.15s.38,0,.31.32a.79.79,0,0,1-.43.5,3.67,3.67,0,0,1-1,.32c0-.4.27-.49.56-.53s.16-.14,0-.2c-.32-.24-.15-.47,0-.69C316.29,214.11,316.35,214.14,316.31,214.25Z" transform="translate(-257.89 -128.19)"/><path class="k" d="M348.35,215.81c-.07.16-.23.14-.34.16a4.33,4.33,0,0,1-3.54-.7l.07-.07a.54.54,0,0,1,.43.07,4.64,4.64,0,0,0,3,.44.57.57,0,0,1,.34,0Z" transform="translate(-257.89 -128.19)"/><path class="l" d="M305.86,216.39c.15,0,.51.26.5.38s-.3.43-.41.4a.59.59,0,0,1-.47-.35C305.44,216.69,305.71,216.4,305.86,216.39Z" transform="translate(-257.89 -128.19)"/><path class="m" d="M300.9,216a.73.73,0,0,1-.24.39c-.24.23-.37,0-.53-.12s-.11-.21,0-.33.24-.31.47-.17S300.8,215.9,300.9,216Z" transform="translate(-257.89 -128.19)"/><path class="n" d="M296.74,219.71c.13,0,.48.28.45.38a.57.57,0,0,1-.38.39c-.11,0-.47-.24-.48-.34S296.61,219.71,296.74,219.71Z" transform="translate(-257.89 -128.19)"/><path class="o" d="M311.65,216.08a.69.69,0,0,1,.46.35c0,.14-.28.44-.41.41a.56.56,0,0,1-.42-.32C311.23,216.39,311.5,216.09,311.65,216.08Z" transform="translate(-257.89 -128.19)"/><path class="p" d="M342.45,211.05a4.59,4.59,0,0,1,.8-2.2c.12-.16.22-.35.43-.42l.05.06a.44.44,0,0,1-.14.41,4.44,4.44,0,0,0-.83,2,.36.36,0,0,1-.15.19A.15.15,0,0,1,342.45,211.05Z" transform="translate(-257.89 -128.19)"/><path class="q" d="M351.31,213.1a3.7,3.7,0,0,1-1.58,2.06l-.05-.07a.3.3,0,0,1,.07-.21A9.75,9.75,0,0,0,351.2,213C351.29,213,351.36,213,351.31,213.1Z" transform="translate(-257.89 -128.19)"/><path class="r" d="M351.31,213.1l-.1-.12a17,17,0,0,1,.16-2.14.11.11,0,0,1,.16,0,2.86,2.86,0,0,1,0,1.76A.84.84,0,0,1,351.31,213.1Z" transform="translate(-257.89 -128.19)"/><path class="s" d="M309.26,208.53c-.77.06-1.54,0-2.31,0a.6.6,0,0,1-.21-.08c.14-.06.31,0,.42-.11a2.53,2.53,0,0,0,1.31,0c.08.16.23.11.35.13S309.13,208.44,309.26,208.53Z" transform="translate(-257.89 -128.19)"/><path class="t" d="M346.08,207.07a3.48,3.48,0,0,1,2.61.22l-.07.06c-.82-.08-1.65-.09-2.47-.21Z" transform="translate(-257.89 -128.19)"/><path class="u" d="M343.09,213.79a3.55,3.55,0,0,1-.64-1.84.15.15,0,0,1,.16,0,9.31,9.31,0,0,1,.58,1.71A.22.22,0,0,1,343.09,213.79Z" transform="translate(-257.89 -128.19)"/><path class="v" d="M316.31,214.25l-.12-.13a.63.63,0,0,1,.59-.35c.15,0,.18.1.11.23S316.51,214.19,316.31,214.25Z" transform="translate(-257.89 -128.19)"/><path class="w" d="M349.73,207.84a2.26,2.26,0,0,1,1,1l-.06,0a1.84,1.84,0,0,1-1-1Z" transform="translate(-257.89 -128.19)"/><path class="x" d="M350.75,208.87a1.88,1.88,0,0,1,.56,1.15l-.08,0a1.36,1.36,0,0,1-.52-1.13Z" transform="translate(-257.89 -128.19)"/><path class="t" d="M345.05,207.4a1.42,1.42,0,0,1,1-.33h0c-.2.43-.57.43-1,.4Z" transform="translate(-257.89 -128.19)"/><path class="y" d="M343.68,214.57a1.36,1.36,0,0,1-.59-.78l.05,0a.81.81,0,0,1,.59.76Z" transform="translate(-257.89 -128.19)"/><path class="z" d="M340.27,213.78c.08,0,.17,0,.23-.11a1.07,1.07,0,0,1,.57.21s.06,0,0,.06,0,0,0,0A2.53,2.53,0,0,1,340.27,213.78Z" transform="translate(-257.89 -128.19)"/><path class="aa" d="M348.69,207.29a.86.86,0,0,1,.7.32l-.06.07c-.3,0-.57,0-.64-.38Z" transform="translate(-257.89 -128.19)"/><path class="k" d="M342.55,212h-.1v-.9h.1a.45.45,0,0,1,.14.26A.73.73,0,0,1,342.55,212Z" transform="translate(-257.89 -128.19)"/><path class="t" d="M349.39,215.38a.83.83,0,0,1-.7.32l0-.07a.69.69,0,0,1,.59-.33A.2.2,0,0,1,349.39,215.38Z" transform="translate(-257.89 -128.19)"/><path class="t" d="M344.47,207.73a.86.86,0,0,1,.58-.33v0c0,.31-.23.36-.47.39A.2.2,0,0,1,344.47,207.73Z" transform="translate(-257.89 -128.19)"/><path class="ab" d="M316.17,214.81h.42a.35.35,0,0,1-.42.2Z" transform="translate(-257.89 -128.19)"/><path class="ac" d="M266.29,213.91l.13.11c-.14.12-.31.09-.47.11s-.14,0-.1-.11Z" transform="translate(-257.89 -128.19)"/><path class="aa" d="M344,208.09a.62.62,0,0,1,.44-.36l0,0a.35.35,0,0,1-.41.37Z" transform="translate(-257.89 -128.19)"/><path class="ad" d="M351.31,210a1,1,0,0,1,.21.57.14.14,0,0,1-.15,0,.29.29,0,0,1-.15-.19.37.37,0,0,1,.08-.39Z" transform="translate(-257.89 -128.19)"/><path class="ae" d="M305.84,218.88l-.25-.12a.77.77,0,0,1,.31-.31C306,218.62,305.8,218.73,305.84,218.88Z" transform="translate(-257.89 -128.19)"/><path class="aa" d="M344.47,215.27a.62.62,0,0,1-.44-.36l.07,0a.34.34,0,0,1,.4.36Z" transform="translate(-257.89 -128.19)"/><path class="af" d="M265.85,214l.1.11a.45.45,0,0,1-.51.05A1,1,0,0,1,265.85,214Z" transform="translate(-257.89 -128.19)"/><path class="ag" d="M341.29,213.9l.45.11s.06,0,.05.06,0,0,0,0c-.17,0-.34,0-.46-.11s-.05,0,0-.06S341.28,213.9,341.29,213.9Z" transform="translate(-257.89 -128.19)"/><path class="ah" d="M341.76,214.11s0-.06,0-.1l.37.14C342,214.28,341.86,214.24,341.76,214.11Z" transform="translate(-257.89 -128.19)"/><path class="ai" d="M349.39,207.61a.46.46,0,0,1,.34.23l0,0c-.22.08-.33,0-.34-.23Z" transform="translate(-257.89 -128.19)"/><path class="aj" d="M307.67,215.49l-.13-.13c0-.1.11-.21.18-.16S307.76,215.4,307.67,215.49Z" transform="translate(-257.89 -128.19)"/><path class="ak" d="M349.73,215.16a.47.47,0,0,1-.34.22l0,0c0-.23.12-.31.34-.24Z" transform="translate(-257.89 -128.19)"/><path class="k" d="M348.69,215.7c-.08.16-.22.12-.34.11h0c0-.26.18-.2.34-.12Z" transform="translate(-257.89 -128.19)"/><path class="t" d="M282.18,243.42c0-.09,0-.24.06-.23s.07.16.05.25Z" transform="translate(-257.89 -128.19)"/><path class="al" d="M346.1,235.14c.06,0,.09.07,0,.1a.13.13,0,0,1-.17-.09Z" transform="translate(-257.89 -128.19)"/><path class="am" d="M341.29,213.9a.34.34,0,0,1,0,.1l-.22,0v-.1Z" transform="translate(-257.89 -128.19)"/><path class="ad" d="M351.42,210.59h.1v.23h-.1a.14.14,0,0,1-.07-.11A.24.24,0,0,1,351.42,210.59Z" transform="translate(-257.89 -128.19)"/><path class="an" d="M343.8,208.32c0-.07,0-.11.12-.11l0,0a.16.16,0,0,1-.08.08Z" transform="translate(-257.89 -128.19)"/><path class="ao" d="M344,214.91a.11.11,0,0,1-.11-.12H344a.1.1,0,0,1,0,.13Z" transform="translate(-257.89 -128.19)"/><path class="ap" d="M343.92,214.79a.11.11,0,0,1-.12-.11h.08a.1.1,0,0,1,.05.08s0,.05,0,.05Z" transform="translate(-257.89 -128.19)"/><path class="ap" d="M343.8,214.68a.14.14,0,0,1-.12-.11l0,0c.09,0,.14,0,.1.13Z" transform="translate(-257.89 -128.19)"/><path class="aq" d="M343.68,208.43a.11.11,0,0,1,.12-.11h0c0,.11,0,.14-.11.13Z" transform="translate(-257.89 -128.19)"/><path class="ar" d="M343.92,208.21c0-.08,0-.11.11-.12h0c0,.1,0,.15-.12.11Z" transform="translate(-257.89 -128.19)"/><path class="a" d="M352.86,240.07l-6.78-10.7a3.67,3.67,0,0,0-.5-.62,1.22,1.22,0,0,0-1.15-.32,1.68,1.68,0,0,0-1.17,1.89,2.77,2.77,0,0,0,.44,1.1c.81,1.23,1.6,2.48,2.4,3.72,0,.08-.1,0-.15,0a9.49,9.49,0,0,0-1-.44,3.85,3.85,0,0,0-4.31,1,5.49,5.49,0,0,0-1.32,5.5c.14.16.11.28-.11.28s-.49,0-.73,0c-.57,0-.65.07-.67.65s0,1.43,0,2.15.07.72.77.72h12.75a1.32,1.32,0,0,0,.56,0,1.07,1.07,0,0,0,.9-.41,3.24,3.24,0,0,0,.83-2.45A4.47,4.47,0,0,0,352.86,240.07Zm-8.18.28a1.26,1.26,0,0,1-1.17.83,1.2,1.2,0,0,1-1.25-.7,1.86,1.86,0,0,1,.13-2,1.27,1.27,0,0,1,2.2.1,1.83,1.83,0,0,1,.24,1.06A2,2,0,0,1,344.68,240.35Zm2.81,1a5.8,5.8,0,0,0,.17-3.27c0-.12,0-.15.12-.13l2.25,3.4Z" transform="translate(-257.89 -128.19)"/><path class="as" d="M347.78,238l-.12.13a.36.36,0,0,1-.08-.39A.33.33,0,0,1,347.78,238Z" transform="translate(-257.89 -128.19)"/><path class="at" d="M313.69,219c.22-.5.5-.69.83-.59.11,0,.23.07.25.2s-.11.18-.21.21A1.63,1.63,0,0,1,313.69,219Z" transform="translate(-257.89 -128.19)"/><path class="au" d="M311.83,218.67c0,.13-.12.23-.24.21a.26.26,0,0,1-.25-.32.24.24,0,0,1,.3-.19A.27.27,0,0,1,311.83,218.67Z" transform="translate(-257.89 -128.19)"/><path class="av" d="M343.91,208.2a.11.11,0,0,0,.12-.11.66.66,0,0,0,.47-.32,1,1,0,0,0,.56-.35,2.4,2.4,0,0,0,1-.36,3.42,3.42,0,0,0,.45,0,6.92,6.92,0,0,1,2.17.23,1.66,1.66,0,0,0,.67.35.51.51,0,0,0,.34.23l1,1a5.14,5.14,0,0,0,.59,1.11v.43c.05.08,0,.17.09.25l0,.11a5,5,0,0,1-.22,2.17,4.21,4.21,0,0,1-1.12,1.73c-.14.13-.26.26-.39.4a.5.5,0,0,0-.34.24,1.54,1.54,0,0,0-.67.35c-.13,0-.26,0-.34.12a9.28,9.28,0,0,0-1.17.12,4.55,4.55,0,0,1-2.37-.58c-.1-.06-.21-.09-.31-.14s-.24-.31-.47-.31c0-.08,0-.11-.12-.11a.11.11,0,0,0-.11-.12.13.13,0,0,0-.1-.13,2.81,2.81,0,0,0-.56-.8,10.25,10.25,0,0,1-.59-1.8l0-.69c.07-.11,0-.24.09-.35a3.76,3.76,0,0,1,.78-2c.09-.13.25-.23.25-.42.07,0,.11-.05.11-.13A.1.1,0,0,0,343.91,208.2Z" transform="translate(-257.89 -128.19)"/><path class="aw" d="M342.66,210.91c0,.13,0,.26-.09.35l0-.22Z" transform="translate(-257.89 -128.19)"/><path class="aw" d="M351.4,210.7a.25.25,0,0,1-.09-.25l.11.14A.52.52,0,0,1,351.4,210.7Z" transform="translate(-257.89 -128.19)"/><path class="ax" d="M347.7,211.55a1.39,1.39,0,0,1,.5.86c.08.35.17.7.25,1.05-.5.16-.54.14-.67-.3-.08-.29-.12-.59-.22-.87a.88.88,0,0,0-1.14-.57c-.15,0-.14.15-.14.26,0,.42,0,.84,0,1.25,0,.25-.09.33-.33.33s-.25-.17-.25-.35c0-1.19,0-2.38,0-3.57,0-.28.09-.42.39-.41s.72,0,1.07,0a1.19,1.19,0,0,1,1.17.83,1.17,1.17,0,0,1-.52,1.32S347.7,211.42,347.7,211.55Z" transform="translate(-257.89 -128.19)"/><path class="ay" d="M346.27,210.42v-.06c0-.67,0-.67.3-.69.68-.07,1.11.15,1.2.59a.77.77,0,0,1-.56.92l-.11,0c-.69.18-.83.07-.83-.63Z" transform="translate(-257.89 -128.19)"/></svg>