<svg xmlns="http://www.w3.org/2000/svg" viewBox="0 0 241.33 58.55"><defs><style>.cls-1{fill:#fff;}</style></defs><g id="Layer_2" data-name="Layer 2"><g id="Layer_1-2" data-name="Layer 1"><path class="cls-1" d="M24.77,31.34A5.25,5.25,0,0,1,24,34.41a2.68,2.68,0,0,1-2.34,1.15c-2.31,0-3.46-.91-3.46-5.88,0-1,0-8,0-8H6.61s0,7,0,8c0,5-1.17,5.89-3.49,5.89A2.69,2.69,0,0,1,.83,34.4,5.25,5.25,0,0,1,0,31.33V4.23A5.08,5.08,0,0,1,.85,1.18,2.7,2.7,0,0,1,3.17,0Q6.64,0,6.63,4.06c0,1,0,9.6,0,9.6H18.1s.06-6.79.06-7.72C18.16,3.37,18,0,21.61,0A2.72,2.72,0,0,1,24,1.18a5.2,5.2,0,0,1,.82,3.06Z"/><path class="cls-1" d="M47.67,14.9q0,2.28-4.65,13.41-2.94,6.78-5.82,13.55a9.05,9.05,0,0,1-1.26,2.32,3,3,0,0,1-2.31,1,3.9,3.9,0,0,1-2.51-.88c-.65-.59-1.86-2.24-.36-5.32,1.21-2.51,2.65-6.22,2.65-6.22s-2.07-5.41-3.25-8.26q-3.43-8.61-3.43-9.85a3.18,3.18,0,0,1,3.19-3.21A3.44,3.44,0,0,1,33.27,14l3.85,9.88s2.4-5.86,3.21-8.24c1.62-4,2.43-4.24,4-4.24a3.29,3.29,0,0,1,2.41,1,3.38,3.38,0,0,1,.93,2.52"/><path class="cls-1" d="M90.23,20.59a3.75,3.75,0,0,0-3.65-3.21A3.7,3.7,0,0,0,83,20.59Zm7.67,2.15a2.9,2.9,0,0,1-.82,2.38,3.18,3.18,0,0,1-2.53,1.07H83a4.83,4.83,0,0,0,1.23,1.93,3.85,3.85,0,0,0,2.87.94,13,13,0,0,0,4.58-1.23,8.44,8.44,0,0,1,3-.94,2.61,2.61,0,0,1,2,.82,3.61,3.61,0,0,1,.84,2.38c0,1.87-2.18,3.42-4.23,4.46A14.22,14.22,0,0,1,86.79,36a11.29,11.29,0,0,1-8.69-3.56,12.59,12.59,0,0,1-3.32-9,12.39,12.39,0,0,1,3.45-8.8A11.25,11.25,0,0,1,86.78,11a10.33,10.33,0,0,1,7.94,3.48,11.86,11.86,0,0,1,3.18,8.28"/><path class="cls-1" d="M115.36,14.55A3.58,3.58,0,0,1,113.17,18c-1.34.43-2.69.72-4,1.19-1.46.82-2.2,2.09-2.2,4.33V32a3.6,3.6,0,0,1-1,2.55,3.56,3.56,0,0,1-5,0,3.56,3.56,0,0,1-1-2.56V15a3.52,3.52,0,0,1,1-2.53,3.34,3.34,0,0,1,2.52-1,3.52,3.52,0,0,1,3.5,2.22c1.5-1.78,3.11-2.94,4.84-2.94a4,4,0,0,1,2.74,1.13,3.73,3.73,0,0,1,.86,2.7"/><path class="cls-1" d="M163.62,33h0M151.86,19.29a4.08,4.08,0,1,1-4,4.08,4,4,0,0,1,4-4.08m11.81-3.95a3.93,3.93,0,0,0-3.83-4,4.61,4.61,0,0,0-3.09,1.29,10.29,10.29,0,0,0-4.88-1.32A11.94,11.94,0,0,0,140.1,23.37a12,12,0,0,0,11.76,12.29,11.7,11.7,0,0,0,4.9-1.25,4,4,0,0,0,3,1.25,3.75,3.75,0,0,0,3.85-3,.78.78,0,0,0,.07-.31v-17"/><path class="cls-1" d="M129,16.16a4,4,0,0,1-3.92-3.37V11.54A4,4,0,1,1,129,16.16m-4.88,6.92A11.38,11.38,0,0,0,129,24,11.86,11.86,0,0,0,129,.31a11.42,11.42,0,0,0-4.89,1.09A3.79,3.79,0,0,0,121.21.05,3.92,3.92,0,0,0,117.3,4v.09c0,.08,0,.18,0,.31a.22.22,0,0,1,0-.08c0,4.4,0,27.29,0,27.42a3.66,3.66,0,0,0,3.56,3.92c2.14,0,3.28-1.77,3.28-3.93,0-.14,0-.56,0-.89"/><path class="cls-1" d="M188.42,23.32c0-6.67-4.11-11.89-10.71-11.89a11.5,11.5,0,0,0-5.23,1.27,3.78,3.78,0,0,0-2.64-1.08,4,4,0,0,0-3.89,4v.09c0,.08,0,.2,0,.32V32c.14,2,1.25,3.66,3.3,3.66a3.63,3.63,0,0,0,3.57-3.94V22.24a4.44,4.44,0,0,1,4.43-3.88c2.13,0,4.37,1.76,4.46,3.91,0,0,0,9.68,0,9.68V32c.14,2,1.33,3.67,3.38,3.67s3.33-1.73,3.33-4a.53.53,0,0,1,0-.12c0-.1,0-.21,0-.33Z"/><path class="cls-1" d="M202.05,19.54a4,4,0,0,1,4,3.61v.79a4,4,0,1,1-4-4.4m11.73,12.31V4c0-2.18-1.3-4-3.44-4S207,1.84,207,4c0,.11,0,.22,0,.33v8.2a18,18,0,0,0-4.95-.85,11.8,11.8,0,0,0-11.77,11.84,12.1,12.1,0,0,0,11.76,12.13A11.19,11.19,0,0,0,207,34.52a4.1,4.1,0,0,0,2.92,1.16,3.64,3.64,0,0,0,3.87-3.63v-.2"/><path class="cls-1" d="M227.62,27.64a3.84,3.84,0,1,1,3.77-3.83,3.8,3.8,0,0,1-3.77,3.83m5.53-14.45A11.8,11.8,0,0,0,215.63,23.6a12.18,12.18,0,0,0,3.46,8.51,11.58,11.58,0,0,0,8.35,3.59h5.77a6,6,0,0,0,5.9-6.13V23.28a11.54,11.54,0,0,0-6-10.09"/><path class="cls-1" d="M241.08,6.13l-.27-.75-.65.43a12.56,12.56,0,0,1-3.84,1.49c-.81.22-1.71.47-2.81.82-3.82,1.22-4.13,5.47-4.14,5.65l0,.5.47.15c2,.61,6.87.38,9.62-2.28a5.83,5.83,0,0,0,1.65-6"/><path class="cls-1" d="M230.09,13.81a10,10,0,0,1,5.09-3.56c3.41-.8,5.22-3.11,5.25-3.8,0,0-.22,2.35-4.91,3.93a10.3,10.3,0,0,0-5.43,3.43"/><path class="cls-1" d="M61.7,28.52c-1.94,0-3.62-1.83-3.92-4.27V22.69c.3-2.44,2-4.27,3.93-4.27,2.19,0,4,2.27,4,5s-1.79,5.05-4,5.05M70,14.92A9.41,9.41,0,0,0,62.22,11a7.19,7.19,0,0,0-5.9,2.67,3.36,3.36,0,0,0-3.22-2.21,3.18,3.18,0,0,0-2.44,1.05,3.5,3.5,0,0,0-1,2.51V41.55c0,1.06.05,4.14,3.38,4.15s3.41-2,3.45-6.06c0-.74,0-4.75,0-5C58,35.88,60,36,62.24,36A9.37,9.37,0,0,0,70,32a13.56,13.56,0,0,0,2.82-8.52A13.57,13.57,0,0,0,70,14.92"/><path class="cls-1" d="M214.64,58.19a1.32,1.32,0,1,0-1.32-1.31,1.31,1.31,0,0,0,1.32,1.31"/><path class="cls-1" d="M211,58.19a1.32,1.32,0,1,0-1.32-1.31A1.31,1.31,0,0,0,211,58.19"/><path class="cls-1" d="M202.35,58.19A1.32,1.32,0,1,0,201,56.88a1.32,1.32,0,0,0,1.31,1.31"/><path class="cls-1" d="M193.46,58.55a7.06,7.06,0,0,0,6.17-4.17,1.61,1.61,0,0,0,1.18.4h3.05a3,3,0,0,0,2.16-1,4.07,4.07,0,0,0,2.65,1H217a3.8,3.8,0,0,0,3.92-3.67V48.34A1.35,1.35,0,0,0,219.62,47a1.37,1.37,0,0,0-1.34,1.27V51.1A1.17,1.17,0,0,1,217,52.17h-8.35a1.17,1.17,0,0,1-1.26-1.08V48.25a1.34,1.34,0,0,0-2.67.09V50.9c0,.67-.22,1.27-.88,1.27h-2.63A1.36,1.36,0,0,1,200,50.89V48.31a1.33,1.33,0,0,0-2.66,0v1.83c0,4.35-2.1,5.54-4,5.74h-.55c-.73,0-1.51.26-1.51,1.37s.92,1.3,1.68,1.3"/><path class="cls-1" d="M236.54,51.05a1.18,1.18,0,0,1-1.14,1.08,4.13,4.13,0,0,0,0-.49v-2.3a3.17,3.17,0,0,0-1-2.37h1.32a.82.82,0,0,1,.8.89v1.08a.28.28,0,0,0,0,.09Zm-5.89-.17v-1c0-.5.64-1,1.33-1,.53,0,1.31.32,1.31,1v1a1.37,1.37,0,0,1-.54,1.25h-1.52a1.47,1.47,0,0,1-.58-1.26m5.13-6.53H230a1.39,1.39,0,0,0-1.39,1.36A1.33,1.33,0,0,0,229.63,47a3.85,3.85,0,0,0-1.12,2.46v2.7h-2.83a1.2,1.2,0,0,1-1.29-1.1V43.53A1.37,1.37,0,0,0,223,42.26a1.36,1.36,0,0,0-1.35,1.36v7.22a3.76,3.76,0,0,0,4,4h9.57a3.81,3.81,0,0,0,3.92-3.76V48.23c0-1.36-.17-3.88-3.39-3.88"/><path class="cls-1" d="M178,44.27a1.34,1.34,0,1,0,1.34,1.33A1.34,1.34,0,0,0,178,44.27"/><path class="cls-1" d="M189,55.56a1.32,1.32,0,1,0,1.32,1.32A1.32,1.32,0,0,0,189,55.56"/><path class="cls-1" d="M192.63,47a1.35,1.35,0,0,0-1.34,1.26v2.86A1.18,1.18,0,0,1,190,52.16h-2.21a1.18,1.18,0,0,1-1.27-1.08V48.22a1.34,1.34,0,0,0-2.67.1v2.55a1.37,1.37,0,0,1-1.29,1.29h-9.05a1.37,1.37,0,0,1-1.28-1.29V48.29a1.34,1.34,0,0,0-2.67,0v2.65a1.3,1.3,0,0,1-1.27,1.22h-4A1.33,1.33,0,0,0,163,53.5a1.27,1.27,0,0,0,1.33,1.27h4a4,4,0,0,0,2.63-1,3.92,3.92,0,0,0,2.59,1h9.05a3.92,3.92,0,0,0,2.57-1,4,4,0,0,0,2.66,1H190a4,4,0,0,0,2.75-1A3.58,3.58,0,0,0,194,51.09V48.32A1.35,1.35,0,0,0,192.63,47"/><path class="cls-1" d="M158.44,52.14a1.25,1.25,0,1,1,1.25-1.25,1.25,1.25,0,0,1-1.25,1.25m1.84-4.72a4,4,0,0,0-1.9-.48,3.91,3.91,0,0,0-3.92,3.88,4,4,0,0,0,1.15,2.78,3.84,3.84,0,0,0,2.77,1.17h1.92a2,2,0,0,0,2-2V50.72a3.78,3.78,0,0,0-2-3.3"/><path class="cls-1" d="M162.91,45.12l-.09-.25-.22.14a4.49,4.49,0,0,1-1.27.49c-.27.07-.57.15-.93.27A2.1,2.1,0,0,0,159,47.61v.16l.16,0a3.78,3.78,0,0,0,3.19-.74,1.87,1.87,0,0,0,.55-2"/><path class="cls-1" d="M159.26,47.62A3.37,3.37,0,0,1,161,46.46a2.34,2.34,0,0,0,1.74-1.24s-.07.77-1.63,1.28a3.56,3.56,0,0,0-1.8,1.12"/></g></g></svg>