<svg xmlns="http://www.w3.org/2000/svg" viewBox="0 0 256.73 62.29"><defs><style>.cls-1{fill:#8dc63f;}.cls-2{fill:#007a48;}.cls-3{fill:#ed1c24;}.cls-4{fill:#fff;}</style></defs><g id="Layer_2" data-name="Layer 2"><g id="Layer_1-2" data-name="Layer 1"><path class="cls-1" d="M26.35,33.34a5.58,5.58,0,0,1-.87,3.26A2.84,2.84,0,0,1,23,37.83c-2.46,0-3.68-1-3.68-6.26V23.06H7s0,7.41,0,8.51c0,5.3-1.24,6.27-3.71,6.27A2.86,2.86,0,0,1,.88,36.59,5.51,5.51,0,0,1,0,33.33V4.5a5.39,5.39,0,0,1,.9-3.25A2.88,2.88,0,0,1,3.37,0C5.83,0,7.05,1.43,7.05,4.32c0,1,0,10.22,0,10.22H19.26s.06-7.22.06-8.21C19.32,3.59,19.18,0,23,0a2.89,2.89,0,0,1,2.5,1.25,5.55,5.55,0,0,1,.87,3.25Z"/><path class="cls-1" d="M50.72,15.85q0,2.43-4.95,14.27-3.14,7.2-6.2,14.41A9.54,9.54,0,0,1,38.23,47a3.14,3.14,0,0,1-2.45,1,4.12,4.12,0,0,1-2.68-.94c-.68-.63-2-2.38-.38-5.65,1.29-2.67,2.82-6.62,2.82-6.62s-2.2-5.75-3.45-8.79q-3.66-9.16-3.65-10.48a3.35,3.35,0,0,1,3.39-3.41c1.69,0,2.87.92,3.56,2.76l4.1,10.52S42,19.19,42.9,16.66c1.73-4.27,2.59-4.51,4.26-4.51a3.47,3.47,0,0,1,2.56,1,3.64,3.64,0,0,1,1,2.68"/><path class="cls-1" d="M96,21.91a4,4,0,0,0-3.88-3.42A3.93,3.93,0,0,0,88.3,21.9Zm8.16,2.28a3.1,3.1,0,0,1-.87,2.53,3.39,3.39,0,0,1-2.69,1.14H88.3a5,5,0,0,0,1.31,2,4.06,4.06,0,0,0,3,1,13.78,13.78,0,0,0,4.87-1.32,9.14,9.14,0,0,1,3.22-1,2.81,2.81,0,0,1,2.15.87,3.86,3.86,0,0,1,.89,2.54c0,2-2.31,3.63-4.49,4.74a15.13,15.13,0,0,1-7,1.53,12,12,0,0,1-9.24-3.79A13.45,13.45,0,0,1,79.55,25a13.17,13.17,0,0,1,3.67-9.37,12,12,0,0,1,9.1-3.9,10.94,10.94,0,0,1,8.44,3.71,12.57,12.57,0,0,1,3.39,8.8"/><path class="cls-1" d="M122.72,15.48a3.8,3.8,0,0,1-2.33,3.69c-1.43.46-2.86.77-4.29,1.27-1.55.87-2.33,2.22-2.33,4.6v9a3.81,3.81,0,0,1-1.05,2.71,3.75,3.75,0,0,1-5.37,0A3.8,3.8,0,0,1,106.28,34V16a3.78,3.78,0,0,1,1-2.69,3.57,3.57,0,0,1,2.68-1.1,3.75,3.75,0,0,1,3.72,2.36c1.6-1.9,3.31-3.13,5.15-3.13a4.23,4.23,0,0,1,2.91,1.21,4,4,0,0,1,.92,2.87"/><path class="cls-2" d="M174.06,35.12h0m-12.5-14.6a4.34,4.34,0,1,1-4.24,4.34,4.31,4.31,0,0,1,4.24-4.34m12.56-4.2A4.19,4.19,0,0,0,170,12a5,5,0,0,0-3.28,1.37,11,11,0,0,0-5.2-1.4A12.7,12.7,0,0,0,149,24.86a12.8,12.8,0,0,0,12.51,13.07,12.35,12.35,0,0,0,5.22-1.33,4.28,4.28,0,0,0,3.17,1.34A4,4,0,0,0,174,34.78a.66.66,0,0,0,.08-.32V16.32"/><path class="cls-2" d="M137.23,17.2a4.27,4.27,0,0,1-4.17-3.6V12.28a4.23,4.23,0,1,1,4.17,4.92M132,24.55a12,12,0,0,0,5.19,1,12.61,12.61,0,0,0,0-25.22,12,12,0,0,0-5.19,1.16A4.07,4.07,0,0,0,129,.05a4.18,4.18,0,0,0-4.16,4.19v.1c0,.09,0,.2,0,.33V4.59c0,4.67,0,29,0,29.16a3.89,3.89,0,0,0,3.78,4.17c2.28,0,3.49-1.88,3.49-4.18,0-.15,0-.59,0-.94"/><path class="cls-2" d="M200.44,24.81c0-7.09-4.37-12.65-11.39-12.65a12.26,12.26,0,0,0-5.56,1.35,4,4,0,0,0-2.81-1.15,4.22,4.22,0,0,0-4.14,4.28v.09a2.18,2.18,0,0,0,0,.35.19.19,0,0,0,0-.08V34c.14,2.18,1.33,3.9,3.51,3.9s3.8-1.84,3.8-4.2V23.66c.09-2.3,2.44-4.13,4.72-4.13s4.64,1.87,4.73,4.16V34c.15,2.19,1.41,3.91,3.59,3.91s3.55-1.85,3.55-4.21v-.12c0-.11,0-.23,0-.35Z"/><path class="cls-2" d="M215,20.79a4.26,4.26,0,0,1,4.2,3.84v.83a4.2,4.2,0,0,1-4.2,3.83,4.25,4.25,0,0,1,0-8.5m12.47,13.09V4.28C227.43,2,226.06,0,223.78,0s-3.57,2-3.57,4.27c0,.13,0,.24,0,.36v8.72a19.1,19.1,0,0,0-5.27-.91A12.58,12.58,0,0,0,202.43,25c0,7,5.72,12.91,12.51,12.91a12.12,12.12,0,0,0,5.27-1.23,4.32,4.32,0,0,0,3.1,1.24,3.87,3.87,0,0,0,4.11-3.87V34a.43.43,0,0,0,0-.16"/><path class="cls-3" d="M242.15,29.41a4.08,4.08,0,1,1,4-4.08,4,4,0,0,1-4,4.08M248,14a12.55,12.55,0,0,0-18.64,11.08,13,13,0,0,0,3.68,9A12.31,12.31,0,0,0,242,38h6.14a6.34,6.34,0,0,0,6.28-6.53V24.76A12.28,12.28,0,0,0,248,14"/><path class="cls-1" d="M256.47,6.52l-.29-.79-.7.45a13.21,13.21,0,0,1-4.08,1.58c-.85.24-1.82.51-3,.88-4.08,1.29-4.4,5.82-4.41,6l0,.53.49.16c2.1.65,7.31.41,10.24-2.43a6.21,6.21,0,0,0,1.76-6.39"/><path class="cls-4" d="M244.78,14.69a10.57,10.57,0,0,1,5.41-3.78c3.63-.86,5.55-3.32,5.58-4,0,0-.23,2.5-5.22,4.18a11,11,0,0,0-5.77,3.65"/><path class="cls-1" d="M65.64,30.34c-2.07,0-3.85-1.95-4.17-4.54V24.13c.32-2.58,2.1-4.53,4.17-4.53C68,19.6,69.88,22,69.88,25S68,30.34,65.64,30.34m8.85-14.46a10,10,0,0,0-8.3-4.21,7.63,7.63,0,0,0-6.28,2.84,3.58,3.58,0,0,0-3.42-2.36,3.42,3.42,0,0,0-2.6,1.13A3.73,3.73,0,0,0,52.83,16V44.2c0,1.13,0,4.4,3.6,4.42s3.62-2.08,3.67-6.46V36.81c1.66,1.36,3.75,1.45,6.12,1.45A10,10,0,0,0,74.49,34a14.48,14.48,0,0,0,3-9.06,14.41,14.41,0,0,0-3-9.07"/><path class="cls-1" d="M228.33,61.9a1.4,1.4,0,1,0-1.39-1.39,1.39,1.39,0,0,0,1.39,1.39"/><path class="cls-1" d="M224.43,61.9a1.4,1.4,0,1,0-1.4-1.39,1.4,1.4,0,0,0,1.4,1.39"/><path class="cls-1" d="M215.27,61.9a1.4,1.4,0,1,0-1.4-1.39,1.4,1.4,0,0,0,1.4,1.39"/><path class="cls-1" d="M205.81,62.29a7.53,7.53,0,0,0,6.56-4.44,1.7,1.7,0,0,0,1.25.43h3.25a3.14,3.14,0,0,0,2.3-1,4.26,4.26,0,0,0,2.82,1h8.88a4.06,4.06,0,0,0,4.18-3.91V51.42a1.42,1.42,0,0,0-2.84-.09v3a1.24,1.24,0,0,1-1.34,1.14H222a1.24,1.24,0,0,1-1.34-1.15v-3s0,0,0,0a1.42,1.42,0,0,0-2.83.09v2.73c0,.71-.24,1.35-.94,1.35h-2.8a1.45,1.45,0,0,1-1.36-1.37V51.4a1.42,1.42,0,1,0-2.83,0v1.94c0,4.63-2.24,5.9-4.26,6.11H205c-.78,0-1.6.27-1.6,1.45s1,1.39,1.79,1.39"/><path class="cls-1" d="M251.63,54.31a1.23,1.23,0,0,1-1.2,1.15c0-.19,0-.38,0-.53V52.48A3.33,3.33,0,0,0,249.36,50h1.42a.86.86,0,0,1,.85.94v3.4Zm-6.26-.19V53.05c0-.53.68-1,1.41-1,.57,0,1.4.34,1.4,1v1.08a1.47,1.47,0,0,1-.58,1.34H246a1.58,1.58,0,0,1-.62-1.35m5.46-6.94h-6.21a1.48,1.48,0,0,0-1.48,1.45A1.41,1.41,0,0,0,244.28,50a4.2,4.2,0,0,0-1.18,2.63v2.87h-3a1.28,1.28,0,0,1-1.37-1.18v-8a1.45,1.45,0,0,0-2.9.1v7.68a4,4,0,0,0,4.27,4.22h10.18a4.07,4.07,0,0,0,4.18-4v-3c0-1.45-.19-4.13-3.61-4.13"/><path class="cls-2" d="M189.4,47.09a1.43,1.43,0,1,0,1.42,1.42,1.43,1.43,0,0,0-1.42-1.42"/><path class="cls-2" d="M201,59.11a1.4,1.4,0,1,0,1.4,1.4,1.4,1.4,0,0,0-1.4-1.4"/><path class="cls-2" d="M204.92,50a1.46,1.46,0,0,0-1.43,1.35v3a1.25,1.25,0,0,1-1.34,1.15h-2.36a1.25,1.25,0,0,1-1.34-1.15v-3a1.42,1.42,0,0,0-2.84.1v2.72a1.46,1.46,0,0,1-1.38,1.36h-9.62a1.44,1.44,0,0,1-1.36-1.36V51.37a1.42,1.42,0,0,0-2.84,0v2.82a1.4,1.4,0,0,1-1.36,1.29h-4.23a1.43,1.43,0,0,0-1.42,1.43,1.36,1.36,0,0,0,1.42,1.36h4.23a4.19,4.19,0,0,0,2.79-1.05,4.15,4.15,0,0,0,2.77,1.05h9.62a4.22,4.22,0,0,0,2.74-1,4.34,4.34,0,0,0,2.82,1h2.36a4.34,4.34,0,0,0,2.93-1.11,3.89,3.89,0,0,0,1.25-2.81v-3A1.44,1.44,0,0,0,204.92,50"/><path class="cls-3" d="M168.55,55.47a1.33,1.33,0,1,1,1.34-1.33,1.34,1.34,0,0,1-1.34,1.33m2-5a4.22,4.22,0,0,0-2-.52,4.15,4.15,0,0,0-3,7.09,4.09,4.09,0,0,0,3,1.25h2a2.08,2.08,0,0,0,2.08-2.13V54a4,4,0,0,0-2.1-3.5"/><path class="cls-1" d="M173.31,48l-.1-.25-.23.15a4.72,4.72,0,0,1-1.36.51l-1,.29a2.24,2.24,0,0,0-1.46,2v.17l.17,0a4,4,0,0,0,3.39-.79,2,2,0,0,0,.59-2.09"/><path class="cls-4" d="M169.43,50.66a3.48,3.48,0,0,1,1.79-1.23,2.49,2.49,0,0,0,1.85-1.32s-.07.81-1.73,1.36a3.69,3.69,0,0,0-1.91,1.19"/></g></g></svg>