<svg xmlns="http://www.w3.org/2000/svg" viewBox="0 0 264.17 45.44"><defs><style>.cls-1{fill:#d93a33;}.cls-2{fill:#02a259;}.cls-3{fill:#d93b34;}.cls-4{fill:#262525;}.cls-5{fill:#2a2828;}.cls-6{fill:#2b2929;}.cls-7{fill:#1fa660;}.cls-8{fill:#2f2d2d;}.cls-9{fill:#19a55e;}.cls-10{fill:#222020;}.cls-11{fill:#db433a;}.cls-12{fill:#55b884;}.cls-13{fill:#fff;}</style></defs><g id="Layer_2" data-name="Layer 2"><g id="Layer_1-2" data-name="Layer 1"><path class="cls-1" d="M128.47.13a7.23,7.23,0,0,1,1.47,0H131a6.87,6.87,0,0,1,1.36,0c.2.14.44.05.66.08l.56,0c.13.12.29.07.43.08,2.28,0,4.55-.2,6.83-.1,4.26.18,8.19,1.29,11.39,4.29a16.57,16.57,0,0,1,4.64,8.39,25.8,25.8,0,0,1-.61,13.39c-.64,2.26-1.51,4.44-2.23,6.68a9.25,9.25,0,0,0-.3,5.88c.08.23-.07.26-.2.3-1.67.48-3.35.94-5,1.44-.42.12-.38-.22-.43-.4a10.56,10.56,0,0,1-.19-3.59,30.89,30.89,0,0,1,2.45-8.67,29.79,29.79,0,0,0,2.23-11.2A16,16,0,0,0,145,3a17.21,17.21,0,0,0-6.6-2.5A7,7,0,0,0,136,.57c.73.22,1.38.4,2,.61,6.1,2.06,9.59,6.45,11.13,12.53.94,3.72.36,7.4-.68,11a63.12,63.12,0,0,1-2.82,7.53,14.72,14.72,0,0,0-.89,7,13,13,0,0,0,.25,1.64c.06.27-.06.33-.25.39-1.66.46-3.32.92-5,1.41-.39.12-.37-.14-.41-.32a18.12,18.12,0,0,1,.24-10.29c.92-2.73,2.12-5.33,3.15-8a25,25,0,0,0,1.63-5.69,14.53,14.53,0,0,0-.38-4.74A17.26,17.26,0,0,0,140.74,6a15,15,0,0,0-7.22-4.87,2.35,2.35,0,0,0-.6-.07l-.2-.09c-.27-.3-.69-.23-1-.38-.08-.1-.2-.07-.32-.08l-.68,0a.22.22,0,0,0-.32,0l-.79,0c-.11,0-.23,0-.32.07a18.34,18.34,0,0,0-5.91,2.58c-.43.26-.87.5-1.27.79-3,2.17-6.44,3.18-9.84,4.36-.52.18-1,.35-1.57.55-.28.11-.4.09-.49-.24-.34-1.21-.72-2.41-1.08-3.61-.21-.71-.21-.71.55-.71.14,0,.31,0,.43-.09l.35,0c.11,0,.23,0,.32-.08l.34,0c.12,0,.24,0,.33-.09l.23,0c.12,0,.24,0,.33-.09l.23,0,.21-.08,2.48-.59.19-.07c1.88-.52,3.69-1.29,5.6-1.71l.19-.07.25,0,.2-.07.25,0,.19-.07a2.48,2.48,0,0,1,.8-.16l.21-.07.35,0,.21-.07.35,0c.11,0,.23,0,.32-.09l.24,0,.31-.08.36,0c.14,0,.3,0,.43-.09l.34,0c.15,0,.31,0,.43-.08l.47,0c.18,0,.37.06.54-.08l.58,0C128,.17,128.23.27,128.47.13Z"/><path class="cls-2" d="M207,26.16c1.2-.15,2.34-.29,3.47-.46a1.15,1.15,0,0,1,1,.32,17.38,17.38,0,0,0,3.05,2.13,1.22,1.22,0,0,0,1.25,0A21.62,21.62,0,0,0,222.72,23a1.93,1.93,0,0,0,.16-.24,8.68,8.68,0,0,1-1.35,0,2.85,2.85,0,0,1-2.74-3,8.31,8.31,0,0,1,3-6.42,19.52,19.52,0,0,1,7.94-4.07,13.33,13.33,0,0,1,2.34-.49,2.35,2.35,0,0,1,2.77,2.33,6.47,6.47,0,0,1-.63,3.24c-.49,1-1,2-1.56,3.07h13a1.84,1.84,0,0,0,1.62-1c2.06-3.27,4.14-6.55,6.21-9.82,1-1.5,1.91-3,2.84-4.51a1.09,1.09,0,0,1,.78-.54C259,1.06,260.81.6,262.66.15a.89.89,0,0,1,.52,0l-3.58,5.5c-3,4.55-6,9.08-8.89,13.65a3.12,3.12,0,0,1-2.91,1.56c-5.53,0-11.06,0-16.59,0a1.14,1.14,0,0,0-1.12.58A33.61,33.61,0,0,1,221.88,30a5.91,5.91,0,0,1-5.74,1,34.4,34.4,0,0,1-7-3.06A8.09,8.09,0,0,1,207,26.16Zm17.37-8.45c0,.51.08,1.17.69,1.39s1-.37,1.31-.8a2,2,0,0,0,.12-.19c.86-1.47,1.63-3,2.39-4.5a4,4,0,0,0,.36-1.16c.05-.37-.11-.56-.5-.55a1.76,1.76,0,0,0-1.22.57,14.28,14.28,0,0,0-2.83,3.89A3,3,0,0,0,224.41,17.71Z"/><path class="cls-2" d="M223.58.06,220,5.6c-2.93,4.5-5.89,9-8.79,13.51a3.32,3.32,0,0,1-3.11,1.71c-5.53,0-11.07,0-16.6,0a.94.94,0,0,0-.94.48A33.9,33.9,0,0,1,182.2,30a5.89,5.89,0,0,1-5.69,1,33.26,33.26,0,0,1-7.34-3.26,8.88,8.88,0,0,1-1.78-1.57,25.42,25.42,0,0,0,2.6-.37,2.55,2.55,0,0,1,2.54.74,9.89,9.89,0,0,0,2.55,1.68.87.87,0,0,0,.79.1,21.24,21.24,0,0,0,7.37-5.6,6,6,0,0,1-1.81-.09,2.77,2.77,0,0,1-2.27-2.84,8.42,8.42,0,0,1,3.31-6.74A20.43,20.43,0,0,1,191,9a5.93,5.93,0,0,1,2.14-.24,2.2,2.2,0,0,1,2,2,6.51,6.51,0,0,1-.49,3.32,30.25,30.25,0,0,1-1.39,2.72.93.93,0,0,0-.21.57h2.59c3.34,0,6.69,0,10,0a2.09,2.09,0,0,0,1.93-1.06c3-4.74,6-9.46,9-14.2a1.28,1.28,0,0,1,.89-.64C219.41,1,221.3.57,223.19.11ZM184.76,17.71a2.84,2.84,0,0,0,.2.85c.32.69.79.79,1.36.28a3.18,3.18,0,0,0,.69-.93c.73-1.37,1.46-2.73,2.19-4.11a4.25,4.25,0,0,0,.44-1.3c.06-.43-.1-.62-.55-.6a1.91,1.91,0,0,0-1.25.65,14.58,14.58,0,0,0-2.75,3.81A3.67,3.67,0,0,0,184.76,17.71Z"/><path class="cls-2" d="M30.52,23.8a14.8,14.8,0,0,1-1.73,2.31,16,16,0,0,1-7.48,5,6.86,6.86,0,0,1-5.56-.66A20.3,20.3,0,0,1,10.53,26c-.25-.29-.41-.31-.71-.09a35.84,35.84,0,0,1-3.93,2.51,6.27,6.27,0,0,1-4.4.74A1.65,1.65,0,0,1,.08,26.9a4.52,4.52,0,0,1,1.76-2.56,12.26,12.26,0,0,1,5.33-2.08,5.47,5.47,0,0,1,1.26-.18c.61,0,.84-.28,1.05-.8a57.21,57.21,0,0,1,6.85-13A22,22,0,0,1,25.73.71,8.3,8.3,0,0,1,29.91.05a4.32,4.32,0,0,1,3.48,4.66A6.83,6.83,0,0,1,29,10.28a2.77,2.77,0,0,1-3-.47c-.3-.25-.35-.38.05-.62a10.7,10.7,0,0,0,3.05-2.47,2.67,2.67,0,0,0,.82-2.42A1.83,1.83,0,0,0,27.11,3a9.09,9.09,0,0,0-2.93,2.44,18.46,18.46,0,0,0-3.41,5.68,30.79,30.79,0,0,1-6.1,9.69c-.28.32-.34.51-.05.86a26.49,26.49,0,0,0,4.9,4.91c.24.18.49.33.74.49a4.14,4.14,0,0,0,5.85-1.26A5.66,5.66,0,0,0,27,24.11c.07-.2.13-.32.37-.32Z"/><path class="cls-2" d="M77.64,23.81a18.87,18.87,0,0,1-2.88,3.51,14.62,14.62,0,0,1-7.24,4,6.18,6.18,0,0,1-4-.57,18.59,18.59,0,0,1-5.79-4.71c-.27-.31-.43-.37-.79-.11a32.68,32.68,0,0,1-4.08,2.59,6.14,6.14,0,0,1-4.2.63,1.63,1.63,0,0,1-1.39-2.3,4.85,4.85,0,0,1,2.38-2.94,13.29,13.29,0,0,1,5.57-1.76A1.58,1.58,0,0,0,56.73,21,55,55,0,0,1,63.42,8.35,22.33,22.33,0,0,1,72.65.81,9.39,9.39,0,0,1,76.16,0a4.24,4.24,0,0,1,4.35,4.42,6.86,6.86,0,0,1-5.09,6,2.71,2.71,0,0,1-2.37-.67c-.26-.23-.33-.37,0-.59a11.26,11.26,0,0,0,3-2.37,4.28,4.28,0,0,0,.8-1.26,2.09,2.09,0,0,0-.66-2.46,1.68,1.68,0,0,0-2.11-.09,10.79,10.79,0,0,0-3.29,3,17.88,17.88,0,0,0-2.9,5,30.85,30.85,0,0,1-6.1,9.73c-.33.37-.35.58,0,1a26.7,26.7,0,0,0,4.59,4.67c.34.26.7.48,1.06.71A4.11,4.11,0,0,0,73.1,26a5.74,5.74,0,0,0,1-1.81c.08-.26.19-.35.45-.35C75.52,23.82,76.52,23.81,77.64,23.81Z"/><path class="cls-2" d="M83.2,23.58a9.33,9.33,0,0,0,2.46-1.7,42.64,42.64,0,0,0,5.5-6.7c1.06-1.51,2.08-3.06,3.1-4.61a.8.8,0,0,1,.6-.42C96,10,97,9.86,98.11,9.73a.66.66,0,0,1,.7.25.64.64,0,0,1-.08.72c-1.77,2.79-3.31,5.7-5,8.55-.87,1.46-1.71,2.95-2.55,4.43a4.9,4.9,0,0,0-.32.65c-.31.75-.17.93.66.81a8.43,8.43,0,0,0,1.79-.58c-.28.9-.21,1.8-1.15,2.36a17,17,0,0,1-4.85,2.4c-1.34.31-2-.23-2-1.58a5.7,5.7,0,0,1,.09-.83,18.69,18.69,0,0,1,.63-2.34c-.86.76-1.62,1.45-2.41,2.11a15,15,0,0,1-3.61,2.38,3.43,3.43,0,0,1-1.67.33.94.94,0,0,1-1-1,5,5,0,0,1,.32-1.8,54.41,54.41,0,0,1,4-8.41c.64-1.17,1.32-2.32,2-3.48.08-.14.24-.31.16-.45s-.31-.07-.45,0c-.59.17-.68-.05-.74-.62a1.56,1.56,0,0,1,1-1.78c1.11-.55,2.15-1.25,3.22-1.88a5.4,5.4,0,0,1,1.51-.67c1-.24,1.7.27,1.65,1.33a6.33,6.33,0,0,1-1,3c-1.58,2.57-3.19,5.12-4.8,7.68A6.81,6.81,0,0,0,83.2,23.58Z"/><path class="cls-2" d="M38.72,24.74a31.24,31.24,0,0,1-4.55,3.65,5.92,5.92,0,0,1-2.45,1c-1.16.13-1.68-.42-1.47-1.57a18.46,18.46,0,0,1,1.59-4.37c1.29-2.75,2.77-5.4,4.31-8l.22-.38c.13-.25.42-.53.29-.74s-.51-.07-.76,0-.36,0-.35-.29c0-.43,0-.86,0-1.28,0-.23.1-.33.28-.43l4.4-2.6a3.61,3.61,0,0,1,1.2-.44,1.13,1.13,0,0,1,1.46,1.15,5.57,5.57,0,0,1-.79,2.92c-.88,1.63-1.93,3.16-2.9,4.73-.8,1.3-1.62,2.57-2.42,3.87a4.16,4.16,0,0,0-.66,1.55,1.23,1.23,0,0,0,.72-.29,17.67,17.67,0,0,0,4.31-4.14,93.31,93.31,0,0,0,6-8.44.79.79,0,0,1,.64-.44c1.1-.12,2.2-.27,3.31-.41a.57.57,0,0,1,.63.26.65.65,0,0,1-.1.68c-2.14,3.49-4.1,7.08-6.17,10.62-.53.91-1.06,1.82-1.56,2.75-.17.3-.42.69-.2,1s.67.13,1,.05c.5-.12,1-.32,1.52-.5-.13.56-.26,1.09-.39,1.63a.5.5,0,0,1-.21.31,18.75,18.75,0,0,1-4.91,2.68,3.21,3.21,0,0,1-.76.16c-1.28.11-1.85-.51-1.72-1.79a18.33,18.33,0,0,1,.65-2.75c.08-.05.11-.14.06-.18S38.77,24.71,38.72,24.74Z"/><path class="cls-3" d="M133.55,27.37a15.71,15.71,0,0,1-4.78,4.79,10.44,10.44,0,0,1-3.33,1.36,4.76,4.76,0,0,1-3.23-.44,15.43,15.43,0,0,1-5-4.23c-.26-.31-.4-.28-.69-.08a28.27,28.27,0,0,1-3.79,2.32,5.22,5.22,0,0,1-2.86.53c-1.15-.12-1.57-.71-1.28-1.82a3.88,3.88,0,0,1,2-2.41,11.76,11.76,0,0,1,4.52-1.45,1.5,1.5,0,0,0,1.43-1.1,47.41,47.41,0,0,1,5.83-11.32,18,18,0,0,1,7.92-6.36,6.29,6.29,0,0,1,2.82-.44,3.32,3.32,0,0,1,2.9,2.87,5.59,5.59,0,0,1-3.87,5.8,2.09,2.09,0,0,1-1.75-.32c-.27-.19-.36-.31,0-.53a9.91,9.91,0,0,0,2.18-1.8,3.69,3.69,0,0,0,.94-1.62A2.05,2.05,0,0,0,132.74,9a1.58,1.58,0,0,0-1.88,0,8.45,8.45,0,0,0-2.47,2.22,16.71,16.71,0,0,0-2.83,4.94,27,27,0,0,1-5.16,8.43c-.24.28-.26.45,0,.74A25.37,25.37,0,0,0,124,29.25a12.2,12.2,0,0,0,1.39,1,3.48,3.48,0,0,0,4.72-.86A5.33,5.33,0,0,0,131,27.7a.4.4,0,0,1,.47-.33Z"/><path class="cls-3" d="M132.72,1l.2.09a22.85,22.85,0,0,0-7.53,4.83,96.9,96.9,0,0,1-13.34,9.41,1,1,0,0,1-.23.08c-.28-1.34-.54-2.66-.82-4-.07-.32.15-.36.35-.45,3.66-1.75,7.29-3.55,10.84-5.51A38.86,38.86,0,0,1,129.27,2C130.41,1.67,131.57,1.34,132.72,1Z"/><path class="cls-4" d="M182.19,41.92c1.07.14,1.22,0,1.22-1.05a6.74,6.74,0,0,0,0-.78c0-.32,0-.46.42-.46s.39.16.37.44a8.52,8.52,0,0,1-.09,1.82c1,.21,1.2,0,1.2-.93v-.83c0-.25-.07-.5.37-.5s.45.18.43.5A6.83,6.83,0,0,1,186,42c.58,0,1.12,0,1.67,0,.35,0,.46-.27.46-.59s0-.89,0-1.33.1-.41.41-.4.41.06.38.37a8.21,8.21,0,0,1-.12,2h1.1c1.06,0,2.12,0,3.17,0,.45,0,.65-.18.65-.62,0-.86,0-1.71,0-2.56,0-.29,0-.44.38-.44s.39.11.39.41c0,1.06,0,2.11,0,3.2H196c.39,0,.5-.25.5-.59,0-.87,0-1.74,0-2.61,0-.32.09-.41.41-.41s.41.09.4.41c0,1,0,1.93,0,2.89s-.36,1.11-1.26,1.11H177.69c-.59,0-1.18,0-1.78,0-.24,0-.38,0-.47.32a1.08,1.08,0,0,1-1,.79c-.13,0-.34.11-.36-.12s-.11-.42.2-.49a.55.55,0,0,0,.47-.49c-.24,0-.47,0-.7,0a1.41,1.41,0,0,1-1.31-1,1.59,1.59,0,0,1,.28-1.71,1.54,1.54,0,0,1,1.64-.35,1.38,1.38,0,0,1,.87,1.52c0,.58.13.74.71.72,1.48,0,3,0,4.45,0,.64,0,.82-.17.84-.82,0-.38,0-.78,0-1.16s.11-.35.36-.34.44,0,.42.34A11.41,11.41,0,0,1,182.19,41.92Zm-7.45-.55c0-.74-.18-1-.67-1a.69.69,0,0,0-.69.77c0,.54.35.79,1,.83S174.71,41.63,174.74,41.37Z"/><path class="cls-4" d="M249.23,42h4.36c.41,0,.54-.27.55-.62s0-.89,0-1.33.09-.39.38-.38.42,0,.4.36a7.7,7.7,0,0,1-.13,2h7.35c.24,0,.26-.1.23-.31a1.47,1.47,0,0,0-2.29-1c-.2.12-.35.39-.59,0s0-.46.23-.59A2.23,2.23,0,0,1,262,39.9a2.11,2.11,0,0,1,1.15,1.9c.07,1,.06,1-.88,1h-16.2c-.24,0-.48,0-.72,0a1.67,1.67,0,0,1-1.71-1.84c0-.28,0-.56,0-.84s0-.43.38-.42.35.16.35.41a7.4,7.4,0,0,0,0,.94.92.92,0,0,0,1,1c.85,0,1.71,0,2.56,0,.39,0,.51-.26.52-.58a10.75,10.75,0,0,0,0-1.39c0-.33.16-.34.41-.35s.36.08.35.35A13.07,13.07,0,0,1,249.23,42Z"/><path class="cls-5" d="M217.24,41.71a2,2,0,0,0-1-.74c-.23-.09-.33-.21-.3-.45s0-.43.23-.56a3.2,3.2,0,0,1,3.18,0c.34.2.38.42.14.7s-.52.63-.81.92-.09.34.12.34c.67,0,1.34,0,2,0,.34,0,.41-.26.41-.55V38.84c0-.26,0-.5.38-.5s.4.16.4.47c0,.93,0,1.85,0,2.78s-.35,1.15-1.14,1.17-1.27,0-1.9,0c-.16,0-.37,0-.48-.08a1.19,1.19,0,0,0-1.44,0,1.56,1.56,0,0,1-.77.12h-5.56c-.86,0-1.25-.34-1.28-1.18s0-1.93,0-2.89c0-.36.2-.32.43-.33s.37,0,.36.33c0,.81,0,1.63,0,2.44,0,.66.17.83.82.83h5.34A1.44,1.44,0,0,0,217.24,41.71Zm-.4-1.22a4.15,4.15,0,0,1,.94.69.17.17,0,0,0,.28,0c.23-.2.63-.4.58-.67s-.49-.27-.77-.3A1.74,1.74,0,0,0,216.84,40.49Z"/><path class="cls-5" d="M201.39,40.46c-.89-.09-1.23.18-1.27,1,0,.65,0,1.3,0,2,0,.28,0,.44-.38.43s-.42-.07-.41-.4c0-.72,0-1.44,0-2.16a1.57,1.57,0,0,1,1.71-1.69c.57,0,1.15,0,1.72,0a1.43,1.43,0,0,1,1.49,1.15c.34,1,.53,1.18,1.63,1.18.48,0,1,0,1.45,0s.6-.18.6-.6c0-.85,0-1.7,0-2.56,0-.3,0-.47.4-.46s.38.15.38.43c0,.95,0,1.89,0,2.84a1,1,0,0,1-1.12,1.14c-.74,0-1.48,0-2.22,0-.47,0-.83-.32-1.24-.41s-.68.46-1.16.49a1.58,1.58,0,0,1-1.69-1.79C201.31,40.85,201.36,40.66,201.39,40.46Zm1.4-.1a.8.8,0,0,0-.73.82.84.84,0,0,0,.76.92.76.76,0,0,0,.72-.82A.83.83,0,0,0,202.79,40.36Z"/><path class="cls-2" d="M120.89,25.32h4.29c.7,0,1.41,0,2.11,0a5.67,5.67,0,0,1,2.3.3,3.22,3.22,0,0,0,2.49-.11,2.12,2.12,0,0,1,.86-.16c2.31,0,4.61,0,6.91,0,.16,0,.52-.21.5.18s0,.63-.56.63c-3.61,0-7.21,0-10.81,0-2.26,0-4.53,0-6.79,0A1.24,1.24,0,0,1,120.89,25.32Z"/><path class="cls-5" d="M230.05,42.24a2.34,2.34,0,0,1-4.47,0,4.88,4.88,0,0,1-.1-1.27c0-.31.21-.24.38-.24s.38-.07.38.24a5.86,5.86,0,0,0,.07.94,1.34,1.34,0,0,0,1,1.14,1.6,1.6,0,0,0,1.69-.41.83.83,0,0,0-.31-1.48c-.31-.13-.13-.38-.16-.56s.19-.19.32-.18a1.49,1.49,0,0,1,1.32.79,1.27,1.27,0,0,0,1.34.76c1.39,0,2.78,0,4.17,0,.65,0,.74-.09.74-.74q0-.59,0-1.17c0-.25,0-.43.34-.41s.46,0,.44.38c0,.54,0,1.08,0,1.61a1,1,0,0,1-1.15,1.13h-4.73A1.44,1.44,0,0,1,230.05,42.24Z"/><path class="cls-2" d="M122,26.84H139.9c-.11.81-.12.81-.87.81h-5.11c-.14-.24.2-.35.09-.61h-2.9c-.13,0-.28,0-.29.18,0,.44-.33.44-.67.44-2.34,0-4.67-.05-7,0C122.57,27.63,122.43,27.19,122,26.84Z"/><path class="cls-6" d="M4.12,41.93c.22-1.44.45-2.89.66-4.34,0-.28.11-.45.44-.42s.27.3.24.5c-.24,1.5-.5,3-.73,4.49-.06.34-.12.59-.56.6a.62.62,0,0,1-.72-.58c-.19-.84-.43-1.68-.69-2.66-.27,1-.52,1.84-.71,2.69-.1.44-.33.56-.75.54s-.47-.31-.52-.63c-.23-1.48-.48-3-.72-4.44,0-.22-.14-.46.22-.51s.42.14.46.42c.21,1.42.42,2.85.65,4.33A1.71,1.71,0,0,0,1.72,41c.14-.49.28-1,.39-1.49.08-.35.18-.58.6-.58a.6.6,0,0,1,.69.55c.17.8.41,1.6.62,2.4Z"/><path class="cls-7" d="M139.07,17.18h-8.18c-1.61,0-3.23,0-4.84,0-.15,0-.46.13-.43-.14s0-.62.44-.67a1.22,1.22,0,0,1,.27,0h11.46C138.38,16.36,139,16.36,139.07,17.18Z"/><path class="cls-6" d="M171.08,42.32c-1.52.13-2.31-.77-1.83-2a1.3,1.3,0,0,1,1.35-.85,1.24,1.24,0,0,1,1.28.95,4,4,0,0,1,0,2,2.21,2.21,0,0,1-2.58,1.52,2.17,2.17,0,0,1-1.81-2.2c0-.28,0-.56,0-.83s0-.46.35-.45.4.15.38.43a6.61,6.61,0,0,0,0,.89,1.48,1.48,0,0,0,1.15,1.45A1.55,1.55,0,0,0,171.08,42.32Zm.17-1.38a.85.85,0,0,0-.68-.94.82.82,0,0,0-.71.85.79.79,0,0,0,.68.91A.75.75,0,0,0,171.25,40.94Z"/><path class="cls-8" d="M61.2,40.64c0-.54,0-1.08,0-1.61s.26-.54.52-.35.35.08.52,0a1.3,1.3,0,0,1,1.27.06c.17.12.28,0,.4,0a2.67,2.67,0,0,1,.93-.15A1,1,0,0,1,66,39.66c0,.89,0,1.78,0,2.67,0,.23,0,.41-.32.39s-.35-.16-.35-.4c0-.78,0-1.56,0-2.34,0-.28,0-.59-.27-.74a1.24,1.24,0,0,0-1,.06c-.17.06-.11.19-.11.32,0,.87,0,1.74,0,2.61,0,.25,0,.5-.36.5s-.31-.25-.31-.47c0-.78,0-1.56,0-2.34,0-.39,0-.77-.58-.76s-.85.25-.85.79c0,.78,0,1.56,0,2.34,0,.25,0,.44-.35.44s-.31-.2-.31-.42Z"/><path class="cls-6" d="M36,42c.2-.82.41-1.63.61-2.45.07-.31.15-.54.56-.53s.51.14.59.5a18.27,18.27,0,0,0,.73,2.51c.19-1,.39-2,.54-2.95.05-.33.14-.56.5-.47s.19.39.15.6c-.19,1-.41,2-.61,3-.06.32-.14.54-.55.55a.6.6,0,0,1-.69-.54,20.53,20.53,0,0,0-.68-2.39c-.21.81-.44,1.61-.62,2.42-.1.42-.34.52-.73.5a.41.41,0,0,1-.45-.37c-.23-1.15-.47-2.29-.71-3.42,0-.22,0-.33.23-.35s.4,0,.44.3c.13.76.27,1.53.41,2.29l.15.8Z"/><path class="cls-8" d="M95.85,41.41c0-.76,0-1.52,0-2.28,0-.28.08-.42.36-.44.11,0,.21-.06.32-.06.77,0,1.64-.27,2.1.59a3.08,3.08,0,0,1,0,2.92c-.33.65-1,.68-1.61.6-.47-.06-.57.11-.52.52,0,.18,0,.37,0,.56s-.07.34-.31.36-.35-.14-.35-.38C95.86,43,95.85,42.2,95.85,41.41Zm2.42-.74c0-1.33-.32-1.64-1.47-1.5-.24,0-.3.11-.3.34,0,.77,0,1.55,0,2.32,0,.13,0,.25.13.33a1.13,1.13,0,0,0,1.62-.88A4.12,4.12,0,0,0,98.27,40.67Z"/><path class="cls-4" d="M51.49,39.94c0,.77,0,1.55,0,2.33,0,.24-.05.35-.31.4a5.4,5.4,0,0,1-1.5.07,1.35,1.35,0,0,1-1.2-1.14,4.53,4.53,0,0,1,0-1.87c.15-.78.68-1.15,1.59-1.15.75,0,.75,0,.75-.76,0-.11,0-.22,0-.33,0-.27.12-.36.37-.36s.3.14.3.36C51.48,38.3,51.49,39.12,51.49,39.94Zm-.67.77V39.54c0-.11,0-.23-.06-.31a1.34,1.34,0,0,0-1.59.45,3.31,3.31,0,0,0,0,2c.14.47.63.64,1.37.52.53-.08.22-.49.27-.75A3.36,3.36,0,0,0,50.82,40.71Z"/><path class="cls-4" d="M88.52,41V42.3c0,.22,0,.41-.31.42s-.33-.17-.33-.39V37.48c0-.22.06-.35.31-.35s.34.11.33.34c0,.39-.14.89,0,1.14s.7-.06,1.08,0a1.23,1.23,0,0,1,1.27,1.32c0,.81,0,1.63,0,2.45,0,.24-.07.39-.34.38s-.34-.15-.34-.39c0-.75,0-1.49,0-2.23,0-.35,0-.7-.38-.86a1.58,1.58,0,0,0-1.24.1c-.16.06-.12.25-.12.4Z"/><path class="cls-5" d="M237.88,40.17c0-.49,0-1,0-1.45,0-.31.11-.38.39-.37s.41,0,.4.36c0,.83,0,1.67,0,2.5,0,.61.16.74.77.75,1.43,0,1.43,0,1.43-1.4,0-.16,0-.33,0-.5s0-.42.38-.43.38.18.38.45c0,.57,0,1.15,0,1.72a.9.9,0,0,1-1,1c-.54,0-1.08,0-1.61,0a1,1,0,0,1-1.07-1c0-.51,0-1,0-1.55Z"/><path class="cls-4" d="M25,39.89V37.56c0-.21,0-.42.29-.43s.32.2.32.44-.12.83.06,1.08.63-.08,1-.07a1.23,1.23,0,0,1,1.39,1.31c.05.81,0,1.63,0,2.45,0,.24-.08.39-.34.38s-.33-.17-.33-.4c0-.73,0-1.45,0-2.17,0-.37,0-.75-.4-.91a1.58,1.58,0,0,0-1.24.09c-.2.08-.12.29-.13.45v2.5c0,.24,0,.46-.33.44s-.28-.23-.28-.43Z"/><path class="cls-8" d="M6.24,39.9V37.62c0-.24-.06-.51.33-.49s.33.23.33.47-.12.8.06,1,.62,0,1,0A1.19,1.19,0,0,1,9.26,39.8c0,.85,0,1.7,0,2.56,0,.21,0,.36-.3.37a.33.33,0,0,1-.37-.38V40.06c0-.35,0-.7-.41-.83a1.64,1.64,0,0,0-1.19.1c-.16.06-.11.26-.11.4v2.5c0,.27,0,.5-.37.49s-.29-.26-.29-.48Z"/><path class="cls-8" d="M78.62,40.65c0-.24,0-.5.06-.76a1.59,1.59,0,0,1,3.13,0,4.17,4.17,0,0,1,0,1.65,1.47,1.47,0,0,1-1.67,1.26,1.45,1.45,0,0,1-1.47-1.37C78.64,41.15,78.64,40.91,78.62,40.65Zm2.6,0a2.84,2.84,0,0,0-.06-.71.87.87,0,0,0-.94-.76.86.86,0,0,0-.89.81,3.48,3.48,0,0,0,0,1.54.82.82,0,0,0,.85.66.87.87,0,0,0,.9-.61A2.42,2.42,0,0,0,81.22,40.64Z"/><path class="cls-5" d="M30.81,40.86a2.09,2.09,0,0,0-.5,0c-.24.07-.63-.24-.72.23a.91.91,0,0,0,.76,1.06,9,9,0,0,0,1.27,0c.18,0,.34-.07.38.17s0,.32-.28.37a4.78,4.78,0,0,1-1.6.06A1.36,1.36,0,0,1,29,41.53a6.12,6.12,0,0,1,0-1.71,1.6,1.6,0,0,1,3.12,0,.09.09,0,0,0,0,0c.1,1,.1,1-.85,1Zm-.3-.46h.72c.16,0,.23-.07.23-.23,0-.39-.09-.76-.48-.92a1,1,0,0,0-1.13.18.84.84,0,0,0-.25.81c.09.31.41.1.63.15A1.29,1.29,0,0,0,30.51,40.4Z"/><path class="cls-5" d="M12,40.86a2,2,0,0,0-.49,0c-.25.07-.64-.23-.72.23a.89.89,0,0,0,.74,1.06,8.31,8.31,0,0,0,1.22,0c.2,0,.43-.11.47.19s-.19.31-.39.35a4.3,4.3,0,0,1-1.43.06,1.27,1.27,0,0,1-1.16-1,4.09,4.09,0,0,1,0-2.14,1.42,1.42,0,0,1,1.65-1.06,1.38,1.38,0,0,1,1.4,1.24c0,.07,0,.14,0,.21.12.77.07.83-.7.83Zm-.32-.46h.72c.12,0,.29,0,.27-.17,0-.4-.09-.82-.54-1a1,1,0,0,0-1.22.38c-.3.54-.16.79.44.8Z"/><path class="cls-5" d="M18.26,40.86a1.29,1.29,0,0,0-.44,0c-.25.12-.72-.31-.77.28a.87.87,0,0,0,.85,1,10.29,10.29,0,0,0,1.11,0c.2,0,.42-.13.47.19s-.18.31-.38.35a4.15,4.15,0,0,1-1.49,0,1.26,1.26,0,0,1-1.11-.95,4.17,4.17,0,0,1,0-2.19,1.43,1.43,0,0,1,1.64-1,1.38,1.38,0,0,1,1.39,1.18l.06.27c.11.76.05.83-.7.84ZM18,40.4h.72c.14,0,.26,0,.24-.22-.05-.41-.12-.84-.59-1a1,1,0,0,0-1.14.32.87.87,0,0,0-.15.74c.1.26.39.08.59.12A1.79,1.79,0,0,0,18,40.4Z"/><path class="cls-5" d="M68.74,40.86a1.28,1.28,0,0,0-.44,0c-.26.12-.73-.32-.77.28a.88.88,0,0,0,.85,1,10.29,10.29,0,0,0,1.11,0c.2,0,.42-.12.47.19s-.19.31-.39.35a4.3,4.3,0,0,1-1.43.06,1.28,1.28,0,0,1-1.17-1,4.09,4.09,0,0,1,0-2.14,1.4,1.4,0,0,1,1.6-1.06A1.37,1.37,0,0,1,70,39.77c0,.17,0,.36.08.54.06.45-.12.61-.57.56A6.57,6.57,0,0,0,68.74,40.86Zm-.29-.46h.72c.14,0,.26,0,.24-.21,0-.39-.09-.8-.52-.95a1,1,0,0,0-1.2.29.86.86,0,0,0-.15.73c.09.27.38.09.58.13A1.79,1.79,0,0,0,68.45,40.4Z"/><path class="cls-5" d="M91.77,40.7c0-.27,0-.51,0-.75A1.59,1.59,0,0,1,95,39.9a4.3,4.3,0,0,1,0,1.6,1.6,1.6,0,0,1-3.12,0A7.55,7.55,0,0,1,91.77,40.7Zm.62-.05c0,.26,0,.52.1.77a.84.84,0,0,0,.88.76.86.86,0,0,0,.92-.72,3.18,3.18,0,0,0,0-1.65.92.92,0,0,0-1.77.07C92.44,40.13,92.43,40.39,92.39,40.65Z"/><path class="cls-6" d="M57.12,40.67c0-.24,0-.48,0-.72a1.59,1.59,0,0,1,3.14-.1,4.17,4.17,0,0,1,0,1.65,1.6,1.6,0,0,1-3.14-.11C57.14,41.15,57.13,40.91,57.12,40.67Zm2.62,0c0-.22,0-.44-.06-.66a.89.89,0,0,0-1-.82c-.51,0-.8.27-.91.85a3.56,3.56,0,0,0,0,1.38.86.86,0,0,0,.87.78.88.88,0,0,0,.94-.7A3.31,3.31,0,0,0,59.74,40.65Z"/><path class="cls-6" d="M40.24,40.67c0-.22,0-.44,0-.66a1.46,1.46,0,0,1,1.48-1.43,1.44,1.44,0,0,1,1.67,1.26,3.8,3.8,0,0,1,0,1.71,1.6,1.6,0,0,1-3.13-.16,4.31,4.31,0,0,1,0-.72Zm2.57-.07a4,4,0,0,0-.05-.64.87.87,0,0,0-1-.79.85.85,0,0,0-.88.88,7.39,7.39,0,0,0,0,1.33.84.84,0,0,0,.85.8.9.9,0,0,0,1-.68A4.07,4.07,0,0,0,42.81,40.6Z"/><path class="cls-7" d="M137,31.36a1.8,1.8,0,0,1-1.62.81c-1.93-.05-3.87,0-5.95,0,.59-.42.92-.91,1.67-.88,1.83.07,3.67,0,5.51.06Z"/><path class="cls-7" d="M133.55,24.69a1.47,1.47,0,0,1,1.62-.88c1.68.06,3.37,0,5.06.05.17,0,.43,0,.36.26s.1.57-.34.57Z"/><path class="cls-9" d="M127.69,24.62h-6.83a1.26,1.26,0,0,1,1.27-.81c1.37.06,2.74.05,4.11,0A1.3,1.3,0,0,1,127.69,24.62Z"/><path class="cls-6" d="M71.61,42.19h.5c.29,0,.57,0,.66-.36s-.14-.51-.38-.66-.76-.46-1.12-.73a1,1,0,0,1-.43-1.21.93.93,0,0,1,1-.64c.39,0,.78,0,1.17,0,.2,0,.36.09.36.33s-.21.24-.39.23l-1,0c-.21,0-.42,0-.5.26s.08.43.27.55c.36.25.75.47,1.12.72a1.14,1.14,0,0,1,.59,1.16.9.9,0,0,1-.61.79,3.39,3.39,0,0,1-1.76,0,.3.3,0,0,1-.29-.34c0-.25.21-.21.38-.19Z"/><path class="cls-9" d="M130.34,28.31c-.24.58-.5.87-1.13.85-1.41-.06-2.82-.06-4.22,0a1.76,1.76,0,0,1-1.5-.85Z"/><path class="cls-6" d="M85.28,42.19c.35-.07.87.2,1-.32s-.38-.68-.7-.91-.58-.34-.83-.55a1,1,0,0,1-.39-1.19.92.92,0,0,1,1-.62c.39,0,.78,0,1.16,0s.46.07.43.38-.27.18-.43.18l-1,0c-.22,0-.46,0-.53.29s.11.42.3.54l1,.65A1.21,1.21,0,0,1,87,42c-.14.51-.55.76-1.27.77a8.26,8.26,0,0,1-1-.06c-.2,0-.42-.1-.38-.38s.28-.17.45-.16Z"/><path class="cls-2" d="M135.16,32.82a3.85,3.85,0,0,1-2.56.81c-1.78-.07-3.56,0-5.34,0h-.61a5.85,5.85,0,0,1,3.23-.81C131.59,32.88,133.31,32.82,135.16,32.82Z"/><path class="cls-2" d="M132.72,29.16c.31-.54.57-.88,1.22-.86,1.77.06,3.54,0,5.35,0-.17.6-.41.87-1,.85C136.44,29.13,134.62,29.16,132.72,29.16Z"/><path class="cls-9" d="M134.38,19.37h3.38c.67,0,1.33,0,2,0,.51,0,.48.37.5.64s-.29.19-.45.19c-1.47,0-2.93,0-4.4,0C134.76,20.24,134.47,20,134.38,19.37Z"/><path class="cls-4" d="M77.59,42.76c-.72,0-1-.22-1-.89s0-1.52,0-2.28c0-.31-.08-.43-.39-.44s-.46,0-.46-.28.27-.26.46-.24.41-.12.38-.41,0-.49.33-.51.31.31.3.5c0,.37.11.45.44.42s.49-.05.5.27-.28.3-.49.28c-.38,0-.46.11-.45.46,0,.7,0,1.41,0,2.11,0,.23,0,.44.34.46s.61-.13.6.27S77.79,42.7,77.59,42.76Z"/><path class="cls-2" d="M131.35,30.66a1.57,1.57,0,0,1,1.53-.85c1.81.05,3.62,0,5.49,0a1.24,1.24,0,0,1-1.27.86C135.21,30.63,133.33,30.66,131.35,30.66Z"/><path class="cls-2" d="M137.72,21.69c-.83,0-1.66,0-2.5,0-.42,0-.35-.22-.38-.48s.1-.37.37-.36c1.63,0,3.26,0,4.89,0,.53,0,.42.37.44.64s-.28.19-.43.2Z"/><path class="cls-2" d="M133.18,17.89h6c.57,0,.43.49.75.8h-3c-.7,0-1.41,0-2.11,0A1.49,1.49,0,0,1,133.18,17.89Z"/><path class="cls-4" d="M22.74,40.65c0-.27,0-.55,0-.83s0-.73-.53-.71c-.2,0-.32-.09-.29-.3s.2-.21.34-.18c.4.06.53-.1.47-.48s.13-.43.42-.44.26.27.24.44c0,.39.09.54.48.48.2,0,.43-.05.43.27s-.22.3-.42.28c-.39-.06-.51.08-.49.47,0,.67,0,1.34,0,2,0,.39.09.61.53.56.18,0,.39,0,.4.26s-.22.28-.42.29c-.92,0-1.16-.19-1.18-1.11Z"/><path class="cls-5" d="M54.11,40.62c0-.18,0-.37,0-.55a1.69,1.69,0,0,1,2.4-1.43c.19.08.18.21.17.36s-.13.19-.27.19H56c-.89,0-1.18.22-1.25,1.09,0,.18,0,.37,0,.55,0,1,.25,1.45,1.39,1.35h.22c.17,0,.34,0,.36.21s-.12.33-.32.36C55.07,42.9,54.05,42.63,54.11,40.62Z"/><path class="cls-2" d="M137.61,23.16c-.84,0-1.67,0-2.51,0-.15,0-.52.22-.47-.2s.05-.61.54-.59c1.22,0,2.45,0,3.67,0,.48,0,1,0,1.45,0s.33.22.35.46-.06.37-.36.36C139.39,23.14,138.5,23.16,137.61,23.16Z"/><path class="cls-8" d="M47.49,40v2.33c0,.22,0,.42-.29.44s-.37-.17-.37-.42V37.52c0-.24.06-.39.34-.39s.33.14.33.38C47.49,38.33,47.49,39.14,47.49,40Z"/><path class="cls-10" d="M222.63,40.57c0-.65,0-1.3,0-1.94,0-.41.22-.34.45-.34s.47-.07.46.34c0,1.29,0,2.59,0,3.89,0,.41-.22.34-.45.34s-.48.07-.46-.34C222.66,41.87,222.63,41.22,222.63,40.57Z"/><path class="cls-2" d="M127.74,12.73a1.09,1.09,0,0,1,1.21-.85c1.26,0,2.52,0,3.84,0-.28.54-.56.88-1.2.85C130.33,12.69,129.07,12.73,127.74,12.73Z"/><path class="cls-2" d="M138.1,15.68h-5.46a3.51,3.51,0,0,1,2.37-.81,7,7,0,0,0,1.77,0A1.22,1.22,0,0,1,138.1,15.68Z"/><path class="cls-9" d="M131.38,13.39a2.27,2.27,0,0,1-1.9.84,20.12,20.12,0,0,0-2.33,0c-.36,0-.37-.1-.22-.37a.75.75,0,0,1,.73-.47C128.86,13.41,130.06,13.39,131.38,13.39Z"/><path class="cls-8" d="M14.18,40.67c0-.53,0-1.07,0-1.61s.22-.59.57-.33c.18.13.25.05.37,0a4.27,4.27,0,0,1,.48-.13c.17,0,.34-.05.37.19s-.05.33-.28.39c-.86.2-.85.21-.85,1.07v2c0,.22,0,.47-.31.47s-.36-.23-.36-.49C14.19,41.71,14.18,41.19,14.18,40.67Z"/><path class="cls-4" d="M44.32,40.68V39c0-.38.28-.45.46-.29s.37.08.57,0a1.94,1.94,0,0,1,.48-.09.25.25,0,0,1,.28.22.26.26,0,0,1-.21.33c-.14,0-.29,0-.43.08a.64.64,0,0,0-.56.74c.05.77,0,1.55,0,2.32,0,.24,0,.46-.33.44s-.28-.23-.28-.44Z"/><path class="cls-2" d="M126.7,23.12h-4.64a1.1,1.1,0,0,1,1.19-.79,18.08,18.08,0,0,0,2.55,0C126.39,22.3,126.72,22.45,126.7,23.12Z"/><path class="cls-11" d="M130.85,18a3.47,3.47,0,0,1,1.45.34c.16.08.28.2.19.39s-.26.12-.39.05a2.83,2.83,0,0,0-4,1.8c0,.15-.09.38-.32.3s-.17-.28-.12-.46A3.33,3.33,0,0,1,130.85,18Z"/><path class="cls-2" d="M126.14,15.65c.06-.55.26-.86.88-.77a10.25,10.25,0,0,0,1.11,0c.9,0,1.87-.2,2.46.76Z"/><path class="cls-7" d="M123.11,21.68a1.06,1.06,0,0,1,1.26-.88,11.61,11.61,0,0,0,1.77,0c.25,0,.39.07.33.35s.12.54-.34.53C125.14,21.66,124.15,21.68,123.11,21.68Z"/><path class="cls-11" d="M133.88,22.13a2.12,2.12,0,0,1-.79,1.62,3.25,3.25,0,0,1-3.06.9c-.16,0-.37,0-.32-.29s.23-.21.43-.18a2.83,2.83,0,0,0,3.18-1.57c.1-.19.2-.39.29-.58Z"/><path class="cls-2" d="M124.89,18.69c.11-.64.4-.91,1-.85s1.4,0,2.11,0a.39.39,0,0,1,.13.06,1.6,1.6,0,0,1-1.68.77A14,14,0,0,0,124.89,18.69Z"/><path class="cls-8" d="M262.76,6.7a1.33,1.33,0,0,1-1.36-1.42,1.36,1.36,0,0,1,1.4-1.34,1.38,1.38,0,0,1,1.37,1.38A1.36,1.36,0,0,1,262.76,6.7Zm0-2.49a1.12,1.12,0,0,0-1.12,1.12,1.14,1.14,0,1,0,2.28,0A1.13,1.13,0,0,0,262.76,4.21Z"/><path class="cls-2" d="M124.07,20.15c.17-.64.49-.87,1.1-.81a17.19,17.19,0,0,0,1.76,0c-.07.6-.33.87-.94.8S124.73,20.15,124.07,20.15Z"/><path class="cls-9" d="M125.45,29.84H129A2.7,2.7,0,0,1,125.45,29.84Z"/><path class="cls-7" d="M136.7,14.2h-1.85C135.45,13,135.69,13.25,136.7,14.2Z"/><path class="cls-8" d="M238.28,38h-.42c-.07,0-.2,0-.18-.08.21-.25.13-.61.33-.85a.48.48,0,0,1,.55-.13c.12,0,.22.1.21.21s-.18.18-.29.12-.25,0-.29.11a.24.24,0,0,0,.17.3c.15.06.47-.1.44.16S238.43,37.92,238.28,38Z"/><path class="cls-10" d="M228.43,44.54c.39-.1.44.09.45.44s-.11.45-.46.45S228,45.32,228,45,228.05,44.45,228.43,44.54Z"/><path class="cls-10" d="M171.18,38.19c.43-.12.4.15.43.46s-.17.41-.48.43-.41-.17-.43-.48S170.84,38.12,171.18,38.19Z"/><path class="cls-10" d="M227.63,45c.12.45-.19.37-.47.41-.44,0-.39-.2-.42-.49s.2-.39.49-.42C227.67,44.47,227.69,44.7,227.63,45Z"/><path class="cls-10" d="M254.42,44.3c-.47.12-.34-.23-.38-.49-.07-.47.24-.37.51-.4.46-.07.36.23.4.5C255,44.37,254.73,44.32,254.42,44.3Z"/><path class="cls-10" d="M241.2,44.29c-.44.12-.39-.17-.42-.46s.18-.4.49-.43.4.19.42.49S241.53,44.36,241.2,44.29Z"/><path class="cls-10" d="M246,38.12c-.13-.46.21-.36.48-.39.45-.07.37.21.41.49.06.46-.22.38-.5.41C246,38.69,246,38.43,246,38.12Z"/><path class="cls-10" d="M170.37,38.68c.12.46-.22.36-.49.4-.45.06-.37-.22-.41-.5-.06-.45.22-.38.5-.41C170.42,38.11,170.4,38.37,170.37,38.68Z"/><path class="cls-10" d="M245.81,38.86c.39-.1.44.09.45.44s-.11.45-.46.45-.45-.11-.45-.46S245.43,38.77,245.81,38.86Z"/><path class="cls-10" d="M247.58,39.3c.1.39-.1.44-.44.45s-.45-.11-.46-.46.11-.46.47-.46S247.67,38.92,247.58,39.3Z"/><path class="cls-10" d="M187.63,38.67c.13.5-.22.36-.48.41-.47.07-.37-.24-.41-.51-.06-.46.24-.36.51-.4C187.71,38.11,187.67,38.39,187.63,38.67Z"/><path class="cls-10" d="M237.21,38.66c.12.44-.17.39-.46.42s-.4-.18-.43-.49.19-.4.49-.42S237.28,38.33,237.21,38.66Z"/><path class="cls-10" d="M235.59,38.19c.44-.12.39.17.42.46s-.18.4-.49.43-.4-.18-.42-.49S235.26,38.13,235.59,38.19Z"/><path class="cls-12" d="M131.08,34.3a7.44,7.44,0,0,1-3.48,0Z"/><path class="cls-10" d="M253.6,43.92c.09.33-.09.38-.41.4s-.34-.25-.37-.49.09-.42.42-.43S253.61,43.63,253.6,43.92Z"/><path class="cls-10" d="M240.37,44c.08.28-.17.26-.46.28-.46,0-.31-.27-.35-.5-.06-.38.14-.39.44-.41C240.46,43.37,240.32,43.68,240.37,44Z"/><path class="cls-10" d="M188.09,38.58c-.07-.33.07-.4.41-.42s.35.23.38.49-.07.43-.42.44S188.08,38.86,188.09,38.58Z"/><path class="cls-3" d="M133.88,22.13l-.27-.1c0-.09,0-.19,0-.26.07-.23-.16-.68.28-.63s.12.44.17.68A.27.27,0,0,1,133.88,22.13Z"/><path class="cls-11" d="M127.55,21.55c.07-.16-.07-.46.25-.45s.25.22.22.42,0,.46-.26.46S127.55,21.73,127.55,21.55Z"/><path class="cls-3" d="M131,.09h-1.09A3.07,3.07,0,0,1,131,.09Z"/><path class="cls-3" d="M128.47.13c-.24.14-.5,0-.75.07A2.08,2.08,0,0,1,128.47.13Z"/><path class="cls-3" d="M133.05.2c-.22,0-.46.06-.66-.08A1.67,1.67,0,0,1,133.05.2Z"/><path class="cls-3" d="M127.14.23c-.17.14-.36.06-.54.08Z"/><path class="cls-3" d="M125.36.45c-.13.13-.29.07-.43.09Z"/><path class="cls-3" d="M126.13.34c-.12.12-.28.07-.43.08Z"/><path class="cls-3" d="M134,.31c-.14,0-.3,0-.43-.08A.71.71,0,0,1,134,.31Z"/><path class="cls-3" d="M110.09,4.23c-.12.13-.29.08-.43.09Z"/><path class="cls-3" d="M111.43,4c-.09.11-.21.08-.33.09Z"/><path class="cls-3" d="M129.27.6c.09-.09.21-.06.32-.07Z"/><path class="cls-3" d="M131.38.53c.12,0,.24,0,.32.08Z"/><path class="cls-3" d="M110.76,4.13c-.09.1-.21.07-.32.08Z"/><path class="cls-3" d="M124.57.57l-.31.08Z"/><path class="cls-3" d="M130.38.49a.22.22,0,0,1,.32,0Z"/><path class="cls-3" d="M124,.67c-.09.1-.21.08-.32.09A.41.41,0,0,1,124,.67Z"/><path class="cls-3" d="M112,3.9c-.09.1-.21.08-.33.09Z"/><path class="cls-3" d="M115.1,3.14l-.19.07Z"/><path class="cls-3" d="M123.35.8l-.21.07Z"/><path class="cls-3" d="M122.79.91l-.21.07Z"/><path class="cls-3" d="M120.89,1.36l-.19.07Z"/><path class="cls-3" d="M121.78,1.14l-.19.07Z"/><path class="cls-3" d="M121.34,1.25l-.2.07Z"/><path class="cls-3" d="M112.43,3.8l-.21.08Z"/><path class="cls-13" d="M38.72,24.74c.05,0,.07-.15.15-.08s0,.13-.06.18Z"/><path class="cls-8" d="M263.38,6.07c-.32.14-.35-.17-.46-.33s-.21-.29-.39-.26-.08.24-.11.36,0,.25-.13.24-.11-.16-.12-.25V5.22c0-.58.35-.8.89-.57a.34.34,0,0,1,.23.44C263.18,5.66,263.18,5.66,263.38,6.07Zm-.35-1c0-.19-.16-.22-.31-.24s-.27,0-.3.16,0,.26.19.26S263,5.26,263,5.05Z"/></g></g></svg>