<svg xmlns="http://www.w3.org/2000/svg" viewBox="0 0 279.5 48.07"><defs><style>.cls-1{fill:#fff;}</style></defs><g id="Layer_2" data-name="Layer 2"><g id="Layer_1-2" data-name="Layer 1"><path class="cls-1" d="M135.93.14a8,8,0,0,1,1.55-.05h1.15a6.94,6.94,0,0,1,1.44,0c.22.15.47,0,.7.08l.6,0c.13.13.3.07.45.09,2.41,0,4.82-.22,7.22-.11,4.51.19,8.67,1.37,12.06,4.54a17.47,17.47,0,0,1,4.9,8.88,27.23,27.23,0,0,1-.64,14.16c-.68,2.4-1.6,4.71-2.35,7.07a9.78,9.78,0,0,0-.32,6.23c.08.24-.08.27-.22.31-1.77.51-3.54,1-5.31,1.52-.44.13-.4-.22-.45-.41a11.55,11.55,0,0,1-.21-3.8,32.9,32.9,0,0,1,2.6-9.18,31.54,31.54,0,0,0,2.36-11.85,16.91,16.91,0,0,0-8.1-14.57,18.18,18.18,0,0,0-7-2.64,6.79,6.79,0,0,0-2.44.13c.77.23,1.45.42,2.13.64,6.45,2.17,10.16,6.82,11.78,13.26,1,3.94.38,7.82-.72,11.65a67.46,67.46,0,0,1-3,8,15.69,15.69,0,0,0-1,7.39,13.09,13.09,0,0,0,.27,1.74c.06.27-.06.34-.27.4-1.75.5-3.5,1-5.25,1.5-.4.12-.38-.15-.43-.34a19.14,19.14,0,0,1,.26-10.89c1-2.88,2.24-5.64,3.33-8.47a26.37,26.37,0,0,0,1.72-6,15.39,15.39,0,0,0-.39-5,18.3,18.3,0,0,0-3.53-8,16,16,0,0,0-7.64-5.16,3.21,3.21,0,0,0-.63-.06l-.22-.1c-.29-.32-.72-.24-1.07-.4-.09-.11-.22-.08-.34-.09l-.72,0a.22.22,0,0,0-.34,0l-.84,0c-.12,0-.24,0-.34.08a19.08,19.08,0,0,0-6.25,2.73,14.31,14.31,0,0,0-1.34.84c-3.14,2.29-6.81,3.36-10.41,4.6-.56.2-1.11.38-1.66.59-.3.11-.43.09-.52-.26-.36-1.28-.76-2.55-1.14-3.82-.23-.75-.23-.75.57-.75.16,0,.33,0,.46-.09l.37,0a.43.43,0,0,0,.34-.08l.36,0c.12,0,.25,0,.35-.1l.25,0c.12,0,.24,0,.34-.09l.25,0L119,4l2.63-.62.2-.08c2-.55,3.9-1.36,5.92-1.81l.21-.07.27-.05.2-.07.27,0,.2-.08A2.46,2.46,0,0,1,129.7,1l.22-.08.37,0,.21-.08.38,0c.12,0,.24,0,.34-.09l.25,0,.33-.08.38,0c.15,0,.32,0,.45-.1l.37,0c.15,0,.32,0,.46-.09l.48,0c.19,0,.4.06.58-.09l.61,0C135.39.18,135.67.28,135.93.14Z"/><path class="cls-1" d="M219.05,27.68c1.28-.16,2.48-.31,3.68-.49a1.25,1.25,0,0,1,1.06.34A18.17,18.17,0,0,0,227,29.79a1.3,1.3,0,0,0,1.31,0,23.14,23.14,0,0,0,7.32-5.54,2.44,2.44,0,0,0,.17-.25,9.74,9.74,0,0,1-1.43,0,3,3,0,0,1-2.9-3.17,8.81,8.81,0,0,1,3.22-6.8,20.39,20.39,0,0,1,8.4-4.3,12.92,12.92,0,0,1,2.47-.52,2.48,2.48,0,0,1,2.93,2.47,6.85,6.85,0,0,1-.66,3.42c-.53,1.07-1.08,2.12-1.66,3.24h13.72a2,2,0,0,0,1.71-1.07l6.57-10.39c1-1.59,2-3.17,3-4.77a1.13,1.13,0,0,1,.82-.57c2-.46,3.93-.94,5.89-1.42a.84.84,0,0,1,.55,0l-3.79,5.81c-3.14,4.82-6.3,9.62-9.41,14.45A3.31,3.31,0,0,1,262.19,22c-5.86,0-11.71,0-17.56,0a1.2,1.2,0,0,0-1.18.61,35.68,35.68,0,0,1-8.69,9.11,6.26,6.26,0,0,1-6.08,1.08,36.44,36.44,0,0,1-7.41-3.24A8.46,8.46,0,0,1,219.05,27.68Zm18.38-8.94c0,.54.1,1.24.73,1.47s1-.4,1.39-.85a1.37,1.37,0,0,0,.13-.2c.91-1.55,1.73-3.15,2.53-4.76a4.39,4.39,0,0,0,.38-1.23c0-.39-.11-.59-.53-.58a1.82,1.82,0,0,0-1.29.61,14.8,14.8,0,0,0-3,4.11A3.25,3.25,0,0,0,237.43,18.74Z"/><path class="cls-1" d="M236.56.06l-3.82,5.86c-3.11,4.77-6.24,9.52-9.3,14.3A3.51,3.51,0,0,1,220.15,22c-5.86-.05-11.71,0-17.57,0a1,1,0,0,0-1,.52,35.77,35.77,0,0,1-8.8,9.23,6.23,6.23,0,0,1-6,1A35.47,35.47,0,0,1,179,29.35a9.92,9.92,0,0,1-1.89-1.66c1-.13,1.88-.19,2.76-.39a2.68,2.68,0,0,1,2.69.78,10.4,10.4,0,0,0,2.69,1.78,1,1,0,0,0,.84.11,22.48,22.48,0,0,0,7.8-5.93,6.44,6.44,0,0,1-1.92-.1,2.93,2.93,0,0,1-2.4-3,8.94,8.94,0,0,1,3.5-7.14,21.55,21.55,0,0,1,9.06-4.28,6,6,0,0,1,2.26-.26,2.33,2.33,0,0,1,2.16,2.13A6.82,6.82,0,0,1,206,14.9c-.42,1-1,1.93-1.47,2.88a.92.92,0,0,0-.22.6h2.74c3.54,0,7.07,0,10.61,0a2.2,2.2,0,0,0,2-1.12q4.74-7.51,9.48-15a1.38,1.38,0,0,1,.94-.69c2-.46,4-1,6-1.44A3.1,3.1,0,0,1,236.56.06ZM195.48,18.74a3.2,3.2,0,0,0,.22.9c.34.73.83.83,1.43.3a3.61,3.61,0,0,0,.74-1l2.31-4.35a4.42,4.42,0,0,0,.47-1.38c.06-.45-.11-.65-.59-.63a2,2,0,0,0-1.32.69,15,15,0,0,0-2.9,4A3.68,3.68,0,0,0,195.48,18.74Z"/><path class="cls-1" d="M32.29,25.18a15.48,15.48,0,0,1-1.83,2.45,17,17,0,0,1-7.91,5.29,7.22,7.22,0,0,1-5.88-.71,21.19,21.19,0,0,1-5.53-4.71c-.27-.31-.43-.33-.75-.1a38.57,38.57,0,0,1-4.16,2.66,6.7,6.7,0,0,1-4.65.79A1.74,1.74,0,0,1,.09,28.47,4.7,4.7,0,0,1,2,25.76a12.81,12.81,0,0,1,5.63-2.21,6.27,6.27,0,0,1,1.34-.19c.65,0,.88-.29,1.11-.85A59.93,59.93,0,0,1,17.28,8.78a23.2,23.2,0,0,1,10-8,8.77,8.77,0,0,1,4.42-.7A4.58,4.58,0,0,1,35.33,5a7.22,7.22,0,0,1-4.65,5.89,2.92,2.92,0,0,1-3.2-.49c-.32-.26-.38-.41.05-.65a11.67,11.67,0,0,0,3.23-2.62,2.82,2.82,0,0,0,.86-2.57,2,2,0,0,0-2.94-1.39,9.53,9.53,0,0,0-3.09,2.59,19.37,19.37,0,0,0-3.62,6A32.27,32.27,0,0,1,15.52,22c-.29.34-.36.55,0,.92a28,28,0,0,0,5.18,5.2c.25.18.53.34.79.51,2.52,1.62,4.88.47,6.19-1.33a6.63,6.63,0,0,0,.9-1.78c.07-.21.14-.34.39-.34Z"/><path class="cls-1" d="M82.14,25.19a19.63,19.63,0,0,1-3,3.71,15.39,15.39,0,0,1-7.66,4.25,6.52,6.52,0,0,1-4.28-.61,19.54,19.54,0,0,1-6.12-5c-.28-.33-.46-.39-.83-.11a33.54,33.54,0,0,1-4.33,2.73,6.41,6.41,0,0,1-4.44.67A1.73,1.73,0,0,1,50,28.42a5.16,5.16,0,0,1,2.52-3.12,14.16,14.16,0,0,1,5.9-1.85A1.67,1.67,0,0,0,60,22.26,58.2,58.2,0,0,1,67.1,8.84a23.57,23.57,0,0,1,9.77-8A10,10,0,0,1,80.58,0a4.49,4.49,0,0,1,4.6,4.67,7.26,7.26,0,0,1-5.38,6.4,2.86,2.86,0,0,1-2.51-.71c-.28-.25-.35-.39,0-.62a12.2,12.2,0,0,0,3.17-2.51,4.45,4.45,0,0,0,.84-1.34,2.2,2.2,0,0,0-.69-2.59,1.77,1.77,0,0,0-2.24-.1A11.27,11.27,0,0,0,75,6.35a18.82,18.82,0,0,0-3.08,5.32A32.39,32.39,0,0,1,65.41,22c-.34.39-.36.61,0,1a28.82,28.82,0,0,0,4.86,4.95c.36.27.74.5,1.13.74a4.36,4.36,0,0,0,6-1.2,6.1,6.1,0,0,0,1-1.92c.08-.27.19-.37.48-.36Z"/><path class="cls-1" d="M88,24.94a9.58,9.58,0,0,0,2.6-1.79,45.39,45.39,0,0,0,5.82-7.08c1.13-1.61,2.2-3.25,3.28-4.89a.87.87,0,0,1,.64-.44l3.44-.44a.72.72,0,0,1,.74.25.72.72,0,0,1-.09.78c-1.88,2.94-3.51,6-5.27,9-.92,1.56-1.8,3.13-2.7,4.69a7.37,7.37,0,0,0-.34.69c-.32.8-.17,1,.7.86a9.11,9.11,0,0,0,1.9-.62c-.3,1-.22,1.91-1.22,2.5A17.81,17.81,0,0,1,92.4,31c-1.42.33-2.12-.24-2.1-1.67,0-.3.06-.59.09-.88A21.56,21.56,0,0,1,91.07,26c-.91.8-1.71,1.53-2.55,2.23a16.22,16.22,0,0,1-3.82,2.52,3.74,3.74,0,0,1-1.77.35,1,1,0,0,1-1-1.05,5.4,5.4,0,0,1,.34-1.9,56.15,56.15,0,0,1,4.24-8.89c.67-1.24,1.39-2.46,2.09-3.68.09-.15.25-.33.17-.48s-.33-.07-.48,0c-.62.18-.72-.06-.78-.66a1.63,1.63,0,0,1,1-1.88c1.17-.59,2.27-1.32,3.4-2a5.75,5.75,0,0,1,1.6-.71c1.09-.25,1.8.29,1.75,1.41a6.79,6.79,0,0,1-1.05,3.21c-1.68,2.72-3.38,5.42-5.08,8.13A7.34,7.34,0,0,0,88,24.94Z"/><path class="cls-1" d="M41,26.18A33.16,33.16,0,0,1,36.15,30a6.22,6.22,0,0,1-2.59,1.06c-1.22.13-1.78-.45-1.55-1.66a18.94,18.94,0,0,1,1.68-4.62c1.37-2.92,2.93-5.72,4.56-8.49.08-.14.16-.27.23-.41s.45-.55.31-.78-.54-.07-.81,0-.37,0-.37-.31c0-.45,0-.9,0-1.35,0-.24.11-.35.29-.46,1.56-.91,3.1-1.84,4.66-2.75a3.8,3.8,0,0,1,1.27-.46A1.2,1.2,0,0,1,45.33,11a5.87,5.87,0,0,1-.84,3.08c-.93,1.73-2,3.35-3.07,5-.84,1.37-1.72,2.72-2.56,4.09a4.24,4.24,0,0,0-.69,1.64,1.27,1.27,0,0,0,.76-.3,18.65,18.65,0,0,0,4.56-4.39,101.27,101.27,0,0,0,6.33-8.92.8.8,0,0,1,.67-.47c1.17-.12,2.33-.29,3.5-.43a.62.62,0,0,1,.67.27.68.68,0,0,1-.11.72C52.29,15,50.22,18.82,48,22.55c-.57,1-1.12,1.94-1.66,2.92-.17.32-.44.73-.21,1s.71.13,1.06,0c.53-.13,1-.34,1.61-.54-.14.6-.28,1.17-.42,1.73a.52.52,0,0,1-.22.33A20.16,20.16,0,0,1,43,30.92a3.66,3.66,0,0,1-.8.16c-1.36.12-2-.53-1.83-1.89a19,19,0,0,1,.7-2.91c.07-.05.11-.14,0-.19S41,26.14,41,26.18Z"/><path class="cls-1" d="M141.3,29A16.73,16.73,0,0,1,136.25,34a10.89,10.89,0,0,1-3.53,1.43A5,5,0,0,1,129.3,35a16.22,16.22,0,0,1-5.24-4.47c-.28-.34-.42-.3-.73-.09a30.56,30.56,0,0,1-4,2.46,5.57,5.57,0,0,1-3,.55c-1.22-.12-1.66-.75-1.36-1.93A4.11,4.11,0,0,1,117.06,29a12.44,12.44,0,0,1,4.78-1.54,1.58,1.58,0,0,0,1.51-1.16,49.62,49.62,0,0,1,6.17-12,19,19,0,0,1,8.37-6.73,6.62,6.62,0,0,1,3-.46,3.52,3.52,0,0,1,3.07,3,5.91,5.91,0,0,1-4.1,6.13,2.19,2.19,0,0,1-1.84-.34c-.29-.19-.39-.32,0-.56a10.27,10.27,0,0,0,2.31-1.9,4,4,0,0,0,1-1.72,2.16,2.16,0,0,0-.86-2.28,1.65,1.65,0,0,0-2,0,8.92,8.92,0,0,0-2.62,2.35,17.81,17.81,0,0,0-3,5.22A28.55,28.55,0,0,1,127.38,26a.51.51,0,0,0,0,.78,26.79,26.79,0,0,0,3.79,4.17A11.83,11.83,0,0,0,132.62,32a3.68,3.68,0,0,0,5-.92,5.41,5.41,0,0,0,1-1.78.44.44,0,0,1,.51-.35Z"/><path class="cls-1" d="M140.42,1.05l.22.1a24.09,24.09,0,0,0-8,5.1,104.1,104.1,0,0,1-14.11,10,2.3,2.3,0,0,1-.25.09c-.29-1.42-.57-2.82-.86-4.21-.08-.34.15-.39.36-.49,3.87-1.85,7.72-3.75,11.47-5.82a40.13,40.13,0,0,1,7.49-3.63C138,1.77,139.2,1.41,140.42,1.05Z"/><path class="cls-1" d="M192.76,44.35c1.14.15,1.29,0,1.29-1.11a7.66,7.66,0,0,0,0-.83c0-.33,0-.48.44-.48s.41.17.39.46a9.67,9.67,0,0,1-.09,1.94c1,.22,1.27,0,1.27-1v-.88c0-.27-.07-.53.39-.53s.47.19.45.53a7.25,7.25,0,0,1-.14,1.94c.61,0,1.18,0,1.76,0,.37,0,.48-.28.49-.61,0-.48,0-1,0-1.42s.11-.43.43-.42.43.06.41.39a9.93,9.93,0,0,1-.13,2.07h1.16c1.12,0,2.24,0,3.36,0,.47,0,.68-.19.68-.66,0-.91,0-1.81,0-2.71,0-.3,0-.47.4-.47s.42.12.41.44c0,1.12,0,2.23,0,3.39h1.67c.42,0,.52-.27.52-.63,0-.92,0-1.84,0-2.76,0-.34.09-.44.43-.43s.44.09.43.43c0,1,0,2-.06,3.06s-.38,1.17-1.33,1.17H186.12c-.26,0-.41,0-.49.33a1.15,1.15,0,0,1-1.1.83c-.13,0-.35.12-.38-.12s-.12-.44.21-.52a.58.58,0,0,0,.5-.52h-.74a1.48,1.48,0,0,1-1.38-1,1.65,1.65,0,0,1,.29-1.81,1.63,1.63,0,0,1,1.74-.38,1.47,1.47,0,0,1,.91,1.62c0,.6.14.78.76.76,1.57-.05,3.14,0,4.71,0,.67,0,.87-.19.89-.87,0-.41,0-.82,0-1.23s.12-.37.39-.36.46,0,.44.37A11.62,11.62,0,0,1,192.76,44.35Zm-7.87-.58c0-.78-.2-1.06-.72-1a.72.72,0,0,0-.72.81c0,.57.36.83,1,.87S184.85,44.05,184.89,43.77Z"/><path class="cls-1" d="M263.69,44.4h4.62c.43,0,.57-.28.59-.65s0-.94,0-1.41c0-.31.09-.41.4-.4s.45,0,.43.38a8.67,8.67,0,0,1-.14,2.08h7.78c.26,0,.27-.1.23-.32A1.54,1.54,0,0,0,275.18,43c-.22.13-.38.41-.63,0s0-.49.24-.63a2.39,2.39,0,0,1,2.46-.14,2.27,2.27,0,0,1,1.22,2c.07,1,.06,1-.93,1H260.4c-.26,0-.52,0-.77,0a1.77,1.77,0,0,1-1.81-1.95c0-.29,0-.59,0-.88s0-.46.4-.45.37.17.37.43a6.7,6.7,0,0,0,.05,1c.08.68.37,1,1.06,1,.9,0,1.8,0,2.7,0,.42,0,.54-.28.56-.62,0-.49,0-1,0-1.47s.17-.36.43-.37.39.09.37.37A13.47,13.47,0,0,1,263.69,44.4Z"/><path class="cls-1" d="M229.85,44.13a2.12,2.12,0,0,0-1.07-.78.41.41,0,0,1-.32-.48c0-.22,0-.45.25-.59a3.36,3.36,0,0,1,3.36,0c.36.21.4.44.14.74s-.55.67-.85,1-.1.35.13.36c.71,0,1.41,0,2.12,0,.35,0,.43-.28.43-.59V41.1c0-.28,0-.53.4-.53s.43.17.42.49c0,1,0,2,0,2.94s-.38,1.23-1.22,1.24h-2c-.17,0-.4,0-.51-.08a1.26,1.26,0,0,0-1.53,0,1.71,1.71,0,0,1-.81.12H222.9c-.9,0-1.32-.36-1.35-1.25s0-2,0-3.06c0-.37.21-.34.45-.35s.39.05.38.35c0,.87,0,1.73,0,2.59,0,.7.19.88.88.88h5.65A1.47,1.47,0,0,0,229.85,44.13Zm-.43-1.29a4.23,4.23,0,0,1,1,.73.18.18,0,0,0,.3,0c.24-.21.66-.42.61-.71s-.52-.28-.81-.31A1.75,1.75,0,0,0,229.42,42.84Z"/><path class="cls-1" d="M213.08,42.81c-.94-.1-1.3.19-1.34,1.1,0,.69,0,1.38,0,2.06,0,.3,0,.47-.4.46s-.44-.08-.43-.42c0-.77,0-1.53,0-2.3a1.66,1.66,0,0,1,1.81-1.78c.61,0,1.21,0,1.82,0a1.52,1.52,0,0,1,1.58,1.22c.36,1.11.55,1.25,1.72,1.25h1.53c.45,0,.65-.18.64-.62,0-.91,0-1.81,0-2.71,0-.33,0-.5.43-.5s.4.16.4.46c0,1,0,2,0,3a1.06,1.06,0,0,1-1.19,1.21h-2.35c-.5,0-.88-.34-1.31-.43s-.72.48-1.22.52a1.67,1.67,0,0,1-1.79-1.9C213,43.22,213,43,213.08,42.81Zm1.48-.11a.84.84,0,0,0-.77.87.89.89,0,0,0,.8,1,.8.8,0,0,0,.76-.86A.87.87,0,0,0,214.56,42.7Z"/><path class="cls-1" d="M127.91,26.78h6.77a6.32,6.32,0,0,1,2.43.32,3.41,3.41,0,0,0,2.64-.11,2.37,2.37,0,0,1,.91-.17c2.44,0,4.87,0,7.31,0,.17,0,.54-.22.52.19s0,.67-.59.67c-3.81,0-7.62,0-11.43,0-2.4,0-4.79,0-7.19,0A1.3,1.3,0,0,1,127.91,26.78Z"/><path class="cls-1" d="M243.4,44.69a2.48,2.48,0,0,1-4.73,0,5.55,5.55,0,0,1-.1-1.35c0-.33.22-.25.4-.25s.41-.08.4.25a5.44,5.44,0,0,0,.08,1,1.42,1.42,0,0,0,1.06,1.21,1.71,1.71,0,0,0,1.79-.43.88.88,0,0,0-.32-1.57c-.34-.13-.15-.4-.17-.6s.2-.19.34-.18a1.55,1.55,0,0,1,1.39.84,1.35,1.35,0,0,0,1.42.79c1.47,0,2.94,0,4.42,0,.67,0,.77-.1.78-.79,0-.41,0-.83,0-1.24,0-.26,0-.45.36-.43s.49,0,.47.4c0,.57,0,1.14,0,1.71a1.08,1.08,0,0,1-1.22,1.19h-5A1.53,1.53,0,0,1,243.4,44.69Z"/><path class="cls-1" d="M129.1,28.4H148c-.12.85-.12.86-.92.86h-5.41c-.15-.25.22-.37.1-.65h-3.07c-.14,0-.29,0-.31.19,0,.47-.35.46-.71.46-2.47,0-4.94-.05-7.41,0C129.68,29.23,129.54,28.76,129.1,28.4Z"/><path class="cls-1" d="M4.36,44.37c.23-1.53.47-3.06.69-4.59,0-.3.13-.48.47-.45s.29.31.25.52C5.52,41.44,5.25,43,5,44.61c-.06.36-.13.62-.59.63a.66.66,0,0,1-.76-.61c-.21-.89-.46-1.77-.73-2.82-.29,1.06-.55,1.95-.75,2.85-.11.47-.35.59-.79.58s-.5-.33-.56-.68C.58,43,.32,41.43.07,39.86c0-.23-.15-.48.22-.53s.45.15.49.44c.22,1.51.45,3,.69,4.58a1.76,1.76,0,0,0,.34-.92c.15-.53.31-1,.42-1.59.08-.37.2-.61.64-.61a.62.62,0,0,1,.72.58c.19.85.44,1.69.67,2.54Z"/><path class="cls-1" d="M147.14,18.18h-8.66c-1.7,0-3.4,0-5.11,0-.16,0-.49.13-.46-.15s0-.66.46-.71a1.51,1.51,0,0,1,.3,0h12.12C146.41,17.31,147,17.31,147.14,18.18Z"/><path class="cls-1" d="M181,44.78c-1.61.14-2.45-.82-1.94-2.17a1.38,1.38,0,0,1,1.43-.9,1.32,1.32,0,0,1,1.36,1,4.35,4.35,0,0,1,0,2.09,2.38,2.38,0,0,1-4.64-.72c0-.3,0-.59,0-.88s0-.49.37-.48.42.16.4.46,0,.63,0,.94a1.57,1.57,0,0,0,1.22,1.54A1.66,1.66,0,0,0,181,44.78Zm.18-1.47a.9.9,0,0,0-.72-1,.86.86,0,0,0-.75.9.84.84,0,0,0,.72,1A.8.8,0,0,0,181.19,43.31Z"/><path class="cls-1" d="M64.75,43c0-.57,0-1.14,0-1.71s.28-.57.55-.37.37.09.55,0a1.36,1.36,0,0,1,1.34.06c.18.13.3,0,.43,0a2.76,2.76,0,0,1,1-.16A1.08,1.08,0,0,1,69.81,42c0,.94,0,1.88,0,2.83,0,.24,0,.43-.34.41s-.37-.17-.37-.42c0-.83,0-1.65,0-2.48,0-.3,0-.63-.3-.78a1.32,1.32,0,0,0-1.08.06c-.18.07-.12.2-.12.34,0,.92,0,1.84,0,2.76,0,.27,0,.53-.38.53s-.32-.27-.32-.5c0-.83,0-1.65,0-2.48,0-.4,0-.8-.61-.79s-.9.26-.9.83c0,.83,0,1.65,0,2.48,0,.26,0,.47-.37.46s-.33-.21-.33-.44C64.76,44.18,64.75,43.59,64.75,43Z"/><path class="cls-1" d="M38,44.46c.22-.87.44-1.73.65-2.6.08-.32.16-.56.6-.55a.54.54,0,0,1,.62.52,17.48,17.48,0,0,0,.78,2.66c.19-1,.4-2.08.57-3.12,0-.35.14-.59.53-.5s.2.42.15.64c-.2,1.05-.43,2.11-.64,3.16-.07.34-.16.57-.59.58a.63.63,0,0,1-.73-.57,18.75,18.75,0,0,0-.72-2.52c-.22.85-.46,1.7-.66,2.55-.1.45-.35.56-.76.54a.45.45,0,0,1-.48-.4l-.75-3.62c-.05-.23,0-.34.25-.36s.41,0,.46.3c.13.82.29,1.62.43,2.43,0,.28.11.56.16.85Z"/><path class="cls-1" d="M101.42,43.81c0-.8,0-1.61,0-2.41,0-.29.09-.44.38-.46.12,0,.23-.06.35-.07.81,0,1.73-.29,2.21.62a3.28,3.28,0,0,1,0,3.1c-.34.68-1,.72-1.7.63-.49-.07-.6.12-.55.55a5.76,5.76,0,0,1,0,.59c0,.23-.07.37-.33.38s-.37-.15-.36-.4ZM104,43c0-1.4-.33-1.73-1.55-1.59-.26,0-.32.13-.32.36,0,.82,0,1.64,0,2.46,0,.13,0,.26.14.34a1.19,1.19,0,0,0,1.72-.92C104,43.46,104,43.25,104,43Z"/><path class="cls-1" d="M54.48,42.25c0,.83,0,1.65,0,2.48,0,.25,0,.36-.33.42a5.61,5.61,0,0,1-1.58.07A1.42,1.42,0,0,1,51.29,44a5.13,5.13,0,0,1,0-2c.16-.82.72-1.21,1.69-1.21.79,0,.79,0,.79-.8,0-.12,0-.24,0-.36,0-.28.13-.38.39-.37s.32.14.32.37C54.47,40.53,54.48,41.39,54.48,42.25Zm-.71.82V41.84c0-.12,0-.24-.06-.34A1.42,1.42,0,0,0,52,42a3.43,3.43,0,0,0,0,2.08c.15.51.67.68,1.45.56.56-.08.23-.52.29-.79A3.85,3.85,0,0,0,53.77,43.07Z"/><path class="cls-1" d="M93.66,43.4c0,.45,0,.9,0,1.35,0,.24,0,.44-.33.45S93,45,93,44.78c0-1.71,0-3.41,0-5.12,0-.23.07-.37.33-.37s.35.11.35.36c0,.41-.15.94,0,1.2s.74-.07,1.14,0A1.3,1.3,0,0,1,96.2,42.2c0,.87,0,1.73,0,2.59,0,.26-.06.42-.35.41s-.36-.16-.36-.42c0-.78,0-1.57,0-2.35,0-.38,0-.75-.41-.91a1.67,1.67,0,0,0-1.31.1c-.17.07-.12.27-.12.42Z"/><path class="cls-1" d="M251.69,42.5c0-.51,0-1,0-1.53,0-.33.11-.4.41-.39s.43,0,.42.37c0,.89,0,1.77,0,2.65,0,.64.17.78.82.8,1.51,0,1.51,0,1.51-1.48,0-.18,0-.36,0-.53s0-.45.41-.46.4.19.39.47c0,.61,0,1.22,0,1.83a1,1,0,0,1-1.06,1c-.56,0-1.13,0-1.7,0a1.07,1.07,0,0,1-1.14-1.1c0-.54,0-1.09,0-1.64Z"/><path class="cls-1" d="M26.5,42.21c0-.82,0-1.65,0-2.47,0-.22,0-.44.3-.45s.34.21.34.46-.13.88.06,1.14.67-.08,1-.08A1.31,1.31,0,0,1,29.7,42.2c.05.86,0,1.73,0,2.59,0,.27-.09.42-.36.41S29,45,29,44.77c0-.76,0-1.53,0-2.29,0-.39,0-.79-.42-1a1.71,1.71,0,0,0-1.31.09c-.22.09-.14.31-.14.47v2.65c0,.26,0,.49-.35.47s-.3-.24-.3-.46C26.5,43.9,26.5,43.05,26.5,42.21Z"/><path class="cls-1" d="M6.6,42.22V39.81c0-.26-.06-.54.35-.52s.35.24.35.49-.12.85.06,1.08.66,0,1,0a1.26,1.26,0,0,1,1.42,1.3c0,.9,0,1.8,0,2.71,0,.22-.05.38-.32.39s-.39-.14-.39-.41V42.39c0-.37,0-.74-.43-.88a1.72,1.72,0,0,0-1.26.1c-.18.07-.12.27-.12.42v2.65c0,.28,0,.53-.39.52s-.31-.27-.31-.51Z"/><path class="cls-1" d="M83.18,43c0-.25,0-.53.06-.8a1.69,1.69,0,0,1,3.32-.05,4.68,4.68,0,0,1,0,1.75,1.69,1.69,0,0,1-3.33-.12C83.2,43.54,83.2,43.28,83.18,43Zm2.76,0a3.31,3.31,0,0,0-.07-.76,1,1,0,0,0-1.94.06,3.73,3.73,0,0,0,0,1.63.86.86,0,0,0,.91.69.88.88,0,0,0,.94-.63A2.37,2.37,0,0,0,85.94,43Z"/><path class="cls-1" d="M32.6,43.24a1.88,1.88,0,0,0-.53,0c-.26.07-.67-.26-.76.24a1,1,0,0,0,.8,1.12,8.58,8.58,0,0,0,1.34,0c.19,0,.36-.07.41.19s0,.34-.29.39a5.41,5.41,0,0,1-1.7.06,1.43,1.43,0,0,1-1.21-1.27,6.86,6.86,0,0,1,0-1.81,1.69,1.69,0,0,1,3.31,0v.06c.11,1,.11,1-.9,1Zm-.32-.5c.25,0,.51,0,.76,0s.24-.07.24-.24a.91.91,0,0,0-.51-1,1,1,0,0,0-1.19.19.91.91,0,0,0-.26.86c.1.33.44.11.66.16A1.5,1.5,0,0,0,32.28,42.74Z"/><path class="cls-1" d="M12.72,43.24a1.81,1.81,0,0,0-.52,0c-.26.07-.67-.25-.76.24a1,1,0,0,0,.78,1.12,9.28,9.28,0,0,0,1.29,0c.21,0,.45-.12.5.2s-.2.32-.41.37a4.57,4.57,0,0,1-1.52.06,1.34,1.34,0,0,1-1.23-1,4.33,4.33,0,0,1,0-2.26,1.5,1.5,0,0,1,1.75-1.12,1.45,1.45,0,0,1,1.48,1.31,1.57,1.57,0,0,1,0,.23c.13.81.07.88-.73.88Zm-.34-.5h.76c.13,0,.31,0,.29-.18,0-.43-.1-.87-.58-1.06a1,1,0,0,0-1.28.39c-.32.58-.18.85.46.85Z"/><path class="cls-1" d="M19.33,43.24a1.22,1.22,0,0,0-.47,0c-.27.11-.77-.34-.82.29a.93.93,0,0,0,.9,1.08,11.43,11.43,0,0,0,1.17,0c.21,0,.45-.14.51.2s-.2.32-.41.37a4.42,4.42,0,0,1-1.58.05,1.31,1.31,0,0,1-1.17-1,4.25,4.25,0,0,1,0-2.32,1.5,1.5,0,0,1,1.73-1.07,1.45,1.45,0,0,1,1.48,1.25c0,.1,0,.19.05.29.13.79.06.88-.74.88Zm-.31-.5h.76c.15,0,.28,0,.26-.22-.06-.44-.12-.89-.62-1a1,1,0,0,0-1.21.34.91.91,0,0,0-.16.77c.11.28.41.1.62.14A2,2,0,0,0,19,42.74Z"/><path class="cls-1" d="M72.73,43.24a1.22,1.22,0,0,0-.47,0c-.27.12-.77-.34-.81.29a.93.93,0,0,0,.9,1.08,9.15,9.15,0,0,0,1.17,0c.21,0,.45-.12.5.21s-.2.32-.41.37a4.56,4.56,0,0,1-1.52.06,1.34,1.34,0,0,1-1.23-1,4.44,4.44,0,0,1,0-2.26,1.5,1.5,0,0,1,1.7-1.12,1.43,1.43,0,0,1,1.52,1.25,5.77,5.77,0,0,1,.08.58c.07.47-.12.65-.59.59A7.48,7.48,0,0,0,72.73,43.24Zm-.31-.5h.76c.15,0,.28,0,.26-.22,0-.41-.1-.85-.56-1a1,1,0,0,0-1.26.32.87.87,0,0,0-.16.77c.09.28.4.1.61.14A2,2,0,0,0,72.42,42.74Z"/><path class="cls-1" d="M97.09,43.06c0-.28,0-.54.06-.79a1.53,1.53,0,0,1,1.61-1.45,1.55,1.55,0,0,1,1.72,1.4,4.8,4.8,0,0,1,0,1.69,1.69,1.69,0,0,1-3.3,0C97.11,43.62,97.11,43.32,97.09,43.06Zm.67-.05c0,.27,0,.55.1.82a.88.88,0,0,0,.93.79.9.9,0,0,0,1-.75,3.25,3.25,0,0,0,0-1.75,1,1,0,0,0-1.87.07A7.68,7.68,0,0,0,97.76,43Z"/><path class="cls-1" d="M60.43,43c0-.26,0-.51,0-.76a1.69,1.69,0,0,1,3.32-.11,4.68,4.68,0,0,1,0,1.75A1.55,1.55,0,0,1,62,45.24a1.53,1.53,0,0,1-1.55-1.45C60.45,43.54,60.45,43.28,60.43,43Zm2.77,0a5.51,5.51,0,0,0-.06-.7.94.94,0,0,0-1-.87c-.54,0-.85.29-1,.91a3.73,3.73,0,0,0,0,1.45.89.89,0,0,0,.92.82.91.91,0,0,0,1-.73A3.26,3.26,0,0,0,63.2,43Z"/><path class="cls-1" d="M42.57,43a5.45,5.45,0,0,1,0-.7,1.69,1.69,0,0,1,3.33-.18,4.1,4.1,0,0,1,0,1.81,1.69,1.69,0,0,1-3.32-.16,6.59,6.59,0,0,1,0-.77ZM45.29,43a4.24,4.24,0,0,0,0-.68.94.94,0,0,0-1-.84.91.91,0,0,0-.93.94,6.55,6.55,0,0,0,0,1.4.87.87,0,0,0,.89.84.93.93,0,0,0,1-.71A4,4,0,0,0,45.29,43Z"/><path class="cls-1" d="M145,33.18a1.9,1.9,0,0,1-1.72.85c-2.05-.05-4.09,0-6.29,0,.62-.45,1-1,1.76-.93,1.94.07,3.89,0,5.83,0C144.7,33.14,144.83,33.17,145,33.18Z"/><path class="cls-1" d="M141.31,26.12a1.54,1.54,0,0,1,1.7-.93c1.78.07,3.57,0,5.36.06.18,0,.46-.05.38.27s.1.6-.36.6Z"/><path class="cls-1" d="M135.1,26.05h-7.22a1.34,1.34,0,0,1,1.34-.86c1.44.06,2.9.06,4.35,0A1.38,1.38,0,0,1,135.1,26.05Z"/><path class="cls-1" d="M75.76,44.64h.53c.31,0,.61,0,.7-.38s-.14-.54-.4-.7-.8-.49-1.18-.77A1.09,1.09,0,0,1,75,41.51a1,1,0,0,1,1-.68c.41,0,.82,0,1.24,0,.21,0,.38.09.38.34s-.22.25-.41.25l-1.06,0c-.22,0-.45,0-.53.27s.08.45.28.58c.39.26.8.5,1.19.76a1.21,1.21,0,0,1,.62,1.23,1,1,0,0,1-.65.84,3.63,3.63,0,0,1-1.85,0,.32.32,0,0,1-.31-.36c0-.26.22-.22.4-.2Z"/><path class="cls-1" d="M137.9,30c-.24.61-.52.93-1.19.9q-2.24-.09-4.47,0a1.84,1.84,0,0,1-1.58-.9Z"/><path class="cls-1" d="M90.23,44.64c.37-.08.92.21,1.11-.34s-.4-.72-.74-1-.61-.36-.88-.58a1.11,1.11,0,0,1-.41-1.26,1,1,0,0,1,1-.66c.41,0,.83,0,1.24,0s.48.08.45.4-.29.19-.46.19c-.33,0-.67,0-1,0s-.49,0-.57.3.12.44.32.57c.36.24.74.45,1.1.69a1.29,1.29,0,0,1,.67,1.43c-.15.54-.58.81-1.35.81a9.24,9.24,0,0,1-1-.06c-.21,0-.45-.11-.4-.4s.29-.18.47-.17Z"/><path class="cls-1" d="M143,34.72a4.06,4.06,0,0,1-2.7.87c-1.88-.08-3.77,0-5.65,0H134a6.24,6.24,0,0,1,3.41-.86C139.23,34.79,141.05,34.72,143,34.72Z"/><path class="cls-1" d="M140.42,30.85c.33-.57.6-.92,1.29-.9,1.87.05,3.75,0,5.67,0-.18.63-.44.91-1.09.9C144.36,30.82,142.43,30.85,140.42,30.85Z"/><path class="cls-1" d="M142.18,20.5h3.57c.71,0,1.42,0,2.12,0,.54,0,.51.39.53.67s-.3.2-.48.2c-1.55,0-3.1,0-4.65,0C142.59,21.41,142.27,21.17,142.18,20.5Z"/><path class="cls-1" d="M82.09,45.24c-.76,0-1-.23-1-.94s0-1.61,0-2.41c0-.33-.07-.46-.4-.47s-.49,0-.49-.3.28-.27.48-.25c.36,0,.44-.12.41-.43s0-.52.35-.54.33.32.31.53c0,.39.12.48.47.44s.52,0,.53.29-.3.32-.52.29c-.4-.05-.49.12-.48.49,0,.74,0,1.49,0,2.23,0,.25,0,.47.36.49s.65-.14.64.28S82.3,45.18,82.09,45.24Z"/><path class="cls-1" d="M139,32.44a1.64,1.64,0,0,1,1.61-.9c1.91.05,3.83,0,5.81,0a1.32,1.32,0,0,1-1.34.9C143.06,32.4,141.07,32.44,139,32.44Z"/><path class="cls-1" d="M145.72,23c-.88,0-1.77,0-2.65,0-.44,0-.37-.24-.4-.51s.11-.38.39-.38c1.72,0,3.45,0,5.17,0,.57,0,.45.39.47.68s-.3.2-.46.2C147.4,23,146.56,23,145.72,23Z"/><path class="cls-1" d="M140.91,18.93c2.12,0,4.24,0,6.36,0,.61,0,.46.53.79.85h-3.13c-.74,0-1.49,0-2.24,0A1.57,1.57,0,0,1,140.91,18.93Z"/><path class="cls-1" d="M24.06,43a8.61,8.61,0,0,1,0-.88c0-.42,0-.77-.56-.75-.21,0-.34-.1-.31-.32s.21-.22.37-.19c.42.07.56-.1.5-.51s.12-.45.44-.46.27.29.25.46c-.05.41.09.57.51.51.21,0,.45,0,.46.29s-.25.32-.46.29c-.41-.06-.53.09-.51.51,0,.7,0,1.41,0,2.11,0,.41.1.64.56.59.19,0,.41,0,.42.27s-.23.3-.44.31c-1,0-1.23-.19-1.25-1.17Z"/><path class="cls-1" d="M57.25,43c0-.2,0-.39,0-.59a1.79,1.79,0,0,1,2.55-1.51c.19.09.18.23.18.39s-.15.2-.29.2h-.47c-.94,0-1.24.23-1.32,1.15,0,.19,0,.39,0,.58,0,1.09.27,1.54,1.47,1.43h.23c.18,0,.36-.06.38.22s-.13.35-.34.38C58.26,45.39,57.19,45.11,57.25,43Z"/><path class="cls-1" d="M145.59,24.5c-.88,0-1.76,0-2.64,0-.17,0-.56.22-.51-.22,0-.29.06-.64.57-.62,1.3,0,2.59,0,3.89,0,.51,0,1,0,1.53,0s.35.23.38.48-.08.39-.39.38C147.48,24.48,146.54,24.5,145.59,24.5Z"/><path class="cls-1" d="M50.25,42.28v2.47c0,.22,0,.44-.31.46s-.39-.18-.39-.45c0-1.69,0-3.37,0-5.06,0-.26.07-.41.36-.42s.36.15.35.41C50.24,40.55,50.25,41.41,50.25,42.28Z"/><path class="cls-1" d="M235.55,42.93c0-.69,0-1.38,0-2.06,0-.43.24-.36.48-.36s.5-.08.49.36c0,1.37,0,2.75,0,4.12,0,.43-.24.35-.49.35s-.5.08-.48-.35C235.58,44.3,235.55,43.62,235.55,42.93Z"/><path class="cls-1" d="M135.16,13.47a1.15,1.15,0,0,1,1.28-.91c1.33.07,2.66,0,4.06,0-.3.58-.6.93-1.27.9C137.89,13.43,136.56,13.47,135.16,13.47Z"/><path class="cls-1" d="M146.11,16.59h-5.77a3.77,3.77,0,0,1,2.5-.86,7.88,7.88,0,0,0,1.88,0A1.28,1.28,0,0,1,146.11,16.59Z"/><path class="cls-1" d="M139,14.17a2.41,2.41,0,0,1-2,.89,22.42,22.42,0,0,0-2.46,0c-.38,0-.39-.11-.23-.4a.79.79,0,0,1,.77-.49C136.34,14.19,137.6,14.17,139,14.17Z"/><path class="cls-1" d="M15,43c0-.56,0-1.13,0-1.7s.24-.62.61-.35c.19.13.26.05.39,0a3,3,0,0,1,.51-.14c.17,0,.36-.06.39.2s-.05.35-.3.41c-.9.22-.9.23-.9,1.13V44.7c0,.24,0,.5-.32.5S15,45,15,44.68C15,44.13,15,43.58,15,43Z"/><path class="cls-1" d="M46.89,43c0-.61,0-1.22,0-1.82,0-.4.3-.47.49-.3s.4.08.6,0a1.78,1.78,0,0,1,.51-.1.29.29,0,0,1,.08.58c-.15,0-.31,0-.46.08a.68.68,0,0,0-.59.79c0,.81,0,1.64,0,2.46,0,.25,0,.48-.36.46s-.29-.25-.29-.46Z"/><path class="cls-1" d="M134.06,24.46h-4.91a1.15,1.15,0,0,1,1.25-.83,20.27,20.27,0,0,0,2.7,0C133.73,23.59,134.07,23.76,134.06,24.46Z"/><path class="cls-1" d="M138.45,19.06a3.54,3.54,0,0,1,1.53.36c.17.08.3.21.2.41s-.28.12-.41.05a3,3,0,0,0-4.21,1.91c0,.16-.09.39-.33.31s-.18-.3-.13-.49A3.52,3.52,0,0,1,138.45,19.06Z"/><path class="cls-1" d="M133.47,16.56c.05-.58.27-.91.92-.82a9.28,9.28,0,0,0,1.18,0c1,0,2-.21,2.6.81Z"/><path class="cls-1" d="M130.26,22.94a1.11,1.11,0,0,1,1.33-.93,13,13,0,0,0,1.87,0c.27,0,.42.07.35.36s.13.58-.36.56C132.4,22.92,131.35,22.94,130.26,22.94Z"/><path class="cls-1" d="M141.65,23.41a2.22,2.22,0,0,1-.84,1.71,3.41,3.41,0,0,1-3.23,1c-.17,0-.39-.06-.34-.31s.25-.22.45-.18a3,3,0,0,0,3.37-1.67l.31-.61Z"/><path class="cls-1" d="M132.14,19.77c.12-.67.42-.95,1.08-.89s1.49,0,2.24,0a.35.35,0,0,1,.14.06,1.66,1.66,0,0,1-1.77.81A15.81,15.81,0,0,0,132.14,19.77Z"/><path class="cls-1" d="M278,7.09a1.42,1.42,0,0,1-1.44-1.51,1.43,1.43,0,0,1,1.48-1.41,1.45,1.45,0,0,1,1.45,1.46A1.43,1.43,0,0,1,278,7.09Zm0-2.64a1.19,1.19,0,0,0-1.18,1.19A1.21,1.21,0,0,0,278,6.83a1.23,1.23,0,0,0,1.22-1.23A1.19,1.19,0,0,0,278,4.45Z"/><path class="cls-1" d="M131.28,21.32c.17-.68.51-.93,1.16-.86a16.46,16.46,0,0,0,1.86,0c-.08.64-.35.92-1,.85S132,21.32,131.28,21.32Z"/><path class="cls-1" d="M132.73,31.57h3.73A2.86,2.86,0,0,1,132.73,31.57Z"/><path class="cls-1" d="M144.64,15h-2C143.31,13.73,143.57,14,144.64,15Z"/><path class="cls-1" d="M252.11,40.21h-.44c-.08,0-.22,0-.19-.07.22-.27.13-.65.34-.91a.52.52,0,0,1,.59-.14c.12,0,.24.1.22.23s-.19.19-.3.12-.27,0-.31.12,0,.25.18.32.49-.11.46.17S252.27,40.12,252.11,40.21Z"/><path class="cls-1" d="M241.69,47.12c.41-.1.47.1.48.47s-.12.47-.49.48-.48-.12-.48-.49S241.29,47,241.69,47.12Z"/><path class="cls-1" d="M181.12,40.41c.45-.13.42.16.45.48s-.18.44-.51.46-.43-.18-.46-.51S180.76,40.33,181.12,40.41Z"/><path class="cls-1" d="M240.85,47.63c.12.48-.2.4-.5.43-.47.06-.41-.21-.45-.52s.22-.41.52-.44C240.88,47.05,240.9,47.29,240.85,47.63Z"/><path class="cls-1" d="M269.19,46.87c-.5.13-.36-.24-.4-.52-.08-.49.25-.38.53-.43.5-.07.39.25.43.54C269.81,47,269.51,46.89,269.19,46.87Z"/><path class="cls-1" d="M255.2,46.86c-.46.13-.41-.18-.44-.49s.19-.42.51-.45.43.2.45.52S255.55,46.93,255.2,46.86Z"/><path class="cls-1" d="M260.32,40.33c-.13-.49.22-.37.51-.42.48-.06.39.24.43.53.06.48-.23.4-.53.44C260.26,40.93,260.28,40.66,260.32,40.33Z"/><path class="cls-1" d="M180.25,40.93c.13.49-.22.37-.5.42-.49.07-.4-.23-.44-.53-.06-.48.23-.4.53-.44C180.31,40.33,180.29,40.6,180.25,40.93Z"/><path class="cls-1" d="M260.08,41.11c.41-.1.47.1.48.47s-.12.47-.49.48-.48-.12-.48-.49S259.68,41,260.08,41.11Z"/><path class="cls-1" d="M262,41.58c.1.41-.1.47-.47.48s-.47-.12-.48-.49.12-.48.49-.48S262,41.18,262,41.58Z"/><path class="cls-1" d="M198.52,40.92c.14.52-.23.38-.51.42-.49.08-.39-.24-.43-.53-.07-.49.25-.39.54-.42C198.6,40.32,198.56,40.61,198.52,40.92Z"/><path class="cls-1" d="M251,40.91c.13.46-.18.4-.49.44s-.42-.2-.45-.52.19-.42.52-.45S251.05,40.55,251,40.91Z"/><path class="cls-1" d="M249.27,40.41c.46-.13.41.18.44.49s-.2.42-.52.45-.42-.2-.45-.52S248.92,40.34,249.27,40.41Z"/><path class="cls-1" d="M138.69,36.29a7.93,7.93,0,0,1-3.69,0Z"/><path class="cls-1" d="M268.32,46.47c.09.35-.09.4-.44.42s-.35-.26-.39-.52.1-.44.45-.45S268.33,46.17,268.32,46.47Z"/><path class="cls-1" d="M254.32,46.58c.08.3-.18.28-.49.31-.48,0-.32-.29-.36-.54s.14-.41.46-.43C254.42,45.89,254.27,46.22,254.32,46.58Z"/><path class="cls-1" d="M199,40.82c-.08-.35.07-.43.43-.44s.37.24.4.51-.07.45-.44.46S199,41.12,199,40.82Z"/><path class="cls-1" d="M141.65,23.41l-.28-.1a.92.92,0,0,1,0-.28c.08-.24-.16-.71.3-.67s.13.48.18.73A.28.28,0,0,1,141.65,23.41Z"/><path class="cls-1" d="M135,22.8c.06-.17-.08-.49.26-.47s.26.23.23.43,0,.49-.27.5S135,23,135,22.8Z"/><path class="cls-1" d="M138.63.1h-1.15A3.18,3.18,0,0,1,138.63.1Z"/><path class="cls-1" d="M135.93.14c-.26.14-.54,0-.8.07A2.14,2.14,0,0,1,135.93.14Z"/><path class="cls-1" d="M140.77.21c-.23,0-.48.07-.7-.08A1.67,1.67,0,0,1,140.77.21Z"/><path class="cls-1" d="M134.52.24c-.18.15-.39.06-.58.09Z"/><path class="cls-1" d="M132.63.47c-.13.14-.3.08-.45.1Z"/><path class="cls-1" d="M133.46.36c-.14.13-.31.07-.46.09Z"/><path class="cls-1" d="M141.82.33c-.15,0-.32,0-.45-.09A.78.78,0,0,1,141.82.33Z"/><path class="cls-1" d="M116.48,4.48c-.13.14-.3.08-.46.09Z"/><path class="cls-1" d="M117.9,4.24c-.1.12-.23.09-.35.1Z"/><path class="cls-1" d="M136.77.64c.1-.1.22-.07.34-.08Z"/><path class="cls-1" d="M139,.56c.12,0,.25,0,.34.09Z"/><path class="cls-1" d="M117.19,4.37a.43.43,0,0,1-.34.08Z"/><path class="cls-1" d="M131.8.61l-.33.08Z"/><path class="cls-1" d="M138,.52a.22.22,0,0,1,.34,0Z"/><path class="cls-1" d="M131.22.71c-.1.11-.22.09-.34.09A.41.41,0,0,1,131.22.71Z"/><path class="cls-1" d="M118.49,4.13c-.1.11-.22.08-.34.09Z"/><path class="cls-1" d="M121.78,3.32l-.2.08Z"/><path class="cls-1" d="M130.5.84l-.21.08Z"/><path class="cls-1" d="M129.92,1,129.7,1Z"/><path class="cls-1" d="M127.91,1.44l-.21.07Z"/><path class="cls-1" d="M128.85,1.2l-.2.08Z"/><path class="cls-1" d="M128.38,1.32l-.2.07Z"/><path class="cls-1" d="M119,4l-.21.08Z"/><path class="cls-1" d="M41,26.18c.05,0,.07-.16.15-.09s0,.14,0,.19Z"/><path class="cls-1" d="M278.67,6.42c-.35.15-.37-.17-.49-.34s-.23-.31-.41-.28-.08.25-.12.38,0,.27-.14.26-.11-.17-.12-.28,0-.42,0-.64c0-.61.37-.84.94-.6a.38.38,0,0,1,.25.47C278.46,6,278.45,6,278.67,6.42Zm-.37-1.08c0-.19-.18-.23-.33-.25s-.29,0-.32.17,0,.28.21.27S278.22,5.57,278.3,5.34Z"/></g></g></svg>