<svg xmlns="http://www.w3.org/2000/svg" viewBox="0 0 471.13 118.99"><path d="M158.05,185.32c4.78.61,4.54-3.27,6.16-5.63,1.6,1.9.28,5.81,4.28,5.55a1.48,1.48,0,0,1,.79.38c-2.56,7.22,3.68,3.25,5,3.25,16.21,0,32.33,2.49,48.56,1.59,5.85-.33,9.35-4.07,8.92-10.15-.36-5.13-6.1-9.41-11.41-8.49a11.6,11.6,0,0,0-2.39.66c-1.9.81-3.68.76-4.79-1.12a5.05,5.05,0,0,1,.14-5.21c1.06-1.85,2.85-2.21,4.76-1.46a95.25,95.25,0,0,1,11,4.54c8.54,4.65,10.77,16.2,4.84,25.57-3.17,5-7,9.6-10.51,14.4-.82,1.13-2.26,2.12-.91,3.85,2.73,3.53.69,4.07-2.54,4-7-.07-13.95-.05-20.92,0-2.9,0-4.54-.89-2.13-3.58,1.32-1.48.63-2.25-.08-3.34a13.64,13.64,0,0,1-1.33-2.09c-4.19-10.18-11.63-14.34-22.55-12.15-4.44.89-7.59-.88-9.95-4.65A61.74,61.74,0,0,0,158.05,185.32Z" transform="translate(-59.64 -146.62)"/><path d="M285.32,221.64c4-8.69,8.42-17.14,11.87-25.95,2-5.07,4.8-7,9.94-6.14,1.58.26,3.29-.54,5.46,1-6.15.17-6.33,3.92-6.24,8.21.19,8.6.15,17.2,0,25.79-.06,3.77.79,6.52,5.16,7.15H294.9c4.83-.74,5.32-4.08,5.26-8-.11-8,0-16.09-1.11-24.37l-15.8,34c-5.64-12-10.68-22.8-15.71-33.57l-1,.18c0,9.13,0,18.25,0,27.37,0,3.47,3.28,3,5.63,4.55H258.72c5.11-1.61,5-5.72,4.92-9.92-.09-7.6,0-15.21,0-22.81,0-6.08-.34-6.61-5.64-9.56,3.35,0,6.7,0,10,0,2.13,0,2.49,2,3.16,3.38,3.87,8.21,7.65,16.45,11.5,24.66C283.3,219,283.54,220.52,285.32,221.64Z" transform="translate(-59.64 -146.62)"/><path d="M487.61,189.91h16.83c-5.93.84-5.37,5.08-5.34,9.19.08,10,0,10,10.13,10,9.44,0,9.46,0,9.41-9.81,0-3.94.78-8.42-5.35-9.21h17.18c-4.87.58-5.64,3.55-5.53,7.74.24,8.76.06,17.52.08,26.29,0,5.56.07,5.62,5.75,7.67H513.14c5.39-2.27,8.41-9.16,5.05-17.49-2.27-5.64-9.63-1.38-14.62-2.28-1.52-.28-4-1.27-4.48,2.12-1.48,9.9,0,15.42,5.74,17.66H488.06c4.5-1.27,5-4.72,5-8.66-.08-8.1-.15-16.2,0-24.3C493.18,194.6,492.71,191,487.61,189.91Z" transform="translate(-59.64 -146.62)"/><path d="M427.35,210.24c7.4,4.09,9.33,7.52,7.9,13.23-1.19,4.75-5.89,8.22-12.22,8.39-8.26.22-16.53.06-25.14-.25,5.27-.82,5.53-4.35,5.46-8.4-.17-8.42-.15-16.85,0-25.27.06-4.07-.53-7.33-5.79-7.79,9.51-.29,18.83-1.59,28,.73,3.86,1,6.92,3.43,7.73,7.58C434.28,203.48,432.61,207.53,427.35,210.24Zm-18,10.16c0,9.2,2.23,11.1,10.76,9.14,4.43-1,7.61-3.41,8.09-8.18.4-3.94-3-7.87-7.58-9.21C411.26,209.41,409.39,210.78,409.39,220.4Zm0-20.56c0,9.22,0,9.22,5.71,9.23,7.76,0,11.69-2.83,11.62-8.41C426.66,195.43,422,192,415,192,409.39,192,409.39,192,409.39,199.84Z" transform="translate(-59.64 -146.62)"/><path d="M390,189.1v14.21c-2.17-1.37-1.91-3.38-2.59-4.82-2.65-5.67-8.35-8.55-13.28-6.58-5.44,2.16-6.38,7.15-1.69,10.66a123.39,123.39,0,0,0,11.41,7c8.25,4.88,10.8,10.06,8,16.31s-10.15,8.69-18.48,6.47c-2.63-.71-5.43-3.09-8,.36a32.34,32.34,0,0,1-.21-13.64c1.89.94,1.41,2.94,2.05,4.24,2.71,5.53,8.4,8.45,13.79,6.92,2.74-.78,4.91-2.09,5.61-5a6.46,6.46,0,0,0-3-7.29c-4.15-2.72-8.48-5.16-12.7-7.77-3.33-2.06-6.08-4.57-6.43-8.82-.8-9.82,7.86-15.25,18.55-11.39C385.58,190.91,387.64,191.54,390,189.1Z" transform="translate(-59.64 -146.62)"/><path d="M358.88,189.89c-4.78,1-5.54,4.13-5.42,8.27.18,6.27.18,12.56,0,18.83-.17,5.79-1.27,11.46-7.23,14.17a21.61,21.61,0,0,1-20-.55c-3.85-2.11-5.6-6-5.64-10.42-.06-6.94-.1-13.88-.07-20.82,0-4.2.09-8.32-5.46-9.52H331.9c-5.88,1-5.51,5.25-5.42,9.55.14,6.44-.05,12.89.13,19.33.2,7.53,3.6,11.17,10.21,11.34,8.28.2,13.16-3.56,13.54-11.13s.07-15.2.23-22.79c.08-4-2.37-5.2-5.58-6.26Z" transform="translate(-59.64 -146.62)"/><path d="M82.94,188.33c4.81,11.45,9.45,22.53,14.12,33.6,1.58,3.73,2.75,7.81,7.18,9.78H88.39c4.09-1.54,4.71-4,3.07-7s-1.34-7.62-6.83-6.71a16.2,16.2,0,0,1-5.47,0c-5.45-1-8,1.55-9.59,6.48-1.12,3.5-1.27,5.95,2.82,7.36H59.64c5.26-2.64,6.63-7,8.41-11.14,4-9.23,7.92-18.49,11.89-27.72C80.59,191.45,81,189.78,82.94,188.33ZM80.75,199.2c-1.4,3-2.41,5.09-3.32,7.19C73,216.73,73.27,217,84.7,216c2.45-.23,2.8-1,1.91-3.06C84.76,208.73,83,204.49,80.75,199.2Z" transform="translate(-59.64 -146.62)"/><path d="M484,232.07H467.42c3.93-1.88,6-3.5,4.07-6.78C469.65,222.16,470,217,464,218a15.41,15.41,0,0,1-5.46,0c-5.11-1.06-7.48,1.42-9,5.87-1.25,3.57-2.66,6.75,2.74,8h-12c3.54-1.89,4.9-5.17,6.3-8.45q6.51-15.23,13.11-30.41c.63-1.46,1-3.12,2.93-4.63,3.29,7.75,6.48,15.24,9.64,22.74,1.86,4.4,3.67,8.81,5.53,13.21C479.05,227.35,480.61,230.19,484,232.07Zm-16.84-16.36a93.62,93.62,0,0,0-6.9-16.37l-6.93,16.37Z" transform="translate(-59.64 -146.62)"/><path d="M143.31,220.69a5.83,5.83,0,0,1,.18,1.48c-2.57,9.9-2.58,9.9-12.91,9.9H108.19c5.35-1.1,5-5,5-9-.09-8.27-.17-16.53,0-24.79.1-4.22-.43-7.55-5.6-8.31H125.5c-7.82,1-6,7-6.06,11.91-.08,7.1.14,14.22-.08,21.32-.13,4.33,1.28,6.23,5.92,6.33C136.09,229.77,137.06,229.5,143.31,220.69Z" transform="translate(-59.64 -146.62)"/><path d="M189.4,217.33c1,2.89.32,6,.48,8.94.09,1.77-.4,3.85,2.55,3.66,2-.13,4.63.67,4.35-2.92-.08-.94-.12-2.17,1.32-2.15,1.71,0,1.49,1.41,1.56,2.53s-.13,2.49,1.63,2.45,1.57-1.43,1.53-2.53c-.1-2.36,1-2.73,3.09-2.32a19.46,19.46,0,0,0,5.44.29c3.31-.3,5.7.33,5.34,5.18,4-4.1,7.59-5.35,11.34-.14,1.46-4.69-.3-9.06,1.38-13.17,1.51,2.06,2.48,14.06,1.42,15.61-1.89,2.79-9.24,4.19-11.75,2-1.65-1.47-3.4-.86-5.13-1.14-5-.81-10.54,2.08-15-2.4-.89-.89-2.13.22-2.91,1.15-2,2.36-4.72,1.42-6.9,1-2.36-.45-1.18-3-1.26-4.67-.17-3.76-.05-7.53-.05-11.3Z" transform="translate(-59.64 -146.62)"/><path d="M223.23,189H197.14c.92-3.69,3.8-5,6.5-6.45,1.53-.81,3.56-.63,4.48-2.65.42-.92,1.9-1.42,2.56-.7C214.23,183.06,220.65,183.06,223.23,189Z" transform="translate(-59.64 -146.62)"/><path d="M169.19,242.56c-.93-11.64-.89-11.68,10-13.1-.93-2.6-3.15-3.18-5.35-3.73-1.6-.4-2.34-1.45-1.78-2.91s1.94-.84,3-.51c4.38,1.36,7.26,4.33,9.15,8.44,1.07,2.33.16,3-2.05,2.85-.83,0-1.66,0-2.49,0C171.25,233.61,171.25,233.61,169.19,242.56Z" transform="translate(-59.64 -146.62)"/><path d="M164.93,170.16c1.65-8-6.56-15.93,1.12-23.54C172.18,164.07,172.15,164.87,164.93,170.16Zm2.14-4.12c4.86-6.38-.23-10.36-1.53-15.91C162.38,156.32,166.27,160.48,167.07,166Z" transform="translate(-59.64 -146.62)"/><path d="M408.61,265.27c-3-1.06-1.65-4.73-4.45-4.39-2.07.25.14,3.24-2.7,4,0-2.85,0-5.52,0-8.19s1.8-2.29,3.42-2.21c2,.11,4.16,1.08,3.22,3.18C406.93,260.22,407.94,262.38,408.61,265.27Z" transform="translate(-59.64 -146.62)"/><path d="M235.87,225.83c0,1.65.08,3.29,0,4.93-.06,1,.48,2.64-1.27,2.62-1.14,0-1.31-1.27-1.31-2.3,0-3.94,0-7.88,0-11.82,0-.86.31-1.8,1.23-1.89,1.51-.15,1.29,1.17,1.31,2.06C235.91,221.56,235.87,223.7,235.87,225.83Z" transform="translate(-59.64 -146.62)"/><path d="M519.77,265c-1.64-2.82-1-5.3-1.14-7.71-.12-1.66.29-2.94,2.4-2.89,1.72,0,3.47.13,4.07,2.06.52,1.71.2,3.64-1.74,4C520.82,261.05,519.41,262,519.77,265Z" transform="translate(-59.64 -146.62)"/><path d="M448.36,259.48c-.29,3.36-1.57,5.82-5,5.91-3.67.11-5.13-2.26-5.09-5.73s1.65-5.31,5-5.36C446.88,254.23,448,256.7,448.36,259.48Zm-1.89-.33c-.19-1.68-.8-3.55-3.38-3.42s-3.3,2.2-3.23,4.12c.08,2.09.89,4.45,3.73,4.13C446,263.7,446.48,261.68,446.47,259.15Z" transform="translate(-59.64 -146.62)"/><path d="M479.28,253.83c2,2.87,1.32,4.71,1.51,6.42s0,3.64,2.3,3.71,2.23-1.9,2.37-3.57c.15-1.83-.47-3.81,1.22-5.4.07,3.31,2,6.85-1.25,9.74a3.27,3.27,0,0,1-4.18.23C477.59,262.24,479.44,258.49,479.28,253.83Z" transform="translate(-59.64 -146.62)"/><path d="M368.92,255.13c-3,.55-6.12.92-5.82,5.12.17,2.37,1.66,3.92,3.77,3.77,2.46-.18,3-1.68.86-3.47-.51-.44-.17-.84.39-.83s1.77,0,1.85.29a12.38,12.38,0,0,1,.44,3.33c0,1.54-1.16,1.88-2.32,2-2.26.32-4.37-.12-5.78-2a5.69,5.69,0,0,1-.39-6.12C363.31,254.47,365.83,254,368.92,255.13Z" transform="translate(-59.64 -146.62)"/></svg>