<svg xmlns="http://www.w3.org/2000/svg" viewBox="0 0 179.03 113.48"><defs><style>.a{fill:#fff;}.b{fill:none;}.b,.c{stroke:#fff;stroke-miterlimit:10;}</style></defs><path class="a" d="M-171.17,338.53c-.55.58-1,1.14-1.52,1.61a7.62,7.62,0,0,1-4.53,1.61,17.8,17.8,0,0,1-7.64-.67,5.45,5.45,0,0,1-3.81-6.58c.06-.33.14-.65.21-.95l-12.2-2.13a.64.64,0,0,0-.14.2,2.19,2.19,0,0,1-3.63,1.07c-.71-.53-1.43-1.06-2.08-1.65a.91.91,0,0,0-1.4,0c-.73.6-1.49,1.15-2.26,1.7a2.23,2.23,0,0,1-2.64.12,2.18,2.18,0,0,1-.82-2.51,16,16,0,0,1,.76-2.1c.28-.62.08-.88-.5-1.16q-3.4-1.69-6.78-3.5c-.82-.44-1.56-1.06-2.38-1.51a1.44,1.44,0,0,0-1.06-.06,2.43,2.43,0,0,1-2.52-.24,2.17,2.17,0,0,1-.7-2.4,1.13,1.13,0,0,0-.25-.89c-1.42-1.63-2.87-3.25-4.35-4.83a1.68,1.68,0,0,0-1.09-.46c-2.36-.1-4.75.08-7.06-.62a5.59,5.59,0,0,1-3.89-4c-1.23-4.09-1.06-8.32-1-12.52a92.58,92.58,0,0,1,1.06-15c.38-2.17.66-4.43,2.12-6.27a7.19,7.19,0,0,1,5.53-2.83,38.81,38.81,0,0,1,5.88.45,13.85,13.85,0,0,1,2.15.77,1.76,1.76,0,0,0,.94,0c.46-.13.88-.44,1.34-.52.85-.14,1.36-.54,1.32-1.43a1.24,1.24,0,0,0-.32-.84,2.24,2.24,0,0,1-.89-2.5,2.08,2.08,0,0,1,1.95-1.56,1.19,1.19,0,0,0,1.14-.87,1.94,1.94,0,0,1,2-1.22,2.07,2.07,0,0,1,2,1.37c.18.46.34.82.9.55s.74-.57.39-1.15c-.66-1.08-1.23-2.2-1.9-3.27a1.3,1.3,0,0,0-.83-.62c-2.71-.26-4.3-3.82-3.72-6.45.64-2.87,2.58-4.32,4.88-5.59a6.91,6.91,0,0,1,6.74-.26,3,3,0,0,0,.29-.54,6.13,6.13,0,0,1,3.76-4.68,23.56,23.56,0,0,1,4.47-1.67c2.09-.54,5,1.37,5.58,3.48.14.55.28,1.1.45,1.79l.77-.73a10.58,10.58,0,0,1,6.19-2.69,1.47,1.47,0,0,1,.59,0c1.44.56,2.35-.31,3.46-1a13.44,13.44,0,0,1,8.76-2,3.38,3.38,0,0,0,1.3-.17c2.79-.92,5.56-2,8.6-1.32a1.14,1.14,0,0,0,.71-.15,10.1,10.1,0,0,1,7.2-1.08,4.78,4.78,0,0,1,3.6,5.38c0,.17,0,.34-.06.66l3.58-.28.16-.25a6.75,6.75,0,0,0-1.32-1.3c-3.53-1.87-2.82-8.1.29-9.53a11.69,11.69,0,0,1,4-1A19.31,19.31,0,0,1-140.7,233a1.29,1.29,0,0,0,.82,0,13.49,13.49,0,0,1,8.1.36,5,5,0,0,1,3.15,5.71c-.14.61-.3,1.22-.49,2,.29,0,.5,0,.7-.08a10.36,10.36,0,0,1,10.27,3,1,1,0,0,0,.79.24,14.77,14.77,0,0,1,7.29.41c.3.08.54.32.84.41.77.24,1.55.46,2.34.64.11,0,.33-.11.42-.23,1.26-1.73,3.19-2.06,5.09-2.26a15.79,15.79,0,0,1,6.74,1,4.07,4.07,0,0,1,2.52,4.64c-.19.83-.42,1.65-.6,2.35,1.31.73,2.56,1.35,3.73,2.1a5,5,0,0,1,2.42,4.4,6,6,0,0,1-2.21,5l-.3.2c.88,1.3,1.7,2.53,2.53,3.75a.78.78,0,0,0,.39.31,2.43,2.43,0,0,1,1.88,1.7,1,1,0,0,0,.68.35,2.28,2.28,0,0,1,2.17,1.53,2.25,2.25,0,0,1-.84,2.59,1,1,0,0,0-.29.65c-.09.84-.14,1.68-.21,2.59a7.75,7.75,0,0,0,.85-.17,13,13,0,0,1,8.16.49A19.87,19.87,0,0,1-70.65,278a6.6,6.6,0,0,1,3.35,5.82,31,31,0,0,1-.35,4.06,2.19,2.19,0,0,0,.22,1.25,14.13,14.13,0,0,1,1.77,9.65,11.29,11.29,0,0,1-1.93,5.08,11.37,11.37,0,0,1-6.9,4.44,15.56,15.56,0,0,1-7.55.08,1.83,1.83,0,0,0-.93,0c-3,.85-6,.68-9,.95-1.63.15-3.26.16-4.89.24-.19,0-.38.07-.62.11a2.66,2.66,0,0,1-1.46,3,.77.77,0,0,0-.31,1.16,2.14,2.14,0,0,1,.2.47,2.3,2.3,0,0,1-.65,2.79,2.19,2.19,0,0,1-2.85-.13,1.5,1.5,0,0,0-2.15-.06c-1.4,1-2.63.61-3.74-1.21l-1.31.83c.77,2.09.6,2.62-1.2,3.87-.56.39-1.11.8-1.7,1.15a.93.93,0,0,0-.46,1.39,21.89,21.89,0,0,1,.93,2.49,2.31,2.31,0,0,1-.64,2.64,2.36,2.36,0,0,1-2.87-.1c-.74-.55-1.48-1.08-2.18-1.67a.86.86,0,0,0-1.33,0c-.45.43-1,.79-1.47,1.18-1.67,1.34-2.2,1.39-4,.35-.26,1.11-.49,2.22-.79,3.3a7.33,7.33,0,0,1-5.13,5.31,30.19,30.19,0,0,1-6.06,1.08,4.72,4.72,0,0,1-4-1.87l-.44-.52a1.16,1.16,0,0,0-.26-.07c-.22.84-.43,1.68-.65,2.53a9.82,9.82,0,0,1-4.22,6.23c-3.61,2.26-8.7,1.7-11-2.26a15.65,15.65,0,0,1-.72-1.72C-162.59,342.22-167.06,342.2-171.17,338.53Zm-21-52.51a9.34,9.34,0,0,1,4.22-3.13c5.15-2,9.82-.88,14.1,2.35a3.85,3.85,0,0,1,1.2,1.64c.71,1.94,1,4.11,0,5.85s-.44,2.78.35,4.22a11.42,11.42,0,0,1,1,6.53c-.33,4.09-2.31,7.19-6.21,8.6a14.86,14.86,0,0,1-14-1.57,1,1,0,0,0-.87-.05,11.91,11.91,0,0,1-6.72,1.77c-3.17-.05-6.33-.32-9.5-.48a8.89,8.89,0,0,0-1,.07,23.91,23.91,0,0,1-6.91-.24,9,9,0,0,0-1.94,0l0,.31A38.07,38.07,0,0,0-208,319.37a9,9,0,0,1,.34-1.09,4.8,4.8,0,0,1,.53-.68,3.24,3.24,0,0,1,.48.64,3.93,3.93,0,0,1,.35,1.05,2,2,0,0,0,1.5,1.58,74.26,74.26,0,0,0,14.25,4.05c.34.06.7.07,1.07.11a10,10,0,0,1,1.73-9.7,3.32,3.32,0,0,1,3.1-1.48c2,.16,3.92.35,5.89.42a24.47,24.47,0,0,0,4.61-.17,3.77,3.77,0,0,1,3.63,1.17,9,9,0,0,1,2.11,5.15,7.63,7.63,0,0,0,.17.75c.32-.15.53-.24.73-.35,3-1.63,6-2,9.1-.13a.68.68,0,0,0,.65,0,6.47,6.47,0,0,1,3.21-1.72c2.1-.51,4.19-1.27,6.36-.26.2.09.58-.09.82-.24a7.08,7.08,0,0,1,5.95-1.11,1.6,1.6,0,0,0,1.21-.28,6.65,6.65,0,0,1,2.91-1.38c1.25-.24,2.48-.57,3.72-.83a2.65,2.65,0,0,1,1,0,4.32,4.32,0,0,1,2.8,2.11c.41.63.81.77,1.47.42,4.14-2.21,8.3-4.37,12.42-6.6a27,27,0,0,0,2.62-1.8.87.87,0,0,0-.58-.16l-5.74.24c-1,.05-2,.05-3,.17a16.68,16.68,0,0,1-6.22.06,1.84,1.84,0,0,0-.82.12,16.82,16.82,0,0,1-6.54.53c-1-.13-1.9-.83-2.83-.81s-1.91.72-2.9,1c-4.35,1.05-8.81.87-13.23,1.06a4.4,4.4,0,0,1-4.8-3.25,19.38,19.38,0,0,1-.67-3,124.16,124.16,0,0,1-1.11-18,48.23,48.23,0,0,1,.63-6.55c.46-3.23,2.83-4.5,5.49-4.66l4.54-.3c2.34-.16,4.67-.45,7,.2s4.61,1.37,5.76,3.65a21.12,21.12,0,0,1,1.21,4.24,7,7,0,0,1,.13,1c1.2-1,2.25-2,3.4-2.79a5,5,0,0,1,5.56-.58c1.12.56,2.21,1.15,3.44,1.79a.81.81,0,0,1,.11-.21,5.7,5.7,0,0,1,4.78-2.57c1.38-.08,2.76-.05,4.12-.21a12.66,12.66,0,0,1,6.47.87,1.17,1.17,0,0,0,1-.13c2.08-1.57,4.47-1.59,6.87-1.36,1,.09,1.9.55,2.9-.13a4.77,4.77,0,0,1,1.83-.35l1-.15c-.52-1.54-1.06-2.95-1.48-4.39a3.56,3.56,0,0,0-2.58-2.66,3.3,3.3,0,0,1-2.32-2.11c0-.15-.41-.26-.63-.27a10.57,10.57,0,0,1-2.87,0,28.67,28.67,0,0,1-4.4-1.85,4.07,4.07,0,0,1-2.11-2.86,4.83,4.83,0,0,1-4.48.83c-.61-.17-1.23-.29-1.82-.48-1.85-.61-3.73-1.18-4.92-2.92-.12-.18-.55-.23-.81-.19-.73.12-1.44.38-2.17.47a8.31,8.31,0,0,1-7.81-3,8.9,8.9,0,0,1-1.89-5.92c0-.27-.11-.76-.24-.79-.73-.14-1.49-.17-2.24-.24l-.1.23a5.89,5.89,0,0,1,.54.58,4.22,4.22,0,0,1,.82,1.28,4.35,4.35,0,0,1-3.14,5.36,15,15,0,0,1-8.42-.79A3.45,3.45,0,0,1-151,255a4.09,4.09,0,0,1,1.54-3.05,4.06,4.06,0,0,0-1.25-.12c-2.94.21-5.89.35-8.81.66-2.41.25-1.88-.15-2.54,2.17a19.51,19.51,0,0,1-1.69,4.36,2.39,2.39,0,0,1-3.82.71,17.38,17.38,0,0,1-2.19-2.26c-.37-.41-.69-.86-1.14-1.44-.21.61-.35,1-.48,1.41-.29.84-.51,1.7-.86,2.52a2.74,2.74,0,0,1-4,1.47,5,5,0,0,1-1.42-1.33c-.79-1-1.49-2-2.27-3a1.23,1.23,0,0,0-.72-.28s-.18.29-.21.46a20.82,20.82,0,0,1-.39,2.51,8.24,8.24,0,0,1-10.3,5.54c-1.38-.44-1.38-.44-1.88.94-.65,1.74-1.61,2.32-3.44,2a8.51,8.51,0,0,1-1.39-.41c-1.27-.45-2.52-.94-3.8-1.35a3.17,3.17,0,0,0-1.08.07c.92,2.62.3,4.95-1.6,6.41a8.53,8.53,0,0,1-4.6,1.94,4,4,0,0,1-3.34-1.51c-.64.57-1.2,1.1-1.78,1.6s-1.2,1.07-.52,2a1.78,1.78,0,0,1,.24.9c.12,1.18.22,2.36.33,3.63.49,0,1,0,1.51,0a23,23,0,0,1,3.81.43,5.08,5.08,0,0,0,2.16.06,31.31,31.31,0,0,1,5-.2,13.5,13.5,0,0,1,8.25,3C-193.19,285.14-192.75,285.55-192.2,286Zm-39.42,3.34-.34-.14a6.3,6.3,0,0,1-.22-1.46c.18-2.17,0-4.39,1.27-6.38a13.17,13.17,0,0,0,1-2.91,1.23,1.23,0,0,0-1.22-1.79c-1.29-.05-2.57-.06-3.86-.09a1.13,1.13,0,0,0-1.25.82,11.49,11.49,0,0,0-.66,2.39q-.59,6.79-1.05,13.59c-.1,1.4,0,2.81-.07,4.2a12.27,12.27,0,0,1-.35,3.88c-.34.93.06,2.19.28,3.27a1.81,1.81,0,0,0,1.93,1.5c1.17.05,2.34.09,3.52.11a3.06,3.06,0,0,0,1.08-.18c.79-.31.85-.58.42-1.32a1.41,1.41,0,0,1-.2-.55q-.43-3.36-.84-6.72a1,1,0,0,1,.07-.66,22.78,22.78,0,0,1,1.65-1.89c1.49-1.52,2.13-2,3.16.51a51.29,51.29,0,0,1,1.67,6.19,2.06,2.06,0,0,0,.19.73,1.62,1.62,0,0,1,0,2.39.73.73,0,0,0,0,.7c.44.39.93.94,1.45,1a36.13,36.13,0,0,0,4.54.15,2.82,2.82,0,0,0,1.32-.48c.16-.1.2-.52.16-.78-.06-.41-.34-.8-.32-1.19.14-3.4-1.08-6.54-1.83-9.77-.16-.67-.76-1-1.15-1.44-.78-1-1.41-2-2.14-3s-.72-1,0-1.92c1.23-1.55,2.47-3.09,3.62-4.68,1.25-1.74,2.1-3.62,1.41-5.83a.93.93,0,0,0-.66-.55c-1.22-.1-2.45-.11-3.68-.17a1.16,1.16,0,0,0-1.3.95,19,19,0,0,1-3.61,6.45c-.45.5-1.07.91-1.19,1.77-.08.56-.59,1.28-1.1,1.29Zm75,35.78.25-.24a7.3,7.3,0,0,1,1.59,1.42c1.73,2.83,3.36,5.72,5,8.6a6.57,6.57,0,0,1,.62,1.41c.06.18-.11.44-.18.67-.21-.09-.49-.13-.61-.28a7.12,7.12,0,0,1-.51-1,2,2,0,0,0-1.91-1.34,2.09,2.09,0,0,0-2,1.62,9.53,9.53,0,0,0-.24,2.38,3.29,3.29,0,0,0,2.45,3.07A4.81,4.81,0,0,0-147,340a7.66,7.66,0,0,0,1.88-3.9c.62-3.37,1.14-6.76,1.7-10.14.2-1.17.2-2.45,1.34-3.21a2.76,2.76,0,0,0,1.13-2.11c.14-1.11-.36-1.84-1.48-1.87a8.36,8.36,0,0,0-2.86.36c-1.95.63-2.4,2.47-1.13,4.08a2.08,2.08,0,0,1,.27,2.26.76.76,0,0,1-.68.26,3.52,3.52,0,0,1-1.32-3.16,1.92,1.92,0,0,0-2.19-2.72,27,27,0,0,0-5.16,1.13,1.87,1.87,0,0,0-1.43,2,3.9,3.9,0,0,1-.23,1c-3.64-4.9-9.93-3-12.09.64A10.35,10.35,0,0,0-170,334a6.2,6.2,0,0,0,6.63,4,7.93,7.93,0,0,0,6.85-5A9,9,0,0,0-156.59,325.14Zm11.79-35.39a11.83,11.83,0,0,0,3.36-4.84,1.07,1.07,0,0,0,.07-.5c-.13-1-.29-2-.42-3a3,3,0,0,0-1.77-2.48,9.09,9.09,0,0,0-3.35-.84c-3,0-6.06.28-9.09.39a1.33,1.33,0,0,0-1.46,1.33c-.19,1.62-.41,3.24-.48,4.86-.08,2.06,0,4.12-.05,6.18,0,.76-.31,1.51-.31,2.26,0,1.25.11,2.51.24,3.76.25,2.47.47,4.95.88,7.4.24,1.46,1,1.9,2.44,1.82,3.14-.17,6.29-.3,9.42-.57a7.18,7.18,0,0,0,5.4-3c.58-.81,1.28-1.69.49-2.8-.1-.14,0-.39,0-.59-.14-1.21-.28-2.43-.41-3.64,0-.35.08-.82-.1-1-1.18-1.34-2.42-2.63-3.67-3.91A7.89,7.89,0,0,0-144.8,289.75Zm24.23-32-.23-.2a11.3,11.3,0,0,0,1.82-5c.24-3-.5-5.74-3.22-7.47a7.76,7.76,0,0,0-10.3,2.46,11.49,11.49,0,0,0-1.72,7.13,6,6,0,0,0,2,4.16,7.89,7.89,0,0,0,9.69.31l.8-.55a7.61,7.61,0,0,1-.14,1,1.92,1.92,0,0,0,1,2.34,14.13,14.13,0,0,0,6.16,1.93,1.69,1.69,0,0,0,1.88-1.17c.35-1,.83-2-.33-2.86a1.27,1.27,0,0,1-.49-1c.25-1.23.61-2.44,1-3.64a3.54,3.54,0,0,1,.61-.85,5.12,5.12,0,0,1,.6,1c.71,2,2.82,2.11,4.24,1a5.76,5.76,0,0,0,1.87-4.35,2.6,2.6,0,0,0-1.57-2.72,2.74,2.74,0,0,0-3,.51c-.27.21-.57.38-1,.69.12-.69.2-1.13.26-1.58a.82.82,0,0,0-.63-1,10.32,10.32,0,0,0-5.75-.08,2.37,2.37,0,0,0-1.07,3.52,1.33,1.33,0,0,1,.3,1c-.48,1.49-1,3-1.61,4.43C-119.71,257.1-120.22,257.41-120.57,257.78Zm-83.15-2.89-.25.26c-.44-.11-.88-.18-1.3-.33-2.74-1-5.47-2-8.23-2.95a3.68,3.68,0,0,0-2.24-.13,15.72,15.72,0,0,0-3.19,1.8,3,3,0,0,0-1.09,2.83,1.3,1.3,0,0,0,1.25,1.4,3.12,3.12,0,0,1,2.66,1.78c1.39,2.52,2.74,5.08,4.12,7.61a5.1,5.1,0,0,1,.54,3.76c-.38,1.72.81,2.78,2.53,2.31a15.3,15.3,0,0,0,3-1.32,3.69,3.69,0,0,0,1.71-2.75,1.67,1.67,0,0,0-1.53-2.12,1.51,1.51,0,0,1-.71-.25c-1.37-1.14-2-2.72-2.73-4.51a10.84,10.84,0,0,1,1.22.25l7.48,2.77c1.26.47,2.52.94,3.8,1.36.58.19,1.25.26,1.58-.42a3.22,3.22,0,0,0,.35-2.72c-.24-.61-.43-1.25-.72-1.83-1.7-3.38-3.43-6.73-5.12-10.1-.52-1.05-1.07-2.1-.42-3.33a1.86,1.86,0,0,0-.32-2.3,1.94,1.94,0,0,0-2.23-.4,20,20,0,0,0-2.41,1.09,3.3,3.3,0,0,0-2.16,2.84,1.81,1.81,0,0,0,1.51,2.18c.38.08.88.14,1.08.4C-204.9,253-204.33,253.94-203.72,254.89Zm24.62-10.68a10,10,0,0,0-5,1.27,2.66,2.66,0,0,0-1.14,3c.09.26.36.6.6.64a3.53,3.53,0,0,1,2.16,1.69q3.08,4.23,6.19,8.44a1.67,1.67,0,0,0,1.67.84c.75-.13.95-.73,1.14-1.35.51-1.7,1-3.4,1.55-5.09a3.12,3.12,0,0,1,.48-.74,3,3,0,0,1,.73.52c.63.78,1.18,1.61,1.81,2.39a25,25,0,0,0,2.15,2.44c.71.68,1.35.58,1.82-.27a10.25,10.25,0,0,0,1-2.44c.72-2.74,1.38-5.49,2-8.24a3.94,3.94,0,0,1,1.7-2.75,2.45,2.45,0,0,0,.64-2.35,1.6,1.6,0,0,0-1.82-1,13.13,13.13,0,0,0-2.79.4,2.34,2.34,0,0,0-1.15,3.84,2.13,2.13,0,0,1-.2,2.49.63.63,0,0,1-.58,0,3,3,0,0,1-1-3.18c.38-1.17-.07-2.09-1.28-2.2a10.93,10.93,0,0,0-6.53,1.34,2.1,2.1,0,0,0,0,3.51,2.32,2.32,0,0,1,.84.92c.11.24-.06.64-.17.95,0,.09-.29.17-.42.14-.66-.17-1.84-2.27-1.7-3,.28-1.42-.22-2.13-1.64-2.3A10.27,10.27,0,0,0-179.1,244.21ZM-101.83,263l.38,0c.07.33.16.65.21,1,.26,1.55.45,3.12.79,4.65a2.14,2.14,0,0,0,1,1.26,37.09,37.09,0,0,0,3.77,1.65c1.46.58,2.29.09,2.82-1.39a2.56,2.56,0,0,0-.27-2.27,6.47,6.47,0,0,1-.7-1.83c-.3-1.66-.51-3.33-.77-5-.09-.62.2-.92.79-1s1.42-.08,2.13-.15a1.79,1.79,0,0,0,.88-.21,2.4,2.4,0,0,0,.1-3.44,12.16,12.16,0,0,0-3.13-1.69c-1.94-.7-2.53-.33-3.19,1.6a1.5,1.5,0,0,1-1.79.74c-.66-.38-.1-.84.07-1.23,1-2.33,2.09-4.64,3.08-7,.43-1,.19-1.37-.92-1.64a8,8,0,0,0-1.93-.37,19.3,19.3,0,0,0-4.31.29,1.9,1.9,0,0,0-.7,3.22,1.16,1.16,0,0,1,.17,1c-1.37,3.08-2.76,6.15-4.22,9.19a2.7,2.7,0,0,1-1.28,1.26c-1.32.52-2,2.74-.93,3.67a9.73,9.73,0,0,0,5.92,2.41,1.75,1.75,0,0,0,1.35-.69,3.23,3.23,0,0,0,.57-2.6A4.64,4.64,0,0,1-101.83,263Zm-74.4,63.92h.14c0-1.57,0-3.14,0-4.71a2.91,2.91,0,0,1,.41-.93,4,4,0,0,1,.77.57,6.5,6.5,0,0,1,.47.91,8.85,8.85,0,0,0,.84,1.39,1.83,1.83,0,0,0,3.05-.48,7.31,7.31,0,0,0-1.25-7.39,2,2,0,0,0-1.93-.65,36.89,36.89,0,0,1-10.75-.11,1.86,1.86,0,0,0-1.79.53,7.53,7.53,0,0,0-.89,1.15,8.47,8.47,0,0,0-1.19,6.08,1.56,1.56,0,0,0,2.83.67c.49-.54.81-1.24,1.28-1.81a7.68,7.68,0,0,1,1.1-.94c.16.43.33.86.49,1.3a.52.52,0,0,1,0,.25q-.19,4.71-.42,9.42a1.6,1.6,0,0,1-1.12,1.47c-.37.16-.87.46-.94.78-.4,1.8-.46,2.9,1.62,3.47a14.58,14.58,0,0,0,7.22.19c1.73-.39,2.15-1.25,2.2-3.06a1.62,1.62,0,0,0-.76-1.2,2.52,2.52,0,0,1-1.42-2.52C-176.22,329.83-176.23,328.37-176.23,326.91Zm28.3-91.8c-1.09.12-2.17.18-3.24.38-1.25.23-1.24,1.32-1.38,2.28-.12.76.33,1.17.87,1.62a12.46,12.46,0,0,1,2,2.13,17.84,17.84,0,0,1,1.85,3.08,10.29,10.29,0,0,1,1.08,3.37,18.85,18.85,0,0,1-.44,4,1.57,1.57,0,0,1-1.14,1.37c-1.17.36-1,1.38-1.17,2.25a1.52,1.52,0,0,0,1,1.66,11.93,11.93,0,0,0,2.6.83,13.38,13.38,0,0,0,5.53,0c1.26-.32,1.55-1.34,1.82-2.37.21-.84-.28-1.37-.9-1.89a1.77,1.77,0,0,1-.59-1.15,37.78,37.78,0,0,1,.15-4.88,5.18,5.18,0,0,1,1-2.39,51.14,51.14,0,0,1,3.48-4,2.46,2.46,0,0,1,1.4-.72c1.54-.16,1.86-1.18,1.93-2.75a1.24,1.24,0,0,0-.9-1.32,10.34,10.34,0,0,0-5.48-.44,1.66,1.66,0,0,0-1.53,1.77,11.88,11.88,0,0,0,.17,2,1.39,1.39,0,0,1-.82,1.53.9.9,0,0,1-.85-.11c-.42-.7-1-1.32-.49-2.33,1-2,.47-2.91-1.72-3.35C-145.08,235.39-146.51,235.29-147.93,235.11Zm-54.17,72v.14c1.2,0,2.41.08,3.6,0A7.46,7.46,0,0,0-192,303a5.68,5.68,0,0,0,.46-2.05,14.56,14.56,0,0,0-.15-1.85c-.08-1.57-.05-3.15-.21-4.71a20.14,20.14,0,0,0-.69-2.91c-.13-.56-.1-1.51-.4-1.62-.69-.26-.84-.86-1.2-1.3a9.3,9.3,0,0,0-7.87-3.8,21.44,21.44,0,0,1-2.66-.05,1.18,1.18,0,0,0-1.41,1.05,18.5,18.5,0,0,0-.58,3c-.25,4.14-.43,8.28-.64,12.42a5,5,0,0,1-.19,1.6,4.16,4.16,0,0,0,.14,3.25,1.61,1.61,0,0,0,1.61,1.06C-204.56,307.09-203.33,307.11-202.1,307.11Zm13.41-9.81a5.75,5.75,0,0,0-1,1.17,14,14,0,0,0-.63,2c-.07.24-.06.59-.22.71a1.13,1.13,0,0,0-.31,1.47,9.31,9.31,0,0,0,1.33,2.54,9.12,9.12,0,0,0,9.84,2.33,7.54,7.54,0,0,0,4.57-4,3.66,3.66,0,0,0,.17-1.48c0-.44-.21-.88-.19-1.32a5.26,5.26,0,0,0-2.18-4.85,9.67,9.67,0,0,0-1.64-1.08c-1.37-.64-2.78-1.2-4.17-1.79a3.55,3.55,0,0,1-2.09-1.8c-.09-.23-.11-.69,0-.77a5.43,5.43,0,0,1,1.64-.84c1.62-.37,2.86.4,4,1.52.94.95,1.39.95,2.41.09a6,6,0,0,0,.65-.68c1.59-1.87,1.34-2.87-.83-4.14a9.45,9.45,0,0,0-10.93.49,1.35,1.35,0,0,0-.39.63c-.54,1.33-.4,2.85-1.21,4.11a.83.83,0,0,0,0,.66,10.62,10.62,0,0,0,.7,2c1,1.8,2.72,2.63,4.47,3.43s3.53.95,4.78,2.53c.4.51.46.79.11,1.2a3.41,3.41,0,0,1-1,.89,5.65,5.65,0,0,1-4.42,0,3.41,3.41,0,0,1-2.08-1.92C-187.8,299.51-188.18,298.54-188.69,297.3Zm76.94-5.94a6.54,6.54,0,0,0,2.48-3.3,1.19,1.19,0,0,0,0-.42c-.12-.72-.28-1.43-.36-2.15a2.52,2.52,0,0,0-1.68-2.19,6,6,0,0,0-2.07-.45c-2.23,0-4.46.25-6.68.3a1.26,1.26,0,0,0-1.39,1.17,6.21,6.21,0,0,0-.12.85c-.15,3.19-.4,6.38-.41,9.56a61.58,61.58,0,0,0,.51,7.18c.19,1.65.93,2.14,2.56,2.06,1.94-.11,3.88-.24,5.82-.34a6.33,6.33,0,0,0,4.42-1.81c.74-.76,1.72-1.57.79-2.85-.07-.1,0-.28,0-.43-.12-1.13-.23-2.26-.38-3.39a1.14,1.14,0,0,0-.37-.52C-109.66,293.55-110.68,292.48-111.75,291.36ZM-134.62,305a15.93,15.93,0,0,0,2.2-.27c.91-.24,1-.56.38-1.3a5.66,5.66,0,0,1-.58-.94c-.23-.48-.4-1-.61-1.48s-.43-.85-.58-1.29c-.25-.71.48-.73.77-1.07,1.36-1.58,3.19-1.5,5-1.49.66,0,1.47.42,1.32,1.14a44.24,44.24,0,0,1-1.39,4.74c-.09.29-.46.74-.42.78a2.3,2.3,0,0,0,1.11.67,13.76,13.76,0,0,0,3.08-.17,2.57,2.57,0,0,0,1.41-1c.18-.23-.08-.79-.14-1.21a3,3,0,0,1,0-.67,30.24,30.24,0,0,0-1.06-10.28,10.34,10.34,0,0,0-.75-2.55,15.68,15.68,0,0,0-2.32-2.83,20,20,0,0,0-2.3-1.9,1.63,1.63,0,0,0-2.2.07c-1,.81-2,1.61-3,2.43a.86.86,0,0,0-.18.37,16.6,16.6,0,0,1-.6,1.58,18.52,18.52,0,0,0-2,6.34,16.08,16.08,0,0,1-.39,3.65,7.05,7.05,0,0,0-.1,3.86C-137.64,304.41-136.88,305-134.62,305Zm58.77-10.15a5,5,0,0,1-.37.73c-1.37,2-5.21,1.86-6.45-.22-.43-.7-.68-1.5-1-2.24a3.63,3.63,0,0,0-.47-.64c-.21.18-.53.31-.62.53-.23.58-.36,1.2-.54,1.79-.07.27-.19.52-.27.79-.11.45-.38.94-.27,1.33a6.54,6.54,0,0,0,1,2.17,7.67,7.67,0,0,0,8.33,2.53,7,7,0,0,0,4.75-4.13,3,3,0,0,0,.1-1.24c0-.41-.27-.81-.24-1.2a5.17,5.17,0,0,0-3.1-5.43c-1.43-.68-3-1.14-4.47-1.69-1.12-.4-2.06-1-2.2-2.27.47-.17.91-.3,1.31-.49a3,3,0,0,1,3.3.2c.42.3.79.66,1.22.95a1,1,0,0,0,1.55-.25,13.65,13.65,0,0,0,.75-1.35,2.06,2.06,0,0,0-.83-3.05,8.24,8.24,0,0,0-7.63-.71,4.4,4.4,0,0,0-2.12,1.3,12.56,12.56,0,0,0-1.1,3c-.09.26-.17.53-.24.8-.11.44-.37.94-.26,1.33a6.94,6.94,0,0,0,1,2.24,8.93,8.93,0,0,0,4.92,3.08,17.6,17.6,0,0,1,2.51.84A8.24,8.24,0,0,1-75.85,294.81Zm-18.77,1.86h0c-.18-.48-.39-.94-.53-1.43-.2-.67.43-.84.73-1.24a2.68,2.68,0,0,1,3.19-1,1.25,1.25,0,0,0,1.61-.9c.28-.78.5-1.58.74-2.38.43-1.48-.36-2.36-1.87-2a24.13,24.13,0,0,0-3.06,1.07c-.84.34-1.09.22-1.34-.66s.34-1.2.89-1.67a3.8,3.8,0,0,1,3.33-1,9.73,9.73,0,0,1,1.68.62c.51.2.92.19,1.17-.42.36-.87.79-1.71,1.14-2.59.51-1.3,0-2-1.42-1.91-2.82.16-5.65.36-8.48.52-.61,0-.94.24-1,.89-.28,3.58-.58,7.17-.86,10.76-.07,1,.15,2-.48,2.91-.1.13-.06.38,0,.58.07,1.28.17,2.57.24,3.85s.72,2,2.08,1.92c3.34-.17,6.68-.38,10-.59a2,2,0,0,0,.82-.22c.55-.28,1-.61.31-1.25a.71.71,0,0,1-.23-.53c.22-1.25-.55-2-1.28-2.83-.85-.94-.89-.93-2-.15a5.43,5.43,0,0,1-3.07,1.2,2.28,2.28,0,0,1-2.06-.83A2.57,2.57,0,0,1-94.62,296.67ZM-189.71,257c.33-.13.63-.27.94-.38,1.05-.37,2.11-.72,3.17-1.08a2.62,2.62,0,0,0,1.88-3.5,6.22,6.22,0,0,0-5.1-4.66,5.82,5.82,0,0,0-6,2.59,9.8,9.8,0,0,0,.38,11.26c1.8,2.3,4.13,3.38,7,2.59a6.62,6.62,0,0,0,5-5.37,2.2,2.2,0,0,0-.68-2.26.89.89,0,0,0-1.47.1c-.26.33-.51.68-.81,1A2.65,2.65,0,0,1-189.71,257Zm54.61,64.42.2-.45a6.42,6.42,0,0,1,1.09.4c.52.29,1,.71,1.51,1a1.33,1.33,0,0,0,2.08-1,4.5,4.5,0,0,0-2.34-4.9,1.13,1.13,0,0,0-.95,0,4.39,4.39,0,0,1-2.45.57,4.51,4.51,0,0,0-4.47,3.33c-.65,2.78-.31,5.28,2.13,7.17-1.19.16-1.33.33-1.43,1.57-.16,2,.88,3.37,2.2,4.62a1.56,1.56,0,0,0,1.1.25c1.1-.12,2.19-.4,3.29-.48,3.86-.31,5.22-4.1,4.7-6.86a4,4,0,0,0-1.77-2.83,35.86,35.86,0,0,0-3.31-1.58C-134,322-134.57,321.71-135.1,321.44Zm-77.34-14.57v.05h.86c.29,0,.57,0,.86,0,1-.06,1.26-.48.8-1.35a1.86,1.86,0,0,1-.16-.57c-.26-1.81-.6-3.61-.76-5.43a36,36,0,0,1,.47-10.25,5.48,5.48,0,0,1,.39-.94,19.57,19.57,0,0,0,1-2.42,1.16,1.16,0,0,0-1.2-1.41c-.91,0-1.83,0-2.74-.06s-1.23.22-1.35,1a49.67,49.67,0,0,0-.85,5.4c-.22,3.54-.25,7.09-.37,10.64,0,.31.07.71-.09.91a2.77,2.77,0,0,0-.32,2.3c.21,1.61.81,2.1,2.43,2.14Zm105.81-11.34c.17,1.39.41,3.64.71,5.87.1.73.52,1.53,1.27,1.57a17.53,17.53,0,0,0,3.82-.24c.56-.08,1-.51.33-1.14a1.37,1.37,0,0,1-.25-.63,37.37,37.37,0,0,1-.87-18c.15-.68-.13-.91-.75-.88s-1.43.11-2.14.09c-.9,0-1.4.35-1.47,1.27,0,.26-.12.51-.13.76ZM-115.3,325a1.59,1.59,0,0,0,0-.39c-.13-.37-.26-.75-.4-1.13-.89-2.4-.88-2.39,1.23-3.86.46-.32.91-.67,1.37-1a13,13,0,0,0-3.19-.17,1.23,1.23,0,0,1-1.53-1.14,25.38,25.38,0,0,0-.77-2.53,13.29,13.29,0,0,0-1,2.45c-.46,1.31-.46,1.31-1.85,1.31H-124l0,.28c.83.64,1.63,1.32,2.51,1.9a1,1,0,0,1,.43,1.45c-.34.89-.62,1.81-.92,2.72l.18.14c.76-.59,1.55-1.13,2.26-1.77a1.21,1.21,0,0,1,1.9-.05C-116.95,323.89-116.14,324.41-115.3,325Zm-95.32,4.56.17.12c.84-.62,1.71-1.21,2.51-1.88a1,1,0,0,1,1.55,0c.77.68,1.62,1.27,2.44,1.9l.18-.14c-.3-.91-.57-1.84-.92-2.73a1,1,0,0,1,.38-1.38,15.39,15.39,0,0,0,1.31-1l1.34-1.07a11.45,11.45,0,0,0-2.48-.2c-2,0-1.57.16-2.16-1.55l-.75-2.19a12,12,0,0,0-1,2.72,1.11,1.11,0,0,1-1.34,1c-1.1-.05-2.2,0-3.3,0a13.91,13.91,0,0,0,2.6,2,1.1,1.1,0,0,1,.49,1.63C-210,327.74-210.29,328.68-210.62,329.6Zm-13.19-10.74c1.14-1.16,2.21-1,3.47,0-1.36-1.71.12-2.36,1-3.23-.77-.07-1.52.08-2-.22s-.56-1-1-1.88c-.18,1.65-.76,2.59-2.51,2.16C-223.36,316.46-222.93,317.41-223.81,318.86Zm118.55-4.73c.53-.3,1.05-.81,1.59-.83s1,.49,1.58.77l.24,0c-1.08-1.43-.43-2.32,1-3.07-.87-.09-1.62,0-2-.27s-.49-1.06-.71-1.62l-.2-.13c-.1,1.74-1.09,2.19-2.67,1.93C-105.16,311.71-104.41,312.63-105.26,314.13Zm18.73-43.67c-.14,1-.92,1-1.44,1.11l.73,1.63h1.77c-.53-.64.25-1,.64-1.69C-85.79,271.7-86.2,271.19-86.53,270.46Zm-133.63-2-1.54.63c.19.21.48.4.57.66a3.27,3.27,0,0,1,0,1.06,1,1,0,0,1,1.71-.15l.63-1.75Zm95.65,55.69c-1.06.12-1.15.44-.45,1.5Z" transform="translate(244.49 -231.67)"/><path class="b" d="M-210.62,329.6c.33-.92.63-1.86,1-2.76a1.1,1.1,0,0,0-.49-1.63,13.91,13.91,0,0,1-2.6-2c1.1,0,2.2,0,3.3,0a1.11,1.11,0,0,0,1.34-1,12,12,0,0,1,1-2.72l.75,2.19c.59,1.71.12,1.54,2.16,1.55a11.45,11.45,0,0,1,2.48.2l-1.34,1.07a15.39,15.39,0,0,1-1.31,1,1,1,0,0,0-.38,1.38c.35.89.62,1.82.92,2.73l-.18.14c-.82-.63-1.67-1.22-2.44-1.9a1,1,0,0,0-1.55,0c-.8.67-1.67,1.26-2.51,1.88Z" transform="translate(244.49 -231.67)"/><path class="b" d="M-223.81,318.86c.88-1.45.45-2.4-.93-3.2,1.75.43,2.33-.51,2.51-2.16.4.84.53,1.59,1,1.88s1.2.15,2,.22c-.92.87-2.4,1.52-1,3.23C-221.6,317.89-222.67,317.7-223.81,318.86Z" transform="translate(244.49 -231.67)"/><path class="b" d="M-105.26,314.13c.85-1.5.1-2.42-1.2-3.25,1.58.26,2.57-.19,2.67-1.93l.2.13c.22.56.3,1.31.71,1.62s1.16.18,2,.27c-1.43.75-2.08,1.64-1,3.07l-.24,0c-.53-.28-1.06-.78-1.58-.77S-104.73,313.83-105.26,314.13Z" transform="translate(244.49 -231.67)"/><path class="b" d="M-86.53,270.46c.33.73.74,1.24,1.7,1.05-.39.65-1.17,1.05-.64,1.69h-1.77l-.73-1.63C-87.45,271.49-86.67,271.46-86.53,270.46Z" transform="translate(244.49 -231.67)"/><path class="b" d="M-220.16,268.47l1.4.45-.63,1.75a1,1,0,0,0-1.71.15,3.27,3.27,0,0,0,0-1.06c-.09-.26-.38-.45-.57-.66Z" transform="translate(244.49 -231.67)"/><path class="c" d="M-124.51,324.16l-.45,1.5C-125.66,324.6-125.57,324.28-124.51,324.16Z" transform="translate(244.49 -231.67)"/><path class="b" d="M-165.68,294.33a23.84,23.84,0,0,0-2,1.36c-.24.2-.32.61-.48.92.36.11.78.39,1.07.29a13.65,13.65,0,0,0,2.45-1.14c.43-.26.67-.3,1,0,.54.51,1.12,1,1.86,1.6-.78.5-1.4,1-2.08,1.33a1.22,1.22,0,0,0-.81,1.34c.09.8-.27,1.16-1.1,1.07a10.43,10.43,0,0,0-1.37,0c-.81,0-1.51,0-1.39-1.14,0-.17-.36-.44-.61-.55-.44-.21-.94-.27-1.36-.49a2.2,2.2,0,0,1-.66-3.54c.22-.26.45-.51.85-1-.21-.1-.4-.18-.57-.28-1.87-1.21-1.28-3.55.69-4.39.69-.3,1-.59.94-1.35a.78.78,0,0,1,.46-.54c.9-.16,1.82-.24,2.72-.36.58-.08.81.22.78.73-.06.89.35,1.27,1.18,1.58,2.07.77,2.08,1,.64,2.6a1.07,1.07,0,0,1-1.6.27,8.27,8.27,0,0,0-2.38-.86c-.31-.07-.7.24-1.05.38.2.29.33.68.6.86C-167.21,293.53-166.49,293.88-165.68,294.33Z" transform="translate(244.49 -231.67)"/><path class="b" d="M-161.46,332.13c-.22.26-.41.68-.67.74a1,1,0,0,1-.91-.4,26.2,26.2,0,0,1-1.34-3.3,9,9,0,0,1-.4-2.19c0-.32.16-.85.39-1a1.11,1.11,0,0,1,1,.26,6,6,0,0,1,.92,1.81C-162.07,329.38-161.81,330.7-161.46,332.13Z" transform="translate(244.49 -231.67)"/><path class="b" d="M-152.72,295.37c1.28-.77,2.4-1.39,3.45-2.1a1.27,1.27,0,0,1,2,.24c.65.86,1.2,1.79,1.79,2.7a7.79,7.79,0,0,1,.6,1c.11.24.25.59.15.77A5,5,0,0,1-146,299.7a5.42,5.42,0,0,1-4.81.76,1.77,1.77,0,0,1-.89-.74A7.84,7.84,0,0,1-152.72,295.37Z" transform="translate(244.49 -231.67)"/><path class="b" d="M-153.29,287.52a1,1,0,0,1,0-.17c.13-.71,0-1.58.44-2.1a4.59,4.59,0,0,1,4.37-2.13c1.5.17,1.88,1,1.13,2.26a13.71,13.71,0,0,1-4.11,4.06c-1.22.87-1.71.59-1.8-.9,0-.34,0-.68-.05-1Z" transform="translate(244.49 -231.67)"/><path class="b" d="M-127.76,252.7c.12-1.22.21-2.07.27-2.92,0-.61.36-1.06.93-1a1.36,1.36,0,0,1,1,.74,9.8,9.8,0,0,1-.09,5.65c-.09.29-.51.69-.75.67a1.14,1.14,0,0,1-.87-.64A22.94,22.94,0,0,1-127.76,252.7Z" transform="translate(244.49 -231.67)"/><path class="b" d="M-203,296.53c.07-1.51.09-3,.22-4.53a4.37,4.37,0,0,1,.6-1.35c.13-.25.33-.47.45-.72.53-1.09.81-1.22,1.83-.58a6.77,6.77,0,0,1,2.83,3.85c.31,1,.76,2,1,3a5.31,5.31,0,0,1-.68,4.28c-.36.5-.76,1-1.14,1.49a2.51,2.51,0,0,1-4.22-.38A11.25,11.25,0,0,1-203,296.53Z" transform="translate(244.49 -231.67)"/><path class="b" d="M-115.2,299.77c-1-.2-1.93-.12-1.81-1.38-.81-.51-.61-1.4-.8-2.14-.11-.42,0-.6.52-.75a7.81,7.81,0,0,0,2-1,1.07,1.07,0,0,1,1.63.25c.36.47.66,1,1,1.5.1.17.16.36.25.54.17.35.59.82.49,1a3.67,3.67,0,0,1-1.25,1.42A7.62,7.62,0,0,1-115.2,299.77Z" transform="translate(244.49 -231.67)"/><path class="b" d="M-113.37,287.39a16.86,16.86,0,0,1-1.48,2.14,12.94,12.94,0,0,1-2.15,1.82c-.76.55-1.15.32-1.21-.6a3.94,3.94,0,0,0,0-.77c-.31-1.37.56-2.1,1.54-2.69A3,3,0,0,1-113.37,287.39Z" transform="translate(244.49 -231.67)"/><path class="b" d="M-127.75,292.42a4.05,4.05,0,0,1-.76.33c-1.45.29-2.9.57-4.35.82a1.93,1.93,0,0,1-.75-.19,4.76,4.76,0,0,1,.34-.84c.19-.3.47-.54.67-.84.56-.85,1.06-1.74,1.67-2.56.43-.57,1-.54,1.38.11s.68,1.24,1,1.86C-128.31,291.5-128.08,291.87-127.75,292.42Z" transform="translate(244.49 -231.67)"/><path class="b" d="M-189.43,252.55c-1.19.75-1.77.8-2,.16-.21-.48-.26-1,.34-1.23S-189.79,251.61-189.43,252.55Z" transform="translate(244.49 -231.67)"/><path class="c" d="M-134.71,329.67c-1.31.23-1.92-1-2.84-1.52l.09-.19,2.93,1.33Z" transform="translate(244.49 -231.67)"/></svg>