<svg xmlns="http://www.w3.org/2000/svg" viewBox="0 0 228.15 115.95"><defs><style>.cls-1{fill:#fff200;}.cls-2{fill:#3a3c43;}.cls-3{fill:#3a3d44;}.cls-4{fill:#3b3d44;}</style></defs><g id="Layer_2" data-name="Layer 2"><g id="Layer_1-2" data-name="Layer 1"><path class="cls-1" d="M0,0H227.73c.34,0,.42.08.42.42q0,57.55,0,115.11c0,.35-.08.42-.42.42q-113.65,0-227.31,0c-.34,0-.42-.07-.42-.42Q0,57.76,0,0ZM31.53,52.84a.69.69,0,0,0-.38.16L19.76,59.58a.6.6,0,0,0-.36.6,32.91,32.91,0,0,0,.79,7.21A36.17,36.17,0,0,0,33,88a39.18,39.18,0,0,0,33.8,7.7A38.57,38.57,0,0,0,88.4,81.74a37.62,37.62,0,0,0,8.14-22.87,36,36,0,0,0-.87-8.71A40.1,40.1,0,0,0,81.9,27.87c-.22-.19-.3-.13-.42.09q-3.08,5.33-6.16,10.64a.34.34,0,0,0,.09.52,23.14,23.14,0,0,1,3.07,3.19A25.65,25.65,0,0,1,76,77.18,25.84,25.84,0,0,1,53,84.12c-8.66-1.52-15-6.4-19.07-14.2A25.76,25.76,0,0,1,31.23,55.3C31.31,54.48,31.43,53.67,31.53,52.84Zm153-5.28h13.65a11.56,11.56,0,0,0,2.27-.21A10.19,10.19,0,0,0,208.61,38c.09-2.06,0-4.12,0-6.18,0-.29-.12-.32-.35-.31-1.2,0-2.39,0-3.58,0-.33,0-.44.08-.43.43,0,1.75,0,3.51,0,5.26a5.89,5.89,0,0,1-6,6H170c-.36,0-.48-.08-.46-.45,0-.82,0-1.65,0-2.47a36.06,36.06,0,0,0-.1-4.16,10,10,0,1,0-10.31,11.43c1.85,0,3.7,0,5.54,0,.39,0,.5.08.44.48a8.31,8.31,0,0,1-7.88,7.11c-.27,0-.36.09-.36.37,0,1.22,0,2.45,0,3.67,0,.32.11.37.39.36a13.39,13.39,0,0,0,2.53-.34A12.63,12.63,0,0,0,169.47,48c0-.39.18-.42.5-.42Zm-43.25-10.5c0-1.93,0-3.54,0-5.14,0-.3-.08-.39-.38-.39-1.16,0-2.32,0-3.48,0-.4,0-.54.08-.54.52,0,2.88,0,5.76,0,8.65a10.83,10.83,0,0,1-.08,1.27,8.3,8.3,0,0,1-16.53-1.14c0-2.95,0-5.89,0-8.84,0-.35-.07-.47-.45-.46q-1.74,0-3.48,0c-.39,0-.46.13-.46.49q0,4.44,0,8.88a11.82,11.82,0,0,0,.31,2.72,12.67,12.67,0,0,0,19.12,8A12.28,12.28,0,0,0,141.2,42C141.38,40.27,141.22,38.5,141.28,37.06ZM44.87,34.13l.08.06.17-.08a21.85,21.85,0,0,1,9.49-2.51,25.79,25.79,0,0,1,8.16.85.32.32,0,0,0,.43-.17q3.12-5.43,6.26-10.84c.13-.22.13-.31-.15-.41a29.48,29.48,0,0,0-6.46-1.59,30.17,30.17,0,0,0-9.29.33.86.86,0,0,0-.67.46L45.77,32.57Zm130.26,33a8.36,8.36,0,0,0-4.08,1,9.14,9.14,0,0,0-4.38,10.2,8.58,8.58,0,0,0,13.64,5.09c3-2.34,3.95-5.54,3.29-9.22A8.6,8.6,0,0,0,175.13,67.11Zm-17,9a8.84,8.84,0,0,0-.28-2.35A8.59,8.59,0,0,0,144.12,69,8.92,8.92,0,0,0,141,78.3a8.6,8.6,0,0,0,10.62,6.59A8.85,8.85,0,0,0,158.14,76.14Zm-42.22,0q0,4.11,0,8.24c0,.34.06.47.44.46,1.15,0,2.29,0,3.43,0,.43,0,.53-.12.52-.53,0-3,0-6,0-8.92a3.82,3.82,0,0,1,2.63-3.77,3.11,3.11,0,0,1,4.21,2.09,5.56,5.56,0,0,1,.19,1.58c0,3,0,6,0,9,0,.46.13.55.56.54,1.12,0,2.23,0,3.34,0,.39,0,.48-.11.48-.48,0-3.11,0-6.23,0-9.34a11.75,11.75,0,0,0-.12-1.87,7.09,7.09,0,0,0-2.4-4.53,7.65,7.65,0,0,0-8.59-.35c-.28.18-.55.59-.81.49s-.23-.59-.31-.91-.2-.32-.45-.32c-.89,0-1.77,0-2.66,0-.37,0-.44.11-.44.46C115.92,70.68,115.92,73.39,115.92,76.11Zm77,0q0,4.1,0,8.19c0,.38.06.52.49.51,1.12,0,2.25,0,3.38,0,.43,0,.53-.11.52-.53,0-3,0-6,0-9a3.71,3.71,0,0,1,2.16-3.54c1.53-.72,4-.59,4.69,2a6.34,6.34,0,0,1,.18,1.62q0,4.51,0,9c0,.37.1.45.46.45,1.14,0,2.29,0,3.43,0,.38,0,.48-.1.47-.48,0-3.11,0-6.22,0-9.33a11.67,11.67,0,0,0-.12-1.87,6.71,6.71,0,0,0-2.81-4.83c-2.69-1.74-5.44-1.55-8.18,0-.29.15-.56.58-.81.48s-.23-.59-.31-.91-.19-.32-.45-.32c-.88,0-1.77,0-2.66,0-.37,0-.44.11-.44.46C192.88,70.68,192.88,73.39,192.88,76.11ZM128.6,26.75A2.4,2.4,0,0,0,131,24.34a2.42,2.42,0,1,0-4.83,0A2.38,2.38,0,0,0,128.6,26.75Zm67.75-2.43a2.38,2.38,0,0,0,2.38,2.43,2.41,2.41,0,0,0,2.46-2.41,2.46,2.46,0,0,0-2.42-2.43A2.41,2.41,0,0,0,196.35,24.32Z"/><path class="cls-2" d="M31.53,52.84c-.1.83-.22,1.64-.3,2.46a25.76,25.76,0,0,0,2.69,14.62C38,77.72,44.33,82.6,53,84.12A25.84,25.84,0,0,0,76,77.18a25.65,25.65,0,0,0,2.44-34.87,23.14,23.14,0,0,0-3.07-3.19.34.34,0,0,1-.09-.52Q78.41,33.29,81.48,28c.12-.22.2-.28.42-.09A40.1,40.1,0,0,1,95.67,50.16a36,36,0,0,1,.87,8.71A37.62,37.62,0,0,1,88.4,81.74,38.57,38.57,0,0,1,66.75,95.66,39.18,39.18,0,0,1,33,88,36.17,36.17,0,0,1,20.19,67.39a32.91,32.91,0,0,1-.79-7.21.6.6,0,0,1,.36-.6L31.15,53A.69.69,0,0,1,31.53,52.84Z"/><path class="cls-3" d="M184.53,47.56H170c-.32,0-.46,0-.5.42a12.63,12.63,0,0,1-9.7,11.23,13.39,13.39,0,0,1-2.53.34c-.28,0-.39,0-.39-.36,0-1.22,0-2.45,0-3.67,0-.28.09-.36.36-.37A8.31,8.31,0,0,0,165.09,48c.06-.4-.05-.48-.44-.48-1.84,0-3.69,0-5.54,0A10,10,0,1,1,169.42,36.1a36.06,36.06,0,0,1,.1,4.16c0,.82,0,1.65,0,2.47,0,.37.1.45.46.45h28.35a5.89,5.89,0,0,0,6-6c0-1.75,0-3.51,0-5.26,0-.35.1-.43.43-.43,1.19,0,2.38,0,3.58,0,.23,0,.35,0,.35.31,0,2.06,0,4.12,0,6.18a10.19,10.19,0,0,1-8.16,9.34,11.56,11.56,0,0,1-2.27.21Zm-22.85-4.39c1.17,0,2.13,0,3.09,0,.31,0,.42-.07.41-.4,0-1.74,0-3.48,0-5.22a5.62,5.62,0,1,0-6.75,5.5A21.72,21.72,0,0,0,161.68,43.17Z"/><path class="cls-4" d="M141.28,37.06c-.06,1.44.1,3.21-.08,5a12.28,12.28,0,0,1-5.86,9.54,12.67,12.67,0,0,1-19.12-8,11.82,11.82,0,0,1-.31-2.72q0-4.44,0-8.88c0-.36.07-.5.46-.49q1.74,0,3.48,0c.38,0,.45.11.45.46,0,2.95,0,5.89,0,8.84A8.3,8.3,0,0,0,136.82,42a10.83,10.83,0,0,0,.08-1.27c0-2.89,0-5.77,0-8.65,0-.44.14-.53.54-.52,1.16,0,2.32,0,3.48,0,.3,0,.38.09.38.39C141.27,33.52,141.28,35.13,141.28,37.06Z"/><path class="cls-2" d="M44.87,34.13l.9-1.56,7.12-12.34a.86.86,0,0,1,.67-.46,30.17,30.17,0,0,1,9.29-.33A29.48,29.48,0,0,1,69.31,21c.28.1.28.19.15.41q-3.13,5.41-6.26,10.84a.32.32,0,0,1-.43.17,25.79,25.79,0,0,0-8.16-.85,21.85,21.85,0,0,0-9.49,2.51l-.17.08Z"/><path class="cls-3" d="M175.13,67.11a8.6,8.6,0,0,1,8.47,7.07c.66,3.68-.29,6.88-3.29,9.22a8.58,8.58,0,0,1-13.64-5.09,9.14,9.14,0,0,1,4.38-10.2A8.36,8.36,0,0,1,175.13,67.11Zm-.13,4.3a3.87,3.87,0,0,0-3.42,2,5.23,5.23,0,0,0-.05,5.32,3.87,3.87,0,0,0,3.68,2.11,4,4,0,0,0,3.61-2.32,5.57,5.57,0,0,0,.49-3.2A4.27,4.27,0,0,0,175,71.41Z"/><path class="cls-3" d="M158.14,76.14a8.85,8.85,0,0,1-6.49,8.75A8.6,8.6,0,0,1,141,78.3,8.92,8.92,0,0,1,144.12,69a8.59,8.59,0,0,1,13.74,4.81A8.84,8.84,0,0,1,158.14,76.14Zm-12.93,0a4.9,4.9,0,0,0,.31,1.83,4,4,0,0,0,3.08,2.77,3.9,3.9,0,0,0,4-1.39,5.12,5.12,0,0,0,.95-4.57,4.18,4.18,0,0,0-5.72-3.08A4.6,4.6,0,0,0,145.21,76.17Z"/><path class="cls-3" d="M115.92,76.11c0-2.72,0-5.43,0-8.15,0-.35.07-.47.44-.46.89,0,1.77,0,2.66,0,.25,0,.39.06.45.32s.06.81.31.91.53-.31.81-.49a7.65,7.65,0,0,1,8.59.35,7.09,7.09,0,0,1,2.4,4.53,11.75,11.75,0,0,1,.12,1.87c0,3.11,0,6.23,0,9.34,0,.37-.09.49-.48.48-1.11,0-2.22,0-3.34,0-.43,0-.56-.08-.56-.54,0-3,0-6,0-9a5.56,5.56,0,0,0-.19-1.58,3.11,3.11,0,0,0-4.21-2.09,3.82,3.82,0,0,0-2.63,3.77c0,3,0,6,0,8.92,0,.41-.09.54-.52.53-1.14,0-2.28,0-3.43,0-.38,0-.44-.12-.44-.46Q115.93,80.22,115.92,76.11Z"/><path class="cls-3" d="M192.88,76.11c0-2.72,0-5.43,0-8.15,0-.35.07-.47.44-.46.89,0,1.78,0,2.66,0,.26,0,.38.07.45.32s.06.81.31.91.52-.33.81-.48c2.74-1.5,5.49-1.69,8.18,0a6.71,6.71,0,0,1,2.81,4.83,11.67,11.67,0,0,1,.12,1.87c0,3.11,0,6.22,0,9.33,0,.38-.09.49-.47.48-1.14,0-2.29,0-3.43,0-.36,0-.46-.08-.46-.45q0-4.5,0-9a6.34,6.34,0,0,0-.18-1.62c-.69-2.54-3.16-2.67-4.69-2a3.71,3.71,0,0,0-2.16,3.54c0,3,0,6,0,9,0,.42-.09.54-.52.53-1.13,0-2.26,0-3.38,0-.43,0-.5-.13-.49-.51Q192.89,80.2,192.88,76.11Z"/><path class="cls-4" d="M128.6,26.75a2.38,2.38,0,0,1-2.42-2.39,2.42,2.42,0,1,1,4.83,0A2.4,2.4,0,0,1,128.6,26.75Z"/><path class="cls-4" d="M196.35,24.32a2.41,2.41,0,0,1,2.42-2.41,2.46,2.46,0,0,1,2.42,2.43,2.41,2.41,0,0,1-2.46,2.41A2.38,2.38,0,0,1,196.35,24.32Z"/><path class="cls-1" d="M161.68,43.17a21.72,21.72,0,0,1-3.26-.11,5.61,5.61,0,1,1,6.75-5.5c0,1.74,0,3.48,0,5.22,0,.33-.1.4-.41.4C163.81,43.16,162.85,43.17,161.68,43.17Z"/><path class="cls-1" d="M175,71.41a4.27,4.27,0,0,1,4.31,3.93,5.57,5.57,0,0,1-.49,3.2,4,4,0,0,1-3.61,2.32,3.87,3.87,0,0,1-3.68-2.11,5.23,5.23,0,0,1,.05-5.32A3.87,3.87,0,0,1,175,71.41Z"/><path class="cls-1" d="M145.21,76.17a4.6,4.6,0,0,1,2.63-4.44,4.18,4.18,0,0,1,5.72,3.08,5.12,5.12,0,0,1-.95,4.57,3.9,3.9,0,0,1-4,1.39A4,4,0,0,1,145.52,78,4.9,4.9,0,0,1,145.21,76.17Z"/></g></g></svg>