<svg xmlns="http://www.w3.org/2000/svg" viewBox="0 0 220.86 90.42"><defs><style>.cls-1{fill:#fff;}</style></defs><g id="Layer_2" data-name="Layer 2"><g id="Layer_1-2" data-name="Layer 1"><g id="Group_221" data-name="Group 221"><path id="Path_546" data-name="Path 546" class="cls-1" d="M13.91,39.32c-.12,2-.37,3.92-.32,5.83.29,12.69,6.07,22.1,17.33,27.89a31,31,0,0,0,35.52-5.73,29.55,29.55,0,0,0,9.19-22,29.38,29.38,0,0,0-9.49-21.57l-1-.94L72.72,9.78c1.83,1.82,3.64,3.47,5.28,5.27A44.63,44.63,0,0,1,89,36.48,42.77,42.77,0,0,1,86.72,62C81.45,74.7,72.22,83.47,59.19,87.88s-25.64,3.06-37.57-3.79A42.56,42.56,0,0,1,3.43,63.83,40.84,40.84,0,0,1,0,48.09,1,1,0,0,1,.54,47q6.5-3.72,13-7.48C13.62,39.46,13.74,39.41,13.91,39.32Z"/><path id="Path_547" data-name="Path 547" class="cls-1" d="M215.8,14.32c1.6,0,3.06,0,4.52,0a.69.69,0,0,1,.5.46,60.2,60.2,0,0,1-.3,8.49,11.58,11.58,0,0,1-11.64,9.65q-16.35,0-32.7,0c-.84,0-1.09.22-1.19,1.08a14.62,14.62,0,0,1-10.12,12.23,11.29,11.29,0,0,1-4.35.62V42a10,10,0,0,0,8.17-4.68,9.07,9.07,0,0,0,1.4-4.4H169c-2.31,0-4.65.08-6.94-.13a11.56,11.56,0,0,1,1.8-23,11.62,11.62,0,0,1,11.32,11.6c0,1.85,0,3.7,0,5.55,0,.81.17,1.08,1,1.07,6.63,0,13.25,0,19.87,0h12.75a6.88,6.88,0,0,0,7-6.73V14.32ZM166.34,27.87V28c1,0,2,0,3.07,0,.57,0,.77-.16.77-.75,0-2.06,0-4.13,0-6.2a6.61,6.61,0,1,0-7.76,6.81,27.56,27.56,0,0,0,4,0Z"/><path id="Path_548" data-name="Path 548" class="cls-1" d="M137.16,14.4c1.61,0,3.12,0,4.63,0,.14,0,.38.53.39.8,0,3.2,0,6.4,0,9.6a18.46,18.46,0,0,1-.26,2.88,14.73,14.73,0,0,1-29.09-.4,16.46,16.46,0,0,1-.16-2.22c0-3.26,0-6.51,0-9.76,0-.7.14-1,.91-1a30.46,30.46,0,0,0,3.31,0c.7,0,.82.25.82.87,0,3.5-.08,7,0,10.5A9.71,9.71,0,0,0,137,27.12a11.84,11.84,0,0,0,.2-2.14c0-3.17,0-6.34,0-9.51Z"/><path id="Path_549" data-name="Path 549" class="cls-1" d="M58.44,2.28C57,4.86,55.51,7.38,54,9.91c-.92,1.6-1.87,3.18-2.76,4.8a.86.86,0,0,1-1.1.53l-.07,0a28.82,28.82,0,0,0-13.6-.28c-2.24.5-4.4,1.36-6.54,2l1.94-3.35q3.56-6.15,7.14-12.3A1.54,1.54,0,0,1,40,.64,33.32,33.32,0,0,1,58.12,2.1Z"/><path id="Path_550" data-name="Path 550" class="cls-1" d="M191.78,66.1a10.37,10.37,0,0,1-6.58,10.1,9.92,9.92,0,0,1-12.13-4.42,10.83,10.83,0,0,1,2-13.39,9.47,9.47,0,0,1,10.34-1.77c3.76,1.53,5.73,4.5,6.27,8.47C191.77,65.5,191.77,65.91,191.78,66.1Zm-4.9.19a18.56,18.56,0,0,0-.69-2.53,4.84,4.84,0,0,0-8.59-.69,6.13,6.13,0,0,0-.3,6,4.83,4.83,0,0,0,6.39,2.43,4.93,4.93,0,0,0,.46-.23c1.87-1.12,2.54-2.89,2.73-5Z"/><path id="Path_551" data-name="Path 551" class="cls-1" d="M161.89,66.3a10.37,10.37,0,0,1-7.41,10.15,10,10,0,0,1-12.25-6.69,10.48,10.48,0,0,1,6.4-13.36c.37-.12.74-.23,1.12-.32a10,10,0,0,1,11.82,7.81v0C161.73,64.72,161.79,65.52,161.89,66.3Zm-9.82,5.62a4.59,4.59,0,0,0,3.21-1.48,6.34,6.34,0,0,0,.7-7.25,4.83,4.83,0,0,0-6.6-1.79h0a5.6,5.6,0,0,0,2.7,10.52Z"/><path id="Path_552" data-name="Path 552" class="cls-1" d="M126,76.39V65.58a9.74,9.74,0,0,0-.08-1.32c-.33-2.12-1.4-3.25-3.28-3.48a4.37,4.37,0,0,0-4.54,2.63,6.89,6.89,0,0,0-.41,2.25c0,3.22,0,6.45,0,9.67,0,.8-.17,1.14-1.06,1.07a25.31,25.31,0,0,0-3.14,0c-.59,0-.84-.12-.84-.77q0-9.22,0-18.44c0-.68.25-.86.87-.83a14,14,0,0,0,2.15,0c.72-.07,1.09.19,1.19.89a2.55,2.55,0,0,0,.18.53c.94-.47,1.81-1,2.75-1.36A8.18,8.18,0,0,1,129,58.56,8.93,8.93,0,0,1,131,64.24c0,3.78,0,7.55,0,11.33,0,.66-.21.85-.86.83C128.8,76.36,127.48,76.39,126,76.39Z"/><path id="Path_553" data-name="Path 553" class="cls-1" d="M215.8,76.38V71.61c0-2.12,0-4.24,0-6.37,0-2.76-1.31-4.39-3.57-4.48a4.43,4.43,0,0,0-4.7,4.16v.17c-.11,3.31-.05,6.62-.06,9.93v1.34c-1.58,0-3.09,0-4.59,0-.12,0-.29-.29-.33-.46a3.06,3.06,0,0,1,0-.74V56.4c1.24,0,2.41,0,3.58,0,.16,0,.36.28.46.48a6.46,6.46,0,0,1,.31.94c.71-.4,1.33-.81,2-1.13a8.32,8.32,0,0,1,10.08,2,10.12,10.12,0,0,1,1.88,6.39c0,3.5,0,7,0,10.5,0,.63-.19.82-.8.8C218.67,76.36,217.3,76.38,215.8,76.38Z"/><path id="Path_554" data-name="Path 554" class="cls-1" d="M212.08,5.87a2.77,2.77,0,0,1-2.74,2.8h0a2.75,2.75,0,1,1,2.76-2.84Z"/><path id="Path_555" data-name="Path 555" class="cls-1" d="M127.43,3.17a2.7,2.7,0,0,1,2.73,2.67V6a2.7,2.7,0,0,1-2.72,2.68h0a2.73,2.73,0,0,1-2.73-2.72h0a2.73,2.73,0,0,1,2.69-2.76Z"/></g></g></g></svg>