<svg xmlns="http://www.w3.org/2000/svg" viewBox="0 0 220.46 91.4"><defs><style>.cls-1{fill:none;}.cls-2{fill:#fff;}</style></defs><g id="Layer_2" data-name="Layer 2"><g id="Layer_1-2" data-name="Layer 1"><g id="Group_213" data-name="Group 213"><path id="Path_448" data-name="Path 448" class="cls-1" d="M33.58,72h8.3l-4.13-10.9Z"/><path id="Path_449" data-name="Path 449" class="cls-1" d="M15.41,26a5.39,5.39,0,0,0-4.09-1.3,5.59,5.59,0,0,0-3.82,1.8,4.82,4.82,0,0,0-1.38,3.79A5,5,0,0,0,8,33.81a5.54,5.54,0,0,0,4.1,1.26,5.66,5.66,0,0,0,3.78-1.76,4.9,4.9,0,0,0,1.42-3.82A5,5,0,0,0,15.41,26Z"/><path id="Path_450" data-name="Path 450" class="cls-1" d="M105.7,58.32a9.85,9.85,0,0,0-7.27,2.9,10.09,10.09,0,0,0-2.94,7.42,9.51,9.51,0,0,0,3.71,8,10.16,10.16,0,0,0,6.58,2.3A9.7,9.7,0,0,0,112.93,76a10.38,10.38,0,0,0,3-7.35A10.18,10.18,0,0,0,105.7,58.32Z"/><path id="Path_451" data-name="Path 451" class="cls-2" d="M16.26,69c-.46-.46-1.84-1.65-4.1-3.48a42.78,42.78,0,0,1-4.32-3.87,2.37,2.37,0,0,1-.53-1.45A1.81,1.81,0,0,1,8,58.85,3,3,0,0,1,10,58.24c1.6,0,3.17,1,4.7,3.14L19,57.63a15.79,15.79,0,0,0-4.55-3.82,9.84,9.84,0,0,0-4.43-1A8.73,8.73,0,0,0,3.94,55a7.09,7.09,0,0,0-2.49,5.39,7.66,7.66,0,0,0,1.49,4.36c1,1.46,3.18,3.52,6.58,6.24A23.77,23.77,0,0,1,13,74.15a3.27,3.27,0,0,1,.77,2.07,2.56,2.56,0,0,1-1,2,3.85,3.85,0,0,1-2.57.87c-2,0-3.67-1.33-5.16-4L0,78a12.82,12.82,0,0,0,4.21,5A10.2,10.2,0,0,0,10,84.51a9.75,9.75,0,0,0,6.88-2.41A8,8,0,0,0,19.5,76a8.2,8.2,0,0,0-.76-3.52A10.57,10.57,0,0,0,16.26,69Z"/><path id="Path_452" data-name="Path 452" class="cls-2" d="M105.7,52.73a16.26,16.26,0,0,0-8.11,2.14,15.53,15.53,0,0,0-5.93,5.78,15.87,15.87,0,0,0,2.49,19.16,16.53,16.53,0,0,0,23,.11,15.08,15.08,0,0,0,4.67-11.2,15.3,15.3,0,0,0-4.74-11.36A15.7,15.7,0,0,0,105.7,52.73Zm7.23,23.21a9.74,9.74,0,0,1-7.15,3,10.16,10.16,0,0,1-6.58-2.3,9.51,9.51,0,0,1-3.71-8,10.1,10.1,0,0,1,2.94-7.42A10.45,10.45,0,0,1,113,61.3a10,10,0,0,1,3,7.3,10.36,10.36,0,0,1-3,7.34Z"/><path id="Path_453" data-name="Path 453" class="cls-2" d="M34.69,52.73l-12,31.74h6.16l2.52-6.54H44.1l2.45,6.54H52.7l-12-31.74ZM33.58,72l4.17-10.9L41.88,72Z"/><path id="Path_454" data-name="Path 454" class="cls-2" d="M72.16,58.32a13.05,13.05,0,0,1,9.52,4.32l4.13-3.87a18.06,18.06,0,0,0-13.57-6.08,17.46,17.46,0,0,0-8.45,2.15,14.91,14.91,0,0,0-8.14,13.69A15.22,15.22,0,0,0,60.27,80a16.39,16.39,0,0,0,11.86,4.47,18,18,0,0,0,7-1.26,21.67,21.67,0,0,0,6.5-4.55l-4-4a16.48,16.48,0,0,1-4.7,3.4,11.85,11.85,0,0,1-4.7.91,11.51,11.51,0,0,1-5.51-1.34,9.5,9.5,0,0,1-3.82-3.67,10.33,10.33,0,0,1-1.34-5.35,9.81,9.81,0,0,1,3.06-7.3A10.68,10.68,0,0,1,72.16,58.32Z"/><path id="Path_455" data-name="Path 455" class="cls-2" d="M100.54,36H120.2V16.63h-6V30h-7.53V16.63h-6.08V30H92.66V16.63h-6V30H77.94V6.92H71.86V36Z"/><path id="Path_456" data-name="Path 456" class="cls-2" d="M59.09,16.86H46.62l5.81-9.6H46.12L38.82,18.2v4.05H57c5.77,0,5.28,8.38,0,8.38H23.1a6.68,6.68,0,0,0,.12-2.18,10,10,0,0,0-3.94-7.3,10.64,10.64,0,0,0-3.9-2.1,11.92,11.92,0,0,0-4.4-.46,11.42,11.42,0,0,0-7,2.83,10.42,10.42,0,0,0-3.6,6,6.49,6.49,0,0,0-.11.77c0,.21-.06.43-.08.65v1.37A10.5,10.5,0,0,0,1,33.35,14.26,14.26,0,0,0,2.41,36a11.42,11.42,0,0,0,2,2,11.84,11.84,0,0,0,6.12,2.18h.15l-1.53,3-.8,1.57a2.11,2.11,0,0,0-.31.57L7.85,46l-.16.45V47l.08.88c0,.76.61,1.41,1.68,1.91a4,4,0,0,0,2,.5l.57-.11a7.59,7.59,0,0,0,1.8-1l.27-.23.38-.54.35-.53,1-2L17,43.75,20.85,36H60C68.76,34.68,68.61,16.86,59.09,16.86ZM15.87,33.3a5.62,5.62,0,0,1-3.78,1.76A5.48,5.48,0,0,1,8,33.8a5,5,0,0,1-1.87-3.56,4.76,4.76,0,0,1,1.38-3.78,5.53,5.53,0,0,1,3.82-1.8A5.41,5.41,0,0,1,15.42,26a4.91,4.91,0,0,1,.45,7.35Z"/><path id="Path_457" data-name="Path 457" class="cls-2" d="M174.76,0a45.7,45.7,0,1,0,45.7,45.7A45.7,45.7,0,0,0,174.76,0Zm0,82.37A36.68,36.68,0,1,1,211.43,45.7,36.68,36.68,0,0,1,174.76,82.37Z"/><path id="Path_458" data-name="Path 458" class="cls-2" d="M178.51,24.32l-4.13-3.86-4.13,3.86L156.45,37.4l-1.91,1.8V66.12h39.69V39.2l-1.91-1.8Zm9.67,35.76H160.57V41.76l13.8-13,13.8,13Z"/></g></g></g></svg>