<svg xmlns="http://www.w3.org/2000/svg" viewBox="0 0 210.64 90.3"><defs><style>.cls-1{fill:#fff;}</style></defs><g id="Layer_2" data-name="Layer 2"><g id="Layer_1-2" data-name="Layer 1"><g id="Group_220" data-name="Group 220"><g id="Group_218" data-name="Group 218"><g id="Group_216" data-name="Group 216"><path id="Path_517" data-name="Path 517" class="cls-1" d="M203.38,53.58a7.54,7.54,0,0,1,1.5-.13,2.5,2.5,0,0,1,1.75.49,1.48,1.48,0,0,1,.47,1.15A1.58,1.58,0,0,1,206,56.63v0a1.48,1.48,0,0,1,.89,1.22,9.52,9.52,0,0,0,.47,1.66h-.81a8.1,8.1,0,0,1-.4-1.44c-.18-.84-.5-1.15-1.21-1.18h-.73v2.62h-.78Zm.78,2.75h.8c.83,0,1.36-.46,1.36-1.15s-.56-1.12-1.39-1.13a3.35,3.35,0,0,0-.77.07Z"/></g><g id="Group_217" data-name="Group 217"><path id="Path_518" data-name="Path 518" class="cls-1" d="M205.12,51.39a5.52,5.52,0,0,0-5.52,5.52h0a5.52,5.52,0,0,0,5.51,5.52h0a5.52,5.52,0,0,0,5.52-5.52h0a5.52,5.52,0,0,0-5.52-5.52Zm0,10.11a4.59,4.59,0,0,1-4.6-4.6h0a4.6,4.6,0,0,1,4.6-4.6h0a4.6,4.6,0,0,1,4.6,4.6h0a4.59,4.59,0,0,1-4.6,4.6Z"/></g></g><g id="Group_219" data-name="Group 219"><path id="Path_519" data-name="Path 519" class="cls-1" d="M82.87,56.9A22.21,22.21,0,0,0,85.5,30.77C81.28,23.6,75,19.6,66.48,20a12.39,12.39,0,0,0-9.26,4.6,23.84,23.84,0,0,0-2.76,4.46c0-2.43,0-4.54,0-6.65,0-.77-.17-1.14-1-1.13-4.6,0-9.19,0-13.78,0-.49,0-1,0-1,.7s.5.7,1,.7c1.74,0,3.48.05,5.22,0,1,0,1.23.31,1.17,1.21s0,2,0,3q0,30.41,0,60.8c0,.82-.13,1.16-1.07,1.11-1.79-.09-3.59,0-5.39,0-.45,0-1-.08-.94.71s.32.8.9.8H61.1c.52,0,.94,0,1-.74s-.51-.77-1-.77c-1.72,0-3.45,0-5.17,0-1,0-1.38-.3-1.37-1.39,0-9.44,0-18.89,0-28.34V55.45a19.37,19.37,0,0,0,3.25,5.08C61.45,64.28,66,65.15,71,64.12A21.31,21.31,0,0,0,82.87,56.9ZM71,60.55c-4.18.86-8,.13-11.06-3a16.73,16.73,0,0,1-2.73-4.26c0,.94,0-20.35,0-22.11h0a19.42,19.42,0,0,1,2.31-3.74,10.37,10.37,0,0,1,7.76-3.86c7.18-.35,12.42,3,15.95,9A18.61,18.61,0,0,1,81,54.49a17.88,17.88,0,0,1-10,6.06Z"/><path id="Path_520" data-name="Path 520" class="cls-1" d="M57.22,31.17Z"/><path id="Path_521" data-name="Path 521" class="cls-1" d="M97.22,63.07h22.33c.51,0,1,0,.94-.74s-.45-.73-1-.72c-2.07,0-4.15-.06-6.22,0-1,0-1.3-.29-1.3-1.3q.06-10.4,0-20.79a24.08,24.08,0,0,1,.92-7,17.76,17.76,0,0,1,4.52-8c1.63-1.57,3.48-2.68,5.89-2.1a2.5,2.5,0,0,1,2.05,2.44,8.28,8.28,0,0,1-.69,3.89c-1.28,3.17-.21,4.8,3.21,5a5.15,5.15,0,0,0,1.11,0c1.53-.25,3-.63,3.76-2.2A8,8,0,0,0,128.67,21c-5-2-10.83-.08-14.23,4.76a29.91,29.91,0,0,0-2.63,5.13c0-2.84,0-5.68,0-8.51,0-.77-.23-1-1-1-4.59,0-9.18,0-13.78,0-.5,0-1,0-1,.71s.47.63.93.63c1.88,0,3.77,0,5.66,0,.73,0,1,.25,1,1q0,18.51,0,37c0,.82-.32,1-1.06,1-1.77,0-3.55,0-5.33,0-.46,0-1.11-.24-1.15.63S96.68,63.07,97.22,63.07Z"/><path id="Path_522" data-name="Path 522" class="cls-1" d="M27.07,42.3A25.24,25.24,0,0,0,20.59,39c-4-1.4-8.11-2.33-11.87-4.3a6.11,6.11,0,0,1-3.2-8c1-2.93,3.3-4.32,6.2-4.9,5.82-1.17,9.58.65,12.16,6,.65,1.33,1.13,2.73,1.65,4.12.17.45.4.68.88.61s.46-.5.46-.85q0-4.72,0-9.44c0-.33.08-.71-.33-.86a.91.91,0,0,0-1,.25,2,2,0,0,1-1.64.5,6.2,6.2,0,0,1-2.23-.63,16.88,16.88,0,0,0-11.71-.65A12.83,12.83,0,0,0,.89,34c.31,4.52,2.34,7.79,6.54,9.59,3.74,1.61,7.7,2.64,11.47,4.17,2.42,1,4.79,2.14,5.28,5.15a13.5,13.5,0,0,1,.11,2.77c-.14,3.86-2,6.17-5.81,7.07-5,1.17-10.8-1.25-14-5.77a25.34,25.34,0,0,1-3.14-6.83c-.15-.45-.29-.84-.89-.76S0,50,0,50.33c0,2,0,3.93,0,5.89s0,3.93,0,5.89c0,.31-.16.72.27.88a.85.85,0,0,0,1.08-.31,2.49,2.49,0,0,1,2.56-.94,11.2,11.2,0,0,1,2.68.67c3.83,1.28,7.67,2.48,11.82,1.85,5.93-.9,11.35-4.66,12.54-11.17C31.77,48.75,30.81,45,27.07,42.3Z"/><path id="Path_523" data-name="Path 523" class="cls-1" d="M187.85,62.43c0-.67-.3-.82-.88-.8-1.7,0-3.41,0-5.11,0-1.44,0-1.44,0-1.44-1.49V41.47c0-6.34,0-12.67,0-19,0-.86-.23-1.14-1.12-1.13-4.63,0-9.26,0-13.89,0-.44,0-.9-.09-.92.62s.42.73.94.73c1.77,0,3.55,0,5.33,0,.85,0,1.17.28,1.17,1.15q0,18.41,0,36.79c0,.78-.28,1-1,1-1.82,0-3.63,0-5.45,0-.5,0-1,0-1,.72s.37.76.92.76H187C187.44,63.1,187.84,63.09,187.85,62.43Z"/><path id="Path_524" data-name="Path 524" class="cls-1" d="M142.2,61.64c-1.86,0-3.7,0-5.56,0-.51,0-.95,0-1,.72s.36.77.91.77h21.67c.48,0,.87,0,.88-.68s-.31-.81-.89-.81c-1.7,0-3.41,0-5.11,0-1.53,0-1.53,0-1.53-1.48V41.48q0-9.49,0-19c0-.72-.05-1.16-1-1.15-4.67.05-9.33,0-14,0-.52,0-1,0-.94.72s.47.63.93.63c1.81,0,3.63,0,5.44,0,.88,0,1.15.29,1.15,1.15q0,18.41,0,36.79C143.22,61.38,143,61.66,142.2,61.64Z"/><path id="Path_525" data-name="Path 525" class="cls-1" d="M147.24,10.36a5.16,5.16,0,0,0,5.26-5V5.21a5.08,5.08,0,0,0-5-5.21h-.1a5.16,5.16,0,0,0-5.3,5v.21A5.27,5.27,0,0,0,147.24,10.36Z"/><path id="Path_526" data-name="Path 526" class="cls-1" d="M176.1,10.36a5.27,5.27,0,0,0,5.2-5.26A5.19,5.19,0,0,0,176.08,0a5.07,5.07,0,0,0-5.14,5,2.09,2.09,0,0,0,0,.25,5.13,5.13,0,0,0,5.14,5.13Z"/><path id="Path_527" data-name="Path 527" class="cls-1" d="M136.49,88.91H115c-.5,0-1,0-1,.71s.55.64,1,.64h21.4c.5,0,1,0,.95-.71S137,88.91,136.49,88.91Z"/><path id="Path_528" data-name="Path 528" class="cls-1" d="M183.4,73.81a2.55,2.55,0,0,0-3,.46c-.41.4-.58.29-.94-.07a2.45,2.45,0,0,0-2.89-.36c-.44.18-.74.7-1.3,0-.26-.29-.52.19-.53.56v2.78h0c0,.77,0,1.55,0,2.33,0,.39-.26,1.07.39,1.08s.41-.73.43-1.13c.05-1.11,0-2.22,0-3.33a2,2,0,0,1,2-1.9h0c1,0,1.51.64,1.53,1.89s0,2.44,0,3.66c0,.34-.13.85.44.83s.39-.54.39-.87c0-1.18,0-2.37,0-3.55a2,2,0,0,1,2-2c1.08,0,1.55.57,1.57,2,0,1.22,0,2.44,0,3.66,0,.31-.09.74.4.77s.42-.43.42-.73c0-1.22,0-2.44,0-3.66C184.54,75.26,184.42,74.27,183.4,73.81Z"/><path id="Path_529" data-name="Path 529" class="cls-1" d="M163.11,73.78a2.59,2.59,0,0,0-3,.54c-.3.3-.49.34-.78,0a2.45,2.45,0,0,0-2.75-.57c-.53.14-.9.89-1.62.16-.26-.27-.44.32-.44.64,0,.89,0,1.78,0,2.67s0,1.77,0,2.66c0,.34-.11.84.48.8s.36-.49.36-.79c0-1.26,0-2.52,0-3.77a2,2,0,0,1,2-1.82c1,0,1.54.62,1.56,1.86s0,2.44,0,3.66c0,.33-.15.84.41.86s.42-.51.43-.84c0-1.15,0-2.29,0-3.44a2,2,0,0,1,2-2.1H162c1.05.06,1.47.61,1.49,2,0,1.22,0,2.44,0,3.66,0,.33,0,.73.48.68s.34-.42.34-.7c0-1.18,0-2.36,0-3.55S164.25,74.25,163.11,73.78Z"/><path id="Path_530" data-name="Path 530" class="cls-1" d="M125.13,82.36a2.26,2.26,0,0,1-2.6-.13c-.23-.15-.47-.51-.75-.14s.15.59.38.77c1.61,1.21,4.14.45,4.5-1.43.45-2.34.15-4.72.19-7.08,0-.49-.44-.77-.68-.36-.39.64-.57.14-.81,0a2.54,2.54,0,0,0-3.54.66,2.69,2.69,0,0,0-.31.61,5.36,5.36,0,0,0,0,3.9,2.56,2.56,0,0,0,3.2,1.7,2.21,2.21,0,0,0,.5-.21c.2-.09.35-.28.65-.21A1.61,1.61,0,0,1,125.13,82.36Zm.33-2.67a1.92,1.92,0,0,1-2.71,0,1.78,1.78,0,0,1-.46-.72,5,5,0,0,1-.05-3.36,1.74,1.74,0,0,1,2-1.36A1.88,1.88,0,0,1,126,76.21c0,.37,0,.73,0,1.2-.06.72.22,1.59-.55,2.28Z"/><path id="Path_531" data-name="Path 531" class="cls-1" d="M107.79,75.49c-.07-1.3-.83-1.88-2.13-1.91a3.49,3.49,0,0,0-2.29,1c0-1.07,0-2,0-2.9,0-.3.1-.74-.42-.74s-.41.45-.41.74q0,4.11,0,8.2c0,.3-.07.75.43.75s.4-.45.4-.76c0-1.22,0-2.44,0-3.66a2.1,2.1,0,0,1,2-2c1.07,0,1.54.57,1.57,2s0,2.52,0,3.77c0,.3,0,.64.4.66s.42-.33.42-.62C107.82,78.53,107.87,77,107.79,75.49Z"/><path id="Path_532" data-name="Path 532" class="cls-1" d="M67.9,73.72A2.8,2.8,0,0,0,64.48,75a4.3,4.3,0,0,0,0,4.53,3,3,0,0,0,4.18.92l.18-.12c.23-.2.67-.42.41-.78s-.56,0-.81.2a2.34,2.34,0,0,1-3.26-.56,2.16,2.16,0,0,1-.25-.44c-.48-1.19-.34-1.4.94-1.4h3.21c.33,0,.54-.1.59-.49A3.3,3.3,0,0,0,67.9,73.72Zm.5,3H66.86a5,5,0,0,1-.77,0c-.42,0-1,.23-1.2-.22s.15-1,.47-1.4a1.8,1.8,0,0,1,2-.73,2.08,2.08,0,0,1,1.44,1.78c.08.36,0,.57-.43.57Z"/><path id="Path_533" data-name="Path 533" class="cls-1" d="M82.28,73.78a2.88,2.88,0,0,0-3.44,1,4.55,4.55,0,0,0-.08,4.83,3.07,3.07,0,0,0,4.26.81l0,0c.25-.21.76-.43.42-.85s-.57.11-.82.27a2.35,2.35,0,0,1-3.25-.63,1.35,1.35,0,0,1-.15-.26c-.61-1.22-.41-1.55.92-1.55h3.1c.31,0,.57,0,.65-.44A3.43,3.43,0,0,0,82.28,73.78Zm.75,2.6c-.14.66-.87.2-1.32.31a2.91,2.91,0,0,1-.66,0h-1c-1.11,0-1.23-.2-.74-1.19a1.92,1.92,0,0,1,2.47-1.11,2.55,2.55,0,0,1,.46.25A1.8,1.8,0,0,1,83,76.38Z"/><path id="Path_534" data-name="Path 534" class="cls-1" d="M189.92,76.89c-.46-.14-.92-.27-1.38-.42a1,1,0,0,1-.74-1,1.06,1.06,0,0,1,.73-1,1.92,1.92,0,0,1,2.55.85c.17.26.3.56.66.4s.17-.51.08-.77a1.83,1.83,0,0,0-1-1.09,3.12,3.12,0,0,0-3.07.19,1.66,1.66,0,0,0-.73,1.84c.25,1.15,1.26,1.35,2.18,1.61a4.65,4.65,0,0,1,1.44.54,1.08,1.08,0,0,1,.47,1.43,1,1,0,0,1-.58.51,2.1,2.1,0,0,1-2.86-.77c-.17-.26-.3-.58-.66-.4s-.2.58-.05.86a2.25,2.25,0,0,0,2,1.26c1.9,0,2.89-.63,3.06-1.76S191.49,77.36,189.92,76.89Z"/><path id="Path_535" data-name="Path 535" class="cls-1" d="M95.8,73.87c-.33-.14-.57,0-.69.36s-.23.55-.32.83c-.49,1.39-1,2.78-1.46,4.18-.31-.12-.34-.36-.41-.56l-1.5-4.06c-.16-.41-.26-1-.86-.74s0,.65,0,.94q.87,2.4,1.79,4.77c.63,1.62.2,2.68-1.4,3.33-.17.07-.36.1-.36.33s.23.34.46.34a1.58,1.58,0,0,0,1.66-.86c.37-.8.71-1.62,1-2.45q1.06-2.86,2.08-5.74C95.93,74.33,96.15,74,95.8,73.87Z"/><path id="Path_536" data-name="Path 536" class="cls-1" d="M140.84,73.59c-1.87,0-3.15,1.46-3.17,3.64s1.25,3.68,3.1,3.7,3.15-1.37,3.22-3.58S142.74,73.59,140.84,73.59ZM139.91,80a2.7,2.7,0,0,1-1.39-2.8c0-1.17.3-2.3,1.59-2.79,1.62-.62,3,.7,3,2.83S141.58,80.83,139.91,80Z"/><path id="Path_537" data-name="Path 537" class="cls-1" d="M114.47,79.55c0-1.1,0-2.22,0-3.32a2.09,2.09,0,0,1,2-2c1.07,0,1.53.58,1.56,2,0,1.22,0,2.43,0,3.65,0,.31-.09.75.4.76s.41-.43.42-.73c0-1.3,0-2.59,0-3.88a2.19,2.19,0,0,0-1-2.2,2.61,2.61,0,0,0-2.83.26c-.3.21-.58.7-.72-.11,0-.21-.3-.19-.48-.14s-.27.33-.27.55v2.77h0c0,.78,0,1.56,0,2.33,0,.4-.33,1.14.44,1.13S114.46,79.94,114.47,79.55Z"/><path id="Path_538" data-name="Path 538" class="cls-1" d="M171.9,73.87c-.73,0-.44.66-.45,1,0,1.06,0,2.14,0,3.21,0,1.38-.73,2.16-2,2.14-1.06,0-1.61-.69-1.63-2.07,0-1.22,0-2.43,0-3.66,0-.28,0-.64-.38-.67s-.46.3-.46.6c0,1.48-.07,3,0,4.44s1,2,2.39,2.07c.89.06,1.61-.83,2.57-.32.26.14.29-.35.29-.59,0-.92,0-1.84,0-2.77s0-1.62,0-2.44C172.26,74.49,172.51,73.89,171.9,73.87Z"/><path id="Path_539" data-name="Path 539" class="cls-1" d="M133,73.83a.3.3,0,0,0-.37.24.2.2,0,0,0,0,.07.3.3,0,0,0,.27.33.27.27,0,0,0,.09,0c.86-.09.83.48.82,1.06s0,1.33,0,2,0,1.56,0,2.33c0,.3-.15.77.34.8s.46-.46.46-.8c0-1.4,0-2.81,0-4.21,0-.69,0-1.28,1-1.17.24,0,.59,0,.59-.33s-.35-.34-.59-.32c-.68,0-1-.15-1-.94a1.4,1.4,0,0,1,1.27-1.52h.24c.23,0,.49,0,.47-.34s-.28-.28-.5-.32a1.92,1.92,0,0,0-2.26,1.52,1.87,1.87,0,0,0,0,.53C133.81,73.31,133.91,73.92,133,73.83Z"/><path id="Path_540" data-name="Path 540" class="cls-1" d="M76.5,73.88a.44.44,0,0,0-.6.13,4.79,4.79,0,0,0-.34.81L74,79.21a4.16,4.16,0,0,1-.84-1.68c-.4-1.08-.78-2.16-1.16-3.23-.13-.36-.38-.59-.76-.43s-.1.46,0,.66c.71,1.9,1.45,3.79,2.17,5.69.1.27.22.47.54.47s.37-.22.45-.42c.75-2,1.49-3.94,2.24-5.9C76.64,74.19,76.7,74,76.5,73.88Z"/><path id="Path_541" data-name="Path 541" class="cls-1" d="M100.06,80.27c-1.07,0-1.13-.73-1.14-1.52,0-1,0-2.07,0-3.11,0-.68,0-1.29,1-1.16.23,0,.48,0,.49-.33s-.25-.36-.48-.33c-.81.1-1-.31-1-1,0-.31.07-.74-.45-.7s-.38.39-.38.67c0,.59,0,1.16-.84,1.07a.33.33,0,0,0-.38.25v.05a.3.3,0,0,0,.25.35h.09c1-.09.87.63.87,1.25v1.55h0c0,.74,0,1.49,0,2.22A1.48,1.48,0,0,0,99.55,81a1.25,1.25,0,0,0,.47-.07c.19,0,.38-.1.39-.32S100.27,80.27,100.06,80.27Z"/><path id="Path_542" data-name="Path 542" class="cls-1" d="M88.22,73.61c-.67,0-1.17,1-2,.26-.2-.17-.33.37-.33.65v2.66h0c0,.82,0,1.63,0,2.44,0,.37-.28,1,.44,1s.37-.62.38-1c0-1.07,0-2.15,0-3.22a2,2,0,0,1,1.66-2.15c.27-.08.81.09.7-.44S88.52,73.6,88.22,73.61Z"/><path id="Path_543" data-name="Path 543" class="cls-1" d="M148.29,73.61a1.93,1.93,0,0,0-1.09.5c-.15.11-.22.28-.51,0-.61-.52-.78-.4-.81.42s0,1.78,0,2.66h0c0,.74-.05,1.48,0,2.22,0,.41-.32,1.15.39,1.18s.41-.73.43-1.13c.05-1,0-2,0-3a2,2,0,0,1,1.68-2.21h0c.27-.07.72,0,.67-.38S148.59,73.59,148.29,73.61Z"/><path id="Path_544" data-name="Path 544" class="cls-1" d="M110.88,73.86c-.45,0-.4.36-.4.64,0,.92,0,1.84,0,2.76s0,1.84,0,2.76c0,.28,0,.64.4.64s.42-.37.42-.64q0-2.76,0-5.52C111.3,74.23,111.31,73.86,110.88,73.86Z"/><path id="Path_545" data-name="Path 545" class="cls-1" d="M110.8,71.18a.48.48,0,0,0-.47.5.5.5,0,0,0,.44.55h.09c.35,0,.5-.22.5-.56a.46.46,0,0,0-.44-.5Z"/></g></g></g></g></svg>