<svg xmlns="http://www.w3.org/2000/svg" viewBox="0 0 225.61 97.17"><defs><style>.cls-1{fill:#80a3d6;}.cls-2{fill:#545f6f;}.cls-3{fill:#fff;}</style></defs><g id="Layer_2" data-name="Layer 2"><g id="Layer_1-2" data-name="Layer 1"><path class="cls-1" d="M41.6,97.17c.1-1.55.1-1.55,1.68-1.55,1.91,0,3.82,0,5.73,0,.53,0,.78-.14.71-.69a3.23,3.23,0,0,1,0-.44V25.57c0-1.12,0-1.12-1.15-1.12-2,0-4.11,0-6.16,0-.64,0-.78-.2-.8-.8s.24-.76.83-.76c5.08,0,10.16,0,15.24,0,.73,0,.88.24.87.9,0,2.58,0,5.16,0,7.79.43-.11.42-.44.53-.69,2.09-4.69,5.4-8,10.59-9a19.33,19.33,0,0,1,13.71,2.42,23.84,23.84,0,0,1,9.48,10,23.31,23.31,0,0,1,2.54,9.41,24,24,0,0,1-6.26,17.71,22.48,22.48,0,0,1-11.31,7.2c-4.67,1.24-9.23,1.11-13.4-1.75a13.67,13.67,0,0,1-5.08-6.67c-.08-.22-.16-.44-.25-.65,0,0-.09-.06-.16-.1a1.39,1.39,0,0,0-.08.83q0,17.11,0,34.24c0,.88.19,1.16,1.11,1.13,1.94-.08,3.88,0,5.81-.05.94,0,1.22.28,1.08,1.13a3.27,3.27,0,0,0,0,.44ZM85,45c0-3-.12-5.26-.32-7.53A26.77,26.77,0,0,0,83,29.63a9.69,9.69,0,0,0-5.34-5.75,14.76,14.76,0,0,0-6.48-.72,12.45,12.45,0,0,0-10.79,8.52A30.33,30.33,0,0,0,58.91,41,93.54,93.54,0,0,0,59,51.71a26.26,26.26,0,0,0,1.83,8.35c1.52,3.56,3.89,6.27,7.78,7.29a16.38,16.38,0,0,0,7.14.14,9.06,9.06,0,0,0,6.33-4.3,17.77,17.77,0,0,0,2.32-7.48C84.88,51.93,84.82,48.12,85,45Z"/><path class="cls-1" d="M0,53.16c.84-.12,1.23.16,1.52,1.06,1.12,3.57,2.61,7,5.47,9.57A14.41,14.41,0,0,0,20.5,67.4a7,7,0,0,0,5.62-6.33,10.58,10.58,0,0,0-.55-5.68,4.73,4.73,0,0,0-1.41-1.86,20,20,0,0,0-6.09-3A95.27,95.27,0,0,1,7.35,46.58,10.85,10.85,0,0,1,1,37.51a13.59,13.59,0,0,1,4.24-12,14.84,14.84,0,0,1,8.59-3.84,18.15,18.15,0,0,1,9.67,1.53,8.34,8.34,0,0,0,1.77.51,2.2,2.2,0,0,0,2.2-.52A1.08,1.08,0,0,1,28.65,23c.45.11.25.54.25.83q0,5.15,0,10.3c0,.3.18.74-.41.78s-.8,0-1-.59a27.62,27.62,0,0,0-3.17-6.92c-2.35-3.45-5.71-4.57-9.69-4.23a15,15,0,0,0-4.35,1A7.73,7.73,0,0,0,6.06,34.27a6.73,6.73,0,0,0,3.21,3,42.46,42.46,0,0,0,7.26,2.86c3.52,1.17,7.15,2.06,10.4,4a15.43,15.43,0,0,1,4.77,3.95,10.49,10.49,0,0,1,1.91,7.49,13.78,13.78,0,0,1-4.21,9.12,17.17,17.17,0,0,1-10,4.54c-4.35.56-8.34-.68-12.35-2a7.62,7.62,0,0,0-4.19-.67,1.73,1.73,0,0,0-1.18.69A1.67,1.67,0,0,1,0,68Z"/><path class="cls-1" d="M123,97.17c0-1.55,0-1.55,1.5-1.55h22c1.58,0,1.58,0,1.68,1.55Z"/><path class="cls-1" d="M120.75,33.48a20.1,20.1,0,0,1,3-6.17,12.91,12.91,0,0,1,13.87-5.13,8.3,8.3,0,0,1,6.21,7.9,11.2,11.2,0,0,1-.07,2,4.42,4.42,0,0,1-4.31,4.12,8.58,8.58,0,0,1-3.15-.18c-2.1-.53-2.92-2.44-2-4.58a11.75,11.75,0,0,0,1-3.35c.41-3.58-1.89-4.57-4.52-4.06s-4.34,2.24-5.78,4.3a22.74,22.74,0,0,0-4.09,12.58c-.26,8.24,0,16.48-.13,24.72,0,.59.19.74.75.73,2.53,0,5.06,0,7.58,0,.57,0,.84.08.84.75s-.22.83-.86.83q-12.28,0-24.58,0c-.56,0-.85-.07-.85-.75s.24-.83.88-.82c2.17,0,4.34,0,6.52,0,.58,0,.73-.18.73-.75q0-20.19,0-40.39c0-.62-.19-.8-.8-.79-2.17,0-4.35,0-6.52,0-.6,0-.81-.16-.81-.78s.22-.78.81-.78q7.67,0,15.34,0c.61,0,.8.17.79.79,0,2.94,0,5.87,0,8.8A1.48,1.48,0,0,0,120.75,33.48Z"/><path class="cls-1" d="M194.57,44.65c0,6.89,0,13.79,0,20.68,0,.88.26,1.08,1.09,1,2.05-.06,4.11,0,6.17,0,.63,0,.89.17.89.84s-.37.73-.9.73q-11.76,0-23.53,0c-.59,0-.91-.09-.92-.8s.36-.77.92-.77c2.14,0,4.29,0,6.43,0,.62,0,.79-.18.79-.79q0-20.16,0-40.31c0-.67-.2-.84-.85-.83-2.14,0-4.29,0-6.43,0-.58,0-.85-.15-.85-.79s.3-.77.86-.77c5.2,0,10.4,0,15.6,0,.75,0,.76.34.76.9Q194.56,34.23,194.57,44.65Z"/><path class="cls-1" d="M163.54,44.62c0,6.92,0,13.85,0,20.77,0,.75.15,1,1,1,2-.06,4.11,0,6.17,0,.52,0,1-.13,1,.75s-.42.81-1,.81H152.61c-1.79,0-3.59,0-5.38,0-.65,0-.77-.25-.77-.83s.15-.76.74-.75c2.12,0,4.23,0,6.35,0,.64,0,.92-.1.91-.85q0-20.11,0-40.22c0-.74-.26-.87-.91-.86-2.09,0-4.17,0-6.26,0-.56,0-.83-.08-.84-.75s.26-.81.88-.81c5.11,0,10.22,0,15.33,0,.78,0,.9.27.9,1C163.53,30.77,163.54,37.7,163.54,44.62Z"/><path class="cls-1" d="M184.37,5.52a5.55,5.55,0,1,1,11.1.13,5.55,5.55,0,0,1-11.1-.13Z"/><path class="cls-1" d="M158.91,11.09a5.46,5.46,0,0,1-5.56-5.55,5.56,5.56,0,1,1,11.11.09A5.44,5.44,0,0,1,158.91,11.09Z"/><path class="cls-1" d="M225.61,62.35a5.55,5.55,0,0,1-11.1,0,5.55,5.55,0,1,1,11.1,0Z"/><path class="cls-2" d="M168.77,80.27a3.06,3.06,0,0,1,3.09-.89c.2.06.46.1.56.24.56.83,1.07.39,1.67,0a2.88,2.88,0,0,1,2.69-.14A1.72,1.72,0,0,1,178,81.18c0,1.73,0,3.46,0,5.19,0,.45-.16.55-.56.54s-.76,0-.74-.58c0-1.44,0-2.88,0-4.31,0-1.26-.32-1.62-1.41-1.63A1.69,1.69,0,0,0,173.39,82c0,1.38,0,2.76,0,4.13,0,.49-.07.74-.66.76s-.64-.26-.64-.73c0-1.35,0-2.7,0-4,0-1.13-.35-1.64-1.08-1.75a2,2,0,0,0-2.16,1.28,2.58,2.58,0,0,0-.15,1c0,1.27,0,2.53,0,3.79,0,.39-.14.52-.51.48s-.76.12-.76-.46c0-2.25,0-4.51,0-6.77,0-.35.2-.39.45-.35s.62-.18.72.28C168.66,79.86,168.55,80.07,168.77,80.27Z"/><path class="cls-2" d="M189.66,80.35c1-.83,1.94-1.38,3.17-1,.19.06.46.09.55.23.5.73,1,.61,1.57.1a2.52,2.52,0,0,1,2.17-.41,2,2,0,0,1,1.82,2.1c0,1.64,0,3.28,0,4.92,0,.48-.15.6-.61.59s-.71-.07-.7-.62c0-1.4,0-2.81,0-4.22,0-1.16-.32-1.6-1.2-1.68a1.71,1.71,0,0,0-2.09,1.49,30.87,30.87,0,0,0-.09,4.3c0,.47,0,.75-.64.74s-.57-.29-.57-.71c0-1.46,0-2.92,0-4.39,0-.64-.17-1.18-.83-1.37a1.8,1.8,0,0,0-2.05.64,2.25,2.25,0,0,0-.48,1.46c0,1.26,0,2.53,0,3.79,0,.48-.12.65-.63.65s-.64-.15-.63-.65c0-2,0-4,0-6,0-.32-.39-.89.42-1S189.63,79.75,189.66,80.35Z"/><path class="cls-2" d="M136.11,80.15c-.08-.76.32-.82.86-.77s.34.53.35.8c0,2.11,0,4.23,0,6.34a3,3,0,0,1-1.62,3.06,4.23,4.23,0,0,1-4.19-.33,1.19,1.19,0,0,1-.53-.67c-.07-.26-.49-.65,0-.8.31-.1.77-.25,1.09.21a2.25,2.25,0,0,0,2.79.74A2.16,2.16,0,0,0,136,86.12c-2,1.33-3.94,1.11-4.94-.59a4.6,4.6,0,0,1-.13-4.46,3.15,3.15,0,0,1,3.81-1.71A5.89,5.89,0,0,1,136.11,80.15Zm0,2.91a6.79,6.79,0,0,0,0-.78,2.07,2.07,0,0,0-1.6-1.86,1.8,1.8,0,0,0-2.27,1,3.67,3.67,0,0,0,.06,3.45,1.94,1.94,0,0,0,3.39,0A3.25,3.25,0,0,0,136.1,83.06Z"/><path class="cls-2" d="M72.79,83.55c-.77,0-1.53,0-2.29,0-.47,0-.56.19-.51.58a2.12,2.12,0,0,0,1.7,1.78,1.89,1.89,0,0,0,2.38-1,.75.75,0,0,1,1.13-.38c.44.21,0,.62-.09.9a3.49,3.49,0,0,1-5.09,1c-2.13-1.62-1.76-5.64.64-6.8a3.3,3.3,0,0,1,4.79,2.49c.24,1.46.24,1.46-1.25,1.46Zm-.64-1.1c.49,0,1,0,1.48,0s.63-.25.45-.68a2,2,0,0,0-1.73-1.38,2,2,0,0,0-2.16,1.15c-.35.76-.27.9.55.91Z"/><path class="cls-2" d="M87.47,87.07a3.2,3.2,0,0,1-3.24-1.71,4.46,4.46,0,0,1,.07-4.44,3.43,3.43,0,0,1,4.09-1.53,3.92,3.92,0,0,1,2.25,3.75c0,.47-.3.42-.59.41-1.44,0-2.88,0-4.31,0-.56,0-.72.16-.62.72a2.06,2.06,0,0,0,1.59,1.66,2,2,0,0,0,2.36-.87c.22-.57.55-.55,1-.57s.42.24.33.54A2.92,2.92,0,0,1,87.47,87.07Zm-.3-4.62c.46,0,.94,0,1.4,0,.67.06.79-.24.55-.77a2,2,0,0,0-1.91-1.29,2,2,0,0,0-2,1.28c-.2.55-.11.84.56.78C86.22,82.42,86.7,82.45,87.17,82.45Z"/><path class="cls-2" d="M112,80.19a3.64,3.64,0,0,1,3.21-.87,2,2,0,0,1,1.61,1.75,47,47,0,0,1,.12,5.44c0,.56-.41.35-.68.38s-.63,0-.61-.47c0-1.35,0-2.69,0-4s-.35-1.95-1.39-2a2,2,0,0,0-2.25,2c0,1.23,0,2.46,0,3.69,0,.48,0,.81-.67.83s-.62-.4-.62-.83c0-2.93,0-5.86,0-8.79,0-.47,0-.76.64-.75s.68.22.66.72C112,78.2,112,79.12,112,80.19Z"/><path class="cls-2" d="M203.89,87.07c-1.73,0-2.74-.55-3.12-1.72-.08-.26-.3-.65.07-.74s.8-.26,1.1.22a2.47,2.47,0,0,0,3.15,1,.89.89,0,0,0,.58-.81.88.88,0,0,0-.48-.86,10,10,0,0,0-2.26-.68c-1.55-.4-2.27-1.13-2.16-2.22s1-1.8,2.55-1.93c1.68-.15,2.86.39,3.18,1.52.07.24.45.69-.09.77-.33.05-.83.35-1.11-.31a2.09,2.09,0,0,0-2.88-.57c-.48.41-.37,1,.25,1.34a11.55,11.55,0,0,0,2.17.65c1.61.48,2.28,1.13,2.2,2.18-.09,1.27-1.09,2.08-2.71,2.21C204.18,87.08,204,87.07,203.89,87.07Z"/><path class="cls-2" d="M155.66,83.19c0,2.39-1.42,3.9-3.65,3.89s-3.61-1.53-3.6-3.93a3.62,3.62,0,0,1,3.65-3.94C154.24,79.24,155.66,80.81,155.66,83.19Zm-1.29.18a5.34,5.34,0,0,0-.34-1.72,2.19,2.19,0,0,0-3.58-.58,3.53,3.53,0,0,0,0,4.21A2,2,0,0,0,152,86,2.42,2.42,0,0,0,154.37,83.37Z"/><path class="cls-2" d="M185,86a3.08,3.08,0,0,1-3.42.91,1.94,1.94,0,0,1-1.43-1.81c-.18-1.69-.07-3.39-.11-5.09,0-.5.19-.64.68-.65s.62.21.62.67c0,1.35,0,2.7,0,4,0,1.19.41,1.76,1.27,1.87a2.05,2.05,0,0,0,2.31-1.45,8.89,8.89,0,0,0,.16-2.52c0-.62,0-1.23,0-1.85,0-.41-.09-.79.58-.78s.68.34.68.83c0,2,0,4,0,6,0,.38.08.74-.54.75s-.79-.21-.71-.76C185.08,86.13,185,86.08,185,86Z"/><path class="cls-2" d="M123.77,80.43a2.92,2.92,0,0,1,3.44-1,2,2,0,0,1,1.48,1.87c.18,1.66.05,3.33.11,5,0,.54-.25.61-.7.63s-.61-.21-.6-.67c0-1.38,0-2.75,0-4.13,0-.78-.16-1.48-1-1.7a2,2,0,0,0-2.33,1,3.31,3.31,0,0,0-.36,1.69c0,1.08,0,2.17,0,3.25,0,.48-.16.6-.61.6s-.68-.1-.67-.63c0-2,0-3.92,0-5.89,0-.39-.28-1,.55-1S123.74,79.86,123.77,80.43Z"/><path class="cls-2" d="M97.25,79.47c.92-.29,1.41,0,1.7.92.51,1.67,1.15,3.29,1.79,5.1.65-1.84,1.25-3.53,1.84-5.22.35-1,.34-1,1.57-.77-.81,2.1-1.6,4.19-2.41,6.28a25.54,25.54,0,0,1-1.26,3.06,1.88,1.88,0,0,1-2,1c-.45,0-.56-.27-.56-.7s.23-.45.62-.43c1,0,1.8-1.46,1.4-2.47l-2.5-6.24C97.33,79.86,97.3,79.66,97.25,79.47Z"/><path class="cls-2" d="M79.59,85.38c.39-.3.38-.74.51-1.11.5-1.46,1-2.92,1.47-4.38a1,1,0,0,1,1.26-.47c.21.15.06.32,0,.46-.81,2.25-1.64,4.48-2.44,6.73-.16.44-.47.27-.72.28s-.72.11-.89-.35q-1.23-3.36-2.48-6.71c-.08-.2-.16-.45.18-.43s1-.29,1.25.43c.52,1.61,1.06,3.2,1.59,4.8C79.41,84.87,79.49,85.11,79.59,85.38Z"/><path class="cls-2" d="M144.89,83.7c0-.85,0-1.7,0-2.55,0-.45-.12-.65-.59-.59s-.68-.06-.69-.6.28-.63.7-.57c.79.1.56-.48.56-.86a1.92,1.92,0,0,1,2.37-2.07c.43.05.58.23.59.67s-.25.45-.6.45a1.07,1.07,0,0,0-1.1,1.58c.15.41.5.21.75.21.44,0,.69,0,.68.6s-.25.65-.69.59c-.64-.1-.77.19-.76.78,0,1.64,0,3.28,0,4.92,0,.49-.13.65-.63.66s-.65-.19-.63-.67C144.91,85.4,144.89,84.55,144.89,83.7Z"/><path class="cls-2" d="M108.2,86.9c-1.36,0-1.74-.36-1.75-1.65s0-2.63,0-4c0-.54-.1-.84-.71-.74-.43.06-.65-.1-.64-.58s.18-.67.63-.59c.6.1.78-.16.72-.73,0-.31,0-.64,0-1,0-.53.27-.53.66-.54s.67.09.61.58c0,.23,0,.47,0,.7-.12.74.11,1.1.92,1,.48-.09.6.18.61.61s-.26.62-.66.56c-.79-.14-.91.24-.88.92,0,1.2,0,2.4,0,3.6,0,.42.11.68.57.71s1-.2,1,.62S108.52,86.75,108.2,86.9Z"/><path class="cls-2" d="M92.25,83.2c0-1.09,0-2.17,0-3.26,0-.41.11-.59.55-.56s.74-.07.66.51c0,.16,0,.38.15.46s.32-.18.47-.3a2.55,2.55,0,0,1,1.28-.71c.33,0,.8-.41.88.26.06.46.16,1-.62,1a2,2,0,0,0-2,2.07c-.11,1.17-.07,2.34-.08,3.51,0,.45,0,.76-.62.77s-.68-.31-.67-.8C92.26,85.19,92.25,84.19,92.25,83.2Z"/><path class="cls-2" d="M158.63,80.77a3.48,3.48,0,0,1,2.18-1.51c.24,0,.61-.17.56.26s.4,1-.36,1c-2,.21-2.28,1.5-2.34,3.08,0,.91,0,1.82,0,2.73,0,.45-.11.63-.59.6s-.69,0-.68-.54q0-3.25,0-6.51c0-.52.28-.53.67-.55s.53.22.51.59A7.53,7.53,0,0,0,158.63,80.77Z"/><path class="cls-2" d="M119.14,83.11c0-1,0-2.1,0-3.15,0-.48.15-.61.6-.58s.68,0,.67.55c0,2.16,0,4.33,0,6.49,0,.5-.29.47-.63.48s-.67,0-.65-.54C119.17,85.28,119.14,84.2,119.14,83.11Z"/><path class="cls-2" d="M120.39,77.29c0,.48.06.84-.64.83s-.62-.33-.62-.77,0-.83.66-.81S120.45,76.84,120.39,77.29Z"/><g id="Group_218" data-name="Group 218"><g id="Group_216" data-name="Group 216"><path id="Path_517" data-name="Path 517" class="cls-3" d="M218.58,59.52a6.84,6.84,0,0,1,1.28-.11,2.14,2.14,0,0,1,1.49.42,1.31,1.31,0,0,1,.41,1,1.37,1.37,0,0,1-1,1.32v0a1.29,1.29,0,0,1,.76,1,7.8,7.8,0,0,0,.4,1.41h-.69a6.6,6.6,0,0,1-.34-1.23c-.15-.71-.43-1-1-1h-.63V64.6h-.66Zm.67,2.35h.68c.71,0,1.16-.39,1.16-1s-.48-1-1.18-1a2.46,2.46,0,0,0-.66.06Z"/></g><g id="Group_217" data-name="Group 217"><path id="Path_518" data-name="Path 518" class="cls-3" d="M220.06,57.65a4.7,4.7,0,0,0-4.7,4.71h0a4.69,4.69,0,0,0,4.7,4.7h0a4.7,4.7,0,0,0,4.71-4.7h0a4.71,4.71,0,0,0-4.71-4.71Zm0,8.63a3.93,3.93,0,0,1-3.92-3.92h0a3.92,3.92,0,0,1,3.92-3.92h0A3.91,3.91,0,0,1,224,62.36h0a3.92,3.92,0,0,1-3.92,3.92Z"/></g></g></g></g></svg>