<svg xmlns="http://www.w3.org/2000/svg" viewBox="0 0 97.23 111.21"><defs><style>.a{fill:#fff;}</style></defs><path class="a" d="M-32,336c0,.43-.05.74-.05,1.06,0,.86-.56,1.14-1.3,1.16s-1.26-.27-1.32-1.13c0-.46.22-1.23-.43-1.26s-.53.78-.58,1.25a1.09,1.09,0,0,1-1.23,1.12c-.84,0-1-.54-1-1.19a6,6,0,0,0-.09-.84.42.42,0,0,0-.45-.39c-.28,0-.38.22-.41.44s0,.63-.08.94-.12.82-.64.94a5.08,5.08,0,0,1-2.51-.14c-.65-.2-.51-.88-.75-1.33s-.23-.65-.41-.95c-.44-.75-.15-1.19.58-1.44s1.27-.37,1.89-.58c.36-.12.78-.26.65-.76s-.57-.32-.87-.27a10.24,10.24,0,0,0-2.59.86,1.37,1.37,0,0,0-.82,1.93c.18.57.45,1.11.63,1.68.11.31.28.71-.12.93a1.87,1.87,0,0,1-1.55.11c-.39-.14-.15-.61-.2-.94s0-.56-.09-.84a1.88,1.88,0,0,0-3.09-1.2,2.48,2.48,0,0,0-.85,2.46c.11,1,1.06,1.11,1.8,1.41.34.14,1-.1,1,.46s-.52.57-.89.73a3.65,3.65,0,0,0-.35.14c-.21.09-.42.2-.38.47s.33.35.58.34a2.05,2.05,0,0,0,2-1.28c.1-.23.06-.61.35-.63a8,8,0,0,0,2.83-.5c1.86,1,3.88-.11,5.78.43a1.76,1.76,0,0,0,1.37-.21c.38-.23.67-.08,1,0,2.36.64,3.48-.08,3.57-2.26a1.82,1.82,0,0,0,0-.57c-.12-.49.21-1.36-.59-1.35S-31.84,335.67-32,336Zm-27-.74h0c0-.5,0-1,0-1.51,0-.34.13-.88-.44-.85s-.48.53-.48.9c0,1.07,0,2.14,0,3.21,0,.69-.26,1.17-1,1.18s-1.32-.12-1.34-1.05a5,5,0,0,0-.19-.92.45.45,0,0,0-.44-.42c-.36,0-.38.3-.38.54,0,.56.07,1.13.05,1.69,0,.9.1,1.86-.86,2.44a.33.33,0,0,0-.11.49.51.51,0,0,0,.58.22,1.53,1.53,0,0,0,1.22-1.28c.12-.63.46-.68,1-.74,1.3-.12,2.58,0,3.87,0s2.85-.05,4.29,0c2.08.12,2.79-.75,2.5-2.83,0-.28-.06-.61-.44-.61s-.46.31-.52.58,0,.75-.12,1.11a1.26,1.26,0,0,1-1.77.73c-.79-.32,0-.73.1-1,.4-1.16.14-1.95-.93-2.36a2.11,2.11,0,0,0-2.36.4c-.75.69-.55,1.46-.3,2.27.08.24.48.54-.08.72a1.34,1.34,0,0,1-1.86-1.3C-59,336.33-59,335.8-59,335.26Zm-43.12,4.16a2.11,2.11,0,0,0,2.28-2.11c.09-.81-.12-1.62,0-2.44.14-.64.24-1.33-.83-.83-.14.06-.36,0-.54-.09a2.18,2.18,0,0,0-3,2.18c-.08,1.3.49,2.55.2,3.87-.08.35.09.76-.08,1.17a1.32,1.32,0,0,0,.64,1.69,2.6,2.6,0,0,0,2.69.11,1.44,1.44,0,0,0,.89-1.34,1.48,1.48,0,0,0-.88-1.34,2.68,2.68,0,0,0-1.64-.3c-.26,0-.63.12-.62-.32s.34-.26.57-.26Zm-5.7.51c-.08,0-.62.26-.63-.2,0-.62.56-.28.87-.29a2.17,2.17,0,0,0,2.27-2.23,12.31,12.31,0,0,1,.11-2.71c.09-.31-.09-.79-.45-.61-.58.31-1,0-1.52-.08a2.09,2.09,0,0,0-2.38,1.65,5,5,0,0,0,.12,2.7c.08.23.22.44.1.71-.41.9.13,1.89-.28,2.82-.12.29.14.66.39.92a2.45,2.45,0,0,0,2.36.6c.83-.17,1.48-.58,1.53-1.53s-.65-1.36-1.42-1.63A5.56,5.56,0,0,0-107.8,339.93Zm-10-.64c0-1.07,0-2.14,0-3.21a2.12,2.12,0,0,0-1.21-2,2.2,2.2,0,0,0-2.24.17c-1.2.8-1.27,4.29-.11,5.16a3.21,3.21,0,0,0,1.14.43c.47.13,1.1-.43,1.36.09a3.93,3.93,0,0,1,.07,1.58c0,.28,0,.57,0,.85s0,.83.54.81.45-.43.46-.78Zm-7.61.55c1.29,0,2-.47,2.13-1.3s-.29-1.56-1.44-2a8.67,8.67,0,0,1-1.14-.44.67.67,0,0,1-.42-.68.71.71,0,0,1,.65-.58,1.2,1.2,0,0,1,1.45.59c.17.33.44.51.76.33s.2-.55.08-.84a2.36,2.36,0,0,0-3-.88,1.44,1.44,0,0,0-.92,1.31,1.32,1.32,0,0,0,.79,1.46c.52.21,1,.41,1.56.65s.78.44.63.91-.64.59-1.09.54a1.32,1.32,0,0,1-1-.62c-.19-.27-.46-.5-.79-.25s-.15.57,0,.85A2,2,0,0,0-125.37,339.84Zm35.86-6a1.88,1.88,0,0,0-2,1.32c-.16.81.31,1.5,1.31,1.92.32.13.67.2,1,.34s.89.44.69,1-.75.62-1.29.48a1.19,1.19,0,0,1-.75-.53c-.2-.33-.51-.56-.85-.3s-.14.72.08,1a2.38,2.38,0,0,0,2.31.76c.77-.11,1.42-.38,1.53-1.26a1.54,1.54,0,0,0-1.09-1.84,12,12,0,0,1-1.48-.6.64.64,0,0,1-.42-.76.79.79,0,0,1,.64-.49,1.33,1.33,0,0,1,1.53.65c.18.26.4.46.7.28s.21-.48.11-.76C-87.88,334.09-88.65,333.91-89.51,333.86ZM-94.36,337h1.13c.47,0,.65-.28.69-.72a2.38,2.38,0,0,0-1.74-2.37,2.15,2.15,0,0,0-2.57,1.64,6.42,6.42,0,0,0,0,2.62,2.11,2.11,0,0,0,2.11,1.67,2,2,0,0,0,2.05-1.46c.08-.3.13-.57-.18-.74s-.53.1-.63.34a1.67,1.67,0,0,1-.59.72,1.1,1.1,0,0,1-1.39-.09,1.13,1.13,0,0,1-.39-1.28c.16-.54.69-.23,1.06-.31A2.44,2.44,0,0,1-94.36,337Zm-22.47-.79h0c0,.47,0,.94,0,1.41.08,1.44.84,2.22,2.15,2.21a2.12,2.12,0,0,0,2.18-2.22c0-.91,0-1.82,0-2.73,0-.4.06-.92-.53-.9s-.47.49-.47.86c0,.85,0,1.7,0,2.54s-.45,1.51-1.17,1.53-1.25-.64-1.26-1.55,0-1.82,0-2.73c0-.31,0-.69-.48-.65s-.42.33-.42.63Zm18.94-1h0c0-1.25,0-2.5,0-3.76,0-.38,0-.84-.5-.86s-.47.49-.48.85c0,2.5,0,5,0,7.52,0,.38,0,.84.53.8s.45-.42.45-.78C-97.9,337.7-97.89,336.45-97.89,335.19Zm-12.76,1.74h0c0-.79,0-1.57,0-2.35,0-.28,0-.61-.44-.59s-.47.27-.47.59c0,1.53,0,3.06,0,4.59,0,.32.12.58.47.59s.43-.31.44-.58C-110.64,338.43-110.65,337.68-110.65,336.93Zm56.72-3.63c-.15-.52-.53-.73-1-.42s-.47.27-.75,0a.51.51,0,0,0-.76.06.62.62,0,0,0-.05.7.49.49,0,0,0,.71.26.87.87,0,0,1,1,0C-54.34,334.11-54,333.88-53.93,333.3Zm3.22,7.87c.32-.07.56-.13.65-.41a.54.54,0,0,0-.21-.66c-.21-.16-.54-.27-.67,0-.31.62-.53.22-.8,0a.43.43,0,0,0-.66,0,.67.67,0,0,0-.17.7c.07.22.26.43.48.33C-51.59,340.92-51.12,340.79-50.71,341.17ZM-63,335.11c.33,0,.61-.13.63-.53s-.25-.56-.59-.54-.6.15-.58.56A.5.5,0,0,0-63,335.11Zm-47.59-2.49c0-.29-.15-.53-.44-.54a.5.5,0,0,0-.53.53c0,.31.22.43.49.45S-110.67,332.89-110.63,332.62Z" transform="translate(127.62 -232.08)"/><path class="a" d="M-32,336c.14-.33-.4-1.17.43-1.18s.47.86.59,1.35a1.82,1.82,0,0,1,0,.57c-.09,2.18-1.21,2.9-3.57,2.26-.38-.1-.67-.25-1,0a1.76,1.76,0,0,1-1.37.21c-1.9-.54-3.92.57-5.78-.43a8,8,0,0,1-2.83.5c-.29,0-.25.4-.35.63a2.05,2.05,0,0,1-2,1.28c-.25,0-.53,0-.58-.34s.17-.38.38-.47a3.65,3.65,0,0,1,.35-.14c.37-.16.9-.29.89-.73s-.64-.32-1-.46c-.74-.3-1.69-.39-1.8-1.41a2.48,2.48,0,0,1,.85-2.46,1.88,1.88,0,0,1,3.09,1.2c0,.28,0,.56.09.84s-.19.8.2.94a1.87,1.87,0,0,0,1.55-.11c.4-.22.23-.62.12-.93-.18-.57-.45-1.11-.63-1.68a1.37,1.37,0,0,1,.82-1.93,10.24,10.24,0,0,1,2.59-.86c.3-.05.74-.23.87.27s-.29.64-.65.76c-.62.21-1.26.37-1.89.58s-1,.69-.58,1.44c.18.3.25.65.41.95s.1,1.13.75,1.33a5.08,5.08,0,0,0,2.51.14c.52-.12.58-.53.64-.94s0-.63.08-.94.13-.43.41-.44a.42.42,0,0,1,.45.39,6,6,0,0,1,.09.84c0,.65.16,1.21,1,1.19a1.09,1.09,0,0,0,1.23-1.12c0-.47-.19-1.29.58-1.25s.4.8.43,1.26c.06.86.58,1.14,1.32,1.13s1.29-.3,1.3-1.16C-32,336.74-32,336.43-32,336Zm-14.65,1.27c-.18-.62.12-1.51-.91-1.61-.6-.05-1.37.86-1.28,1.5.14,1,1,.86,1.69.95S-46.8,337.56-46.63,337.27Z" transform="translate(127.62 -232.08)"/><path class="a" d="M-59,335.26c0,.54,0,1.07,0,1.61a1.34,1.34,0,0,0,1.86,1.3c.56-.18.16-.48.08-.72-.25-.81-.45-1.58.3-2.27a2.11,2.11,0,0,1,2.36-.4c1.07.41,1.33,1.2.93,2.36-.11.29-.89.7-.1,1a1.26,1.26,0,0,0,1.77-.73c.08-.36.05-.75.12-1.11s.16-.59.52-.58.39.33.44.61c.29,2.08-.42,2.95-2.5,2.83-1.44-.09-2.86-.07-4.29,0s-2.57-.1-3.87,0c-.58.06-.92.11-1,.74a1.53,1.53,0,0,1-1.22,1.28.51.51,0,0,1-.58-.22.33.33,0,0,1,.11-.49c1-.58.84-1.54.86-2.44,0-.56-.06-1.13-.05-1.69,0-.24,0-.55.38-.54a.45.45,0,0,1,.44.42,5,5,0,0,1,.19.92c0,.93.62,1.07,1.34,1.05s1-.49,1-1.18c0-1.07,0-2.14,0-3.21,0-.37,0-.87.48-.9s.43.51.44.85c0,.51,0,1,0,1.51Zm2.68,1.41c.09.43.2,1,.81,1,.42.06,1.26-1,1.22-1.51s-.5-.7-.94-.71C-55.93,335.48-56.29,335.88-56.3,336.67Z" transform="translate(127.62 -232.08)"/><path class="a" d="M-30.71,329q0-15.57,0-31.14,0-17.22,0-34.43,0-15.57,0-31.13c.51.37.25.92.25,1.36q0,13.5,0,27v34.06q0,16.85,0,33.69C-30.46,328.61-30.3,328.94-30.71,329Z" transform="translate(127.62 -232.08)"/><path class="a" d="M-102.1,339.43l-.29,0c-.23,0-.56-.13-.57.26s.36.34.62.32a2.68,2.68,0,0,1,1.64.3,1.48,1.48,0,0,1,.88,1.34,1.44,1.44,0,0,1-.89,1.34,2.6,2.6,0,0,1-2.69-.11,1.32,1.32,0,0,1-.64-1.69c.17-.41,0-.82.08-1.17.29-1.32-.28-2.57-.2-3.87a2.18,2.18,0,0,1,3-2.18c.18.05.4.15.54.09,1.07-.5,1,.19.83.83-.17.82,0,1.63,0,2.44A2.13,2.13,0,0,1-102.1,339.43Zm-1.08-2.81a9,9,0,0,0,.13,1,1,1,0,0,0,1.1.81,1,1,0,0,0,1.06-.75,3.77,3.77,0,0,0,0-2.13,1,1,0,0,0-1.13-.79,1,1,0,0,0-1,.9A9.17,9.17,0,0,0-103.18,336.62Zm1.19,5.64c.49-.05,1.15,0,1.13-.66s-.59-.69-1.08-.65-1.13,0-1.12.69S-102.43,342.2-102,342.26Z" transform="translate(127.62 -232.08)"/><path class="a" d="M-107.8,339.93a5.56,5.56,0,0,1,1.07.12c.77.27,1.46.67,1.42,1.63s-.7,1.36-1.53,1.53a2.45,2.45,0,0,1-2.36-.6c-.25-.26-.51-.63-.39-.92.41-.93-.13-1.92.28-2.82.12-.27,0-.48-.1-.71a5,5,0,0,1-.12-2.7,2.09,2.09,0,0,1,2.38-1.65c.5.07.94.39,1.52.08.36-.18.54.3.45.61a12.31,12.31,0,0,0-.11,2.71,2.17,2.17,0,0,1-2.27,2.23c-.31,0-.89-.33-.87.29C-108.42,340.19-107.88,339.91-107.8,339.93Zm1.58-3.25a6.92,6.92,0,0,0-.11-1,1.1,1.1,0,0,0-1.07-.89,1.07,1.07,0,0,0-1.14.81,3.55,3.55,0,0,0,.05,2.21,1,1,0,0,0,1.13.65.94.94,0,0,0,1-.73C-106.3,337.34-106.27,337-106.22,336.68Zm-1.21,5.59c.42-.08,1.05,0,1.09-.59s-.61-.72-1.1-.73-1.14,0-1.12.7S-107.91,342.2-107.43,342.27Z" transform="translate(127.62 -232.08)"/><path class="a" d="M-117.76,339.29v3.11c0,.35,0,.76-.46.78s-.52-.44-.54-.81,0-.57,0-.85a3.93,3.93,0,0,0-.07-1.58c-.26-.52-.89,0-1.36-.09a3.21,3.21,0,0,1-1.14-.43c-1.16-.87-1.09-4.36.11-5.16a2.2,2.2,0,0,1,2.24-.17,2.12,2.12,0,0,1,1.21,2C-117.74,337.15-117.76,338.22-117.76,339.29Zm-1-2.41h0c0-.22,0-.44,0-.66,0-.87-.51-1.43-1.21-1.37a1.22,1.22,0,0,0-1.19,1.32,8.67,8.67,0,0,0,0,1.69,1.16,1.16,0,0,0,1.25,1.05,1.09,1.09,0,0,0,1.09-1.09C-118.76,337.51-118.79,337.19-118.79,336.88Z" transform="translate(127.62 -232.08)"/><path class="a" d="M-125.37,339.84a2,2,0,0,1-1.8-.94c-.14-.28-.31-.61,0-.85s.6,0,.79.25a1.32,1.32,0,0,0,1,.62c.45.05.94-.05,1.09-.54s-.26-.74-.63-.91-1-.44-1.56-.65a1.32,1.32,0,0,1-.79-1.46,1.44,1.44,0,0,1,.92-1.31,2.36,2.36,0,0,1,3,.88c.12.29.27.64-.08.84s-.59,0-.76-.33a1.2,1.2,0,0,0-1.45-.59.71.71,0,0,0-.65.58.67.67,0,0,0,.42.68,8.67,8.67,0,0,0,1.14.44c1.15.43,1.59,1,1.44,2S-124.08,339.83-125.37,339.84Z" transform="translate(127.62 -232.08)"/><path class="a" d="M-89.51,333.86c.86.05,1.63.23,2,1.16.1.28.19.58-.11.76s-.52,0-.7-.28a1.33,1.33,0,0,0-1.53-.65.79.79,0,0,0-.64.49.64.64,0,0,0,.42.76,12,12,0,0,0,1.48.6,1.54,1.54,0,0,1,1.09,1.84c-.11.88-.76,1.15-1.53,1.26a2.38,2.38,0,0,1-2.31-.76c-.22-.27-.48-.68-.08-1s.65,0,.85.3a1.19,1.19,0,0,0,.75.53c.54.14,1.08.05,1.29-.48s-.3-.77-.69-1-.66-.21-1-.34c-1-.42-1.47-1.11-1.31-1.92A1.88,1.88,0,0,1-89.51,333.86Z" transform="translate(127.62 -232.08)"/><path class="a" d="M-94.36,337a2.44,2.44,0,0,0-.47,0c-.37.08-.9-.23-1.06.31a1.13,1.13,0,0,0,.39,1.28,1.1,1.1,0,0,0,1.39.09,1.67,1.67,0,0,0,.59-.72c.1-.24.26-.55.63-.34s.26.44.18.74a2,2,0,0,1-2.05,1.46,2.11,2.11,0,0,1-2.11-1.67,6.42,6.42,0,0,1,0-2.62,2.15,2.15,0,0,1,2.57-1.64,2.38,2.38,0,0,1,1.74,2.37c0,.44-.22.72-.69.72h-1.13Zm-.36-.84c.37-.24,1.1.29,1.11-.46,0-.57-.56-.89-1.14-.88s-1.14.29-1.09.91S-95.08,335.92-94.72,336.17Z" transform="translate(127.62 -232.08)"/><path class="a" d="M-116.83,336.22v-1.6c0-.3.08-.61.42-.63s.48.34.48.65c0,.91,0,1.82,0,2.73s.56,1.58,1.26,1.55,1.15-.56,1.17-1.53,0-1.69,0-2.54c0-.37,0-.85.47-.86s.53.5.53.9c0,.91,0,1.82,0,2.73a2.12,2.12,0,0,1-2.18,2.22c-1.31,0-2.07-.77-2.15-2.21,0-.47,0-.94,0-1.41Z" transform="translate(127.62 -232.08)"/><path class="a" d="M-97.89,335.19c0,1.26,0,2.51,0,3.77,0,.36,0,.75-.45.78s-.53-.42-.53-.8c0-2.51,0-5,0-7.52,0-.36-.06-.86.48-.85s.5.48.5.86c0,1.26,0,2.51,0,3.76Z" transform="translate(127.62 -232.08)"/><path class="a" d="M-110.65,336.93c0,.75,0,1.5,0,2.25,0,.27,0,.6-.44.58s-.47-.27-.47-.59c0-1.53,0-3.06,0-4.59,0-.32.13-.58.47-.59s.43.31.44.59c0,.78,0,1.56,0,2.35Z" transform="translate(127.62 -232.08)"/><path class="a" d="M-53.93,333.3c0,.58-.41.81-.82.58a.87.87,0,0,0-1,0,.49.49,0,0,1-.71-.26.62.62,0,0,1,.05-.7.51.51,0,0,1,.76-.06c.28.27.43.23.75,0S-54.08,332.78-53.93,333.3Z" transform="translate(127.62 -232.08)"/><path class="a" d="M-50.71,341.17c-.41-.38-.88-.25-1.38,0-.22.1-.41-.11-.48-.33a.67.67,0,0,1,.17-.7.43.43,0,0,1,.66,0c.27.23.49.63.8,0,.13-.26.46-.15.67,0a.54.54,0,0,1,.21.66C-50.15,341-50.39,341.1-50.71,341.17Z" transform="translate(127.62 -232.08)"/><path class="a" d="M-100.22,329c3-.17,6,0,8.93-.07,1.57,0,3.13,0,4.7.06a1.15,1.15,0,0,1-.73.11H-99.48A6.29,6.29,0,0,1-100.22,329Z" transform="translate(127.62 -232.08)"/><path class="a" d="M-32.37,232.23a25.6,25.6,0,0,1-4.2.08,43.26,43.26,0,0,1-5.34-.08,6.7,6.7,0,0,1,2.23-.11c2.14,0,4.27,0,6.4,0A1.43,1.43,0,0,1-32.37,232.23Z" transform="translate(127.62 -232.08)"/><path class="a" d="M-63,335.11a.5.5,0,0,1-.54-.51c0-.41.25-.55.58-.56s.61.13.59.54S-62.71,335.07-63,335.11Z" transform="translate(127.62 -232.08)"/><path class="a" d="M-110.63,332.62c0,.27-.19.46-.48.44s-.49-.14-.49-.45a.5.5,0,0,1,.53-.53C-110.78,332.09-110.66,332.33-110.63,332.62Z" transform="translate(127.62 -232.08)"/><path class="a" d="M-86.26,329a7.78,7.78,0,0,1,2.31,0A5.62,5.62,0,0,1-86.26,329Z" transform="translate(127.62 -232.08)"/><path class="a" d="M-60,329a2.76,2.76,0,0,1,1.37,0A2,2,0,0,1-60,329Z" transform="translate(127.62 -232.08)"/><path class="a" d="M-58.32,329a2.09,2.09,0,0,1,1.19,0A1.63,1.63,0,0,1-58.32,329Z" transform="translate(127.62 -232.08)"/><path class="a" d="M-32.63,329h.43A.29.29,0,0,1-32.63,329Z" transform="translate(127.62 -232.08)"/><path class="a" d="M-127.52,232.43a.3.3,0,0,1,0,.45A.35.35,0,0,1-127.52,232.43Z" transform="translate(127.62 -232.08)"/><path class="a" d="M-42.94,232.23l-.29,0C-43.13,232.08-43,232.09-42.94,232.23Z" transform="translate(127.62 -232.08)"/><path class="a" d="M-83.15,263.93q0,15.06,0,30.12c0,.75-.15,1-1,1q-20.87,0-41.73,0c-1.27,0-1.27,0-1.27-1.27q0-29.94,0-59.86c0-1.25,0-1.25,1.22-1.25q20.81,0,41.63,0c.87,0,1.11.21,1.11,1.08q0,15.1,0,30.21ZM-118,275a10.23,10.23,0,0,0,2.17,7.22,13.33,13.33,0,0,0,16.34,3.65,11.29,11.29,0,0,0,6.06-6.53,16.92,16.92,0,0,0,.26-9.41c-.93-4-4-6.09-7.49-7.6-2.64-1.12-5.52-1.49-8.19-2.52-2.85-1.1-4.77-3.17-4.58-6.38,0-.79,0-1.58,0-2.36a5.57,5.57,0,0,1,1.51-3.38,8.26,8.26,0,0,1,7-2.84,8.1,8.1,0,0,1,6.6,3.77,7.1,7.1,0,0,1,.92,4,2.31,2.31,0,0,0,2.3,2.37,2.3,2.3,0,0,0,2.27-2.31,10.85,10.85,0,0,0-5.06-10.12,13.06,13.06,0,0,0-14.12-.6,11.08,11.08,0,0,0-5.72,7.14,18.11,18.11,0,0,0-.3,5.55,9.9,9.9,0,0,0,4.59,8,17.77,17.77,0,0,0,5.7,2.39,41.3,41.3,0,0,1,5.67,1.75c1.92.81,3.81,1.9,4.33,4a12,12,0,0,1-.33,7.59s0,0,0,.08a8.16,8.16,0,0,1-8.38,4.06c-3.88-.38-7.34-3.4-7-7.77a15.75,15.75,0,0,0,0-2.17,2.3,2.3,0,0,0-2.24-2.23,2.24,2.24,0,0,0-2.3,2.16C-118.07,273.23-118,274-118,275Z" transform="translate(127.62 -232.08)"/><path class="a" d="M-52.17,318A5.29,5.29,0,0,0-51,321.72a7.06,7.06,0,0,0,7.71,2.63,6.33,6.33,0,0,0,4.92-5.84c.31-4.1-1.11-6.4-5.06-7.69-1.25-.41-2.52-.76-3.76-1.2A4.21,4.21,0,0,1-48.77,303a4.55,4.55,0,0,1,5.07-1.28,3.9,3.9,0,0,1,2.85,3.89c0,.87.56,1.37,1.28,1.32.89-.06,1.16-.67,1.17-1.43a6,6,0,0,0-2.11-4.84,7.35,7.35,0,0,0-8.69-.59c-2.85,1.94-3.57,4.8-2.65,8.15a5.17,5.17,0,0,0,2.22,2.94c1.37.94,3,1.16,4.47,1.68,1.26.45,2.66.68,3.53,1.84a4.93,4.93,0,0,1-.84,6.45,4.45,4.45,0,0,1-4.88.48,3.63,3.63,0,0,1-2.31-3.76,5.83,5.83,0,0,0,0-1.32,1.15,1.15,0,0,0-1.19-1.1,1.19,1.19,0,0,0-1.27,1.14A10.57,10.57,0,0,0-52.17,318Z" transform="translate(127.62 -232.08)"/><path class="a" d="M-57.94,279c0-5.13,0-10.26,0-15.38,0-.79.14-1.09,1-1.08q12.47.06,24.92,0c.76,0,.95.27.95,1q0,15.39,0,30.77c0,.81-.25,1.11-1.08,1.11q-12.4,0-24.82,0c-.83,0-1-.32-1-1.05,0-5.13,0-10.26,0-15.39Zm12.49-12.94c-2.87,0-4.92,1.52-5.47,4.22a17.7,17.7,0,0,0,0,5.9,3.24,3.24,0,0,0,.75,1.81c.29.32.17.57-.05.91a3.85,3.85,0,0,0-.16,3.93.91.91,0,0,1-.1,1.16,3.71,3.71,0,0,0,.43,4.47c2,1.93,5.75,2.09,8.1.74a3.65,3.65,0,0,0,.79-5.85,6.56,6.56,0,0,0-5.9-1.44c-.42.08-.88.21-1.17-.3a1.16,1.16,0,0,1,.1-1.33c.34-.47.74-.13,1.1,0a5.43,5.43,0,0,0,6.93-5c.09-2.53-.34-5.07.37-7.57a1.17,1.17,0,0,0-.68-1.49,1.16,1.16,0,0,0-1.5.45c-.31.49-.57.3-.92.11A4.75,4.75,0,0,0-45.45,266.1Z" transform="translate(127.62 -232.08)"/><path class="a" d="M-58.66,253.92c0,6.67,0,13.34,0,20,0,.77-.1,1.06-1,1.06-7.36-.05-14.72,0-22.08,0-.8,0-.74-.42-.74-.95v-25.2c0-5,0-9.95,0-14.92,0-.76.15-1.09,1-1.17,1.39-.12,2.77-.07,4.15-.07,5.82,0,11.64,0,17.47,0,1.16,0,1.22.06,1.22,1.23v20Zm-4.5-2.66h0v-5.85a7,7,0,0,0-.37-2.31,7.35,7.35,0,0,0-4-4.45,8.44,8.44,0,0,0-5.32-.27,7.51,7.51,0,0,0-5.41,6.68c0,4,0,8.06,0,12.09A7.71,7.71,0,0,0-73,264.41a1.39,1.39,0,0,1,1.18,1.64c0,2,2,4.57,4.56,4.23.67-.09,1.28-.27,1.39-1a1.37,1.37,0,0,0-1-1.47,4.17,4.17,0,0,0-.81-.2,2,2,0,0,1-1.57-2c-.07-.95.35-1.41,1.29-1.43.12,0,.22-.11.34-.16a7.29,7.29,0,0,0,4.47-7.06C-63.17,255-63.16,253.15-63.16,251.26Z" transform="translate(127.62 -232.08)"/><path class="a" d="M-126.65,295.82h.32a2.76,2.76,0,0,0,1.21.11h23.21c1.42,0,1.33-.24,1.33,1.3,0,8.43,0,16.85,0,25.28,0,.3-.29.78.31.91v1.26a.84.84,0,0,0,0,1.37v.51c-.56.08-.29.52-.34.81s.07.6-.28.6c-.66,0-1.2.41-1.89.41-7.48,0-15,0-22.46,0a2.43,2.43,0,0,1-.66,0c-.54-.16-1-.45-.84-1.13a5.84,5.84,0,0,0,.08-.93Q-126.64,311.06-126.65,295.82Zm16.13,5.23a5.55,5.55,0,0,0-8.62,3c-.44,1.69-.14,3.44-.18,5.17a4.57,4.57,0,0,0,.8,2.75.68.68,0,0,1,0,.91,3.81,3.81,0,0,0-.2,4,.87.87,0,0,1-.09,1.07,3.68,3.68,0,0,0,.45,4.58c1.87,1.9,5.21,2.28,8,.83a3.58,3.58,0,0,0,2.15-3.27,3.68,3.68,0,0,0-2.12-3.49,6.92,6.92,0,0,0-5-.7c-.37.08-.76.22-1-.24a1.21,1.21,0,0,1,0-1.26c.28-.46.66-.22,1-.1a5,5,0,0,0,4.58-.66,5.45,5.45,0,0,0,2.51-4.4c.14-2.43-.44-4.88.31-7.28a2.21,2.21,0,0,0,0-.85,1.08,1.08,0,0,0-.7-1,1.27,1.27,0,0,0-1.4.28C-110.18,300.59-110.34,300.82-110.52,301.05Z" transform="translate(127.62 -232.08)"/><path class="a" d="M-59,295.67l.27-.06h0a.3.3,0,0,0,.11.14V315a.55.55,0,0,1-.17.05c-.35,0-.69-.06-1-.06-8,0-16.05,0-24.07,0-.4,0-.91.22-1.16-.34q0-9.35,0-18.68c.59-.41,1.29,0,1.89-.26l.7,0a4.92,4.92,0,0,0,.64.09h22.18A5,5,0,0,0-59,295.67Zm-12.4,10.6v0h3.49a1.12,1.12,0,0,0,1.22-1,6.38,6.38,0,0,0-1-4.95,5.49,5.49,0,0,0-6-2.11,5.78,5.78,0,0,0-4.11,5.6c0,1.38,0,2.77,0,4.15a5.57,5.57,0,0,0,2.42,4.66A5.49,5.49,0,0,0-66.78,309a1.2,1.2,0,0,0-.82-1.41,1.12,1.12,0,0,0-1.41.65,5,5,0,0,0-.28.8,3.11,3.11,0,0,1-5.37,1c-.81-.9-.71-2-.76-3,0-.58.2-.79.77-.78C-73.58,306.29-72.51,306.27-71.44,306.27Z" transform="translate(127.62 -232.08)"/><path class="a" d="M-70.66,295.07c-3.59,0-7.17,0-10.76,0-.92,0-1.23-.21-1.22-1.2,0-5.7,0-11.39,0-17.08,0-1.25,0-1.25,1.26-1.25h20.47c2.28,0,2.28,0,2.28,2.29,0,5.22,0,10.44,0,15.66,0,1.67.22,1.54-1.49,1.54H-70.66ZM-73.12,283h0c0-1.41,0-2.83,0-4.24a1.41,1.41,0,0,0-1.32-1.56,1.37,1.37,0,0,0-1.18,1.52c0,2.68,0,5.35,0,8a5.4,5.4,0,0,0,1.43,4,5.32,5.32,0,0,0,5.37,1.73,5,5,0,0,0,4.1-4.15c.52-3.23.15-6.52.19-9.79a1.12,1.12,0,0,0-1.12-1.18,1.16,1.16,0,0,0-1.24,1.16,6,6,0,0,0,0,.85c0,2.55,0,5.1,0,7.64a3.12,3.12,0,0,1-3.15,3.17,2.89,2.89,0,0,1-3.06-3.17C-73.13,285.62-73.12,284.3-73.12,283Z" transform="translate(127.62 -232.08)"/><path class="a" d="M-31.08,247.35v13c0,1.6,0,1.61-1.56,1.61-3.21,0-6.42,0-9.62,0-.83,0-1.16-.18-1.16-1.1q0-13.53,0-27.07c0-1,.35-1.21,1.27-1.19,3.36,0,6.73,0,10.09,0,.83,0,1,.3,1,1C-31.09,238.24-31.08,242.8-31.08,247.35Z" transform="translate(127.62 -232.08)"/><path class="a" d="M-44.12,247.25c0,4.49,0,9,0,13.49,0,.87-.36,1.2-1.19,1.2H-56.9c-.6,0-.88-.23-.9-.81,0-.78-.09-1.57-.09-2.35q0-12.36,0-24.72c0-1.18.06-1.24,1.21-1.24,3.83,0,7.67,0,11.51,0,.88,0,1.11.31,1.1,1.15,0,4.43,0,8.86,0,13.3Zm-8.13,3.46h0c0,2,0,4.08,0,6.12,0,1,.41,1.4,1.24,1.44a1.26,1.26,0,0,0,1.38-1.41q0-6.17,0-12.33a1.4,1.4,0,0,0-1.44-1.42c-.71,0-1.16.51-1.17,1.39C-52.26,246.57-52.25,248.64-52.25,250.71Zm2.69-10.8a1.29,1.29,0,0,0-1.4-1.49,1.32,1.32,0,0,0-1.45,1.46c0,.89.55,1.39,1.53,1.41A1.31,1.31,0,0,0-49.56,239.91Z" transform="translate(127.62 -232.08)"/><path class="a" d="M-99.53,310.3c0-4.53,0-9.06,0-13.59,0-.68.12-1,.91-1q6,0,12,0c.8,0,1,.32,1,1.07,0,5.85.06,11.7,0,17.55,0,3.23,0,6.46,0,9.69,0,.65-.2.87-.87.87q-6,0-12.07,0c-.79,0-.94-.32-.94-1,0-4.53,0-9.05,0-13.58Zm7.67.18h0V300.11c0-.51,0-1-.62-1.25a1.39,1.39,0,0,0-1.42.17c-.53.39-.41,1-.41,1.57q0,9.38,0,18.76a16.81,16.81,0,0,0,0,1.88,1.1,1.1,0,0,0,1.27,1,1,1,0,0,0,1.14-1,8,8,0,0,0,0-.85Z" transform="translate(127.62 -232.08)"/><path class="a" d="M-71.69,328.46c-4.09,0-8.18,0-12.26,0-.87,0-1.14-.28-1.13-1.14,0-3.49,0-7,0-10.47,0-.7.15-1,.93-1q12.41,0,24.81,0c.58,0,.76.22.75.78,0,3.71,0,7.42,0,11.13,0,.62-.27.71-.8.71C-63.52,328.45-67.6,328.46-71.69,328.46Z" transform="translate(127.62 -232.08)"/><path class="a" d="M-92.66,328.6c-2.07,0-4.14,0-6.21,0-.6,0-.85-.17-.83-.8.08-2.72-.43-2.22,2.2-2.24,3.64,0,7.28,0,10.92,0,.73,0,1,.19,1,1,0,2.09,0,2.09-2.08,2.09Z" transform="translate(127.62 -232.08)"/><path class="a" d="M-126.65,295.82q0,15.24,0,30.48a5.84,5.84,0,0,1-.08.93c-.11.68.3,1,.84,1.13a2.43,2.43,0,0,0,.66,0c7.49,0,15,0,22.46,0,.69,0,1.23-.39,1.89-.41.35,0,.23-.37.28-.6s-.22-.73.34-.81c.19,2,.19,2-1.77,2H-125.7c-1.37,0-1.37,0-1.37-1.32q0-15.22,0-30.47C-127,296.47-127.37,295.9-126.65,295.82Z" transform="translate(127.62 -232.08)"/><path class="a" d="M-100.25,323.44c-.6-.13-.31-.61-.31-.91,0-8.43,0-16.85,0-25.28,0-1.54.09-1.3-1.33-1.3h-23.21a2.76,2.76,0,0,1-1.21-.11c.28-.22.6-.13.91-.13l24.24,0c.57,0,1,0,1,.8q0,13.31,0,26.6A2.25,2.25,0,0,1-100.25,323.44Z" transform="translate(127.62 -232.08)"/><path class="a" d="M-59,295.67a5,5,0,0,1-.64.1H-81.86a4.92,4.92,0,0,1-.64-.09c.21-.37.56-.21.85-.21q10.83,0,21.66,0C-59.67,295.45-59.28,295.29-59,295.67Z" transform="translate(127.62 -232.08)"/><path class="a" d="M-58.67,315V295.75c.46.1.33.48.33.76q0,8.88,0,17.77C-58.34,314.54-58.15,315-58.67,315Z" transform="translate(127.62 -232.08)"/><path class="a" d="M-85.1,314.63c.25.56.76.34,1.16.34,8,0,16,0,24.07,0,.34,0,.68,0,1,.06a1.46,1.46,0,0,1-.92.11q-12.12,0-24.25,0C-84.38,315.15-85.09,315.53-85.1,314.63Z" transform="translate(127.62 -232.08)"/><path class="a" d="M-100.25,326.07a.84.84,0,0,1,0-1.37A3.51,3.51,0,0,1-100.25,326.07Z" transform="translate(127.62 -232.08)"/><path class="a" d="M-83.2,295.69c-.6.25-1.3-.15-1.89.26C-84.55,295.17-83.85,295.57-83.2,295.69Z" transform="translate(127.62 -232.08)"/><path class="a" d="M-58.78,295.61h0Z" transform="translate(127.62 -232.08)"/><path class="a" d="M-42.57,273.28c0,.63,0,1.26,0,1.89A2.94,2.94,0,0,1-45.32,278a2.87,2.87,0,0,1-3.19-2.31,14.8,14.8,0,0,1,0-4.88,2.85,2.85,0,0,1,3.21-2.29,2.88,2.88,0,0,1,2.71,2.76c0,.66,0,1.32,0,2Z" transform="translate(127.62 -232.08)"/><path class="a" d="M-45.54,284.26a4,4,0,0,1,2.4.72,1.21,1.21,0,0,1,0,2.1,4.76,4.76,0,0,1-4.91-.11,1.13,1.13,0,0,1,0-2A4.06,4.06,0,0,1-45.54,284.26Z" transform="translate(127.62 -232.08)"/><path class="a" d="M-65.85,251.22c0,1.92-.06,3.84,0,5.76a5,5,0,0,1-5,5,4.89,4.89,0,0,1-4.73-4.67c-.11-3.89-.11-7.8,0-11.7a4.83,4.83,0,0,1,6.13-4.72,5.13,5.13,0,0,1,3.61,4.33c0,2,0,4,0,6Z" transform="translate(127.62 -232.08)"/><path class="a" d="M-110.81,307.22c0,.6,0,1.2,0,1.79a3,3,0,0,1-2.8,3,2.91,2.91,0,0,1-3.12-2.83,31.45,31.45,0,0,1,0-3.76,2.82,2.82,0,0,1,3.07-2.76,2.83,2.83,0,0,1,2.84,3C-110.8,306.15-110.81,306.69-110.81,307.22Z" transform="translate(127.62 -232.08)"/><path class="a" d="M-113.9,318.26a4.82,4.82,0,0,1,2.59.74,1.16,1.16,0,0,1,.23,1.85,4.49,4.49,0,0,1-5.25.09,1.15,1.15,0,0,1,.2-2A4.61,4.61,0,0,1-113.9,318.26Z" transform="translate(127.62 -232.08)"/><path class="a" d="M-72.31,303.88c-.84,0-1.69,0-2.54,0-.48,0-.59-.22-.54-.65a3.23,3.23,0,0,1,3.18-2.78,3.29,3.29,0,0,1,3.09,2.78c.05.43-.08.65-.54.65C-70.54,303.87-71.42,303.88-72.31,303.88Z" transform="translate(127.62 -232.08)"/></svg>