<svg xmlns="http://www.w3.org/2000/svg" viewBox="0 0 244.66 68.28"><defs><style>.cls-1{fill:#fff;}</style></defs><g id="Layer_2" data-name="Layer 2"><g id="Layer_1-2" data-name="Layer 1"><path class="cls-1" d="M77.61,52.37c.23-.16.44-.32.65-.45a5.29,5.29,0,0,1,6.46.58c.33.3.32.29.69,0a6.67,6.67,0,0,1,5.12-1.35,6.53,6.53,0,0,1,4.25,2.39,6.41,6.41,0,0,1,1.54,4.1c0,2.68,0,5.36,0,8a2.12,2.12,0,0,1-.72,1.77,2,2,0,0,1-2.53-.06,2.08,2.08,0,0,1-.65-1.57c0-2.72,0-5.44,0-8.17a2.57,2.57,0,0,0-1.07-2.24,2.75,2.75,0,0,0-4.15,1.18,2.08,2.08,0,0,0-.15.74q0,4.29,0,8.6a1.91,1.91,0,0,1-1.26,1.84,1.93,1.93,0,0,1-2.57-1.39,2.21,2.21,0,0,1,0-.51c0-2.76,0-5.52,0-8.28A2.58,2.58,0,0,0,80.13,55a2.69,2.69,0,0,0-2.2,1.64,1.39,1.39,0,0,0-.12.57c0,2.87,0,5.74,0,8.6a2,2,0,0,1-1.23,1.94,2,2,0,0,1-2-.37,2,2,0,0,1-.65-1.5V53.27a1.94,1.94,0,0,1,1.79-2,1.89,1.89,0,0,1,1.8.89l.12.19"/><path class="cls-1" d="M122,52.39a5.27,5.27,0,0,1,2.19-1.15,5.15,5.15,0,0,1,2.14-.09,5.27,5.27,0,0,1,3,1.53c.11.11.19.09.29,0a6.27,6.27,0,0,1,1.93-1.14A6.73,6.73,0,0,1,140,54.82a7,7,0,0,1,.72,3.31c0,2.61,0,5.22,0,7.83a1.94,1.94,0,0,1-2.77,1.75,1.88,1.88,0,0,1-1.11-1.77V57.66a2.6,2.6,0,0,0-.75-2,2.64,2.64,0,0,0-1.72-.8,2.68,2.68,0,0,0-2.73,1.61,2.89,2.89,0,0,0-.19,1.42c0,.08,0,.16,0,.24v7.66a1.95,1.95,0,0,1-3.64,1.07,2.1,2.1,0,0,1-.26-1.1q0-3.79,0-7.59a7.08,7.08,0,0,0-.11-1.46,2.23,2.23,0,0,0-1.61-1.61,2.76,2.76,0,0,0-2.75.51,2.29,2.29,0,0,0-.91,1.88c0,2.84,0,5.69,0,8.53a1.94,1.94,0,0,1-3.88-.14V53.31a1.91,1.91,0,0,1,1.87-2,1.83,1.83,0,0,1,1.65.8l.2.3"/><path class="cls-1" d="M38.89,59.59V53.32a1.95,1.95,0,0,1,3.61-1.09c.08.13.12.15.25.05a5.06,5.06,0,0,1,2.66-1.15,5.18,5.18,0,0,1,4.1,1.2,2.74,2.74,0,0,1,.36.32c.12.13.21.14.34,0a6.47,6.47,0,0,1,1.91-1.13,6.67,6.67,0,0,1,3.45-.38,6.73,6.73,0,0,1,5.58,5.23,8.05,8.05,0,0,1,.16,1.54c0,2.66,0,5.31,0,8a1.9,1.9,0,0,1-1.25,1.89,1.93,1.93,0,0,1-2.59-1.42,2.7,2.7,0,0,1,0-.49q0-4.11,0-8.24a2.6,2.6,0,0,0-1.68-2.54,2.74,2.74,0,0,0-3.61,1.63,3.36,3.36,0,0,0-.11.9c0,.6,0,1.19,0,1.79,0,2.16,0,4.32,0,6.49a1.95,1.95,0,1,1-3.89.08V57.85A3.59,3.59,0,0,0,48,56.47a2.42,2.42,0,0,0-1.51-1.32A2.83,2.83,0,0,0,43,56.45a2,2,0,0,0-.24,1c0,2.85,0,5.71,0,8.56a2,2,0,0,1-2.44,1.81,2,2,0,0,1-1.45-2c0-2.1,0-4.2,0-6.3"/><path class="cls-1" d="M30.71,52.45c.19-.22.35-.46.55-.66a1.91,1.91,0,0,1,2.63,0,2,2,0,0,1,.61,1.49q0,6.33,0,12.67a1.94,1.94,0,0,1-3.67.85.58.58,0,0,0-.08-.1,8.65,8.65,0,0,1-4.48,1.49l.18,0H25.33v0l.1,0c-3.8-.36-6.52-2.26-7.75-5.89A8.26,8.26,0,0,1,20,53.28,8.17,8.17,0,0,1,25.21,51a8.56,8.56,0,0,1,5.5,1.46m-.18,7.13a4.68,4.68,0,1,0-4.65,4.7,4.67,4.67,0,0,0,4.65-4.7"/><path class="cls-1" d="M158.07,66.73l-.56.34a8.27,8.27,0,0,1-2.7,1,6.56,6.56,0,0,1-.89.11,5.31,5.31,0,0,1-1.12.07,18.15,18.15,0,0,1-2.08-.39,7.47,7.47,0,0,1-2.42-1.14,8.63,8.63,0,0,1-3.77-6.84,8.41,8.41,0,0,1,.93-4.21A8.54,8.54,0,0,1,150,51.56a8.43,8.43,0,0,1,4.3-.52,8.17,8.17,0,0,1,3.59,1.34c.12.08.19.08.26-.06a2,2,0,0,1,2-1,2,2,0,0,1,1.66,2q0,6.31,0,12.65a1.95,1.95,0,0,1-3.63,1l-.11-.2m-4.85-11.8a4.68,4.68,0,1,0,4.62,4.7,4.66,4.66,0,0,0-4.62-4.7"/><path class="cls-1" d="M207.29,57.64a4.65,4.65,0,0,0-.83-1.27,4.45,4.45,0,0,0-2.1-1.3,4.1,4.1,0,0,0-1.84-.09,4.42,4.42,0,0,0-2.21,1.08,4.64,4.64,0,0,0,3.33,8.11,5.29,5.29,0,0,0,1.85-.31,8.34,8.34,0,0,0,.92-.52,2.38,2.38,0,0,1,1.14-.49,1.76,1.76,0,0,1,1.85,1.22,1.48,1.48,0,0,1-.35,1.67,7.31,7.31,0,0,1-3.14,1.89,9,9,0,0,1-4,.27A7.88,7.88,0,0,1,197,65.12a7.74,7.74,0,0,1-1.45-2.58,8.85,8.85,0,0,1-.39-4.3,8.46,8.46,0,0,1,2.48-4.91,7.75,7.75,0,0,1,3.09-1.85,8.16,8.16,0,0,1,7.95,1.71,8.13,8.13,0,0,1,2.12,3,7.09,7.09,0,0,1,.64,3.24,2.08,2.08,0,0,1-1.49,2,2.16,2.16,0,0,1-.67.08h-7.88a2,2,0,0,1-1.83-1,1.92,1.92,0,0,1,1.17-2.72,2.89,2.89,0,0,1,.59-.08h5.71a.94.94,0,0,0,.23,0"/><path class="cls-1" d="M236.29,51a8.51,8.51,0,0,1,3.75.61,5.7,5.7,0,0,1,2.55,2,2.3,2.3,0,0,1,.44,1.59,2,2,0,0,1-.6,1.12,1.94,1.94,0,0,1-2.69.09,6.54,6.54,0,0,0-1.52-1.2,3.13,3.13,0,0,0-1.43-.36,4.94,4.94,0,0,0-1.66.23,1.06,1.06,0,0,0-.83.91.87.87,0,0,0,.64,1.07,12.2,12.2,0,0,0,1.8.47,19.68,19.68,0,0,1,3.56.87,4.67,4.67,0,0,1,2.45,2,4.59,4.59,0,0,1,.54,1.95,5.22,5.22,0,0,1-.38,2.5,4.61,4.61,0,0,1-1.9,2.17,7.72,7.72,0,0,1-3.16,1,10.12,10.12,0,0,1-3.76-.25,8.39,8.39,0,0,1-3.15-1.37,3,3,0,0,1-1.21-1.67A2.38,2.38,0,0,1,230,63a2.16,2.16,0,0,1,.87-.62,1.62,1.62,0,0,1,1.69.19c.45.3.88.64,1.33,1a4.67,4.67,0,0,0,2.25.8,5.06,5.06,0,0,0,1.86-.08,1.46,1.46,0,0,0,1-.64.94.94,0,0,0-.55-1.37,9.26,9.26,0,0,0-1.64-.45,16.15,16.15,0,0,1-3.74-.94,4.63,4.63,0,0,1-2.31-2.08,5.14,5.14,0,0,1-.53-1.92,5.21,5.21,0,0,1,.58-3,4.94,4.94,0,0,1,2.73-2.31,8.38,8.38,0,0,1,2.75-.55"/><path class="cls-1" d="M183.84,57.11l.39-.14a7.66,7.66,0,0,0,3-2.38A4.62,4.62,0,0,0,188,53a2.23,2.23,0,0,1,1.25-1.55,1.86,1.86,0,0,1,2.62,1.6,4.08,4.08,0,0,1-.73,2.42,12.73,12.73,0,0,1-2.06,2.62c-.33.33-.69.65-1.06,1l.59.51c.67.62,1.37,1.21,2,1.86a6,6,0,0,1,1.56,2.77,4.9,4.9,0,0,1,.18,2,1.6,1.6,0,0,1-1.44,1.48,2,2,0,0,1-2-1.14c-.17-.33-.27-.7-.43-1a7.24,7.24,0,0,0-1.29-2,6.31,6.31,0,0,0-2.29-1.64c-.33-.14-.68-.23-1.05-.35,0,.09,0,.14,0,.18V66a2,2,0,0,1-2.3,1.91A1.89,1.89,0,0,1,179.94,66V50.66a1.94,1.94,0,0,1,3.43-1.22,2,2,0,0,1,.46,1.29v6.21a1.31,1.31,0,0,0,0,.17"/><path class="cls-1" d="M216.45,51.36c0-.35,0-.69,0-1a5,5,0,0,1,.1-1A1.8,1.8,0,0,1,217.94,48a1.94,1.94,0,0,1,2.27,1.21,2.06,2.06,0,0,1,.12.6c0,.46,0,.91,0,1.37v.21h4.6a2,2,0,0,1,1.52.6,1.93,1.93,0,0,1-.71,3.17,2.36,2.36,0,0,1-.83.13c-1.48,0-2.95,0-4.42,0-.14,0-.17,0-.17.17,0,2.28,0,4.55,0,6.83a2,2,0,0,0,1.66,2,4.54,4.54,0,0,0,1.27.07,4.07,4.07,0,0,0,1.08-.41,3,3,0,0,1,1.2-.34A1.4,1.4,0,0,1,227,64.72a2.23,2.23,0,0,1-.8,2.24,4.87,4.87,0,0,1-2.4,1,7.16,7.16,0,0,1-3.56-.11,4.82,4.82,0,0,1-2.9-2.43,6.93,6.93,0,0,1-.77-2.59c-.05-.52-.09-1.05-.1-1.57,0-1.91,0-3.81,0-5.72,0-.3,0-.31-.29-.3a2.36,2.36,0,0,1-1.58-.47,2.07,2.07,0,0,1-.6-2,1.91,1.91,0,0,1,1.31-1.29,4.94,4.94,0,0,1,1-.09h.13"/><path class="cls-1" d="M8,58.91c0,1.15-.05,2.29,0,3.44a1.93,1.93,0,0,0,1.66,1.9,3.8,3.8,0,0,0,1.16.07A4.78,4.78,0,0,0,12,63.91a3.39,3.39,0,0,1,1.26-.36A1.47,1.47,0,0,1,14.66,65a2.42,2.42,0,0,1-1.34,2.35A6.28,6.28,0,0,1,11,68a7.82,7.82,0,0,1-2.16,0,5.05,5.05,0,0,1-3-1.44,6,6,0,0,1-1.33-2.3,10.31,10.31,0,0,1-.42-3.27c0-1.86,0-3.73,0-5.59,0-.18,0-.23-.23-.23a2.16,2.16,0,0,1-1.74-.57,1.94,1.94,0,0,1-.24-2.47,2,2,0,0,1,1.78-.86c.43,0,.42,0,.43-.43s0-.9,0-1.35A1.93,1.93,0,0,1,6.68,48,2,2,0,0,1,8,49.91c0,.42,0,.85,0,1.28,0,.14,0,.17.18.17,1.51,0,3,0,4.51,0a1.93,1.93,0,0,1,.24,3.86c-1.57.06-3.14,0-4.71,0-.17,0-.22,0-.22.21,0,1.15,0,2.3,0,3.45Z"/><path class="cls-1" d="M165.92,59.58V53.33a2,2,0,0,1,1.25-1.92,1.92,1.92,0,0,1,2.36.82c.09.15.16.15.3.09.48-.24.95-.49,1.44-.68a6.21,6.21,0,0,1,2.6-.31,2.66,2.66,0,0,1,1.61.58,2.42,2.42,0,0,1,1,2.44,1.64,1.64,0,0,1-.94,1.1,3.24,3.24,0,0,1-1.74.27,9.66,9.66,0,0,0-1.7,0,2.28,2.28,0,0,0-1.8,1.37,4.54,4.54,0,0,0-.46,2c0,2.2,0,4.41,0,6.61a2.09,2.09,0,0,1-.7,1.71,1.93,1.93,0,0,1-3.14-1,2.17,2.17,0,0,1-.06-.57c0-2.08,0-4.17,0-6.25"/><path class="cls-1" d="M65.8,59.56c0-2.08,0-4.15,0-6.23a1.94,1.94,0,0,1,3.25-1.54,2,2,0,0,1,.64,1.5V65.94a1.95,1.95,0,1,1-3.89,0c0-2.14,0-4.27,0-6.4"/><path class="cls-1" d="M104.67,59.6c0,2.17,0,4.33,0,6.49a1.86,1.86,0,0,1-1.38,1.72,1.94,1.94,0,0,1-2.19-.8,2,2,0,0,1-.31-1.13V53.39a2,2,0,0,1,.79-1.72,1.91,1.91,0,0,1,3,.86,2.4,2.4,0,0,1,.13.8q0,3.14,0,6.27Z"/><path class="cls-1" d="M100.59,48.55a2.15,2.15,0,1,1,2.17,2.12,2.12,2.12,0,0,1-2.17-2.12"/><path class="cls-1" d="M69.88,48.6a2.15,2.15,0,1,1-2.09-2.22,2.13,2.13,0,0,1,2.09,2.22"/><path class="cls-1" d="M119.27,46.7A4.52,4.52,0,0,0,121.88,45a3.16,3.16,0,0,0,.5-1.7c.36-3-2.66-4.26-4.3-6.07A9.27,9.27,0,0,1,117,35.7a7.17,7.17,0,0,1-.29-7c1.6-2.84,5.16-3.73,8.18-3.56a4.11,4.11,0,0,0-3.32,3.16,3.5,3.5,0,0,0,.12,1.65,6.82,6.82,0,0,0,1.6,2.31c2.49,1.78,4.63,3.91,5,6.93a6.45,6.45,0,0,1-2.79,5.87,7.45,7.45,0,0,1-1.55.91,10.18,10.18,0,0,1-4.64.7"/><rect class="cls-1" x="136.02" y="34.07" width="108.27" height="3.61"/><rect class="cls-1" x="0.03" y="34.07" width="107.86" height="3.66"/><path class="cls-1" d="M242,1.88l1.75,0,.88-1.9h-3c-2.4.15-2.32,1.84-2.18,2.52h-1V4.23h6.2V2.52h-2.9c-.32-.48.27-.64.27-.64"/><rect class="cls-1" x="240.07" y="5.26" width="4" height="13.99"/><path class="cls-1" d="M232.52,15.81H229V9.58h-3.8v6.23h-3.5V9.58h-3.79v6.23H187.41V8.5c-4.09-.14-11.74.91-11.85,6.06s8.06,4.75,8.06,4.75c.59,3.2-4.15,2.72-4.15,2.72v2.85c7.7.65,7.94-5.57,7.94-5.57v-.06h48.91V9.58h-3.8Zm-48.67,0s-3.79.62-4.38-1.69c0,0-.24-2.25,4.38-2.31Z"/><rect class="cls-1" x="166.96" y="3.83" width="3.85" height="15.47"/><path class="cls-1" d="M150.3,13.85c-.83,6.4,7.77,5.43,7.77,5.43-.71,1.94-6.85,2-6.85,2-6.67.36-7-4.62-7-4.62h-3.86c2,8.36,11,7.35,11,7.35,10.55-.12,10.79-5.1,10.79-5.1V8.58s-11-1.13-11.8,5.27M158.25,16s-3.8.62-4.39-1.69c0,0-.24-2.26,4.39-2.32Z"/><path class="cls-1" d="M10.54,21.86a1.78,1.78,0,0,0-1.91,1.62,1.78,1.78,0,0,0,1.91,1.62,1.79,1.79,0,0,0,1.91-1.62,1.78,1.78,0,0,0-1.91-1.62"/><path class="cls-1" d="M5.65,21.86a1.78,1.78,0,0,0-1.91,1.62A1.78,1.78,0,0,0,5.65,25.1a1.79,1.79,0,0,0,1.91-1.62,1.78,1.78,0,0,0-1.91-1.62"/><path class="cls-1" d="M159.53,7.08a1.79,1.79,0,0,0,1.91-1.62,1.93,1.93,0,0,0-3.82,0,1.78,1.78,0,0,0,1.91,1.62"/><path class="cls-1" d="M154.64,7.08a1.79,1.79,0,0,0,1.91-1.62,1.93,1.93,0,0,0-3.82,0,1.78,1.78,0,0,0,1.91,1.62"/><path class="cls-1" d="M63.45,20.59a1.78,1.78,0,0,0-1.91,1.62,1.94,1.94,0,0,0,3.82,0,1.78,1.78,0,0,0-1.91-1.62"/><path class="cls-1" d="M58.56,20.59a1.78,1.78,0,0,0-1.91,1.62,1.94,1.94,0,0,0,3.82,0,1.78,1.78,0,0,0-1.91-1.62"/><path class="cls-1" d="M106,7.61A1.78,1.78,0,0,0,107.89,6a1.94,1.94,0,0,0-3.82,0A1.78,1.78,0,0,0,106,7.61"/><path class="cls-1" d="M101.09,7.61A1.78,1.78,0,0,0,103,6a1.94,1.94,0,0,0-3.83,0,1.79,1.79,0,0,0,1.92,1.62"/><path class="cls-1" d="M117.76,15.81H105.31V9.48h-3.82v6.33H88.92V8.4c-12.73-.24-12,6.32-11.74,7.41H62.94V9.52H59.07v6.29H43.62V8.49c-12.41-.23-12,6-11.76,7.32H23L16.66,7.87a3.3,3.3,0,0,0-4.06-.51C10.14,8.67,8.45,9.47,8.45,9.47s-3.59,2.19.32,4.77l2.51,1.64c.33.32,1.41,1.59-1.41,2.18-3.23.68-5.57-.44-5.81-2s0-1.9,0-1.9l-4,0a5.9,5.9,0,0,0,4.19,6.52c5.09,1.87,10.75-1.1,11.31-2.58a2.53,2.53,0,0,0-.35-3c-1.37-1.28-3.44-3-3.44-3s-.66-.23.32-.88,1.37-.95,2-.48,6.73,8.63,6.73,8.63l2.28,0h98.49V3.88h-3.82V15.81ZM35.41,14c.41-2.4,4.42-2.08,4.42-2.08v3.85H37c-1-.24-1.77-.74-1.59-1.77m45.3-.1c.42-2.4,4.42-2.07,4.42-2.07v3.94H82.77c-1.16-.18-2.27-.66-2.06-1.87"/><rect class="cls-1" x="126.92" y="3.88" width="3.82" height="15.4"/></g></g></svg>