<svg xmlns="http://www.w3.org/2000/svg" viewBox="0 0 257.93 71.98"><defs><style>.cls-1{fill:#010101;}.cls-2{fill:#ed2225;}</style></defs><g id="Layer_2" data-name="Layer 2"><g id="Layer_1-2" data-name="Layer 1"><path class="cls-1" d="M81.82,55.21l.69-.48a5.58,5.58,0,0,1,6.81.62c.34.31.33.3.72,0a7,7,0,0,1,5.4-1.43,6.89,6.89,0,0,1,4.48,2.52,6.66,6.66,0,0,1,1.62,4.33c0,2.82,0,5.65,0,8.48a2.28,2.28,0,0,1-.77,1.86,2.06,2.06,0,0,1-2.67-.07,2.17,2.17,0,0,1-.68-1.65c0-2.87,0-5.74,0-8.61a2.74,2.74,0,0,0-1.13-2.37A2.89,2.89,0,0,0,92,59.66a2.14,2.14,0,0,0-.16.79q0,4.53,0,9.06a2,2,0,0,1-4,.48,3.31,3.31,0,0,1-.06-.54c0-2.91,0-5.81,0-8.72A2.73,2.73,0,0,0,84.47,58a2.85,2.85,0,0,0-2.32,1.73,1.54,1.54,0,0,0-.12.61q0,4.53,0,9.06a2,2,0,0,1-3.43,1.65,2.07,2.07,0,0,1-.68-1.57c0-4.44,0-8.88,0-13.32a2,2,0,0,1,1.88-2.09,2,2,0,0,1,1.9.94l.13.2"/><path class="cls-1" d="M128.61,55.22a5.66,5.66,0,0,1,4.57-1.3,5.62,5.62,0,0,1,3.12,1.62c.11.11.2.09.31,0a6.63,6.63,0,0,1,2-1.21,7.11,7.11,0,0,1,8.93,3.46,7.41,7.41,0,0,1,.76,3.49c0,2.75,0,5.51,0,8.26a2,2,0,0,1-2.92,1.84,2,2,0,0,1-1.17-1.87q0-4.37,0-8.72a2.73,2.73,0,0,0-.8-2.07,2.68,2.68,0,0,0-1.81-.84,2.82,2.82,0,0,0-2.88,1.7,3.14,3.14,0,0,0-.2,1.49c0,.08,0,.17,0,.25,0,2.69,0,5.38,0,8.07a2.08,2.08,0,0,1-1.11,2,2.06,2.06,0,0,1-2.74-.82,2.33,2.33,0,0,1-.27-1.16c0-2.67,0-5.34,0-8a7.83,7.83,0,0,0-.12-1.53,2.35,2.35,0,0,0-1.7-1.7,2.9,2.9,0,0,0-2.89.53,2.39,2.39,0,0,0-1,2q0,4.5,0,9a2,2,0,0,1-4.09-.15V56.2a2,2,0,0,1,2-2.13,1.92,1.92,0,0,1,1.74.84l.21.31"/><path class="cls-1" d="M41,62.82V56.21a2,2,0,0,1,3.8-1.15c.09.14.13.16.27,0a5.36,5.36,0,0,1,2.8-1.21,5.48,5.48,0,0,1,4.32,1.26,2.55,2.55,0,0,1,.38.35c.13.14.23.14.36,0a6.88,6.88,0,0,1,2-1.2,7.2,7.2,0,0,1,6.81.92,6.93,6.93,0,0,1,2.7,4.2,8.83,8.83,0,0,1,.18,1.62c0,2.8,0,5.6,0,8.39a2,2,0,0,1-1.31,2A2,2,0,0,1,60.6,70a2.15,2.15,0,0,1-.05-.51c0-2.89,0-5.79,0-8.68a2.73,2.73,0,0,0-1.77-2.68A2.88,2.88,0,0,0,55,59.79a3.35,3.35,0,0,0-.12,1c0,.63,0,1.26,0,1.89q0,3.42,0,6.84a2.07,2.07,0,0,1-1.9,2.1,2,2,0,0,1-2.21-2V61a3.81,3.81,0,0,0-.22-1.46A2.52,2.52,0,0,0,49,58.14a3,3,0,0,0-3.63,1.36,2.08,2.08,0,0,0-.25,1.09c0,3,0,6,0,9a2.06,2.06,0,0,1-2.58,1.9A2.11,2.11,0,0,1,41,69.46c0-2.21,0-4.43,0-6.64"/><path class="cls-1" d="M32.38,55.3c.2-.24.36-.49.57-.7a2,2,0,0,1,2.78,0,2.13,2.13,0,0,1,.64,1.57q0,6.67,0,13.36a2,2,0,0,1-3.87.89l-.08-.11a9,9,0,0,1-4.73,1.58l.19,0H26.7v0l.11,0c-4-.38-6.88-2.38-8.17-6.21a8.7,8.7,0,0,1,2.43-9.55,8.51,8.51,0,0,1,5.51-2.41,9,9,0,0,1,5.8,1.54m-.2,7.51a4.93,4.93,0,1,0-4.9,5,4.91,4.91,0,0,0,4.9-5"/><path class="cls-1" d="M166.64,70.35l-.59.35a8.82,8.82,0,0,1-2.85,1.09c-.3.06-.62.08-.93.11a5.32,5.32,0,0,1-1.19.07,18,18,0,0,1-2.19-.41,8,8,0,0,1-2.56-1.2,9,9,0,0,1-3.19-3.85,9.15,9.15,0,0,1,.2-7.8,9.14,9.14,0,0,1,9.33-4.91,8.67,8.67,0,0,1,3.78,1.42c.13.09.2.08.27-.06a2,2,0,0,1,3.86,1V69.47a2,2,0,0,1-3.82,1.09l-.12-.21m-5.11-12.44a4.93,4.93,0,1,0,4.87,5,4.92,4.92,0,0,0-4.87-5"/><path class="cls-1" d="M218.53,60.77a5,5,0,0,0-.88-1.34,4.61,4.61,0,0,0-2.22-1.37,4.34,4.34,0,0,0-1.93-.1,4.69,4.69,0,0,0-2.33,1.14,4.76,4.76,0,0,0-1.41,2.22,4.88,4.88,0,0,0,4.92,6.33,5.83,5.83,0,0,0,1.95-.33,6.69,6.69,0,0,0,1-.55,2.75,2.75,0,0,1,1.2-.52,1.89,1.89,0,0,1,2,1.29,1.58,1.58,0,0,1-.38,1.77,7.75,7.75,0,0,1-3.31,2,9.18,9.18,0,0,1-4.23.29,8.45,8.45,0,0,1-6.67-5.65,9.47,9.47,0,0,1-.41-4.54,8.88,8.88,0,0,1,2.62-5.16,8,8,0,0,1,3.25-2,8.38,8.38,0,0,1,3.88-.32,8.76,8.76,0,0,1,6.74,5.28,7.62,7.62,0,0,1,.68,3.42,2.18,2.18,0,0,1-1.58,2.07,2.39,2.39,0,0,1-.71.1h-8.3a2,2,0,0,1-.69-3.95,3.21,3.21,0,0,1,.61-.09h6.27"/><path class="cls-1" d="M249.1,53.8a9,9,0,0,1,4,.64,6,6,0,0,1,2.68,2.13,2.37,2.37,0,0,1,.46,1.67,2.17,2.17,0,0,1-.63,1.19,2,2,0,0,1-2.84.09,6.75,6.75,0,0,0-1.6-1.26,3.18,3.18,0,0,0-1.5-.38,4.94,4.94,0,0,0-1.75.24,1.13,1.13,0,0,0-.88,1,.92.92,0,0,0,.67,1.12,15.66,15.66,0,0,0,1.9.51,19.92,19.92,0,0,1,3.75.91,4.54,4.54,0,0,1,3.16,4.17,5.56,5.56,0,0,1-.4,2.64,5,5,0,0,1-2,2.29,8.18,8.18,0,0,1-3.34,1.09,10.56,10.56,0,0,1-4-.26,8.86,8.86,0,0,1-3.33-1.45,3.11,3.11,0,0,1-1.27-1.76,2.5,2.5,0,0,1,.27-2,2.29,2.29,0,0,1,.91-.65,1.71,1.71,0,0,1,1.78.2c.48.32.94.68,1.4,1a4.89,4.89,0,0,0,2.38.85,5.38,5.38,0,0,0,2-.08,1.53,1.53,0,0,0,1.07-.68,1,1,0,0,0-.58-1.44,9.34,9.34,0,0,0-1.72-.48,16.64,16.64,0,0,1-3.94-1A4.77,4.77,0,0,1,243.27,62a5.35,5.35,0,0,1-.56-2,5.5,5.5,0,0,1,.61-3.11,5.29,5.29,0,0,1,2.88-2.44,9.13,9.13,0,0,1,2.9-.57"/><path class="cls-1" d="M193.8,60.2a2.74,2.74,0,0,0,.41-.15,7.91,7.91,0,0,0,3.14-2.5,5.05,5.05,0,0,0,.84-1.65,2.32,2.32,0,0,1,1.32-1.63A2,2,0,0,1,202.28,56a4.43,4.43,0,0,1-.77,2.55,13.88,13.88,0,0,1-2.18,2.76c-.35.35-.73.68-1.12,1l.62.53c.71.65,1.45,1.28,2.13,2a6.36,6.36,0,0,1,1.65,2.92,5.46,5.46,0,0,1,.19,2.09,1.7,1.7,0,0,1-1.52,1.56,2.09,2.09,0,0,1-2.13-1.2c-.18-.35-.29-.74-.45-1.1a7.8,7.8,0,0,0-1.36-2.1,6.69,6.69,0,0,0-2.42-1.73c-.35-.14-.72-.24-1.1-.36,0,.09,0,.14,0,.19,0,1.48,0,3,0,4.45a2.06,2.06,0,0,1-2.42,2,2,2,0,0,1-1.67-2c0-5.38,0-10.77,0-16.15a2.05,2.05,0,1,1,4.1.07V60s0,.09,0,.17"/><path class="cls-1" d="M228.18,54.14c0-.37,0-.73,0-1.08a4.92,4.92,0,0,1,.1-1.09,1.9,1.9,0,0,1,1.46-1.41,2,2,0,0,1,2.4,1.28,2,2,0,0,1,.12.63c0,.48,0,1,0,1.44v.23h4.86a2.1,2.1,0,0,1,1.6.63,2,2,0,0,1-.76,3.34,2.56,2.56,0,0,1-.87.14h-4.66c-.14,0-.17,0-.17.18,0,2.4,0,4.8,0,7.19A2.07,2.07,0,0,0,234,67.73a5,5,0,0,0,1.33.07,4.55,4.55,0,0,0,1.14-.44,3.31,3.31,0,0,1,1.26-.36,1.5,1.5,0,0,1,1.52,1.23,2.35,2.35,0,0,1-.85,2.36,5.11,5.11,0,0,1-2.52,1.07,7.72,7.72,0,0,1-3.76-.11A5.05,5.05,0,0,1,229.1,69a7.12,7.12,0,0,1-.81-2.74c0-.55-.1-1.1-.1-1.65q0-3,0-6c0-.32,0-.32-.31-.32a2.41,2.41,0,0,1-1.65-.49,2.17,2.17,0,0,1-.64-2.16A2,2,0,0,1,227,54.24a5.49,5.49,0,0,1,1.08-.1h.14"/><path class="cls-1" d="M8.41,62.11c0,1.2-.05,2.41,0,3.62a2,2,0,0,0,1.75,2,3.85,3.85,0,0,0,1.22.06,5.12,5.12,0,0,0,1.21-.42A3.4,3.4,0,0,1,13.93,67a1.53,1.53,0,0,1,1.52,1.49A2.53,2.53,0,0,1,14,71a6.69,6.69,0,0,1-2.44.76,8.29,8.29,0,0,1-2.28,0,5.3,5.3,0,0,1-3.17-1.52,6.07,6.07,0,0,1-1.4-2.42,10.33,10.33,0,0,1-.44-3.45V58.49c0-.19,0-.25-.24-.24a2.31,2.31,0,0,1-1.84-.6A2.07,2.07,0,0,1,2,55a2.12,2.12,0,0,1,1.88-.9c.45,0,.45,0,.45-.46s0-1,0-1.42A2,2,0,0,1,7,50.61a2.09,2.09,0,0,1,1.36,2c0,.45,0,.9,0,1.35,0,.15,0,.18.2.18h4.74a2,2,0,0,1,.26,4.08c-1.65.06-3.31,0-5,0-.17,0-.23,0-.23.21,0,1.22,0,2.43,0,3.65Z"/><path class="cls-1" d="M174.92,62.81V56.22a2.05,2.05,0,0,1,1.32-2,2,2,0,0,1,2.48.86c.1.16.17.16.32.09.5-.24,1-.51,1.52-.71a6.7,6.7,0,0,1,2.74-.33,2.82,2.82,0,0,1,1.7.61,2.55,2.55,0,0,1,1,2.58,1.72,1.72,0,0,1-1,1.16,3.61,3.61,0,0,1-1.84.29,9.73,9.73,0,0,0-1.79,0,2.45,2.45,0,0,0-1.9,1.44,4.76,4.76,0,0,0-.49,2.1c0,2.32,0,4.65,0,7a2.22,2.22,0,0,1-.74,1.81A2,2,0,0,1,175,70a2.4,2.4,0,0,1-.07-.6V62.81"/><path class="cls-1" d="M69.37,62.79c0-2.19,0-4.38,0-6.57a2,2,0,1,1,4.09,0V69.51a2,2,0,1,1-4.09,0V62.79"/><path class="cls-1" d="M110.35,62.83c0,2.28,0,4.56,0,6.84a2,2,0,0,1-1.45,1.82,2,2,0,0,1-2.31-.85,2.16,2.16,0,0,1-.33-1.19c0-4.39,0-8.77,0-13.16a2.15,2.15,0,0,1,.83-1.82,2,2,0,0,1,3.12.9,3.09,3.09,0,0,1,.14.85c0,2.21,0,4.41,0,6.61Z"/><path class="cls-1" d="M106,51.18a2.26,2.26,0,1,1,2.29,2.24A2.25,2.25,0,0,1,106,51.18"/><path class="cls-1" d="M73.67,51.23a2.26,2.26,0,1,1-2.2-2.34,2.23,2.23,0,0,1,2.2,2.34"/><path class="cls-2" d="M125.74,49.23a4.73,4.73,0,0,0,2.74-1.78,3.3,3.3,0,0,0,.54-1.79c.37-3.19-2.82-4.5-4.54-6.4a9.83,9.83,0,0,1-1.16-1.62,7.52,7.52,0,0,1-.3-7.35c1.69-3,5.43-3.94,8.62-3.75a4.36,4.36,0,0,0-3.51,3.32,3.75,3.75,0,0,0,.14,1.74A7,7,0,0,0,130,34c2.63,1.87,4.88,4.12,5.25,7.31a6.78,6.78,0,0,1-2.94,6.18,7.78,7.78,0,0,1-1.63,1,10.64,10.64,0,0,1-4.89.74"/><rect class="cls-2" x="143.39" y="35.91" width="114.14" height="3.8"/><rect class="cls-2" x="0.03" y="35.91" width="113.7" height="3.86"/><path class="cls-2" d="M255.15,2,257,2l.94-2h-3.19c-2.53.16-2.44,1.94-2.3,2.66h-1.05v1.8h6.54V2.66h-3.06c-.35-.51.28-.68.28-.68"/><rect class="cls-2" x="253.08" y="5.54" width="4.22" height="14.75"/><path class="cls-2" d="M245.13,16.67h-3.75V10.1h-4v6.57h-3.69V10.1h-4v6.57H197.57V9c-4.31-.14-12.37,1-12.5,6.39s8.5,5,8.5,5c.63,3.38-4.37,2.88-4.37,2.88v3c8.12.68,8.37-5.87,8.37-5.87v-.07h51.56V10.1h-4Zm-51.31,0s-4,.66-4.62-1.78c0,0-.25-2.37,4.62-2.43Z"/><rect class="cls-2" x="176.01" y="4.04" width="4.06" height="16.31"/><path class="cls-2" d="M158.45,14.6c-.87,6.75,8.19,5.73,8.19,5.73-.75,2-7.22,2.15-7.22,2.15-7,.37-7.41-4.88-7.41-4.88H148c2.06,8.81,11.56,7.75,11.56,7.75,11.13-.12,11.38-5.37,11.38-5.37V9s-11.56-1.19-12.44,5.56m8.37,2.22s-4,.66-4.62-1.78c0,0-.25-2.37,4.62-2.44Z"/><path class="cls-2" d="M11.11,23a1.89,1.89,0,0,0-2,1.71,1.88,1.88,0,0,0,2,1.71,1.87,1.87,0,0,0,2-1.71,1.88,1.88,0,0,0-2-1.71"/><path class="cls-2" d="M6,23a1.88,1.88,0,0,0-2,1.71,1.87,1.87,0,0,0,2,1.71,1.88,1.88,0,0,0,2-1.71A1.88,1.88,0,0,0,6,23"/><path class="cls-2" d="M168.18,7.46a1.87,1.87,0,0,0,2-1.71,2,2,0,0,0-4,0,1.88,1.88,0,0,0,2,1.71"/><path class="cls-2" d="M163,7.46a1.88,1.88,0,0,0,2-1.71,2,2,0,0,0-4,0,1.88,1.88,0,0,0,2,1.71"/><path class="cls-2" d="M66.89,21.7a1.88,1.88,0,0,0-2,1.71,2,2,0,0,0,4,0,1.89,1.89,0,0,0-2-1.71"/><path class="cls-2" d="M61.74,21.7a1.88,1.88,0,0,0-2,1.71,2,2,0,0,0,4,0,1.88,1.88,0,0,0-2-1.71"/><path class="cls-2" d="M111.72,8a1.89,1.89,0,0,0,2-1.72,2,2,0,0,0-4,0,1.88,1.88,0,0,0,2,1.72"/><path class="cls-2" d="M106.57,8a1.88,1.88,0,0,0,2-1.72,2,2,0,0,0-4,0,1.89,1.89,0,0,0,2,1.72"/><path class="cls-2" d="M124.14,16.67H111V10h-4v6.68H93.74V8.86c-13.42-.26-12.6,6.66-12.38,7.81h-15V10H62.27v6.63H46V9c-13.07-.25-12.63,6.32-12.39,7.72H24.22L17.56,8.29a3.48,3.48,0,0,0-4.28-.53C10.69,9.14,8.91,10,8.91,10s-3.78,2.31.34,5l2.65,1.73c.34.34,1.47,1.67-1.49,2.3-3.41.72-5.88-.47-6.13-2.12s0-2,0-2l-4.22,0a6.24,6.24,0,0,0,4.42,6.88c5.36,2,11.33-1.16,11.93-2.72A2.67,2.67,0,0,0,16,15.85c-1.44-1.34-3.62-3.15-3.62-3.15s-.7-.25.34-.94,1.44-1,2.09-.5,7.1,9.09,7.1,9.09l2.4,0H128.17V4.09h-4V16.67ZM37.33,14.8c.44-2.53,4.65-2.19,4.65-2.19v4.06H39c-1-.25-1.86-.78-1.67-1.87m47.76-.1c.43-2.53,4.65-2.19,4.65-2.19v4.16H87.25c-1.22-.2-2.38-.7-2.16-2"/><rect class="cls-2" x="133.8" y="4.09" width="4.03" height="16.24"/></g></g></svg>