<svg xmlns="http://www.w3.org/2000/svg" viewBox="0 0 263.95 74.27"><defs><style>.cls-1{fill:none;}.cls-2{fill:#fff;}</style></defs><g id="Layer_2" data-name="Layer 2"><g id="Layer_1-2" data-name="Layer 1"><g id="Group_212" data-name="Group 212"><path id="Path_444" data-name="Path 444" class="cls-1" d="M151.57,19.56h0Z"/><path id="Path_445" data-name="Path 445" class="cls-2" d="M51.28,34.55c-2.34-.75-4.86,1.74-5.61,5.33s.8,6.89,2.87,7.59c2.37.8,4.86-1.34,5.63-5.15C54.89,38.72,53.36,35.22,51.28,34.55Z"/><path id="Path_446" data-name="Path 446" class="cls-2" d="M261.79,38.74a20.93,20.93,0,0,0-4.86-5.12,7.25,7.25,0,0,0,1.84-1.31c2.8-2.67,4.23-7.16,1.75-10-6.87-8-18.42-9-25.18-5.38a18.75,18.75,0,0,0-6.57,5.52,6.29,6.29,0,0,0-5.7-3.75,36.47,36.47,0,0,0-4,.17,6.44,6.44,0,0,0-6,6,5.86,5.86,0,0,0-2.53-2.54,38.53,38.53,0,0,0-4.12-1.66L204.76,20l.06,0A6.9,6.9,0,0,0,196,22.85a38.9,38.9,0,0,0-4,8.31c.54-7.31.64-12.66.65-13.17a.91.91,0,0,1,0,.17c.33-5.18-1.53-8.32-6.41-10.83C170-1,154.84-1.12,146,1.53a24.94,24.94,0,0,0-17.6,19.36c-7.65-4.37-14.71-3.9-19.55-1.59A5,5,0,0,0,108,16c-1.44-2.06-4-2.19-4.9-2.24-2.82-.15-5.33-.15-6.58-.14l-.57,0a6.28,6.28,0,0,0-6.37,3l0,.09c-1.47,2.75-3.15,5.83-4.41,8L78.9,16.61l-.13-.16-.08-.08c-1.8-2.13-4-2.56-7-1.37-2.1.84-5.1,2.13-7.09,3.14a5.76,5.76,0,0,0-3.29,3.6,4.65,4.65,0,0,0-.13,1.53,20.3,20.3,0,0,0-5.8-1.72,21.11,21.11,0,0,0-9.44.8,26.1,26.1,0,0,0-1.45-7.52l-.08-.18C43,11.58,40.55,10.33,37,10.93,24.7,13,20.29,13.26,6.75,13.37,1.87,13.42.65,16.42.36,17.7-.1,19.63-.08,28.19.2,30.05c.77,5.13,5.49,5,7,5,2.31,0,3.93-.15,5.23-.22l.61,0a154.83,154.83,0,0,0,3.69,23l0,.09c1.43,6,6.24,5.46,7.68,5.15,1.7-.37,7.65-2,9.88-2.9a5.32,5.32,0,0,0,3.44-4.91v-.53A18.84,18.84,0,0,0,42,58a20.09,20.09,0,0,0,15.17,2,24.9,24.9,0,0,0,8.23-4.05A10.87,10.87,0,0,0,66.79,58c.93,1.11,5.83,6.68,10.73,7.37a6.1,6.1,0,0,0,3.76-.55l.11,0C85,63.25,90.05,57,96.46,46.29l.8-1.36a10.15,10.15,0,0,0-.63,2.42A6.12,6.12,0,0,0,98.88,53l.38.34a26,26,0,0,0,17.45,7.5,21.1,21.1,0,0,0,7.55-1.15,7.21,7.21,0,0,0,1.93,4.65l.06.07c.58.65,5.78,6.38,10.17,8.31,5.82,2.55,8.51,2.1,13.11-2.2,2.12-2,6-6.83,10.72-14.64-.24,2.42-.59,5.86-.7,6.77-.36,2.71-.56,5.55,1.32,7.71,1.71,2,4.26,2.24,6,2.26h.24c.34,0,8.39-.46,11.35-.88,5.09-.69,6.41-2.34,7.58-6l.26-.83a101.07,101.07,0,0,0,3.6-15.74,15.63,15.63,0,0,0,7.08,9.7c5.5,3.34,12.52,3.12,18.77-.57a22.73,22.73,0,0,0,6.63-6c.17.29.35.55.52.79l.14.2c2.1,3.08,8.87,9.12,19.46,9.92,3.74.27,10.75.05,15.76-4.6a18.3,18.3,0,0,0,5.34-9.36A13.8,13.8,0,0,0,261.79,38.74ZM29.4,30.81c.25,7.05,2.51,16.35,4.11,21.56.68,2.19,1,3.75-.5,4.33-2,.79-7.79,2.4-9.33,2.73C21,60,20.63,58,20.38,57a152.39,152.39,0,0,1-3.6-22.47C16.67,32.66,16.1,31,14.45,31s-3.6.25-7.3.33c-2,0-3-.08-3.28-1.84a72.91,72.91,0,0,1,.1-11c.29-1.24,1.69-1.43,2.81-1.44,13.77-.12,18.42-.39,30.84-2.5,2.8-.48,3,1,3.48,1.88a24.57,24.57,0,0,1,1.07,5.82c-.05,1,.44,2.52-1.23,3-5.24,1.51-6.6,2-10.08,3.06C29.26,28.85,29.36,29.55,29.4,30.81ZM56.06,56.35A15.9,15.9,0,0,1,36.53,45.2c-.05-.19-.1-.37-.14-.56A15.39,15.39,0,0,1,38.74,32,16.57,16.57,0,0,1,54.8,25.23,16.17,16.17,0,0,1,66.57,33a15.18,15.18,0,0,1,2.16,10.08c-1.12,6.71-5.26,11-12.67,13.24Zm23.86,5a2.56,2.56,0,0,1-1.89.33c-3.18-.44-7.13-4.56-8.4-6.08-.57-.67-1.79-2.22-.8-3,3.73-3.09,8.37-7.8,8.59-10.55a2.64,2.64,0,0,0-.35-1.53c-.35-.48-10-13.71-11-15.13-1.66-2.41-1.65-3,.18-3.9s4.74-2.19,6.78-3,2.36-.25,2.93.43l8.69,11.32a1.12,1.12,0,0,0,1.57-.12l.09-.12c1.1-1.35,5.81-10.13,6.54-11.51.87-1.54,2.3-1.12,3.73-1.13s3.89,0,6.36.13,2.6.82,1.87,3.16C101.2,32.23,85.9,58.81,79.92,61.36Zm37-4.25a22.69,22.69,0,0,1-15.52-6.9,2.41,2.41,0,0,1-1-2.4c.28-2.33,2.21-4.91,3.52-4.16,2.33,1.33,4.62,4,7.57,4.63,1.62.34,3,.09,3.62-1.29.42-.94.08-2.18-2.24-3.21-1.93-.86-9.64-4.67-9.52-10.44.09-4.26,2-7.43,5.87-9.95,4.28-2.75,12-3.61,20.38,2.67,1.69,1.26-1,6.24-3.05,5-3.75-2.35-6-2.68-7.3-2.25-1.5.52-3.51,3.24,2.84,5.95,3.91,1.67,6.14,3.57,7.36,5.49A10,10,0,0,1,131,46.76a11.21,11.21,0,0,1-3.16,6.29c-3.4,3.73-8.88,4.15-11,4.06Zm72-39.17s-.47,28.9-6.07,45.75c-1.05,3.15-.83,3.8-4.83,4.34-2.84.4-11,.85-11,.85-3.81,0-4.25-1.51-3.69-5.76.2-1.48.89-8.62.89-8.62.48-7.42-3.05-7.34-5.69-2.83-5.09,8.68-9.31,14.12-11.45,16.12-3.38,3.17-4.52,3.51-9.07,1.51-3.78-1.66-8.88-7.38-8.88-7.38-2.3-2.71-.49-3.62,2.3-5.82,4.65-3.65,7.28-8.7,8.69-11.27,1.15-2.06,1.72-3.35.81-4C125.71,30.7,130.76,10,147.07,5.08c8.82-2.64,23-1.86,37.37,5.55,3.43,1.77,4.66,3.42,4.41,7.3Zm25,37.1c-5.05,3-10.64,3.21-15,.6A12.49,12.49,0,0,1,193.13,44a39.57,39.57,0,0,1,5.93-19.16,3.25,3.25,0,0,1,4.39-1.4h0l1.67.63c1.38.5,3,1.08,3.68,1.46,1.23.65,1.61,2.32.87,3.88l-.52,1a30,30,0,0,0-3.69,10.62c-.2,1.85.66,3.68,2,4.24,1.52.62,3.82-.35,5.75-2.79,2.95-3.71,3.41-9.71,3.48-16.5v-.48a2.8,2.8,0,0,1,2.6-3,30.45,30.45,0,0,1,3.57-.15,2.63,2.63,0,0,1,2.72,2.55v.22c.31,7.29-.9,23.47-11.76,29.89ZM260,48.4a14.4,14.4,0,0,1-4.24,7.38c-4.23,3.95-10.52,3.8-12.94,3.62-8.75-.66-14.79-5.55-16.67-8.3-.73-1.08-1.2-1.64-1-2.85.54-2.63,4-6.4,5.13-5.09,1.93,2.25,3.12,3.37,5.47,4.31,2.14.86,5,1.28,6.09-.22.66-1,.57-2.56-2-4-2.13-1.16-11.07-5.74-10.39-12.31.5-4.87,2.92-8.31,7.63-10.83,5.13-2.75,14.86-2.13,20.6,4.53,1.57,1.83-2.2,7.19-4,5.46-3.58-3.41-8.16-4-9.51-3.18s-2.68,2.63,3.75,5.65c4.41,2.08,8.39,4.5,10.77,8.16a10.1,10.1,0,0,1,1.3,7.64Z"/><path id="Path_447" data-name="Path 447" class="cls-2" d="M173.81,23.68l-5.59-2c-1.81-.58-2.05-1.25-2.4-2.26-.53-1.47-1.66-5-1.66-5-.79-2.67-2-1.06-2.49-.41.61-.78-2.33,2.9-3.33,4.48a2.28,2.28,0,0,1-2.06,1.2l-6.19-.15c-3.56-.17-1.42,2.37-1.42,2.37.59.85,3.2,4.3,3.5,4.65a2.9,2.9,0,0,1,.48,2.71c-.26.76-1.05,3.12-2.22,6s2,1.6,2,1.6l5.42-2.17a2.76,2.76,0,0,1,3.16.65l4,3.49c2.07,1.82,2.36,0,2.37-.63s.21-5.34.24-6a2.55,2.55,0,0,1,1.1-2.34c.13-.1,5.21-3.59,5.21-3.59C176.43,24.48,173.81,23.68,173.81,23.68Zm-22.25-4.12h0Z"/></g></g></g></svg>