<svg xmlns="http://www.w3.org/2000/svg" xmlns:xlink="http://www.w3.org/1999/xlink" viewBox="0 0 217.99 238.31"><defs><style>.a{fill:none;}.b{clip-path:url(#a);}.c{fill:#ed6d32;}.d,.h{fill:#fed834;}.e{fill:#42ad4f;}.f{fill:#3bb9eb;}.g{fill:#d64a94;}.h{fill-rule:evenodd;}.i{fill:#96a8b5;}.j{fill:#a3b2c1;}.k{fill:#aebdce;}.l{fill:#bfcbd8;}.m{fill:#4e5c66;}.n{fill:#f5b1b1;}.o{fill:#f7c0c2;}.p{fill:#d3dbe2;}.q{fill:#e5eff9;}.r{fill:#949ba0;}.s{fill:#d6a54d;}.t{fill:#754419;}.u{fill:#a1642d;}.v{fill:#bf7d40;}.w{fill:#dddbdb;}.x{fill:#fff;}.y{fill:#1a3f1e;}.z{fill:#077333;}.aa{fill:#0e1a12;}.ab{fill:#0a130d;}.ac{fill:#390f0f;}.ad{fill:#5c120e;}.ae{fill:#f08686;}.af{fill:#bc5353;}.ag{fill:#5a150b;}.ah{fill:#6c190c;}.ai{fill:#b03c24;}.aj{fill:#370f11;}</style><clipPath id="a" transform="translate(-190.62 -323.47)"><rect class="a" x="182.21" y="310.44" width="230.86" height="255.12"/></clipPath></defs><g class="b"><g class="b"><path class="c" d="M202.58,518.4a20.76,20.76,0,0,1-4.46-13.21q0-5.7,4-11.74a45.29,45.29,0,0,1-7.16-3.11c-2.28-1.24-3.41-2.55-3.41-3.92a1.86,1.86,0,0,1,.72-1.39q.44.92,3.57,2.82a29.7,29.7,0,0,0,8.11,3.15,19.55,19.55,0,0,1,14.21-5.71c1.83,0,2.75.47,2.75,1.42q0,3.8-3.9,6.08a14.12,14.12,0,0,1-7.22,1.91,21.17,21.17,0,0,1-4-.38q-3.86,4.73-3.86,13.62A17.86,17.86,0,0,0,205,518.06a4.48,4.48,0,0,1,.75,1.34c0,.3-.19.45-.58.45a3.69,3.69,0,0,1-2.57-1.45m4.21-26.25q.71.06,2.16.06,7.25,0,9.84-4.3a22.93,22.93,0,0,0-4.07.59,21.4,21.4,0,0,0-7.93,3.65" transform="translate(-190.62 -323.47)"/><path class="c" d="M222.05,499.44c2.66,0,4.56,1.86,5.71,5.6a10.51,10.51,0,0,1,.28,2.56q0,5.79-4.94,7.54a7.77,7.77,0,0,1-3.16.17q-6.33-.67-6.33-6.95a6.66,6.66,0,0,1,4.63-6.64,4,4,0,0,1,3.81-2.28m-2.43,4.36c-.32.61-.59.92-.81.92s-.34-.35-.42-1q-1.77.82-1.77,4.26.19,5.56,4.62,5.56,4.11,0,4.35-5.46c0-2.88-1-4.69-3-5.43a2.32,2.32,0,0,0-1.66,0,2.43,2.43,0,0,0-1.33,1.21" transform="translate(-190.62 -323.47)"/><path class="c" d="M234.45,495.62q.44,0,.3.51a14.75,14.75,0,0,1-.71,1.72,25.82,25.82,0,0,0-1.12,2.92,20.23,20.23,0,0,0-1.11,5.82c.06,1.37.31,2.05.75,2.05a39,39,0,0,1,4.43-7.48c2.17-3.14,3.93-4.71,5.26-4.71s2.14,1.21,2.11,3.62q0,4.77-4,9.76a7.13,7.13,0,0,1-5.14,2.58,2.79,2.79,0,0,1-1.23-.26q-1.2,3.44-3.22,11.06-.17.59-.66.36a2.68,2.68,0,0,1-1.47-2.68q0-3.37,2.68-9.67a5.8,5.8,0,0,1-1.85-4.63q0-4.36,4.43-10.78a.66.66,0,0,1,.51-.19m.77,14.3q3.09,0,5.73-4.71a12.12,12.12,0,0,0,1.47-5c0-.62-.24-.94-.72-.94q-1.86,0-6.63,10.08-.19.5.15.54" transform="translate(-190.62 -323.47)"/><path class="d" d="M268.46,487.78a9.69,9.69,0,0,0-1.36-.19,4.35,4.35,0,0,0-.51,0h-.26a8.76,8.76,0,0,0-5.6,1.89,6.06,6.06,0,0,0-2.47,4.86,6.42,6.42,0,0,0,1.1,3.77,9.39,9.39,0,0,1,4.31-1.21,5.51,5.51,0,0,1,3.28.91c.67.49,1,1,1,1.41q0,2.44-4.73,2.45a8.73,8.73,0,0,1-4.15-1,10.18,10.18,0,0,0-2,6.31,6,6,0,0,0,1.79,4.39,6.33,6.33,0,0,0,4.63,1.83,10.54,10.54,0,0,0,5.39-1.26,4.83,4.83,0,0,0,2.62-4.45c0-1.65-.67-2.47-2-2.47a5.84,5.84,0,0,0-2.9.89c-1.08.64-1.62,1.3-1.62,2a1.06,1.06,0,0,0,.11.51,1,1,0,0,0,.64.46,3.84,3.84,0,0,0,1.93-.14c.89-.26,1.29-.33,1.22-.22l-.19.51q-.49,1.2-2.58,1.2a2.88,2.88,0,0,1-2.41-.88,3.21,3.21,0,0,1-.53-2c0-1.09.78-2.11,2.34-3.05a16,16,0,0,1,5.35-1.85,5.12,5.12,0,0,0,2.71-1.43,3.49,3.49,0,0,0,1.21-2.49c0-1.3-.82-1.94-2.45-1.94a2.25,2.25,0,0,0-.66.1,7.63,7.63,0,0,0-.94.52c-.15.08-.23,0-.23-.15,0-.86.9-1.28,2.7-1.28a3.64,3.64,0,0,1,2.33.85,2.67,2.67,0,0,1,1.13,2.13,6.37,6.37,0,0,1-.81,2.71,5.76,5.76,0,0,1-1.79,2.26c-.39.24-.42.64-.09,1.21l.19.38a2.16,2.16,0,0,1,.2.52,5.24,5.24,0,0,1,.21,1.55A7.19,7.19,0,0,1,271,513.9a14.28,14.28,0,0,1-7.67,1.86q-4.81,0-7.2-2.39a8.44,8.44,0,0,1-2.2-6.26,10.19,10.19,0,0,1,3.41-7.59,7.22,7.22,0,0,1-2.24-5.28q0-3.64,3.48-6.42a11.13,11.13,0,0,1,7.09-2.62,6.67,6.67,0,0,1,4.61,1.39,3.42,3.42,0,0,1,1.21,2.66,2.12,2.12,0,0,1-2.19,1.62q1.17-2.69-.88-3.09m-7.82,11.48a6.93,6.93,0,0,0,2.77.64c.43,0,1.08,0,2-.07s1.34-.22,1.37-.52c-.05-.58-1.07-.88-3.07-.88a6.66,6.66,0,0,0-3,.83" transform="translate(-190.62 -323.47)"/><path class="e" d="M297.5,507.37a15.3,15.3,0,0,0-7.5-.77c-1.95.43-2.92,1.38-2.92,2.86a3.82,3.82,0,0,0,2.32,3.41,13.47,13.47,0,0,0,6.43,1.28c3.71,0,6.52-.6,8.42-1.78a5.8,5.8,0,0,0,2.86-5.25,6,6,0,0,0-2.9-5.33,20.76,20.76,0,0,0-8.33-2.59c-3.63-.49-6.24-1.28-7.86-2.37a4.92,4.92,0,0,1-2.41-4.25q0-3.7,4.92-6.39,4.38-2.4,12.38-2.41a7.9,7.9,0,0,1,2.77.24,2.07,2.07,0,0,1,1.67,1.42c.19.71-.93,1.12-3.38,1.22q-7.92-.15-10.71,1.11-4.49,1.59-4.48,4.64t8,4.48q8,1.28,10.77,4c1.86,1.82,2.64,4.31,2.36,7.48s-1.62,5.37-4,6.59a18.19,18.19,0,0,1-8.4,1.83q-6.17,0-9.7-1.77a5.71,5.71,0,0,1-3.54-5.37,5.05,5.05,0,0,1,2.54-4.5,11.47,11.47,0,0,1,6.12-1.36c3.85.29,5.77.9,5.77,1.85,0,1.1-.41,1.67-1.19,1.73" transform="translate(-190.62 -323.47)"/><path class="e" d="M311.62,509.16q.86-6.78,4.2-10a1,1,0,0,1,.6-.22c.33,0,.53.3.62.88a45.42,45.42,0,0,0-2.52,8.29,10,10,0,0,0-.19,2q.21,2.49,1.62,2.49,2.37,0,4.58-8.22c.38-1.71.83-2.56,1.34-2.56.26,0,.51.35.75,1,.57,2.21,1.06,4.35,1.47,6.44s.7,3.78.85,5.07c0,.8-.45,1.19-1.36,1.19-.48,0-.88-.43-1.17-1.3a32.3,32.3,0,0,1-.83-6.15,11.56,11.56,0,0,1-2.75,5.69,4.79,4.79,0,0,1-3.2,1.59h0a3.63,3.63,0,0,1-3.39-2,8.35,8.35,0,0,1-.58-4.26" transform="translate(-190.62 -323.47)"/><path class="e" d="M329.48,516.13c-1.48,0-2.39-2.42-2.75-7.25a1.64,1.64,0,0,1-.74-1.13c0-.53.12-.78.38-.74a.72.72,0,0,0,.28,0,12.16,12.16,0,0,1,.72-4.81A3.71,3.71,0,0,1,330.7,500c.29,0,1.47-.05,3.53-.05a11.19,11.19,0,0,1,4.33.79c1.69.71,2.53,1.77,2.53,3.18,0,1.84-1.61,3.33-4.85,4.45a15.45,15.45,0,0,1-2.39.49,24.51,24.51,0,0,1,5.67,4.88,2.57,2.57,0,0,1,.7,1.75c0,.81-.26,1.21-.79,1.21a1.18,1.18,0,0,1-.7-.21q-6.75-6.6-8.93-5.88a13.12,13.12,0,0,0,.85,3.92q.3,1.62-1.17,1.62m0-8.7a25.18,25.18,0,0,0,6-1.55c1.89-.75,2.83-1.42,2.83-2,0-1-1.08-1.43-3.24-1.43s-4,.06-5.34.17a22.2,22.2,0,0,0-.28,4.13Z" transform="translate(-190.62 -323.47)"/><path class="e" d="M346.83,500q4.86,0,7.48,2.37a8.71,8.71,0,0,1,2.6,6.79,5.86,5.86,0,0,1-2.07,4.69,7.34,7.34,0,0,1-4.94,1.68,3.36,3.36,0,0,1-2.24-.81c-.06,4.88-.19,8-.39,9.38-.12.45-.49.68-1.08.68-.77,0-1.22-.23-1.37-.68a28.15,28.15,0,0,1-.17-4l.05-5.67.08-2.6c.24-4.66.85-7.87,1.83-9.61a6.38,6.38,0,0,0-.91-.05,17.34,17.34,0,0,0-2.54.39H343c-.17,0-.25-.1-.25-.3a2.94,2.94,0,0,1,.87-1.45,5.63,5.63,0,0,1,3.18-.83m1,7c0,2.47.06,4.27.06,5.41.26.62,1.26.94,3,.94,2.28,0,3.41-1.35,3.41-4.05q0-5.14-6.56-6.84c0,.55,0,2.06.09,4.54" transform="translate(-190.62 -323.47)"/><path class="e" d="M361.4,516.13c-1.48,0-2.39-2.42-2.75-7.25a1.64,1.64,0,0,1-.74-1.13c0-.53.13-.78.38-.74a.72.72,0,0,0,.28,0,12.16,12.16,0,0,1,.72-4.81,3.71,3.71,0,0,1,3.33-2.26c.3,0,1.47-.05,3.53-.05a11.19,11.19,0,0,1,4.33.79c1.69.71,2.54,1.77,2.54,3.18,0,1.84-1.62,3.33-4.86,4.45a15.17,15.17,0,0,1-2.39.49,24.51,24.51,0,0,1,5.67,4.88,2.57,2.57,0,0,1,.7,1.75c0,.81-.26,1.21-.79,1.21a1.18,1.18,0,0,1-.7-.21q-6.75-6.6-8.93-5.88a13.12,13.12,0,0,0,.85,3.92q.3,1.62-1.17,1.62m0-8.7a25.18,25.18,0,0,0,6-1.55c1.89-.75,2.83-1.42,2.83-2,0-1-1.08-1.43-3.23-1.43s-4,.06-5.35.17a22.2,22.2,0,0,0-.28,4.13Z" transform="translate(-190.62 -323.47)"/><path class="e" d="M380.52,487c2.06,0,3.26.53,3.62,1.58,2.17,0,3.26.82,3.26,2.47s-1.41,3.24-4.24,4.86a10.85,10.85,0,0,1-4.92,1.15,12,12,0,0,1-3.26-.53c-.6.88-1.13,1.32-1.6,1.32-.16,0-.24-.19-.26-.45a5.79,5.79,0,0,1,.54-1.94,3.11,3.11,0,0,1-1.07-2.55q0-3.39,4.86-5.46a9.63,9.63,0,0,1,3.07-.45m-3.61,13c.86,0,1.33,1.46,1.41,4.39q0,11-1.85,11c-.93,0-1.45-1.76-1.58-5.28a28.9,28.9,0,0,1,1.58-9.7.83.83,0,0,1,.44-.36m-1.68-6.61c2.23-2.17,4.26-3.48,6.07-3.92-3.53-.25-5.59.79-6.15,3.13a1,1,0,0,0,.08.79m1.49,1.58a6,6,0,0,0,2.22.45,7.76,7.76,0,0,0,6.35-3.26,1.76,1.76,0,0,0,.25-1,.62.62,0,0,0-.7-.71q-2.68,0-7.84,4.16Z" transform="translate(-190.62 -323.47)"/><path class="e" d="M390.47,500.38q5.44.14,5.45,1.11,0,1.31-4.86,1.45-6.9,0-7,1.19c0,.41,2.48,1.12,7.42,2.13,3.12.68,4.69,1.94,4.69,3.75q0,3.12-5.8,4.35a10.76,10.76,0,0,1-2,.17q-5.28,0-7.41-2.64a2.27,2.27,0,0,1-.26-.94q0-1.74,5-2c2.87.12,4.3.61,4.3,1.45,0,.42-.85.68-2.56.76-2.55-.05-4-.07-4.21,0s-.39.1-.39.21q.3.91,4.94,1.11c3.7-.06,5.54-.81,5.54-2.26,0-1.12-2.72-2.19-8.18-3.2a6.66,6.66,0,0,1-3.08-1.26,2.39,2.39,0,0,1-.84-1.63c0-1.32,1.44-2.38,4.31-3.16a22,22,0,0,1,4.9-.51" transform="translate(-190.62 -323.47)"/><path class="e" d="M404.4,500.38c2,0,3.35.31,4,1.07a1.24,1.24,0,0,1,0,1.25c-.49.37-1.63.56-3.41.56H402a15.34,15.34,0,0,0-1.19,4.35h.09c2.28-.19,3.52-.28,3.7-.28,1,0,1.5.38,1.5,1a3,3,0,0,1-2.67,1.6c-1.08.1-2.11.16-3.09.19l-.08,2c.08,1,.52,1.47,1.3,1.47q4.77-.24,5.84-.45c.31,0,.46.08.46.28q0,1.68-5.66,3a7.51,7.51,0,0,1-1.67.19q-3.15,0-3.15-3.15a23.27,23.27,0,0,1,.47-3.79c-1-.29-1.49-.65-1.49-1.09s.62-.57,1.85-.77a38.1,38.1,0,0,1,1.22-4.73h-.11c-1.42-.12-2.13-.47-2.13-1,.08-.89,2.5-1.48,7.24-1.77" transform="translate(-190.62 -323.47)"/><polygon class="f" points="124.38 150.16 114.34 63.39 146.15 65.71 145.02 149.13 124.38 150.16"/><polygon class="c" points="112.53 73.55 122.82 150.22 99.3 148.81 101.24 75.08 112.53 73.55"/><polygon class="g" points="147.96 148.03 150.7 66.15 174.3 72.56 164.45 147.27 147.96 148.03"/><path class="h" d="M372.42,388.3l.18-3.26.26-7.07c2.47-.68,6.29-.67,8.16-2-11-16.45-38.13-6.94-52.29-3.65,2.55-3.42,31.82-20,20.28-40.19-10.66-18.63-35.82-4.18-41.75,13.55-2.9,8.66-2,13.22-1.93,21.54-1-5.63-7.8-16.69-12.46-21.25a26.29,26.29,0,0,0-9.81-6.34c-13.57-4.55-24.32,8.56-22.12,21.11,1.45,8.24,9.72,12.82,18.89,17.36-1.46,1.41-30.37-17.86-49.83-8.22-3,1.47-10.67,6.42-11.72,8.66,2.66.14,9.45,0,11.32.66.85,1.76,1.37,8.33,1.76,10.84,6.62-9.08,9.13-15.17,25.85-13,18.38,2.32,21.2,9,43.29,2.87-3.76-2.12-30.66-9.24-29.57-22.35.46-5.46,6.87-10.28,13.37-7.51,6.19,2.65,11.66,9.53,16.37,16.58.68,1,8.79,14.82,8.86,14.89,0-10.32-.15-23,4.93-32.52,4.59-8.59,14.24-15.28,21.35-8.12,5.17,5.22.48,12.84-1.95,16.41-3,4.39-13.55,21.9-20.69,23.68,23.42-3.9,39.93-11.16,59.25,7.33" transform="translate(-190.62 -323.47)"/><path class="i" d="M251.49,407.24c-3.66-4.19-12.07-3.05-14.94,2.36H238a6.93,6.93,0,0,0-3,5.59c.3-.38,1-1,1.14-1.18-.54,1.37-1,4.84-.08,6.7a8.78,8.78,0,0,0,.76-1.37,7.44,7.44,0,0,0,3.54,5.64c2.67,1.71,6.93,2.24,10-.19a2.59,2.59,0,0,1-1.22-.23,7.07,7.07,0,0,0,4.22-4.19c1-2.4,0-10.32-1.9-13.13" transform="translate(-190.62 -323.47)"/><path class="j" d="M236.15,414c-.19.19-.84.8-1.14,1.18a7,7,0,0,1,3-5.6h-1.46c2.87-5.4,11.28-6.54,14.94-2.35,1.23,1.85,2.09,5.92,2.26,9.17a3.26,3.26,0,0,0-1.58.8c-1.52,1.83-3.95,2-5.63,3.35-.15.31,0,.76-.15,1.07-.91.76-1.52-.92-2.44-.61v.61a4.53,4.53,0,0,1-3.5-3.05,7.23,7.23,0,0,0-.46,2.59,4.78,4.78,0,0,1-1.37-1.07c-.45.46.15,1.07-.3,1.53a8.24,8.24,0,0,1-1.22-3.2,5.93,5.93,0,0,0-1.23,1.78,11.24,11.24,0,0,1,.28-6.2" transform="translate(-190.62 -323.47)"/><path class="k" d="M247.3,411.73a2.23,2.23,0,0,1,.92-.31c-1.68-1.37-3.81-.61-5.49.31-.15-.46.31-.61.31-.92a5.51,5.51,0,0,0-3.16,3.54c0-.3-.19-.68-.19-1a14.11,14.11,0,0,0-.46,5c-.15-.46-.46-.76-.61-1.22a7.61,7.61,0,0,0,.31,3.2,7.8,7.8,0,0,1-1.53-3.2,11.5,11.5,0,0,0-1.06,1.83c-.92-2.13,0-4.42.61-6.4a4.82,4.82,0,0,0-1.94,2.3,6.94,6.94,0,0,1,3-5.34h-1.46c2.87-5.41,11.28-6.55,14.94-2.36,1,1.57,1.82,4.74,2.14,7.65a4.18,4.18,0,0,1-2.06-.88,16.79,16.79,0,0,0-4.27-2.28" transform="translate(-190.62 -323.47)"/><path class="l" d="M239.84,408.23c-1.21-.37-2,.53-2.87,1.37h-.42c2.87-5.41,11.28-6.55,14.94-2.36a14.33,14.33,0,0,1,1.63,4.51c-1.68-1.22-3.42-2.27-5.67-2.15,0-.46.77-.46.61-.61-.91-1.37-2.89-1.07-4.41-1.07l1.83-.91c-2.14-.15-4.12.91-5.94,2.13-.16-.46.45-.91.3-.91" transform="translate(-190.62 -323.47)"/><path class="l" d="M235.88,413.54a5.76,5.76,0,0,0-.87,1.4,7,7,0,0,1,2.87-5.26,3.31,3.31,0,0,1,.89-.24c-1.71.65-2.45,2.35-2.89,4.1" transform="translate(-190.62 -323.47)"/><path class="k" d="M239.88,414.35a.56.56,0,0,1,0,.12s0-.08,0-.12" transform="translate(-190.62 -323.47)"/><path class="m" d="M240.33,425a7.51,7.51,0,0,1-3.54-5.44,7.35,7.35,0,0,1-.66,1.16l-.08.09-.05-.1c-.87-1.78-.51-4.94,0-6.46-.28.27-.68.67-.91.95l-.13.17v-.22a7.09,7.09,0,0,1,2.82-5.52h-1.33l.06-.11a10,10,0,0,1,8.83-4.94,8.2,8.2,0,0,1,6.24,2.57c2,3,2.89,10.85,1.91,13.21a7.21,7.21,0,0,1-4.09,4.17,3.12,3.12,0,0,0,1,.14h.22l-.17.14a8,8,0,0,1-5,1.67,9.67,9.67,0,0,1-5.11-1.48m8.8-.42-.15-.09.16,0a7,7,0,0,0,4.18-4.14c.94-2.27,0-10.2-1.89-13a8,8,0,0,0-6.12-2.52,9.83,9.83,0,0,0-8.64,4.75h1.62l-.24.14a6.89,6.89,0,0,0-3,5.32c.26-.29.62-.64.85-.87l.16-.15.26-.26-.13.34c-.51,1.3-1,4.63-.13,6.53a12.39,12.39,0,0,0,.59-1.1l.2-.39,0,.25a7.34,7.34,0,0,0,3.5,5.58,9.57,9.57,0,0,0,5,1.45,7.89,7.89,0,0,0,4.73-1.5,2.25,2.25,0,0,1-1-.24" transform="translate(-190.62 -323.47)"/><path class="n" d="M251.34,415.27c-2.29-2-7-5.18-9.75-2.32a3.47,3.47,0,0,1,1.11.11,4.9,4.9,0,0,0-2.86,3.72,3,3,0,0,1,.91-.37,5.24,5.24,0,0,0,.42,5,3.91,3.91,0,0,0,3.94,1.67,3.46,3.46,0,0,1-1-.91c1,.67,3.26.5,4.21.23a2.91,2.91,0,0,1-1.11-.71c1.75,0,4.12-.63,5.05-2.85.45-1.45.11-3-1-3.56" transform="translate(-190.62 -323.47)"/><path class="o" d="M241.82,417.67a1.16,1.16,0,0,0-.61.3,4.16,4.16,0,0,1,2-2.28h-.76c.78-.52,1.67-.27,2.58-.27-.09,0-.12.05,0,.11.91.92,2.43.46,3.5,1.38-.61,0-1.22.3-1.83.3.61.46,1.37.76,2,1.22h-1.22c.46,1.06,1.68,1.06,2.59,1.22-.3.15-.76.15-.91.45.69.06,1.41.16,2.13.22a5.77,5.77,0,0,1-4,1.36,2.91,2.91,0,0,0,1.11.71c-1,.26-3.2.44-4.21-.23a3.46,3.46,0,0,0,1,.91,4.11,4.11,0,0,1-3.32-.93c-.12-1.49-.65-3,0-4.47" transform="translate(-190.62 -323.47)"/><path class="o" d="M245,415.42a1.91,1.91,0,0,1,.46,0,3.57,3.57,0,0,1-.46,0" transform="translate(-190.62 -323.47)"/><path class="m" d="M241.11,421.44a5.41,5.41,0,0,1-.51-4.91,3.2,3.2,0,0,0-.71.31l-.17.13,0-.21a5.13,5.13,0,0,1,2.67-3.68,3.26,3.26,0,0,0-.83-.06l-.2,0,.14-.15a3.72,3.72,0,0,1,2.78-1.16c2.75,0,5.85,2.43,7.06,3.47,1.06.54,1.49,2.1,1,3.66-1.11,2.64-4,2.89-4.93,2.9a2.8,2.8,0,0,0,.94.55l.26.08-.26.07a8.13,8.13,0,0,1-2,.24,5.12,5.12,0,0,1-2-.32,4.88,4.88,0,0,0,.74.63l.2.12-.28,0c-.18,0-.39,0-.64,0a3.71,3.71,0,0,1-3.32-1.74m3,.74L244,422l.18.13a4.17,4.17,0,0,0,2.16.45,8.56,8.56,0,0,0,1.75-.18,3,3,0,0,1-.9-.64l-.12-.13h.31c.86,0,3.75-.2,4.83-2.81.47-1.47.07-3-.93-3.46h0c-1.2-1-4.26-3.44-7-3.44a3.64,3.64,0,0,0-2.54,1,3.76,3.76,0,0,1,.86.11l.34.07-.26.09a4.76,4.76,0,0,0-2.76,3.49,3.57,3.57,0,0,1,.79-.29h.15l-.08.13a5.14,5.14,0,0,0,.41,4.91,3.59,3.59,0,0,0,3.2,1.67l.46,0a2.8,2.8,0,0,1-.8-.83" transform="translate(-190.62 -323.47)"/><path class="i" d="M265.3,397.12c-.08-5.56,6.94-10.34,12.69-8.24l-1.09,1a7,7,0,0,1,6,2.15,16,16,0,0,0-1.64-.11c1.31.66,4,2.93,4.54,4.93a10.54,10.54,0,0,1-1.49-.51,7.39,7.39,0,0,1,1.14,6.55c-.84,3.06-3.65,6.31-7.57,6.56a2.64,2.64,0,0,0,.75-1,7,7,0,0,1-5.94-.28c-2.34-1.12-6.87-7.7-7.37-11" transform="translate(-190.62 -323.47)"/><path class="j" d="M281.24,391.9a16,16,0,0,1,1.64.11,7,7,0,0,0-6-2.15l1.09-1c-5.75-2.1-12.77,2.68-12.69,8.24.33,2.2,2.41,5.8,4.45,8.33a3.22,3.22,0,0,1,1.71-.46c2.36.34,4.27-1.17,6.43-1.27.32.12.51.56.83.69,1.18-.05.52-1.7,1.4-2.09l.41.46a4.5,4.5,0,0,0,.56-4.61c.85.26,1.35,1,2.08,1.62a4.86,4.86,0,0,0,.3-1.71c.65,0,.6.89,1.25.93a8.18,8.18,0,0,0-1.24-3.19,5.94,5.94,0,0,1,2.11.5,11.26,11.26,0,0,0-4.35-4.42" transform="translate(-190.62 -323.47)"/><path class="k" d="M271.42,397.66a2.25,2.25,0,0,0-.89.38c.33-2.14,2.43-3,4.28-3.44-.19-.44-.63-.25-.83-.47a5.47,5.47,0,0,1,4.71.51c-.23-.19-.31-.63-.49-.83a14.26,14.26,0,0,1,3.7,3.43c-.19-.44-.17-.87-.36-1.31a7.59,7.59,0,0,1,1.91,2.58,7.86,7.86,0,0,0-1-3.4,11.66,11.66,0,0,1,2,.65c-.75-2.2-3-3.28-4.73-4.35a4.86,4.86,0,0,1,3,.41,6.92,6.92,0,0,0-5.8-2l1.09-1c-5.76-2.1-12.77,2.68-12.69,8.24.28,1.87,1.82,4.75,3.53,7.12a4.23,4.23,0,0,0,.94-2,16.47,16.47,0,0,1,1.65-4.55" transform="translate(-190.62 -323.47)"/><path class="l" d="M274.62,390.06c.66-1.08,1.87-1,3.05-.9l.32-.28c-5.75-2.1-12.77,2.68-12.69,8.24a14.38,14.38,0,0,0,1.81,4.45c.42-2,1-4,2.77-5.4-.31-.34-.87.17-.86,0-.24-1.63,1.43-2.73,2.57-3.75l-2,.55c1.48-1.54,3.67-2.07,5.84-2.39-.19-.44-.95-.37-.84-.48" transform="translate(-190.62 -323.47)"/><path class="l" d="M281.12,391.37a5.82,5.82,0,0,1,1.58.45,7,7,0,0,0-5.65-2,3,3,0,0,0-.82.42c1.71-.67,3.39.1,4.89,1.11" transform="translate(-190.62 -323.47)"/><path class="k" d="M278.69,394.64a.24.24,0,0,0,.11.06l-.11-.06" transform="translate(-190.62 -323.47)"/><path class="m" d="M282.69,407.41a7.93,7.93,0,0,1-4.83,2.09l-.22,0,.17-.15a3.08,3.08,0,0,0,.66-.78,7.27,7.27,0,0,1-5.83-.36c-2.31-1.11-6.89-7.59-7.42-11.1a8.22,8.22,0,0,1,2.93-6.09,10,10,0,0,1,9.86-2.23l.12,0-1,.89a7.11,7.11,0,0,1,5.79,2.22l.15.16-.22,0c-.35-.05-.91-.08-1.3-.09,1.36.8,3.75,2.91,4.29,4.82l0,.11-.11,0a6.92,6.92,0,0,1-1.27-.42,7.48,7.48,0,0,1,1,6.41,9.62,9.62,0,0,1-2.81,4.52m-4.62,1.93a7.87,7.87,0,0,0,4.52-2,9.46,9.46,0,0,0,2.77-4.44,7.39,7.39,0,0,0-1.13-6.49l-.15-.21.41.16a9.36,9.36,0,0,0,1.18.42c-.64-2-3.22-4.14-4.47-4.77l-.32-.16.36,0h.22c.33,0,.83,0,1.21.07a6.83,6.83,0,0,0-5.76-2l-.27.05,1.2-1.08a9.8,9.8,0,0,0-9.59,2.25,8,8,0,0,0-2.87,6c.5,3.38,5.1,9.9,7.32,11a7,7,0,0,0,5.88.28l.15-.06-.05.15a2.27,2.27,0,0,1-.61.88" transform="translate(-190.62 -323.47)"/><path class="n" d="M270.79,403c.37-3,1.71-8.51,5.69-8.25a3.64,3.64,0,0,0-.75.83,4.92,4.92,0,0,1,4.61.85,3.32,3.32,0,0,0-.92.34,5.21,5.21,0,0,1,3,4,3.92,3.92,0,0,1-1.81,3.88,3.22,3.22,0,0,0,.1-1.32c-.31,1.17-2.09,2.55-3,3a2.81,2.81,0,0,0,.34-1.27,5.13,5.13,0,0,1-5.66,1.25c-1.3-.77-2.1-2.16-1.65-3.29" transform="translate(-190.62 -323.47)"/><path class="o" d="M279.46,398.41a1.22,1.22,0,0,1,.66-.18,4.14,4.14,0,0,0-3-.38l.57-.51c-.93.14-1.42.92-2.1,1.53.08-.05.12,0,.07.09-.07,1.29-1.5,2-1.69,3.36.46-.41,1.11-.59,1.57-1-.15.74-.51,1.48-.66,2.23l.91-.82c.37,1.1-.54,1.91-1.11,2.64.32-.09.66-.4,1-.27-.48.5-.94,1.06-1.44,1.59A5.84,5.84,0,0,0,278.1,405a2.81,2.81,0,0,1-.34,1.27c.88-.44,2.66-1.82,3-3a3.22,3.22,0,0,1-.1,1.32,4.1,4.1,0,0,0,1.85-2.91c-.91-1.19-1.51-2.66-3-3.31" transform="translate(-190.62 -323.47)"/><path class="o" d="M275.59,398.86a3.19,3.19,0,0,0-.37.29,2.48,2.48,0,0,0,.37-.29" transform="translate(-190.62 -323.47)"/><path class="m" d="M281.21,404.25c-.18.17-.35.3-.49.41l-.22.17.06-.22a5.07,5.07,0,0,0,.13-1,5.2,5.2,0,0,1-1.24,1.54,8.21,8.21,0,0,1-1.66,1.17l-.24.12.14-.22a2.88,2.88,0,0,0,.33-1c-.7.62-3,2.36-5.61,1.13-1.4-.82-2.13-2.27-1.7-3.38.2-1.59.88-5.46,2.93-7.3a3.75,3.75,0,0,1,2.84-1h.2l-.16.12a3.49,3.49,0,0,0-.58.61,5.1,5.1,0,0,1,4.45.95l.17.12-.21,0a3.14,3.14,0,0,0-.74.24,5.45,5.45,0,0,1,2.91,4,3.7,3.7,0,0,1-1.31,3.51m-.46.19.36-.3a3.56,3.56,0,0,0,1.26-3.38,5.12,5.12,0,0,0-3-3.93l-.15,0,.12-.09a3.85,3.85,0,0,1,.78-.32,4.75,4.75,0,0,0-4.39-.74l-.25.11.21-.29a3,3,0,0,1,.56-.65,3.55,3.55,0,0,0-2.54,1c-2,1.8-2.68,5.64-2.88,7.21v0c-.41,1,.29,2.41,1.62,3.2,2.55,1.2,4.83-.57,5.47-1.15l.1-.09.13-.12V405a2.8,2.8,0,0,1-.25,1.07,8.54,8.54,0,0,0,1.42-1,4,4,0,0,0,1.3-1.78l.06-.21.09.2a2.93,2.93,0,0,1-.05,1.16" transform="translate(-190.62 -323.47)"/><path class="i" d="M279.41,421s-4.7.12-7.29,2.15c-3.42,1.43-14.92,1.58-18.73,3.33-1.75-.76-5.25-.23-7.84,0-.3-2.06-1.52-1.86-2.21-4.09s-2.4-3.22-3.61-2.57-1,2.27-.65,3,.38,1.64-.72,1.56-3.85-.3-5.68.61a1.9,1.9,0,0,0-.53,3.24,2.5,2.5,0,0,0,1.07,4.42c-.54,1.63,1.18,2.78,2.93,2.13s2.21-1.6,3.39-1.75,3.19,0,4.75-1.11c3.05.54,4.27,1.49,6.82,2.25s6,.65,7.8,1.14c.08,2-1.18,5.79-1.33,7.58a6.93,6.93,0,0,1,.91-.65c-.15.61-1,2.78-1.14,3.35.34.42,15.57,1.14,17,0S279.41,421,279.41,421" transform="translate(-190.62 -323.47)"/><path class="j" d="M259.64,433.81a10.09,10.09,0,0,1-7.77-1.22c-.46-.3-1.22.46-2,.3-1.83-.45-3.2-3.19-4.57-2.13a5.83,5.83,0,0,1-5.18.92c-1.21-.16-2,2-3.35,2.28a2.77,2.77,0,0,1-3-.61,2.51,2.51,0,0,1,0-1.83c-.46,0-.92.16-1.22-.15a3.84,3.84,0,0,1,.91-4,5.16,5.16,0,0,1-1.52,0,1.28,1.28,0,0,1,.76-2.4c1.83-.91,4.57-.68,5.68-.61s1.1-.83.72-1.56-.57-2.36.65-3,2.93.34,3.61,2.57,1.91,2,2.21,4.09c2.59-.23,6.09-.76,7.84,0,3.81-1.75,15.31-1.9,18.73-3.33,2.59-2,7.29-2.15,7.29-2.15s-3.67,23.45-5.08,24.59c-1.17.95-11.89.61-15.67.23a14.64,14.64,0,0,1,.82-3.35c1.07-2.59.76-5.79.16-8.68" transform="translate(-190.62 -323.47)"/><path class="k" d="M259.79,431.68c-1.22,1.06-3.2,1.06-4.87.76-.77,0-1.37-1.07-1.68-1.07-2.89-.15-5.94,0-7.92-2.43a4.06,4.06,0,0,1-5.94,1.82,4.12,4.12,0,0,1-4.41,2.59c-.76,0-.92-1.37-.61-2.13.15-.15.3-.46.61-.46-.46,0-.92.15-1.07,0a2.5,2.5,0,0,1,.91-3.8c-1.06,0-3,.3-2.58-1.37a2.09,2.09,0,0,1,.17-.41l.28-.17c1.83-.91,4.57-.68,5.68-.6s1.1-.84.72-1.57-.57-2.36.65-3,2.93.34,3.61,2.57,1.91,2,2.21,4.09c2.59-.23,6.09-.76,7.84,0,3.81-1.75,15.31-1.9,18.73-3.33,2.59-2,7.29-2.14,7.29-2.14s-3.67,23.44-5.08,24.58c-1.05.86-9.85.67-14.35.34a10.9,10.9,0,0,1,.27-1.79c.91-4.26,2.28-8.83-.46-12.48" transform="translate(-190.62 -323.47)"/><path class="m" d="M257.29,445.66l0,0v0a18.08,18.08,0,0,1,.61-1.83c.19-.52.38-1,.48-1.34a6.1,6.1,0,0,0-.74.53l-.14.13v-.19a27.28,27.28,0,0,1,.58-2.95,21.71,21.71,0,0,0,.76-4.56,19.6,19.6,0,0,0-3.07-.41,24.94,24.94,0,0,1-4.68-.72,26.27,26.27,0,0,1-2.56-.93,18.21,18.21,0,0,0-4.22-1.31,6.89,6.89,0,0,1-3.87,1l-.9.07a3.19,3.19,0,0,0-1.49.72,7.94,7.94,0,0,1-1.88,1,3.06,3.06,0,0,1-1,.19,2.2,2.2,0,0,1-1.8-.83,1.71,1.71,0,0,1-.23-1.5,2.35,2.35,0,0,1-1.9-1.79,2.65,2.65,0,0,1,.8-2.69,2,2,0,0,1-.63-1.61,2,2,0,0,1,1.26-1.69,8.62,8.62,0,0,1,3.83-.7c.71,0,1.34,0,1.76.07h.12a.76.76,0,0,0,.78-.29,1.25,1.25,0,0,0-.13-1.16c-.39-.75-.6-2.43.68-3.11a1.66,1.66,0,0,1,.82-.2c1,0,2.31.87,2.91,2.82a4.72,4.72,0,0,0,1.17,2,3.53,3.53,0,0,1,1,2l1.23-.12a37.8,37.8,0,0,1,3.89-.27,6.87,6.87,0,0,1,2.66.39c2-.93,6.19-1.4,10.19-1.86,3.55-.41,6.9-.79,8.51-1.45,2.57-2,7.27-2.16,7.32-2.16h.09v.1c-.15.95-3.7,23.48-5.11,24.63-.64.52-3.89.63-6.5.63-4.21,0-10.33-.32-10.59-.64m14.88-22.43h0c-1.62.68-5,1.06-8.55,1.47-4,.46-8.17.93-10.18,1.86h-.06a6.83,6.83,0,0,0-2.63-.39c-1.22,0-2.57.14-3.87.27l-1.3.13h-.07l0-.07a3.32,3.32,0,0,0-1-2,5,5,0,0,1-1.21-2.08c-.58-1.87-1.8-2.71-2.76-2.71a1.63,1.63,0,0,0-.75.18c-1.18.63-1,2.2-.61,2.91a1.46,1.46,0,0,1,.12,1.31.9.9,0,0,1-.92.36h-.12c-.42,0-1-.07-1.75-.07a8.59,8.59,0,0,0-3.76.68,1.88,1.88,0,0,0-1.18,1.57,1.81,1.81,0,0,0,.65,1.54l.09.06-.09.06a2.5,2.5,0,0,0-.83,2.59,2.19,2.19,0,0,0,1.87,1.69h.09l0,.09a1.54,1.54,0,0,0,.19,1.45,2,2,0,0,0,1.67.77,2.77,2.77,0,0,0,1-.18,7.63,7.63,0,0,0,1.84-1,3.36,3.36,0,0,1,1.57-.74l.9-.07a6.78,6.78,0,0,0,3.82-1l0,0h0a18.61,18.61,0,0,1,4.28,1.32c.77.31,1.56.63,2.54.93a25.43,25.43,0,0,0,4.66.71,20.37,20.37,0,0,1,3.14.43H259v.06a21.28,21.28,0,0,1-.76,4.65,27.63,27.63,0,0,0-.55,2.75,6.53,6.53,0,0,1,.78-.53l.15-.1,0,.18c-.07.28-.3.9-.54,1.54s-.52,1.43-.59,1.76a74.41,74.41,0,0,0,10.44.57c3.65,0,5.93-.21,6.4-.6,1.33-1.07,4.79-22.84,5-24.45-.67,0-4.81.3-7.15,2.13" transform="translate(-190.62 -323.47)"/><path class="m" d="M245.55,426.08l-.15,0a3.05,3.05,0,0,1-.07,1.58,2.24,2.24,0,0,0,.22-1.61" transform="translate(-190.62 -323.47)"/><path class="m" d="M244.09,432.17a2.62,2.62,0,0,0,1.06-1.51A3,3,0,0,1,244,432Z" transform="translate(-190.62 -323.47)"/><path class="m" d="M237.09,427.11l0,.15c-4.13-.47-4.84,1-4.85,1l-.07,0-.07,0c0-.07.74-1.59,5-1.11" transform="translate(-190.62 -323.47)"/><path class="m" d="M237.48,429.68a4.6,4.6,0,0,1-.38-1,4.3,4.3,0,0,1,.45-2.8,4.78,4.78,0,0,0-.3,2.76,5,5,0,0,0,1.15,2.25,3.8,3.8,0,0,1-.85-1.05c-4.16.95-4.26,2.84-4.26,2.86h-.15c0-.08.08-2,4.34-3" transform="translate(-190.62 -323.47)"/><path class="p" d="M266.07,424.82a4.82,4.82,0,0,0-1.45,4.59,5.86,5.86,0,0,0,.5-.59,7.26,7.26,0,0,0-.64,2.67,8.13,8.13,0,0,0,.79-.61,6,6,0,0,0,0,3.61,3,3,0,0,1,.61-1,7.13,7.13,0,0,0,.19,2.77,3.67,3.67,0,0,1,.92-1.1,3.33,3.33,0,0,0,.6,2.82,6.66,6.66,0,0,1,.23-.95c.27.83,3.68,3.74,5.9,3.5s3.2-11.66,3.39-13.5c0-1.16-1.48-2.36-1.94-2.77.11-.22.91,0,.91,0a5.66,5.66,0,0,0-3.88-1.94c-1.26.05-5,1.06-6.13,2.52" transform="translate(-190.62 -323.47)"/><path class="q" d="M267.49,426.19l-.24.31c.05-.26.14-.32.24-.31" transform="translate(-190.62 -323.47)"/><path class="q" d="M274.1,436.7c-.45-.46-.15.46-.3.46-1.68.3-2.74-1.52-3.2-2.9a3.58,3.58,0,0,1-.3,1.22,26.56,26.56,0,0,0-1.07-3.19l-.46.91c-1.06-1.22-.15-2.89-.76-4.11-.15-.31-.46.45-.76.76-.3-1.22.61-2.29.76-3.5-.1.2-.33-.13-.52-.16.68-.95,1.2-2.22,1.89-3.26a12.39,12.39,0,0,1,2.82-.63,5.66,5.66,0,0,1,3.88,1.94s-.8-.22-.91,0c.46.41,2,1.61,1.94,2.77-.1,1-.43,4.79-1.07,8.1a28.6,28.6,0,0,0-1,2.81c-.31-.46-.46-1.07-.92-1.22" transform="translate(-190.62 -323.47)"/><path class="r" d="M267.84,437.23c0,.11,0,.21-.08.29a1.72,1.72,0,0,0-.09.44v.21l-.14-.16a3.55,3.55,0,0,1-.68-2.67,4.65,4.65,0,0,0-.71.94l-.07.12-.07-.12a6.68,6.68,0,0,1-.21-2.61,4.15,4.15,0,0,0-.45.85l-.07.2-.07-.2a5.92,5.92,0,0,1-.07-3.43,4.08,4.08,0,0,1-.62.46l-.1.06v-.12a5,5,0,0,1,.49-2.24l0,0a2.25,2.25,0,0,1-.24.26l-.08.06,0-.1c-.52-1.48.44-4.07,1.47-4.66,1.11-1.46,4.88-2.49,6.18-2.54a5.7,5.7,0,0,1,3.95,2l.09.16-.18-.05a2.87,2.87,0,0,0-.6-.09l-.17,0,.07.07c.56.48,1.86,1.61,1.83,2.7,0,.12,0,.27-.05.46-.84,8.55-2,13-3.41,13.11l-.27,0c-2,0-5-2.33-5.62-3.37m8.07-13.11a5.82,5.82,0,0,0-3.71-1.74c-1.28.05-5,1.06-6.07,2.49l0,0a4.8,4.8,0,0,0-1.45,4.38l.4-.49.14-.18v.23a1.84,1.84,0,0,1-.17.48,5,5,0,0,0-.48,2.05c.25-.17.66-.54.67-.54l.19-.17-.07.25a6.07,6.07,0,0,0-.06,3.38,2.67,2.67,0,0,1,.56-.88l.13-.07v.14a8.63,8.63,0,0,0,.12,2.61,3.71,3.71,0,0,1,.86-1l.18-.11-.06.19a3.21,3.21,0,0,0,.48,2.6,2.55,2.55,0,0,1,.08-.28c0-.13.08-.29.13-.49l.06-.27.08.26c.24.74,3.37,3.47,5.57,3.47l.26,0c.92-.1,2.24-2.43,3.27-13,0-.18,0-.34.05-.45,0-1-1.24-2.11-1.78-2.58l-.14-.12-.05,0,0-.05c0-.1.17-.14.36-.14a3.1,3.1,0,0,1,.45.05" transform="translate(-190.62 -323.47)"/><path class="i" d="M287.45,424.42c.11,1.93-.76,8-6.14,9.69-2.66-2.24-.46-9.79.46-10.3s4.06-.31,5.68.61" transform="translate(-190.62 -323.47)"/><path class="j" d="M287.2,426.8a.24.24,0,0,1,0,.08c-.5,2.44-1.92,5.69-5.4,7.05,1.86-2,2.54-5.05,4.62-7.13.15-.15.61,0,.76,0" transform="translate(-190.62 -323.47)"/><path class="m" d="M281.26,434.17c-1.32-1.11-1.4-3.38-1.24-5.08.25-2.5,1.15-5,1.71-5.35a3.9,3.9,0,0,1,1.7-.28,9.32,9.32,0,0,1,4.06.89l0,0v0c.1,2-.81,8-6.2,9.78h0Zm2.17-10.56a3.75,3.75,0,0,0-1.63.27c-.46.26-1.38,2.7-1.62,5.22-.23,2.34.18,4.08,1.15,4.93,5.22-1.71,6.14-7.57,6.05-9.57a9.27,9.27,0,0,0-3.95-.85" transform="translate(-190.62 -323.47)"/><path class="i" d="M280.92,437c2.17.19,5.9,2.36,6.93,5.17a2.43,2.43,0,0,1-.69-.3,4.46,4.46,0,0,1,.23,4.49,6.2,6.2,0,0,0-.49-.94,4.69,4.69,0,0,1-1.34,3.49,2.93,2.93,0,0,0,0-1.18c-.34,1-2.57,3.71-5.26,3.38-1.63-2-.94-13,.62-14.11" transform="translate(-190.62 -323.47)"/><path class="j" d="M280.92,437c2.17.19,5.9,2.36,6.93,5.17a2.43,2.43,0,0,1-.69-.3,3.91,3.91,0,0,1,.7,2.47,3,3,0,0,0-.2-.49c0,.46-.31.76-.31,1.22a2.61,2.61,0,0,0-.45-.92,7.8,7.8,0,0,1-1.07,2.59c-.31-.3.15-.91-.31-1.22a4.52,4.52,0,0,1-2,3.05,1.39,1.39,0,0,0,.15-.76,7.93,7.93,0,0,1-4.09,1.31c-.65-3.84,0-11.2,1.31-12.12" transform="translate(-190.62 -323.47)"/><path class="k" d="M286.59,441.27a6.88,6.88,0,0,1,.76,3.05,2.68,2.68,0,0,0-.76-1.07,4,4,0,0,1-.46,1.83c0-.31-.3-.76-.45-.61-.46.3-.61,1.22-1.07,1.82v-1.06a6.21,6.21,0,0,1-5.23,1.46c-.14-3.91.51-8.93,1.54-9.68,2.17.19,5.9,2.36,6.93,5.17h0c-.36-.39-.88-.56-1.23-.91" transform="translate(-190.62 -323.47)"/><path class="l" d="M286,442.34c-1-2.59-3.37-3.35-5.83-3.81a3,3,0,0,1,.77-1.52c2.17.19,5.9,2.36,6.93,5.17h0c-.36-.39-.88-.56-1.23-.91a6.88,6.88,0,0,1,.76,3.05,1.36,1.36,0,0,0-.13-.3,5.54,5.54,0,0,0-1.24-2.45Z" transform="translate(-190.62 -323.47)"/><path class="m" d="M280.29,451.19h0l0,0c-1.05-1.3-1.17-6.21-.67-10,.17-1.33.57-3.66,1.3-4.19l0,0h0c2.14.19,5.93,2.32,7,5.23l0,.1h-.11a1.17,1.17,0,0,1-.47-.17,4.64,4.64,0,0,1,.08,4.31l-.08.19-.06-.19a4.06,4.06,0,0,0-.35-.69,4.64,4.64,0,0,1-1.36,3.27l-.19.16.07-.24a3.11,3.11,0,0,0,0-.89c-.53,1.07-2.42,3.21-4.78,3.21a3.44,3.44,0,0,1-.46,0m5.34-3.47a3.1,3.1,0,0,1,.05,1,4.73,4.73,0,0,0,1.14-3.28v-.32l.15.28.1.16c.1.17.23.39.33.6a4.37,4.37,0,0,0-.29-4.24l-.19-.29.29.18a2.65,2.65,0,0,0,.53.27c-1.1-2.77-4.71-4.8-6.79-5-.49.39-.94,1.87-1.22,4.07-.49,3.78-.36,8.62.62,9.89l.41,0c2.36,0,4.39-2.35,4.74-3.35l.07-.21Z" transform="translate(-190.62 -323.47)"/><path class="s" d="M284.55,386.18c-.15.83,1.09,1.74,2.77,2s3.16-.15,3.3-1-1.1-1.75-2.77-2-3.16.15-3.3,1" transform="translate(-190.62 -323.47)"/><path class="t" d="M287.31,388.29c-1.72-.3-3-1.25-2.84-2.13.12-.68,1.07-1.14,2.36-1.14a6.06,6.06,0,0,1,1,.09c1.72.3,3,1.25,2.84,2.13-.12.68-1.07,1.14-2.36,1.14a6.06,6.06,0,0,1-1-.09m-2.69-2.1c-.13.79,1.08,1.66,2.72,1.95a5.63,5.63,0,0,0,1,.09c1.21,0,2.1-.41,2.21-1,.13-.79-1.08-1.66-2.72-1.95a6.85,6.85,0,0,0-1-.08c-1.21,0-2.1.4-2.21,1" transform="translate(-190.62 -323.47)"/><path class="t" d="M288.37,387.59l.33,0c.55,0,.93-.23,1-.52a.73.73,0,0,0-.28-.75,3.29,3.29,0,0,0-2.29-.71c-.37,0-.62.16-.69.35a.5.5,0,0,0,.19.51,2.18,2.18,0,0,0,1.49.46c.25,0,.41-.1.46-.24a.33.33,0,0,0-.13-.36,1.36,1.36,0,0,0-1-.3.35.35,0,0,0-.32.17.23.23,0,0,0,.09.26.93.93,0,0,0,.64.2v-.15a.78.78,0,0,1-.53-.16.19.19,0,0,1-.05-.1s.06-.06.19-.07a1.34,1.34,0,0,1,.86.26s.11.13.09.2-.12.12-.33.14a2,2,0,0,1-1.37-.42c-.14-.13-.19-.25-.15-.35s.25-.23.55-.25a3.17,3.17,0,0,1,2.17.67c.22.21.31.42.25.59s-.42.38-.9.42a5,5,0,0,1-3.43-1.06l-.11.11a5.13,5.13,0,0,0,3.22,1.12" transform="translate(-190.62 -323.47)"/><path class="u" d="M271.36,472.72c-.07-2.21-1.14-8.38-5.18-11.81s-7-6.62-10.43-8.9a59.81,59.81,0,0,0-17.89-8.15c-1.14-.61-.46-3.27.91-3.43,3,.08,15.76,4.8,23,8.68,2.05,1.22,7,4.19,8.37,2.13,3.05-2.81,4.34-14.08,4.95-16.75.23-6.32,3.68-17.18,4.7-26.11s4.11-19.49,4.77-22.29c.41,1.83,4.72,2.85,6,1.12-.1,2.69-1.78,7.26-2.64,11s-2.08,13.8-3.81,22.13c-.71,4.16-2.31,19.2-3.25,25.28-1.31,8.58,2.85,27.08,2.85,27.08Z" transform="translate(-190.62 -323.47)"/><path class="t" d="M274.71,469.14c1.22-1.68.46-3.81,1.52-5.48,1.53,2.28,2.29,5,3.51,7.46-.3-2.68-1.61-7.67,2.15-8.33.86,5.51,1.86,9.93,1.86,9.93H271.36a19.37,19.37,0,0,0-3.51-10.05,15.28,15.28,0,0,1,4.58.53c1.67.61,2.28,3.65,2.28,5.94" transform="translate(-190.62 -323.47)"/><path class="t" d="M238.77,440.43c2.9.08,14.54,4.35,21.9,8.11-.08.73-.31,1.26-.88,1.26-5.48.15-9.9-4.57-15.53-5.64,5.59,3.17,11.86,6,15.79,11.25a40,40,0,0,0-4.3-3.4,59.81,59.81,0,0,0-17.89-8.15c-1.14-.61-.46-3.27.91-3.43" transform="translate(-190.62 -323.47)"/><path class="t" d="M279.13,442.18c.91-4.72,1.67-9,2.28-13.55a44.51,44.51,0,0,0-2,4.72A53.53,53.53,0,0,1,281,417.06c-3.51,5.63-3,12.18-3.81,18.58a7.62,7.62,0,0,1-3.28,5.55c.59-2.91,1-5.57,1.22-6.69.23-6.33,4.9-16.74,5.91-25.67s2.9-19.94,3.56-22.74c.41,1.83,4.72,2.85,6,1.12-.1,2.69-1.78,7.26-2.64,11s-2.08,13.81-3.81,22.14c-.69,4.05-2.23,18.43-3.17,24.79l-.33-.07c-1.37-.15-1.83-1.68-1.52-2.9" transform="translate(-190.62 -323.47)"/><path class="v" d="M282.18,426.5c-1.22-.91-.77-3.05-.46-4.72,0-.61.46-1.07.46-1.68,0-2.59.76-4.87.91-7.31,0-.15-.61.31-1.07.46-.3-1.52.76-2.89.76-4.26.46-5.79.16-11.27,2.14-16.75.45-1.07,1.67-1.07,2.58-1.68.16-.15.16-.91-.3-.91a3.72,3.72,0,0,1-2.84-2.65c.08-.36.14-.66.2-.91.41,1.83,4.72,2.85,6,1.12-.1,2.69-1.78,7.26-2.64,11s-2.08,13.8-3.81,22.13c-.2,1.18-.47,3.24-.78,5.71-.37.49-.76.74-1.19.43" transform="translate(-190.62 -323.47)"/><path class="t" d="M285.35,401.58a34.87,34.87,0,0,1,1.82-9,32.16,32.16,0,0,0-2,9A46,46,0,0,1,283,412a42.53,42.53,0,0,0,2.38-10.43" transform="translate(-190.62 -323.47)"/><path class="t" d="M275.7,448.39c.14-.66.33-1.5.55-2.47,1-4.51,2.75-12.07,2.5-16.52-.3-5.29,1.47-12.31,1.47-12.31s-1.93,7-1.62,12.32c.25,4.43-1.47,12-2.5,16.48-.22,1-.41,1.8-.55,2.47Z" transform="translate(-190.62 -323.47)"/><path class="t" d="M279,445.43c.1-6.81,2.39-17.73,2.39-17.73s-2.44,10.9-2.54,17.73Z" transform="translate(-190.62 -323.47)"/><path class="t" d="M279.55,470.78c0-.09-4.44-9.7-3.34-19.65l-.15,0c-1.11,10,3.49,19.67,3.49,19.67" transform="translate(-190.62 -323.47)"/><path class="t" d="M275,468.88c0-.1-.46-9.85-6-14.37l-.09.12c5.5,4.48,6.11,14.25,6.11,14.25" transform="translate(-190.62 -323.47)"/><path class="t" d="M262.07,453.31l.1-.12c-6.93-5.73-17.53-9.21-17.53-9.21s10.52,3.62,17.43,9.33" transform="translate(-190.62 -323.47)"/><path class="j" d="M279.41,453.06c.13.68,1.06,1.07,2.09.88s1.77-.88,1.65-1.56-1.06-1.07-2.09-.88-1.77.89-1.65,1.56" transform="translate(-190.62 -323.47)"/><path class="k" d="M279.41,453.06c.13.68,3.86,0,3.74-.68s-1.06-1.07-2.09-.88-1.77.89-1.65,1.56" transform="translate(-190.62 -323.47)"/><path class="m" d="M279.34,453.08a1.15,1.15,0,0,1,.41-1,2.48,2.48,0,0,1,1.29-.62,2.44,2.44,0,0,1,.53-.05c.87,0,1.55.41,1.65,1s-.63,1.45-1.7,1.65a3.17,3.17,0,0,1-.53.05c-.86,0-1.54-.41-1.65-1m1.73-1.5a2.4,2.4,0,0,0-1.22.58,1,1,0,0,0-.36.89c.09.51.71.87,1.5.87a2.83,2.83,0,0,0,.5-.05c1-.18,1.7-.84,1.58-1.48s-.71-.86-1.5-.86a2.83,2.83,0,0,0-.5.05" transform="translate(-190.62 -323.47)"/><path class="j" d="M278.78,450.84a2.4,2.4,0,1,0,2-2.33,2.19,2.19,0,0,0-2,2.33" transform="translate(-190.62 -323.47)"/><path class="k" d="M282.18,451.17c-1.07.15-2.29,0-2.75-1.07a4.05,4.05,0,0,1,0-.92,2.54,2.54,0,0,1,1.36-.67,2.19,2.19,0,0,1,2.63,1.38,1.85,1.85,0,0,1-1.2,1.28" transform="translate(-190.62 -323.47)"/><path class="m" d="M278.71,450.86a1.86,1.86,0,0,1,.44-1.54,2.72,2.72,0,0,1,1.58-.89,3.05,3.05,0,0,1,.52-.05,2.16,2.16,0,0,1,2.23,1.61,2.25,2.25,0,0,1-2,2.42,2.29,2.29,0,0,1-.52,0,2.16,2.16,0,0,1-2.23-1.6m2.05-2.28a2.57,2.57,0,0,0-1.49.83,1.74,1.74,0,0,0-.41,1.42,2,2,0,0,0,2.08,1.48,4,4,0,0,0,.49,0,2.11,2.11,0,0,0,1.9-2.26,2,2,0,0,0-2.08-1.48,2.72,2.72,0,0,0-.49.05" transform="translate(-190.62 -323.47)"/><path class="j" d="M278.32,447.82a2.39,2.39,0,1,0,2-2.34,2.16,2.16,0,0,0-2,2.34" transform="translate(-190.62 -323.47)"/><path class="k" d="M280.5,448a3,3,0,0,1-1.31-2,2.81,2.81,0,0,1,1.09-.46,2.17,2.17,0,0,1,2.66,1.49.28.28,0,0,1,0,.09,1.73,1.73,0,0,1-2.45.91" transform="translate(-190.62 -323.47)"/><path class="m" d="M278.24,447.83a1.87,1.87,0,0,1,.45-1.54,2.6,2.6,0,0,1,1.58-.88,2.24,2.24,0,0,1,.52-.05A2.16,2.16,0,0,1,283,447a2.26,2.26,0,0,1-2,2.43,3,3,0,0,1-.52.05,2.16,2.16,0,0,1-2.23-1.61m2.05-2.27a2.44,2.44,0,0,0-1.48.83,1.7,1.7,0,0,0-.42,1.42,2,2,0,0,0,2.08,1.47,2.81,2.81,0,0,0,.5,0,2.12,2.12,0,0,0,1.9-2.25,2,2,0,0,0-2.08-1.48,2.12,2.12,0,0,0-.5.05" transform="translate(-190.62 -323.47)"/><path class="i" d="M280.9,418.63c-.3-2.94,3.13-3.12,5.16-2.41s2.51,2.21,2.18,3.35a2.86,2.86,0,0,1,.43,4,2.89,2.89,0,0,1-2,3.47l-2.11-1.15a6.72,6.72,0,0,1-3-.45,1.75,1.75,0,0,1-.48-2.84,2,2,0,0,1-.13-3.94" transform="translate(-190.62 -323.47)"/><path class="j" d="M287.35,424.52c-1.37,1.52-3.5,1.07-5.18.61-1.52-.31-1.52-2.13-.3-3.05-.3.16-.76-.15-.91-.3-.77-1.37.3-2.74,1.37-3.5a1,1,0,0,1-.46-1.68,3.78,3.78,0,0,1,.81-.57,6.06,6.06,0,0,1,3.38.19c2,.71,2.51,2.21,2.18,3.35a2.86,2.86,0,0,1,.43,4,4,4,0,0,1,.05.67l-.15.16c-.46.15-1.07-.16-1.22.15" transform="translate(-190.62 -323.47)"/><path class="k" d="M287.05,423.61c-.46.76-.76,1.21-1.68,1.37-1.52.15-3.8,0-3.8-1.83,0-.61.91-1.22,1.67-1.22-1.07-.15-2.28-1.22-1.67-2.28.3-.92,1.52-1.22,2.43-1.37a1.42,1.42,0,0,1-1.37-.77,1.23,1.23,0,0,1,.23-1.52,6.07,6.07,0,0,1,3.2.23c2,.71,2.51,2.21,2.18,3.35a2.71,2.71,0,0,1,1,2.34,6.85,6.85,0,0,1-1.31,1.7c-.15.15-.76-.16-.91,0" transform="translate(-190.62 -323.47)"/><path class="m" d="M286.66,427.08a3,3,0,0,0,2.09-3.52,2.84,2.84,0,0,0,.58-2.16,2.67,2.67,0,0,0-1-1.86c.31-1.19-.25-2.69-2.25-3.39-1.39-.49-3.37-.54-4.45.31a2.27,2.27,0,0,0-.81,2.12,2.22,2.22,0,0,0-1.53,2.06,2.1,2.1,0,0,0,1.61,2,1.85,1.85,0,0,0-.45,1.54,1.8,1.8,0,0,0,1,1.34,6.71,6.71,0,0,0,3.06.46v-.15a6.82,6.82,0,0,1-3-.45,1.65,1.65,0,0,1-.95-1.22,1.74,1.74,0,0,1,.49-1.5l.09-.09-.13,0a2,2,0,0,1-1.61-1.85,2.08,2.08,0,0,1,1.49-1.94H281v-.07a2.16,2.16,0,0,1,.74-2c1-.82,3-.76,4.31-.29,2.06.72,2.44,2.21,2.14,3.26l0,.05.05,0a2.54,2.54,0,0,1,1,1.79,2.7,2.7,0,0,1-.57,2.07l0,0v0a2.79,2.79,0,0,1-2,3.38Z" transform="translate(-190.62 -323.47)"/><path class="m" d="M289,423.21l-.13-.08a2.19,2.19,0,0,1-1.14,1s.68,0,1.27-1" transform="translate(-190.62 -323.47)"/><path class="m" d="M285.85,419.32a4.79,4.79,0,0,0-5.13-.7l0,.14a5,5,0,0,1,5.08.56" transform="translate(-190.62 -323.47)"/><path class="m" d="M281,422.72c1.6-1.41,3.93-.35,3.93-.35s-2.35-1.24-4,.23Z" transform="translate(-190.62 -323.47)"/><path class="i" d="M257.09,447.55a5.35,5.35,0,0,1,.54-2.84l6.31-2.64s.53-2.25,3.84-3.54a11.29,11.29,0,0,1,7.45-.17,1.72,1.72,0,0,0-.5.25,5.81,5.81,0,0,1,3.87,2.19,1.37,1.37,0,0,0-.64,0,5.93,5.93,0,0,1,2.92,3.9,4.45,4.45,0,0,1-.58-.38,6.38,6.38,0,0,1-.12,4.7,2.36,2.36,0,0,0-.38-.93c-.18,2.28-2,4.26-3.28,5.27,1.12,0,2-.4,3.39-.13a2.73,2.73,0,0,1,2.19,2.19,2.46,2.46,0,0,1,.7,3.59,2.08,2.08,0,0,1-1.88,2.94c-1.87,0-2.68-.69-5-.42s-3.18,1.06-5.29.64-2.65-2.53-2-4.24c-1.39.49-4.55-.08-6.91-1.75a8.77,8.77,0,0,1-3.67-6.38,2.48,2.48,0,0,0-.44,1.18c-.5-.68-.23-3.31.09-4.32a4.32,4.32,0,0,0-.6.93" transform="translate(-190.62 -323.47)"/><path class="j" d="M267.78,438.53a11.29,11.29,0,0,1,7.45-.17,1.72,1.72,0,0,0-.5.25,5.81,5.81,0,0,1,3.87,2.19,1.37,1.37,0,0,0-.64,0,5.93,5.93,0,0,1,2.92,3.9,4.45,4.45,0,0,1-.58-.38,6.38,6.38,0,0,1-.12,4.7,2.36,2.36,0,0,0-.38-.93c-.18,2.28-2,4.26-3.28,5.27,1.12,0,2-.4,3.39-.13a2.73,2.73,0,0,1,2.19,2.19,2.46,2.46,0,0,1,.7,3.59,2.2,2.2,0,0,1-.07,1.87,8.36,8.36,0,0,1-4.36-.53c-2.13-.92-5.18,2.28-7.46.45-3.05-2.74,1.67-4.26,2.74-7-.46.46-1.22.46-1.68,1.06v-.6c-2,1.52-5.18,2.89-7.31.91a2.67,2.67,0,0,0,.31,1.06c-.77-1.37-2.29-1.67-3.05-3v1.07c-1.07-1.07-1.37-2.59-2-3.81a1.15,1.15,0,0,0-.3.76,9.25,9.25,0,0,1-.67-7l5-2.08s.53-2.25,3.84-3.54" transform="translate(-190.62 -323.47)"/><path class="k" d="M277.89,453.19a5.69,5.69,0,0,1,2,0,2.73,2.73,0,0,1,2.19,2.19,2.47,2.47,0,0,1,.7,3.59,2,2,0,0,1,.13,1.29.83.83,0,0,1-.3.2c-1.06.61-2.43,0-3.65-.92-.46-.45-1.53-.3-2.29,0a6.87,6.87,0,0,1-5.18.61c-.91-.45-.91-2.13-.45-2.74,1.94-1.94,4.64-2.62,6.83-4.22" transform="translate(-190.62 -323.47)"/><path class="k" d="M267.78,438.53a11.29,11.29,0,0,1,7.45-.17,1.72,1.72,0,0,0-.5.25,5.81,5.81,0,0,1,3.87,2.19,1.37,1.37,0,0,0-.64,0,5.93,5.93,0,0,1,2.92,3.9,4.45,4.45,0,0,1-.58-.38,7.66,7.66,0,0,1,.3,3.48,3.1,3.1,0,0,0-.86-1.46,5.7,5.7,0,0,1-1.52,3.5v-1.22c-.77,1.68-2.29,3.5-4.27,3.81.46-.46.31-.92.31-1.37a7.21,7.21,0,0,1-3.81,2.89c-2.59.76-5.48.31-7-2.13v.91c-1.37-.76-1.67-2.28-2.28-3.65a2.06,2.06,0,0,1-.31.91,7.6,7.6,0,0,1-.6-5.79c0-.2.08-.4.13-.59l3.56-1.5s.53-2.25,3.84-3.54" transform="translate(-190.62 -323.47)"/><path class="l" d="M278.52,444.16v1.37a9.6,9.6,0,0,0-2.89-3.65v.91a7.93,7.93,0,0,0-5.33-2.43c.45.15.6.45.76.91-2-.76-4.27-1.07-5.79.61-.3-.61.31-.76.46-1.22-.87,0-1.19.84-1.75,1.28a6.07,6.07,0,0,1,3.8-3.41,11.29,11.29,0,0,1,7.45-.17,1.72,1.72,0,0,0-.5.25,5.81,5.81,0,0,1,3.87,2.19,1.37,1.37,0,0,0-.64,0,5.93,5.93,0,0,1,2.92,3.9,4.45,4.45,0,0,1-.58-.38,7.66,7.66,0,0,1,.3,3.48,3.11,3.11,0,0,0-.67-1.25,4.5,4.5,0,0,0-1.41-2.35" transform="translate(-190.62 -323.47)"/><path class="m" d="M271.8,462.33a7.88,7.88,0,0,0,2.08-.35,14.85,14.85,0,0,1,2.08-.42,8.51,8.51,0,0,1,3,.18,8.85,8.85,0,0,0,2,.24,2.05,2.05,0,0,0,1.8-1,2.29,2.29,0,0,0,.17-2,2.5,2.5,0,0,0,.44-2,2.56,2.56,0,0,0-1.16-1.69,2.84,2.84,0,0,0-2.25-2.22,5.79,5.79,0,0,0-2.17,0c-.34,0-.67.09-1,.1,1-.82,2.85-2.68,3.12-5a2.28,2.28,0,0,1,.23.64l0,.1.05.18.09-.16a6.36,6.36,0,0,0,.18-4.56l.05,0a1.17,1.17,0,0,0,.38.23l.11,0,0-.12a6.19,6.19,0,0,0-2.67-3.83.52.52,0,0,1,.28,0l.23.11-.13-.21a6,6,0,0,0-3.68-2.22.66.66,0,0,1,.26-.1l.35,0-.33-.11a11.35,11.35,0,0,0-7.5.17c-3.31,1.29-3.89,3.57-3.89,3.59s.71-2.19,3.94-3.45a11.23,11.23,0,0,1,7.18-.24c-.14.07-.28.17-.3.18l-.21.15h.3a6,6,0,0,1,3.65,2h-.94l.45.15a5.94,5.94,0,0,1,2.84,3.7c-.07,0-.14-.1-.21-.15a1.18,1.18,0,0,0-.24-.17l-.16-.09.05.18a6.58,6.58,0,0,1,0,4.46,2.08,2.08,0,0,0-.36-.76l-.12-.15V448c-.19,2.54-2.53,4.64-3.25,5.22l-.16.13h.21a8.3,8.3,0,0,0,1.25-.11,5.79,5.79,0,0,1,2.13,0,2.66,2.66,0,0,1,2.12,2.12v0l0,0a2.38,2.38,0,0,1,1.12,1.61,2.32,2.32,0,0,1-.44,1.88l0,0,0,.05a2.06,2.06,0,0,1-.14,1.92,1.91,1.91,0,0,1-1.67.9,8.41,8.41,0,0,1-2-.24,8.65,8.65,0,0,0-3-.18,13.88,13.88,0,0,0-2.11.43,6.21,6.21,0,0,1-3.17.22,2.61,2.61,0,0,1-1.82-1.26,3.55,3.55,0,0,1-.16-2.89l.06-.15-.15.06c-1.39.49-4.53-.11-6.84-1.74a8.74,8.74,0,0,1-3.65-6.32v-.17l-.12.11a2.25,2.25,0,0,0-.43,1,9,9,0,0,1,.21-4.06l.07-.23-.19.15a3.8,3.8,0,0,0-.52.75,6,6,0,0,1,.57-2.56l-.13-.07a5.54,5.54,0,0,0-.56,2.89l.06.21.09-.2a5.48,5.48,0,0,1,.37-.63c-.26,1.14-.46,3.38,0,4l.12.18,0-.22a2.69,2.69,0,0,1,.29-1,9,9,0,0,0,3.7,6.22c2.27,1.61,5.35,2.22,6.83,1.81a3.6,3.6,0,0,0,.22,2.86,2.73,2.73,0,0,0,1.92,1.34,6.35,6.35,0,0,0,1.16.12" transform="translate(-190.62 -323.47)"/><path class="m" d="M277.31,452.72l-.11-.11a13.29,13.29,0,0,1-4.45,3,11.42,11.42,0,0,0,4.56-2.85" transform="translate(-190.62 -323.47)"/><path class="m" d="M267.92,458.11a4.59,4.59,0,0,0,2.39-1.1,5.54,5.54,0,0,1-2.41.95Z" transform="translate(-190.62 -323.47)"/><path class="m" d="M282.79,459.12l.13-.08c-1-1.54-3.67-1.19-3.67-1.19s2.61-.2,3.54,1.27" transform="translate(-190.62 -323.47)"/><path class="m" d="M282.42,455.7l.09-.12A2.56,2.56,0,0,0,280,455a2.83,2.83,0,0,1,2.4.69" transform="translate(-190.62 -323.47)"/><path class="i" d="M250,407.24a10.32,10.32,0,0,1,1.95-6.48,3.53,3.53,0,0,0,.34,1.68,7.15,7.15,0,0,1,2.44-4.84,6.14,6.14,0,0,0-.23,2.1c.53-1.37,4.19-4.49,6.74-4.49a9.49,9.49,0,0,0-1.68,2.09,6.47,6.47,0,0,1,5.14-1.64,4.29,4.29,0,0,0-1.2,1.07c5.35-1.37,12.13,2.47,13.92,8.45a7.69,7.69,0,0,1,3.88,7.69,9.49,9.49,0,0,1-5.67,7.46c-.37,3.1-3,4.77-7.16,4.49-4.11.73-6,2.71-9.9,2.46s-7.39-2.24-7.08-8.06c-.84-3.46-2.52-7-1.49-12" transform="translate(-190.62 -323.47)"/><path class="j" d="M275.32,419.49a13.59,13.59,0,0,0-.76,2.75,3.71,3.71,0,0,1-3.12,1.75c-2,.25-2.32-.34-4.45.12a43,43,0,0,0-5.83,1.17c-.15,0,.46.31.61.61a6.78,6.78,0,0,1-4.27-.46V426a3.33,3.33,0,0,1-1.67-.15c-.91-.15-1.22-1.22-1.68-2v.76c-1.52-.76-.6-3.35-1.37-4.72a3.66,3.66,0,0,1-.61,1.07c-.15-1.07.46-2.29,0-3.2a14.86,14.86,0,0,1-1.52-5.64c0-.15.46,0,.46,0a17.4,17.4,0,0,1-1.06-6.48,9.85,9.85,0,0,1,1.9-4.94,3.53,3.53,0,0,0,.34,1.68,7.15,7.15,0,0,1,2.44-4.84,6.14,6.14,0,0,0-.23,2.1c.53-1.37,4.19-4.49,6.74-4.49a9.49,9.49,0,0,0-1.68,2.09,6.48,6.48,0,0,1,5.14-1.64,4.29,4.29,0,0,0-1.2,1.07c5.35-1.37,12.13,2.47,13.92,8.45a7.69,7.69,0,0,1,3.88,7.69,6.76,6.76,0,0,1-.16,1c-1.27,2.34-3.78,3.86-5.82,5.65" transform="translate(-190.62 -323.47)"/><path class="k" d="M275.17,418.28c-1.07.45-.15,3.5-2.44,4.56-2,.92-4-.15-5.48.31-2.44.76-5,1.67-7.61,1.22.15.3.76.3.76.76a5.28,5.28,0,0,1-4-1.37v.45c-1.07.16-.92-1.37-1.68-1.52.16.31-.45.46-.3.76a2.31,2.31,0,0,1-.91-1.22c-.46-1.52.15-3.34-.31-4.56-.61-2-1.83-3.81-1.83-5.94h.31a17.81,17.81,0,0,1,.16-10.88l.07-.09a3.53,3.53,0,0,0,.34,1.68,7.15,7.15,0,0,1,2.44-4.84,6.14,6.14,0,0,0-.23,2.1c.53-1.37,4.19-4.5,6.74-4.5a9.81,9.81,0,0,0-1.68,2.1,6.4,6.4,0,0,1,5.14-1.64,4.29,4.29,0,0,0-1.2,1.07c5.35-1.37,12.13,2.47,13.92,8.45a7.46,7.46,0,0,1,3.89,6.25c-.44,3.13-2.85,5.63-6.14,6.85" transform="translate(-190.62 -323.47)"/><path class="l" d="M276.69,406.4c.76-4.57-4.26-6.7-7.61-8.38a1.16,1.16,0,0,0,.3.61,7.78,7.78,0,0,0-4.41-1.22c.3,0,.45.16.6.46-1.52,0-3.19-.3-4.41.61-.61.3.61.15.45.3-1.37.61-2.89.61-4.11,1.53,0-.92.77-1.37.92-2.14-2.13.46-2.13,3.05-3.5,4.42v-2a4.54,4.54,0,0,0-1.83,2.89,9.15,9.15,0,0,1,1.3-5.62l.34-.28a6.14,6.14,0,0,0-.23,2.1c.53-1.37,4.19-4.49,6.74-4.49a9.49,9.49,0,0,0-1.68,2.09,6.47,6.47,0,0,1,5.14-1.64,4.29,4.29,0,0,0-1.2,1.07c5.35-1.37,12.13,2.47,13.92,8.45a7.26,7.26,0,0,1,3.58,4.47,5.33,5.33,0,0,0-4.31-3.25" transform="translate(-190.62 -323.47)"/><path class="m" d="M258.57,427.36c-3.45-.22-7.48-1.81-7.16-8.13-.17-.71-.37-1.42-.59-2.16-.84-2.88-1.71-5.85-.89-9.84a10.29,10.29,0,0,1,2-6.52l.18-.21,0,.28a3.7,3.7,0,0,0,.21,1.36,7.2,7.2,0,0,1,2.45-4.6l.2-.14-.08.23a5.67,5.67,0,0,0-.23,1.75c.86-1.51,4.22-4.25,6.67-4.25h.2l-.15.13a8.26,8.26,0,0,0-1.35,1.61,6.52,6.52,0,0,1,4-1.33,6.81,6.81,0,0,1,.78,0l.23,0-.2.12a4.67,4.67,0,0,0-1.06.88,8.9,8.9,0,0,1,2.08-.24,12.86,12.86,0,0,1,11.72,8.76,7.73,7.73,0,0,1,3.9,7.75,9.65,9.65,0,0,1-5.68,7.51c-.37,2.88-2.69,4.54-6.37,4.54l-.86,0a21.1,21.1,0,0,0-4.22,1.29,13,13,0,0,1-5,1.19l-.67,0m9.9-2.61.86,0c3.62,0,5.88-1.63,6.22-4.46v0l0,0a9.44,9.44,0,0,0,5.62-7.4,7.54,7.54,0,0,0-3.84-7.61l0,0v0a12.68,12.68,0,0,0-11.58-8.67,9.1,9.1,0,0,0-2.24.27l-.17.05.08-.16a4.1,4.1,0,0,1,1-1,4.89,4.89,0,0,0-.54,0,6.28,6.28,0,0,0-4.32,1.66l-.49.49.38-.58a10.48,10.48,0,0,1,1.53-2c-2.45.16-5.93,3.08-6.46,4.44l-.13.33,0-.36a7.07,7.07,0,0,1,.17-1.9,7.13,7.13,0,0,0-2.22,4.64v.21l-.13-.16a3.62,3.62,0,0,1-.37-1.49,10.24,10.24,0,0,0-1.78,6.23h0c-.81,4,0,6.92.88,9.77.22.76.43,1.46.6,2.19h0c-.33,6.2,3.63,7.76,7,8l.66,0a12.92,12.92,0,0,0,4.95-1.18,21.2,21.2,0,0,1,4.27-1.3h0Z" transform="translate(-190.62 -323.47)"/><path class="m" d="M255.5,411.33c.94,1.81,2.71,2.75,3.95,2.1s1.48-2.63.54-4.44-2.71-2.75-3.95-2.1-1.49,2.63-.54,4.44" transform="translate(-190.62 -323.47)"/><path class="w" d="M255.77,411.88c.94,1.81,2.71,2.75,4,2.1s1.49-2.63.54-4.44-2.71-2.75-3.95-2.1-1.48,2.63-.54,4.44" transform="translate(-190.62 -323.47)"/><path class="x" d="M255.77,411.88c.94,1.81,5.44-.53,4.49-2.34s-2.71-2.75-3.95-2.1-1.48,2.63-.54,4.44" transform="translate(-190.62 -323.47)"/><path class="m" d="M255.7,411.92c-1-1.85-.7-3.88.58-4.55a1.91,1.91,0,0,1,.89-.21,4,4,0,0,1,3.16,2.34c1,1.85.7,3.88-.57,4.55a1.91,1.91,0,0,1-.89.21,4,4,0,0,1-3.17-2.34m.65-4.41c-1.2.62-1.43,2.57-.51,4.34a3.81,3.81,0,0,0,3,2.26,1.77,1.77,0,0,0,.82-.2c1.2-.62,1.43-2.57.51-4.34a3.84,3.84,0,0,0-3-2.26,1.74,1.74,0,0,0-.82.2" transform="translate(-190.62 -323.47)"/><path class="y" d="M256.72,412.42a2,2,0,1,0,.62-3,2.21,2.21,0,0,0-.62,3" transform="translate(-190.62 -323.47)"/><path class="z" d="M256.72,412.42a2,2,0,1,0,3.45-1.81,2.1,2.1,0,0,1-3.45,1.81" transform="translate(-190.62 -323.47)"/><path class="aa" d="M256.71,412.42a2,2,0,1,1,2.84,1.22,2.21,2.21,0,0,1-2.84-1.22m0,0a2,2,0,1,0,.62-3,2.21,2.21,0,0,0-.62,3" transform="translate(-190.62 -323.47)"/><path class="ab" d="M257.07,412.23a1.58,1.58,0,1,0,.5-2.41,1.76,1.76,0,0,0-.5,2.41" transform="translate(-190.62 -323.47)"/><path class="x" d="M258,410.76a.74.74,0,1,0,.32-1,.74.74,0,0,0-.32,1" transform="translate(-190.62 -323.47)"/><path class="x" d="M259.35,411.49a.39.39,0,0,0,.53.16.39.39,0,1,0-.36-.69.39.39,0,0,0-.17.53" transform="translate(-190.62 -323.47)"/><path class="x" d="M257.78,413.12a.27.27,0,1,0,.11-.36.27.27,0,0,0-.11.36" transform="translate(-190.62 -323.47)"/><path class="m" d="M267.52,405.9c1,1.8,2.72,2.74,4,2.1s1.48-2.64.54-4.44-2.71-2.75-3.95-2.1-1.49,2.63-.55,4.44" transform="translate(-190.62 -323.47)"/><path class="w" d="M267.8,406.45c.94,1.81,2.71,2.75,3.95,2.1s1.49-2.64.55-4.44-2.72-2.75-4-2.1-1.48,2.63-.54,4.44" transform="translate(-190.62 -323.47)"/><path class="x" d="M267.8,406.45c.94,1.81,5.44-.54,4.5-2.34s-2.72-2.75-4-2.1-1.48,2.63-.54,4.44" transform="translate(-190.62 -323.47)"/><path class="m" d="M267.73,406.48c-1-1.84-.7-3.88.58-4.54a1.91,1.91,0,0,1,.89-.21,4,4,0,0,1,3.16,2.34c1,1.84.7,3.88-.57,4.55a1.91,1.91,0,0,1-.89.21,4,4,0,0,1-3.17-2.35m.65-4.41c-1.2.63-1.43,2.58-.51,4.34a3.8,3.8,0,0,0,3,2.27,1.77,1.77,0,0,0,.82-.2c1.2-.62,1.43-2.57.51-4.34a3.84,3.84,0,0,0-3-2.26,1.74,1.74,0,0,0-.82.19" transform="translate(-190.62 -323.47)"/><path class="y" d="M268.75,407a2,2,0,1,0,.62-3,2.21,2.21,0,0,0-.62,3" transform="translate(-190.62 -323.47)"/><path class="z" d="M268.75,407a2,2,0,1,0,3.46-1.81,2.11,2.11,0,0,1-3.46,1.81" transform="translate(-190.62 -323.47)"/><path class="aa" d="M268.74,407a2,2,0,1,1,2.85,1.22,2.21,2.21,0,0,1-2.85-1.22m0,0a2,2,0,1,0,.63-3,2.21,2.21,0,0,0-.63,3" transform="translate(-190.62 -323.47)"/><path class="ab" d="M269.1,406.8a1.59,1.59,0,1,0,.49-2.41,1.76,1.76,0,0,0-.49,2.41" transform="translate(-190.62 -323.47)"/><path class="x" d="M270,405.33a.74.74,0,0,0,1,.31.75.75,0,0,0,.32-1,.74.74,0,0,0-1.32.69" transform="translate(-190.62 -323.47)"/><path class="x" d="M271.38,406.05a.39.39,0,0,0,.7-.36.39.39,0,0,0-.7.36" transform="translate(-190.62 -323.47)"/><path class="x" d="M269.81,407.69a.27.27,0,0,0,.47-.25.26.26,0,0,0-.36-.11.27.27,0,0,0-.11.36" transform="translate(-190.62 -323.47)"/><path class="m" d="M266.21,416.93a6.48,6.48,0,0,0,3-.7,7.6,7.6,0,0,0,3.75-5.8l-.15,0a7.43,7.43,0,0,1-3.67,5.68c-2.08,1.08-4.73.88-7.66-.59l-.07.14a11,11,0,0,0,4.82,1.29" transform="translate(-190.62 -323.47)"/><path class="ac" d="M272.18,412.8c.36,3.14,2.1,6.62-.29,8.07-3,1.78-6.21-2.36-8.35-4.45,4.39,1.35,7.32-.64,8.64-3.62" transform="translate(-190.62 -323.47)"/><path class="ad" d="M263.54,416.42c4.39,1.35,7.32-.64,8.64-3.62.28,2.47,1.42,5.15.73,6.88a5.35,5.35,0,0,0-2.46-2.47,4.28,4.28,0,0,0-5,1.12c-.68-.68-1.31-1.36-1.87-1.91" transform="translate(-190.62 -323.47)"/><path class="ae" d="M269.21,419.09c.59-1,2.54-.9,3.89-.19a2.52,2.52,0,0,1-1.21,2c-1.59.95-3.26.2-4.8-1a2,2,0,0,1,2.12-.76" transform="translate(-190.62 -323.47)"/><path class="af" d="M267,419.91l-.06-.05,0-.05a2,2,0,0,1,1.67-.86,2.44,2.44,0,0,1,.48.05,2,2,0,0,1,1.76-.72,4.91,4.91,0,0,1,2.2.55l.05,0v.05a2.53,2.53,0,0,1-1.25,2,2.94,2.94,0,0,1-1.56.45,5.53,5.53,0,0,1-3.32-1.47m3.89-1.48a1.83,1.83,0,0,0-1.66.7l0,.05-.06,0a1.93,1.93,0,0,0-.49-.06,1.82,1.82,0,0,0-1.5.73,5.33,5.33,0,0,0,3.17,1.4,2.89,2.89,0,0,0,1.49-.43,2.41,2.41,0,0,0,1.16-1.86,4.8,4.8,0,0,0-2.08-.51" transform="translate(-190.62 -323.47)"/><path class="af" d="M271.09,420a4.59,4.59,0,0,0-2.16-1v.15a5.55,5.55,0,0,1,2.17.85" transform="translate(-190.62 -323.47)"/><path class="m" d="M264.45,417.45l-1-1-.22-.22.3.09a9.12,9.12,0,0,0,2.64.42,6.33,6.33,0,0,0,5.91-4l.11-.26,0,.28a23.5,23.5,0,0,0,.46,2.48c.53,2.35,1,4.56-.8,5.66a2.94,2.94,0,0,1-1.56.45c-2.11,0-4.22-2.18-5.91-3.93m1.75-.52a9,9,0,0,1-2.4-.35l.75.77c1.68,1.72,3.76,3.87,5.81,3.87a2.87,2.87,0,0,0,1.49-.42c1.72-1,1.23-3.2.72-5.49-.16-.74-.33-1.49-.43-2.24a6.44,6.44,0,0,1-5.94,3.86" transform="translate(-190.62 -323.47)"/><path class="m" d="M259.87,416.36a2.08,2.08,0,0,0,1.62-.74,1.28,1.28,0,0,0,.16-1.12,1.46,1.46,0,0,1-.28,1,2.47,2.47,0,0,1-1.57.84h.07" transform="translate(-190.62 -323.47)"/><path class="m" d="M272.7,410.57a1.92,1.92,0,0,0,.51-.08,1.25,1.25,0,0,0,.78-.8,1.54,1.54,0,0,1-.83.65,2,2,0,0,1-1.66-.35,1.71,1.71,0,0,0,1.2.58" transform="translate(-190.62 -323.47)"/><path class="k" d="M259.2,413.28a3.75,3.75,0,0,1,2.73-.66l-4.45,3.18a3.21,3.21,0,0,1,1.72-2.52" transform="translate(-190.62 -323.47)"/><path class="m" d="M257.55,415.8a3.16,3.16,0,0,1,1.69-2.46,3.79,3.79,0,0,1,2.67-.65,3.29,3.29,0,0,0-2.75.52,3,3,0,0,0-1.61,2.59" transform="translate(-190.62 -323.47)"/><path class="k" d="M271.61,407.49a3.75,3.75,0,0,1,2.73-.66L269.89,410a3.22,3.22,0,0,1,1.72-2.52" transform="translate(-190.62 -323.47)"/><path class="m" d="M270,410a3.19,3.19,0,0,1,1.69-2.46,3.68,3.68,0,0,1,2.67-.64,3.24,3.24,0,0,0-2.74.51A3,3,0,0,0,270,410" transform="translate(-190.62 -323.47)"/><path class="ag" d="M263.05,411.61c1.49,2.46,3.47,3.95,5.61,2.68s1.69-3.76.19-6.22-3.4-4.06-5.61-2.68-1.69,3.76-.19,6.22" transform="translate(-190.62 -323.47)"/><path class="ah" d="M263.26,410.8c1.28,2.09,3,3.33,4.9,2.2s1.55-3.26.28-5.35-2.91-3.43-4.89-2.21-1.56,3.27-.29,5.36" transform="translate(-190.62 -323.47)"/><path class="ai" d="M267,407.57c.67,1,1.13,2,1.43,1.79s0-1.3-.69-2.28-1.45-1.51-1.75-1.29.34.79,1,1.78" transform="translate(-190.62 -323.47)"/><path class="aj" d="M263,411.65c-1.81-3-1.74-5.11.22-6.33a3.16,3.16,0,0,1,1.66-.52c1.39,0,2.75,1.09,4.06,3.23,1.07,1.77,1.48,3.33,1.19,4.53a2.94,2.94,0,0,1-1.41,1.8,3.17,3.17,0,0,1-1.61.47c-1.42,0-2.84-1.1-4.11-3.18m.3-6.2c-1.88,1.16-1.93,3.22-.17,6.12.87,1.42,2.26,3.11,4,3.11a3,3,0,0,0,1.53-.45,2.72,2.72,0,0,0,1.34-1.71c.29-1.15-.12-2.68-1.17-4.41-1.28-2.09-2.6-3.15-3.93-3.15a3,3,0,0,0-1.58.49" transform="translate(-190.62 -323.47)"/><path class="m" d="M264.19,397.58a5.06,5.06,0,0,1,4.27.53c-.89-1.67-3.65-2-4.27-.53" transform="translate(-190.62 -323.47)"/><path class="m" d="M255.78,403.61a3.63,3.63,0,0,0-2.41,3.34c-.33-1.77.79-4,2.41-3.34" transform="translate(-190.62 -323.47)"/><path class="f" d="M197.26,535a1.83,1.83,0,0,0,1.43-.68,2.61,2.61,0,0,0,0-3.28,1.73,1.73,0,0,0-1.37-.66,2,2,0,0,0-1.49.69,2.32,2.32,0,0,0-.63,1.61,2.36,2.36,0,0,0,.6,1.63,1.88,1.88,0,0,0,1.42.69" transform="translate(-190.62 -323.47)"/><path class="f" d="M204.36,537.19a6.85,6.85,0,0,0-2.78-.79h-3.46a8.33,8.33,0,0,0-3.26.58,5.86,5.86,0,0,0-2.37,1.84,8.93,8.93,0,0,0-1.42,2.52,10.6,10.6,0,0,0-.45,3.47,9.52,9.52,0,0,0,.51,3.47,8.41,8.41,0,0,0,1.43,2.33,6.15,6.15,0,0,0,2.31,1.65,8.18,8.18,0,0,0,3.14.57l5.63,0v-4h-4.53c-.44,0-1,0-1.58-.09a2.76,2.76,0,0,1-1.72-.86,4.06,4.06,0,0,1-1-1.56,5.48,5.48,0,0,1-.26-1.71,4.82,4.82,0,0,1,.38-1.76,4.09,4.09,0,0,1,1.08-1.57,2.81,2.81,0,0,1,1.4-.72,12.48,12.48,0,0,1,1.66-.12c.64,0,1.31,0,2,0a3.7,3.7,0,0,1,2.12,1,3.57,3.57,0,0,1,1.19,2.69v.85l0,7.9h4.07l0-8.25,0-8.23h-4.07Z" transform="translate(-190.62 -323.47)"/><path class="f" d="M201.88,535a1.81,1.81,0,0,0,1.43-.67,2.4,2.4,0,0,0,.6-1.65,2.44,2.44,0,0,0-.56-1.63,1.73,1.73,0,0,0-1.37-.66,2,2,0,0,0-1.49.69,2.32,2.32,0,0,0-.63,1.61,2.36,2.36,0,0,0,.6,1.63,1.83,1.83,0,0,0,1.42.68" transform="translate(-190.62 -323.47)"/><path class="f" d="M214.42,522.48c-1.55.21-2.12-.18-1.69-1.17a1.12,1.12,0,0,1,1.5-.36v-1.4a2,2,0,0,0-2.22.17c-.81.52-1,1.4-.73,2.65h-1v1.45h3.92Z" transform="translate(-190.62 -323.47)"/><path class="f" d="M245.51,554.07a1.94,1.94,0,0,0-1.48.69,2.3,2.3,0,0,0-.63,1.61A2.36,2.36,0,0,0,244,558a1.84,1.84,0,0,0,2.85,0,2.44,2.44,0,0,0,.59-1.65,2.37,2.37,0,0,0-.55-1.63,1.75,1.75,0,0,0-1.38-.66" transform="translate(-190.62 -323.47)"/><path class="f" d="M252.69,548.93q-1.45-6.73-2.81-9.09a8.2,8.2,0,0,0-2.55-3.07,7,7,0,0,0-3.78-.87h-4.11v3.93h2.49a8,8,0,0,1,3.75.75q1.52,1.14,3.15,8.35l-13.48,0-9.61,0-9.54,0a1.78,1.78,0,0,1-1.41-.58,5.26,5.26,0,0,1-.48-2.87l0-20.95h-4l0,21.47a10.11,10.11,0,0,0,1.13,5.11,3.64,3.64,0,0,0,1.71,1.39,6.21,6.21,0,0,0,3,.43l9.45,0,9.59,0,20.41,0-1.6-4Z" transform="translate(-190.62 -323.47)"/><path class="f" d="M276.16,549h-2.88l-9.5,0a1.77,1.77,0,0,1-1.47-.69,13.15,13.15,0,0,1-.42-2.76l.05-21h-4l-.05,21V546a10.15,10.15,0,0,0,1.13,5.12,3.54,3.54,0,0,0,1.72,1.38,6.24,6.24,0,0,0,3,.44l9.59,0h6.75q-3.32-1.41-3.95-4" transform="translate(-190.62 -323.47)"/><path class="f" d="M283.65,535.21a1.86,1.86,0,0,0,1.43-.68,2.44,2.44,0,0,0,.59-1.65,2.39,2.39,0,0,0-.55-1.63,1.75,1.75,0,0,0-1.38-.66,1.94,1.94,0,0,0-1.48.69,2.32,2.32,0,0,0-.63,1.61,2.27,2.27,0,0,0,.6,1.63,1.85,1.85,0,0,0,1.42.69" transform="translate(-190.62 -323.47)"/><path class="f" d="M303.1,536.63a9,9,0,0,0-3.37.54,8,8,0,0,0-2.9,2.2q-1.5,1.67-1.51,5.44a6.16,6.16,0,0,0,1,3.62h4.55a4.58,4.58,0,0,1-1.51-3.62,4.84,4.84,0,0,1,1-3.3,3.46,3.46,0,0,1,2.71-1.09,3.54,3.54,0,0,1,2.64,1,5.21,5.21,0,0,1,1.17,3.4,5.89,5.89,0,0,1-1,3.35,3.76,3.76,0,0,1-2.55.85L293,549l-9.15,0c-1.58-.07-2.64-.53-3.17-1.38a4.71,4.71,0,0,1-.69-2.91,12.34,12.34,0,0,1,.14-1.62,3.36,3.36,0,0,1,.94-1.84,3.33,3.33,0,0,1,2.56-.86,3.55,3.55,0,0,1,2.67,1,5.54,5.54,0,0,1,1.15,3.41,5.38,5.38,0,0,1-1.53,3.8h4.68a10.32,10.32,0,0,0,.87-3.81,8.33,8.33,0,0,0-2.09-5.93,7.44,7.44,0,0,0-5.74-2.29,8.33,8.33,0,0,0-3.36.67,5.9,5.9,0,0,0-2.17,1.49,8.42,8.42,0,0,0-2.25,6,11.6,11.6,0,0,0,.41,3.28,6.45,6.45,0,0,0,6,5l10.82,0,10.25,0q3.78.19,5.69-2.11a9.33,9.33,0,0,0,1.92-6.07,8.43,8.43,0,0,0-2.08-6,7.41,7.41,0,0,0-5.74-2.27" transform="translate(-190.62 -323.47)"/><path class="f" d="M324.17,537.43a10.37,10.37,0,0,0-3.58-.79h-.11a10.55,10.55,0,0,0-3.59.65,5.43,5.43,0,0,0-2.12,1.7,9.21,9.21,0,0,0-1.41,2.51,11,11,0,0,0-.49,3.54,9,9,0,0,0,.57,3.45,9.57,9.57,0,0,0,1.42,2.39,5.58,5.58,0,0,0,2.26,1.61,8.25,8.25,0,0,0,3.12.58h3.24v-4h-2.06l-1.17,0a5.57,5.57,0,0,1-1.72-.53,2.41,2.41,0,0,1-1.42-1.56,7.76,7.76,0,0,1-.3-2.09,5.89,5.89,0,0,1,.43-2.06,2.7,2.7,0,0,1,1.44-1.6,4.44,4.44,0,0,1,1.52-.47,6.38,6.38,0,0,1,1,0,3.21,3.21,0,0,1,1.92.77,2.78,2.78,0,0,1,.91,2.14l0,10.2a5.44,5.44,0,0,1-.42,3.14,1.41,1.41,0,0,1-1.39.78h-1.71v4H323a4.31,4.31,0,0,0,3.89-1.9,9.82,9.82,0,0,0,1.23-5.37v-5.44l0-12.46h-4Z" transform="translate(-190.62 -323.47)"/><path class="f" d="M345.55,535.34a1.82,1.82,0,0,0,1.43-.67,2.61,2.61,0,0,0,0-3.28,1.73,1.73,0,0,0-1.37-.66,2,2,0,0,0-1.49.69,2.28,2.28,0,0,0-.63,1.61,2.36,2.36,0,0,0,.6,1.63,1.87,1.87,0,0,0,1.42.68" transform="translate(-190.62 -323.47)"/><path class="f" d="M350.17,535.35a1.84,1.84,0,0,0,1.43-.67,2.4,2.4,0,0,0,.6-1.65,2.43,2.43,0,0,0-.56-1.63,1.73,1.73,0,0,0-1.37-.66,2,2,0,0,0-1.49.69,2.28,2.28,0,0,0-.63,1.61,2.38,2.38,0,0,0,.6,1.63,1.86,1.86,0,0,0,1.42.68" transform="translate(-190.62 -323.47)"/><path class="f" d="M360.71,554.32a1.94,1.94,0,0,0-1.49.69,2.33,2.33,0,0,0-.63,1.62,2.4,2.4,0,0,0,.6,1.63,1.83,1.83,0,0,0,2.85,0,2.49,2.49,0,0,0,.6-1.65,2.44,2.44,0,0,0-.56-1.63,1.76,1.76,0,0,0-1.37-.66" transform="translate(-190.62 -323.47)"/><path class="f" d="M401.81,524.79l-.05,21a9,9,0,0,1-.44,2.73,1.48,1.48,0,0,1-1.43.78l-9.42,0h-.75a2.87,2.87,0,0,1-2-.77,4.22,4.22,0,0,1-.92-1.56,5.38,5.38,0,0,1-.31-1.81c0-.65,0-1,0-1l.27-.81a3.33,3.33,0,0,1,1.09-1.47,3.58,3.58,0,0,1,1.7-.8,9.36,9.36,0,0,1,1.56-.14h5.56v-4H390a8.22,8.22,0,0,0-3.22.54,6.27,6.27,0,0,0-2.24,1.68,8.39,8.39,0,0,0-1.52,2.5,9.29,9.29,0,0,0-.52,3.28,9.07,9.07,0,0,0,.41,2.93,11.75,11.75,0,0,0,.55,1.4l-4.71,0-9.56,0a1.5,1.5,0,0,1-1.41-.93,5.61,5.61,0,0,1-.41-2.68l0-8.68h-4.14l0,8.56c0,1.84-.47,2.93-1.28,3.28a8.33,8.33,0,0,1-3.43.44h0a1.89,1.89,0,0,1-1.43-1.08,8.51,8.51,0,0,1-.41-3.16l0-8.22h-4.07v.83a6.85,6.85,0,0,0-2.78-.79h-3.46a8.33,8.33,0,0,0-3.26.58,5.84,5.84,0,0,0-2.37,1.84,8.75,8.75,0,0,0-1.42,2.51,10.68,10.68,0,0,0-.45,3.47,9.58,9.58,0,0,0,.51,3.48,8.56,8.56,0,0,0,1.43,2.33,6.12,6.12,0,0,0,2.31,1.64,8,8,0,0,0,3.14.58h6.07v-4h-5c-.44,0-1,0-1.58-.09a2.76,2.76,0,0,1-1.71-.86,4.13,4.13,0,0,1-1.06-1.56,5.48,5.48,0,0,1-.26-1.71,4.82,4.82,0,0,1,.38-1.76,4,4,0,0,1,1.08-1.57,2.81,2.81,0,0,1,1.4-.72,14.38,14.38,0,0,1,1.66-.13c.65,0,1.31,0,2,0a3.7,3.7,0,0,1,3.31,3.65v.85c0,2.6.35,4.46,1.07,5.57a5.93,5.93,0,0,0,4.83,2.34v0c1.73,0,2.82,0,3.25,0a5.23,5.23,0,0,0,1.52-.39,3.62,3.62,0,0,0,1.52-1.12c.83.86,2.28,1.37,4.33,1.52h.05l9.65,0,21,0h0a8.08,8.08,0,0,0,3.1-.5,4.49,4.49,0,0,0,1.57-1.37,10.82,10.82,0,0,0,1.22-5.11l0-21.47Z" transform="translate(-190.62 -323.47)"/></g></g></svg>