<svg xmlns="http://www.w3.org/2000/svg" viewBox="0 0 108.87 95.71"><defs><style>.a{fill:#fff;}.b{fill:#e32325;}</style></defs><path class="a" d="M238.46,313.15V314c0,4.16,0,8.33,0,12.5,0,.67-.16,1.33-.13,2a23.47,23.47,0,0,1,0,2.78c-.12,1.55-.12,3.1-.18,4.64,0,.91,0,1.82-.08,2.72a9.58,9.58,0,0,0,.52,3.94,3.4,3.4,0,0,0,.45.81,3.61,3.61,0,0,0,3.5.85,3,3,0,0,0,1.59-1.29c.12-.25.16-.55.45-.69,0,0,.14-.07,0-.15-.49-.35.07-.62.1-.92s.13-.22-.07-.36a.7.7,0,0,1-.25-1.05.41.41,0,0,0,.09-.34c-.11-.26.06-.65-.37-.8a.56.56,0,0,1-.34-.81c.11-.23.26-.45.39-.67s.17-.24.07-.33c-.46-.4-.11-1.2-.76-1.51-.11-.05-.06-.25-.06-.4,0-.33.2-.6.2-.93a6.07,6.07,0,0,0-.27-1c-.06-.31.12-.74-.32-1-.13-.06,0-.28,0-.38-.11-.34.36-.74-.18-1.06-.24-.14.12-.46.15-.68s-.4-.51-.15-.77.13-.57,0-.88-.21-.34-.08-.59a1.33,1.33,0,0,0,.07-1.46.24.24,0,0,1,0-.13c.5-.17.12-.31,0-.52a.54.54,0,0,1,.07-.67c.21-.18.16-.38.14-.58a15.76,15.76,0,0,1,0-2.17,35.38,35.38,0,0,0,0-4.12c-.06-1.14.15-2.27,0-3.41-.08-.66.19-1.33.07-2a7.42,7.42,0,0,1,.06-1.69c0-.35.1-.7.11-1.05a.46.46,0,0,1,.22-.42c.49-.22.77-.68,1.18-1,1.9-1.37,3.92-2.53,5.9-3.76,2.53-1.58,5.12-3.06,7.74-4.49,2-1.07,3.92-2.17,5.92-3.18s4.16-2.15,6.22-3.26a55.81,55.81,0,0,1,6.05-2.75c1.58-.62,3.2-1.11,4.83-1.59a9.32,9.32,0,0,0,3-1.51,7.76,7.76,0,0,0,1.48-2,1.92,1.92,0,0,0,.17-1.73c-.25-.86-.66-1.67-1.8-1.58-.09,0-.19-.05-.28-.06a5,5,0,0,0-3.23.61,29.36,29.36,0,0,1-4.45,2.14c-1,.34-1.3.13-1.81-.74-.17-.29,0-.54-.12-.69s-.2-.52-.36-.74,0-.24,0-.35c.1-.74,0-1.48.17-2.22,0-.11.1-.32,0-.39-.32-.25-.06-.54-.1-.8,0-.1.11-.17.08-.32a4.49,4.49,0,0,1,.07-2.49c-.23-.23.15-.48,0-.6-.27-.33,0-.44.16-.62s0-.18,0-.27a2,2,0,0,1,0-.85.67.67,0,0,0-.1-.68.68.68,0,0,1,.06-1c.22-.18.13-.41.11-.59s-.39-.44-.19-.77-.23-.42-.28-.71a2.09,2.09,0,0,0-2-1.64,4.62,4.62,0,0,0-2.16.4,9,9,0,0,0-3.07,2.49,2.63,2.63,0,0,1-2.42,1.11c-.5-.08-1-.37-1.47,0-.05,0-.19,0-.28,0a4.09,4.09,0,0,0-4.2,3.69,27.46,27.46,0,0,0-.17,2.87c-.06,1.21-.09,2.43-.16,3.65-.12,1.83-.27,3.67-.39,5.5a16.67,16.67,0,0,0,0,1.87,1.42,1.42,0,0,0,1.46,1.43,4,4,0,0,0,2.4-.82,1.94,1.94,0,0,0,1.15-1.43,1.14,1.14,0,0,1,.32-.55c.11-.13.22-.26.14-.44a1.57,1.57,0,0,1,.07-1.11c0-.13.14-.22.06-.39a1.34,1.34,0,0,1-.1-.95c.06-.27-.12-.59-.13-.92s.22-.91.08-1.38a.22.22,0,0,1,.12-.24.59.59,0,0,0,.19-.94c-.29-.39-.13-.61.09-.87s.28-.35.13-.63a.62.62,0,0,1,.12-.88c.12-.09.09-.32,0-.47s-.15-.17-.05-.24c.44-.28.25-.76.39-1.13a5.57,5.57,0,0,1,.58-1.45c.37-.5.85-.87,1.21-1.37a2.82,2.82,0,0,1,1.79-1.2c1.15-.17,1.75.18,1.73,1.33a31.93,31.93,0,0,1-.16,4.15c0,.16-.12.34-.08.48.21.74-.27,1.5.07,2.24a15.55,15.55,0,0,0-.18,3,3.85,3.85,0,0,0,.34,1.94c.24.44.68.64,1,1a.57.57,0,0,1-.31.3L262.57,293c-1.73.94-3.47,1.88-5.17,2.9-.65.4-1.28.84-2,1.17a22.78,22.78,0,0,0-2.28,1.25c-1.7,1.05-3.45,2-5.13,3.13-1.37.9-2.88,1.6-4.19,2.62a.28.28,0,0,1-.37,0c.09-.8,0-1.63.11-2.46a6.92,6.92,0,0,0,.12-2.12,16.45,16.45,0,0,1,.08-3c.07-1.67.24-3.34.41-5,.11-1,.1-2,.25-3a5.19,5.19,0,0,0,.27-1.25c-.13-1.24.1-2.47,0-3.71a1.54,1.54,0,0,0-.38-1,2,2,0,0,0-1.61-.63,2.82,2.82,0,0,0-2.94,2.36c-.07.74-.1,1.48-.16,2.22-.19,2.41-.46,4.81-.69,7.22a50.2,50.2,0,0,1-.72,5.17,3.51,3.51,0,0,1-3,2.73,1.22,1.22,0,0,1-1.37-.78,5.27,5.27,0,0,1-.28-2.6c0-.63.09-1.28.17-1.91a3.34,3.34,0,0,0,0-1.88.53.53,0,0,1,0-.21,13.35,13.35,0,0,1,1.47-4.34,4.62,4.62,0,0,1,1.07-1.56,4.07,4.07,0,0,0,1.34-2.59.92.92,0,0,0-.75-1.12,2.36,2.36,0,0,0-1,0,6.26,6.26,0,0,0-2.85,1.43,11.57,11.57,0,0,0-3.27,4.79,18.62,18.62,0,0,0-.91,4,19,19,0,0,1-.37,3.19.94.94,0,0,0,0,.5,12.26,12.26,0,0,1,.1,2.64,13,13,0,0,0,.17,2.64,3.47,3.47,0,0,0,2.82,2.86,5.81,5.81,0,0,0,2.2,0,8.59,8.59,0,0,0,3.44-1.21c.26-.17.5-.36.76-.52.41-.26.52-.23.51.22a11.71,11.71,0,0,1-.07,2.13.67.67,0,0,1-.32.5c-.75.51-1.5,1-2.22,1.57-2.3,1.78-4.65,3.5-7,5.2-1.94,1.39-3.87,2.79-5.75,4.26s-3.84,3.13-5.76,4.71c-1.26,1-2.5,2.07-3.78,3.07-2.71,2.09-5.18,4.45-7.7,6.76a27.78,27.78,0,0,0-3.83,4.06,2.18,2.18,0,0,0-.44,1.73,2.47,2.47,0,0,0,1.72,2.16,2.71,2.71,0,0,0,2.9-.32c.91-.83,1.82-1.68,2.67-2.57s1.86-2.11,2.88-3.08c1.44-1.37,2.79-2.84,4.17-4.28a7.26,7.26,0,0,1,1.14-1.08,7.74,7.74,0,0,0,1.71-1.52,8.88,8.88,0,0,1,1.12-1.09c.68-.56,1.4-1.07,2.09-1.63,2.53-2,5-4.1,7.58-6.13,2.12-1.69,4.27-3.37,6.43-5A9.87,9.87,0,0,1,238.46,313.15Zm-44.15.36c-.3-.18-.47-.36-.4-.71a1.4,1.4,0,0,0,0-.64,7.47,7.47,0,0,1-.33-2.53,1.9,1.9,0,0,0-.23-1.15,2,2,0,0,1-.16-1.86,1.06,1.06,0,0,0,0-.95,2.22,2.22,0,0,1-.34-1.15c.12-.79-.52-1.5-.23-2.29-.41-.53-.24-1.22-.58-1.81a5.1,5.1,0,0,1-.58-2.2,18.86,18.86,0,0,1-.37-3.44.81.81,0,0,0,0-.49,4.35,4.35,0,0,1-.35-1.42c-.37-1.91-.66-3.83-1-5.74a9.63,9.63,0,0,0-.67-2.7,2.26,2.26,0,0,0-1.25-1.22,2.72,2.72,0,0,0-3.61,1.56c-.71,1.77-1.32,3.58-1.94,5.38-.42,1.22-.77,2.45-1.17,3.67-.17.52-.37,1-.5,1.57a24.49,24.49,0,0,0-.84,2.41c0,.28-.33.45-.39.75-.24,1.27-.88,2.41-1.22,3.65-.24.89-.6,1.76-.85,2.66a1.91,1.91,0,0,0,1.34,2.35,2.55,2.55,0,0,0,2.84-1.25,10.61,10.61,0,0,1,.49-1.26,22.16,22.16,0,0,0,1.45-3.86,11.33,11.33,0,0,1,.66-1.61,1.45,1.45,0,0,0,.26-.78.73.73,0,0,1,.23-.68,2.84,2.84,0,0,0,.62-1c.12-.3.28-.33.55-.13a.55.55,0,0,1,.26.54c0,.09,0,.22.1.2s.22,0,.21.25c0,.65-.19,1.34.38,1.87.05.05,0,.18.06.27.38,2,.6,4.05,1,6.06.39,2.21.68,4.44,1,6.66s.67,4.19,1,6.29a9.79,9.79,0,0,1,.29,1.76c0,.42-.22.82.17,1.18.1.09.05.27,0,.4s-.12.16,0,.21.19.3.22.48c.12.77.23,1.55.41,2.3.22,1,.37,2,.54,2.94.29,1.62.64,3.23,1,4.83a1.87,1.87,0,0,0,1.69,1.53,2.25,2.25,0,0,0,2.39-1.09,5.09,5.09,0,0,0,.61-1.82c.24-1.53.49-3.07.69-4.6.41-3,.78-6,1.19-8.95a8.31,8.31,0,0,1,.29-2.05,8.21,8.21,0,0,0,.34-1.14c.81-.32-.16-.69,0-1,0-.07,0-.19,0-.28.07-.52.14-1,.2-1.56a1.66,1.66,0,0,1,.26-.66,2,2,0,0,0,.2-2.29.8.8,0,0,1,0-.35,12.91,12.91,0,0,1,.37-2.39c.07-.3-.09-.65.15-.9a.82.82,0,0,0,.19-.65c-.05-.93.42-1.79.41-2.72,0-.08.08-.17.14-.24a1.46,1.46,0,0,0,.25-1.36,1.37,1.37,0,0,1,.29-1.25.55.55,0,0,0,.16-.37,12.62,12.62,0,0,1,.38-2.28c.52-2.06,1-4.13,1.47-6.19a1.86,1.86,0,0,1,.16-.47,22.14,22.14,0,0,0,.89-2.15c.14-.33.11-.76.41-1a2,2,0,0,0,.64-1.58,6.65,6.65,0,0,1,.68-3.1,2,2,0,0,0,.13-.41,7.9,7.9,0,0,1,.41-1.36c.17-.39.55-.71.32-1.21,0,0,0-.13.06-.19.54-1.22.72-2.54,1.16-3.8.51-1.42,1-2.85,1.51-4.29a6,6,0,0,1,.28-.57,8.81,8.81,0,0,0,.7-1.62,5.61,5.61,0,0,1,.32-1.08c.19-.42.36-.83.55-1.25a42.88,42.88,0,0,1,2.66-5.45,14.09,14.09,0,0,1,4-4.52.65.65,0,0,0,.24-.35,3,3,0,0,1,.66-1.07,2.72,2.72,0,0,0,.57-2.24,4,4,0,0,0-2.37-3.4,3.83,3.83,0,0,0-4.12.38,8.07,8.07,0,0,0-2.32,2.87,30.33,30.33,0,0,0-1.33,3.17c-.59,1.53-1.21,3.06-1.8,4.6-.82,2.14-1.59,4.3-2.43,6.43-.65,1.67-1.18,3.38-1.84,5-.35.88-.63,1.8-.93,2.7-.46,1.39-.87,2.8-1.22,4.23-.51,2.08-1.23,4.11-1.65,6.22-.34,1.63-.89,3.21-1.32,4.83-.63,2.4-1.15,4.83-1.68,7.25-.2.93-.45,1.86-.57,2.8-.3,2.25-.79,4.47-1.13,6.72-.27,1.82-.62,3.62-.81,5.46A3.47,3.47,0,0,1,194.31,313.51Zm21.27-4.68c0,1.08,0,1.37.19,1.75.35.64.66,1.13,1.72.84a7.69,7.69,0,0,0,.81-.27,4,4,0,0,0,2.75-4c0-.63,0-1.27.07-1.91.07-1.35.13-2.71.22-4.06,0-.53-.09-1.11.35-1.56,0,0,0-.08,0-.13a5.39,5.39,0,0,1,.3-1.63,2.38,2.38,0,0,1,.44-1,8.44,8.44,0,0,1,1.84-2c.5-.36,1-.79,1.47-1.13.82-.54.92-1.43,1.15-2.26a.33.33,0,0,0,0-.21,6.87,6.87,0,0,0-.55-1.08,1.2,1.2,0,0,0-1.24-.52,4.2,4.2,0,0,0-1.15.38,15.28,15.28,0,0,1-4.09,1.37,3.78,3.78,0,0,0-3.28,3,16.24,16.24,0,0,0-.33,2.76c-.09,1.22-.1,2.44-.24,3.65a16.27,16.27,0,0,0-.3,1.74,35.84,35.84,0,0,0-.06,3.59C215.74,307.07,215.41,308,215.58,308.83Zm-10.17,5.47a5.15,5.15,0,0,0,.16,1.51,1.18,1.18,0,0,0,1.24,1.07,2.77,2.77,0,0,0,1.83-.69,8.4,8.4,0,0,1,1.73-1.15c.19-.06.32-.25.07-.41s-.22-.16-.18-.33a9.29,9.29,0,0,0,.35-3.44,4.71,4.71,0,0,1,.09-1.12,46.63,46.63,0,0,1,.78-4.85,1.62,1.62,0,0,0,0-.22,14.73,14.73,0,0,1,.25-3c.11-.49.06-1,.21-1.48a2,2,0,0,0,0-1.62c-.1-.2-.17-.48,0-.61s.18-.26.05-.42,0-.28-.05-.41a1.31,1.31,0,0,0-1.88-1.21,5.34,5.34,0,0,0-2.13,1.28,6.21,6.21,0,0,0-1.68,4.08c-.25,2.19-.14,4.41-.51,6.6a20.21,20.21,0,0,1-.18,3.11C205.59,312.08,205.47,313.13,205.41,314.3Zm42.52-19.58c0,1.38.83,2,2.06,1.6a6.06,6.06,0,0,0,2.6-1.72,2,2,0,0,0,.64-1.43,19.09,19.09,0,0,1,0-2.83,2.8,2.8,0,0,1,.34-1.63c.1-.13.16-.23,0-.35a.75.75,0,0,1,0-1,1.57,1.57,0,0,0,.22-1.08,7.67,7.67,0,0,1,0-.83,13.27,13.27,0,0,0,0-2.44,1.07,1.07,0,0,1,.05-.56,11.59,11.59,0,0,0,.31-1.84c.09-.49,0-1,.18-1.52a.89.89,0,0,0-.09-.63,2.49,2.49,0,0,1-.21-.67.76.76,0,0,0-.85-.76,3.92,3.92,0,0,0-3.84,3.63c-.14,1-.18,2.08-.3,3.13-.27,2.46-.48,4.93-.67,7.41C248.18,292.38,248,293.59,247.93,294.72Zm-33.48-9.21a2.32,2.32,0,0,0-.62-1.36c-.38-.4-1-.21-1.43-.07a2.57,2.57,0,0,0-.72.31,7.52,7.52,0,0,0-1.89,1.62,3.73,3.73,0,0,0-.8,1.88,1.39,1.39,0,0,0,.64,1.42,1.43,1.43,0,0,0,1.61,0,15.17,15.17,0,0,0,1.95-1.32A3.32,3.32,0,0,0,214.45,285.51Zm38.43-13.25a1.14,1.14,0,0,0,.91-.23,6.79,6.79,0,0,0,2.2-2.29,1.87,1.87,0,0,0,.28-.88,1.39,1.39,0,0,0-.46-1.22,1.73,1.73,0,0,0-1.06-.28,3.83,3.83,0,0,0-3.74,3.05,1.43,1.43,0,0,0,1.14,1.81A1.27,1.27,0,0,0,252.88,272.26Z" transform="translate(-177.11 -248.71)"/><path class="b" d="M238.46,313.15a9.87,9.87,0,0,0-2.4,1.48c-2.16,1.65-4.31,3.33-6.43,5-2.54,2-5,4.09-7.58,6.13-.69.56-1.41,1.07-2.09,1.63a8.88,8.88,0,0,0-1.12,1.09,7.74,7.74,0,0,1-1.71,1.52A7.26,7.26,0,0,0,216,331.1c-1.38,1.44-2.73,2.91-4.17,4.28-1,1-1.9,2.06-2.88,3.08s-1.76,1.74-2.67,2.57a2.71,2.71,0,0,1-2.9.32,2.47,2.47,0,0,1-1.72-2.16,2.18,2.18,0,0,1,.44-1.73,27.78,27.78,0,0,1,3.83-4.06c2.52-2.31,5-4.67,7.7-6.76,1.28-1,2.52-2,3.78-3.07,1.92-1.58,3.8-3.19,5.76-4.71s3.81-2.87,5.75-4.26c2.37-1.7,4.72-3.42,7-5.2.72-.56,1.47-1.06,2.22-1.57a.67.67,0,0,0,.32-.5,11.71,11.71,0,0,0,.07-2.13c0-.45-.1-.48-.51-.22-.26.16-.5.35-.76.52a8.59,8.59,0,0,1-3.44,1.21,5.81,5.81,0,0,1-2.2,0,3.47,3.47,0,0,1-2.82-2.86,13,13,0,0,1-.17-2.64,12.26,12.26,0,0,0-.1-2.64.94.94,0,0,1,0-.5,19,19,0,0,0,.37-3.19,18.62,18.62,0,0,1,.91-4,11.57,11.57,0,0,1,3.27-4.79,6.26,6.26,0,0,1,2.85-1.43,2.36,2.36,0,0,1,1,0,.92.92,0,0,1,.75,1.12,4.07,4.07,0,0,1-1.34,2.59,4.62,4.62,0,0,0-1.07,1.56,13.35,13.35,0,0,0-1.47,4.34.53.53,0,0,0,0,.21,3.34,3.34,0,0,1,0,1.88c-.08.63-.13,1.28-.17,1.91a5.27,5.27,0,0,0,.28,2.6,1.22,1.22,0,0,0,1.37.78,3.51,3.51,0,0,0,3-2.73,50.2,50.2,0,0,0,.72-5.17c.23-2.41.5-4.81.69-7.22.06-.74.09-1.48.16-2.22a2.82,2.82,0,0,1,2.94-2.36,2,2,0,0,1,1.61.63,1.54,1.54,0,0,1,.38,1c.05,1.24-.18,2.47,0,3.71a5.19,5.19,0,0,1-.27,1.25c-.15,1-.14,2-.25,3-.17,1.66-.34,3.33-.41,5a16.45,16.45,0,0,0-.08,3,6.92,6.92,0,0,1-.12,2.12c-.14.83,0,1.66-.11,2.46a.28.28,0,0,0,.37,0c1.31-1,2.82-1.72,4.19-2.62,1.68-1.1,3.43-2.08,5.13-3.13a22.78,22.78,0,0,1,2.28-1.25c.68-.33,1.31-.77,2-1.17,1.7-1,3.44-2,5.17-2.9l7.46-4.13a.57.57,0,0,0,.31-.3c-.36-.32-.8-.52-1-1a3.85,3.85,0,0,1-.34-1.94,15.55,15.55,0,0,1,.18-3c-.34-.74.14-1.5-.07-2.24,0-.14.05-.32.08-.48a31.93,31.93,0,0,0,.16-4.15c0-1.15-.58-1.5-1.73-1.33a2.82,2.82,0,0,0-1.79,1.2c-.36.5-.84.87-1.21,1.37a5.57,5.57,0,0,0-.58,1.45c-.14.37.05.85-.39,1.13-.1.07,0,.16.05.24s.1.38,0,.47a.62.62,0,0,0-.12.88c.15.28.05.44-.13.63s-.38.48-.09.87a.59.59,0,0,1-.19.94.22.22,0,0,0-.12.24c.14.47-.08.92-.08,1.38s.19.65.13.92a1.34,1.34,0,0,0,.1.95c.08.17,0,.26-.06.39a1.57,1.57,0,0,0-.07,1.11c.08.18,0,.31-.14.44a1.14,1.14,0,0,0-.32.55,1.94,1.94,0,0,1-1.15,1.43,4,4,0,0,1-2.4.82,1.42,1.42,0,0,1-1.46-1.43,16.67,16.67,0,0,1,0-1.87c.12-1.83.27-3.67.39-5.5.07-1.22.1-2.44.16-3.65a27.46,27.46,0,0,1,.17-2.87,4.09,4.09,0,0,1,4.2-3.69c.09,0,.23.06.28,0,.49-.39,1-.1,1.47,0a2.63,2.63,0,0,0,2.42-1.11,9,9,0,0,1,3.07-2.49,4.62,4.62,0,0,1,2.16-.4,2.09,2.09,0,0,1,2,1.64c0,.29.48.38.28.71s.16.51.19.77.11.41-.11.59a.68.68,0,0,0-.06,1,.67.67,0,0,1,.1.68,2,2,0,0,0,0,.85c0,.09.08.22,0,.27s-.43.29-.16.62c.11.12-.27.37,0,.6a4.49,4.49,0,0,0-.07,2.49c0,.15-.1.22-.08.32,0,.26-.22.55.1.8.09.07,0,.28,0,.39-.17.74-.07,1.48-.17,2.22,0,.11-.07.27,0,.35s.19.5.36.74-.05.4.12.69c.51.87.85,1.08,1.81.74a29.36,29.36,0,0,0,4.45-2.14,5,5,0,0,1,3.23-.61c.09,0,.19.07.28.06,1.14-.09,1.55.72,1.8,1.58a1.92,1.92,0,0,1-.17,1.73,7.76,7.76,0,0,1-1.48,2,9.32,9.32,0,0,1-3,1.51c-1.63.48-3.25,1-4.83,1.59a55.81,55.81,0,0,0-6.05,2.75q-3.09,1.66-6.22,3.26c-2,1-3.95,2.11-5.92,3.18-2.62,1.43-5.21,2.91-7.74,4.49-2,1.23-4,2.39-5.9,3.76-.41.3-.69.76-1.18,1a.46.46,0,0,0-.22.42c0,.35-.08.7-.11,1.05a7.42,7.42,0,0,0-.06,1.69c.12.7-.15,1.37-.07,2,.15,1.14-.06,2.27,0,3.41a35.38,35.38,0,0,1,0,4.12,15.76,15.76,0,0,0,0,2.17c0,.2.07.4-.14.58a.54.54,0,0,0-.07.67c.1.21.48.35,0,.52a.24.24,0,0,0,0,.13,1.33,1.33,0,0,1-.07,1.46c-.13.25,0,.42.08.59s.31.54,0,.88.18.53.15.77-.39.54-.15.68c.54.32.07.72.18,1.06,0,.1-.11.32,0,.38.44.22.26.65.32,1a6.07,6.07,0,0,1,.27,1c0,.33-.21.6-.2.93,0,.15,0,.35.06.4.65.31.3,1.11.76,1.51.1.09,0,.22-.07.33s-.28.44-.39.67a.56.56,0,0,0,.34.81c.43.15.26.54.37.8a.41.41,0,0,1-.09.34.7.7,0,0,0,.25,1.05c.2.14.09.2.07.36s-.59.57-.1.92c.11.08,0,.13,0,.15-.29.14-.33.44-.45.69a3,3,0,0,1-1.59,1.29,3.61,3.61,0,0,1-3.5-.85,3.4,3.4,0,0,1-.45-.81,9.58,9.58,0,0,1-.52-3.94c0-.9,0-1.81.08-2.72.06-1.54.06-3.09.18-4.64a23.47,23.47,0,0,0,0-2.78c0-.67.13-1.33.13-2,0-4.17,0-8.34,0-12.5Z" transform="translate(-177.11 -248.71)"/><path class="b" d="M194.31,313.51a3.47,3.47,0,0,0,.41-1.67c.19-1.84.54-3.64.81-5.46.34-2.25.83-4.47,1.13-6.72.12-.94.37-1.87.57-2.8.53-2.42,1.05-4.85,1.68-7.25.43-1.62,1-3.2,1.32-4.83.42-2.11,1.14-4.14,1.65-6.22.35-1.43.76-2.84,1.22-4.23.3-.9.58-1.82.93-2.7.66-1.66,1.19-3.37,1.84-5,.84-2.13,1.61-4.29,2.43-6.43.59-1.54,1.21-3.07,1.8-4.6a30.33,30.33,0,0,1,1.33-3.17,8.07,8.07,0,0,1,2.32-2.87,3.83,3.83,0,0,1,4.12-.38,4,4,0,0,1,2.37,3.4,2.72,2.72,0,0,1-.57,2.24,3,3,0,0,0-.66,1.07.65.65,0,0,1-.24.35,14.09,14.09,0,0,0-4,4.52,42.88,42.88,0,0,0-2.66,5.45c-.19.42-.36.83-.55,1.25a5.61,5.61,0,0,0-.32,1.08,8.81,8.81,0,0,1-.7,1.62,6,6,0,0,0-.28.57c-.5,1.44-1,2.87-1.51,4.29-.44,1.26-.62,2.58-1.16,3.8,0,.06-.08.15-.06.19.23.5-.15.82-.32,1.21a7.9,7.9,0,0,0-.41,1.36,2,2,0,0,1-.13.41,6.65,6.65,0,0,0-.68,3.1,2,2,0,0,1-.64,1.58c-.3.22-.27.65-.41,1a22.14,22.14,0,0,1-.89,2.15,1.86,1.86,0,0,0-.16.47c-.49,2.06-1,4.13-1.47,6.19a12.62,12.62,0,0,0-.38,2.28.55.55,0,0,1-.16.37,1.37,1.37,0,0,0-.29,1.25,1.46,1.46,0,0,1-.25,1.36c-.06.07-.14.16-.14.24,0,.93-.46,1.79-.41,2.72a.82.82,0,0,1-.19.65c-.24.25-.08.6-.15.9a12.91,12.91,0,0,0-.37,2.39.8.8,0,0,0,0,.35,2,2,0,0,1-.2,2.29,1.66,1.66,0,0,0-.26.66c-.06.52-.13,1-.2,1.56,0,.09,0,.21,0,.28-.18.34.79.71,0,1a8.21,8.21,0,0,1-.34,1.14,8.31,8.31,0,0,0-.29,2.05c-.41,3-.78,6-1.19,8.95-.2,1.53-.45,3.07-.69,4.6a5.09,5.09,0,0,1-.61,1.82,2.25,2.25,0,0,1-2.39,1.09,1.87,1.87,0,0,1-1.69-1.53c-.4-1.6-.75-3.21-1-4.83-.17-1-.32-2-.54-2.94-.18-.75-.29-1.53-.41-2.3,0-.18,0-.4-.22-.48s-.08-.13,0-.21.13-.31,0-.4c-.39-.36-.19-.76-.17-1.18a9.79,9.79,0,0,0-.29-1.76c-.3-2.1-.64-4.19-1-6.29s-.63-4.45-1-6.66c-.35-2-.57-4.05-1-6.06,0-.09,0-.22-.06-.27-.57-.53-.41-1.22-.38-1.87,0-.21,0-.28-.21-.25s-.12-.11-.1-.2a.55.55,0,0,0-.26-.54c-.27-.2-.43-.17-.55.13a2.84,2.84,0,0,1-.62,1,.73.73,0,0,0-.23.68,1.45,1.45,0,0,1-.26.78,11.33,11.33,0,0,0-.66,1.61,22.16,22.16,0,0,1-1.45,3.86,10.61,10.61,0,0,0-.49,1.26,2.55,2.55,0,0,1-2.84,1.25,1.91,1.91,0,0,1-1.34-2.35c.25-.9.61-1.77.85-2.66.34-1.24,1-2.38,1.22-3.65.06-.3.35-.47.39-.75a24.49,24.49,0,0,1,.84-2.41c.13-.54.33-1.05.5-1.57.4-1.22.75-2.45,1.17-3.67.62-1.8,1.23-3.61,1.94-5.38a2.72,2.72,0,0,1,3.61-1.56,2.26,2.26,0,0,1,1.25,1.22,9.63,9.63,0,0,1,.67,2.7c.34,1.91.63,3.83,1,5.74a4.35,4.35,0,0,0,.35,1.42.81.81,0,0,1,0,.49,18.86,18.86,0,0,0,.37,3.44,5.1,5.1,0,0,0,.58,2.2c.34.59.17,1.28.58,1.81-.29.79.35,1.5.23,2.29a2.22,2.22,0,0,0,.34,1.15,1.06,1.06,0,0,1,0,.95,2,2,0,0,0,.16,1.86,1.9,1.9,0,0,1,.23,1.15,7.47,7.47,0,0,0,.33,2.53,1.4,1.4,0,0,1,0,.64C193.84,313.15,194,313.33,194.31,313.51Z" transform="translate(-177.11 -248.71)"/><path class="b" d="M215.58,308.83c-.17-.82.16-1.76,0-2.7a35.84,35.84,0,0,1,.06-3.59,16.27,16.27,0,0,1,.3-1.74c.14-1.21.15-2.43.24-3.65a16.24,16.24,0,0,1,.33-2.76,3.78,3.78,0,0,1,3.28-3,15.28,15.28,0,0,0,4.09-1.37,4.2,4.2,0,0,1,1.15-.38,1.2,1.2,0,0,1,1.24.52,6.87,6.87,0,0,1,.55,1.08.33.33,0,0,1,0,.21c-.23.83-.33,1.72-1.15,2.26-.52.34-1,.77-1.47,1.13a8.44,8.44,0,0,0-1.84,2,2.38,2.38,0,0,0-.44,1,5.39,5.39,0,0,0-.3,1.63s0,.11,0,.13c-.44.45-.31,1-.35,1.56-.09,1.35-.15,2.71-.22,4.06,0,.64-.07,1.28-.07,1.91a4,4,0,0,1-2.75,4,7.69,7.69,0,0,1-.81.27c-1.06.29-1.37-.2-1.72-.84C215.57,310.2,215.55,309.91,215.58,308.83Z" transform="translate(-177.11 -248.71)"/><path class="b" d="M205.41,314.3c.06-1.17.18-2.22.15-3.27a20.21,20.21,0,0,0,.18-3.11c.37-2.19.26-4.41.51-6.6a6.21,6.21,0,0,1,1.68-4.08,5.34,5.34,0,0,1,2.13-1.28,1.31,1.31,0,0,1,1.88,1.21c0,.13-.05.28.05.41s.18.26-.05.42-.11.41,0,.61a2,2,0,0,1,0,1.62c-.15.47-.1,1-.21,1.48a14.73,14.73,0,0,0-.25,3,1.62,1.62,0,0,1,0,.22,46.63,46.63,0,0,0-.78,4.85,4.71,4.71,0,0,0-.09,1.12,9.29,9.29,0,0,1-.35,3.44c0,.17,0,.25.18.33s.12.35-.07.41a8.4,8.4,0,0,0-1.73,1.15,2.77,2.77,0,0,1-1.83.69,1.18,1.18,0,0,1-1.24-1.07A5.15,5.15,0,0,1,205.41,314.3Z" transform="translate(-177.11 -248.71)"/><path class="b" d="M247.93,294.72c.11-1.13.25-2.34.34-3.55.19-2.48.4-4.95.67-7.41.12-1.05.16-2.1.3-3.13a3.92,3.92,0,0,1,3.84-3.63.76.76,0,0,1,.85.76,2.49,2.49,0,0,0,.21.67.89.89,0,0,1,.09.63c-.13.5-.09,1-.18,1.52a11.59,11.59,0,0,1-.31,1.84,1.07,1.07,0,0,0-.05.56,13.27,13.27,0,0,1,0,2.44,7.67,7.67,0,0,0,0,.83,1.57,1.57,0,0,1-.22,1.08.75.75,0,0,0,0,1c.14.12.08.22,0,.35a2.8,2.8,0,0,0-.34,1.63,19.09,19.09,0,0,0,0,2.83,2,2,0,0,1-.64,1.43,6.06,6.06,0,0,1-2.6,1.72C248.76,296.77,247.89,296.1,247.93,294.72Z" transform="translate(-177.11 -248.71)"/><path class="b" d="M214.45,285.51a3.32,3.32,0,0,1-1.26,2.48,15.17,15.17,0,0,1-1.95,1.32,1.43,1.43,0,0,1-1.61,0,1.39,1.39,0,0,1-.64-1.42,3.73,3.73,0,0,1,.8-1.88,7.52,7.52,0,0,1,1.89-1.62,2.57,2.57,0,0,1,.72-.31c.48-.14,1-.33,1.43.07A2.32,2.32,0,0,1,214.45,285.51Z" transform="translate(-177.11 -248.71)"/><path class="b" d="M252.88,272.26a1.27,1.27,0,0,1-.73,0,1.43,1.43,0,0,1-1.14-1.81,3.83,3.83,0,0,1,3.74-3.05,1.73,1.73,0,0,1,1.06.28,1.39,1.39,0,0,1,.46,1.22,1.87,1.87,0,0,1-.28.88,6.79,6.79,0,0,1-2.2,2.29A1.14,1.14,0,0,1,252.88,272.26Z" transform="translate(-177.11 -248.71)"/></svg>