<svg xmlns="http://www.w3.org/2000/svg" viewBox="0 0 175.34 45.22"><defs><style>.a{fill:#fff;}</style></defs><path class="a" d="M205,233a.85.85,0,0,0,.51-.69c.16-1.19.33-2.39.5-3.59.19-1.42.39-2.85.59-4.27l.72-4.77c.26-1.66.52-3.32.79-5l.87-5.27c.33-2,.65-3.93,1-5.89s.67-3.71,1-5.56c.07-.39.19-.76.28-1.14a.69.69,0,0,0,.05-.13c.27-.64.77-.75,1.27-.27a3.1,3.1,0,0,1,.88,1.8c.13.83.24,1.67.34,2.5.16,1.31.31,2.63.47,3.94s.29,2.47.44,3.7.31,2.44.45,3.66c.13,1.07.25,2.13.37,3.19.16,1.41.31,2.81.47,4.22.12,1.16.24,2.31.37,3.47.15,1.36.31,2.72.46,4.08.12,1.13.24,2.26.37,3.4l.45,4.11c.13,1.17.25,2.34.37,3.5.05.49.12,1,.15,1.48,0,.32,0,.64,0,1s-.09.33-.37.34l-.69,0c-.28,0-.3,0-.36-.28-.09-.44-.17-.88-.23-1.32-.18-1.39-.37-2.78-.53-4.18-.14-1.13-.26-2.26-.38-3.39l-.39-3.85c-.12-1.22-.24-2.45-.37-3.67l-.39-3.81c-.1-1-.19-2-.29-3.06-.12-1.18-.25-2.36-.38-3.54s-.24-2.19-.39-3.29q-.39-2.94-.8-5.87c-.05-.35-.09-.69-.17-1a.36.36,0,0,0-.61-.19.68.68,0,0,0-.14.31c-.19,1-.37,2.08-.56,3.12-.34,1.88-.68,3.76-1,5.64s-.59,3.49-.87,5.24c-.23,1.48-.45,2.95-.66,4.43-.18,1.3-.34,2.6-.51,3.9l-.51,3.87c-.17,1.28-.35,2.55-.52,3.83s-.38,2.83-.6,4.24c-.12.81-.29,1.62-.45,2.44-.07.36-.1.38-.48.38-.23,0-.46,0-.69,0s-.46-.1-.54-.45-.09-.52-.14-.78c-.48-2.88-1-5.76-1.44-8.65q-.57-3.44-1.11-6.88c-.27-1.78-.49-3.57-.79-5.35s-.66-3.67-1-5.49c-.59-2.82-1.23-5.62-1.84-8.43a1.21,1.21,0,0,0-.11-.32.23.23,0,0,0-.38-.08.69.69,0,0,0-.29.49c-.18,1-.37,2-.54,3-.39,2.22-.78,4.44-1.15,6.66-.34,2-.66,4.06-1,6.09-.3,1.84-.62,3.68-.92,5.52s-.64,3.78-.94,5.68-.63,4-1,6c-.13.81-.28,1.63-.44,2.44-.08.45-.17.51-.62.51H190a.52.52,0,0,1-.52-.65c.45-2.61.89-5.22,1.34-7.82s.84-5,1.27-7.52c.38-2.28.77-4.56,1.14-6.84.34-2.11.67-4.23,1-6.34s.63-4,.94-6c.27-1.78.52-3.55.78-5.33l.36-2.42a2.23,2.23,0,0,1,.34-.93c.16-.22.33-.43.64-.4a.67.67,0,0,1,.59.5,14.1,14.1,0,0,1,.61,1.76c.25,1,.43,2.12.62,3.18.28,1.53.54,3.06.82,4.58.44,2.32.89,4.63,1.33,7s.87,4.51,1.28,6.78c.36,2,.69,3.94,1,5.91s.65,4.23,1,6.34A.85.85,0,0,0,205,233Z" transform="translate(-158.41 -196.15)"/><path class="a" d="M158.41,229.93c.06-2.18.09-4.35.19-6.52.07-1.52.23-3,.38-4.54s.34-3.09.51-4.63a32.32,32.32,0,0,1,2.08-8.62,41.48,41.48,0,0,1,1.93-4.43,8.45,8.45,0,0,1,6-4.54,9.82,9.82,0,0,1,5.57.48,12.83,12.83,0,0,1,4.73,3,7.27,7.27,0,0,1,2.1,3.84.51.51,0,0,0,.46.48,4.57,4.57,0,0,1,2.8,1.69,9.72,9.72,0,0,1,1.92,3.87,60,60,0,0,1,1.36,6.79,22.9,22.9,0,0,1,.18,4.3c0,.61-.07,1.22-.09,1.83a3.17,3.17,0,0,1-1.07,2.31,8.46,8.46,0,0,1-1.86,1.26c-.72.38-.62.22-.59,1,.1,2.11.22,4.21.32,6.31.06,1,.11,2,.16,3l.15,2.79c0,.64,0,.71-.66.71l-8.84.08h-.38a.73.73,0,0,1-.8-.66,6.08,6.08,0,0,1-.16-.95c-.06-.63-.12-1.26-.15-1.89,0-.95-.05-1.91-.08-2.86a14.36,14.36,0,0,0-.48-3.58,7.5,7.5,0,0,0-.58-1.4,1.89,1.89,0,0,0-2-1,5.56,5.56,0,0,0-2.67,1,1.35,1.35,0,0,0-.6,1c0,.22,0,.45-.05.68l-.18,6.18-.09,2.87c0,.06,0,.13,0,.2a.32.32,0,0,1-.31.32h-.13a66.91,66.91,0,0,1-7.36.08,1.27,1.27,0,0,1-.74-.32,2.12,2.12,0,0,1-.66-1.5,40.52,40.52,0,0,1-.28-5.28v-3.31Zm1.47-.9v2.82c0,2,.12,4,.28,6,0,.44.17.56.61.56h.31l3.45-.15,1,0c.41,0,.46-.07.5-.46a2.73,2.73,0,0,0,0-.41c0-2.13.16-4.25.31-6.38a15.53,15.53,0,0,1,.2-1.67,3.32,3.32,0,0,1,2-2.6,4.54,4.54,0,0,1,.88-.29,20,20,0,0,1,4.51-.27,1.36,1.36,0,0,1,1.07.55,3.15,3.15,0,0,1,.66,1.53c.12,1,.27,1.94.36,2.91.13,1.24.24,2.47.32,3.71.06,1,.06,2,.09,3,0,.64.11.71.73.71h5.6a2.36,2.36,0,0,0,.38,0c.38,0,.51-.16.53-.54a6.43,6.43,0,0,0,0-.76c-.05-2.16-.1-4.33-.16-6.49,0-1.07-.09-2.14-.15-3.21-.09-1.85-.21-3.7-.31-5.55s-.2-3.42-.41-5.12q-.39-3.15-1-6.27c-.31-1.56-.68-3.12-1-4.68-.12-.55-.22-1.1-.35-1.65a6.27,6.27,0,0,0-2.22-3.41,15.6,15.6,0,0,0-3.75-2.17,7.59,7.59,0,0,0-4.12-.6,7.1,7.1,0,0,0-5.82,4.22,36.69,36.69,0,0,0-2.44,6.92,59.88,59.88,0,0,0-1.37,8.23c-.21,2.09-.35,4.19-.48,6.29C160,225.64,160,227.54,159.88,229Zm25-4.25H185a3,3,0,0,0,2.37-2.89,31.81,31.81,0,0,0-.36-5.34,42.69,42.69,0,0,0-1.44-6.31,9.33,9.33,0,0,0-1.46-3.07,2,2,0,0,0-1-.68c-.2-.06-.41-.15-.59,0s-.12.4-.06.61a45.83,45.83,0,0,1,1.25,6.67c.12,1.23.26,2.45.39,3.67l.3,3,.39,4C184.86,224.53,184.87,224.65,184.89,224.78Z" transform="translate(-158.41 -196.15)"/><path class="a" d="M251,233.79a.83.83,0,0,0,.45-.75c.05-1.29.14-2.59.19-3.89.08-2,.17-4,.19-6,0-2.75,0-5.5,0-8.25,0-1.45,0-2.9-.06-4.35,0-2.14-.07-4.28-.11-6.42a46.42,46.42,0,0,1,.18-5.28c0-.46.06-.92.09-1.38a1.1,1.1,0,0,1,.81-1,.39.39,0,0,1,.4.14,1.59,1.59,0,0,1,.47,1.31c-.1,1.55-.24,3.1-.28,4.66-.08,2.43,0,4.87.09,7.31.07,1.65.08,3.29.1,4.94,0,1.81.06,3.61,0,5.42,0,2.05-.1,4.1-.17,6.14-.09,2.42-.2,4.83-.3,7.25q-.14,2.87-.45,5.71c0,.34-.06.69-.1,1,0,.13,0,.25-.06.38a.31.31,0,0,1-.32.26h-1.17c-.21,0-.3-.13-.36-.31-.44-1.6-.93-3.18-1.31-4.79-1.94-8.23-3.84-16.48-5.76-24.72q-.76-3.28-1.58-6.57c-.2-.81-.47-1.61-.72-2.41-.09-.31-.21-.43-.39-.42a.57.57,0,0,0-.41.5c0,.28,0,.57-.07.86-.17,2.33-.2,4.67-.22,7q0,4.31-.06,8.6c0,1.88,0,3.76,0,5.63,0,3.09,0,6.17.07,9.26,0,2.18.09,4.37.13,6.56,0,.05,0,.11,0,.17,0,.45-.13.57-.58.57l-.94,0c-.26,0-.35-.08-.41-.33a1.78,1.78,0,0,1-.06-.51l0-10.23c0-1.38,0-2.76,0-4.14l.06-17.1q0-4.58,0-9.15a3.45,3.45,0,0,1,.58-2.05,1.65,1.65,0,0,1,1.34-.74.81.81,0,0,1,.92.62c.26.73.52,1.47.79,2.2A103.13,103.13,0,0,1,245.87,213q2,8.9,4,17.77c.19.84.43,1.67.64,2.5A.93.93,0,0,0,251,233.79Z" transform="translate(-158.41 -196.15)"/><path class="a" d="M221.27,216.44c.08-2.12.18-4.24.24-6.35,0-1.18.11-2.35.24-3.51a25.06,25.06,0,0,1,1.65-7.14,6.85,6.85,0,0,1,1.39-2.24,3,3,0,0,1,2.58-.9,8.36,8.36,0,0,1,.85.14,4.44,4.44,0,0,1,2.6,1.64,12.36,12.36,0,0,1,2.11,3.89,27.47,27.47,0,0,1,1.19,4.89,57.53,57.53,0,0,1,.56,6.42,56.09,56.09,0,0,1,0,5.8c-.07,1.39-.19,2.78-.31,4.17s-.23,2.56-.37,3.84a45.81,45.81,0,0,1-1.45,8.07,13.8,13.8,0,0,1-1.52,3.5,6.25,6.25,0,0,1-.72,1,3.26,3.26,0,0,1-4.72.34,6.34,6.34,0,0,1-1.68-2.25,19.73,19.73,0,0,1-1.44-4.38,46,46,0,0,1-.78-5.11,92.82,92.82,0,0,1-.41-10.41c0-.46,0-.92,0-1.38Zm1.71.73c0,1.26,0,2.57.05,3.88a50.84,50.84,0,0,0,.46,6q.48,3.39,1,6.75a8.52,8.52,0,0,0,1.38,3.5,3,3,0,0,0,.53.6,1.56,1.56,0,0,0,1.8.23,3.11,3.11,0,0,0,.67-.47,5.55,5.55,0,0,0,1.54-2.42c.21-.64.41-1.27.6-1.91a27,27,0,0,0,1.12-4.76c.22-1.81.35-3.62.5-5.43.1-1.25.18-2.5.26-3.75A11.24,11.24,0,0,0,233,218c-.09-1.9-.2-3.81-.31-5.72-.07-1.34-.15-2.68-.34-4a28,28,0,0,0-1.53-6,8.91,8.91,0,0,0-1.76-3,4.92,4.92,0,0,0-.89-.75,1.6,1.6,0,0,0-1.43-.16,2.17,2.17,0,0,0-1.38,1.11,14.1,14.1,0,0,0-.76,1.74,22.25,22.25,0,0,0-.89,4.35c-.28,2.06-.45,4.14-.54,6.22C223.07,213.52,223,215.32,223,217.17Z" transform="translate(-158.41 -196.15)"/><path class="a" d="M297.94,204.47c.06,2,.1,4.09.2,6.14.09,1.83.24,3.65.37,5.47.1,1.27.19,2.53.31,3.79.14,1.49.29,3,.46,4.46s.36,3.13.57,4.69a32.47,32.47,0,0,0,1.46,6.31,6.6,6.6,0,0,0,2.44,3.26,2.77,2.77,0,0,0,2.62.4,4.32,4.32,0,0,0,1.8-1.24A8.27,8.27,0,0,0,310,234.2a45.75,45.75,0,0,0,1-5c.2-1.44.42-2.87.59-4.31s.32-2.93.44-4.4c.29-3.39.38-6.8.43-10.2q.06-4.56.14-9.12c0-.7,0-1.4.05-2.1,0-.45.12-.89.18-1.33a.76.76,0,0,1,1.47,0,4.82,4.82,0,0,1,.24,2c-.19,2.25-.29,4.5-.32,6.76,0,1.62-.05,3.24-.08,4.87s-.05,3-.13,4.55c-.1,2-.21,4-.39,6s-.39,3.94-.64,5.9a56.72,56.72,0,0,1-1.24,6.82,13.41,13.41,0,0,1-2.9,5.47A3.58,3.58,0,0,1,306,241.3a5.47,5.47,0,0,1-4-1.43,6.73,6.73,0,0,1-1.4-1.91,24.12,24.12,0,0,1-2.09-5.94,31.19,31.19,0,0,1-.56-4c-.11-1.18-.26-2.36-.38-3.53s-.26-2.29-.38-3.43c-.14-1.44-.27-2.87-.39-4.3-.08-1.07-.15-2.14-.22-3.2-.09-1.42-.18-2.83-.25-4.24-.06-1.07-.09-2.14-.11-3.21,0-1.61-.06-3.22-.08-4.83,0-1.1,0-2.19,0-3.28v-.28a1.13,1.13,0,0,1,.73-1.07.54.54,0,0,1,.76.21,1.16,1.16,0,0,1,.2.47,7.61,7.61,0,0,1,.15,1.26c0,1.94,0,3.89,0,5.84Z" transform="translate(-158.41 -196.15)"/><path class="a" d="M318,227.6a21.16,21.16,0,0,0,.2,3.82q.21,1.76.51,3.51a5.22,5.22,0,0,0,1.32,2.8,5.45,5.45,0,0,0,3,1.58,5.59,5.59,0,0,0,4.23-.82,9.29,9.29,0,0,0,4.07-5.05,10,10,0,0,0-1.67-9.65,17.83,17.83,0,0,0-6.57-5.26,13.48,13.48,0,0,1-4.07-3,8,8,0,0,1-1.82-3.66,15.72,15.72,0,0,1-.36-4.43,14.11,14.11,0,0,1,2.66-7.4,18.72,18.72,0,0,1,1.44-1.76,4,4,0,0,1,2.78-1.36,9.56,9.56,0,0,1,6.82,2,5,5,0,0,1,.62.6,1.39,1.39,0,0,1,.19,1.52.54.54,0,0,1-.85.29,3.42,3.42,0,0,1-.4-.26,12.15,12.15,0,0,0-4.12-1.8,5.4,5.4,0,0,0-1.88-.14,3.77,3.77,0,0,0-2.13,1.06,10.87,10.87,0,0,0-2.93,5.11,12,12,0,0,0-.49,3.82,9.06,9.06,0,0,0,1.57,4.69,5.91,5.91,0,0,0,2.34,2,31,31,0,0,1,4.6,2.86,27.41,27.41,0,0,1,3.23,2.86,12.31,12.31,0,0,1,3.19,6.32,12.79,12.79,0,0,1,.25,2.54,12,12,0,0,1-.85,4.34,11,11,0,0,1-4.69,5.74,6.6,6.6,0,0,1-4.06,1,8.23,8.23,0,0,1-2-.35,6.89,6.89,0,0,1-3.83-2.89,9.94,9.94,0,0,1-1.58-4.12,34,34,0,0,1-.37-6.68,8.84,8.84,0,0,1,.16-1.92,3.5,3.5,0,0,1,.14-.46.57.57,0,0,1,.47-.41.56.56,0,0,1,.52.29A2,2,0,0,1,318,226C318,226.58,318,227.19,318,227.6Z" transform="translate(-158.41 -196.15)"/><path class="a" d="M256.29,222c0-1.46,0-2.92.06-4.38,0-1.07.09-2.14.16-3.21s.19-2.38.33-3.57.3-2.49.5-3.73a20.59,20.59,0,0,1,3.42-8.65,5.2,5.2,0,0,1,1-1.1,3.57,3.57,0,0,1,2-.81,10.53,10.53,0,0,1,2.51,0,6,6,0,0,1,1.27.3,1.41,1.41,0,0,1,.92,1.72c-.08.35-.24.5-.61.46-.6-.06-1.21-.11-1.81-.23a4,4,0,0,0-3.79,1.14,7.16,7.16,0,0,0-1.65,2.61,28.51,28.51,0,0,0-1.77,6.68c-.23,1.79-.42,3.59-.55,5.39-.15,2.07-.23,4.14-.21,6.21s.07,4,.18,6a47.28,47.28,0,0,0,.87,7,10.21,10.21,0,0,0,1.12,3,3.34,3.34,0,0,0,2.33,1.68,4.33,4.33,0,0,0,3.16-.53,3.06,3.06,0,0,0,1.28-1.49,16.64,16.64,0,0,0,1-3.93,62.76,62.76,0,0,0,.61-9.29,4.76,4.76,0,0,1,.07-.75.67.67,0,0,1,.78-.61c.61,0,1.22,0,1.83.07l3.21.12c.24,0,.48,0,.72.05a.43.43,0,0,1,.44.47,1.32,1.32,0,0,1-.51,1.08,1.68,1.68,0,0,1-1.09.39,9.6,9.6,0,0,1-1.07,0,12.1,12.1,0,0,0-2.17.11c-.39,0-.45.16-.45.54,0,1.33,0,2.65,0,4a28.7,28.7,0,0,1-.25,2.93,20.24,20.24,0,0,1-1.66,6.16,8.16,8.16,0,0,1-.88,1.44,5.45,5.45,0,0,1-3,1.92,3.88,3.88,0,0,1-2.51-.23,7.22,7.22,0,0,1-3.91-3.66,12.48,12.48,0,0,1-.92-2.85,41.26,41.26,0,0,1-.92-7.91c0-1.11,0-2.23-.05-3.34V222Z" transform="translate(-158.41 -196.15)"/><path class="a" d="M172,214.63c-1.06,0-2-.06-3-.13a13.9,13.9,0,0,1-3.44-.68,4,4,0,0,1-1.66-1,2.66,2.66,0,0,1-.77-1.87,10.7,10.7,0,0,1,.5-3.46,4.8,4.8,0,0,1,.85-1.57,4,4,0,0,1,2.76-1.4c.59-.06,1.19-.1,1.79-.12,1.49,0,3-.13,4.49,0A6.64,6.64,0,0,1,176,205a2.65,2.65,0,0,1,1.44,1.68,19.15,19.15,0,0,1,.67,3.2c.07.61.12,1.23.14,1.85a2.08,2.08,0,0,1-1.22,2.07,6.24,6.24,0,0,1-2.41.69C173.71,214.57,172.78,214.59,172,214.63Zm-1.53-1.3a29.2,29.2,0,0,0,4-.29,4.31,4.31,0,0,0,1.65-.59,1.68,1.68,0,0,0,.85-1.61,14.69,14.69,0,0,0-.78-3.71,1.89,1.89,0,0,0-1.17-1.19,3.41,3.41,0,0,0-.76-.2,25.39,25.39,0,0,0-3.48-.29,15.56,15.56,0,0,0-3.26.28,3.46,3.46,0,0,0-2.62,2.07,6.42,6.42,0,0,0-.5,2.66,2,2,0,0,0,1.13,1.84,10.25,10.25,0,0,0,1.5.61A13.7,13.7,0,0,0,170.43,213.33Z" transform="translate(-158.41 -196.15)"/></svg>