<svg xmlns="http://www.w3.org/2000/svg" viewBox="0 0 259.84 81.89"><defs><style>.cls-1{fill:#fff;}</style></defs><g id="Layer_2" data-name="Layer 2"><g id="Layer_1-2" data-name="Layer 1"><path class="cls-1" d="M196.36,40.7c1.33-.17,4.06-.43,5.4-.6,2.63-4.87,2.69-4.78,5.31-9.57-1.34.15-4,.38-5.39.53C199.07,35.89,199,35.81,196.36,40.7Z"/><path class="cls-1" d="M30.26,64.72l9.09-1.19S48,49.71,52.83,41.89c-3.07.36-6.15.7-9.24,1C38.79,50.8,30.26,64.72,30.26,64.72Z"/><path class="cls-1" d="M248.4,2.64a7.7,7.7,0,0,0-3.72-.73c-2.39.13-4.78.33-7.18.44a11.29,11.29,0,0,0-6.29,2.13.61.61,0,0,1-.74,0,18.69,18.69,0,0,0-2.93-1.22,16.68,16.68,0,0,0-5.81-.19c-3.89.31-7.77.65-11.65,1a21.29,21.29,0,0,0-7.25,1.67.82.82,0,0,1-.57,0,7.63,7.63,0,0,0-4-.51c-3.89.35-7.77.63-11.66,1L170.46,7.56a9.91,9.91,0,0,0-4.15.84.77.77,0,0,1-.54,0,16.05,16.05,0,0,0-6.24-.49c-4.2.35-8.39.81-12.59,1.22s-8.35.84-12.53,1.2a6.43,6.43,0,0,0-5.24,3,1,1,0,0,1-.16.19A31.07,31.07,0,0,0,126,12.28a15.77,15.77,0,0,0-5.85-.4c-2.08.14-4.15.32-6.22.5-3,.24-6,.5-9.08.75l-3.27.29.27-1C103.26,6.6,100.36,1.87,94.53.55A24.76,24.76,0,0,0,87.09.28L77.73,1l-9.53.72-9.69.74-9.82.71c-3.92.29-7.85.57-11.77.88a16.8,16.8,0,0,0-5,.87A6.12,6.12,0,0,0,27.79,10a6,6,0,0,0,2.43,5.88,17.49,17.49,0,0,0,2.22,1.31c.2.12.42.22.66.35l-.33.59L8.12,60.33C5.69,64.49,3.25,68.63.84,72.8a6,6,0,0,0,1.75,8,6.65,6.65,0,0,0,5,.94c3.79-.55,7.6-1,11.41-1.54l10.58-1.41,11.3-1.51c3.41-.47,6.84-.87,10.22-1.49a44.15,44.15,0,0,0,14.27-4.92.51.51,0,0,1,.69.09,7.53,7.53,0,0,0,3.79,1.73,14.41,14.41,0,0,0,3.46.21q6.34-.66,12.66-1.52c4.56-.61,9.11-1.34,13.68-2a7.54,7.54,0,0,0,5-2.18c.1-.11.45-.09.62,0a8.3,8.3,0,0,0,4.61.65c2.65-.36,5.3-.76,8-1a14.5,14.5,0,0,0,8-3.11c.29-.25.49-.11.74,0a7.35,7.35,0,0,0,4.73,1.07c2.12-.24,4.25-.46,6.37-.72a14.91,14.91,0,0,0,5.65-1.53.94.94,0,0,1,.68,0,6.06,6.06,0,0,0,3,.39c4.33-.55,8.66-1.13,13-1.7l13.25-1.75,14.1-1.84c5-.66,10-1.3,15-2s10.14-1.48,15.23-2.15c3.6-.48,7.22-.82,10.83-1.23a21.8,21.8,0,0,0,5.54-1.11,6.32,6.32,0,0,0,2.68-10.11.59.59,0,0,1-.09-.78c.72-1.3,1.41-2.61,2.1-3.92C242.91,28.3,246.88,20,251.48,12A6.64,6.64,0,0,0,248.4,2.64ZM229.09,5.21h0Zm-4-.28h0A.51.51,0,0,0,225,5,.38.38,0,0,1,225.12,4.93ZM202.27,7.58a1,1,0,0,0-.22-.29l.08.07A.74.74,0,0,1,202.27,7.58ZM201.66,7a1.54,1.54,0,0,1,.32.23,1.54,1.54,0,0,0-.32-.23Zm-.59-.21ZM200,6.91l.24-.1a1.33,1.33,0,0,0-.24.1Zm-.32.3h0a.53.53,0,0,0-.08.27A.53.53,0,0,1,199.64,7.21Zm.23.92A.94.94,0,0,1,199.7,8a.62.62,0,0,1-.11-.19A.93.93,0,0,0,199.87,8.13Zm-34,2a1,1,0,0,1,.13.32,1.15,1.15,0,0,1,0,.37,1,1,0,0,0-.73-1.1A1,1,0,0,1,165.85,10.17Zm0,1a0,0,0,0,1,0,0,.58.58,0,0,1-.18.17A.73.73,0,0,0,165.86,11.17Zm-37.07,4.9a.94.94,0,0,0,.08-.32v.06a1,1,0,0,1-.08.26.86.86,0,0,1-.13.2,1.54,1.54,0,0,1-.19.17A.94.94,0,0,0,128.79,16.07ZM125.6,13.6h0l-.12,0Zm1.48,2.8-1.75-.77-2.14-.94C124.48,15.26,125.78,15.84,127.08,16.4Zm-25.72,0h0l0,0Zm-.17.08-.08,0a.69.69,0,0,1-.25,0A.77.77,0,0,0,101.19,16.43Zm-.7-1.92a1.1,1.1,0,0,1,.36,0,1.13,1.13,0,0,0-.41,0ZM97.33,5.16l-.3-.1L96.87,5A2.54,2.54,0,0,0,97.33,5.16Zm-2.1-3,.21.06-.21-.06Zm.91,2.51L94.39,4l-2.28-.88Zm-4.6-1.78a1.57,1.57,0,0,1-.26-.19L91,2.49A6.26,6.26,0,0,0,91.54,2.88ZM42.32,69.71,5.62,74.63,39,17.43a4.33,4.33,0,0,0-1.48-5.52c-2.22-1.66-7.85-2.62-.59-3.15s35-2.58,50.55-3.84C102.6,3.69,94.2,13.09,83.93,29c-5.19,6.44-13.53,3.77-15,8-.69,1.9,8,2,5.26,7.62C72.75,47.38,70.9,53,66.7,59.87,62.24,68.19,42.32,69.71,42.32,69.71ZM99.68,62q-11.73,1.8-23.49,3.36c-3.47.46-6,.64-6.88-.47s-.77-2.59.41-4.59Q74,53.11,78.25,46.05c1.66-2.77,5.93-6.94,10.41-7.26,4.17-.33,13.22-1.31,13.22-1.33q4.78-7.89,9.52-15.62c-1.65.15-3.72.29-5.36.43-2.24,3.67-3.58,5.43-5.83,9.15A6,6,0,0,1,96.07,34c-2.83.29-5.65.56-8.48.82-1.5.14-2.35-.79-1.54-2.12,1.83-3,2.73-4.1,4.56-7.09,3.94-6.49,8.54-7.33,13.18-7.77s13.31-1.09,14.51-1.21c7.14-.62,8.85.13,5.27,5.95Q111.78,41.79,99.68,62Zm43.38-8.6a8.28,8.28,0,0,1-4.48,3.16c-2.81.49-5.3.69-8.09,1-1.49.25-2-1-1.27-2.25,7.79-12.89,13.36-22.59,21-34.83-1.61.17-4.88.5-6.51.69-7.52,12.09-12.61,21.79-20.64,35.1a7.83,7.83,0,0,1-4.45,3c-2.84.46-7,.9-9.83,1.35-1.6.25-2.2-.62-1.45-1.87Q120.88,36.25,134,15.08c7.75-.75,16.93-1.65,24.62-2.43,7.44-.74,7.57,1.53,4.95,5.72C156.5,29.63,150.28,41.49,143.06,53.36ZM245.79,7.81c-4.55,7.56-11,21.41-16.39,30.94-2.43,4.33,2.84,4.41,2.35,5.25s-6.92,1.21-8.26,1.37c-2.22.26-5.33.62-7.74.92a10.16,10.16,0,0,1-2.08.48c-8.13,1.06-67.78,8.93-67.78,8.93s4.05-6.68,4.88-8.18C162.48,34.94,178.66,18,178.66,18L165,19.28l3.85-6.93,30.39-2.53s-3.08,4.56-3.9,6c-10.64,10.79-30.94,30.32-30.94,30.32l20-2a4.6,4.6,0,0,1,.71-3.29c2.28-4.23,2.18-3,4.43-7.17,1.33-2.46,4.73-6.14,8.31-6.37,3.33-.26,11.61-1.14,11.61-1.16q3.84-7,7.64-13.9c-1.32.13-4,.32-5.35.44-1.79,3.26-2.86,4.83-4.67,8.13a4.73,4.73,0,0,1-3.3,2.31c-2.26.23-4.52.44-6.79.65-1.19.11-1.87-.72-1.23-1.91,1.47-2.69,2.18-3.64,3.64-6.3C202.58,9.76,206.26,9,210,8.69s10.68-.87,11.65-1c5.74-.5,7.12.19,4.23,5.38-6,10.8-10.24,17.57-16.18,28.43l6.1-.63c5.56-10,13.76-24.95,18.17-32.43a4.44,4.44,0,0,1,3.3-1.5c2.4-.09,4.81-.41,7.2-.46C245.74,6.49,246.24,7.09,245.79,7.81Z"/><path class="cls-1" d="M62.87,11.55q-7.47,12.08-14.77,24l9.29-1Q64.71,22.75,72.27,10.8Z"/><path class="cls-1" d="M85.73,55.6c1.66-.2,3.77-.41,5.44-.62,3.29-5.49,4.42-7.13,7.68-12.54-1.66.2-3.75.38-5.42.55C90.15,48.43,89,50.09,85.73,55.6Z"/><path class="cls-1" d="M259.84,3.17a3.18,3.18,0,1,1-6.36,0,3.18,3.18,0,0,1,6.36,0Zm-5.57,0a2.44,2.44,0,0,0,2.42,2.53,2.4,2.4,0,0,0,2.36-2.51,2.39,2.39,0,1,0-4.78,0Zm1.91,1.64h-.72V1.65a6.59,6.59,0,0,1,1.19-.11,1.66,1.66,0,0,1,1.06.26.82.82,0,0,1,.32.67.83.83,0,0,1-.64.76v0c.3.09.45.34.54.77a2.83,2.83,0,0,0,.23.77h-.75a2.49,2.49,0,0,1-.25-.77c-.06-.33-.24-.48-.64-.48h-.34Zm0-1.77h.34c.39,0,.72-.14.72-.47s-.21-.48-.66-.48a1.62,1.62,0,0,0-.4,0Z"/></g></g></svg>