<svg xmlns="http://www.w3.org/2000/svg" viewBox="0 0 241.8 112.77"><defs><style>.cls-1{fill:#fff;}.cls-2{fill:#ee3034;}</style></defs><g id="Layer_2" data-name="Layer 2"><g id="Layer_1-2" data-name="Layer 1"><path class="cls-1" d="M120.86,0H5.65C1.53,0,0,1.53,0,5.67v101.1c0,.54,0,1.08,0,1.62a4.52,4.52,0,0,0,4.64,4.36c.78,0,1.57,0,2.35,0H236.15c4,0,5.64-1.58,5.64-5.54q0-50.82,0-101.64c0-4-1.58-5.58-5.56-5.58Z"/><path class="cls-2" d="M120.86,0H236.24c4,0,5.56,1.54,5.56,5.58q0,50.82,0,101.64c0,4-1.64,5.54-5.64,5.54H7c-.78,0-1.57,0-2.35,0A4.52,4.52,0,0,1,0,108.39c0-.54,0-1.08,0-1.62V5.67C0,1.53,1.53,0,5.65,0Zm34.76,87.55c.89,3.54,3.13,5,6.58,4.62,3.15-.39,4.34-1.85,4.34-5.5q0-30.36,0-60.72a9.75,9.75,0,0,0,0-1.08c-.33-3.24-2.33-5-5.54-4.84-3.52.15-5.41,2-5.42,5.39,0,4.94,0,9.88,0,14.83,0,.57.22,1.3-.36,1.67s-1.23-.23-1.77-.56c-8.57-5.14-17.55-5.26-26.24-1-9.69,4.76-14.5,13.14-15.24,23.9-1.19,17.14,14.63,31.44,31.55,28.55A28.33,28.33,0,0,0,155.62,87.55ZM20.5,56.15q0,15.54,0,31.1c0,2.9,1.22,4.43,3.8,4.86,3.2.53,6-.69,6.67-3.19.37-1.33.74-1.15,1.64-.51A25.67,25.67,0,0,0,46.8,93.09c21.68.75,34.47-21.87,25.36-40.17C64.71,37.94,47.54,33,33.33,41.53c-1.51.9-1.88.72-1.89-1.05,0-4.94,0-9.89,0-14.83a8.08,8.08,0,0,0-.17-2c-.66-2.54-3.36-4-6.48-3.63a4.74,4.74,0,0,0-4.25,5Q20.47,40.6,20.5,56.15Zm148.34,9.38a27.92,27.92,0,0,0,26.66,28c14.78.47,28.38-11.82,28.4-27.33,0-15.87-11.94-28.42-27.23-28.47C181,37.63,168.9,49.79,168.84,65.53ZM107.43,53.94h0q0-16,0-32a7.3,7.3,0,0,0-.5-3.36c-1.09-2.2-3.4-3.2-6.13-2.65A5,5,0,0,0,97,21q-.06,11.66,0,23.31,0,21.33,0,42.65a5,5,0,0,0,3.6,5c3.64,1,6.81-1.17,6.83-4.95C107.47,76,107.43,65,107.43,53.94ZM79.24,65.53c0,7.11,0,14.22,0,21.32a5.21,5.21,0,0,0,.88,3.24,5.67,5.67,0,0,0,6.43,2c2.29-.72,3.66-2.6,3.67-5.4q0-21.14,0-42.28a5.5,5.5,0,0,0-7.54-5.58A5,5,0,0,0,79.25,44C79.23,51.2,79.24,58.37,79.24,65.53Zm.24-39.22v2c0,3.71,1,4.71,4.68,4.74a19.32,19.32,0,0,0,2.53-.1A3.29,3.29,0,0,0,89.84,30c.08-2.35.1-4.71,0-7-.09-1.84-1.63-2.89-4-3-3.62-.19-5.8.64-6.21,2.42a5.55,5.55,0,0,0-.07,1.08Z"/><path class="cls-1" d="M155.62,87.55a28.33,28.33,0,0,1-12.13,5.27c-16.92,2.89-32.74-11.41-31.55-28.55.74-10.76,5.55-19.14,15.24-23.9,8.69-4.27,17.67-4.15,26.24,1,.54.33,1.06,1,1.77.56s.36-1.1.36-1.67c0-5,0-9.89,0-14.83,0-3.36,1.9-5.24,5.42-5.39,3.21-.14,5.21,1.6,5.54,4.84a9.75,9.75,0,0,1,0,1.08q0,30.36,0,60.72c0,3.65-1.19,5.11-4.34,5.5C158.75,92.6,156.51,91.09,155.62,87.55ZM122.79,65.8A16.81,16.81,0,1,0,139.38,49,16.87,16.87,0,0,0,122.79,65.8Z"/><path class="cls-1" d="M20.5,56.15q0-15.55,0-31.11a4.74,4.74,0,0,1,4.25-5c3.12-.39,5.82,1.09,6.48,3.63a8.08,8.08,0,0,1,.17,2c0,4.94,0,9.89,0,14.83,0,1.77.38,2,1.89,1.05C47.54,33,64.71,37.94,72.16,52.92c9.11,18.3-3.68,40.92-25.36,40.17a25.67,25.67,0,0,1-14.18-4.68c-.9-.64-1.27-.82-1.64.51-.7,2.5-3.47,3.72-6.67,3.19-2.58-.43-3.8-2-3.8-4.86Q20.49,71.69,20.5,56.15Zm10.14,9.63A16.72,16.72,0,0,0,47.37,82.54,16.79,16.79,0,1,0,47.15,49,16.77,16.77,0,0,0,30.64,65.78Z"/><path class="cls-1" d="M168.84,65.53c.06-15.74,12.2-27.9,27.83-27.85,15.29,0,27.25,12.6,27.23,28.47,0,15.51-13.62,27.8-28.4,27.33A27.92,27.92,0,0,1,168.84,65.53Zm44.68.07c0-9.34-7.64-17.35-16.72-17.42A17.39,17.39,0,1,0,213.52,65.6Z"/><path class="cls-1" d="M107.43,53.94c0,11,0,22,0,33.07,0,3.78-3.19,6-6.83,4.95a5,5,0,0,1-3.6-5q0-21.33,0-42.65,0-11.65,0-23.31a5,5,0,0,1,3.84-5c2.73-.55,5,.45,6.13,2.65a7.3,7.3,0,0,1,.5,3.36q0,16,0,32Z"/><path class="cls-1" d="M79.24,65.53c0-7.16,0-14.33,0-21.5a5,5,0,0,1,3.43-5.16,5.5,5.5,0,0,1,7.54,5.58q0,21.13,0,42.28c0,2.8-1.38,4.68-3.67,5.4a5.67,5.67,0,0,1-6.43-2,5.21,5.21,0,0,1-.88-3.24C79.25,79.75,79.24,72.64,79.24,65.53Z"/><path class="cls-1" d="M79.48,26.31v-2.9a5.55,5.55,0,0,1,.07-1.08c.41-1.78,2.59-2.61,6.21-2.42,2.42.14,4,1.19,4,3,.13,2.34.11,4.7,0,7a3.29,3.29,0,0,1-3.15,2.95,19.32,19.32,0,0,1-2.53.1c-3.7,0-4.68-1-4.68-4.74Z"/><path class="cls-2" d="M122.79,65.8a16.81,16.81,0,1,1,17,16.74A16.91,16.91,0,0,1,122.79,65.8Z"/><path class="cls-2" d="M30.64,65.78A16.77,16.77,0,0,1,47.15,49a16.79,16.79,0,1,1,.22,33.58A16.72,16.72,0,0,1,30.64,65.78Z"/><path class="cls-2" d="M213.52,65.6A17.15,17.15,0,1,1,196.8,48.18C205.88,48.25,213.57,56.26,213.52,65.6Z"/></g></g></svg>