<svg xmlns="http://www.w3.org/2000/svg" viewBox="0 0 183.83 173.85"><defs><style>.cls-1{fill:none;}.cls-2{fill:#fff;}</style></defs><g id="Layer_2" data-name="Layer 2"><g id="Layer_1-2" data-name="Layer 1"><path class="cls-1" d="M130.63,159.07a2,2,0,0,1-2-1.91,27,27,0,0,1-.12-3.36c0-2,0-2,1.88-2a3.31,3.31,0,0,0,.7-.06c.64-.16,1.12-.48,1.06-1.25a1.14,1.14,0,0,0-1.19-1.13,9.35,9.35,0,0,0-1.4,0c-.79.07-1.11-.22-1.07-1,.06-1,0-2,0-3,0-.83-.13-1.59-1.12-1.61s-1.2.7-1.18,1.55,0,2,0,3c0,.6,0,1-.81,1.17-1,.28-1.28,1.74-.38,2,1.45.43,1.18,1.43,1.19,2.41,0,1.17,0,2.34,0,3.51.11,2.44,1.68,4,4.43,4.09.46,0,1.36.18,1.49-1S131.52,159.13,130.63,159.07Z"/><path class="cls-1" d="M151,142.12a5.89,5.89,0,0,0,7.24-4.38,12,12,0,0,0,.34-3.6c.07-2.91-.32-5.55-2.33-7.59a11.51,11.51,0,0,0-10.59-3.18c-3.73.61-5.27,2.73-5.12,6.49a11,11,0,0,0,1.37,4.54C143.88,138.24,146.64,141.15,151,142.12Z"/><path class="cls-1" d="M140.24,149.26a6.09,6.09,0,1,0,0,12.17,6.09,6.09,0,1,0,0-12.17Zm.07,9.84a3.71,3.71,0,0,1-3.74-3.74,3.76,3.76,0,0,1,3.56-3.8,3.77,3.77,0,0,1,.18,7.54Z"/><path class="cls-1" d="M125.42,114.34a40.4,40.4,0,0,0-3.69-12.78A44.39,44.39,0,0,0,93.54,78.29c-1.9-.5-3.87-.73-6.06-1.37,1.44-.57,2.59-1,3.72-1.48a37.72,37.72,0,0,0,12.89-9.15,27.06,27.06,0,0,0,6.06-10.72,32.83,32.83,0,0,0,1.19-11.43,30.23,30.23,0,0,0-1.3-7.39c-1.83-5.79-5.77-10-10.65-13.27-5.43-3.68-11.56-5.57-18-6.84a122.34,122.34,0,0,0-19.53-2.15c-4.82-.17-9.65-.16-14.48-.27a135,135,0,0,0-19.49.53A2.64,2.64,0,0,0,25.56,16c-.44,1,.3,1.78,1,2.44a4,4,0,0,1,1.4,2.19c.33,2.34.66,4.68.88,7,.28,3.06.29,6.14.52,9.2.3,4,.39,8,.47,11.93.1,4.79.12,9.57.13,14.36.06,29.13.22,58.26-.34,87.38,0,1-.05,2,0,3,0,.68-.35,1-.95.8a17.68,17.68,0,0,0-2.89-.43c-3.12-.75-6-.51-8.2,2.31a3.14,3.14,0,0,0-.36,4.05c1.78,2.95,4.61,3.7,8.12,2a11.92,11.92,0,0,1,5.14-1.12c15.33-.06,30.67-.13,46,.26,4.3.11,8.64.41,12.9-.36A45.79,45.79,0,0,0,105,155.12a42,42,0,0,0,16.52-18A40.56,40.56,0,0,0,125.42,114.34Zm-19.27,12.49a46.09,46.09,0,0,1-2.76,10.1,27.46,27.46,0,0,1-19.47,16.59,39.5,39.5,0,0,1-9.69,1.13c-8,0-15.91,0-23.86,0-1.25,0-1.67-.31-1.64-1.63.1-3.7,0-7.41,0-12.42.37-27.08.15-55.46.36-83.83q.12-17.39.15-34.75c0-1.17.33-1.51,1.5-1.5,5.53.08,11.07,0,16.6.1,13.55.22,23.3,9,26.5,21,1.51,5.64.25,11.06-2.46,16.1a51.76,51.76,0,0,1-5.66,8.83A54.23,54.23,0,0,1,72.08,78.27,48,48,0,0,0,62,85.93C59,89.05,56.2,92.39,55,96.65c-2.46,9.09-1,17.34,6.23,23.78,5.92,5.28,12.51,5.53,19.12.56,2-1.54,3.89-3.23,4.38-5.93,1.54-8.31-3.41-14.27-11.35-15.52-3.5-.55-8.14,3-8.75,6.47a3.12,3.12,0,0,0,.76,2.59c.79,1,1.54.88,2.25-.14,2-2.95,4.72-3.68,6.93-1.89,2.94,2.38,3.37,6.17,1,8.74A8,8,0,0,1,66.72,117c-4.41-1.66-6.28-5-6.95-9.44a20.08,20.08,0,0,1,4.76-16.82c5.35-6.13,12.22-9.15,20.58-8,6.27.89,10.75,4.42,14.26,9.45,4.37,6.27,6.62,13.33,7.66,20.81C107.68,117.7,107,122.28,106.15,126.83Z"/><path class="cls-1" d="M161.88,150.43c0-.76-.48-1.17-1.29-1.17s-1.14.54-1.15,1.28c0,1.54,0,3.09,0,4.64a3.91,3.91,0,0,1-3.8,3.92,3.73,3.73,0,0,1-3.57-3.93c0-1.5,0-3,0-4.5,0-.82-.37-1.45-1.38-1.41s-1.09.68-1.08,1.45c0,1.6,0,3.19,0,4.78a5.9,5.9,0,0,0,4.5,5.75,6.63,6.63,0,0,0,5.33-.9,3.78,3.78,0,0,1-2.07,3.69,3.33,3.33,0,0,1-4-.42c-.72-.59-1.44-.84-2.06,0s-.06,1.48.61,2a6.09,6.09,0,0,0,9.82-3.67C162.27,158.13,161.81,154.26,161.88,150.43Z"/><path class="cls-1" d="M172.47,149.26c-2.55,0-3.9,1.18-4.36,3.5a15.18,15.18,0,0,0-.18,2.93c0,2.74,0,2.75-2.65,3.44a1.1,1.1,0,0,0-.91,1.22,1.06,1.06,0,0,0,.94,1.06,4.21,4.21,0,0,0,4.86-3,20.38,20.38,0,0,0,.23-4.48c.07-1.51.62-2.2,2.07-2.32.9-.08,1.63-.26,1.53-1.34S173.08,149.23,172.47,149.26Z"/><path class="cls-2" d="M22.06,144c0-.22-.1-.55-.62-.55H20.33v1.13h1C21.83,144.55,22.06,144.39,22.06,144Z"/><path class="cls-2" d="M181.9,134.54c-3.35-10.14-9.44-17.94-19.59-22a53.31,53.31,0,0,0-20.24-3.43c-1.11,0-1.47-.32-1.48-1.4A27.23,27.23,0,0,0,138.4,97c-3.81-8.84-10.05-15.74-17.58-21.54-.82-.63-1-.93-.35-1.82a60.68,60.68,0,0,0,7.33-14.81A46.18,46.18,0,0,0,130,36.12c-1.66-9.86-7.2-17.12-15.39-22.52-7.82-5.16-16.57-8-25.6-10.11C78.89,1.17,68.54.62,58.18.23A248.54,248.54,0,0,0,28.66.68c-5.81.49-11.38,1.88-16.2,5.37C7.25,9.82,5.25,15,6.21,21.29c.84,5.55,3.43,10.36,6.47,15a10,10,0,0,1,1.5,3.6c1.33,6.6,1.44,13.32,1.59,20,.26,12,.23,24,.15,36s-.09,24.3.12,36.45a11,11,0,0,1-5,9.9c-1.88,1.32-3.8,2.59-5.6,4a14.81,14.81,0,0,0-2.3,20.65c3.37,4.16,8,5.89,13.09,6.6,4.34.61,8.71.24,13.07.24h56v.08c19.14,0,38.28,0,57.42,0a144.89,144.89,0,0,0,18.39-.87c10.82-1.43,17.94-7.31,21.23-17.68A33,33,0,0,0,181.9,134.54Zm-36.21-11.17a11.51,11.51,0,0,1,10.59,3.18c2,2,2.4,4.68,2.33,7.59a12,12,0,0,1-.34,3.6,5.89,5.89,0,0,1-7.24,4.38c-4.39-1-7.15-3.88-9.09-7.72a11,11,0,0,1-1.37-4.54C140.42,126.1,142,124,145.69,123.37ZM21.24,140.63a4.13,4.13,0,0,1,3,1.21,4.19,4.19,0,0,1,0,5.91,4.14,4.14,0,0,1-3,1.22,4.17,4.17,0,0,1,0-8.34ZM105,155.12a45.79,45.79,0,0,1-15.69,5.93c-4.26.77-8.6.47-12.9.36-15.33-.39-30.67-.32-46-.26a11.92,11.92,0,0,0-5.14,1.12c-3.51,1.68-6.34.93-8.12-2a3.14,3.14,0,0,1,.36-4.05c2.19-2.82,5.08-3.06,8.2-2.31a17.68,17.68,0,0,1,2.89.43c.6.24,1-.12.95-.8,0-1,0-2,0-3,.56-29.12.4-58.25.34-87.38,0-4.79,0-9.57-.13-14.36-.08-4-.17-8-.47-11.93-.23-3.06-.24-6.14-.52-9.2-.22-2.35-.55-4.69-.88-7a4,4,0,0,0-1.4-2.19c-.67-.66-1.41-1.43-1-2.44a2.64,2.64,0,0,1,2.35-1.28,135,135,0,0,1,19.49-.53c4.83.11,9.66.1,14.48.27a122.34,122.34,0,0,1,19.53,2.15c6.42,1.27,12.55,3.16,18,6.84,4.88,3.3,8.82,7.48,10.65,13.27a30.23,30.23,0,0,1,1.3,7.39,32.83,32.83,0,0,1-1.19,11.43,27.06,27.06,0,0,1-6.06,10.72A37.72,37.72,0,0,1,91.2,75.44c-1.13.49-2.28.91-3.72,1.48,2.19.64,4.16.87,6.06,1.37a44.39,44.39,0,0,1,28.19,23.27,40.89,40.89,0,0,1-.21,35.6A42,42,0,0,1,105,155.12Zm27.14,5.3c-.13,1.18-1,1-1.49,1-2.75-.11-4.32-1.65-4.43-4.09,0-1.17,0-2.34,0-3.51,0-1,.26-2-1.19-2.41-.9-.26-.66-1.72.38-2,.77-.2.82-.57.81-1.17,0-1,0-2,0-3s.21-1.56,1.18-1.55,1.14.78,1.12,1.61c0,1,0,2,0,3,0,.81.28,1.1,1.07,1a9.35,9.35,0,0,1,1.4,0,1.14,1.14,0,0,1,1.19,1.13c.06.77-.42,1.09-1.06,1.25a3.31,3.31,0,0,1-.7.06c-1.89.07-1.9.07-1.88,2a27,27,0,0,0,.12,3.36,2,2,0,0,0,2,1.91C131.52,159.13,132.25,159.3,132.14,160.42Zm8.06,1a6.09,6.09,0,1,1,0-12.17,6.09,6.09,0,1,1,0,12.17Zm21.47.5a6.09,6.09,0,0,1-9.82,3.67c-.67-.53-1.25-1.17-.61-2s1.34-.57,2.06,0a3.33,3.33,0,0,0,4,.42,3.78,3.78,0,0,0,2.07-3.69,6.63,6.63,0,0,1-5.33.9,5.9,5.9,0,0,1-4.5-5.75c0-1.59,0-3.18,0-4.78,0-.77.1-1.41,1.08-1.45s1.35.59,1.38,1.41c.05,1.5,0,3,0,4.5a3.73,3.73,0,0,0,3.57,3.93,3.91,3.91,0,0,0,3.8-3.92c0-1.55,0-3.1,0-4.64,0-.74.29-1.27,1.15-1.28s1.3.41,1.29,1.17C161.81,154.26,162.27,158.13,161.67,161.93Zm10.8-10.35c-1.45.12-2,.81-2.07,2.32a20.38,20.38,0,0,1-.23,4.48,4.21,4.21,0,0,1-4.86,3,1.06,1.06,0,0,1-.94-1.06,1.1,1.1,0,0,1,.91-1.22c2.65-.69,2.65-.7,2.65-3.44a15.18,15.18,0,0,1,.18-2.93c.46-2.32,1.81-3.48,4.36-3.5.61,0,1.43-.06,1.53,1S173.37,151.5,172.47,151.58Z"/><path class="cls-2" d="M21.24,148.31a3.5,3.5,0,1,0-2.49-1A3.52,3.52,0,0,0,21.24,148.31Zm-1.78-5.63h2.15a1.2,1.2,0,0,1,1.34,1.2,1,1,0,0,1-.66,1c.35.17.53.29.53,1.08,0,.61,0,.77.19.84v.1H22a2.36,2.36,0,0,1-.1-.84c0-.57,0-.81-.69-.81h-.92v1.65h-.87Z"/><path class="cls-2" d="M99.37,92.27c-3.51-5-8-8.56-14.26-9.45-8.36-1.19-15.23,1.83-20.58,8a20.08,20.08,0,0,0-4.76,16.82c.67,4.42,2.54,7.78,6.95,9.44a8,8,0,0,0,8.88-1.73c2.38-2.57,2-6.36-1-8.74-2.21-1.79-4.89-1.06-6.93,1.89-.71,1-1.46,1.1-2.25.14a3.12,3.12,0,0,1-.76-2.59c.61-3.47,5.25-7,8.75-6.47,7.94,1.25,12.89,7.21,11.35,15.52-.49,2.7-2.34,4.39-4.38,5.93-6.61,5-13.2,4.72-19.12-.56C54.05,114,52.58,105.74,55,96.65c1.16-4.26,4-7.6,6.92-10.72a48,48,0,0,1,10.12-7.66A54.23,54.23,0,0,0,85.75,66.56a51.76,51.76,0,0,0,5.66-8.83c2.71-5,4-10.46,2.46-16.1-3.2-12-13-20.75-26.5-21-5.53-.1-11.07,0-16.6-.1-1.17,0-1.5.33-1.5,1.5q0,17.37-.15,34.75c-.21,28.37,0,56.75-.36,83.83,0,5,.07,8.72,0,12.42,0,1.32.39,1.64,1.64,1.63,8-.05,15.91,0,23.86,0a39.5,39.5,0,0,0,9.69-1.13,27.46,27.46,0,0,0,19.47-16.59,46.09,46.09,0,0,0,2.76-10.1c.81-4.55,1.53-9.13.88-13.75C106,105.6,103.74,98.54,99.37,92.27Z"/><path class="cls-2" d="M140.13,151.56a3.76,3.76,0,0,0-3.56,3.8,3.71,3.71,0,0,0,3.74,3.74,3.77,3.77,0,0,0-.18-7.54Z"/></g></g></svg>