<svg xmlns="http://www.w3.org/2000/svg" viewBox="0 0 228.74 107.79"><defs><style>.cls-1{fill:#fff;}.cls-2{fill:#fff200;}.cls-3{fill:none;stroke:#fff200;stroke-width:0.14px;}.cls-4{fill:#abe1fa;}.cls-5{fill:#ed1c24;}.cls-6{fill:#231f20;}</style></defs><g id="Layer_2" data-name="Layer 2"><g id="Layer_1-2" data-name="Layer 1"><path class="cls-1" d="M215.08.07H13.65A13.6,13.6,0,0,0,.07,13.67V94.14a13.59,13.59,0,0,0,13.58,13.58H215.08a13.6,13.6,0,0,0,13.59-13.58V13.67A13.61,13.61,0,0,0,215.08.07m7,94.07a7,7,0,0,1-7,7H13.66a7,7,0,0,1-7-7V13.67a7,7,0,0,1,7-7H215.09a7,7,0,0,1,7,7Z"/><path class="cls-1" d="M215.09,6.63H13.66a7,7,0,0,0-7,7V94.14a7,7,0,0,0,7,7H215.09a7,7,0,0,0,7-7V13.67a7,7,0,0,0-7-7"/><path class="cls-2" d="M215.08.07H13.65A13.6,13.6,0,0,0,.07,13.67V94.14a13.59,13.59,0,0,0,13.58,13.58H215.08a13.6,13.6,0,0,0,13.59-13.58V13.67A13.61,13.61,0,0,0,215.08.07m7,94.07a7,7,0,0,1-7,7H13.66a7,7,0,0,1-7-7V13.67a7,7,0,0,1,7-7H215.09a7,7,0,0,1,7,7Z"/><path class="cls-2" d="M215.08.07H13.65A13.6,13.6,0,0,0,.07,13.67V94.14a13.59,13.59,0,0,0,13.58,13.58H215.08a13.6,13.6,0,0,0,13.59-13.58V13.67A13.61,13.61,0,0,0,215.08.07"/><path class="cls-3" d="M215.08.07H13.65A13.6,13.6,0,0,0,.07,13.67V94.14a13.59,13.59,0,0,0,13.58,13.58H215.08a13.6,13.6,0,0,0,13.59-13.58V13.67A13.61,13.61,0,0,0,215.08.07Z"/><path class="cls-4" d="M13.66,101A6.86,6.86,0,0,1,6.8,94.14V13.67a6.87,6.87,0,0,1,6.86-6.86H215.09a6.86,6.86,0,0,1,6.84,6.86V94.14a6.85,6.85,0,0,1-6.84,6.84H13.66"/><path class="cls-1" d="M48,68.07A14.19,14.19,0,0,1,33.83,53.9V29.08H44.34V53.9A3.66,3.66,0,1,0,48,50.25a3.53,3.53,0,0,0-1.56.36l-.27.14V39.87l.17,0A12.83,12.83,0,0,1,48,39.73a14.17,14.17,0,1,1,0,28.34M34.21,29.46V53.9A13.79,13.79,0,1,0,48,40.11a13.08,13.08,0,0,0-1.45.09v9.95A3.93,3.93,0,0,1,48,49.88a4,4,0,1,1-4,4V29.46Z"/><path class="cls-1" d="M98.82,68.07A12.79,12.79,0,0,1,86.05,55.29V39.73H96.57V55.14a2.26,2.26,0,0,0,4.52,0V39.73h10.53v.19s0,15.19,0,15.37A12.79,12.79,0,0,1,98.82,68.07m-12.39-28V55.29a12.4,12.4,0,1,0,24.79,0c0-.17,0-13.44,0-15.18h-9.77v15a2.64,2.64,0,0,1-5.28,0v-15Z"/><path class="cls-1" d="M112.73,68.07V53.9a14.19,14.19,0,0,1,14.18-14.17h.19V50.25h-.19a3.66,3.66,0,0,0-3.66,3.65V68.07H112.73"/><path class="cls-1" d="M145.33,68.07V53.9a3.64,3.64,0,1,0-3.63,3.65,3.51,3.51,0,0,0,1.54-.36l.27-.13V67.93l-.16,0a13.74,13.74,0,0,1-1.65.12A14.17,14.17,0,1,1,155.87,53.9V68.07H145.33"/><path class="cls-1" d="M158,78.72V69.41h13.94a2.91,2.91,0,0,0,2.91-2.89V53.9a3.66,3.66,0,1,0-4.52,3.54,4.13,4.13,0,0,0,.86.11,3.52,3.52,0,0,0,1.55-.36l.27-.14V67.93l-.16,0a14.3,14.3,0,0,1-1.66.11A14.21,14.21,0,0,1,157,53.9a14.18,14.18,0,0,1,28.36,0V64.54a14.19,14.19,0,0,1-14.18,14.18H158"/><path class="cls-1" d="M200.8,68.07a14.17,14.17,0,0,1-3.89-27.79,12.1,12.1,0,0,1,2.23-.43l.16,0a14.53,14.53,0,0,1,1.5-.1,14.17,14.17,0,0,1,3.9,27.79,14.68,14.68,0,0,1-2.24.43L202,68l-.26,0-.42,0c-.17,0-.34,0-.52,0M200,50.33a3.08,3.08,0,0,0-.76.28,3.62,3.62,0,0,0-2.11,3.29,3.54,3.54,0,0,0,.29,1.42,3.76,3.76,0,0,0,.78,1.16,2.65,2.65,0,0,0,.54.42,3.49,3.49,0,0,0,2,.65,3.25,3.25,0,0,0,.67-.07v0l.22,0a2.2,2.2,0,0,0,.66-.24,3.64,3.64,0,0,0,2.11-3.29,4.88,4.88,0,0,0-.07-.76,4.15,4.15,0,0,0-.22-.65,3.64,3.64,0,0,0-3.37-2.24,5,5,0,0,0-.77.08Z"/><path class="cls-1" d="M212.82,42.22a5.12,5.12,0,1,1,3.64-1.5,5.13,5.13,0,0,1-3.64,1.5m0-9.13A4.07,4.07,0,0,0,210,34.26a4,4,0,1,0,6.82,2.81,4,4,0,0,0-1.17-2.81A4,4,0,0,0,212.82,33.09Zm.81,6.68,0-.13a3.2,3.2,0,0,1-.12-1.06c0-.63,0-.77-.64-.77h-.9v2h-1.4V34.38h2.73A1.62,1.62,0,0,1,215,36a1.44,1.44,0,0,1-.58,1.19c.29.2.42.51.42,1.27s0,.78.11.82l.12,0v.32l-.18.13ZM213,36.6c.53,0,.63-.18.63-.5s-.18-.47-.56-.47h-1.12v1Z"/><path class="cls-5" d="M48,91.11A37.26,37.26,0,0,1,10.78,53.9V16.67H32V53.9a16,16,0,1,0,16-16c-.49,0-1,0-1.62.08l-.21,0V16.74h.18c.56,0,1.11-.06,1.65-.06a37.22,37.22,0,1,1,0,74.44M11.15,17.05V53.9A36.85,36.85,0,1,0,48,17.05c-.48,0-1,0-1.45.05V37.59c.52,0,1-.06,1.45-.06A16.36,16.36,0,1,1,31.64,53.9V17.05Z"/><path class="cls-6" d="M215.09,6.63H13.66a7,7,0,0,0-7,7V94.14a7,7,0,0,0,7,7H215.09a7,7,0,0,0,7-7V13.67a7,7,0,0,0-7-7"/><path class="cls-1" d="M48,67.88a14,14,0,0,1-14-14V29.27H44.16V53.9A3.84,3.84,0,1,0,48,50.07a3.79,3.79,0,0,0-1.64.37V40A12.66,12.66,0,0,1,48,39.92a14,14,0,0,1,0,28"/><path class="cls-1" d="M111.4,55.29a12.58,12.58,0,1,1-25.16,0V39.92H96.38V55.13a2.45,2.45,0,0,0,4.9,0V39.92h10.15s0,15.19,0,15.37"/><path class="cls-1" d="M126.91,50.06a3.84,3.84,0,0,0-3.85,3.84v14H112.92v-14a14,14,0,0,1,14-14V50.06"/><path class="cls-1" d="M155.68,67.88H145.52v-14a3.86,3.86,0,1,0-2.19,3.46v10.4a12.5,12.5,0,0,1-1.63.12,14,14,0,1,1,14-14v14"/><path class="cls-1" d="M185.16,63.25v1.29a14,14,0,0,1-14,14h-13V69.6h13.75A3.08,3.08,0,0,0,175,66.52V53.9a3.84,3.84,0,1,0-4.75,3.72,4.63,4.63,0,0,0,.91.12,3.69,3.69,0,0,0,1.63-.38v10.4a14.36,14.36,0,0,1-1.63.12,13.68,13.68,0,0,1-7.51-2.21,14,14,0,1,1,21.5-11.77v9.35"/><path class="cls-1" d="M214.8,53.9a14,14,0,0,0-14-14,12.59,12.59,0,0,0-1.5.1h-.13a12.88,12.88,0,0,0-2.21.43,14,14,0,0,0,3.84,27.42c.31,0,.62,0,.92-.06s.49,0,.72-.06a13.48,13.48,0,0,0,2.21-.42A14,14,0,0,0,214.8,53.9m-10.23-.79a4.15,4.15,0,0,1,.08.79,3.82,3.82,0,0,1-2.21,3.46,2.66,2.66,0,0,1-.75.26l0,0a4,4,0,0,1-.85.1,3.66,3.66,0,0,1-2.14-.68,2.76,2.76,0,0,1-.57-.45A3.89,3.89,0,0,1,197,53.9a3.83,3.83,0,0,1,2.21-3.46,3.11,3.11,0,0,1,.76-.27l0,0a4.89,4.89,0,0,1,.85-.08,3.81,3.81,0,0,1,3.54,2.34,3.18,3.18,0,0,1,.23.7"/><path class="cls-1" d="M214.93,39.45c-.24-.08-.24-.27-.24-1,0-.94-.2-1.09-.63-1.28a1.19,1.19,0,0,0,.79-1.18,1.43,1.43,0,0,0-1.59-1.43h-2.55v5h1v-2h1.08c.77,0,.83.28.83,1a3,3,0,0,0,.11,1h1.16v-.13m.84-5.32A4.11,4.11,0,0,1,217,37.07a4.18,4.18,0,1,1-1.22-2.94m2,2.94a5,5,0,0,0-1.45-3.49,4.89,4.89,0,0,0-3.5-1.44,4.95,4.95,0,1,0,5,4.93m-4-1c0,.5-.27.69-.81.69h-1.23V35.44h1.3c.63,0,.74.39.74.66"/><path class="cls-5" d="M48,16.86c-.55,0-1.09,0-1.64.06V37.79c.53,0,1.09-.08,1.64-.08A16.18,16.18,0,1,1,31.83,53.9v-37H11v37a37,37,0,1,0,37-37"/></g></g></svg>