<svg xmlns="http://www.w3.org/2000/svg" viewBox="0 0 215.5 94.55"><defs><style>.cls-1{fill:none;}.cls-2{fill:#fff;}</style></defs><g id="Layer_2" data-name="Layer 2"><g id="Layer_1-2" data-name="Layer 1"><path class="cls-1" d="M206.21,25.51A4.93,4.93,0,1,0,209.7,27,4.88,4.88,0,0,0,206.21,25.51Zm0,9.12a4.18,4.18,0,1,1,0-8.35,4.18,4.18,0,0,1,0,8.35Z"/><path class="cls-1" d="M208.08,31.84c0-.94-.21-1.09-.63-1.28a1.21,1.21,0,0,0,.78-1.19,1.43,1.43,0,0,0-1.59-1.43H204.1v5h1V31h1.09c.76,0,.82.29.82,1a3.21,3.21,0,0,0,.11,1h1.16v-.12C208.08,32.74,208.08,32.55,208.08,31.84Zm-1.72-1.68h-1.23V28.82h1.31c.62,0,.74.39.74.65C207.18,30,206.91,30.16,206.36,30.16Z"/><path class="cls-2" d="M206.21,26.28a4.18,4.18,0,1,0,4.17,4.17,4.18,4.18,0,0,0-4.17-4.17Zm2.1,6.67h-1.16a3.21,3.21,0,0,1-.11-1c0-.67-.06-1-.82-1h-1.09v2h-1v-5h2.54a1.43,1.43,0,0,1,1.59,1.43,1.21,1.21,0,0,1-.78,1.19c.42.19.63.34.63,1.28,0,.71,0,.9.23,1Z"/><path class="cls-2" d="M197.73,45.79a3.83,3.83,0,0,0-3.54-2.35,6.11,6.11,0,0,0-.86.08l0,0a2.87,2.87,0,0,0-.76.27,3.81,3.81,0,0,0-2.21,3.46,3.67,3.67,0,0,0,.31,1.48,4,4,0,0,0,.82,1.23,3.21,3.21,0,0,0,.58.45,3.7,3.7,0,0,0,2.14.67A4.19,4.19,0,0,0,195,51h0a2.68,2.68,0,0,0,.75-.27A3.81,3.81,0,0,0,198,47.28a4.07,4.07,0,0,0-.08-.79A3.35,3.35,0,0,0,197.73,45.79Z"/><path class="cls-2" d="M208.47,0H7A7,7,0,0,0,0,7V87.51a7,7,0,0,0,7,7H208.47a7,7,0,0,0,7-7V7A7,7,0,0,0,208.47,0ZM27.4,22.64H37.54V47.28a3.84,3.84,0,1,0,3.85-3.84,3.67,3.67,0,0,0-1.65.38V33.41a12.81,12.81,0,0,1,1.65-.12,14,14,0,1,1-14,14Zm14,61.66a37,37,0,0,1-37-37v-37H25.21V47.28A16.18,16.18,0,1,0,41.39,31.09c-.55,0-1.12,0-1.65.08V10.29c.55,0,1.1-.06,1.65-.06a37,37,0,0,1,0,74.07Zm63.4-35.64a12.59,12.59,0,1,1-25.17,0V33.29H89.77V48.51a2.45,2.45,0,0,0,4.89,0V33.29h10.15S104.79,48.48,104.79,48.66Zm15.5-5.22a3.83,3.83,0,0,0-3.84,3.84v14H106.3v-14a14,14,0,0,1,14-14Zm28.77,17.81H138.9v-14a3.86,3.86,0,1,0-2.19,3.45V61.14a14.55,14.55,0,0,1-1.63.11,14,14,0,1,1,14-14Zm29.48-4.63v1.3a14,14,0,0,1-14,14h-13V63H165.3a3.08,3.08,0,0,0,3.1-3.07V47.28A3.85,3.85,0,1,0,163.64,51a4.62,4.62,0,0,0,.91.11,3.76,3.76,0,0,0,1.64-.38v10.4a12.53,12.53,0,0,1-1.64.12A13.7,13.7,0,0,1,157,59a14,14,0,1,1,21.5-11.76ZM198,60.71a12.5,12.5,0,0,1-2.21.42,5.66,5.66,0,0,1-.72.07c-.3,0-.61,0-.91,0a14,14,0,0,1-3.85-27.42,12.86,12.86,0,0,1,2.21-.42l.13,0a15.11,15.11,0,0,1,1.51-.1A14,14,0,0,1,198,60.71ZM209.7,34a4.94,4.94,0,1,1-3.49-8.45A4.88,4.88,0,0,1,209.7,27a5,5,0,0,1,0,7Z"/><path class="cls-2" d="M206.44,28.82h-1.31v1.34h1.23c.55,0,.82-.18.82-.69C207.18,29.21,207.06,28.82,206.44,28.82Z"/></g></g></svg>