<svg xmlns="http://www.w3.org/2000/svg" viewBox="0 0 57.5 63.38"><defs><style>.a{fill:#fff;}</style></defs><path class="a" d="M335.7,263.59c.08.1.16,0,.24,0a.27.27,0,0,1,.24.15.24.24,0,0,1-.05.28.68.68,0,0,1-.46.23.32.32,0,0,1-.3-.13c-.08-.11-.1-.25-.21-.33s-.09.17-.12.26a.39.39,0,0,0,.19.48.36.36,0,0,0,.41,0l.91-.42a28.91,28.91,0,0,1,3.94-1.42c.59-.16,1.17-.35,1.75-.52a1.15,1.15,0,0,0,.57-.38,6.46,6.46,0,0,1,3.08-2c.4-.12.48-.1.21-.49a3.25,3.25,0,0,1-.45-1.18c-.07-.29-.12-.6-.19-.89s-.11-.42-.18-.63a.87.87,0,0,0-.64-.6l-.42-.09a.63.63,0,0,0-.65.26,1.82,1.82,0,0,1-3.12-.49,1.8,1.8,0,0,1,1.65-2.41,1.82,1.82,0,0,1,1.7,1.08.68.68,0,0,0,.67.48,1.91,1.91,0,0,1,1.65,1.19,4.23,4.23,0,0,1,.32,1.35,8.46,8.46,0,0,0,.22,1.24,1.44,1.44,0,0,0,.55.77.82.82,0,0,0,.79,0,.18.18,0,0,0,.09-.08l.11-.19a2.85,2.85,0,0,1,1.51-1.33,7.31,7.31,0,0,1,1.21-.36l.81-.18a4.91,4.91,0,0,0,.5-.17.83.83,0,0,0,.54-.68,3.11,3.11,0,0,0,0-.43v-1a5.65,5.65,0,0,1,.06-1.09.77.77,0,0,0-.22-.71,2.16,2.16,0,0,1,.07-2.94,2.1,2.1,0,0,1,3-.13,2.16,2.16,0,0,1-.61,3.62,3,3,0,0,1-.58.18.35.35,0,0,0-.31.32,1.52,1.52,0,0,0,0,.21c0,.44-.11.87-.1,1.31a3.63,3.63,0,0,1-.16,1,1.9,1.9,0,0,1-1.25,1.3,8.91,8.91,0,0,1-1.45.31,7.55,7.55,0,0,0-1.31.31,2,2,0,0,0-.64.36,1.43,1.43,0,0,0-.23.26.1.1,0,0,0,.06.17c.2,0,.4.07.6.08a6.41,6.41,0,0,1,4.2,2,2.49,2.49,0,0,0,1.45.89c.77.22,1.54.46,2.3.7a27.7,27.7,0,0,1,3.4,1.36c.4.2.81.38,1.21.61a9.47,9.47,0,0,1,2.55,2.08c.44.53.87,1.05,1.26,1.62a19.18,19.18,0,0,1,1.92,3.71,20.2,20.2,0,0,1,1.11,3.9,28,28,0,0,1,.35,2.9q.09,1.31.06,2.61c0,.7-.08,1.39-.14,2.09s-.12,1.15-.2,1.73a21.26,21.26,0,0,1-1.46,5.37,15.92,15.92,0,0,1-1.5,2.75,9,9,0,0,1-3.37,3,15.77,15.77,0,0,1-3.57,1.25c-.85.2-1.71.34-2.58.47-.6.09-1.21.15-1.81.22l-1.39.14-.13,0c-.47,0-.93.07-1.39.08-1.09,0-2.18.12-3.27.1-.82,0-1.63,0-2.44-.06H346c-1,0-1.94-.09-2.91-.17a40.64,40.64,0,0,1-4.24-.55,17.48,17.48,0,0,1-3.93-1.13,9.25,9.25,0,0,1-3.19-2.16,11.17,11.17,0,0,1-1.77-2.53,18,18,0,0,1-1.75-4.82c-.23-1.07-.38-2.14-.52-3.23a27.89,27.89,0,0,1-.14-4.66,22.14,22.14,0,0,1,1.19-6.49,19.5,19.5,0,0,1,2.3-4.64,2.33,2.33,0,0,0,.17-.26.14.14,0,0,0,0-.11.13.13,0,0,0-.12,0l-.37.11a4.56,4.56,0,0,1-1.6.22,2.08,2.08,0,0,1-1.28-.49,3.89,3.89,0,0,1-1.44-3,4.49,4.49,0,0,1,.77-2.76,5,5,0,0,1,2.41-1.87,5.76,5.76,0,0,1,2.39-.43h.22a.36.36,0,0,0,.38-.22c.24-.36.24-.35,0-.7a.89.89,0,0,0-.3-.25.3.3,0,0,1-.14-.37.41.41,0,0,1,.44-.28c.16,0,.3.12.29.28,0,.39.24.56.51.74s.21.09.35,0a6.71,6.71,0,0,1,1.25-.71.89.89,0,0,1,.29-.08s.1,0,.09.07.05.18.16.17a3.33,3.33,0,0,1,.78.08,3,3,0,0,1,1.52.8,1.84,1.84,0,0,1,.47.93.91.91,0,0,1,0,.17,3.2,3.2,0,0,1-1.43,2.48,2.36,2.36,0,0,1-.83.36A.57.57,0,0,0,335.7,263.59ZM348.59,267c-1.34-.06-2.79.09-4.25.08l-.21,0-2,.14-1.61.12-2.91.23a7.29,7.29,0,0,0-1.24.2,2.53,2.53,0,0,0-1.36.9,5.31,5.31,0,0,0-.52.81,19.52,19.52,0,0,0-1,2.45,19.07,19.07,0,0,0-1,4.41c-.11,1-.21,2-.25,3s-.12,2-.12,3,0,1.71.12,2.57a16.66,16.66,0,0,0,.5,2.79,11.4,11.4,0,0,0,.9,2.31c.06.11.13.22.2.33a1.79,1.79,0,0,0,.68.6,10.07,10.07,0,0,0,1.91.74,24.36,24.36,0,0,0,2.83.54c.64.08,1.29.17,1.94.24l1.91.21c.4.05.81,0,1.21.09.64.09,1.28.06,1.92.09.35,0,.69.06,1,.06,1.19,0,2.39,0,3.58-.06.66-.06,1.33,0,2-.09l2-.18c1.17-.13,2.34-.26,3.5-.46a17.75,17.75,0,0,0,3.77-1.05,2.2,2.2,0,0,0,1.31-1.31c.14-.36.25-.72.36-1.08a21.13,21.13,0,0,0,.72-3.05c.07-.5.13-1,.17-1.52a35.4,35.4,0,0,0,0-4.49c0-.37,0-.75,0-1.13,0-.16,0-.32,0-.47,0-.37-.1-.73-.12-1.09a18.85,18.85,0,0,0-.31-2.24,21.26,21.26,0,0,0-1.46-4.47,7.73,7.73,0,0,0-.71-1.25,2.78,2.78,0,0,0-1.72-1.18,8.4,8.4,0,0,0-1.59-.28c-.95-.05-1.91-.16-2.86-.22l-2.18-.12h-.22c-.95-.12-1.91-.05-2.87-.13C350,266.94,349.33,267,348.59,267ZM337.3,260.8a1.39,1.39,0,0,0-1.16-.86.79.79,0,0,0-.88.85,2.07,2.07,0,0,0,.11.55,1,1,0,0,0,.13.22.15.15,0,0,0,.26,0,2.52,2.52,0,0,1,.43-.49,1,1,0,0,1,1-.26S337.25,260.81,337.3,260.8Z" transform="translate(-319.12 -249.51)"/><path class="a" d="M352.81,310.13v1.7c0,.11,0,.23,0,.35a.63.63,0,0,1-.41.56,1.4,1.4,0,0,1-1.1,0,.64.64,0,0,1-.34-.38,1.55,1.55,0,0,1-.07-.52,3,3,0,0,0,0-.43.16.16,0,0,0-.15-.14.2.2,0,0,0-.18.11.5.5,0,0,0,0,.21c0,.1,0,.2,0,.3a.94.94,0,0,1-1,.88.93.93,0,0,1-.9-.94v-.22c0-.22-.08-.33-.2-.34s-.21.11-.22.37c0,.1,0,.2,0,.3a1.1,1.1,0,0,1,0,.26.7.7,0,0,1-.54.61,1.45,1.45,0,0,1-.9,0,.64.64,0,0,1-.45-.54,2.16,2.16,0,0,1,0-.35c0-1.16,0-2.33,0-3.49v0a1.5,1.5,0,0,1,1.4-1.56,2,2,0,0,1,1.7.49l.06.06c.13.1.19.1.31,0a1.5,1.5,0,0,0,.13-.11,2.11,2.11,0,0,1,1.81-.43,1.42,1.42,0,0,1,1.23,1.46v1.88Z" transform="translate(-319.12 -249.51)"/><path class="a" d="M329.17,306.82a3,3,0,0,1,0,5.94,2.91,2.91,0,0,1-3-3A2.88,2.88,0,0,1,329.17,306.82Zm.95,1.27a.21.21,0,0,0-.19.1.17.17,0,0,0,.05.19.28.28,0,0,0,.27.09.16.16,0,0,0,.13-.09.14.14,0,0,0,0-.16A.28.28,0,0,0,330.12,308.09Z" transform="translate(-319.12 -249.51)"/><path class="a" d="M342.45,312.79a3,3,0,0,1-2.94-3,2.94,2.94,0,0,1,3-2.91,3,3,0,1,1,0,5.94Zm1.1-4.22a.16.16,0,0,0,.18-.16.36.36,0,0,0-.39-.32.2.2,0,0,0-.14.32A.35.35,0,0,0,343.55,308.57Z" transform="translate(-319.12 -249.51)"/><path class="a" d="M323.11,312.88A4,4,0,0,1,322,305a2.88,2.88,0,0,1,1.17-.1,1,1,0,0,1,.35,1.85l-.44.19a4.45,4.45,0,0,0-.9.45,1.75,1.75,0,0,0-.7,2,1.67,1.67,0,0,0,1.22,1.2,2.93,2.93,0,0,0,1.25.06,3,3,0,0,1,.52,0,1,1,0,0,1,.94.91,1,1,0,0,1-.48.92,2.93,2.93,0,0,1-1.35.45Z" transform="translate(-319.12 -249.51)"/><path class="a" d="M357,310.77a3.4,3.4,0,0,0,.88-.1,3.54,3.54,0,0,1,.47-.07.75.75,0,0,1,.81.86,1,1,0,0,1-.26.58,1.74,1.74,0,0,1-.76.5,3.58,3.58,0,0,1-2.31.08,3,3,0,0,1-2.1-2.85,3,3,0,0,1,2.94-2.94,3.17,3.17,0,0,1,2.06.71,2.08,2.08,0,0,1,.78,1.81,1.61,1.61,0,0,1-.08.38.83.83,0,0,1-.92.69h-2.18l-.4,0s0,0-.05.06,0,.06,0,.07l.16.07A2.19,2.19,0,0,0,357,310.77Zm-.32-1.58a3.6,3.6,0,0,0,.49,0,.19.19,0,0,0,.14-.09.19.19,0,0,0-.05-.2.76.76,0,0,0-1,0l-.05.08a.15.15,0,0,0,.08.21Z" transform="translate(-319.12 -249.51)"/><path class="a" d="M336.83,312.88a4,4,0,0,1-1.22-7.86,2.8,2.8,0,0,1,1.08-.1,1,1,0,0,1,.37,1.86c-.13.07-.27.11-.4.17a5,5,0,0,0-.89.46,1.78,1.78,0,0,0,.05,3,2,2,0,0,0,1,.29,3.19,3.19,0,0,0,.69,0,3.13,3.13,0,0,1,.61,0,1,1,0,0,1,.65,1.64,1.61,1.61,0,0,1-.5.35A3,3,0,0,1,336.83,312.88Z" transform="translate(-319.12 -249.51)"/><path class="a" d="M363.87,309.73a3,3,0,1,1,3,3A3,3,0,0,1,363.87,309.73Zm3.76,0a.8.8,0,0,0-.81-.79.8.8,0,0,0-.76.84.79.79,0,1,0,1.57-.05Z" transform="translate(-319.12 -249.51)"/><path class="a" d="M370.71,311.15a11.73,11.73,0,0,1,.14-2.13,2.68,2.68,0,0,1,.31-.9,2.36,2.36,0,0,1,1.47-1.15,3.7,3.7,0,0,1,2.06,0,2.34,2.34,0,0,1,1.62,1.58,5.12,5.12,0,0,1,.24,1.45,10.55,10.55,0,0,0,.06,1.13,5,5,0,0,1-.08,1.09.6.6,0,0,1-.42.51,1,1,0,0,1-.42.11c-.67,0-1-.27-1-.85,0-.4,0-.81,0-1.22a3.31,3.31,0,0,0-.09-.77,1.4,1.4,0,0,0-.09-.29.87.87,0,0,0-.88-.59.92.92,0,0,0-.87.62,2,2,0,0,0-.14.72c0,.35,0,.7,0,1.05a4.53,4.53,0,0,1-.08.73.62.62,0,0,1-.5.54l-.25.05a.87.87,0,0,1-1.07-.81A8.42,8.42,0,0,1,370.71,311.15Z" transform="translate(-319.12 -249.51)"/><path class="a" d="M360.73,308.46v-3.1a3.23,3.23,0,0,1,0-.44.94.94,0,0,1,.84-.86,2.26,2.26,0,0,1,.52,0,1,1,0,0,1,.9.87c0,.11,0,.23,0,.35v6.36c0,.12,0,.24,0,.35a1,1,0,0,1-.73.84,1.46,1.46,0,0,1-.9,0,.9.9,0,0,1-.63-.81,3.23,3.23,0,0,1,0-.44v-3.09Z" transform="translate(-319.12 -249.51)"/><path class="a" d="M348.43,267.57h2.74c1,0,2,.12,3.05.09.74.13,1.49,0,2.22.15a2.55,2.55,0,0,0,.39,0,24.12,24.12,0,0,1,2.95.26l.43.09a2,2,0,0,1,1.31.93,13.81,13.81,0,0,1,.69,1.32,21,21,0,0,1,1.6,5.33c.12.76.2,1.52.27,2.29s.05,1.31.09,2,0,1.27,0,1.91c0,1-.08,2-.17,3s-.22,1.76-.37,2.63a11.37,11.37,0,0,1-.37,1.53,2.32,2.32,0,0,1-1.76,1.82,10.8,10.8,0,0,1-1.6.44c-1.13.25-2.27.48-3.42.66-.89.14-1.78.24-2.68.33-.61.06-1.22,0-1.83.14a3.81,3.81,0,0,1-.48,0c-2,0-4,0-6,0-.66,0-1.33-.09-2-.14-.39,0-.78-.05-1.17-.1-1.23-.13-2.45-.33-3.66-.57-.86-.17-1.71-.34-2.55-.57a7.39,7.39,0,0,1-1.2-.41,2,2,0,0,1-1-1,8.23,8.23,0,0,1-.48-1.53,28.57,28.57,0,0,1-.49-3.19c-.07-.62-.09-1.25-.14-1.87-.06-.81-.05-1.62-.06-2.44s.07-1.88.15-2.83c.06-.73.15-1.47.28-2.2a20.88,20.88,0,0,1,1.43-4.84c.22-.49.45-1,.71-1.45a2.19,2.19,0,0,1,1.64-1.17,12.05,12.05,0,0,1,1.68-.21c.72,0,1.42-.1,2.13-.14a.33.33,0,0,1,.14,0c1,0,1.91-.08,2.87-.12C345.32,267.57,346.87,267.57,348.43,267.57Zm11.24,2.26a.79.79,0,0,0,.15.43c.45.76.89,1.53,1.4,2.24.13.18.21.42.46.49.12-.27-.08-.47-.19-.67a15.53,15.53,0,0,0-1.35-2.06A1.31,1.31,0,0,0,359.67,269.83Zm-.53,9.61a3.23,3.23,0,0,0-.2-.94.9.9,0,0,0-.17-.26.25.25,0,0,0-.44.12,1.65,1.65,0,0,0,.1,1.07.62.62,0,0,0,.3.3C359,279.84,359.14,279.73,359.14,279.44Zm-18.47-.72a.84.84,0,0,0,.31.71c.16.13.36.09.4-.11a1.5,1.5,0,0,0-.22-1.2l0,0a.23.23,0,0,0-.37.06A1.11,1.11,0,0,0,340.67,278.72Z" transform="translate(-319.12 -249.51)"/></svg>