<svg xmlns="http://www.w3.org/2000/svg" viewBox="0 0 233.44 91.15"><defs><style>.cls-1{fill:none;}.cls-2{fill:#fff;}</style></defs><g id="Layer_2" data-name="Layer 2"><g id="Layer_1-2" data-name="Layer 1"><polygon class="cls-1" points="158.76 60.67 162.37 54.48 177.62 28.33 176.26 28.53 180.22 22.65 147.99 23.32 148.58 37.44 155.91 36.6 161.56 35.95 159.45 41.24 148.8 67.94 148.7 68.19 182.67 71.78 183.88 67.22 186.61 56.27 165.84 59.55 158.76 60.67"/><path class="cls-1" d="M42.46,55.67a10.72,10.72,0,0,1-1.7.13c-6.17,0-11.27-5-12.39-12.16A16.39,16.39,0,0,1,30.6,31.87,13.11,13.11,0,0,1,39.47,26a12.73,12.73,0,0,1,1.86-.14,16.38,16.38,0,0,1,5.13.88L43.41,12,42,12a28.43,28.43,0,0,0-4.42.33A30.51,30.51,0,0,0,18.08,24a31.25,31.25,0,0,0-5.64,24c1.65,10.47,8.77,22.69,23.43,22.69a23.86,23.86,0,0,0,2.61-.16l5.38-.61,5.53-.63.1-6.18.17-11.34A12.7,12.7,0,0,1,42.46,55.67Z"/><path class="cls-1" d="M127.46,22.91,115.67,24,105.53,57.65l-.83,2.76L101.84,60l-4.2-.54-2.86-.37-.1-2.88-1-28.69a36.73,36.73,0,0,0-11.47-4.7,25,25,0,0,0-5-.53c-7.09,0-11.7,3.46-13,9.75A13.55,13.55,0,0,0,67.45,44l1.21,1.39,1.93,2.21-1.9,2.24L55.48,65.29l-5.84,6.85,16.84-2.25,6.15-9.11,1.44-2.13,2.44.8,3.91,1.29,2.44.8-.1,2.56-.09,2.28L98.12,69l3.81.64-1.12,3.7v.06l9.57,2.75,4.7-20.24.53-2.28,2.32-.32,6.08-.84,3.16-.44.64,3.12,3,14.81,11.72-1.74-.14-.42Z"/><path class="cls-2" d="M227.22,34.86,222.77,37l7.76-23.38,1.73-5.22-5.44.78-25.47,3.63,1.54-2.27h-6.41l-13,0h-.06l-37.07.7h-.12l-7.18.39-2.57.14-.58-1.75-2.69.25-24.38,2.27-2.28.21L105.84,15l-1.54,5.11-.33-.22L101,18a49.1,49.1,0,0,0-16.36-6.87,37.1,37.1,0,0,0-7.38-.77c-8.62,0-15.61,3.19-20.07,8.89L53.85,3.26,53.33.77,50.8.57l-5-.41C44.5.05,43.22,0,42,0a40.39,40.39,0,0,0-6.32.48A42.57,42.57,0,0,0,8.5,16.71,43.14,43.14,0,0,0,.58,49.78C2.15,59.84,6.21,67.89,12.63,73.72A34,34,0,0,0,26.1,81.23l-.18.22L20.17,88.2,29,87,71.9,81.28l1.51-.2.86-1.26,1.61-2.39L86.49,79.2l-.71,2.35,3.31,1,26.68,7.66,3.44,1,.81-3.48,1.16-5,.17.81,3.19-.47,21.09-3.13,36.94,4,6.27.61,2.91.28.72-2.83,1.22-4.8,26.94,1.69,2.93.18.61-2.88L232,38.61l1.42-6.76ZM49.39,69.21l-5.53.63-5.38.61a23.86,23.86,0,0,1-2.61.16c-14.66,0-21.78-12.22-23.43-22.69a31.25,31.25,0,0,1,5.64-24A30.51,30.51,0,0,1,37.53,12.34,28.43,28.43,0,0,1,42,12l1.46,0,3.05,14.67a16.38,16.38,0,0,0-5.13-.88,12.73,12.73,0,0,0-1.86.14,13.11,13.11,0,0,0-8.87,5.9,16.39,16.39,0,0,0-2.23,11.77C29.49,50.8,34.59,55.8,40.76,55.8a10.72,10.72,0,0,0,1.7-.13,12.7,12.7,0,0,0,7.2-4L49.49,63Zm81.44.71-3-14.81L127.16,52l-3.16.44-6.08.84-2.32.32-.53,2.28-4.7,20.24-9.57-2.75V73.3l1.12-3.7L98.12,69,82.67,66.38l.09-2.28.1-2.56-2.44-.8-3.91-1.29-2.44-.8-1.44,2.13-6.15,9.11L49.64,72.14l5.84-6.85,13.21-15.5,1.9-2.24-1.93-2.21L67.45,44a13.55,13.55,0,0,1-3.2-11.87c1.29-6.29,5.9-9.75,13-9.75a25,25,0,0,1,5,.53,36.73,36.73,0,0,1,11.47,4.7l1,28.69.1,2.88,2.86.37,4.2.54,2.86.37.83-2.76L115.67,24l11.79-1.1,15,44.85.14.42Zm53-2.7-1.21,4.56-34-3.59.1-.25,10.65-26.7L161.57,36l-5.66.65-7.33.84L148,23.32l32.23-.67-4,5.88,1.36-.2L162.37,54.48l-3.61,6.19,7.08-1.12,20.77-3.28Zm33.23,0-27.76-1.74,3.42-40.68,26-3.7-4.42,13.29-11.43-3.81,1,11.12,7.51-2.06-.4,9.84-6.9-1.16.73,9.92,15.73-7.59Z"/><path class="cls-2" d="M79.65,31.55a4.28,4.28,0,0,0-4.45,3.31C74.55,38,76.46,41.8,82,42.58l.27-10.41a5.6,5.6,0,0,0-2.57-.62"/><path class="cls-2" d="M116.57,34.43l.05-.19h0l-.05.19"/><path class="cls-2" d="M120.61,33.89l-4.32,13,8.08-1-3.76-12"/></g></g></svg>