<svg xmlns="http://www.w3.org/2000/svg" xmlns:xlink="http://www.w3.org/1999/xlink" viewBox="0 0 238.63 122.93"><defs><style>.cls-1{fill:none;}.cls-2{clip-path:url(#clip-path);}.cls-3{fill:#231f20;}</style><clipPath id="clip-path" transform="translate(0 0)"><rect class="cls-1" width="238.63" height="122.92"/></clipPath></defs><g id="Layer_2" data-name="Layer 2"><g id="Layer_1-2" data-name="Layer 1"><g class="cls-2"><path class="cls-3" d="M37.29,66.5l0-6.52h-.19A11.55,11.55,0,0,1,31,65.75a23,23,0,0,1-9.12,1.77,21.21,21.21,0,0,1-9.62-2A19.67,19.67,0,0,1,5.48,60a24.1,24.1,0,0,1-4.1-8A33.26,33.26,0,0,1,0,42.29,34,34,0,0,1,1.34,32.6a22.78,22.78,0,0,1,4.05-8,19.44,19.44,0,0,1,6.82-5.4,21.36,21.36,0,0,1,9.53-2,22.81,22.81,0,0,1,4,.37,20.55,20.55,0,0,1,4.23,1.25,18,18,0,0,1,4,2.33,12.66,12.66,0,0,1,3.18,3.59h.17V0h7.85V66.5ZM9.18,49.39a17.75,17.75,0,0,0,2.67,5.73,13,13,0,0,0,4.6,4A13.74,13.74,0,0,0,23,60.61,13.26,13.26,0,0,0,29.75,59a13.69,13.69,0,0,0,4.51-4.14,17.56,17.56,0,0,0,2.53-5.82,28.39,28.39,0,0,0,.78-6.62,27.68,27.68,0,0,0-.83-6.84,16.9,16.9,0,0,0-2.62-5.82,13.24,13.24,0,0,0-4.65-4.05,14.3,14.3,0,0,0-6.9-1.54,13.36,13.36,0,0,0-6.72,1.58A12.69,12.69,0,0,0,11.43,30a18.45,18.45,0,0,0-2.39,6,32,32,0,0,0-.73,6.89,25,25,0,0,0,.87,6.56" transform="translate(0 0)"/><path class="cls-3" d="M50.6,32.56a22.32,22.32,0,0,1,4.42-8,20.87,20.87,0,0,1,7.27-5.36,24,24,0,0,1,9.95-2,23.85,23.85,0,0,1,10,2,20.9,20.9,0,0,1,7.23,5.36,22.32,22.32,0,0,1,4.42,8,32.4,32.4,0,0,1,1.47,9.91,32,32,0,0,1-1.47,9.87,22.35,22.35,0,0,1-4.42,8,20.28,20.28,0,0,1-7.23,5.31,24.34,24.34,0,0,1-10,1.91,24.49,24.49,0,0,1-9.95-1.91A20.26,20.26,0,0,1,55,60.3a22.35,22.35,0,0,1-4.42-8,32,32,0,0,1-1.47-9.87,32.4,32.4,0,0,1,1.47-9.91m8,17.67a16.31,16.31,0,0,0,3.17,5.68,13.71,13.71,0,0,0,4.74,3.49A14.14,14.14,0,0,0,78,59.4a13.71,13.71,0,0,0,4.74-3.49,16.31,16.31,0,0,0,3.17-5.68A24.44,24.44,0,0,0,87,42.45a24.38,24.38,0,0,0-1.15-7.77A16.83,16.83,0,0,0,82.72,29,13.6,13.6,0,0,0,78,25.41a14.24,14.24,0,0,0-11.49,0A13.6,13.6,0,0,0,61.75,29a16.83,16.83,0,0,0-3.17,5.73,24.1,24.1,0,0,0-1.15,7.77,24.16,24.16,0,0,0,1.15,7.78" transform="translate(0 0)"/><rect class="cls-3" x="99.5" width="7.85" height="66.5"/><rect class="cls-3" x="114.42" width="7.85" height="66.5"/><path class="cls-3" d="M134.9,55.73a8.33,8.33,0,0,0,2.9,2.88,12.86,12.86,0,0,0,4,1.54,22.92,22.92,0,0,0,4.65.46,29.28,29.28,0,0,0,3.86-.27,14.13,14.13,0,0,0,3.73-1,7,7,0,0,0,2.81-2.19,5.89,5.89,0,0,0,1.1-3.67,5.31,5.31,0,0,0-2.3-4.66,20,20,0,0,0-5.76-2.56q-3.45-1-7.51-1.76a38.86,38.86,0,0,1-7.5-2.24,15.41,15.41,0,0,1-5.76-4c-1.54-1.74-2.3-4.16-2.3-7.26a11.68,11.68,0,0,1,1.61-6.24,13.31,13.31,0,0,1,4.15-4.23A18.69,18.69,0,0,1,138.35,18a25.91,25.91,0,0,1,6.31-.79,37.66,37.66,0,0,1,7.47.69,17.37,17.37,0,0,1,6,2.42,12.51,12.51,0,0,1,4.2,4.65,17.68,17.68,0,0,1,1.84,7.3h-7.85a8,8,0,0,0-1.2-3.86A7.71,7.71,0,0,0,152.58,26a11.6,11.6,0,0,0-3.45-1.35,17.6,17.6,0,0,0-3.82-.42,22.63,22.63,0,0,0-3.55.28,11.77,11.77,0,0,0-3.27,1,6.58,6.58,0,0,0-2.4,1.86,4.78,4.78,0,0,0-.92,3,4.5,4.5,0,0,0,1.43,3.4A11.42,11.42,0,0,0,140.24,36a32.19,32.19,0,0,0,5,1.49c1.84.4,3.69.82,5.53,1.25a59.31,59.31,0,0,1,5.75,1.59,18.39,18.39,0,0,1,5,2.47,12,12,0,0,1,3.5,3.86,11.49,11.49,0,0,1,1.33,5.78,13.53,13.53,0,0,1-1.79,7.27,14.21,14.21,0,0,1-4.7,4.65,19.47,19.47,0,0,1-6.54,2.47,38,38,0,0,1-7.24.7,33,33,0,0,1-7.55-.84,18.45,18.45,0,0,1-6.36-2.74,14,14,0,0,1-4.43-5,17.61,17.61,0,0,1-1.84-7.59h7.85a8.92,8.92,0,0,0,1.2,4.42" transform="translate(0 0)"/><polygon class="cls-3" points="109.17 74.07 94.06 121.9 91.67 121.9 76.92 75.93 76.74 75.93 61.9 121.9 59.32 121.9 44.66 74.07 46.42 74.07 60.52 120.04 60.7 120.04 75.35 74.07 78.21 74.07 92.77 120.04 92.96 120.04 107.33 74.07 109.17 74.07"/><path class="cls-3" d="M112,88.53a24,24,0,0,1,4.09-8A20.6,20.6,0,0,1,122.73,75a19.36,19.36,0,0,1,9.2-2.1A19.13,19.13,0,0,1,141,75a20.6,20.6,0,0,1,6.67,5.54,24,24,0,0,1,4.1,8,33,33,0,0,1,0,18.89,24,24,0,0,1-4.1,8,20.23,20.23,0,0,1-6.67,5.5,19.8,19.8,0,0,1-9.2,2,19.6,19.6,0,0,1-9.11-2,20.23,20.23,0,0,1-6.67-5.5,24,24,0,0,1-4.09-8,33,33,0,0,1,0-18.89m1.72,18.21a22.5,22.5,0,0,0,3.72,7.4,18.59,18.59,0,0,0,6.12,5.12,19.25,19.25,0,0,0,16.72,0,18.46,18.46,0,0,0,6.11-5.12,22.12,22.12,0,0,0,3.72-7.4A30.59,30.59,0,0,0,151.32,98a30.22,30.22,0,0,0-1.24-8.66,22.12,22.12,0,0,0-3.72-7.4,19.09,19.09,0,0,0-6.11-5.17,18.9,18.9,0,0,0-16.72,0,19.24,19.24,0,0,0-6.12,5.17,22.5,22.5,0,0,0-3.72,7.4A30.22,30.22,0,0,0,112.45,98a30.59,30.59,0,0,0,1.24,8.75" transform="translate(0 0)"/><path class="cls-3" d="M160.45,121.9V74.06h1.86V85.88h.19a18.6,18.6,0,0,1,2-5.07,14.2,14.2,0,0,1,3.69-4.14,17.78,17.78,0,0,1,5.48-2.79,23,23,0,0,1,7.42-.94v1.87a17.5,17.5,0,0,0-8.43,1.35,15.85,15.85,0,0,0-5.85,4.46,18.82,18.82,0,0,0-3.41,6.56,26.65,26.65,0,0,0-1.11,7.64V121.9Z" transform="translate(0 0)"/><rect class="cls-3" x="183.86" y="55.4" width="1.87" height="66.49"/><path class="cls-3" d="M234.08,55.4v66.49h-1.86l0-13.4h-.19a20.34,20.34,0,0,1-6.77,10.43,19.2,19.2,0,0,1-27-3,23.57,23.57,0,0,1-4-7.87,35.81,35.81,0,0,1,0-19.55,25.28,25.28,0,0,1,3.87-8A18.74,18.74,0,0,1,204.41,75a17.79,17.79,0,0,1,8.66-2q7.56,0,12.44,4a19.45,19.45,0,0,1,6.54,10.52h.17v-32ZM227,80.81q-5.25-6-13.9-6a15.86,15.86,0,0,0-8.28,2.09,17.78,17.78,0,0,0-5.71,5.4,24.12,24.12,0,0,0-3.27,7.45,33.78,33.78,0,0,0-1.05,8.33,33.17,33.17,0,0,0,1.14,8.75,23.83,23.83,0,0,0,3.41,7.4,16.07,16.07,0,0,0,13.76,6.94,17.27,17.27,0,0,0,8.15-1.86,18.25,18.25,0,0,0,6-5,22.9,22.9,0,0,0,3.73-7.36,29.86,29.86,0,0,0,1.29-8.84q0-11.26-5.25-17.27" transform="translate(0 0)"/><path class="cls-3" d="M215.47,45.36c-2.52-1.54-2.69-4.75-4.14-7.34a18.16,18.16,0,0,1-5.75,1.84c-.88,1.71-.05,3.86-.72,5.57-.43.84-.87,1.7-1.72,1.89a21.51,21.51,0,0,1-7.42.11c-.22,0-.21-.43-.42-.44-1.48,0-3.18-.47-4.68.37-.85.41-1.91.61-2.77,1-1.06.41-1.91,0-3-.26a15.52,15.52,0,0,0-4.45-.28c-.21,0-.21-.22-.21-.43-2.76,0-5.31.78-8.06.32-.43-.23-.84-.66-.62-1.09a9.38,9.38,0,0,1,2.56-1.25c1.29-.84,1.94-2.33,3-3.38.86-.63,1.69.45,2.32.67,2.33.25,4.27-1.65,6.59-1.19.24-2.14.91-4.06.93-6.2a23.84,23.84,0,0,1,.28-3.85,9.35,9.35,0,0,1,3.68-5.3,13.43,13.43,0,0,1,4.26-1A34.92,34.92,0,0,1,202,25a14.61,14.61,0,0,0,4.25-.37c2.43-.49,4.72-1.12,7.1-1.55a23.25,23.25,0,0,1,2.09-2.82c.21-.21.64-.63.43-.63a4,4,0,0,1-2.3-2.6c-.4-1.3.68-2.78.06-4.08-1.28-2.68,1.12-4.26,2.63-5.75,1.29-1.05,3.2-1,4.27-2.5.44-.86-.82-1.09-1.24-1.73,0-.22.43-.22.64-.21a2,2,0,0,1,1.45,2.37c1.91-.19,3.83-1.23,5.94-.55.21.22.42.43.42.65,1.47.88,3.38.48,5.07,1.36a5.25,5.25,0,0,1,2.08,3c.21.22,1.27-.42,1.91-.19.42.44.84.23,1,.66a7.31,7.31,0,0,1,0,2.14c0,.22-.22.21-.43.21.21,0,.21,0,.42.22.22,0,.22,0,.43-.2.22,0,.42,0,.42.21,0,.86-1.07.85-1.49.63A7.94,7.94,0,0,1,235.88,12h-.63c.19.86-.45,1.28-.45,1.92,0,1.29.17,2.58-.48,3.64a4.77,4.77,0,0,0-.44,3.39c0,.22,1,.69.8,1.12s-1,.79-1.19,1.22c-.11.24.18.52.1.9s-.81.46-1,.65.23.34,0,.52a3.5,3.5,0,0,0-.73.76c-.17.26,0,.71,0,1.05a1.7,1.7,0,0,1-.86.41,19,19,0,0,1-5.92-.94,5.08,5.08,0,0,0-2.54,0c-.27.13-.54.42-.86.58l.61,2.2a22.88,22.88,0,0,0,3.9,9.06c.62,1.07,1.45,1.95,2.07,3a.54.54,0,0,1,.18.34l.16,1.63c1,0,2,.9,3.22,1.08.64.22,2.34,1,2.11,1.32s-2.55-.26-3.81-.27c-.22,0-.85,0-.64.21.2.43,1.63.37,1.68.66s-5.11,1-5.07-1.58l-1.47-.66c-2.55,0-3.78-2.63-5.67-4.15a12.66,12.66,0,0,1,1,4.09,1,1,0,0,1-.64.63l.83.86,1.26.67c1.27.44,2.75.25,3.81,1.13.21.21,0,.43-.22.42-1.07.19-2.32-.9-3.18,0,0,.22,1.09.35.84.66s-1.48-.24-2.12-.24c-1.27,0-2.34.39-3.61-.06a1.46,1.46,0,0,1-.61-1.73Zm-18.13-4c.11-.25-.74-1.43-1.18-1.32S194.82,42,195,42.16s2.23-.54,2.34-.79" transform="translate(0 0)"/></g></g></g></svg>