<svg xmlns="http://www.w3.org/2000/svg" viewBox="0 0 221.97 221.97"><defs><style>.cls-1{fill:#fff;}</style></defs><g id="Layer_2" data-name="Layer 2"><g id="Layer_1-2" data-name="Layer 1"><path class="cls-1" d="M0,0V222H222V0ZM111.32,204a92.8,92.8,0,1,1,92.8-92.8A92.8,92.8,0,0,1,111.32,204Z"/><path d="M131.08,191.35c0-.73-.44-1-1.31-1h-1.36v3.6H129v-1.54h.56l.92,1.54h.67l-1-1.58A.92.92,0,0,0,131.08,191.35Zm-2.08.53v-1.06h.71c.36,0,.78.05.78.49s-.39.57-.83.57Z"/><path class="cls-1" d="M130.49,191.31c0-.44-.42-.49-.78-.49H129v1.06h.66C130.1,191.88,130.49,191.83,130.49,191.31Z"/><path class="cls-1" d="M129.64,189.37a2.7,2.7,0,1,0,2.48,2.69A2.52,2.52,0,0,0,129.64,189.37Zm.84,4.55-.92-1.54H129v1.54h-.59v-3.6h1.36c.87,0,1.31.3,1.31,1a.92.92,0,0,1-.93,1l1,1.58Z"/><path class="cls-1" d="M129.64,188.8a3.26,3.26,0,1,0,3.18,3.26A3.16,3.16,0,0,0,129.64,188.8Zm0,5.95a2.7,2.7,0,1,1,2.48-2.69A2.5,2.5,0,0,1,129.64,194.75Z"/><path class="cls-1" d="M97,174.76s0,0,0,0h0c-1.51-.11-6.08-2.1-8.51-3.12l-1.65-.78a.89.89,0,0,1-.54-.83,1.08,1.08,0,0,1,.61-.78c1.07-.55,3.28-1.27,3-4.76a5.3,5.3,0,0,0-3.76-4.38,5.2,5.2,0,0,0-6,2.38,4.7,4.7,0,0,0-.17,3.43l.07.47a.72.72,0,0,1-.64.69.91.91,0,0,1-.71-.15c-.61-.16-8.21-4-8.82-4.75-1.69,2.11-2.73,3.38-4.68,5.94,1.25,1.08,3.94,2.08,6.66,3.63a1.08,1.08,0,0,1,.34,1.76c-.4.36-5.77,5.73-5.77,5.73a4.41,4.41,0,0,1-2,1.44c-1.07.21-1.36.87-1.25,1.41a1.63,1.63,0,0,0,.83.95c.45.36,3,2,5.52,3.47,1.5.73,2.07-.77,2.28-.87,4.86-6.7,5.36-6.76,5.36-6.76a.92.92,0,0,1,1.57.74c.06.69-2,8.4-2,8.4-.19.66-.53,1.71.68,2.18,1,.44,4.06,1.58,6,2.16,1.79.56,2.34-.6,1.71-1.9a10,10,0,0,1,0-3.82c.25-1.76.69-6.12.69-6.12.05-1.16.75-1.7,2.28-.93a71.47,71.47,0,0,0,7.14,2.67h0C95.94,179.08,96.38,177.51,97,174.76Z"/><path class="cls-1" d="M52.23,139.81v0h0c-.86-1.26-2.17-6.11-2.89-8.67l-.43-1.79a.89.89,0,0,1,.31-.94,1.05,1.05,0,0,1,1,0c1.09.5,3,1.8,5.52-.64a5.33,5.33,0,0,0,1-5.69,5.23,5.23,0,0,0-5.57-3.24,4.63,4.63,0,0,0-2.76,2l-.32.35a.71.71,0,0,1-.93-.07,1,1,0,0,1-.33-.66c-.26-.58-1.89-9.55-1.78-9.91-2.68,0-4.39-.08-7.58,0-.06,1.67.87,4.43,1.36,7.54a1.08,1.08,0,0,1-1.14,1.38c-.53-.1-8-1-8-1a4.44,4.44,0,0,1-2.39-.72c-.83-.72-1.52-.54-1.87-.11a1.64,1.64,0,0,0-.22,1.25c0,.58.29,3.6.76,6.52.36,1.64,1.89,1.15,2.09,1.26,8.22-.35,8.57,0,8.57,0a.93.93,0,0,1,.41,1.7c-.5.48-7.74,3.68-7.74,3.68-.63.26-1.65.64-1.26,1.9.27,1,1.31,4.19,2.09,6.11.68,1.76,1.92,1.47,2.53.16a9.61,9.61,0,0,1,3-2.36c1.52-.91,5.17-3.28,5.17-3.28.93-.68,1.78-.47,2.14,1.23.91,3.5,2.39,7.3,2.39,7.3h0C48.25,141.69,49.74,141.06,52.23,139.81Z"/><path class="cls-1" d="M65.14,168.1l4.71-5.92a67.36,67.36,0,0,1-5.38-5.87l-1.19-1.52a.9.9,0,0,1-.13-1,1.07,1.07,0,0,1,.89-.43c1.2,0,3.49.3,4.7-3a5.35,5.35,0,0,0-1.5-5.59,5.21,5.21,0,0,0-6.42-.48,4.75,4.75,0,0,0-1.62,3l-.13.46a.71.71,0,0,1-.87.34.93.93,0,0,1-.58-.44,94,94,0,0,1-5.38-7.84l-6.89,3.28c.66,1.52,2.25,3.31,4,5.9a1.08,1.08,0,0,1-.44,1.74c-.52.14-7.67,2.63-7.67,2.63a4.3,4.3,0,0,1-2.46.39c-1.06-.27-1.6.19-1.73.73a1.71,1.71,0,0,0,.33,1.22c.26.52,1.82,3.12,3.49,5.54,1,1.32,2.2.22,2.43.22,7.25-3.91,7.73-3.75,7.73-3.75a.94.94,0,0,1,1.1,1.36c-.25.65-5.39,6.7-5.39,6.7-.46.51-1.22,1.3-.33,2.26.69.83,3,3.21,4.51,4.6,1.36,1.28,2.36.48,2.35-1A10,10,0,0,1,55,168.26c1-1.48,3.25-5.21,3.25-5.21.55-1,1.41-1.21,2.46.16A28.45,28.45,0,0,0,65.14,168.1Z"/><path class="cls-1" d="M52.23,139.81c-2.49,1.25-4,1.88-6.88,3.3h0l6.89-3.28Z"/><path class="cls-1" d="M152.36,162.2l0,0c-.61.73-8.21,4.58-8.81,4.74a.94.94,0,0,1-.72.15.71.71,0,0,1-.63-.69l.07-.47a4.81,4.81,0,0,0-.17-3.43,5.22,5.22,0,0,0-6-2.38,5.3,5.3,0,0,0-3.76,4.38c-.32,3.5,1.88,4.21,2.95,4.76a1.05,1.05,0,0,1,.61.78.88.88,0,0,1-.53.83l-1.65.78c-2.44,1-6.89,3-8.42,3.19l1,4.74.6,2.68c.1,0,1.77-.28,7.16-2.66,1.54-.77,2.23-.23,2.28.93,0,0,.45,4.36.69,6.13a9.57,9.57,0,0,1,0,3.81c-.63,1.3-.07,2.46,1.71,1.9,2-.58,5.06-1.72,6-2.16,1.21-.47.86-1.52.67-2.18,0,0-2-7.71-2-8.4a.92.92,0,0,1,1.57-.74s.5.06,5.35,6.76c.21.1.79,1.61,2.28.87,2.55-1.45,5.07-3.11,5.53-3.46a1.65,1.65,0,0,0,.82-1c.12-.54-.17-1.2-1.25-1.41a4.55,4.55,0,0,1-2.05-1.43s-5.37-5.38-5.77-5.74a1.08,1.08,0,0,1,.35-1.76c2.72-1.55,5.4-2.55,6.65-3.63l-.6-.78-4.06-5.11Z"/><path class="cls-1" d="M175.31,120.51a1,1,0,0,1-.33.66.71.71,0,0,1-.93.07l-.32-.35a4.63,4.63,0,0,0-2.76-2,5.23,5.23,0,0,0-5.57,3.24,5.36,5.36,0,0,0,1,5.7c2.51,2.43,4.44,1.13,5.53.63a1.05,1.05,0,0,1,1,0,.92.92,0,0,1,.31.95l-.43,1.78c-.73,2.56-2,7.41-2.89,8.68h0v0c2.49,1.25,4,1.88,6.88,3.3h0a75.78,75.78,0,0,0,2.39-7.3c.35-1.7,1.21-1.91,2.14-1.22,0,0,3.65,2.36,5.17,3.27a9.76,9.76,0,0,1,3,2.36c.61,1.31,1.85,1.6,2.53-.16.78-1.92,1.82-5.07,2.09-6.11.39-1.26-.63-1.64-1.27-1.9,0,0-7.23-3.2-7.73-3.68a.93.93,0,0,1,.41-1.7s.35-.36,8.57,0c.2-.1,1.73.38,2.09-1.26.47-2.92.75-5.94.76-6.52a1.64,1.64,0,0,0-.22-1.25c-.35-.43-1-.61-1.87.11a4.44,4.44,0,0,1-2.39.72s-7.51.89-8,1a1.08,1.08,0,0,1-1.15-1.37c.5-3.12,1.54-6.39,1.36-7.78h-1.57c-2.22,0-3.72,0-6,.08A79.11,79.11,0,0,1,175.31,120.51Z"/><path class="cls-1" d="M164.58,147.71a.9.9,0,0,1-.58.44.71.71,0,0,1-.87-.34l-.13-.46a4.72,4.72,0,0,0-1.63-3,5.2,5.2,0,0,0-6.41.48,5.37,5.37,0,0,0-1.51,5.59c1.22,3.29,3.51,3,4.71,3a1.05,1.05,0,0,1,.89.44.89.89,0,0,1-.13,1l-1.19,1.52a65.59,65.59,0,0,1-5.37,5.86c1.49,1.86,2.49,3.08,4,5.12l.65.81a28,28,0,0,0,4.47-4.89c1.05-1.37,1.91-1.19,2.46-.16,0,0,2.27,3.73,3.25,5.21a10,10,0,0,1,1.66,3.43c0,1.45,1,2.25,2.35,1,1.53-1.39,3.82-3.77,4.51-4.59.89-1,.13-1.76-.33-2.27,0,0-5.14-6.05-5.39-6.7a.93.93,0,0,1,1.1-1.35s.48-.17,7.73,3.74c.23,0,1.4,1.1,2.43-.22,1.67-2.42,3.23-5,3.48-5.54a1.67,1.67,0,0,0,.34-1.22c-.13-.54-.67-1-1.73-.72a4.46,4.46,0,0,1-2.47-.4s-7.14-2.49-7.66-2.63a1.08,1.08,0,0,1-.44-1.74c1.78-2.59,3.37-4.38,4-5.9L170,139.87C169.77,140.41,165.06,147.3,164.58,147.71Z"/><path class="cls-1" d="M152.35,162.21l4.06,5.11c-1.56-2-2.56-3.26-4-5.12Z"/><path class="cls-1" d="M170,139.84v0l6.89,3.28h0C174,141.72,172.46,141.09,170,139.84Z"/><path class="cls-1" d="M126.33,179.55l-1.06-4.75c-.39.12-5,.47-7.89.59h-1.92a.87.87,0,0,1-.84-.52,1,1,0,0,1,.21-1c.73-1,2.41-2.57.62-5.58a5.26,5.26,0,0,0-9.64,2.47,4.69,4.69,0,0,0,1.33,3.16l.26.39a.74.74,0,0,1-.27.91.93.93,0,0,1-.71.17,91.77,91.77,0,0,1-9.42-.64l-1.76,7.49c1.59.43,4,.29,7.09.49a1.08,1.08,0,0,1,1.06,1.44c-.21.5-2.73,7.69-2.73,7.69a4.51,4.51,0,0,1-1.24,2.19c-.87.67-.85,1.39-.51,1.82a1.62,1.62,0,0,0,1.15.5c.56.12,3.54.51,6.46.7,1.67,0,1.54-1.6,1.69-1.78,1.49-8.17,1.91-8.44,1.91-8.44a.92.92,0,0,1,1.74,0c.35.6,1.83,8.43,1.83,8.43.11.68.25,1.78,1.54,1.67a63.38,63.38,0,0,0,6.37-.7c1.85-.27,1.85-1.56.72-2.45a9.79,9.79,0,0,1-1.62-3.45c-.53-1.7-2-5.82-2-5.82-.45-1.07-.06-1.86,1.66-1.84,6.07-.23,6.58-.45,6.58-.45h0Z"/><path class="cls-1" d="M97,174.76c-.59,2.75-1,4.32-1.73,7.5h0L97,174.77S97,174.77,97,174.76Z"/><polygon class="cls-1" points="126.92 182.23 126.93 182.23 126.33 179.55 126.92 182.23"/><path class="cls-1" d="M169.37,62.25s-.06-.5,5.2-6.88c0-.23,1.35-1.16.28-2.44-2-2.15-4.21-4.22-4.66-4.58a1.63,1.63,0,0,0-1.11-.58c-.55,0-1.12.46-1.06,1.57a4.57,4.57,0,0,1-.88,2.36s-3.87,6.56-4.11,7a1.07,1.07,0,0,1-1.78.09c-2.15-2.3-3.75-4.69-5.1-5.65l-.61.79-3.92,5.2h0l0,0c.86.42,6.4,6.94,6.7,7.5a.94.94,0,0,1,.31.66.72.72,0,0,1-.51.79l-.47,0a4.64,4.64,0,0,0-3.25,1,5.34,5.34,0,0,0-.84,6.44,5.25,5.25,0,0,0,5.12,2.62c3.43-.53,3.59-2.86,3.86-4a1,1,0,0,1,.6-.78.87.87,0,0,1,.93.32l1.14,1.43c1.57,2.14,4.57,6,5.1,7.47l4.34-2.18L177,79.25c0-.1-.7-1.67-4.28-6.38-1.11-1.32-.76-2.13.34-2.46,0,0,4.08-1.49,5.72-2.16a9.62,9.62,0,0,1,3.66-.94c1.4.3,2.38-.52,1.41-2.13-1-1.8-2.88-4.55-3.53-5.4-.75-1.07-1.67-.48-2.26-.13,0,0-6.92,3.85-7.6,4A.94.94,0,0,1,169.37,62.25Z"/><path class="cls-1" d="M127.38,39.78h0a74.22,74.22,0,0,0-7.6-.57c-1.71.06-2.12-.72-1.69-1.8,0,0,1.39-4.15,1.89-5.86a9.75,9.75,0,0,1,1.56-3.48c1.11-.91,1.08-2.2-.77-2.44-2-.3-5.31-.56-6.38-.57-1.3-.08-1.42,1-1.52,1.7,0,0-1.32,7.86-1.66,8.47a.92.92,0,0,1-1.73,0s-.43-.26-2.08-8.39c-.16-.18-.06-1.79-1.72-1.75-2.92.24-5.9.7-6.45.83a1.61,1.61,0,0,0-1.14.52c-.33.44-.34,1.16.55,1.81a4.51,4.51,0,0,1,1.27,2.16s2.67,7.15,2.89,7.64a1.08,1.08,0,0,1-1,1.46c-3.11.26-5-.14-7.11.32.38,1.64.61,2.88.84,4.05l.75,3.36c.36-.19,9.14-.59,9.76-.48a.92.92,0,0,1,.71.17.71.71,0,0,1,.29.89l-.25.4a4.63,4.63,0,0,0-1.26,3.19,5.26,5.26,0,0,0,9.68,2.27c1.73-3,0-4.62-.73-5.57a1.06,1.06,0,0,1-.23-1,.87.87,0,0,1,.83-.54h1.82c2.63.09,7.61.2,9,.73h0C126.47,44.57,126.71,43,127.38,39.78Z"/><path class="cls-1" d="M156.17,53.13a27.6,27.6,0,0,0-5.78-3.2c-1.57-.7-1.6-1.59-.75-2.37,0,0,3-3.13,4.22-4.45a9.69,9.69,0,0,1,2.9-2.45c1.39-.34,1.92-1.51.35-2.54s-4.54-2.83-5.5-3.31c-1.13-.64-1.71.3-2.09.87,0,0-4.57,6.5-5.14,6.9a.92.92,0,0,1-1.56-.75s-.28-.42,1.73-8.47c-.07-.23.71-1.64-.8-2.33-2.73-1.06-5.61-2-6.17-2.08a1.59,1.59,0,0,0-1.25,0c-.49.25-.81.9-.28,1.87a4.55,4.55,0,0,1,.22,2.51s-.67,7.61-.68,8.15a1.06,1.06,0,0,1-1.56.85c-2.92-1.12-5-2.25-6.64-2.52l-1.49,7.55a89.4,89.4,0,0,1,8.83,3.37.9.9,0,0,1,.57.46.72.72,0,0,1-.12.93l-.41.25a4.62,4.62,0,0,0-2.5,2.32,5.32,5.32,0,0,0,2,6.17A5.23,5.23,0,0,0,140,61c2.86-2,2-4.16,1.74-5.34a1,1,0,0,1,.2-1,.85.85,0,0,1,1-.12l1.75.8a65,65,0,0,1,6.93,3.85C153,57.26,154,56,155.54,54Z"/><path class="cls-1" d="M155.54,54c-1.58,2-2.51,3.29-3.93,5.2h0Z"/><path class="cls-1" d="M127.38,39.78c-.67,3.18-.91,4.79-1.51,7.54h0l1.49-7.55Z"/><path class="cls-1" d="M174.61,80.46l-4.34,2.21c.21.35,1.66,4.8,2.47,7.59l.46,1.89a.87.87,0,0,1-.29.94,1.05,1.05,0,0,1-1,0c-1.1-.48-3-1.74-5.51.74a5.35,5.35,0,0,0-.93,5.72,5.24,5.24,0,0,0,5.63,3.13,4.68,4.68,0,0,0,2.72-2.06l.31-.36a.72.72,0,0,1,.94,0,1,1,0,0,1,.34.65c.26.58,1.76,9.06,1.66,9.42h0v0c2.2,0,3.72-.08,6-.06l1.61,0c0-1.66-.68-4-1.24-7.07a1.07,1.07,0,0,1,1.12-1.39c.53.08,8.06.82,8.06.82a4.35,4.35,0,0,1,2.4.68c.85.69,1.53.5,1.87.06a1.67,1.67,0,0,0,.2-1.25c0-.58-.37-3.6-.89-6.5-.4-1.64-1.91-1.12-2.12-1.22-8.21.51-8.57.16-8.57.16a.93.93,0,0,1-.44-1.69c.49-.49,7.66-3.84,7.66-3.84.63-.27,1.64-.67,1.23-1.92-.29-1-1.39-4.16-2.21-6.07-.71-1.74-2-1.43-2.54-.11a9.52,9.52,0,0,1-2.92,2.43c-1.5.93-5.1,3.37-5.1,3.37-.92.71-1.78.51-2.17-1.18-1.69-5.89-2-6.34-2-6.34h0Z"/><path class="cls-1" d="M177.13,110.39v0c2.25-.07,3.75,0,6-.08C180.85,110.31,179.33,110.37,177.13,110.39Z"/><polygon class="cls-1" points="177.01 79.26 177 79.25 174.61 80.46 177.01 79.26"/><path class="cls-1" d="M66,53.52h0A75.56,75.56,0,0,0,60.64,59c-1,1.36-1.91,1.18-2.45.15,0,0-2.25-3.75-3.23-5.23a10,10,0,0,1-1.64-3.44c0-1.45-1-2.26-2.34-1-1.54,1.38-3.84,3.75-4.54,4.57-.89.95-.14,1.75.32,2.26,0,0,5.11,6.08,5.35,6.74A.93.93,0,0,1,51,64.43s-.47.17-7.7-3.79c-.23,0-1.39-1.1-2.43.21-1.69,2.41-3.26,5-3.52,5.52A1.67,1.67,0,0,0,37,67.59c.13.54.67,1,1.73.74a4.35,4.35,0,0,1,2.46.4s7.13,2.53,7.65,2.68a1.08,1.08,0,0,1,.43,1.74c-1.8,2.58-3.8,4.64-4.47,6.16,2.85,1.47,4.33,2.17,6.75,3.34.24-.93,5.47-7.7,5.95-8.11a1,1,0,0,1,.58-.45.72.72,0,0,1,.87.36l.13.45a4.71,4.71,0,0,0,1.61,3,5.19,5.19,0,0,0,6.41-.44,5.32,5.32,0,0,0,1.54-5.58c-1.2-3.3-3.49-3-4.69-3a1,1,0,0,1-.88-.44.87.87,0,0,1,.13-1L64.37,66c1.76-2,5-5.76,6.36-6.51h0l0,0C69,57.31,67.94,56.08,66,53.52Z"/><path class="cls-1" d="M27.08,103.69a4.35,4.35,0,0,1,2.39-.72s7.51-.84,8-.94a1.07,1.07,0,0,1,1.14,1.38c-.51,3.11-1.19,5.42-1.14,7.08,3.23,0,4.84,0,7.62,0a95.23,95.23,0,0,1,1.53-9.44,1,1,0,0,1,.33-.66.72.72,0,0,1,.94-.06l.31.35a4.65,4.65,0,0,0,2.75,2,5.25,5.25,0,0,0,5.59-3.21,5.36,5.36,0,0,0-1-5.7c-2.49-2.45-4.42-1.17-5.52-.67a1,1,0,0,1-1,0,.87.87,0,0,1-.31-.94l.43-1.89a67.51,67.51,0,0,1,2.37-7.63l-6.77-3.31a28.52,28.52,0,0,0-2,6.35c-.37,1.7-1.22,1.9-2.15,1.21,0,0-3.64-2.39-5.15-3.3a9.6,9.6,0,0,1-3-2.38c-.6-1.31-1.84-1.6-2.53.15-.79,1.92-1.85,5.06-2.13,6.1-.39,1.25.63,1.64,1.26,1.9,0,0,7.22,3.24,7.72,3.72a.94.94,0,0,1-.42,1.7s-.36.36-8.57,0c-.21.1-1.73-.39-2.1,1.25-.49,2.91-.79,5.93-.8,6.51a1.64,1.64,0,0,0,.22,1.25C25.55,104.21,26.24,104.4,27.08,103.69Z"/><path class="cls-1" d="M95.5,43.88l-.91-4.07s-.56,0-6.14,2.44c-1.54.77-2.23.22-2.28-.94,0,0-.41-4.36-.65-6.12a9.77,9.77,0,0,1,0-3.82c.64-1.3.09-2.46-1.7-1.91-2,.57-5.06,1.69-6,2.13-1.22.46-.88,1.51-.69,2.17,0,0,2,7.72,1.93,8.42a.93.93,0,0,1-1.58.73s-.5-.07-5.31-6.79c-.21-.1-.78-1.61-2.28-.88-2.56,1.43-5.09,3.08-5.54,3.43a1.67,1.67,0,0,0-.83.95c-.12.54.17,1.2,1.24,1.42a4.45,4.45,0,0,1,2,1.44s5.34,5.41,5.74,5.77A1.08,1.08,0,0,1,72.15,50c-2.73,1.53-4.94,2.43-6.19,3.51l4.77,6A94.39,94.39,0,0,1,79,54.86a.94.94,0,0,1,.72-.14.72.72,0,0,1,.63.69l-.08.47a4.77,4.77,0,0,0,.15,3.43,5.22,5.22,0,0,0,6,2.41,5.28,5.28,0,0,0,3.78-4.35c.34-3.5-1.86-4.23-2.92-4.78a1.07,1.07,0,0,1-.61-.78.89.89,0,0,1,.54-.83l1.73-.84c2.65-1.14,6.84-2.79,7.38-2.89h0C95.93,46,95.71,45,95.5,43.88Z"/><path class="cls-1" d="M96.25,47.25h0l-.75-3.36C95.71,45,95.93,46,96.25,47.25Z"/><path class="cls-1" d="M66,53.52c2,2.56,3.06,3.79,4.75,6l0,0-4.77-6Z"/><polygon class="cls-1" points="72.76 101.19 72.76 93.45 59.42 93.45 59.42 128.6 72.76 128.6 72.76 120.86 65.51 120.86 65.51 114.8 72.38 114.8 72.38 107.06 65.51 107.06 65.51 101.19 72.76 101.19"/><path class="cls-1" d="M96.13,111c0-9.88-5.38-17.57-11.91-17.57H75.58V128.6h8.64C90.72,128.6,96.13,120.91,96.13,111Zm-14.45,9.84V101.19h1.43c3.91,0,6.68,3.54,6.68,9.83,0,6.86-3.11,9.84-6.75,9.84Z"/><path class="cls-1" d="M97.91,93.45v19.76c0,4.53.12,9,2.45,12.4a9.66,9.66,0,0,0,15.54,0c2.33-3.4,2.46-7.87,2.46-12.4V93.45h-6.09V112c0,4.57-.22,9.56-4.14,9.56s-4.13-5-4.13-9.56V93.45Z"/><path class="cls-1" d="M132.69,101.37c2.08,0,4.1,1.35,5.34,3.87v-11a10.46,10.46,0,0,0-5.56-1.77c-3.29,0-6.62,2.15-8.92,5.69a24,24,0,0,0-3.45,12.87c0,5.22,1.18,9.79,3.76,13.29,2.43,3.31,5.53,5.17,8.8,5.17,1.89,0,3.35-.7,5.37-1.63v-11c-1.27,2.29-3.26,3.73-5.25,3.73-3.79,0-6.34-4-6.34-9.55S129,101.37,132.69,101.37Z"/><path class="cls-1" d="M146.83,122.49h8.39l1.53,6.11h6.49l-8.83-35.15h-6.65l-9,35.15h6.46Zm4.2-18.18h.06l2.49,11.19h-5.07Z"/></g></g></svg>