<svg xmlns="http://www.w3.org/2000/svg" viewBox="0 0 221.97 221.97"><defs><style>.cls-1,.cls-7{fill:#ed1c24;}.cls-2{fill:#fff;}.cls-3,.cls-6,.cls-8{fill:none;}.cls-3{stroke:#fff;stroke-linejoin:round;stroke-width:1.13px;}.cls-4{fill:#231f20;}.cls-4,.cls-5,.cls-6,.cls-7,.cls-8{fill-rule:evenodd;}.cls-5{fill:#faa61a;}.cls-6{stroke:#faa61a;}.cls-6,.cls-8{stroke-miterlimit:3.86;stroke-width:1.74px;}.cls-8{stroke:#ed1c24;}</style></defs><g id="Layer_2" data-name="Layer 2"><g id="Layer_1-2" data-name="Layer 1"><polygon class="cls-1" points="0 0 221.97 0 221.97 221.97 0 221.97 0 0 0 0"/><circle class="cls-2" cx="111.32" cy="111.22" r="92.8"/><circle class="cls-3" cx="111.32" cy="111.22" r="92.8"/><path class="cls-4" d="M129,192.38h.56l.92,1.54h.67l-1-1.58a.92.92,0,0,0,.93-1c0-.73-.44-1-1.31-1h-1.36v3.6H129Zm0-.5v-1.06h.71c.36,0,.78.05.78.49s-.39.57-.83.57Zm3.82.18a3.19,3.19,0,1,0-3.18,3.26A3.16,3.16,0,0,0,132.82,192.06Zm-.7,0a2.49,2.49,0,1,1-2.48-2.69A2.52,2.52,0,0,1,132.12,192.06Z"/><path class="cls-5" d="M79.39,167.08a.72.72,0,0,0,.64-.69l-.07-.47a4.7,4.7,0,0,1,.17-3.43,5.2,5.2,0,0,1,6-2.38,5.3,5.3,0,0,1,3.76,4.38c.32,3.49-1.89,4.21-3,4.76a1.08,1.08,0,0,0-.61.78.89.89,0,0,0,.54.83l1.65.78c2.43,1,7,3,8.51,3.12l-1.76,7.5a71.47,71.47,0,0,1-7.14-2.67c-1.53-.77-2.23-.23-2.28.93,0,0-.44,4.36-.69,6.12a10,10,0,0,0,0,3.82c.63,1.3.08,2.46-1.71,1.9-2-.58-5.05-1.72-6-2.16-1.21-.47-.87-1.52-.68-2.18,0,0,2-7.71,2-8.4a.92.92,0,0,0-1.57-.74s-.5.06-5.36,6.76c-.21.1-.78,1.6-2.28.87-2.55-1.45-5.07-3.11-5.52-3.47a1.63,1.63,0,0,1-.83-.95c-.11-.54.18-1.2,1.25-1.41a4.41,4.41,0,0,0,2-1.44s5.37-5.37,5.77-5.73a1.08,1.08,0,0,0-.34-1.76c-2.72-1.55-5.41-2.55-6.66-3.63,1.95-2.56,3-3.83,4.68-5.94.61.74,8.21,4.59,8.82,4.75A.91.91,0,0,0,79.39,167.08Z"/><path class="cls-6" d="M79.39,167.08a.72.72,0,0,0,.64-.69l-.07-.47a4.7,4.7,0,0,1,.17-3.43,5.2,5.2,0,0,1,6-2.38,5.3,5.3,0,0,1,3.76,4.38c.32,3.49-1.89,4.21-3,4.76a1.08,1.08,0,0,0-.61.78.89.89,0,0,0,.54.83l1.65.78c2.43,1,7,3,8.51,3.12l-1.76,7.5a71.47,71.47,0,0,1-7.14-2.67c-1.53-.77-2.23-.23-2.28.93,0,0-.44,4.36-.69,6.12a10,10,0,0,0,0,3.82c.63,1.3.08,2.46-1.71,1.9-2-.58-5.05-1.72-6-2.16-1.21-.47-.87-1.52-.68-2.18,0,0,2-7.71,2-8.4a.92.92,0,0,0-1.57-.74s-.5.06-5.36,6.76c-.21.1-.78,1.6-2.28.87-2.55-1.45-5.07-3.11-5.52-3.47a1.63,1.63,0,0,1-.83-.95c-.11-.54.18-1.2,1.25-1.41a4.41,4.41,0,0,0,2-1.44s5.37-5.37,5.77-5.73a1.08,1.08,0,0,0-.34-1.76c-2.72-1.55-5.41-2.55-6.66-3.63,1.95-2.56,3-3.83,4.68-5.94.61.74,8.21,4.59,8.82,4.75A.91.91,0,0,0,79.39,167.08Z"/><path class="cls-5" d="M47.22,121.14a.71.71,0,0,0,.93.07l.32-.35a4.63,4.63,0,0,1,2.76-2,5.23,5.23,0,0,1,5.57,3.24,5.33,5.33,0,0,1-1,5.69c-2.5,2.44-4.43,1.14-5.52.64a1.05,1.05,0,0,0-1,0,.89.89,0,0,0-.31.94l.43,1.79c.73,2.56,2,7.41,2.89,8.67l-6.9,3.29s-1.48-3.8-2.39-7.3c-.36-1.7-1.21-1.91-2.14-1.23,0,0-3.65,2.37-5.17,3.28a9.61,9.61,0,0,0-3,2.36c-.61,1.31-1.85,1.6-2.53-.16-.78-1.92-1.82-5.07-2.09-6.11-.39-1.26.63-1.64,1.26-1.9,0,0,7.24-3.2,7.74-3.68a.93.93,0,0,0-.41-1.7s-.35-.36-8.57,0c-.2-.11-1.73.38-2.09-1.26-.47-2.92-.75-5.94-.76-6.52a1.64,1.64,0,0,1,.22-1.25c.35-.43,1-.61,1.87.11a4.44,4.44,0,0,0,2.39.72s7.51.89,8,1a1.08,1.08,0,0,0,1.14-1.38c-.49-3.11-1.42-5.87-1.36-7.54,3.19-.05,4.9,0,7.58,0-.11.36,1.52,9.33,1.78,9.91A1,1,0,0,0,47.22,121.14Z"/><path class="cls-6" d="M47.22,121.14a.71.71,0,0,0,.93.07l.32-.35a4.63,4.63,0,0,1,2.76-2,5.23,5.23,0,0,1,5.57,3.24,5.33,5.33,0,0,1-1,5.69c-2.5,2.44-4.43,1.14-5.52.64a1.05,1.05,0,0,0-1,0,.89.89,0,0,0-.31.94l.43,1.79c.73,2.56,2,7.41,2.89,8.67l-6.9,3.29s-1.48-3.8-2.39-7.3c-.36-1.7-1.21-1.91-2.14-1.23,0,0-3.65,2.37-5.17,3.28a9.61,9.61,0,0,0-3,2.36c-.61,1.31-1.85,1.6-2.53-.16-.78-1.92-1.82-5.07-2.09-6.11-.39-1.26.63-1.64,1.26-1.9,0,0,7.24-3.2,7.74-3.68a.93.93,0,0,0-.41-1.7s-.35-.36-8.57,0c-.2-.11-1.73.38-2.09-1.26-.47-2.92-.75-5.94-.76-6.52a1.64,1.64,0,0,1,.22-1.25c.35-.43,1-.61,1.87.11a4.44,4.44,0,0,0,2.39.72s7.51.89,8,1a1.08,1.08,0,0,0,1.14-1.38c-.49-3.11-1.42-5.87-1.36-7.54,3.19-.05,4.9,0,7.58,0-.11.36,1.52,9.33,1.78,9.91A1,1,0,0,0,47.22,121.14Z"/><path class="cls-7" d="M58.2,148.12a.71.71,0,0,0,.87-.34l.13-.46a4.75,4.75,0,0,1,1.62-3,5.21,5.21,0,0,1,6.42.48,5.35,5.35,0,0,1,1.5,5.59c-1.21,3.29-3.5,3-4.7,3a1.07,1.07,0,0,0-.89.43.9.9,0,0,0,.13,1l1.19,1.52a67.36,67.36,0,0,0,5.38,5.87l-4.71,5.92a28.45,28.45,0,0,1-4.47-4.89c-1.05-1.37-1.91-1.19-2.46-.16,0,0-2.27,3.73-3.25,5.21a10,10,0,0,0-1.66,3.43c0,1.45-1,2.25-2.35,1a63.79,63.79,0,0,1-4.51-4.59c-.89-.95-.13-1.75.33-2.26,0,0,5.14-6.05,5.39-6.7a.94.94,0,0,0-1.1-1.36s-.48-.16-7.73,3.75c-.23,0-1.4,1.1-2.43-.22-1.67-2.42-3.23-5-3.49-5.54a1.71,1.71,0,0,1-.33-1.22c.13-.54.67-1,1.73-.73a4.3,4.3,0,0,0,2.46-.39s7.15-2.49,7.67-2.63a1.08,1.08,0,0,0,.44-1.74c-1.78-2.59-3.38-4.38-4-5.91,2.9-1.42,4.39-2.05,6.88-3.3a92.9,92.9,0,0,0,5.39,7.87A.93.93,0,0,0,58.2,148.12Z"/><path class="cls-8" d="M58.2,148.12a.71.71,0,0,0,.87-.34l.13-.46a4.75,4.75,0,0,1,1.62-3,5.21,5.21,0,0,1,6.42.48,5.35,5.35,0,0,1,1.5,5.59c-1.21,3.29-3.5,3-4.7,3a1.07,1.07,0,0,0-.89.43.9.9,0,0,0,.13,1l1.19,1.52a67.36,67.36,0,0,0,5.38,5.87l-4.71,5.92a28.45,28.45,0,0,1-4.47-4.89c-1.05-1.37-1.91-1.19-2.46-.16,0,0-2.27,3.73-3.25,5.21a10,10,0,0,0-1.66,3.43c0,1.45-1,2.25-2.35,1a63.79,63.79,0,0,1-4.51-4.59c-.89-.95-.13-1.75.33-2.26,0,0,5.14-6.05,5.39-6.7a.94.94,0,0,0-1.1-1.36s-.48-.16-7.73,3.75c-.23,0-1.4,1.1-2.43-.22-1.67-2.42-3.23-5-3.49-5.54a1.71,1.71,0,0,1-.33-1.22c.13-.54.67-1,1.73-.73a4.3,4.3,0,0,0,2.46-.39s7.15-2.49,7.67-2.63a1.08,1.08,0,0,0,.44-1.74c-1.78-2.59-3.38-4.38-4-5.91,2.9-1.42,4.39-2.05,6.88-3.3a92.9,92.9,0,0,0,5.39,7.87A.93.93,0,0,0,58.2,148.12Z"/><path class="cls-5" d="M142.8,167.06a.71.71,0,0,1-.63-.69l.07-.47a4.81,4.81,0,0,0-.17-3.43,5.22,5.22,0,0,0-6-2.38,5.3,5.3,0,0,0-3.76,4.38c-.32,3.5,1.88,4.21,2.95,4.76a1.05,1.05,0,0,1,.61.78.88.88,0,0,1-.53.83l-1.65.78c-2.44,1-6.89,3-8.42,3.19l1.63,7.42s1.61-.21,7.17-2.66c1.54-.77,2.23-.23,2.28.93,0,0,.45,4.36.69,6.13a9.57,9.57,0,0,1,0,3.81c-.63,1.3-.07,2.46,1.71,1.9,2-.58,5.06-1.72,6-2.16,1.21-.47.86-1.52.67-2.18,0,0-2-7.71-2-8.4a.92.92,0,0,1,1.57-.74s.5.06,5.35,6.76c.21.1.79,1.61,2.28.87,2.55-1.45,5.07-3.11,5.53-3.46a1.65,1.65,0,0,0,.82-1c.12-.54-.17-1.2-1.25-1.41a4.55,4.55,0,0,1-2.05-1.43s-5.37-5.38-5.77-5.74a1.08,1.08,0,0,1,.35-1.76c2.72-1.55,5.4-2.55,6.65-3.63-1.95-2.56-3-3.83-4.68-5.93-.61.73-8.21,4.58-8.81,4.74A.94.94,0,0,1,142.8,167.06Z"/><path class="cls-6" d="M142.8,167.06a.71.71,0,0,1-.63-.69l.07-.47a4.81,4.81,0,0,0-.17-3.43,5.22,5.22,0,0,0-6-2.38,5.3,5.3,0,0,0-3.76,4.38c-.32,3.5,1.88,4.21,2.95,4.76a1.05,1.05,0,0,1,.61.78.88.88,0,0,1-.53.83l-1.65.78c-2.44,1-6.89,3-8.42,3.19l1.63,7.42s1.61-.21,7.17-2.66c1.54-.77,2.23-.23,2.28.93,0,0,.45,4.36.69,6.13a9.57,9.57,0,0,1,0,3.81c-.63,1.3-.07,2.46,1.71,1.9,2-.58,5.06-1.72,6-2.16,1.21-.47.86-1.52.67-2.18,0,0-2-7.71-2-8.4a.92.92,0,0,1,1.57-.74s.5.06,5.35,6.76c.21.1.79,1.61,2.28.87,2.55-1.45,5.07-3.11,5.53-3.46a1.65,1.65,0,0,0,.82-1c.12-.54-.17-1.2-1.25-1.41a4.55,4.55,0,0,1-2.05-1.43s-5.37-5.38-5.77-5.74a1.08,1.08,0,0,1,.35-1.76c2.72-1.55,5.4-2.55,6.65-3.63-1.95-2.56-3-3.83-4.68-5.93-.61.73-8.21,4.58-8.81,4.74A.94.94,0,0,1,142.8,167.06Z"/><path class="cls-5" d="M175,121.17a.71.71,0,0,1-.93.07l-.32-.35a4.63,4.63,0,0,0-2.76-2,5.23,5.23,0,0,0-5.57,3.24,5.36,5.36,0,0,0,1,5.7c2.51,2.43,4.44,1.13,5.53.63a1.05,1.05,0,0,1,1,0,.92.92,0,0,1,.31.95l-.43,1.78c-.73,2.56-2,7.41-2.89,8.68l6.9,3.28a75.78,75.78,0,0,0,2.39-7.3c.35-1.7,1.21-1.91,2.14-1.22,0,0,3.65,2.36,5.17,3.27a9.61,9.61,0,0,1,3,2.36c.61,1.31,1.85,1.6,2.53-.16.78-1.92,1.82-5.07,2.09-6.11.39-1.26-.63-1.64-1.27-1.9,0,0-7.23-3.2-7.73-3.68a.93.93,0,0,1,.41-1.7s.35-.36,8.57,0c.2-.1,1.73.38,2.09-1.26.47-2.92.75-5.94.76-6.52a1.64,1.64,0,0,0-.22-1.25c-.35-.42-1-.61-1.87.11a4.44,4.44,0,0,1-2.39.72s-7.51.89-8,1a1.08,1.08,0,0,1-1.15-1.37c.5-3.12,1.54-6.39,1.36-7.78-3.19,0-4.85,0-7.53,0a78.78,78.78,0,0,1-1.82,10.12A1,1,0,0,1,175,121.17Z"/><path class="cls-6" d="M175,121.17a.71.71,0,0,1-.93.07l-.32-.35a4.63,4.63,0,0,0-2.76-2,5.23,5.23,0,0,0-5.57,3.24,5.36,5.36,0,0,0,1,5.7c2.51,2.43,4.44,1.13,5.53.63a1.05,1.05,0,0,1,1,0,.92.92,0,0,1,.31.95l-.43,1.78c-.73,2.56-2,7.41-2.89,8.68l6.9,3.28a75.78,75.78,0,0,0,2.39-7.3c.35-1.7,1.21-1.91,2.14-1.22,0,0,3.65,2.36,5.17,3.27a9.61,9.61,0,0,1,3,2.36c.61,1.31,1.85,1.6,2.53-.16.78-1.92,1.82-5.07,2.09-6.11.39-1.26-.63-1.64-1.27-1.9,0,0-7.23-3.2-7.73-3.68a.93.93,0,0,1,.41-1.7s.35-.36,8.57,0c.2-.1,1.73.38,2.09-1.26.47-2.92.75-5.94.76-6.52a1.64,1.64,0,0,0-.22-1.25c-.35-.42-1-.61-1.87.11a4.44,4.44,0,0,1-2.39.72s-7.51.89-8,1a1.08,1.08,0,0,1-1.15-1.37c.5-3.12,1.54-6.39,1.36-7.78-3.19,0-4.85,0-7.53,0a78.78,78.78,0,0,1-1.82,10.12A1,1,0,0,1,175,121.17Z"/><path class="cls-7" d="M164,148.15a.71.71,0,0,1-.87-.34l-.13-.46a4.72,4.72,0,0,0-1.63-3,5.2,5.2,0,0,0-6.41.48,5.37,5.37,0,0,0-1.51,5.59c1.22,3.29,3.51,3,4.71,3a1.05,1.05,0,0,1,.89.44.89.89,0,0,1-.13,1l-1.19,1.52a67.36,67.36,0,0,1-5.38,5.87l4.71,5.92a28,28,0,0,0,4.47-4.89c1.05-1.37,1.91-1.19,2.46-.16,0,0,2.27,3.73,3.25,5.21a10,10,0,0,1,1.66,3.43c0,1.45,1,2.25,2.35,1,1.53-1.39,3.82-3.77,4.51-4.59.89-1,.13-1.75-.33-2.27,0,0-5.14-6.05-5.39-6.7a.93.93,0,0,1,1.1-1.35s.48-.17,7.73,3.74c.23,0,1.4,1.1,2.43-.22,1.67-2.42,3.23-5,3.48-5.54a1.67,1.67,0,0,0,.34-1.22c-.13-.54-.67-1-1.73-.72a4.46,4.46,0,0,1-2.47-.4s-7.14-2.49-7.66-2.63a1.08,1.08,0,0,1-.44-1.74c1.78-2.59,3.38-4.38,4-5.91-2.9-1.42-4.39-2-6.88-3.3a92.9,92.9,0,0,1-5.39,7.87A.9.9,0,0,1,164,148.15Z"/><path class="cls-8" d="M164,148.15a.71.71,0,0,1-.87-.34l-.13-.46a4.72,4.72,0,0,0-1.63-3,5.2,5.2,0,0,0-6.41.48,5.37,5.37,0,0,0-1.51,5.59c1.22,3.29,3.51,3,4.71,3a1.05,1.05,0,0,1,.89.44.89.89,0,0,1-.13,1l-1.19,1.52a67.36,67.36,0,0,1-5.38,5.87l4.71,5.92a28,28,0,0,0,4.47-4.89c1.05-1.37,1.91-1.19,2.46-.16,0,0,2.27,3.73,3.25,5.21a10,10,0,0,1,1.66,3.43c0,1.45,1,2.25,2.35,1,1.53-1.39,3.82-3.77,4.51-4.59.89-1,.13-1.75-.33-2.27,0,0-5.14-6.05-5.39-6.7a.93.93,0,0,1,1.1-1.35s.48-.17,7.73,3.74c.23,0,1.4,1.1,2.43-.22,1.67-2.42,3.23-5,3.48-5.54a1.67,1.67,0,0,0,.34-1.22c-.13-.54-.67-1-1.73-.72a4.46,4.46,0,0,1-2.47-.4s-7.14-2.49-7.66-2.63a1.08,1.08,0,0,1-.44-1.74c1.78-2.59,3.38-4.38,4-5.91-2.9-1.42-4.39-2-6.88-3.3a92.9,92.9,0,0,1-5.39,7.87A.9.9,0,0,1,164,148.15Z"/><path class="cls-7" d="M107.13,175.24a.74.74,0,0,0,.27-.91l-.26-.39a4.69,4.69,0,0,1-1.33-3.16,5.26,5.26,0,0,1,9.64-2.47c1.79,3,.11,4.62-.62,5.58a1,1,0,0,0-.21,1,.87.87,0,0,0,.84.52h1.92c2.88-.12,7.5-.47,7.89-.59l1.66,7.44s-.51.22-6.58.45c-1.72,0-2.11.77-1.66,1.84,0,0,1.48,4.12,2,5.82a9.79,9.79,0,0,0,1.62,3.45c1.13.89,1.13,2.18-.72,2.45a63.38,63.38,0,0,1-6.37.7c-1.29.11-1.43-1-1.54-1.67,0,0-1.48-7.83-1.83-8.43a.92.92,0,0,0-1.74,0s-.42.27-1.91,8.44c-.15.18,0,1.79-1.69,1.78-2.92-.19-5.9-.58-6.46-.7a1.62,1.62,0,0,1-1.15-.5c-.34-.43-.36-1.15.51-1.82a4.51,4.51,0,0,0,1.24-2.19s2.52-7.19,2.73-7.69a1.08,1.08,0,0,0-1.06-1.44c-3.12-.2-5.5-.06-7.09-.49.7-3.18,1.14-4.75,1.73-7.5a88,88,0,0,0,9.45.65A.92.92,0,0,0,107.13,175.24Z"/><path class="cls-8" d="M107.13,175.24a.74.74,0,0,0,.27-.91l-.26-.39a4.69,4.69,0,0,1-1.33-3.16,5.26,5.26,0,0,1,9.64-2.47c1.79,3,.11,4.62-.62,5.58a1,1,0,0,0-.21,1,.87.87,0,0,0,.84.52h1.92c2.88-.12,7.5-.47,7.89-.59l1.66,7.44s-.51.22-6.58.45c-1.72,0-2.11.77-1.66,1.84,0,0,1.48,4.12,2,5.82a9.79,9.79,0,0,0,1.62,3.45c1.13.89,1.13,2.18-.72,2.45a63.38,63.38,0,0,1-6.37.7c-1.29.11-1.43-1-1.54-1.67,0,0-1.48-7.83-1.83-8.43a.92.92,0,0,0-1.74,0s-.42.27-1.91,8.44c-.15.18,0,1.79-1.69,1.78-2.92-.19-5.9-.58-6.46-.7a1.62,1.62,0,0,1-1.15-.5c-.34-.43-.36-1.15.51-1.82a4.51,4.51,0,0,0,1.24-2.19s2.52-7.19,2.73-7.69a1.08,1.08,0,0,0-1.06-1.44c-3.12-.2-5.5-.06-7.09-.49.7-3.18,1.14-4.75,1.73-7.5a88,88,0,0,0,9.45.65A.92.92,0,0,0,107.13,175.24Z"/><path class="cls-5" d="M158.59,67.36a.72.72,0,0,1-.51.79l-.47,0a4.64,4.64,0,0,0-3.25,1,5.34,5.34,0,0,0-.84,6.44,5.25,5.25,0,0,0,5.12,2.62c3.43-.53,3.59-2.86,3.86-4a1,1,0,0,1,.6-.78.87.87,0,0,1,.93.32l1.14,1.43c1.58,2.14,4.57,6,5.1,7.47L177,79.26s-.59-1.53-4.29-6.39c-1.11-1.32-.76-2.13.34-2.46,0,0,4.08-1.49,5.72-2.16a9.62,9.62,0,0,1,3.66-.94c1.4.3,2.38-.52,1.41-2.13-1-1.8-2.88-4.55-3.53-5.4-.75-1.07-1.67-.48-2.26-.13,0,0-6.92,3.85-7.6,4a.94.94,0,0,1-1.09-1.37s-.06-.5,5.2-6.88c.05-.23,1.35-1.16.29-2.44-2-2.15-4.22-4.22-4.67-4.58a1.63,1.63,0,0,0-1.11-.58c-.55,0-1.12.46-1.06,1.57a4.57,4.57,0,0,1-.88,2.36s-3.87,6.56-4.11,7a1.07,1.07,0,0,1-1.78.09c-2.15-2.3-3.75-4.69-5.1-5.65-2,2.53-3,3.86-4.57,6,.86.42,6.4,6.94,6.7,7.5A.94.94,0,0,1,158.59,67.36Z"/><path class="cls-6" d="M158.59,67.36a.72.72,0,0,1-.51.79l-.47,0a4.64,4.64,0,0,0-3.25,1,5.34,5.34,0,0,0-.84,6.44,5.25,5.25,0,0,0,5.12,2.62c3.43-.53,3.59-2.86,3.86-4a1,1,0,0,1,.6-.78.87.87,0,0,1,.93.32l1.14,1.43c1.58,2.14,4.57,6,5.1,7.47L177,79.26s-.59-1.53-4.29-6.39c-1.11-1.32-.76-2.13.34-2.46,0,0,4.08-1.49,5.72-2.16a9.62,9.62,0,0,1,3.66-.94c1.4.3,2.38-.52,1.41-2.13-1-1.8-2.88-4.55-3.53-5.4-.75-1.07-1.67-.48-2.26-.13,0,0-6.92,3.85-7.6,4a.94.94,0,0,1-1.09-1.37s-.06-.5,5.2-6.88c.05-.23,1.35-1.16.29-2.44-2-2.15-4.22-4.22-4.67-4.58a1.63,1.63,0,0,0-1.11-.58c-.55,0-1.12.46-1.06,1.57a4.57,4.57,0,0,1-.88,2.36s-3.87,6.56-4.11,7a1.07,1.07,0,0,1-1.78.09c-2.15-2.3-3.75-4.69-5.1-5.65-2,2.53-3,3.86-4.57,6,.86.42,6.4,6.94,6.7,7.5A.94.94,0,0,1,158.59,67.36Z"/><path class="cls-5" d="M106.72,46.93a.71.71,0,0,1,.29.89l-.25.4a4.66,4.66,0,0,0-1.26,3.19,5.26,5.26,0,0,0,9.68,2.27c1.73-3,0-4.62-.73-5.57a1.06,1.06,0,0,1-.23-1,.87.87,0,0,1,.83-.54h1.82c2.63.09,7.61.2,9,.73l1.49-7.56a74.22,74.22,0,0,0-7.6-.57c-1.71.06-2.12-.72-1.69-1.8,0,0,1.39-4.15,1.89-5.86a9.75,9.75,0,0,1,1.56-3.48c1.11-.91,1.08-2.2-.77-2.44-2-.3-5.31-.56-6.38-.57-1.3-.08-1.42,1-1.52,1.7,0,0-1.32,7.86-1.66,8.47a.92.92,0,0,1-1.73,0s-.43-.26-2.08-8.39c-.16-.18-.06-1.79-1.72-1.75-2.92.24-5.9.7-6.45.83a1.61,1.61,0,0,0-1.14.52c-.33.44-.34,1.16.55,1.81a4.51,4.51,0,0,1,1.27,2.16s2.67,7.15,2.89,7.64a1.08,1.08,0,0,1-1,1.46c-3.11.26-5-.14-7.11.32.72,3.15.92,4.79,1.59,7.42.32-.2,9.14-.6,9.76-.49A.92.92,0,0,1,106.72,46.93Z"/><path class="cls-6" d="M106.72,46.93a.71.71,0,0,1,.29.89l-.25.4a4.66,4.66,0,0,0-1.26,3.19,5.26,5.26,0,0,0,9.68,2.27c1.73-3,0-4.62-.73-5.57a1.06,1.06,0,0,1-.23-1,.87.87,0,0,1,.83-.54h1.82c2.63.09,7.61.2,9,.73l1.49-7.56a74.22,74.22,0,0,0-7.6-.57c-1.71.06-2.12-.72-1.69-1.8,0,0,1.39-4.15,1.89-5.86a9.75,9.75,0,0,1,1.56-3.48c1.11-.91,1.08-2.2-.77-2.44-2-.3-5.31-.56-6.38-.57-1.3-.08-1.42,1-1.52,1.7,0,0-1.32,7.86-1.66,8.47a.92.92,0,0,1-1.73,0s-.43-.26-2.08-8.39c-.16-.18-.06-1.79-1.72-1.75-2.92.24-5.9.7-6.45.83a1.61,1.61,0,0,0-1.14.52c-.33.44-.34,1.16.55,1.81a4.51,4.51,0,0,1,1.27,2.16s2.67,7.15,2.89,7.64a1.08,1.08,0,0,1-1,1.46c-3.11.26-5-.14-7.11.32.72,3.15.92,4.79,1.59,7.42.32-.2,9.14-.6,9.76-.49A.92.92,0,0,1,106.72,46.93Z"/><path class="cls-7" d="M135.3,51.16a.72.72,0,0,1-.12.93l-.41.25a4.62,4.62,0,0,0-2.5,2.32,5.32,5.32,0,0,0,2,6.17A5.23,5.23,0,0,0,140,61c2.86-2,2-4.16,1.74-5.34a1,1,0,0,1,.2-1,.85.85,0,0,1,1-.12l1.75.8a66.88,66.88,0,0,1,6.94,3.85l4.55-6a27.6,27.6,0,0,0-5.78-3.2c-1.57-.7-1.6-1.59-.75-2.37,0,0,3-3.13,4.22-4.45a9.69,9.69,0,0,1,2.9-2.45c1.39-.34,1.92-1.51.35-2.54s-4.54-2.83-5.5-3.31c-1.13-.64-1.71.3-2.09.87,0,0-4.57,6.5-5.14,6.9a.92.92,0,0,1-1.56-.75s-.28-.42,1.73-8.47c-.07-.23.71-1.64-.8-2.33-2.73-1.06-5.61-2-6.17-2.08a1.59,1.59,0,0,0-1.25,0c-.49.25-.81.9-.28,1.87a4.55,4.55,0,0,1,.22,2.51s-.67,7.61-.68,8.15a1.06,1.06,0,0,1-1.56.85c-2.92-1.12-5-2.25-6.65-2.52-.67,3.18-.91,4.79-1.51,7.54a90,90,0,0,1,8.86,3.38A.9.9,0,0,1,135.3,51.16Z"/><path class="cls-8" d="M135.3,51.16a.72.72,0,0,1-.12.93l-.41.25a4.62,4.62,0,0,0-2.5,2.32,5.32,5.32,0,0,0,2,6.17A5.23,5.23,0,0,0,140,61c2.86-2,2-4.16,1.74-5.34a1,1,0,0,1,.2-1,.85.85,0,0,1,1-.12l1.75.8a66.88,66.88,0,0,1,6.94,3.85l4.55-6a27.6,27.6,0,0,0-5.78-3.2c-1.57-.7-1.6-1.59-.75-2.37,0,0,3-3.13,4.22-4.45a9.69,9.69,0,0,1,2.9-2.45c1.39-.34,1.92-1.51.35-2.54s-4.54-2.83-5.5-3.31c-1.13-.64-1.71.3-2.09.87,0,0-4.57,6.5-5.14,6.9a.92.92,0,0,1-1.56-.75s-.28-.42,1.73-8.47c-.07-.23.71-1.64-.8-2.33-2.73-1.06-5.61-2-6.17-2.08a1.59,1.59,0,0,0-1.25,0c-.49.25-.81.9-.28,1.87a4.55,4.55,0,0,1,.22,2.51s-.67,7.61-.68,8.15a1.06,1.06,0,0,1-1.56.85c-2.92-1.12-5-2.25-6.65-2.52-.67,3.18-.91,4.79-1.51,7.54a90,90,0,0,1,8.86,3.38A.9.9,0,0,1,135.3,51.16Z"/><path class="cls-7" d="M175.08,100.34a.72.72,0,0,0-.94,0l-.31.36a4.69,4.69,0,0,1-2.71,2.06,5.25,5.25,0,0,1-5.64-3.13,5.35,5.35,0,0,1,.93-5.72c2.46-2.48,4.41-1.22,5.51-.74a1.05,1.05,0,0,0,1,0,.87.87,0,0,0,.29-.94l-.46-1.89c-.81-2.79-2.26-7.24-2.47-7.59L177,79.24s.33.45,2,6.34c.39,1.69,1.25,1.89,2.17,1.18,0,0,3.6-2.44,5.1-3.37A9.52,9.52,0,0,0,189.23,81c.58-1.32,1.83-1.63,2.54.12.82,1.9,1.92,5,2.21,6.06.41,1.25-.6,1.65-1.23,1.92,0,0-7.17,3.35-7.66,3.84a.93.93,0,0,0,.44,1.69s.36.35,8.57-.16c.21.1,1.72-.42,2.12,1.22.52,2.9.87,5.92.89,6.5a1.67,1.67,0,0,1-.2,1.25c-.34.44-1,.63-1.87-.06a4.36,4.36,0,0,0-2.41-.68s-7.52-.74-8-.82a1.07,1.07,0,0,0-1.12,1.39c.56,3.11,1.27,5.41,1.24,7.07-3.22.07-4.84,0-7.62.11.1-.36-1.4-8.84-1.66-9.42A1,1,0,0,0,175.08,100.34Z"/><path class="cls-8" d="M175.08,100.34a.72.72,0,0,0-.94,0l-.31.36a4.69,4.69,0,0,1-2.71,2.06,5.25,5.25,0,0,1-5.64-3.13,5.35,5.35,0,0,1,.93-5.72c2.46-2.48,4.41-1.22,5.51-.74a1.05,1.05,0,0,0,1,0,.87.87,0,0,0,.29-.94l-.46-1.89c-.81-2.79-2.26-7.24-2.47-7.59L177,79.24s.33.45,2,6.34c.39,1.69,1.25,1.89,2.17,1.18,0,0,3.6-2.44,5.1-3.37A9.52,9.52,0,0,0,189.23,81c.58-1.32,1.83-1.63,2.54.12.82,1.9,1.92,5,2.21,6.06.41,1.25-.6,1.65-1.23,1.92,0,0-7.17,3.35-7.66,3.84a.93.93,0,0,0,.44,1.69s.36.35,8.57-.16c.21.1,1.72-.42,2.12,1.22.52,2.9.87,5.92.89,6.5a1.67,1.67,0,0,1-.2,1.25c-.34.44-1,.63-1.87-.06a4.36,4.36,0,0,0-2.41-.68s-7.52-.74-8-.82a1.07,1.07,0,0,0-1.12,1.39c.56,3.11,1.27,5.41,1.24,7.07-3.22.07-4.84,0-7.62.11.1-.36-1.4-8.84-1.66-9.42A1,1,0,0,0,175.08,100.34Z"/><path class="cls-5" d="M58.09,74.09a.72.72,0,0,1,.87.36l.13.45a4.71,4.71,0,0,0,1.61,3,5.21,5.21,0,0,0,6.42-.44,5.34,5.34,0,0,0,1.53-5.58c-1.2-3.3-3.49-3-4.69-3a1,1,0,0,1-.88-.44.87.87,0,0,1,.13-1L64.37,66c1.76-2,5-5.76,6.36-6.51l-4.77-6A75.56,75.56,0,0,0,60.64,59c-1,1.36-1.91,1.18-2.45.15,0,0-2.25-3.75-3.23-5.23a10,10,0,0,1-1.64-3.44c0-1.45-1-2.26-2.34-1-1.54,1.38-3.84,3.75-4.54,4.57-.89.95-.14,1.75.32,2.26,0,0,5.11,6.08,5.35,6.74A.93.93,0,0,1,51,64.43s-.47.17-7.7-3.79c-.23,0-1.39-1.1-2.43.21-1.69,2.41-3.26,5-3.52,5.52A1.67,1.67,0,0,0,37,67.59c.13.54.67,1,1.73.74a4.35,4.35,0,0,1,2.46.4s7.13,2.53,7.65,2.68a1.08,1.08,0,0,1,.43,1.74c-1.8,2.58-3.8,4.64-4.47,6.16,2.85,1.47,4.33,2.17,6.75,3.34.24-.93,5.47-7.7,5.95-8.11A1,1,0,0,1,58.09,74.09Z"/><path class="cls-6" d="M58.09,74.09a.72.72,0,0,1,.87.36l.13.45a4.71,4.71,0,0,0,1.61,3,5.21,5.21,0,0,0,6.42-.44,5.34,5.34,0,0,0,1.53-5.58c-1.2-3.3-3.49-3-4.69-3a1,1,0,0,1-.88-.44.87.87,0,0,1,.13-1L64.37,66c1.76-2,5-5.76,6.36-6.51l-4.77-6A75.56,75.56,0,0,0,60.64,59c-1,1.36-1.91,1.18-2.45.15,0,0-2.25-3.75-3.23-5.23a10,10,0,0,1-1.64-3.44c0-1.45-1-2.26-2.34-1-1.54,1.38-3.84,3.75-4.54,4.57-.89.95-.14,1.75.32,2.26,0,0,5.11,6.08,5.35,6.74A.93.93,0,0,1,51,64.43s-.47.17-7.7-3.79c-.23,0-1.39-1.1-2.43.21-1.69,2.41-3.26,5-3.52,5.52A1.67,1.67,0,0,0,37,67.59c.13.54.67,1,1.73.74a4.35,4.35,0,0,1,2.46.4s7.13,2.53,7.65,2.68a1.08,1.08,0,0,1,.43,1.74c-1.8,2.58-3.8,4.64-4.47,6.16,2.85,1.47,4.33,2.17,6.75,3.34.24-.93,5.47-7.7,5.95-8.11A1,1,0,0,1,58.09,74.09Z"/><path class="cls-7" d="M47,100.4a.72.72,0,0,1,.94-.06l.31.35a4.65,4.65,0,0,0,2.75,2,5.25,5.25,0,0,0,5.59-3.21,5.36,5.36,0,0,0-1-5.7c-2.49-2.45-4.42-1.17-5.52-.67a1,1,0,0,1-1,0,.87.87,0,0,1-.31-.94l.43-1.89a67.51,67.51,0,0,1,2.37-7.63l-6.77-3.31a28.52,28.52,0,0,0-2,6.35c-.37,1.7-1.22,1.9-2.15,1.21,0,0-3.64-2.39-5.15-3.3a9.6,9.6,0,0,1-3-2.38c-.6-1.31-1.84-1.6-2.53.15-.79,1.92-1.85,5.06-2.13,6.1-.39,1.25.63,1.64,1.26,1.9,0,0,7.22,3.24,7.72,3.72a.94.94,0,0,1-.42,1.7s-.36.36-8.57,0c-.21.1-1.73-.39-2.1,1.25-.49,2.91-.79,5.93-.8,6.51a1.64,1.64,0,0,0,.22,1.25c.34.43,1,.62,1.87-.09a4.35,4.35,0,0,1,2.39-.72s7.51-.84,8-.94a1.07,1.07,0,0,1,1.14,1.38c-.51,3.11-1.19,5.42-1.14,7.08,3.23,0,4.84,0,7.62,0a95.23,95.23,0,0,1,1.53-9.44A1,1,0,0,1,47,100.4Z"/><path class="cls-8" d="M47,100.4a.72.72,0,0,1,.94-.06l.31.35a4.65,4.65,0,0,0,2.75,2,5.25,5.25,0,0,0,5.59-3.21,5.36,5.36,0,0,0-1-5.7c-2.49-2.45-4.42-1.17-5.52-.67a1,1,0,0,1-1,0,.87.87,0,0,1-.31-.94l.43-1.89a67.51,67.51,0,0,1,2.37-7.63l-6.77-3.31a28.52,28.52,0,0,0-2,6.35c-.37,1.7-1.22,1.9-2.15,1.21,0,0-3.64-2.39-5.15-3.3a9.6,9.6,0,0,1-3-2.38c-.6-1.31-1.84-1.6-2.53.15-.79,1.92-1.85,5.06-2.13,6.1-.39,1.25.63,1.64,1.26,1.9,0,0,7.22,3.24,7.72,3.72a.94.94,0,0,1-.42,1.7s-.36.36-8.57,0c-.21.1-1.73-.39-2.1,1.25-.49,2.91-.79,5.93-.8,6.51a1.64,1.64,0,0,0,.22,1.25c.34.43,1,.62,1.87-.09a4.35,4.35,0,0,1,2.39-.72s7.51-.84,8-.94a1.07,1.07,0,0,1,1.14,1.38c-.51,3.11-1.19,5.42-1.14,7.08,3.23,0,4.84,0,7.62,0a95.23,95.23,0,0,1,1.53-9.44A1,1,0,0,1,47,100.4Z"/><path class="cls-7" d="M79.68,54.72a.72.72,0,0,1,.63.69l-.08.47a4.77,4.77,0,0,0,.15,3.43,5.22,5.22,0,0,0,6,2.41,5.28,5.28,0,0,0,3.78-4.35c.34-3.5-1.86-4.23-2.92-4.78a1.07,1.07,0,0,1-.61-.78.89.89,0,0,1,.54-.83l1.73-.84c2.65-1.14,6.84-2.79,7.38-2.89l-1.66-7.44s-.55,0-6.14,2.44c-1.54.77-2.23.22-2.28-.94,0,0-.41-4.36-.65-6.12a9.77,9.77,0,0,1,0-3.82c.64-1.3.09-2.46-1.7-1.91-2,.57-5.06,1.69-6,2.13-1.22.46-.88,1.51-.69,2.17,0,0,2,7.72,1.93,8.42a.93.93,0,0,1-1.58.73s-.5-.07-5.31-6.79c-.21-.1-.78-1.61-2.28-.88-2.56,1.43-5.09,3.08-5.54,3.43a1.67,1.67,0,0,0-.83.95c-.12.54.17,1.2,1.24,1.42a4.45,4.45,0,0,1,2,1.44s5.34,5.41,5.74,5.77A1.08,1.08,0,0,1,72.15,50c-2.73,1.53-4.94,2.43-6.2,3.51,2,2.57,3.06,3.79,4.75,6A91.7,91.7,0,0,1,79,54.86.94.94,0,0,1,79.68,54.72Z"/><path class="cls-8" d="M79.68,54.72a.72.72,0,0,1,.63.69l-.08.47a4.77,4.77,0,0,0,.15,3.43,5.22,5.22,0,0,0,6,2.41,5.28,5.28,0,0,0,3.78-4.35c.34-3.5-1.86-4.23-2.92-4.78a1.07,1.07,0,0,1-.61-.78.89.89,0,0,1,.54-.83l1.73-.84c2.65-1.14,6.84-2.79,7.38-2.89l-1.66-7.44s-.55,0-6.14,2.44c-1.54.77-2.23.22-2.28-.94,0,0-.41-4.36-.65-6.12a9.77,9.77,0,0,1,0-3.82c.64-1.3.09-2.46-1.7-1.91-2,.57-5.06,1.69-6,2.13-1.22.46-.88,1.51-.69,2.17,0,0,2,7.72,1.93,8.42a.93.93,0,0,1-1.58.73s-.5-.07-5.31-6.79c-.21-.1-.78-1.61-2.28-.88-2.56,1.43-5.09,3.08-5.54,3.43a1.67,1.67,0,0,0-.83.95c-.12.54.17,1.2,1.24,1.42a4.45,4.45,0,0,1,2,1.44s5.34,5.41,5.74,5.77A1.08,1.08,0,0,1,72.15,50c-2.73,1.53-4.94,2.43-6.2,3.51,2,2.57,3.06,3.79,4.75,6A91.7,91.7,0,0,1,79,54.86.94.94,0,0,1,79.68,54.72Z"/><polygon class="cls-4" points="72.76 101.19 72.76 93.45 59.42 93.45 59.42 128.6 72.76 128.6 72.76 120.86 65.51 120.86 65.51 114.8 72.38 114.8 72.38 107.06 65.51 107.06 65.51 101.19 72.76 101.19"/><path class="cls-4" d="M75.58,128.6h8.64c6.5,0,11.91-7.69,11.91-17.58S90.75,93.45,84.22,93.45H75.58Zm6.1-27.41h1.43c3.91,0,6.68,3.54,6.68,9.83,0,6.86-3.11,9.84-6.75,9.84H81.68Z"/><path class="cls-4" d="M112.27,93.45V112c0,4.57-.22,9.56-4.14,9.56s-4.13-5-4.13-9.56V93.45H97.91v19.76c0,4.53.12,9,2.45,12.4a9.66,9.66,0,0,0,15.54,0c2.33-3.4,2.46-7.87,2.46-12.4V93.45Z"/><path class="cls-4" d="M138,94.29a10.39,10.39,0,0,0-5.56-1.78c-3.29,0-6.62,2.15-8.92,5.69a24,24,0,0,0-3.45,12.87c0,5.22,1.18,9.79,3.76,13.29,2.43,3.31,5.53,5.17,8.8,5.17,1.89,0,3.35-.7,5.37-1.63v-11c-1.27,2.29-3.26,3.73-5.25,3.73-3.79,0-6.34-4-6.34-9.55s2.52-9.75,6.25-9.75c2.08,0,4.1,1.35,5.34,3.87Z"/><path class="cls-4" d="M155.22,122.49l1.53,6.11h6.49l-8.83-35.15h-6.65l-9,35.15h6.46l1.62-6.11Zm-1.64-7h-5.07L151,104.31h.06Z"/></g></g></svg>