<svg xmlns="http://www.w3.org/2000/svg" viewBox="0 0 251.17 59.24"><defs><style>.cls-1{fill:none;}.cls-2{fill:#fff;}</style></defs><g id="Layer_2" data-name="Layer 2"><g id="Layer_1-2" data-name="Layer 1"><path class="cls-1" d="M97.91,23.47H92.53a5.92,5.92,0,0,1,.41,1.23h.16V35.21h1.57a5.71,5.71,0,0,1,3.24,1V26.09a6.37,6.37,0,0,1,.57-2.65h-.59Z"/><path class="cls-1" d="M145.83,28.69c-.15.31-.31.61-.48.89.16.19.33.38.48.58Z"/><path class="cls-2" d="M243.73,41a22.68,22.68,0,0,0,4.74-6.36,25.63,25.63,0,0,0,2.7-11.53,23.88,23.88,0,0,0-5.83-16A21.78,21.78,0,0,0,229.65,0a2.63,2.63,0,0,0-.43,0H201.41a6,6,0,0,0-5.93,6.11l0,17.33h.74a6.56,6.56,0,0,0-.73,3v10a5.74,5.74,0,0,0-3.63-1.31h-1.58V26.1a6.38,6.38,0,0,0-.57-2.66h5.47V4.18h-.34A6,6,0,0,0,189.17,0h-37.4a6.16,6.16,0,0,0-5.94,6.33V9.12A17.49,17.49,0,0,0,130.53,0H103.72a6,6,0,0,0-5.85,5.07A6,6,0,0,0,92,0H54.63a5.73,5.73,0,0,0-4.36,2A5.86,5.86,0,0,0,45.82,0H5.93A6.15,6.15,0,0,0,0,6.34V52.89a6.15,6.15,0,0,0,5.93,6.33H17.52v0h11.9v-6a3,3,0,0,0,0-.31V39.27H44.28v-13a6.62,6.62,0,0,0-.61-2.79h5V52.87a6.15,6.15,0,0,0,5.93,6.33l46.06-.06v0l31.61.06a17.4,17.4,0,0,0,13.53-6.49v.15a6.16,6.16,0,0,0,5.94,6.34h17.54l.4,0h22.11l.36,0h5.57v0H218.7a5.57,5.57,0,0,0,2.72-.71v.74l24,0a4.89,4.89,0,0,0,4.32-2.34,5.16,5.16,0,0,0-.14-5.24ZM48.31,19.77H25.52v3.39H38.34A2.7,2.7,0,0,1,40.81,26v9.59H35.85v0H26V52.69c0,.05,0,.09,0,.14v2.74H21v0H5.93a2.69,2.69,0,0,1-2.46-2.86V6.14A2.7,2.7,0,0,1,5.93,3.27H45.82a2.57,2.57,0,0,1,2.46,2.64V7.45h0Zm6.32,35.76a2.69,2.69,0,0,1-2.46-2.86V6.17a2.68,2.68,0,0,1,2.46-2.86H92A2.56,2.56,0,0,1,94.49,6v11.2a3.31,3.31,0,0,1,0,.55v2.1H74.68v3.4H87.17a2.61,2.61,0,0,1,2.46,2.73v2h0v7.11H74.68v3.39h20a2.62,2.62,0,0,1,2.46,2.74l.06,14.26Zm43.3-29.44V36.22a5.71,5.71,0,0,0-3.24-1H93.11V24.7h-.16a5.92,5.92,0,0,0-.41-1.23h5.38v0h.59A6.37,6.37,0,0,0,97.93,26.09Zm47.9,2.6v1.47c-.15-.2-.32-.39-.48-.58C145.52,29.3,145.68,29,145.83,28.69ZM132.3,55.51l-31.07-.06,0-13.77A2.56,2.56,0,0,1,103.72,39h19.67V35h-22V25.9a2.62,2.62,0,0,1,2.46-2.73h19.53V19.78H101.18l.08-12.32V5.92a2.56,2.56,0,0,1,2.46-2.64h26.81a14.17,14.17,0,0,1,14.05,14.29c0,4.55-1.74,13.31-5.36,11.22a14.33,14.33,0,0,1-6.92,26.72Zm62-2.77v2.72H192l-.15,0H169.47l-.16,0H151.77a2.69,2.69,0,0,1-2.46-2.86V6.14a2.68,2.68,0,0,1,2.46-2.86h37.4a2.57,2.57,0,0,1,2.46,2.64V7.46h0V19.77H171.82v3.4h12.49a2.62,2.62,0,0,1,2.46,2.73v9.15h-15v3.4h20a2.61,2.61,0,0,1,2.45,2.73Zm51.12,2.69-20.5,0V45h0v-1H221.1v9.12a2.59,2.59,0,0,1-2.4,2.24l-19.8,0V43.13h0V26.28a2.69,2.69,0,0,1,2.46-2.85H213V19.78h-14l0-13.85a2.57,2.57,0,0,1,2.46-2.64h28c11.23.32,18.32,9,18.32,19.66,0,7.27-3.39,13.61-8.43,17l7.27,13C247.28,54.34,246.77,55.43,245.39,55.43Z"/></g></g></svg>