<svg xmlns="http://www.w3.org/2000/svg" viewBox="0 0 251.17 59.24"><defs><style>.cls-1{fill:#fff;}.cls-2{fill:#a362a8;}</style></defs><g id="Layer_2" data-name="Layer 2"><g id="Layer_1-2" data-name="Layer 1"><path class="cls-1" d="M48.31,20H25.53v3.4H38.34a2.69,2.69,0,0,1,2.47,2.86v9.58H26V52.89S26,53,26,53v2.74H21v0H5.93a2.69,2.69,0,0,1-2.46-2.86V6.34A2.7,2.7,0,0,1,5.93,3.47H45.82a2.57,2.57,0,0,1,2.46,2.65V7.65h0Zm90.91,9c3.62,2.1,5.36-6.66,5.36-11.22A14.17,14.17,0,0,0,130.53,3.47H103.72a2.57,2.57,0,0,0-2.46,2.65V7.65L101.18,20h22.21v3.4H103.86a2.61,2.61,0,0,0-2.46,2.73v9.14h22v4H103.72a2.56,2.56,0,0,0-2.46,2.65l0,13.76,31.07.06a14.17,14.17,0,0,0,14-14.29A14.34,14.34,0,0,0,139.22,29ZM97.14,41.41a2.62,2.62,0,0,0-2.46-2.73h-20v-3.4H89.63V28.18h0v-2a2.61,2.61,0,0,0-2.46-2.73H74.68V20H94.44V17.91a3.31,3.31,0,0,0,0-.55V6.16A2.56,2.56,0,0,0,92,3.51H54.63a2.68,2.68,0,0,0-2.46,2.86v46.5a2.69,2.69,0,0,0,2.46,2.86l42.57-.06Zm97.13,0a2.6,2.6,0,0,0-2.45-2.73h-20v-3.4h15V28.14h0v-2a2.62,2.62,0,0,0-2.46-2.73H171.82V20h19.84V7.65h0V6.12a2.57,2.57,0,0,0-2.46-2.65h-37.4a2.69,2.69,0,0,0-2.46,2.86v46.5a2.69,2.69,0,0,0,2.46,2.87h17.54a.76.76,0,0,0,.16,0h24.8V53h0Zm45-1.21c5-3.41,8.43-9.75,8.43-17,0-10.67-7.09-19.34-18.32-19.66l-.16,0H201.41A2.57,2.57,0,0,0,199,6.12l0,13.85h14v3.65H201.38a2.69,2.69,0,0,0-2.46,2.86V43.32h0V55.64h19.8a2.59,2.59,0,0,0,2.4-2.24V44.27h3.76v1h0V55.66l20.5,0c1.38,0,1.89-1.09,1.15-2.42Z"/><path class="cls-1" d="M29.42,59.24H17.52v0H5.93A6.15,6.15,0,0,1,0,52.89V6.34A6.15,6.15,0,0,1,5.93,0H45.82a5.86,5.86,0,0,1,4.45,2.08,5.73,5.73,0,0,1,4.36-2H92a6,6,0,0,1,5.84,5A6,6,0,0,1,103.72,0h26.81a17.51,17.51,0,0,1,15.31,9.12V6.33A6.15,6.15,0,0,1,151.77,0h37.4a6,6,0,0,1,5.63,4.18h.34V23.44h-5.47a6.38,6.38,0,0,1,.57,2.66v9.07h1.58a5.74,5.74,0,0,1,3.63,1.31v-10a6.56,6.56,0,0,1,.73-3h-.74l0-17.33A6,6,0,0,1,201.41,0h27.81a2.63,2.63,0,0,1,.43,0,21.78,21.78,0,0,1,15.69,7.09,23.88,23.88,0,0,1,5.83,16,25.63,25.63,0,0,1-2.7,11.53A22.68,22.68,0,0,1,243.73,41l5.84,10.48a5.16,5.16,0,0,1,.14,5.24,4.89,4.89,0,0,1-4.32,2.34l-24,0v-.74a5.57,5.57,0,0,1-2.72.71H197.75v0h-5.57l-.36,0H169.71l-.4,0H151.77a6.15,6.15,0,0,1-5.93-6.34v-.15a17.43,17.43,0,0,1-13.54,6.49l-31.61-.06v0l-46.06.06a6.15,6.15,0,0,1-5.93-6.33V23.44h-5a6.62,6.62,0,0,1,.61,2.79V39.28H29.43V52.89a3,3,0,0,1,0,.31Zm-22.48-7H22.49v-20H37.33V26.84H22.05V16.5H44.84V11.12h0V7H6.94ZM55.64,7V52.26l38.08,0,0-10.06H71.21V31.81h15V26.88h-15V16.53H91V7Zm49.07,45.2,27.59,0a10.71,10.71,0,0,0,10.57-10.82A10.87,10.87,0,0,0,137.49,32h0L141,26a1.66,1.66,0,0,0-1.68.19c.72-.75,1.84-4.81,1.84-8.41A10.71,10.71,0,0,0,130.53,7h-25.8v.72l-.06,8.83h22.19V26.84h-22v4.93h22V42.7H104.73Zm48.07,0h16.33l.18,0H190.8V42.12H168.35V31.78h15V26.85h-15V16.5h19.84V11.12h0V7H152.78Zm75.55-10.46h0V52.18l13.62,0-7.3-13.08,2.64-1.78c4.26-2.88,6.91-8.31,6.91-14.15,0-9.28-6.15-15.94-14.94-16.19H202.42l0,9.55h14V27.09h-14V46.8h0v5.37h15.25V40.8h10.71ZM93.11,35.21h1.57a5.71,5.71,0,0,1,3.24,1V26.09a6.37,6.37,0,0,1,.57-2.65h-.59v0H92.53a5.92,5.92,0,0,1,.41,1.23h.16ZM44.24,33.43v0Zm101.11-3.85c.16.19.33.38.49.58V28.69C145.68,29,145.52,29.3,145.35,29.58ZM202.42,6.12Z"/><path class="cls-2" d="M48.62,20H25.83v3.4H38.65a2.68,2.68,0,0,1,2.46,2.86v9.58H26.27V52.89a.68.68,0,0,1,0,.14v2.74H21.3v0H6.24a2.69,2.69,0,0,1-2.46-2.86V6.34A2.7,2.7,0,0,1,6.24,3.47H46.12a2.57,2.57,0,0,1,2.47,2.65V7.65h0Zm90.9,9c3.63,2.1,5.37-6.66,5.37-11.22a14.17,14.17,0,0,0-14-14.29H104a2.58,2.58,0,0,0-2.47,2.65V7.65L101.49,20H123.7v3.4H104.17a2.6,2.6,0,0,0-2.46,2.73v9.14h22v4H104a2.57,2.57,0,0,0-2.47,2.65l0,13.76,31.06.06a14.17,14.17,0,0,0,14.05-14.29A14.32,14.32,0,0,0,139.52,29ZM97.44,41.41A2.61,2.61,0,0,0,95,38.68H75v-3.4h15V28.18h0v-2a2.62,2.62,0,0,0-2.46-2.73H75V20H94.75V17.91a3.31,3.31,0,0,0,0-.55V6.16a2.57,2.57,0,0,0-2.46-2.65H54.94a2.68,2.68,0,0,0-2.46,2.86v46.5a2.69,2.69,0,0,0,2.46,2.86l42.57-.06Zm97.14,0a2.6,2.6,0,0,0-2.46-2.73h-20v-3.4h15V28.14h0v-2a2.62,2.62,0,0,0-2.46-2.73H172.13V20H192V7.65h0V6.12a2.57,2.57,0,0,0-2.46-2.65H152.07a2.69,2.69,0,0,0-2.46,2.86v46.5a2.7,2.7,0,0,0,2.46,2.87h17.55l.16,0h24.8V53h0Zm45-1.21c5.05-3.41,8.44-9.75,8.44-17,0-10.67-7.09-19.34-18.32-19.66l-.16,0H201.72a2.57,2.57,0,0,0-2.46,2.65l0,13.85h14v3.65H201.69a2.69,2.69,0,0,0-2.46,2.86V43.32h0V55.64H219a2.58,2.58,0,0,0,2.4-2.24V44.27h3.77v1h0V55.66l20.5,0c1.37,0,1.89-1.09,1.15-2.42Z"/></g></g></svg>