<svg xmlns="http://www.w3.org/2000/svg" viewBox="0 0 196.72 76.11"><defs><style>.a{fill:#e73e2d;}.b{fill:#fffefe;}</style></defs><path class="a" d="M362.45,153.33h97c.18,0,.35,0,.53,0a.84.84,0,0,1,.85.9v58.06a5,5,0,0,1,0,.86,3.35,3.35,0,0,1-.8,1.66,43.29,43.29,0,0,1-3.86,3.92A42.31,42.31,0,0,1,442.14,227a41.11,41.11,0,0,1-6.64,1.76c-1.07.19-2.14.35-3.22.46a42.55,42.55,0,0,1-5.17.19c-1.13,0-2.26-.08-3.38-.19a41.78,41.78,0,0,1-14.14-4,42.25,42.25,0,0,1-14.11-11.1c-.29-.35-.24-.34-.54,0a42.15,42.15,0,0,1-18.84,13.05,40.07,40.07,0,0,1-6.18,1.6c-1.07.19-2.15.35-3.23.46a42.31,42.31,0,0,1-5.16.19c-1.13,0-2.26-.07-3.38-.19a42.34,42.34,0,0,1-28.27-15.15c-.27-.32-.24-.3-.49,0a42.35,42.35,0,0,1-15.32,11.68,41.81,41.81,0,0,1-8.65,2.8c-1.06.22-2.14.39-3.21.53a43.16,43.16,0,0,1-7.45.29c-1.08,0-2.16-.15-3.24-.29A41.58,41.58,0,0,1,277,224.46a42.53,42.53,0,0,1-12.05-9.66,3.31,3.31,0,0,1-.77-1.5c0-.14,0-.27-.05-.41s0-.35,0-.53V154.55c0-.15,0-.3,0-.45a.8.8,0,0,1,.65-.74c.11,0,.22,0,.33,0h97.4ZM376.75,200V196.9c0-.11,0-.22,0-.33s.11-.11.16-.08l.25.21a5.22,5.22,0,0,0,1.76,1,6.9,6.9,0,0,0,1.92.33,8.76,8.76,0,0,0,2-.14,7.75,7.75,0,0,0,5-3.11,9.78,9.78,0,0,0,1.79-5,12.84,12.84,0,0,0-.15-3.61,10.41,10.41,0,0,0-1.13-3.21,7.38,7.38,0,0,0-7.33-3.81,6.33,6.33,0,0,0-3.95,1.81c-.09.08-.16.25-.28.2s-.05-.23-.07-.36,0-.16,0-.24a1.28,1.28,0,0,0-1-1.09,1.57,1.57,0,0,0-.48-.05h-3.92a.72.72,0,0,0-.63,1,2.46,2.46,0,0,0,.22.39,2.37,2.37,0,0,1,.37,1,8.74,8.74,0,0,1,.07,1v19.84a3.3,3.3,0,0,1-.56,2,.68.68,0,0,0-.12.26.69.69,0,0,0,.56.94l.37,0h4.89a2.09,2.09,0,0,0,.36,0,.67.67,0,0,0,.56-.66.94.94,0,0,0-.22-.64,2.57,2.57,0,0,1-.45-1.37q0-.41,0-.81Zm-58.27-24.33v-4.85c0-.11,0-.22,0-.33a.74.74,0,0,0-.67-.65,2.81,2.81,0,0,0-.29,0h-4.16a2.62,2.62,0,0,0-.28,0,.69.69,0,0,0-.65.85,1.31,1.31,0,0,0,.23.51,2.46,2.46,0,0,1,.39,1,6.17,6.17,0,0,1,.06,1.05q0,10.46,0,20.9c0,.14,0,.28,0,.41a2.94,2.94,0,0,1-.52,1.77.88.88,0,0,0-.17.45.68.68,0,0,0,.67.8h5.38a.73.73,0,0,0,.68-1,1.69,1.69,0,0,0-.22-.39,2.59,2.59,0,0,1-.37-1,6.07,6.07,0,0,1-.07-1.13v-8.72a3.38,3.38,0,0,1,0-.45,2.63,2.63,0,0,1,.46-1.41,1.59,1.59,0,0,1,.93-.68,1.81,1.81,0,0,1,1.9.53,2.52,2.52,0,0,1,.46.66,6.16,6.16,0,0,1,.44,1.1l2.76,9a5.87,5.87,0,0,1,.19.83,2.18,2.18,0,0,1-.21,1.46,2.14,2.14,0,0,0-.1.22.68.68,0,0,0,.58.95,3.39,3.39,0,0,0,.45,0h5.42a.67.67,0,0,0,.62-.86,1.28,1.28,0,0,0-.38-.57,3,3,0,0,1-.76-1.14c-.1-.26-.2-.53-.29-.8-.25-.79-.49-1.58-.73-2.37q-1.23-3.93-2.44-7.85a10,10,0,0,0-1.06-2.33,6,6,0,0,0-1.41-1.57,4.48,4.48,0,0,0-3.91-.86,4.28,4.28,0,0,0-1.93,1c-.2.18-.39.38-.58.57a1.39,1.39,0,0,1-.19.15.15.15,0,0,1-.22-.11c0-.12,0-.24,0-.36ZM283.9,188.72V183c0-.1,0-.21,0-.32s.07-.24.25-.25h2.9a.69.69,0,0,0,.69-.67c0-.54,0-1.09,0-1.63a.71.71,0,0,0-.51-.66,1,1,0,0,0-.41-.05H284.1c-.11,0-.18-.06-.19-.17a1.41,1.41,0,0,1,0-.2c0-.89,0-1.77,0-2.65a7.62,7.62,0,0,1,.25-1.9,5.05,5.05,0,0,1,1-2.06,3.4,3.4,0,0,1,1.65-1.06,4.23,4.23,0,0,1,1.66-.09,3.5,3.5,0,0,1,1.73.66l.22.18a.15.15,0,0,1,0,.22l-.08.09a3.15,3.15,0,0,0-.79,2.49,2.75,2.75,0,0,0,.63,1.56,3.19,3.19,0,0,0,4.58.31,3.32,3.32,0,0,0,1-3.21,5.18,5.18,0,0,0-1.43-2.61,7.49,7.49,0,0,0-2.53-1.74,10.41,10.41,0,0,0-6.42-.66,7.93,7.93,0,0,0-5.57,4.12,11.21,11.21,0,0,0-1.22,4.28,18.16,18.16,0,0,0-.07,1.95,2.81,2.81,0,0,1,0,.29c0,.14-.06.2-.2.2h-2.24a.79.79,0,0,0-.82.83c0,.46,0,.92,0,1.38a.78.78,0,0,0,.27.61.79.79,0,0,0,.57.19H278c.59,0,.56,0,.56.56v11.61a2.91,2.91,0,0,1-.52,1.73.86.86,0,0,0-.18.49.68.68,0,0,0,.67.76h5.38a.72.72,0,0,0,.68-1,1.24,1.24,0,0,0-.19-.36,2.67,2.67,0,0,1-.41-1.1,5.81,5.81,0,0,1-.06-.93Zm156.79,9.19a12.46,12.46,0,0,0,1.34-.1,9.38,9.38,0,0,0,3.44-1.18,7,7,0,0,0,1.95-1.65,4.53,4.53,0,0,0,.77-1.33,2.45,2.45,0,0,0,.12-1.17,1.59,1.59,0,0,0-1-1.33,1.83,1.83,0,0,0-2,.46,2.44,2.44,0,0,0-.49.84c-.06.17-.11.36-.17.54a2.66,2.66,0,0,1-1.85,1.84,3.62,3.62,0,0,1-2.59-.18,4.78,4.78,0,0,1-1.48-1.13,9.87,9.87,0,0,1-1.36-2.07l-.06-.15a.26.26,0,0,1,.12-.32l.33-.16,8.44-3.95,1.51-.71a.62.62,0,0,0,.38-.62,1.44,1.44,0,0,0-.06-.4,4.58,4.58,0,0,0-.33-.87,8.68,8.68,0,0,0-1.86-2.55,8.55,8.55,0,0,0-5.23-2.4,8.83,8.83,0,0,0-3.07.22,8.48,8.48,0,0,0-5.49,4.21,8.9,8.9,0,0,0-1,3.29,10.33,10.33,0,0,0,.26,4,9,9,0,0,0,5,6A10,10,0,0,0,440.69,197.91Zm-99.2,0a13.11,13.11,0,0,0,1.39-.1,9.28,9.28,0,0,0,3.4-1.16,7.09,7.09,0,0,0,2-1.73,4.35,4.35,0,0,0,.7-1.24,2.29,2.29,0,0,0,.12-1.32,1.58,1.58,0,0,0-.95-1.19,1.82,1.82,0,0,0-2,.38,2.47,2.47,0,0,0-.56.93c-.06.18-.11.37-.17.55a2.65,2.65,0,0,1-1.8,1.79,3.6,3.6,0,0,1-2.62-.17,4.7,4.7,0,0,1-1.48-1.13,9.22,9.22,0,0,1-1.34-2c-.17-.34-.13-.42.22-.59l0,0,5.41-2.54,4.57-2.14a.65.65,0,0,0,.45-.77,1.8,1.8,0,0,0-.06-.32c-.08-.23-.15-.46-.25-.68a8.87,8.87,0,0,0-10.2-4.88,8.31,8.31,0,0,0-5.9,5,9.79,9.79,0,0,0-.35,6.62,8.9,8.9,0,0,0,4.56,5.63A10,10,0,0,0,341.49,197.91Zm-37.43.13a9.87,9.87,0,0,0,1.22-.07,8.87,8.87,0,0,0,2.49-.59,5.9,5.9,0,0,0,1.56-.94,5,5,0,0,0,1.81-3.73,4,4,0,0,0-1.05-3,6.26,6.26,0,0,0-.51-.52,10.33,10.33,0,0,0-1.5-1.13c-.91-.57-1.86-1.05-2.81-1.56-.51-.27-1-.55-1.53-.84a5.4,5.4,0,0,1-1-.71,2.85,2.85,0,0,1-.54-.61,1.59,1.59,0,0,1-.25-1,1.83,1.83,0,0,1,1.36-1.69,3.14,3.14,0,0,1,1.61,0,2,2,0,0,1,1.36,1.08,3.7,3.7,0,0,1,.28.72,2.68,2.68,0,0,0,.27.68,2.09,2.09,0,0,0,1.27,1,2.32,2.32,0,0,0,1.08,0,1.66,1.66,0,0,0,1.24-.9,2.34,2.34,0,0,0,.23-.82,2.77,2.77,0,0,0-.48-1.81,4.54,4.54,0,0,0-1.36-1.33,7.9,7.9,0,0,0-3.61-1.26,9.33,9.33,0,0,0-1.83,0,7.61,7.61,0,0,0-2.4.59,5.39,5.39,0,0,0-3.33,4.17,4.57,4.57,0,0,0,.8,3.56,7.8,7.8,0,0,0,1.42,1.45,16.72,16.72,0,0,0,2.25,1.47l2.19,1.24a7.2,7.2,0,0,1,1.21.83,3.14,3.14,0,0,1,.61.65,1.39,1.39,0,0,1,.21,1,1.52,1.52,0,0,1-.83,1.14,2.89,2.89,0,0,1-1.73.34,2.22,2.22,0,0,1-2-1.49c-.09-.21-.15-.43-.22-.65a3.07,3.07,0,0,0-.42-.92,1.91,1.91,0,0,0-1.15-.79,2.25,2.25,0,0,0-.69-.05,1.82,1.82,0,0,0-1.59,1,2.28,2.28,0,0,0-.18,1.58,3.48,3.48,0,0,0,.95,1.73,5.79,5.79,0,0,0,1.76,1.22A9,9,0,0,0,304.06,198Zm109.85-9.43a11.34,11.34,0,0,0,.48,3.23,8.37,8.37,0,0,0,4.91,5.44,10,10,0,0,0,2.95.71,9.22,9.22,0,0,0,3.39-.28,7.66,7.66,0,0,0,3-1.55,4.38,4.38,0,0,0,1-1.21,2.79,2.79,0,0,0,.37-1.52,1.88,1.88,0,0,0-3.67-.44c-.07.16-.1.34-.16.5a2.74,2.74,0,0,1-1.76,1.75,3.45,3.45,0,0,1-.71.15,2.91,2.91,0,0,1-2.53-.84,3.76,3.76,0,0,1-.56-.75,5.74,5.74,0,0,1-.56-1.3,12.27,12.27,0,0,1-.47-3,17.27,17.27,0,0,1,.15-3.37,8.74,8.74,0,0,1,.55-2.08,4.42,4.42,0,0,1,.74-1.21,2.77,2.77,0,0,1,1.43-.89,3.28,3.28,0,0,1,1.25-.05,2.2,2.2,0,0,1,1.69,1.08,5.65,5.65,0,0,1,.45,1,3.54,3.54,0,0,0,.18.49,2.06,2.06,0,0,0,2.55,1.14,1.82,1.82,0,0,0,1.35-1.7,3,3,0,0,0-.44-1.78,4.79,4.79,0,0,0-1-1.2,8,8,0,0,0-4.51-1.77,9.72,9.72,0,0,0-3.75.4,8.39,8.39,0,0,0-5.57,5A10.93,10.93,0,0,0,413.91,188.61Zm-57.51,1.9c0-1.27,0-2.55,0-3.83a4.4,4.4,0,0,1,.16-1.2,2.82,2.82,0,0,1,.47-.95,2,2,0,0,1,.58-.5,1.06,1.06,0,0,1,1.05,0c.21.1.41.21.61.32a5.1,5.1,0,0,0,.89.41,2.75,2.75,0,0,0,2.68-.52,2.8,2.8,0,0,0,.93-1.71,2.86,2.86,0,0,0-3.14-3.4,3.37,3.37,0,0,0-1.57.52,5.59,5.59,0,0,0-1.16,1,8,8,0,0,0-1.08,1.57,1.61,1.61,0,0,1-.17.28.13.13,0,0,1-.22-.06,2.66,2.66,0,0,1,0-.28v-1.43a1.27,1.27,0,0,0-1-1.22,1.75,1.75,0,0,0-.4,0h-4a.68.68,0,0,0-.62.73.9.9,0,0,0,.2.57,2.77,2.77,0,0,1,.48,1.53c0,.21,0,.43,0,.65v11.57a3,3,0,0,1-.54,1.88.85.85,0,0,0-.15.58.64.64,0,0,0,.58.63,2.82,2.82,0,0,0,.41,0h5.09a.73.73,0,0,0,.67-.92,1.19,1.19,0,0,0-.17-.36,2.74,2.74,0,0,1-.48-1.29,6.51,6.51,0,0,1,0-.77Zm40.77,0V186.8c0-.17,0-.33,0-.49a3.45,3.45,0,0,1,.4-1.44,1.91,1.91,0,0,1,.77-.82,1.07,1.07,0,0,1,1.09-.06l.47.25c.21.11.42.23.65.33a2.89,2.89,0,0,0,1.42.28,2.6,2.6,0,0,0,2-1.11,2.94,2.94,0,0,0,.51-2.32,2.72,2.72,0,0,0-1.83-2.16,3,3,0,0,0-1.88-.08,4.25,4.25,0,0,0-1.87,1.11,6.68,6.68,0,0,0-1.31,1.76c-.06.1-.11.21-.17.32a.18.18,0,0,1-.17.09.15.15,0,0,1-.12-.15c0-.11,0-.22,0-.32,0-.44,0-.87,0-1.31a1.3,1.3,0,0,0-1.27-1.29H392a1.31,1.31,0,0,0-.28,0,.7.7,0,0,0-.63.9,1,1,0,0,0,.21.44,2.65,2.65,0,0,1,.41,1,6.76,6.76,0,0,1,.06,1.1V194.5a3,3,0,0,1-.53,1.81.94.94,0,0,0-.18.49.69.69,0,0,0,.65.75h5.5a.71.71,0,0,0,.63-.84,1,1,0,0,0-.19-.44,2.53,2.53,0,0,1-.46-1.21,4.9,4.9,0,0,1-.05-.77Zm14.67-3V180.4c0-.11,0-.22,0-.32a.72.72,0,0,0-.68-.69h-4.44a1.6,1.6,0,0,0-.44,0,.66.66,0,0,0-.5.54.81.81,0,0,0,.09.55c.05.1.11.18.17.28a2.38,2.38,0,0,1,.37,1,5.65,5.65,0,0,1,.07,1v11.36c0,.16,0,.33,0,.49a2.82,2.82,0,0,1-.51,1.64,1,1,0,0,0-.18.41.7.7,0,0,0,.64.86h5.42a.71.71,0,0,0,.71-.77,1,1,0,0,0-.22-.56,2.53,2.53,0,0,1-.42-1,6.76,6.76,0,0,1-.06-1.1Zm-116.43-.08v-7.34a.7.7,0,0,0-.64-.67,1,1,0,0,0-.25,0h-4.28a1.72,1.72,0,0,0-.32,0,.67.67,0,0,0-.57.73.93.93,0,0,0,.2.56,2.54,2.54,0,0,1,.44,1.09,5.8,5.8,0,0,1,.05.93v11.53c0,.22,0,.44,0,.65a2.53,2.53,0,0,1-.44,1.3,2,2,0,0,0-.14.25.73.73,0,0,0,.66,1.11h5.3a.72.72,0,0,0,.67-1,1.55,1.55,0,0,0-.19-.36,2.42,2.42,0,0,1-.41-1.13,8.2,8.2,0,0,1-.06-1.1Zm73.41.1c0-.11,0-.3,0-.49a7.55,7.55,0,0,0-.16-.8.75.75,0,0,0-1.11-.5l-.11.05-7.74,3.6-.29.14a.75.75,0,0,0-.28,1,2.61,2.61,0,0,0,.2.3,5.11,5.11,0,0,0,5.27,2A5.24,5.24,0,0,0,368.82,187.51Zm40.31-16.22a3.11,3.11,0,0,0-3.17,3.08,3.16,3.16,0,0,0,3.14,3.21,3.12,3.12,0,0,0,3.13-3.14A3.07,3.07,0,0,0,409.13,171.29Zm42.49,9.86c-.05-.1-.1-.19-.13-.27l-.5-1.25c0-.08-.06-.17-.1-.26a.2.2,0,0,0-.25-.08c-.08,0-.08.1-.08.17v1.87a.15.15,0,0,0,0,.11s.06.05.1.05a.15.15,0,0,0,.1,0,.64.64,0,0,0,0-.2c0-.35,0-.7,0-1.05,0,0,0-.12.08-.12.08.17.16.35.23.54s.21.5.31.75a.19.19,0,0,0,.15.12c.11,0,.18,0,.22-.12.16-.37.32-.75.47-1.12,0-.07,0-.16.14-.18s0,.13,0,.19c0,.27,0,.54,0,.81v.29a.12.12,0,0,0,.11.13c.09,0,.13,0,.13-.12a1.34,1.34,0,0,0,0-.2v-1.63s0-.11,0-.16,0-.09-.1-.1-.18,0-.24.16c-.19.46-.37.93-.56,1.39A.64.64,0,0,1,451.62,181.15Zm-2.66-.63h0v.85a.11.11,0,0,0,.09.12.13.13,0,0,0,.17-.11v-1.71c0-.1.06-.14.15-.15h.45a.12.12,0,0,0,.09-.12.1.1,0,0,0-.1-.11h-1.46c-.05,0-.06.05-.07.09a.11.11,0,0,0,.07.13h.37c.22,0,.24,0,.24.22Z" transform="translate(-264.07 -153.33)"/><path class="b" d="M376.75,200v2.41q0,.4,0,.81a2.57,2.57,0,0,0,.45,1.37.94.94,0,0,1,.22.64.67.67,0,0,1-.56.66,2.09,2.09,0,0,1-.36,0h-4.89l-.37,0a.69.69,0,0,1-.56-.94.68.68,0,0,1,.12-.26,3.3,3.3,0,0,0,.56-2V182.85a8.74,8.74,0,0,0-.07-1,2.37,2.37,0,0,0-.37-1,2.46,2.46,0,0,1-.22-.39.72.72,0,0,1,.63-1h3.92a1.57,1.57,0,0,1,.48.05,1.28,1.28,0,0,1,1,1.09c0,.08,0,.16,0,.24s-.07.31.07.36.19-.12.28-.2a6.33,6.33,0,0,1,3.95-1.81,7.38,7.38,0,0,1,7.33,3.81,10.41,10.41,0,0,1,1.13,3.21,12.84,12.84,0,0,1,.15,3.61,9.78,9.78,0,0,1-1.79,5,7.75,7.75,0,0,1-5,3.11,8.76,8.76,0,0,1-2,.14,6.9,6.9,0,0,1-1.92-.33,5.22,5.22,0,0,1-1.76-1l-.25-.21c-.05,0-.16,0-.16.08s0,.22,0,.33V200Zm0-11.53V190a10.32,10.32,0,0,0,.13,1.66,5.62,5.62,0,0,0,.72,2,3.33,3.33,0,0,0,1.13,1.14,2.87,2.87,0,0,0,3.65-.48,4,4,0,0,0,.67-.91,6.52,6.52,0,0,0,.6-1.51,12.28,12.28,0,0,0,.39-2.82,17.15,17.15,0,0,0,0-2,12.33,12.33,0,0,0-.35-2.09,5.5,5.5,0,0,0-.9-1.95,2.8,2.8,0,0,0-1.41-1.05,3,3,0,0,0-3.11.66,3.77,3.77,0,0,0-1,1.51,6.43,6.43,0,0,0-.43,1.94C376.72,186.9,376.75,187.72,376.74,188.46Z" transform="translate(-264.07 -153.33)"/><path class="b" d="M318.48,175.66v4.81c0,.12,0,.24,0,.36a.15.15,0,0,0,.22.11,1.39,1.39,0,0,0,.19-.15c.19-.19.38-.39.58-.57a4.28,4.28,0,0,1,1.93-1,4.48,4.48,0,0,1,3.91.86,6,6,0,0,1,1.41,1.57,10,10,0,0,1,1.06,2.33q1.21,3.92,2.44,7.85c.24.79.48,1.58.73,2.37.09.27.19.54.29.8a3,3,0,0,0,.76,1.14,1.28,1.28,0,0,1,.38.57.67.67,0,0,1-.62.86h-5.42a3.39,3.39,0,0,1-.45,0,.68.68,0,0,1-.58-.95,2.14,2.14,0,0,1,.1-.22,2.18,2.18,0,0,0,.21-1.46,5.87,5.87,0,0,0-.19-.83l-2.76-9a6.16,6.16,0,0,0-.44-1.1,2.52,2.52,0,0,0-.46-.66,1.81,1.81,0,0,0-1.9-.53,1.59,1.59,0,0,0-.93.68,2.63,2.63,0,0,0-.46,1.41,3.38,3.38,0,0,0,0,.45v8.72a6.07,6.07,0,0,0,.07,1.13,2.59,2.59,0,0,0,.37,1,1.69,1.69,0,0,1,.22.39.73.73,0,0,1-.68,1h-5.38a.68.68,0,0,1-.67-.8.88.88,0,0,1,.17-.45,2.94,2.94,0,0,0,.52-1.77c0-.13,0-.27,0-.41q0-10.44,0-20.9a6.17,6.17,0,0,0-.06-1.05,2.46,2.46,0,0,0-.39-1,1.31,1.31,0,0,1-.23-.51.69.69,0,0,1,.65-.85,2.62,2.62,0,0,1,.28,0h4.16a2.81,2.81,0,0,1,.29,0,.74.74,0,0,1,.67.65c0,.11,0,.22,0,.33Z" transform="translate(-264.07 -153.33)"/><path class="b" d="M283.9,188.72v5.46a5.81,5.81,0,0,0,.06.93,2.67,2.67,0,0,0,.41,1.1,1.24,1.24,0,0,1,.19.36.72.72,0,0,1-.68,1H278.5a.68.68,0,0,1-.67-.76.86.86,0,0,1,.18-.49,2.91,2.91,0,0,0,.52-1.73V183c0-.55,0-.57-.56-.56H276.1a.79.79,0,0,1-.57-.19.78.78,0,0,1-.27-.61c0-.46,0-.92,0-1.38a.79.79,0,0,1,.82-.83h2.24c.14,0,.19-.06.2-.2a2.81,2.81,0,0,0,0-.29,18.16,18.16,0,0,1,.07-1.95,11.21,11.21,0,0,1,1.22-4.28,7.93,7.93,0,0,1,5.57-4.12,10.41,10.41,0,0,1,6.42.66,7.49,7.49,0,0,1,2.53,1.74,5.18,5.18,0,0,1,1.43,2.61,3.32,3.32,0,0,1-1,3.21,3.19,3.19,0,0,1-4.58-.31,2.75,2.75,0,0,1-.63-1.56,3.15,3.15,0,0,1,.79-2.49l.08-.09a.15.15,0,0,0,0-.22l-.22-.18a3.5,3.5,0,0,0-1.73-.66,4.23,4.23,0,0,0-1.66.09,3.4,3.4,0,0,0-1.65,1.06,5.05,5.05,0,0,0-1,2.06,7.62,7.62,0,0,0-.25,1.9c0,.88,0,1.76,0,2.65a1.41,1.41,0,0,0,0,.2c0,.11.08.16.19.17h2.73a1,1,0,0,1,.41.05.71.71,0,0,1,.51.66c0,.54,0,1.09,0,1.63a.69.69,0,0,1-.69.67h-2.9c-.18,0-.24.07-.25.25s0,.22,0,.32Z" transform="translate(-264.07 -153.33)"/><path class="b" d="M440.69,197.91a10,10,0,0,1-4.43-.89,9,9,0,0,1-5-6,10.33,10.33,0,0,1-.26-4,8.9,8.9,0,0,1,1-3.29,8.48,8.48,0,0,1,5.49-4.21,8.83,8.83,0,0,1,3.07-.22,8.55,8.55,0,0,1,5.23,2.4,8.68,8.68,0,0,1,1.86,2.55,4.58,4.58,0,0,1,.33.87,1.44,1.44,0,0,1,.06.4.62.62,0,0,1-.38.62l-1.51.71-8.44,3.95-.33.16a.26.26,0,0,0-.12.32l.06.15a9.87,9.87,0,0,0,1.36,2.07,4.78,4.78,0,0,0,1.48,1.13,3.62,3.62,0,0,0,2.59.18,2.66,2.66,0,0,0,1.85-1.84c.06-.18.11-.37.17-.54a2.44,2.44,0,0,1,.49-.84,1.83,1.83,0,0,1,2-.46,1.59,1.59,0,0,1,1,1.33,2.45,2.45,0,0,1-.12,1.17,4.53,4.53,0,0,1-.77,1.33,7,7,0,0,1-1.95,1.65,9.38,9.38,0,0,1-3.44,1.18A12.46,12.46,0,0,1,440.69,197.91Zm-5.17-12.21a7.67,7.67,0,0,0,.43,2.45c.15.45.17.46.59.26l5.64-2.63a1.06,1.06,0,0,0,.21-.11.17.17,0,0,0,.08-.21.88.88,0,0,0-.05-.15,6.5,6.5,0,0,0-1.44-2.15,4,4,0,0,0-1.22-.8,2.93,2.93,0,0,0-2-.17,2.86,2.86,0,0,0-1.83,1.63A4.84,4.84,0,0,0,435.52,185.7Z" transform="translate(-264.07 -153.33)"/><path class="b" d="M341.49,197.91a10,10,0,0,1-4.78-1.09,8.9,8.9,0,0,1-4.56-5.63,9.79,9.79,0,0,1,.35-6.62,8.31,8.31,0,0,1,5.9-5,8.66,8.66,0,0,1,3-.22,8.9,8.9,0,0,1,7.16,5.1c.1.22.17.45.25.68a1.8,1.8,0,0,1,.06.32.65.65,0,0,1-.45.77l-4.57,2.14-5.41,2.54,0,0c-.35.17-.39.25-.22.59a9.22,9.22,0,0,0,1.34,2,4.7,4.7,0,0,0,1.48,1.13,3.6,3.6,0,0,0,2.62.17,2.65,2.65,0,0,0,1.8-1.79c.06-.18.11-.37.17-.55a2.47,2.47,0,0,1,.56-.93,1.82,1.82,0,0,1,2-.38,1.58,1.58,0,0,1,.95,1.19,2.29,2.29,0,0,1-.12,1.32,4.35,4.35,0,0,1-.7,1.24,7.09,7.09,0,0,1-2,1.73,9.28,9.28,0,0,1-3.4,1.16A13.11,13.11,0,0,1,341.49,197.91Zm-5.12-12a10.14,10.14,0,0,0,.13,1.18,11.22,11.22,0,0,0,.37,1.29c.06.17.15.2.32.14s.17-.08.26-.12l3.72-1.73,1.95-.91c.24-.12.26-.16.15-.41a6.09,6.09,0,0,0-1.55-2.26,3.63,3.63,0,0,0-1.32-.79,2.9,2.9,0,0,0-1.84-.08,2.83,2.83,0,0,0-1.77,1.56A4.74,4.74,0,0,0,336.37,185.89Z" transform="translate(-264.07 -153.33)"/><path class="b" d="M304.06,198a9,9,0,0,1-3.79-.81,5.79,5.79,0,0,1-1.76-1.22,3.48,3.48,0,0,1-.95-1.73,2.28,2.28,0,0,1,.18-1.58,1.82,1.82,0,0,1,1.59-1,2.25,2.25,0,0,1,.69.05,1.91,1.91,0,0,1,1.15.79,3.07,3.07,0,0,1,.42.92c.07.22.13.44.22.65a2.22,2.22,0,0,0,2,1.49,2.89,2.89,0,0,0,1.73-.34,1.52,1.52,0,0,0,.83-1.14,1.39,1.39,0,0,0-.21-1,3.14,3.14,0,0,0-.61-.65,7.2,7.2,0,0,0-1.21-.83l-2.19-1.24a16.72,16.72,0,0,1-2.25-1.47,7.8,7.8,0,0,1-1.42-1.45,4.57,4.57,0,0,1-.8-3.56,5.39,5.39,0,0,1,3.33-4.17,7.61,7.61,0,0,1,2.4-.59,9.33,9.33,0,0,1,1.83,0,7.9,7.9,0,0,1,3.61,1.26,4.54,4.54,0,0,1,1.36,1.33,2.77,2.77,0,0,1,.48,1.81,2.34,2.34,0,0,1-.23.82,1.66,1.66,0,0,1-1.24.9,2.32,2.32,0,0,1-1.08,0,2.09,2.09,0,0,1-1.27-1,2.68,2.68,0,0,1-.27-.68,3.7,3.7,0,0,0-.28-.72,2,2,0,0,0-1.36-1.08,3.14,3.14,0,0,0-1.61,0,1.83,1.83,0,0,0-1.36,1.69,1.59,1.59,0,0,0,.25,1,2.85,2.85,0,0,0,.54.61,5.4,5.4,0,0,0,1,.71c.5.29,1,.57,1.53.84,1,.51,1.9,1,2.81,1.56a10.33,10.33,0,0,1,1.5,1.13,6.26,6.26,0,0,1,.51.52,4,4,0,0,1,1.05,3,5,5,0,0,1-1.81,3.73,5.9,5.9,0,0,1-1.56.94,8.87,8.87,0,0,1-2.49.59A9.87,9.87,0,0,1,304.06,198Z" transform="translate(-264.07 -153.33)"/><path class="b" d="M413.91,188.61a10.93,10.93,0,0,1,.74-4,8.39,8.39,0,0,1,5.57-5,9.72,9.72,0,0,1,3.75-.4,8,8,0,0,1,4.51,1.77,4.79,4.79,0,0,1,1,1.2,3,3,0,0,1,.44,1.78,1.82,1.82,0,0,1-1.35,1.7,2.06,2.06,0,0,1-2.55-1.14,3.54,3.54,0,0,1-.18-.49,5.65,5.65,0,0,0-.45-1,2.2,2.2,0,0,0-1.69-1.08,3.28,3.28,0,0,0-1.25.05,2.77,2.77,0,0,0-1.43.89,4.42,4.42,0,0,0-.74,1.21,8.74,8.74,0,0,0-.55,2.08,17.27,17.27,0,0,0-.15,3.37,12.27,12.27,0,0,0,.47,3,5.74,5.74,0,0,0,.56,1.3,3.76,3.76,0,0,0,.56.75,2.91,2.91,0,0,0,2.53.84,3.45,3.45,0,0,0,.71-.15,2.74,2.74,0,0,0,1.76-1.75c.06-.16.09-.34.16-.5a1.88,1.88,0,0,1,3.67.44,2.79,2.79,0,0,1-.37,1.52,4.38,4.38,0,0,1-1,1.21,7.66,7.66,0,0,1-3,1.55,9.22,9.22,0,0,1-3.39.28,10,10,0,0,1-2.95-.71,8.37,8.37,0,0,1-4.91-5.44A11.34,11.34,0,0,1,413.91,188.61Z" transform="translate(-264.07 -153.33)"/><path class="b" d="M356.4,190.51v3.71a6.51,6.51,0,0,0,0,.77,2.74,2.74,0,0,0,.48,1.29,1.19,1.19,0,0,1,.17.36.73.73,0,0,1-.67.92h-5.09a2.82,2.82,0,0,1-.41,0,.64.64,0,0,1-.58-.63.85.85,0,0,1,.15-.58,3,3,0,0,0,.54-1.88V182.88c0-.22,0-.44,0-.65a2.77,2.77,0,0,0-.48-1.53.9.9,0,0,1-.2-.57.68.68,0,0,1,.62-.73h4a1.75,1.75,0,0,1,.4,0,1.27,1.27,0,0,1,1,1.22v1.43a2.66,2.66,0,0,0,0,.28.13.13,0,0,0,.22.06,1.61,1.61,0,0,0,.17-.28,8,8,0,0,1,1.08-1.57,5.59,5.59,0,0,1,1.16-1,3.37,3.37,0,0,1,1.57-.52,2.86,2.86,0,0,1,3.14,3.4,2.8,2.8,0,0,1-.93,1.71,2.75,2.75,0,0,1-2.68.52,5.1,5.1,0,0,1-.89-.41c-.2-.11-.4-.22-.61-.32a1.06,1.06,0,0,0-1.05,0,2,2,0,0,0-.58.5,2.82,2.82,0,0,0-.47.95,4.4,4.4,0,0,0-.16,1.2C356.41,188,356.4,189.24,356.4,190.51Z" transform="translate(-264.07 -153.33)"/><path class="b" d="M397.17,190.54v3.75a4.9,4.9,0,0,0,.05.77,2.53,2.53,0,0,0,.46,1.21,1,1,0,0,1,.19.44.71.71,0,0,1-.63.84h-5.5a.69.69,0,0,1-.65-.75.94.94,0,0,1,.18-.49,3,3,0,0,0,.53-1.81V182.89a6.76,6.76,0,0,0-.06-1.1,2.65,2.65,0,0,0-.41-1,1,1,0,0,1-.21-.44.7.7,0,0,1,.63-.9,1.31,1.31,0,0,1,.28,0h3.87a1.3,1.3,0,0,1,1.27,1.29c0,.44,0,.87,0,1.31,0,.1,0,.21,0,.32a.15.15,0,0,0,.12.15.18.18,0,0,0,.17-.09c.06-.11.11-.22.17-.32a6.68,6.68,0,0,1,1.31-1.76,4.25,4.25,0,0,1,1.87-1.11,3,3,0,0,1,1.88.08,2.72,2.72,0,0,1,1.83,2.16,2.94,2.94,0,0,1-.51,2.32,2.6,2.6,0,0,1-2,1.11,2.89,2.89,0,0,1-1.42-.28c-.23-.1-.44-.22-.65-.33l-.47-.25a1.07,1.07,0,0,0-1.09.06,1.91,1.91,0,0,0-.77.82,3.45,3.45,0,0,0-.4,1.44c0,.16,0,.32,0,.49Z" transform="translate(-264.07 -153.33)"/><path class="b" d="M411.84,187.49v6.59a6.76,6.76,0,0,0,.06,1.1,2.53,2.53,0,0,0,.42,1,1,1,0,0,1,.22.56.71.71,0,0,1-.71.77h-5.42a.7.7,0,0,1-.64-.86,1,1,0,0,1,.18-.41,2.82,2.82,0,0,0,.51-1.64c0-.16,0-.33,0-.49V182.79a5.65,5.65,0,0,0-.07-1,2.38,2.38,0,0,0-.37-1c-.06-.1-.12-.18-.17-.28a.81.81,0,0,1-.09-.55.66.66,0,0,1,.5-.54,1.6,1.6,0,0,1,.44,0h4.44a.72.72,0,0,1,.68.69c0,.1,0,.21,0,.32Z" transform="translate(-264.07 -153.33)"/><path class="b" d="M295.41,187.41V194a8.2,8.2,0,0,0,.06,1.1,2.42,2.42,0,0,0,.41,1.13,1.55,1.55,0,0,1,.19.36.72.72,0,0,1-.67,1h-5.3a.73.73,0,0,1-.66-1.11,2,2,0,0,1,.14-.25,2.53,2.53,0,0,0,.44-1.3c0-.21,0-.43,0-.65V182.72a5.8,5.8,0,0,0-.05-.93,2.54,2.54,0,0,0-.44-1.09.93.93,0,0,1-.2-.56.67.67,0,0,1,.57-.73,1.72,1.72,0,0,1,.32,0h4.28a1,1,0,0,1,.25,0,.7.7,0,0,1,.64.67v7.34Z" transform="translate(-264.07 -153.33)"/><path class="b" d="M368.82,187.51a5.24,5.24,0,0,1-4.24,5.28,5.11,5.11,0,0,1-5.27-2,2.61,2.61,0,0,1-.2-.3.75.75,0,0,1,.28-1l.29-.14,7.74-3.6.11-.05a.75.75,0,0,1,1.11.5,7.55,7.55,0,0,1,.16.8C368.81,187.21,368.82,187.4,368.82,187.51Z" transform="translate(-264.07 -153.33)"/><path class="b" d="M409.13,171.29a3.07,3.07,0,0,1,3.1,3.15,3.12,3.12,0,0,1-3.13,3.14,3.16,3.16,0,0,1-3.14-3.21A3.11,3.11,0,0,1,409.13,171.29Z" transform="translate(-264.07 -153.33)"/><path class="b" d="M451.62,181.15a.64.64,0,0,0,.19-.32c.19-.46.37-.93.56-1.39.06-.14.11-.17.24-.16s.1,0,.1.1,0,.11,0,.16v1.63a1.34,1.34,0,0,1,0,.2c0,.08,0,.13-.13.12a.12.12,0,0,1-.11-.13v-.29c0-.27,0-.54,0-.81,0-.06,0-.13,0-.19s-.11.11-.14.18c-.15.37-.31.75-.47,1.12,0,.11-.11.13-.22.12a.19.19,0,0,1-.15-.12c-.1-.25-.2-.5-.31-.75s-.15-.37-.23-.54c-.11,0-.08.07-.08.12,0,.35,0,.7,0,1.05a.64.64,0,0,1,0,.2.15.15,0,0,1-.1,0s-.09,0-.1-.05a.15.15,0,0,1,0-.11v-1.87c0-.07,0-.14.08-.17a.2.2,0,0,1,.25.08c0,.09.07.18.1.26l.5,1.25C451.52,181,451.57,181.05,451.62,181.15Z" transform="translate(-264.07 -153.33)"/><path class="b" d="M449,180.52v-.78c0-.2,0-.21-.24-.22h-.37a.11.11,0,0,1-.07-.13s0-.08.07-.09h1.46a.1.1,0,0,1,.1.11.12.12,0,0,1-.09.12h-.45c-.09,0-.15,0-.15.15v1.71a.13.13,0,0,1-.17.11.11.11,0,0,1-.09-.12v-.85Z" transform="translate(-264.07 -153.33)"/><path class="a" d="M376.74,188.46c0-.74,0-1.56,0-2.37a6.43,6.43,0,0,1,.43-1.94,3.77,3.77,0,0,1,1-1.51,3,3,0,0,1,3.11-.66,2.8,2.8,0,0,1,1.41,1.05,5.5,5.5,0,0,1,.9,1.95,12.33,12.33,0,0,1,.35,2.09,17.15,17.15,0,0,1,0,2,12.28,12.28,0,0,1-.39,2.82,6.52,6.52,0,0,1-.6,1.51,4,4,0,0,1-.67.91,2.87,2.87,0,0,1-3.65.48,3.33,3.33,0,0,1-1.13-1.14,5.62,5.62,0,0,1-.72-2,10.32,10.32,0,0,1-.13-1.66Z" transform="translate(-264.07 -153.33)"/><path class="a" d="M435.52,185.7a4.84,4.84,0,0,1,.39-1.88,2.86,2.86,0,0,1,1.83-1.63,2.93,2.93,0,0,1,2,.17,4,4,0,0,1,1.22.8,6.5,6.5,0,0,1,1.44,2.15.88.88,0,0,1,.05.15.17.17,0,0,1-.08.21,1.06,1.06,0,0,1-.21.11l-5.64,2.63c-.42.2-.44.19-.59-.26A7.67,7.67,0,0,1,435.52,185.7Z" transform="translate(-264.07 -153.33)"/><path class="a" d="M336.37,185.89a4.74,4.74,0,0,1,.42-2.13,2.83,2.83,0,0,1,1.77-1.56,2.9,2.9,0,0,1,1.84.08,3.63,3.63,0,0,1,1.32.79,6.09,6.09,0,0,1,1.55,2.26c.11.25.09.29-.15.41l-1.95.91-3.72,1.73c-.09,0-.17.09-.26.12s-.26,0-.32-.14a11.22,11.22,0,0,1-.37-1.29A10.14,10.14,0,0,1,336.37,185.89Z" transform="translate(-264.07 -153.33)"/></svg>