<svg xmlns="http://www.w3.org/2000/svg" viewBox="0 0 248.29 82.14"><defs><style>.cls-1{fill:#fff;}</style></defs><g id="Layer_2" data-name="Layer 2"><g id="Layer_1-2" data-name="Layer 1"><path class="cls-1" d="M12,13.46c0-4.19,0-8.39,0-12.59,0-.56.12-.72.7-.72q40.2,0,80.39,0c.76,0,.72.33.72.85V82.14H12V50.45c.27-.2.14-.49.14-.74,0-4.12,0-8.25,0-12.37,0-.63.11-.85.8-.84,4.45,0,8.89,0,13.34,0,.53,0,.69-.11.68-.66,0-2.46,0-4.93,0-7.39,0-.66-.17-.82-.82-.81-4.71,0-9.42,0-14.13,0V22.35l.79,0c4.5,0,9,0,13.48,0,.54,0,.69-.12.68-.67,0-2.46,0-4.92,0-7.38,0-.67-.17-.82-.82-.82C21.43,13.49,16.72,13.47,12,13.46ZM56.29,31.59c.34-.24.58-.39.81-.57,2-1.52,3.72-3.31,4.14-5.95a12.83,12.83,0,0,0-.05-3.39,8.88,8.88,0,0,0-9-8.32c-5.59-.08-11.17-.1-16.75-.17-.58,0-.66.18-.65.69,0,2.43,0,4.87,0,7.31,0,.56.12.72.7.71,4.13,0,8.26,0,12.4,0a3.11,3.11,0,0,1,1.85.52,2.75,2.75,0,0,1-1.67,5q-6.3,0-12.61,0c-.55,0-.68.13-.68.67q.06,3.59,0,7.17c0,.63.18.74.76.73,4.06,0,8.12,0,12.18,0a2.78,2.78,0,0,1,2.72,1.79,2.75,2.75,0,0,1-2.64,3.71q-6.16,0-12.33,0c-.51,0-.7.08-.69.65q.06,3.7,0,7.39c0,.53.11.68.66.68q7.95,0,15.88,0A10.32,10.32,0,0,0,61.76,39.05a7.66,7.66,0,0,0-4.37-6.87C57.05,32,56.72,31.82,56.29,31.59Z"/><path class="cls-1" d="M171,10.89v.86c0,4.92,0,9.85,0,14.77,0,.54-.1.74-.69.72-1.52,0-3,0-4.57,0-.48,0-.66-.09-.66-.63q0-13,0-26c0-.53.18-.62.66-.61,1.54,0,3.09,0,4.64,0a1.12,1.12,0,0,1,1,.54q5.37,7.5,10.78,15c.13.2.28.38.45.62a1.31,1.31,0,0,0,.1-.79c0-4.87,0-9.75,0-14.62,0-.54.09-.75.69-.73,1.57.05,3.15,0,4.72,0,.4,0,.52.1.52.52q0,13.07,0,26.13c0,.51-.19.58-.63.58-1.52,0-3,0-4.57,0a1.18,1.18,0,0,1-1.12-.56q-5.4-7.56-10.85-15.1Z"/><path class="cls-1" d="M198.85,10.88v7c0,2.89,0,5.79,0,8.69,0,.48-.1.66-.63.65-1.54,0-3.09,0-4.64,0-.53,0-.62-.17-.62-.65q0-13,0-26c0-.49.15-.59.6-.58,1.6,0,3.19,0,4.79,0a.94.94,0,0,1,.88.46Q204.65,8,210.1,15.56c.13.19.28.37.44.58a1.41,1.41,0,0,0,.1-.84q0-7.31,0-14.62c0-.54.12-.69.67-.68,1.57.05,3.14,0,4.71,0,.41,0,.52.1.52.52q0,13.07,0,26.14c0,.52-.2.57-.63.57-1.55,0-3.1,0-4.64,0a1.07,1.07,0,0,1-1-.52q-5.42-7.56-10.86-15.1Z"/><path class="cls-1" d="M137.19,12c0-3.74,0-7.48,0-11.22,0-.67.19-.78.8-.77q2.17.08,4.35,0c.61,0,.8.11.8.78,0,6.73,0,13.46,0,20.2,0,.6.1.8.77.79,3.45,0,6.91,0,10.37,0,.54,0,.67-.13.66-.67,0-6.78,0-13.56,0-20.35,0-.58.1-.77.73-.75,1.52.05,3,0,4.56,0,.43,0,.63,0,.63.57,0,7.53,0,15.06,0,22.59a3.9,3.9,0,0,1-4.08,4q-7.68,0-15.37,0a3.92,3.92,0,0,1-4.12-4.15C137.18,19.38,137.19,15.68,137.19,12Z"/><path class="cls-1" d="M111.26,15.21c0-3.69,0-7.38,0-11.08a4,4,0,0,1,1.89-3.6A3.19,3.19,0,0,1,114.92,0c5.75,0,11.5,0,17.25,0,.57,0,.72.15.7.71,0,1.33,0,2.66,0,4,0,.56-.12.72-.7.72-4.76,0-9.52,0-14.28,0-.59,0-.79.13-.74.74a25.05,25.05,0,0,1,0,2.6c0,.5.15.58.6.58,4.79,0,9.57,0,14.36,0,.66,0,.79.19.77.8,0,1.3,0,2.6,0,3.91,0,.61-.12.8-.78.8-4.74,0-9.47,0-14.21,0-.6,0-.75.13-.75.74,0,3.69,0,7.38,0,11.07,0,.53-.1.7-.66.68-1.5,0-3,0-4.49,0-.59,0-.78-.12-.77-.74C111.28,22.74,111.26,19,111.26,15.21Z"/><path class="cls-1" d="M220.91,0h7.21c.35,0,.42.28.57.48l5.84,7.93c.29-.09.38-.36.53-.56L240.5.46c.15-.2.24-.45.59-.45,2.36,0,4.72,0,7.2,0l-2,2.82Q242.1,8.51,238,14.17a2.09,2.09,0,0,0-.43,1.32c0,3.69,0,7.38,0,11.07,0,.53-.11.7-.67.68-1.5,0-3,0-4.49,0-.59,0-.78-.12-.77-.74,0-3.69,0-7.38,0-11.07a2,2,0,0,0-.41-1.26C227.82,9.5,224.41,4.83,220.91,0Z"/><path class="cls-1" d="M26.16,25.67H12l-9.51,0H0V52.42H7l5,0h.65l.52-.38a2.42,2.42,0,0,0,1-2.43h0c0-3.65,0-7.41,0-11.13H26.28a2.71,2.71,0,0,0,2-.73,2.63,2.63,0,0,0,.7-2c0-2.69,0-5.09,0-7.32a2.77,2.77,0,0,0-.73-2.09A2.83,2.83,0,0,0,26.16,25.67ZM28,35.85a1.71,1.71,0,0,1-.42,1.25,1.67,1.67,0,0,1-1.24.43H20.45c-2.44,0-4.87,0-7.31,0,0,4,0,7.94,0,11.91v.31a1.5,1.5,0,0,1-.56,1.54l-.26.19L1,51.42V26.68l11,0H26.13a1.84,1.84,0,0,1,1.39.46A1.78,1.78,0,0,1,28,28.5C27.92,30.73,27.92,33.14,28,35.85Z"/><path class="cls-1" d="M27.52,27.13a1.84,1.84,0,0,0-1.39-.46H12l-11,0V51.42l11.33,0,.26-.19a1.5,1.5,0,0,0,.56-1.54v-.31c0-4,0-7.94,0-11.91,2.44,0,4.87,0,7.31,0H26.3a1.67,1.67,0,0,0,1.24-.43A1.71,1.71,0,0,0,28,35.85c0-2.71,0-5.12,0-7.35A1.78,1.78,0,0,0,27.52,27.13ZM27,35.87c0,.55-.15.66-.66.66h0c-4.45,0-8.89,0-13.34,0h0c-.67,0-.78.22-.78.84,0,4.12,0,8.25,0,12.37,0,.25.13.54-.14.74l-10,0V27.68l10,0,9.67,0h4.48c.64,0,.82.16.8.81C26.92,30.94,26.93,33.41,27,35.87Z"/><path class="cls-1" d="M26.16,11.47H12l-5,0H0V24.32H2l5,0h5.33l.47,0h6.35c2.37,0,4.75,0,7.12,0h0a2.71,2.71,0,0,0,2-.73,2.64,2.64,0,0,0,.7-2c0-2.74,0-5.14,0-7.32a2.59,2.59,0,0,0-2.8-2.85ZM28,21.66a1.72,1.72,0,0,1-.42,1.25,1.66,1.66,0,0,1-1.24.43c-2.39,0-4.75,0-7.12,0H12.8l-.5,0H12l-11,0V12.49l11,0H26.14a1.87,1.87,0,0,1,1.38.47A1.78,1.78,0,0,1,28,14.31C27.92,16.5,27.92,18.9,28,21.66Z"/><path class="cls-1" d="M27.52,12.94a1.87,1.87,0,0,0-1.38-.47H12l-11,0V23.32l11,0h.28l.5,0h6.38c2.37,0,4.73,0,7.12,0a1.66,1.66,0,0,0,1.24-.43A1.72,1.72,0,0,0,28,21.66c0-2.76,0-5.16,0-7.35A1.78,1.78,0,0,0,27.52,12.94ZM27,21.67c0,.54-.14.67-.66.67h0c-2.37,0-4.75,0-7.13,0H12.8l-.79,0-10,0V13.49l10,0,9.71,0h4.44c.63,0,.82.16.8.82C26.92,16.75,26.93,19.21,27,21.67Z"/><path class="cls-1" d="M63.76,38.9a9.82,9.82,0,0,0-3.91-7.56,10.19,10.19,0,0,0,3.37-6,14.87,14.87,0,0,0,0-3.9,10.83,10.83,0,0,0-11-10.12c-2.79,0-5.59-.07-8.38-.09s-5.58,0-8.36-.08h-.06a2.59,2.59,0,0,0-1.92.72,2.63,2.63,0,0,0-.7,2c0,2.63,0,5,0,7.26a2.49,2.49,0,0,0,2.68,2.74H47.87a1.09,1.09,0,0,1,.69.15.75.75,0,0,1-.51,1.36H42.19l-6.74,0h0a2.49,2.49,0,0,0-2.68,2.7c0,2.66,0,5,0,7.1a2.76,2.76,0,0,0,.72,2,2.71,2.71,0,0,0,2,.74l6.39,0H47.7a.79.79,0,0,1,.84.49.67.67,0,0,1-.07.67.82.82,0,0,1-.7.34H42.33l-6.87,0h0a2.65,2.65,0,0,0-2,.73,2.61,2.61,0,0,0-.71,2c0,2.29,0,4.69,0,7.33a2.47,2.47,0,0,0,2.65,2.71l9.47,0,6.41,0h.06a12.56,12.56,0,0,0,9.2-4A12.11,12.11,0,0,0,63.76,38.9Zm-3.93,8.56a11.55,11.55,0,0,1-8.47,3.68l-6.48,0c-3.15,0-6.29,0-9.44,0h0a1.68,1.68,0,0,1-1.24-.44,1.73,1.73,0,0,1-.42-1.25c0-2.64,0-5.05,0-7.36a1.49,1.49,0,0,1,1.67-1.67l6.91,0h5.44a1.84,1.84,0,0,0,1.51-.77,1.73,1.73,0,0,0,.19-1.59,1.77,1.77,0,0,0-1.78-1.14H41.91l-6.38,0h0a1.77,1.77,0,0,1-1.33-.44,1.74,1.74,0,0,1-.43-1.31c0-2.14,0-4.48,0-7.13a1.68,1.68,0,0,1,.42-1.26,1.71,1.71,0,0,1,1.24-.43l6.72,0h5.91a1.72,1.72,0,0,0,1.74-1.22,1.76,1.76,0,0,0-.65-2,2.12,2.12,0,0,0-1.26-.33H35.48a1.7,1.7,0,0,1-1.29-.44,1.67,1.67,0,0,1-.42-1.29c0-2.24,0-4.63,0-7.28a1.66,1.66,0,0,1,.41-1.27,1.6,1.6,0,0,1,1.21-.43c2.83,0,5.62.06,8.41.08l8.38.08a9.88,9.88,0,0,1,10,9.23,14.34,14.34,0,0,1,0,3.65,9.94,9.94,0,0,1-4.06,6.23C61,33,62.48,35.44,62.76,39A11.09,11.09,0,0,1,59.83,47.46Z"/><path class="cls-1" d="M58.17,31.46a9.94,9.94,0,0,0,4.06-6.23,14.34,14.34,0,0,0,0-3.65,9.88,9.88,0,0,0-10-9.23l-8.38-.08c-2.79,0-5.58,0-8.41-.08a1.6,1.6,0,0,0-1.21.43,1.66,1.66,0,0,0-.41,1.27c0,2.65,0,5,0,7.28a1.67,1.67,0,0,0,.42,1.29,1.7,1.7,0,0,0,1.29.44h12.4a2.12,2.12,0,0,1,1.26.33,1.76,1.76,0,0,1,.65,2,1.72,1.72,0,0,1-1.74,1.22H42.14l-6.72,0a1.71,1.71,0,0,0-1.24.43,1.68,1.68,0,0,0-.42,1.26c0,2.65,0,5,0,7.13a1.74,1.74,0,0,0,.43,1.31,1.77,1.77,0,0,0,1.33.44h0l6.38,0H47.7a1.77,1.77,0,0,1,1.78,1.14,1.73,1.73,0,0,1-.19,1.59,1.84,1.84,0,0,1-1.51.77H42.34l-6.91,0a1.49,1.49,0,0,0-1.67,1.67c0,2.31,0,4.72,0,7.36a1.73,1.73,0,0,0,.42,1.25,1.68,1.68,0,0,0,1.24.44h0c3.15,0,6.29,0,9.44,0l6.48,0a11.55,11.55,0,0,0,8.47-3.68A11.09,11.09,0,0,0,62.76,39C62.48,35.44,61,33,58.17,31.46ZM51.36,50.14h0l-6.42,0c-3.15,0-6.31,0-9.46,0h0c-.54,0-.66-.15-.65-.68q0-3.69,0-7.39c0-.56.18-.65.67-.65h0l6.88,0h5.45a2.75,2.75,0,0,0,2.64-3.71,2.78,2.78,0,0,0-2.72-1.79H41.89l-6.37,0h0c-.56,0-.75-.11-.74-.73q.06-3.59,0-7.17c0-.53.13-.67.66-.67h0l6.75,0h5.86a2.75,2.75,0,0,0,1.67-5,3.06,3.06,0,0,0-1.84-.52H35.45c-.56,0-.69-.16-.68-.71,0-2.44,0-4.88,0-7.31,0-.5.07-.69.62-.69h0c5.58.07,11.16.09,16.75.16a8.9,8.9,0,0,1,9,8.33,12.84,12.84,0,0,1,.05,3.39c-.42,2.64-2.1,4.43-4.14,5.95-.23.18-.47.33-.81.57.43.23.76.42,1.1.59a7.66,7.66,0,0,1,4.37,6.87A10.31,10.31,0,0,1,51.36,50.14Z"/><path class="cls-1" d="M189.62,37.58a3.75,3.75,0,0,0-.57-.09H163.47A6.1,6.1,0,0,0,159.36,39a6.45,6.45,0,0,0-2.29,5.17q0,15.6,0,31.2a8.44,8.44,0,0,0,0,.87A6.35,6.35,0,0,0,162.4,82a25.57,25.57,0,0,0,4.63,0h22a6.18,6.18,0,0,0,3.11-.71,5.93,5.93,0,0,0,3.46-5.4c0-10.78,0-21.55,0-32.33C195.59,40.25,192.32,37.45,189.62,37.58Zm-9.26,0h0ZM186,72.55c0,.52-.11.69-.67.68-2,0-4,0-6,0H167.18c-.24,0-.51,0-.46-.39a1.47,1.47,0,0,0,0-.21q0-12.82,0-25.63c0-.56.22-.61.68-.61,3.16,0,6.33,0,9.49,0,2.83,0,5.65,0,8.48,0,.53,0,.68.13.68.68Q186,59.82,186,72.55Z"/><path class="cls-1" d="M149.93,43.11a5.09,5.09,0,0,0-.78-2.38,6.54,6.54,0,0,0-5.91-3.25H125.12l-.57,0v0c-1.92,0-3.84-.09-5.77,0-.4,0-.8-.06-1.21-.06-1.76,0-3.52,0-5.29,0-.65,0-.84.15-.84.83q0,18,0,36V81.5c0,.34,0,.6.46.59,2.66,0,5.31,0,8,0h20.58c1.16,0,2.32,0,3.47,0a6.27,6.27,0,0,0,6-6c.05-4.25,0-8.49,0-12.74a6,6,0,0,0-2.92-5,8.31,8.31,0,0,0-2.79-1.06A6.54,6.54,0,0,0,150,51C150,48.37,150.06,45.74,149.93,43.11ZM121,47c0-.43.09-.6.56-.57s1.2,0,1.8,0h4.52l.79,0h11.63c0,2.12,0,4.24,0,6.36l-7.24,0h-5.8c-1.85,0-3.71,0-5.56,0-.5,0-.71-.07-.69-.65C121.08,50.43,121.07,48.7,121,47Zm6.09,14.67c2,.07,4,0,6,0h7.21c0,.27.06.53.06.79l0,10.77-4.62,0h-8.27c-1.93,0-3.86,0-5.79,0-.47,0-.6-.12-.6-.6q0-5.16,0-10.34c0-.53.19-.62.67-.62,1.8,0,3.61,0,5.42,0"/><path class="cls-1" d="M214.17,37.58H202.84l4.61,6.26c1.21,1.64,2.44,3.27,3.66,4.91.8,1.26,1.72,2.44,2.63,3.62,1.49,2,3,4.07,4.46,6.12,1,1.36,1,1.35-.06,2.73-1.48,2-2.94,4-4.41,6.06a.33.33,0,0,1,.11.13.33.33,0,0,0-.11-.13h0l-.12.13L211,71l-5.82,7.87L202.84,82h10.89a1.69,1.69,0,0,0,2-.92c1.31-1.91,2.73-3.72,4.08-5.6,1.24-1.72,2.57-3.36,3.71-5.15.44-.57.9-1.13,1.31-1.72.31-.44.48-.59.89,0,2.28,3.15,4.6,6.26,6.91,9.39.85,1.16,1.72,2.32,2.53,3.51a1.13,1.13,0,0,0,1.07.55c3.55,0,7.1,0,10.65,0a1,1,0,0,0,.77-.14L233.21,62.48c-.47-.67-.9-1.36-1.42-2a.88.88,0,0,1,0-1.34,10.3,10.3,0,0,0,1.41-2,.77.77,0,0,0,.16-.15q3.49-4.73,7-9.46c2-2.7,4-5.4,6-8.1l1.41-2h-11.6a.86.86,0,0,0-.8.38L233,41.05a2,2,0,0,0-.25.26q-3.56,4.88-7.09,9.78c-.33.46-.53.41-.82,0s-.74-1-1.11-1.48c-.7-1.11-1.54-2.13-2.33-3.19q-3-4.12-6-8.29a1.08,1.08,0,0,0-1.2-.54"/></g></g></svg>