<svg xmlns="http://www.w3.org/2000/svg" xmlns:xlink="http://www.w3.org/1999/xlink" viewBox="0 0 246.29 82.14"><defs><style>.cls-1{fill:#fdbb14;}.cls-2{fill:#272425;}.cls-3{fill:url(#linear-gradient);}.cls-4{fill:url(#linear-gradient-2);}.cls-5{fill:url(#linear-gradient-3);}</style><linearGradient id="linear-gradient" x1="247.52" y1="59.82" x2="120.99" y2="59.82" gradientUnits="userSpaceOnUse"><stop offset="0" stop-color="#84719d"/><stop offset="0.11" stop-color="#7b8db7"/><stop offset="0.23" stop-color="#6eb0d6"/><stop offset="0.35" stop-color="#6fbacf"/><stop offset="0.38" stop-color="#6fbacb"/><stop offset="0.4" stop-color="#71bac0"/><stop offset="0.42" stop-color="#73baad"/><stop offset="0.45" stop-color="#77ba92"/><stop offset="0.47" stop-color="#7bba70"/><stop offset="0.48" stop-color="#7eba59"/><stop offset="0.53" stop-color="#82ba56"/><stop offset="0.58" stop-color="#8dba4e"/><stop offset="0.62" stop-color="#9fb941"/><stop offset="0.67" stop-color="#a3b940"/><stop offset="0.71" stop-color="#aeb83f"/><stop offset="0.74" stop-color="#bab73d"/><stop offset="0.77" stop-color="#beb33c"/><stop offset="0.8" stop-color="#c8a83b"/><stop offset="0.83" stop-color="#da9538"/><stop offset="0.84" stop-color="#e58a36"/><stop offset="0.91" stop-color="#e17739"/><stop offset="1" stop-color="#d24050"/></linearGradient><linearGradient id="linear-gradient-2" x1="247.52" y1="59.78" x2="120.99" y2="59.78" xlink:href="#linear-gradient"/><linearGradient id="linear-gradient-3" x1="247.52" y1="59.8" x2="120.99" y2="59.8" xlink:href="#linear-gradient"/></defs><g id="Layer_2" data-name="Layer 2"><g id="Layer_1-2" data-name="Layer 1"><path class="cls-1" d="M10,13.46c0-4.19,0-8.39,0-12.59,0-.56.12-.72.7-.72q40.2,0,80.39,0c.76,0,.72.33.72.85V82.14H10V50.45c.27-.2.14-.49.14-.74,0-4.12,0-8.25,0-12.37,0-.63.11-.85.8-.84,4.45,0,8.89,0,13.34,0,.53,0,.69-.11.68-.66,0-2.46,0-4.93,0-7.39,0-.66-.17-.82-.82-.81-4.71,0-9.42,0-14.13,0V22.35l.79,0c4.5,0,9,0,13.48,0,.54,0,.69-.12.68-.67,0-2.46,0-4.92,0-7.38,0-.67-.17-.82-.82-.82C19.43,13.49,14.72,13.47,10,13.46ZM54.29,31.59c.34-.24.58-.39.81-.57,2-1.52,3.72-3.31,4.14-5.95a12.83,12.83,0,0,0-.05-3.39,8.88,8.88,0,0,0-9-8.32c-5.59-.08-11.17-.1-16.75-.17-.58,0-.66.18-.65.69,0,2.43,0,4.87,0,7.31,0,.56.12.72.7.71,4.13,0,8.26,0,12.4,0a3.11,3.11,0,0,1,1.85.52,2.75,2.75,0,0,1-1.67,5q-6.3,0-12.61,0c-.55,0-.68.13-.68.67q.06,3.59,0,7.17c0,.63.18.74.76.73,4.06,0,8.12,0,12.18,0a2.78,2.78,0,0,1,2.72,1.79,2.75,2.75,0,0,1-2.64,3.71q-6.16,0-12.33,0c-.51,0-.7.08-.69.65q.06,3.7,0,7.39c0,.53.11.68.66.68q7.95,0,15.88,0A10.32,10.32,0,0,0,59.76,39.05a7.66,7.66,0,0,0-4.37-6.87C55.05,32,54.72,31.82,54.29,31.59Z"/><path class="cls-2" d="M10,27.66c4.71,0,9.42,0,14.13,0,.65,0,.84.15.82.81,0,2.46,0,4.93,0,7.39,0,.55-.15.66-.68.66-4.45,0-8.89,0-13.34,0-.69,0-.81.21-.8.84,0,4.12,0,8.25,0,12.37,0,.25.13.54-.14.74l-10,0V27.68Z"/><path class="cls-2" d="M10,13.46c4.71,0,9.42,0,14.13,0,.65,0,.84.15.82.82,0,2.46,0,4.92,0,7.38,0,.55-.14.67-.68.67-4.49,0-9,0-13.48,0l-.79,0-10,0V13.49Z"/><path class="cls-2" d="M169,10.89v.86c0,4.92,0,9.85,0,14.77,0,.54-.1.74-.69.72-1.52,0-3,0-4.57,0-.48,0-.66-.09-.66-.63q0-13,0-26c0-.53.18-.62.66-.61,1.54,0,3.09,0,4.63,0a1.13,1.13,0,0,1,1.06.54q5.37,7.5,10.78,15c.13.2.28.38.45.62a1.31,1.31,0,0,0,.1-.79c0-4.87,0-9.75,0-14.62,0-.54.09-.75.69-.73,1.57.05,3.15,0,4.72,0,.4,0,.52.1.52.52q0,13.07,0,26.13c0,.51-.19.58-.63.58-1.52,0-3,0-4.57,0a1.18,1.18,0,0,1-1.12-.56q-5.4-7.56-10.85-15.1Z"/><path class="cls-2" d="M196.85,10.88v7c0,2.89,0,5.79,0,8.69,0,.48-.1.66-.63.65-1.54,0-3.09,0-4.64,0-.53,0-.62-.17-.62-.65q0-13,0-26c0-.49.15-.59.6-.58,1.6,0,3.19,0,4.79,0a.94.94,0,0,1,.88.46Q202.65,8,208.1,15.56c.13.19.28.37.44.58a1.41,1.41,0,0,0,.1-.84q0-7.31,0-14.62c0-.54.12-.69.67-.68,1.57.05,3.14,0,4.71,0,.41,0,.52.1.52.52q0,13.07,0,26.14c0,.52-.2.57-.63.57-1.55,0-3.1,0-4.64,0a1.07,1.07,0,0,1-1-.52q-5.42-7.56-10.86-15.1Z"/><path class="cls-2" d="M135.19,12c0-3.74,0-7.48,0-11.22,0-.67.19-.78.8-.77q2.17.08,4.35,0c.61,0,.8.11.8.78,0,6.73,0,13.46,0,20.2,0,.6.1.8.77.79,3.45,0,6.91,0,10.37,0,.54,0,.67-.13.66-.67,0-6.78,0-13.56,0-20.35,0-.58.1-.77.73-.75,1.52.05,3,0,4.56,0,.43,0,.63,0,.63.57,0,7.53,0,15.06,0,22.59a3.9,3.9,0,0,1-4.08,4q-7.68,0-15.37,0a3.92,3.92,0,0,1-4.12-4.15C135.18,19.38,135.19,15.68,135.19,12Z"/><path class="cls-2" d="M109.26,15.21c0-3.69,0-7.38,0-11.08a4,4,0,0,1,1.89-3.6A3.19,3.19,0,0,1,112.92,0c5.75,0,11.5,0,17.25,0,.57,0,.72.15.7.71,0,1.33,0,2.66,0,4,0,.56-.12.72-.7.72-4.76,0-9.52,0-14.28,0-.59,0-.79.13-.74.74a25.05,25.05,0,0,1,0,2.6c0,.5.15.58.6.58,4.79,0,9.57,0,14.36,0,.66,0,.79.19.77.8,0,1.3,0,2.6,0,3.91,0,.61-.12.8-.78.8-4.74,0-9.47,0-14.21,0-.6,0-.75.13-.75.74,0,3.69,0,7.38,0,11.07,0,.53-.1.7-.66.68-1.5,0-3,0-4.49,0-.59,0-.78-.12-.77-.74C109.28,22.74,109.26,19,109.26,15.21Z"/><path class="cls-2" d="M218.91,0h7.21c.35,0,.42.28.57.48l5.84,7.93c.29-.09.38-.36.53-.56L238.5.46c.15-.2.24-.45.59-.45,2.36,0,4.72,0,7.2,0l-2,2.82Q240.1,8.51,236,14.17a2.09,2.09,0,0,0-.43,1.32c0,3.69,0,7.38,0,11.07,0,.53-.11.7-.67.68-1.5,0-3,0-4.49,0-.59,0-.78-.12-.77-.74,0-3.69,0-7.38,0-11.07a2,2,0,0,0-.41-1.26C225.82,9.5,222.41,4.83,218.91,0Z"/><path class="cls-2" d="M54.29,31.59c.43.23.76.42,1.1.59a7.66,7.66,0,0,1,4.37,6.87A10.32,10.32,0,0,1,49.31,50.14q-7.94,0-15.88,0c-.55,0-.67-.15-.66-.68q0-3.69,0-7.39c0-.57.18-.65.69-.65q6.16,0,12.33,0a2.75,2.75,0,0,0,2.64-3.71,2.78,2.78,0,0,0-2.72-1.79c-4.06,0-8.12,0-12.18,0-.58,0-.77-.1-.76-.73q.06-3.59,0-7.17c0-.54.13-.67.68-.67q6.3,0,12.61,0a2.75,2.75,0,0,0,1.67-5,3.11,3.11,0,0,0-1.85-.52c-4.14,0-8.27,0-12.4,0-.58,0-.71-.15-.7-.71,0-2.44,0-4.88,0-7.31,0-.51.07-.7.65-.69,5.58.07,11.16.09,16.75.17a8.88,8.88,0,0,1,9,8.32,12.83,12.83,0,0,1,.05,3.39c-.42,2.64-2.1,4.43-4.14,5.95C54.87,31.2,54.63,31.35,54.29,31.59Z"/><path class="cls-3" d="M187.62,37.58a3.75,3.75,0,0,0-.57-.09H161.47A6.1,6.1,0,0,0,157.36,39a6.45,6.45,0,0,0-2.29,5.17q0,15.6,0,31.2a8.44,8.44,0,0,0,0,.87A6.35,6.35,0,0,0,160.4,82a25.57,25.57,0,0,0,4.63,0h22a6.18,6.18,0,0,0,3.11-.71,5.93,5.93,0,0,0,3.46-5.4c0-10.78,0-21.55,0-32.33C193.59,40.25,190.32,37.45,187.62,37.58Zm-9.26,0h0ZM184,72.55c0,.52-.11.69-.67.68-2,0-4,0-6,0H165.18c-.24,0-.51,0-.46-.39a1.47,1.47,0,0,0,0-.21q0-12.82,0-25.63c0-.56.22-.61.68-.61,3.16,0,6.33,0,9.49,0,2.83,0,5.65,0,8.48,0,.53,0,.68.13.68.68Q184,59.82,184,72.55Z"/><path class="cls-4" d="M147.92,43.11a5,5,0,0,0-.77-2.38,6.54,6.54,0,0,0-5.91-3.25H123.12l-.57,0v0c-1.92,0-3.84-.09-5.77,0-.4,0-.8-.06-1.21-.06-1.76,0-3.52,0-5.29,0-.65,0-.84.15-.84.83q0,18,0,36V81.5c0,.34,0,.6.46.59,2.66,0,5.31,0,8,0h20.58c1.16,0,2.32,0,3.47,0a6.27,6.27,0,0,0,6-6c.05-4.25,0-8.49,0-12.74a6,6,0,0,0-2.92-5,8.31,8.31,0,0,0-2.79-1.06A6.54,6.54,0,0,0,148,51C148,48.37,148.06,45.74,147.92,43.11ZM119,47c0-.43.09-.6.56-.57s1.2,0,1.8,0h4.52l.79,0h11.63c0,2.12,0,4.24,0,6.36l-7.24,0h-5.8c-1.85,0-3.71,0-5.56,0-.5,0-.71-.07-.69-.65C119.08,50.43,119.07,48.7,119,47Zm6.09,14.67c2,.07,4,0,6,0h7.21c0,.27.06.53.06.79l0,10.77-4.62,0h-8.27c-1.93,0-3.86,0-5.79,0-.47,0-.6-.12-.6-.6q0-5.16,0-10.34c0-.53.19-.62.67-.62,1.8,0,3.61,0,5.42,0"/><path class="cls-5" d="M212.17,37.58H200.84l4.6,6.26,3.67,4.91c.8,1.26,1.72,2.44,2.63,3.62,1.49,2,3,4.07,4.46,6.12,1,1.36,1,1.35-.06,2.73-1.48,2-2.94,4-4.41,6.06a.33.33,0,0,1,.11.13.33.33,0,0,0-.11-.13h0l-.12.13L209,71l-5.82,7.87L200.84,82h10.89a1.69,1.69,0,0,0,2-.92c1.31-1.91,2.73-3.72,4.08-5.6,1.24-1.72,2.57-3.36,3.71-5.15.44-.57.9-1.13,1.31-1.72.31-.44.48-.59.89,0,2.28,3.15,4.6,6.26,6.91,9.39.85,1.16,1.72,2.32,2.53,3.51a1.13,1.13,0,0,0,1.07.55c3.55,0,7.1,0,10.65,0a1,1,0,0,0,.77-.14L231.21,62.48c-.47-.67-.9-1.36-1.42-2a.88.88,0,0,1,0-1.34,10.3,10.3,0,0,0,1.41-2,.77.77,0,0,0,.16-.15q3.49-4.73,7-9.46c2-2.7,4-5.4,6-8.1l1.41-2h-11.6a.86.86,0,0,0-.8.38L231,41.05a2,2,0,0,0-.25.26q-3.56,4.88-7.09,9.78c-.33.46-.53.41-.82,0s-.74-1-1.11-1.48c-.7-1.11-1.54-2.13-2.33-3.19q-3-4.12-6-8.29a1.08,1.08,0,0,0-1.2-.54"/></g></g></svg>