<svg xmlns="http://www.w3.org/2000/svg" viewBox="0 0 227.26 60.71"><defs><style>.cls-1{fill:#fff;}</style></defs><g id="Layer_2" data-name="Layer 2"><g id="Layer_1-2" data-name="Layer 1"><path class="cls-1" d="M17.53,44.84h0Z"/><path class="cls-1" d="M75.82,55.58,89.12,55h0Z"/><path class="cls-1" d="M88.9,6.06c-2,0-4,0-6-.1,2,.08,4,.09,6,.1Z"/><path class="cls-1" d="M135.23,6.68c0-1.82,0-3.63,0-5.45,0,1.82,0,3.63,0,5.45Z"/><path class="cls-1" d="M134.91,55.54h0Z"/><path class="cls-1" d="M40.88,5.21c-.05-1-.09-2-.14-3,0,1,.09,2,.14,3Z"/><path class="cls-1" d="M89.12,55c0,1,0,2,0,2.94,0-1,0-2,0-2.94Z"/><path class="cls-1" d="M134.88,59.91l0-4.37h0Z"/><path class="cls-1" d="M88.9.8V6.06h0Z"/><path class="cls-1" d="M134.91,55.54c-.14-2.5.12-5,.12-7.48,0-8.65-.07-17.31.07-26,.09-5.14,0-10.28.13-15.42,0-1.82,0-3.63,0-5.45,0-.85,0-.85-.81-.86-5.15-.06-10.3,0-15.45-.14-7-.15-13.93,0-20.9-.18C95.29,0,92.49,0,89.69,0c-.77,0-.78,0-.79.8V6.06h0c0,3.13,0,6.25,0,9.37,0,3.27-.07,6.55,0,9.81.29,9.55.06,19.09.16,28.63,0,.39,0,.78,0,1.16h0c0,1,0,2,0,2.94,0,.69,0,.72.69.76,1.25.06,2.49.13,3.74.17,2.49.08,5,.21,7.48.34,4.15.21,8.31.38,12.46.55,2.14.09,4.28.12,6.42.25,1.42.1,2.85.11,4.27.18l9.88.48c.76,0,.76,0,.77-.79l0-4.37ZM124.57,27.33h-.27c-.75,0-.74,0-.89-.75a13,13,0,0,0-2.53-5.92,4.8,4.8,0,0,0-4.2-1.95c-.89.06-1.1.24-1.14,1.11,0,.21,0,.42,0,.63v20c0,.27,0,.53,0,.8a1.31,1.31,0,0,0,1.37,1.43c.77,0,1.54,0,2.32,0s.8,0,.8.78c0,1.57.18,1.34-1.3,1.35H104.44c-.29,0-.45-.13-.44-.43v-.08c-.14-1.62-.14-1.62,1.51-1.62.57,0,1.13,0,1.7,0,.85-.09,1.13-.37,1.29-1.21a5.26,5.26,0,0,0,.07-.89V20.48c0-1.58-.26-1.83-1.81-1.77a5.1,5.1,0,0,0-3.91,2.36,12.82,12.82,0,0,0-2.11,5c-.29,1.37-.27,1.36-1.62,1.3-.46,0-.55-.21-.53-.61.09-1.33.14-2.67.22-4,.1-1.66.23-3.32.32-5,.05-1.08,0-1,1.07-1h24.21c.36,0,.45.18.46.5s.09.77.11,1.15q.22,4,.42,8C125.44,27.32,125.42,27.32,124.57,27.33Z"/><path class="cls-1" d="M178.07,56.91l0,2.14,0-2.14Z"/><path class="cls-1" d="M226.57,2.48c-2.26-.1-4.52-.2-6.78-.28l-15.43-.55L195,1.31,178.93.75c-.82,0-.82,0-.83.81l0,5.18c0,.32,0,.65,0,1V55.93c0,.33,0,.66,0,1l0,2.14c0,1.19-.12,1.09,1.12,1.09H223.7c.33,0,.47-.15.48-.49,0-.83.1-1.66.14-2.49q.47-8.23.91-16.48.36-6.45.71-12.92c.21-3.83.4-7.66.6-11.49.07-1.28.15-2.55.22-3.83.17-3.09.34-6.17.49-9.26C227.29,2.51,227.26,2.51,226.57,2.48Zm-12,42.39H202.55c-.29,0-.46-.12-.45-.42,0-.51-.17-1.08.08-1.5s.87-.19,1.32-.23c1.43-.1,1.75-.63,1-1.79-1.43-2.09-2.89-4.15-4.34-6.23a3.49,3.49,0,0,0-.32-.35c-1.32,1.67-2.63,3.21-3.73,4.91a4.78,4.78,0,0,0-.32.64,1.8,1.8,0,0,0,1.08,2.54,5.86,5.86,0,0,0,2.2.29c.82,0,.84,0,.83.85,0,1.48.18,1.29-1.27,1.29-3.48,0-7,0-10.45,0h-.63c-.34,0-.47-.16-.46-.49a4.45,4.45,0,0,1,.05-1.42c.2-.51.84-.29,1.27-.41a6.11,6.11,0,0,0,3.22-2c2.16-2.61,4.28-5.26,6.45-7.87.34-.42.17-.67-.07-1l-6.21-8.84c-.56-.81-1.15-1.59-1.69-2.42A2.93,2.93,0,0,0,187.67,19c-.53,0-.63-.27-.62-.73,0-1.76-.22-1.45,1.46-1.46,3.75,0,7.5,0,11.25,0h.72a.3.3,0,0,1,.33.33c0,.12,0,.24,0,.36,0,1.36,0,1.36-1.3,1.47l-.26,0c-1.18.19-1.45.74-.78,1.72,1.29,1.89,2.62,3.76,3.94,5.63.32.45.38.46.73.06a34.36,34.36,0,0,0,3.3-4.21,3.83,3.83,0,0,0,.34-.63,1.57,1.57,0,0,0-.85-2.15,5.38,5.38,0,0,0-2.17-.46c-.64,0-.66,0-.66-.66,0-1.79-.23-1.47,1.42-1.48,3.19,0,6.37,0,9.56,0h.71a.32.32,0,0,1,.33.34c0,.15,0,.3,0,.45a3.37,3.37,0,0,1-.07,1.15c-.17.41-.68.21-1,.29a6.28,6.28,0,0,0-2.79,1.53,25.7,25.7,0,0,0-2.52,2.89c-1.36,1.69-2.69,3.41-4.07,5.09a.75.75,0,0,0,0,1.08q3.93,5.54,7.82,11.1a4,4,0,0,0,3.27,2c.29,0,.41.13.45.43C216.35,44.79,216.29,44.87,214.61,44.87Zm5.08-21.51A3.71,3.71,0,0,1,216,19.62a3.66,3.66,0,0,1,3.73-3.72,3.73,3.73,0,1,1,0,7.46Z"/><path class="cls-1" d="M41.9,50.21c-.14-2.85,0-5.71-.19-8.56-.13-2.38,0-4.75-.16-7.13-.16-2.73,0-5.47-.2-8.19-.14-2.44,0-4.88-.16-7.31-.17-2.7,0-5.41-.2-8.11-.1-1.9-.1-3.8-.11-5.7-.05-1-.09-2-.14-3,0-.75,0-.75-.81-.76H.63c-.68,0-.67,0-.6.73q.42,4.39.81,8.79c.21,2.31.4,4.62.61,6.93C1.72,21,2,24,2.29,27.11c.2,2.19.39,4.38.59,6.58q.41,4.48.83,9c.2,2.28.39,4.56.6,6.84.27,3,.57,6.1.83,9.15.1,1.29.16,1,1.13,1q17.38,0,34.75,0a4.87,4.87,0,0,1,.54,0c.44,0,.55-.18.55-.59a13.9,13.9,0,0,1,0-2.14A5,5,0,0,1,42,55.74C42,53.89,42,52.05,41.9,50.21ZM29.82,42.7h1.52c.3,0,.43.14.42.43a1.08,1.08,0,0,1,0,.18c0,1.87.26,1.5-1.46,1.52-1,0-2,0-3,0H17.53c-.79,0-.81,0-.8-.75,0-1.66-.21-1.35,1.34-1.39.45,0,.9,0,1.34,0a1.25,1.25,0,0,0,1.3-1.38c0-.24,0-.48,0-.71V21c0-1.85-.22-2.08-2.09-2.15-.48,0-.95,0-1.43,0s-.45-.14-.48-.48c-.14-1.65-.15-1.65,1.53-1.65h13c.33,0,.45.14.48.48.14,1.64.15,1.63-1.45,1.65a13.52,13.52,0,0,0-1.42.08,1.11,1.11,0,0,0-1.12,1.15,6.7,6.7,0,0,0,0,.89V40.62C27.74,42.38,28,42.67,29.82,42.7Z"/><path class="cls-1" d="M46.9,5.3l-6-.09h0Z"/><path class="cls-1" d="M89.13,53.87c-.1-9.54.13-19.08-.16-28.63-.1-3.26,0-6.54,0-9.81,0-3.12,0-6.24,0-9.37h0c-2,0-4,0-6-.1-3.33-.13-6.66,0-10-.18s-6.84,0-10.26-.18c-3.24-.13-6.49-.06-9.73-.17q-3-.1-6-.13l-6-.09h0c0,1.9,0,3.8.11,5.7.16,2.7,0,5.41.2,8.11.14,2.43,0,4.87.16,7.31.16,2.72,0,5.46.2,8.19.13,2.38,0,4.75.16,7.13.14,2.85,0,5.71.19,8.56.1,1.84.06,3.68.07,5.53A5,5,0,0,0,42.11,57c1.31,0,2.61-.08,3.92-.14,2.79-.15,5.59-.25,8.39-.37l13.2-.54,8.2-.34L89.12,55C89.12,54.65,89.14,54.26,89.13,53.87ZM81.06,18.94a5.52,5.52,0,0,0-1.38.37,2.43,2.43,0,0,0-1.38,1.54A5.84,5.84,0,0,0,78,22.61q0,3.53,0,7.05V44c0,.21,0,.42,0,.63,0,.44-.18.58-.59.55a1.37,1.37,0,0,0-.35,0,2.69,2.69,0,0,1-2.76-1.28c-5.55-6.76-11.17-13.47-16.76-20.19a2.55,2.55,0,0,0-.24-.23c-.26.11-.16.31-.16.47,0,4.79,0,9.58,0,14.37a10.47,10.47,0,0,0,.19,1.86,2.61,2.61,0,0,0,2.13,2.25,5.33,5.33,0,0,0,1.49.23c.34,0,.45.15.48.48.14,1.67.15,1.67-1.52,1.67H51.25c-.21,0-.42,0-.63,0s-.46-.1-.44-.41a.27.27,0,0,1,0-.09,3.86,3.86,0,0,1,.06-1.41c.22-.49.86-.17,1.29-.34s.64-.14.95-.23a2.4,2.4,0,0,0,1.71-1.78,7,7,0,0,0,.26-1.76q0-8.67,0-17.32A1.53,1.53,0,0,0,54,20.38,4.85,4.85,0,0,0,51,18.91c-.76-.08-.78-.08-.77-.86,0-1.49-.17-1.3,1.25-1.31,2.65,0,5.3,0,8,0a1.75,1.75,0,0,1,1.51.72c2.91,3.5,5.85,7,8.78,10.46,1.7,2,3.41,4.05,5.12,6.08l.34.39.19-.08v-.86c0-3,0-6,0-8.93,0-.81,0-1.61-.11-2.41-.16-2-1-2.91-3.06-3.15-1.11-.13-1.11-.13-1.1-1.24a2.43,2.43,0,0,1,0-.27c0-.67,0-.68.71-.69h9.82c.69,0,.69,0,.71.7v.09C82.31,18.78,82.31,18.77,81.06,18.94Z"/><path class="cls-1" d="M88.94,15.43c0-3.12,0-6.24,0-9.37h0C88.91,9.19,88.94,12.31,88.94,15.43Z"/><path class="cls-1" d="M178.07,56.91l-16.95-.53,16.95.53Z"/><path class="cls-1" d="M178.07,6.74l-42.84-.06h0Z"/><path class="cls-1" d="M178.07,56.91c0-.32,0-.65,0-1V7.72c0-.33,0-.66,0-1l-42.84-.06h0c-.1,5.14,0,10.28-.13,15.42-.14,8.65-.08,17.31-.07,26,0,2.49-.26,5-.12,7.48h1.16l13.64.46,11.41.37,16.95.53Zm-8.41-21.17q-.16,4.18-.35,8.38c0,.71,0,.72-.77.72H144c-.21,0-.41,0-.62,0s-.46-.12-.48-.46c-.13-1.67-.14-1.66,1.51-1.68a8.53,8.53,0,0,0,1.34-.06,1.19,1.19,0,0,0,1.13-1.26,8.88,8.88,0,0,0,0-.89V21.11c0-.24,0-.48,0-.71-.05-1.07-.37-1.42-1.47-1.49-.62-.05-1.25,0-1.87-.05s-.65,0-.64-.66c0-1.77-.24-1.45,1.44-1.46h24c.62,0,.63,0,.65.65q.1,3.66.19,7.32c0,.53.05,1.07.08,1.6s0,.62-.56.64h-.09c-1.29,0-1.29,0-1.7-1.19a24.32,24.32,0,0,0-.92-2.32,7.41,7.41,0,0,0-6.57-4.5,20.19,20.19,0,0,0-3.39,0c-1.46.12-2,.63-2.17,2.08a15.89,15.89,0,0,0,0,1.69c0,1.94,0,3.87,0,5.81,0,.63,0,.63.65.65a4.87,4.87,0,0,0,4.86-3.1,6.72,6.72,0,0,0,.55-2c0-.36.17-.53.56-.51,1.92.05,1.54-.3,1.58,1.5.06,3.66.1,7.32.15,11,0,.18,0,.36,0,.54,0,.67,0,.68-.7.69a3.19,3.19,0,0,1-1.32-.08c-.43-.21-.23-.8-.32-1.22a5.5,5.5,0,0,0-5.12-4.68c-.82-.08-.89,0-.89.76,0,2.77,0,5.53,0,8.3a4.89,4.89,0,0,0,0,.54c.14,1.09.43,1.48,1.53,1.63a14.24,14.24,0,0,0,6.36-.33,7.27,7.27,0,0,0,4-3.14,17.23,17.23,0,0,0,1.8-4.07c.23-.71.23-.71,1-.62C169.71,34.51,169.71,34.51,169.66,35.74Z"/><path class="cls-1" d="M134.91,55.54h0c-.14-2.5.12-5,.12-7.48C135,50.55,134.77,53,134.91,55.54Z"/><path class="cls-1" d="M144,44.84h0Z"/><path class="cls-1" d="M219.69,16.59a3,3,0,0,0-3,3,3,3,0,0,0,3.05,3.05,2.93,2.93,0,0,0,2.88-3.09A2.89,2.89,0,0,0,219.69,16.59Zm.85,4.78c-.21-.36-.44-.71-.65-1.07a.55.55,0,0,0-.66-.31c-.33.08-.22.37-.24.59s0,.54,0,.8-.11.4-.38.38a.3.3,0,0,1-.31-.34V17.85c0-.27.16-.36.4-.36.54,0,1.08,0,1.61,0a1.14,1.14,0,0,1,1.13,1,1.19,1.19,0,0,1-.66,1.33c-.09.05-.23.05-.28.26.3.51.64,1.06,1,1.62A.62.62,0,0,1,220.54,21.37Z"/><path class="cls-1" d="M220.67,18.72a.55.55,0,0,0-.5-.62,6.56,6.56,0,0,0-.89,0,.25.25,0,0,0-.26.19c-.25.58,0,1,.65,1a3.38,3.38,0,0,0,.45,0A.54.54,0,0,0,220.67,18.72Z"/></g></g></svg>