<svg xmlns="http://www.w3.org/2000/svg" viewBox="0 0 263.9 135.18"><defs><style>.cls-1{fill:#fff;}.cls-2{fill:#75c58d;}.cls-3{fill:#00aeaa;}.cls-4{fill:#c29a6c;}</style></defs><g id="Layer_2" data-name="Layer 2"><g id="Layer_1-2" data-name="Layer 1"><path class="cls-1" d="M186.12,12c3.31-.69,6.47-.43,9.18,1.92,1.38,1.2,1.42,1.23,3,.24A22.79,22.79,0,0,1,210,10.45,26.3,26.3,0,0,1,225.68,15c.55.37.87.44,1.31-.16a19.24,19.24,0,0,1,1.84-2.09,25.7,25.7,0,0,1,9.71-6.58c3.68-1.26,6.72-.18,8.82,3.1A34.75,34.75,0,0,1,252,19.73c1.38,5.66,1.1,11.13-2.38,16.08-.51.72,0,.91.4,1.24a20,20,0,0,1,6.15,7.44c1.38,3,1.95,6.07.2,9.12a11.27,11.27,0,0,1-6,4.9,4.91,4.91,0,0,0-1.74.84c1,.58,1.88,1.1,2.76,1.65a36,36,0,0,1,9,7.3,17.9,17.9,0,0,1,3.57,7.42v4.41c-1,4.49-2.45,8.83-3.74,13.22-2.79,9.45-5.57,18.9-8.84,28.2a80.82,80.82,0,0,1-3.78,8.59c-1.85,3.84-5.08,5.38-9.32,5-5.12-.49-9.94-2.27-14.93-3.29-6.4-1.3-12.84-2.36-19.29-3.38-5.3-.84-10.61-1.67-15.92-2.44q-7.35-1.05-14.71-2-6.56-.84-13.12-1.55c-3.61-.38-7.23-.72-10.86-1-7.61-.54-15.23-.84-22.86-.68-7.31.15-14.61.44-21.91,1s-14.39,1.35-21.54,2.42a264.6,264.6,0,0,0-38.37,8.28,35.74,35.74,0,0,1-9,1.81A13.76,13.76,0,0,1,24,128.94c-2.34-2.91-4-6.28-5.84-9.47-4.83-8.24-9.77-16.43-14.07-25A38,38,0,0,1,.19,82.56,17.22,17.22,0,0,1,5,67.88,48.55,48.55,0,0,1,16.8,59c.2-.12.4-.24.61-.34.85-.37.77-.71,0-1.2a11.43,11.43,0,0,1-2.72-2.33c-2.73-3.37-2.36-7-.68-10.58a19.43,19.43,0,0,1,6.27-7.49c.47-.34.6-.56.23-1.08C17,30.85,16.77,25.23,18.26,19.43a34.29,34.29,0,0,1,4.47-10c2.11-3.29,5.12-4.4,8.82-3.12a25.58,25.58,0,0,1,10.11,7c.66.7,1.16,1.83,2,2.07s1.61-.85,2.44-1.31a26.29,26.29,0,0,1,13.42-3.53c4.26,0,8.25,1,11.62,3.89,2.13,1.85,2.32,1.73,4.54,0l2-1.45a8.28,8.28,0,0,1,9-.95A6.93,6.93,0,0,0,93,11.9c1.43-.69,2.87-1.36,4.25-2.14,7.28-4.08,15.25-6.12,23.32-7.88A76.52,76.52,0,0,1,133.19.2a1.8,1.8,0,0,0,.51-.2h10.23a29.8,29.8,0,0,0,4.88.65m78.06,20.94a10.17,10.17,0,0,0-2.1-2.37,20.92,20.92,0,0,0-7.54-3.74c-5-1.34-9.86-1.34-14.6.87-1.37.63-2.63,1.49-4,2.16-2.39,1.2-3.15,1.07-5-.83a5.82,5.82,0,0,0-3.06-1.74c-2.22-.46-4.3.15-6.39.67a8,8,0,0,1-6.45-.9c-1.55-1-3.1-1.9-4.68-2.81a67,67,0,0,0-30.59-8.68A82.07,82.07,0,0,0,124.9,5.29a108.11,108.11,0,0,0-20.55,5.53c-3,1.14-5.78,3-8.73,4.33-2.06,1-4.12,1.94-6.51,1.84A14.82,14.82,0,0,1,84.8,15.7a5.26,5.26,0,0,0-5.16.73c-1.12.82-2.24,1.65-3.37,2.46a4.61,4.61,0,0,1-5.8,0l-1-.75c-1.67-1.23-3.27-2.58-5.44-2.94a23.51,23.51,0,0,0-7.25-.37c-5.06.73-9.68,2.31-13.11,6.36-.35.4-.49.35-.74-.05-.52-.81-1-1.62-1.63-2.39a25.37,25.37,0,0,0-10-8.25c-2.64-1.2-4.47-.61-5.92,1.81A29,29,0,0,0,21,24.07a13.65,13.65,0,0,0,1.66,8.5,11.37,11.37,0,0,0,5.63,4.88A18.45,18.45,0,0,0,17.47,46c-2,3.44-1.06,6.31,1.83,8.82,2.46,2.13,5.5,3,8.79,3.62-.32.16-.48.26-.66.33a87.26,87.26,0,0,0-9.6,4.37A39.89,39.89,0,0,0,7.4,70.78,13.49,13.49,0,0,0,3.82,83.05,35,35,0,0,0,7,92.22c5.53,11.08,12.09,21.59,18.32,32.27a11.37,11.37,0,0,0,7.16,5.73,15.84,15.84,0,0,0,8.11-.57C48,127.6,55.45,125.47,63,123.9c6.11-1.27,12.26-2.41,18.44-3.32,5.26-.77,10.54-1.45,15.85-2q7-.66,14.08-1.13c1.93-.12,3.86-.17,5.79-.23,5.37-.17,10.73-.39,16.11-.29,7,.14,14,.41,21,1,3.46.31,6.92.61,10.37,1,4.25.48,8.5,1,12.75,1.56s8.57,1.08,12.84,1.7c5.34.78,10.67,1.63,16,2.49,5.1.83,10.21,1.66,15.25,2.77,4.86,1.08,9.61,2.69,14.55,3.36,4.31.59,7.37,0,9.62-4.7a56.72,56.72,0,0,0,2.93-7.19c2.19-6.88,4.34-13.78,6.52-20.66,1.73-5.44,3.28-10.94,4.7-16.47.76-2.94,1-5.86-.65-8.64a22.41,22.41,0,0,0-5.48-6.08,61.9,61.9,0,0,0-11.45-7c-.43-.21-1-.3-1.22-.79.07-.08.11-.16.17-.19l.85-.37a26.92,26.92,0,0,0,9.18-6.17,6.44,6.44,0,0,0,.65-8.31,15.65,15.65,0,0,0-3.31-3.39,17.19,17.19,0,0,0-6.69-3.52c5.55-2.51,7.57-7.27,7.36-12.37-.21-4.9-2.19-9.29-4.78-13.38-1.12-1.79-2.6-2.18-4.75-1.49a20.91,20.91,0,0,0-7.48,4.76A30.58,30.58,0,0,0,226.87,21.59Z"/><path class="cls-1" d="M226.87,21.59a30.58,30.58,0,0,1,5.31-6.71,20.91,20.91,0,0,1,7.48-4.76c2.15-.69,3.63-.3,4.75,1.49C247,15.7,249,20.09,249.19,25c.21,5.1-1.81,9.86-7.36,12.37a17.19,17.19,0,0,1,6.69,3.52,15.65,15.65,0,0,1,3.31,3.39,6.44,6.44,0,0,1-.65,8.31A26.92,26.92,0,0,1,242,58.75l-.85.37c-.06,0-.1.11-.17.19.26.49.79.58,1.22.79a61.9,61.9,0,0,1,11.45,7,22.41,22.41,0,0,1,5.48,6.08c1.64,2.78,1.41,5.7.65,8.64-1.42,5.53-3,11-4.7,16.47-2.18,6.88-4.33,13.78-6.52,20.66a56.72,56.72,0,0,1-2.93,7.19c-2.25,4.72-5.31,5.29-9.62,4.7-4.94-.67-9.69-2.28-14.55-3.36-5-1.11-10.15-1.94-15.25-2.77-5.33-.86-10.66-1.71-16-2.49-4.27-.62-8.56-1.15-12.84-1.7s-8.5-1.08-12.75-1.56c-3.45-.38-6.91-.68-10.37-1-7-.61-14-.88-21-1-5.38-.1-10.74.12-16.11.29-1.93.06-3.86.11-5.79.23q-7,.47-14.08,1.13c-5.31.51-10.59,1.19-15.85,2-6.18.91-12.33,2-18.44,3.32-7.57,1.57-15,3.7-22.44,5.75a15.84,15.84,0,0,1-8.11.57,11.37,11.37,0,0,1-7.16-5.73C19.08,113.81,12.52,103.3,7,92.22a35,35,0,0,1-3.17-9.17A13.49,13.49,0,0,1,7.4,70.78a39.89,39.89,0,0,1,10.43-7.67,87.26,87.26,0,0,1,9.6-4.37c.18-.07.34-.17.66-.33-3.29-.65-6.33-1.49-8.79-3.62-2.89-2.51-3.87-5.38-1.83-8.82a18.45,18.45,0,0,1,10.84-8.52,11.37,11.37,0,0,1-5.63-4.88A13.65,13.65,0,0,1,21,24.07a29,29,0,0,1,4.32-11.76c1.45-2.42,3.28-3,5.92-1.81a25.37,25.37,0,0,1,10,8.25c.58.77,1.11,1.58,1.63,2.39.25.4.39.45.74.05,3.43-4.05,8-5.63,13.11-6.36A23.51,23.51,0,0,1,64,15.2c2.17.36,3.77,1.71,5.44,2.94l1,.75a4.61,4.61,0,0,0,5.8,0c1.13-.81,2.25-1.64,3.37-2.46a5.26,5.26,0,0,1,5.16-.73A14.82,14.82,0,0,0,89.11,17c2.39.1,4.45-.88,6.51-1.84,2.95-1.37,5.68-3.19,8.73-4.33A108.11,108.11,0,0,1,124.9,5.29a82.07,82.07,0,0,1,17.56-1.07,67,67,0,0,1,30.59,8.68c1.58.91,3.13,1.84,4.68,2.81a8,8,0,0,0,6.45.9c2.09-.52,4.17-1.13,6.39-.67a5.82,5.82,0,0,1,3.06,1.74c1.87,1.9,2.63,2,5,.83,1.35-.67,2.61-1.53,4-2.16,4.74-2.21,9.64-2.21,14.6-.87a20.92,20.92,0,0,1,7.54,3.74A10.17,10.17,0,0,1,226.87,21.59Zm-175,27.17-.25.26,0,0-.25.25v0a12.42,12.42,0,0,0-4.09,7.43,6.29,6.29,0,0,0,.74,4.24l.31,5.86c-3.12.75-6.25,1.43-9.36,2.24a133.57,133.57,0,0,0-22,7.63,8.1,8.1,0,0,0-5,6.63,10.72,10.72,0,0,0,1.57,6.87c4.18,7.28,8.45,14.5,12.58,21.8,1.34,2.37,2.51,4.8,4.8,6.44,0,.75.56,1.07,1,1.42a9.45,9.45,0,0,0,7.84,1.56c9-2,18.12-3.88,27.29-5.28q7.92-1.21,15.87-2.23c5.3-.66,10.62-1.16,15.94-1.64q6.56-.58,13.13-.92c3.43-.18,6.86-.29,10.28-.46,3.59-.18,7.19-.08,10.78-.21,3.94-.13,7.88-.13,11.83.13,3.74.25,7.49.06,11.24.25,2.66.14,5.31.33,8,.46,4.24.2,8.45.54,12.67,1,3.25.33,6.51.57,9.75,1,3.7.45,7.37,1.09,11.07,1.56,4.89.62,9.72,1.55,14.55,2.45,7.76,1.46,15.4,3.44,23.07,5.3a7.1,7.1,0,0,0,5.09-.38,9,9,0,0,0,4-4.48c1.78-4,3.26-8.08,4.73-12.19,1.69-4.72,3.32-9.47,5.05-14.17A14,14,0,0,0,255.3,85c-.2-1.77-1.5-3.7-2.89-4.12A9.26,9.26,0,0,0,249,78.35a156,156,0,0,0-18.1-6.83,110.45,110.45,0,0,0-11.18-3c.16-1.93.33-3.85.49-5.78A6.27,6.27,0,0,0,222.58,57c-.22-3.76-2.31-6.55-5-9l-.92-.82c.64,0,1.1,0,1.55,0,6.78.31,14.61-3.37,17.29-11.47.19-.59.59-.72,1.07-.9A9.38,9.38,0,0,0,242.76,28c1.23-5,0-9.71-2.22-14.23-.3-.6-.61-.39-1-.18a22.6,22.6,0,0,0-7.36,6.28,12.65,12.65,0,0,0-2.68,6.33,9.76,9.76,0,0,0,3.22,8.23,1.21,1.21,0,0,1,.34,1.6,19.69,19.69,0,0,1-1.8,3.24c-2.91,4-7,5.28-11.76,5.36-3.25,0-6.24-1-9.28-1.9a45.61,45.61,0,0,0,4.52-11.35,47.36,47.36,0,0,0,1.73-9.06l.1-.09-.06,0,0,.08H216c.46-1.16-.52-.7-.85-.66a94.13,94.13,0,0,0-13.44,2.3c-5.26,1.44-9.93,3.62-11.51,9.51l-2.28-1.14a18.68,18.68,0,0,0,.09-6.79c-.22-1.64-.58-3.27-1-4.88-.31-1.26-.7-1.38-1.73-.64a45.33,45.33,0,0,0-6.14,5.09c-3.61,3.75-3.8,8.27-.53,12.41l.6-1.09a19.65,19.65,0,0,0,1.79,8.3l-.21.18c-1-.6-2-1.24-3-1.78a10.5,10.5,0,0,0-4.73-1.38,3.08,3.08,0,0,0-3.51,2.64c-.31,1.23-.63,2.46-.92,3.7-.92,3.82,1.44,6.54,5.33,6.1a15.29,15.29,0,0,0,7.61-3.12l.22.25c-2.65,3-4.59,6.29-4.41,10.47a30.57,30.57,0,0,1-3.31-.28c-1.16-.22-2.36,0-3.49-.41a3.87,3.87,0,0,0,2.15-.32,12,12,0,0,0,4.91-5.07c.41-.76.08-1-.65-.86a17.13,17.13,0,0,0-5.85,1.7c-2.35,1.26-2.53,2.85-.54,4.57-.39,0-.77,0-1.16,0-6.41-.29-12.83-.65-19.24-.88-6-.21-11.93-.09-17.89-.26-5.65-.16-11.31-.11-17,0-5.07.07-10.13.28-15.2.43,1-1.61,1-2.58-.47-3.55-2.34-1.57-5-2-8-2.26a12.51,12.51,0,0,0,5.43,6l-4.68.29C92.35,57,90.49,54,88,51.16c.52-.17.78.19,1.1.38A17.89,17.89,0,0,0,96.39,54c3.59.34,6-2.26,5.25-5.78-.24-1.21-.65-2.39-.92-3.59-.55-2.43-1.61-3.28-4.07-3.12a14.79,14.79,0,0,0-6.76,2.56c-.37.22-.68.7-1.23.42a16.8,16.8,0,0,0,1.81-8.86c2.24-4,1.93-7.12-1.12-10.46a43.65,43.65,0,0,0-6.95-5.77c-.61-.44-.86-.08-1,.4a23.25,23.25,0,0,0-.59,2.36c-.67,3.42-1.21,6.85-.36,10.33a11,11,0,0,0-2.28,1.69C77.51,29.86,75,27,71.05,25.32c-5.9-2.55-12.22-3.1-18.49-3.93-.32,0-.64-.05-.66.41l0,.05a11,11,0,0,0,.49,4C53.46,31.61,55,37.21,58,42.3a1.4,1.4,0,0,1,.34,1.07,23.85,23.85,0,0,1-9.21,1.48c-5.87-.31-10-3-12.33-8.47a1.29,1.29,0,0,1,.33-1.69c3.7-3.72,4.28-8.13,1.7-12.69a21.67,21.67,0,0,0-8.46-8.07c-.63-.36-.93-.25-1.24.38a23.2,23.2,0,0,0-2.56,9.2c-.29,5.31,1.68,10,7,11.75.57.18.64.6.79,1A16.15,16.15,0,0,0,43.51,46a19.28,19.28,0,0,0,9.75,1.48l-1.18,1.12-.23.22Zm81.68,5.38a2.28,2.28,0,0,1-1.25-1.9,3.24,3.24,0,0,0-3.58-2.91c-2.94.17-5.88.33-8.81.56-1,.07-1.34-.07-1.33-1.18q.15-12.72.6-25.42c.07-2.05.17-4.1.11-6.15s-1.27-3.35-2.82-3.2a8.18,8.18,0,0,1-3.34-.54c-2.25-.7-3.73.41-3.64,2.7.43,11,.38,22,.61,33,0,.3.13.69-.12.89-1,.81-1.3,2.24-2.6,3-1.52.85-1.46,2.19-.2,3.44a1.76,1.76,0,0,1,.41.53,2.37,2.37,0,0,0,2.21,1.44,44.23,44.23,0,0,0,4.88.12,139.29,139.29,0,0,1,16.6-.16,3.07,3.07,0,0,0,2.71-.67.34.34,0,0,1,.49-.11c1.24.71,2.64.5,4,.66,2.68.34,4.26-1,4.2-3.71q-.26-10.33,0-20.66a2.71,2.71,0,0,0-3.5-3,3.79,3.79,0,0,1-1.26.08c-2.32-.33-3.43.63-3.5,2.94q-.21,7.6-.48,15.2C133.84,50.7,133.68,52.35,133.55,54.14Zm27.33-16.81h.2c0-5-.08-10.06,0-15.09.06-3-.39-5.62-3.13-7.48-1.38-.93-2.79-.92-3.62.55a7.17,7.17,0,0,0-.89,3.33c-.41,11.64-.5,23.29-.37,34.93.06,4.75,2.75,5.37,6.37,4.35,1.32-.37,1.75-1.35,1.51-2.72a8,8,0,0,1-.09-1.39Zm80.75,15.35a8.8,8.8,0,0,0,6.45-3.49c.26-.3.16-.54,0-.83a14.94,14.94,0,0,0-3.32-4.29c-2.94-2.48-6.24-2.63-9.18-.16-2.77,2.31-2.51,1.74-.72,4.67a9.22,9.22,0,0,0,2.66,2.73A7.51,7.51,0,0,0,241.63,52.68ZM28.49,53c3-.13,5.12-1.89,6.71-4.42s1.69-2-.61-4.1c-3.06-2.71-6.55-2.63-9.63.05a14.4,14.4,0,0,0-3.14,4.12c-.19.33-.29.6,0,.94A8.67,8.67,0,0,0,28.49,53Zm204.68,4.47c0-.18,0-.25,0-.33-.24-2.89-4.71-6.79-7.63-6.65A1.44,1.44,0,0,0,224,51.91a3.46,3.46,0,0,0,.26,1.59,12.71,12.71,0,0,0,4.93,6.13,2.35,2.35,0,0,0,2.61.42A3.17,3.17,0,0,0,233.17,57.46ZM36.73,57.7a3.1,3.1,0,0,0,1.35,2.68c.93.58,1.82.07,2.59-.44a12.09,12.09,0,0,0,5-6.47c.63-2-.35-3.07-2.29-2.54a9.83,9.83,0,0,0-6.2,4.88A3.74,3.74,0,0,0,36.73,57.7ZM52.56,33a9,9,0,0,0-1.17-4.89c-.42-.71-.72-.8-1.35-.15-3.54,3.61-3.85,7.81-2.38,12.38.17.51.38.6.84.35a5.66,5.66,0,0,0,1.91-1.66A10.82,10.82,0,0,0,52.56,33ZM223,35.39a10.41,10.41,0,0,0-3.09-7.58c-.64-.7-1-.73-1.5.11-2.12,3.41-1,9.6,2.21,12,.18.14.39.26.58.39.53.36.87.31,1-.38A16.75,16.75,0,0,0,223,35.39ZM152,21.11a9,9,0,0,0-.49-3,4.59,4.59,0,0,0-9,.18,4.85,4.85,0,0,0,2.34,5.55c1,.48,1.06.88.43,1.64a2,2,0,0,0-.26.52,1.58,1.58,0,0,0,1.49,2.33,3.63,3.63,0,0,0,2.81-1.15A8.82,8.82,0,0,0,152,21.11Zm-13.43,9.35a3.57,3.57,0,0,0,2.48-.86A4.51,4.51,0,0,0,143,25.26c-.35-2.14-1.18-4.1-3.39-5a1.9,1.9,0,0,0-1.78,0,7,7,0,0,0-3.55,4.23A4.62,4.62,0,0,0,138.61,30.46ZM98.89,36.18a2,2,0,0,0-1.16-1.87,2.13,2.13,0,0,0-2.4.22A11.4,11.4,0,0,0,91,41.2c-.17.64.14.66.61.49a17.34,17.34,0,0,0,6.13-3.43A2.82,2.82,0,0,0,98.89,36.18Zm74.26-1.9a2,2,0,0,0-1,.37c-1.2.88-1.29,2.24-.14,3.51A15.48,15.48,0,0,0,178,41.84c.87.36,1-.05.77-.7a12.47,12.47,0,0,0-3.62-6.07A2.87,2.87,0,0,0,173.15,34.28Z"/><path class="cls-1" d="M133.55,54.14c.13-1.79.29-3.44.35-5.1q.27-7.59.48-15.2c.07-2.31,1.18-3.27,3.5-2.94a3.79,3.79,0,0,0,1.26-.08,2.71,2.71,0,0,1,3.5,3q-.24,10.34,0,20.66c.06,2.67-1.52,4-4.2,3.71-1.33-.16-2.73,0-4-.66a.34.34,0,0,0-.49.11,3.07,3.07,0,0,1-2.71.67,139.29,139.29,0,0,0-16.6.16,44.23,44.23,0,0,1-4.88-.12,2.37,2.37,0,0,1-2.21-1.44,1.76,1.76,0,0,0-.41-.53c-1.26-1.25-1.32-2.59.2-3.44,1.3-.72,1.55-2.15,2.6-3,.25-.2.13-.59.12-.89-.23-11-.18-22-.61-33-.09-2.29,1.39-3.4,3.64-2.7a8.18,8.18,0,0,0,3.34.54c1.55-.15,2.76,1.27,2.82,3.2s0,4.1-.11,6.15q-.47,12.71-.6,25.42c0,1.11.37,1.25,1.33,1.18,2.93-.23,5.87-.39,8.81-.56a3.24,3.24,0,0,1,3.58,2.91A2.28,2.28,0,0,0,133.55,54.14Zm-15.67-34c0-1.19.07-2.16,0-3.12a1.58,1.58,0,0,0-2.33-1.52,1.45,1.45,0,0,1-1.3-.13,8.76,8.76,0,0,0-1.38-.58c-1.44-.45-2-.07-1.93,1.41.15,4,.23,8,.28,12,.09,7.31.26,14.61.38,21.92,0,.34.28.91-.23,1-1,.16-1.18.74-1.15,1.56,0,.38-.32.4-.53.53-.4.24-.83.42-1.21.68-1,.67-1,.93,0,1.58.2.13.4.18.4.49,0,.92.66,1.06,1.35,1,1.89,0,3.77.11,5.67,0a116.84,116.84,0,0,1,15.43-.08c.55.05,1.29.32,1.61-.29s-.33-1.11-.71-1.58a3.69,3.69,0,0,0-.66-.65,1.46,1.46,0,0,1-.59-1.28c-.08-1.81-.79-2.36-2.59-2.26-3.28.2-6.57.32-9.85.54-1,.07-1.35-.18-1.35-1.29C117.19,40,117.52,30,117.88,20.13Zm23.3,24.18c0-3.52,0-7,0-10.56,0-1.39-.63-1.84-2-1.48a2.07,2.07,0,0,1-1.22.14c-1.71-.46-2.12-.07-2.17,1.72-.14,5.14-.29,10.29-.49,15.43a34.81,34.81,0,0,1-.48,5.3c-.21,1.06.18,1.4,1,1.67a19.73,19.73,0,0,0,2.76.21c1.82.32,2.59-.36,2.59-2.22C141.18,51.12,141.19,47.72,141.18,44.31Z"/><path class="cls-1" d="M160.88,37.33V53.81A8,8,0,0,0,161,55.2c.24,1.37-.19,2.35-1.51,2.72-3.62,1-6.31.4-6.37-4.35-.13-11.64,0-23.29.37-34.93a7.17,7.17,0,0,1,.89-3.33c.83-1.47,2.24-1.48,3.62-.55,2.74,1.86,3.19,4.47,3.13,7.48-.1,5,0,10.06,0,15.09Zm-6.34-1q0,8.52,0,17a5.09,5.09,0,0,0,.45,2.25,1.81,1.81,0,0,0,2,1.17c2.38-.21,2.38-.16,2.4-2.48,0-5.87.08-11.75.12-17.63q0-8,.07-16a4.43,4.43,0,0,0-1-3.45,21.36,21.36,0,0,1-1.74-1.46c-.49-.57-1-.2-1.26.37a7.22,7.22,0,0,0-.68,3.14C154.73,25,154.55,30.66,154.54,36.35Z"/><path class="cls-1" d="M152,21.11a8.82,8.82,0,0,1-2.63,6.11,3.63,3.63,0,0,1-2.81,1.15A1.58,1.58,0,0,1,145.11,26a2,2,0,0,1,.26-.52c.63-.76.54-1.16-.43-1.64a4.85,4.85,0,0,1-2.34-5.55,4.59,4.59,0,0,1,9-.18A9,9,0,0,1,152,21.11Zm-5.56,5.75a2,2,0,0,0,2-.72A7.4,7.4,0,0,0,149.92,18a3,3,0,0,0-3-1.81,3,3,0,0,0-2.79,2.09,3.49,3.49,0,0,0,2.07,4.63c1.58.62,1.71,1,.93,2.47C146.91,25.85,146.48,26.23,146.48,26.86Z"/><path class="cls-1" d="M138.61,30.46a4.62,4.62,0,0,1-4.32-6.06,7,7,0,0,1,3.55-4.23,1.9,1.9,0,0,1,1.78,0c2.21.94,3,2.9,3.39,5a4.51,4.51,0,0,1-1.92,4.34A3.57,3.57,0,0,1,138.61,30.46Zm-3-5.52c0,2.45.55,3.35,2,3.9a2.75,2.75,0,0,0,3.15-.78c1.62-1.77.71-5.61-1.53-6.49-.3-.12-.56-.24-.87,0C136.79,22.53,135.62,23.74,135.57,24.94Z"/><path class="cls-2" d="M216.47,22.3l0-.08.06,0-.1.09Z"/><path class="cls-1" d="M91.38,63.4c3.86-.22,7.71-.52,11.57-.65,5.22-.17,10.44-.19,15.66-.36,5.38-.17,10.75,0,16.12.16s10.68,0,16,.2,10.58.38,15.86.7c4.54.28,9.08.73,13.61,1.1a6.06,6.06,0,0,1,2.4,1,4.28,4.28,0,0,0,4.75.07,2.24,2.24,0,0,1,.65-.2c.57,0,1.15.09,1.72.17l8.34,1.07c3.27,3.36,7.41,4.81,11.94,5.28,3.11.33,6.24.45,9.36.68.46,0,.65-.07.53-.56-.08-.33-.11-.68-.16-1a144.55,144.55,0,0,1,15.79,4.57,124.14,124.14,0,0,1,12.89,5.23c2.36,1.12,3.24,2.8,2.47,5.29-1,3.24-2.2,6.43-3.35,9.62-2.23,6.22-4.4,12.46-6.9,18.58l-.12.32c-1.7,4-3.32,4.7-7.47,3.54-8.48-2.36-17.08-4.19-25.74-5.81-6.33-1.18-12.7-2.14-19.09-3q-7-.89-14-1.48c-5.85-.49-11.71-.87-17.57-1.19-11-.6-22.07-.45-33.1-.34-5.1,0-10.2.33-15.29.68-6.16.42-12.31.9-18.46,1.52s-12.35,1.32-18.5,2.19a334.71,334.71,0,0,0-33.09,6.22c-3.84,1-6.91-.56-8.91-4.32-4.27-8-9-15.67-13.5-23.54a8.9,8.9,0,0,1-1.42-5.72,5.58,5.58,0,0,1,3.37-4.41,125.16,125.16,0,0,1,18.07-6.59c3.75-1.1,7.53-2,11.34-2.87.49-.11,1-.16,1.49-.24a9.17,9.17,0,0,1-.1,2.17c-.32,1,.2,1,.89.91,3.45-.25,6.89-.48,10.34-.71-1,.81-1.9,1.81-3.52,1.08-1-.46-2,.53-2,1.87-.09,4.25.3,8.49.62,12.72.15,1.93.21,3.86.3,5.78-1.8-2.89-3.3-5.84-4.85-8.78-1.31-2.46-2.6-4.92-4-7.32a2.46,2.46,0,0,0-4.17-.21,1.1,1.1,0,0,1-1.06.51c-.79-.08-1.62,0-2,.79a2,2,0,0,0,.4,2.16,12.44,12.44,0,0,1,2.72,9.83c-.08.49,0,1,0,1.51-.08,1.74-.17,3.47-.27,5.53-2.33-4.48-4.47-8.68-6.7-12.83a22.26,22.26,0,0,0-2.41-4.22c-.86-1-2-1-2.39.18-.62,1.92-1.65,1.33-2.81.87l-.11,0c-.65-.13-1.34-.31-1.81.35s-.1,1.18.21,1.72l3.58,6.11C33.24,96,37.14,102.62,41,109.27a3.85,3.85,0,0,0,4.22,2.14,3.8,3.8,0,0,0,2.63-4.16,28.08,28.08,0,0,1-.11-6.79,21.24,21.24,0,0,1,.49-5.15c2.11,3.65,4.07,7,6,10.4,1,1.78,2.78,2.6,4.45,2A4,4,0,0,0,61,103.05a6.85,6.85,0,0,1-.3-1.59c.05-3,.12-6.1.25-9.15q.42-9.56.91-19.1a1.46,1.46,0,0,0-1.24-1.68A48.68,48.68,0,0,0,65.33,70a16.06,16.06,0,0,0,5.78-4.51l9.61-1.12a5.19,5.19,0,0,0,6.81.89C88.77,64.53,90.1,64,91.38,63.4ZM168.1,95a15.39,15.39,0,0,0,.25,2.92c.53,3.73,2.34,5.76,5.79,6.24,2.6.35,5.19,0,6.88-2.19a17.53,17.53,0,0,0,3.37-10.17,1.11,1.11,0,0,0-.6-1.17,1.3,1.3,0,0,0-1.5.29c-.54.55-1.09,1.1-1.58,1.7a8.35,8.35,0,0,1-2.18,1.89c-1.79,1.09-3.15.51-3.69-1.49a12.09,12.09,0,0,1-.24-3c0-.71.18-1,1-.77a8.65,8.65,0,0,0,3.55.24,10.27,10.27,0,0,0,5.26-2.25c.54-.45.81-.41,1,.32a3.83,3.83,0,0,0,1.7,2.14c.15.1.4.34.46.16.19-.51.45-.62.85-.3s.15.71.06,1.08a32.58,32.58,0,0,0-1.23,9,8.87,8.87,0,0,0,1.84,5.85c3.16,3.59,9.79,2.69,12.1-1.66a24.26,24.26,0,0,0,2.37-6.52c.18-.92.62-2.06-.37-2.67s-1.74.4-2.43,1c-.32.29-.59.63-.91.9a8.38,8.38,0,0,1-3,1.89,1.77,1.77,0,0,1-2.31-1,7.2,7.2,0,0,1-.48-4.08c.07-.77.32-1,1.16-.71,4,1.2,8.65-.12,10.75-3.27A17.14,17.14,0,0,0,209,78.35a6.85,6.85,0,0,0-4.29-5.88,6.44,6.44,0,0,0-7,.9A20.22,20.22,0,0,0,192,80.85c-1,2.08-1,2-3.1,1.05-1-.45-1-.93-.74-1.81a12.44,12.44,0,0,0,.13-7.42,7.15,7.15,0,0,0-7.8-4.63,8.69,8.69,0,0,0-5.18,3.47,25.19,25.19,0,0,0-3.92,7.08c-.43,1.13-.91,1.23-1.86.68a12.61,12.61,0,0,0-1.82-.74c-1.08-.4-1.69.07-2,1.09a9.68,9.68,0,0,0-.56,2.94,4.6,4.6,0,0,0,2.12,4.25c.18.11.46.4.54.07.17-.69.53-.38.86-.26.52.17.27.53.21.86A43,43,0,0,0,168.1,95Zm49.61,6.5a1.26,1.26,0,0,1,.63-.8c4.76-3.64,9.53-7.26,14.28-10.91a1.24,1.24,0,0,1,1.15-.23,2.28,2.28,0,0,0,2.68-1.13c.32-.57.6-1.17.86-1.76,1-2.31.37-3.94-2.12-4.15a3.16,3.16,0,0,1-.68-.14c-6.72-2.18-13.54-4.1-20.1-6.76a5.2,5.2,0,0,0-1.91-.42,2.52,2.52,0,0,0-2.6,3.4,4.28,4.28,0,0,1,.25,2,4,4,0,0,0,3.2,5.06c1,.25,2,.27,3,.44a63.48,63.48,0,0,1,6.45,1.24c-.25.26-.38.44-.55.59-4,3.78-8.14,7.37-12.28,11a22.21,22.21,0,0,0-4.25,4.08c-1.29,1.93-.59,3.61,1.67,4,2.75.47,5.54.66,8.16,1.81,2,.87,4.08,1.44,6.1,2.22a32.39,32.39,0,0,1,5,2.06c1.3.77,1.86.74,2.88-.43a12.54,12.54,0,0,0,2.05-4c.95-2.54.3-3.77-2.39-4.11a31.05,31.05,0,0,1-4.51-1C222.35,102.91,220,102.21,217.71,101.53Zm-67.6-24.67c.89,0,1.78,0,2.67,0,.26,0,.65,0,.76.12.22.33-.18.54-.35.77-3.39,4.56-6.9,9-10.45,13.46a21.37,21.37,0,0,0-3.22,4.52c-.69,1.57-.11,3.23,1.25,3.39a8.43,8.43,0,0,0,3.9,0,5,5,0,0,1,2.41-.07c2.53.35,5,.69,7.57,1.09a48.49,48.49,0,0,1,7.15,1.34,2.13,2.13,0,0,0,3-1.21,18.08,18.08,0,0,0,1.33-4.78c.3-1.52-.31-2.37-1.81-2.82-1.26-.37-2.45.15-3.69,0-2.76-.26-5.54-.47-8.31-.72-.37,0-.89,0-1-.34s.32-.64.57-.91q5.92-6.61,11.85-13.22a1.57,1.57,0,0,1,1.29-.62,2.06,2.06,0,0,0,2.14-1.1,9.45,9.45,0,0,0,1-4,2,2,0,0,0-2-2,50.22,50.22,0,0,1-6-.5c-4.18-.49-8.35-1.07-12.53-1.49-1.85-.19-3.62-.88-5.49-.84a2.62,2.62,0,0,0-2.44,4,5.21,5.21,0,0,1,.58,2.32,3.85,3.85,0,0,0,4.1,4C146.25,77.14,148.17,76.71,150.11,76.86ZM140.44,83a13.38,13.38,0,0,0-1-5.47c-2.32-5.87-7-8.81-12.88-10.2-5.58-1.33-11.2-1-16.81-.22-1.94.25-2.62,1.27-2.06,3.15.2.68.14,1-.51,1.4a2.38,2.38,0,0,0-1.15,2.48,2.28,2.28,0,0,0,1.74,2,8.9,8.9,0,0,0,2.5.41c.91,0,1.1.35,1.08,1.17,0,1.39,0,2.78.12,4.17a48,48,0,0,1-.07,7.29c0,.48-.21.64-.7.69-2.14.21-3,1.16-2.55,3.31.28,1.36.31,2.27-1.21,2.68-.12,0-.19.22-.28.35-1.51,2-.45,4.13,2.23,4.57a23.22,23.22,0,0,0,5.89,0,101.15,101.15,0,0,0,12.26-1.66C135.13,97.48,140.85,89.37,140.44,83ZM85.1,79.66a47.44,47.44,0,0,0,1.72,12.79,21.2,21.2,0,0,0,3.93,8.2,6.18,6.18,0,0,0,10.17-.35,12.72,12.72,0,0,0,1.6-3.08A45.57,45.57,0,0,0,105,77.29c-.53-5.28-3.36-9.22-9.11-10-5.11-.72-8.58.83-10.1,6.32A19.8,19.8,0,0,0,85.1,79.66Zm-2.31,4.89a33.25,33.25,0,0,0-.24-5.35,13.45,13.45,0,0,0-2.84-6.87c-2.91-3.28-6.63-4-10.77-3.17a6.79,6.79,0,0,0-5.06,4,14.43,14.43,0,0,0-1.3,5.6,44.93,44.93,0,0,0,2.58,16.37,18.37,18.37,0,0,0,4.34,7.57c3.36,3.31,7.91,2.62,10.18-1.52a16.2,16.2,0,0,0,1.25-2.86A46.27,46.27,0,0,0,82.79,84.55Zm165.78.58a1.93,1.93,0,0,0-1.85-2.21,2.13,2.13,0,0,0-2.12,2.15,2.16,2.16,0,0,0,2,2.24A2.13,2.13,0,0,0,248.57,85.13ZM37.45,113.4a2,2,0,0,0-2.06-2.15,1.92,1.92,0,0,0-1.91,2.15,2,2,0,1,0,4,0Zm200.85.92a2.06,2.06,0,1,0-4.11,0,2.37,2.37,0,0,0,2.15,2.2A2.34,2.34,0,0,0,238.3,114.32ZM20.27,84a1.93,1.93,0,0,0-1.91-2.25,2.11,2.11,0,0,0-2.06,2,2.28,2.28,0,0,0,2,2.32A2.11,2.11,0,0,0,20.27,84Zm219.82,6.33a2.13,2.13,0,0,0,2.15-2.1,2.22,2.22,0,0,0-2-2.28,2.13,2.13,0,0,0-2.14,2A2.21,2.21,0,0,0,240.09,90.33Z"/><path class="cls-1" d="M253.47,84.54a2.44,2.44,0,0,1,.57,2.28,33.57,33.57,0,0,1-2.1,7q-2.59,7.31-5.25,14.57a66,66,0,0,1-4.15,10,5.9,5.9,0,0,1-3.53,3c-.48.14-1,.3-1.4-.14,3-1.09,4.27-3.64,5.35-6.32,3.15-7.77,5.84-15.69,8.64-23.58C252.39,89.1,253.46,87,253.47,84.54Z"/><path class="cls-1" d="M57.68,55.5a13.54,13.54,0,0,0-3,2.68c-.22.21-.18.49-.22.76A3.64,3.64,0,0,1,50,62a.76.76,0,0,1-.73-.85,5.28,5.28,0,0,1,2.58-4,1.51,1.51,0,0,1,1.65.1c.52.42.79.27,1.2-.18a22.19,22.19,0,0,1,11.66-6.77,4.27,4.27,0,0,1,2.16.19l0,.36c-2.6.19-6.38,3.11-7,5.43a2,2,0,0,0,.82,2.32,1.46,1.46,0,0,0,1.91-.32,1.3,1.3,0,0,0,.45-1.35c-.27-1-1.07-1.15-2-.3a1,1,0,0,1,.07-1.25.92.92,0,0,1,1.16-.25A2.31,2.31,0,0,1,65.57,57a2.37,2.37,0,0,1-3.79,2,2.93,2.93,0,0,1-.5-3.89,21.6,21.6,0,0,1,2.28-3.07,16.8,16.8,0,0,0-5.89,3.44Z"/><path class="cls-1" d="M74,57.86c-.08-.75-.17-1.5-.25-2.25A13.73,13.73,0,0,0,78.14,54,43.69,43.69,0,0,0,82,51.35,21.91,21.91,0,0,0,79.77,62l-4.06.32a14.19,14.19,0,0,0,3.11-5c.18-.49.57-1.11.16-1.52s-1,.07-1.39.26C76.36,56.63,75.17,57.26,74,57.86Z"/><path class="cls-1" d="M83.5,46l-.81.7c-1-1.43-2.62-1.89-4-2.66,0-.94,0-1.88,0-2.82A21.48,21.48,0,0,0,81.84,45,4.58,4.58,0,0,0,83.5,46Z"/><path class="cls-1" d="M86.68,32.24,84.39,26.6l.22-.1q1.4,3,2.78,6Z"/><path class="cls-1" d="M76.92,42.8l.75.88-3-.51c-.24-.31-.48-.61-.73-.91Z"/><path class="cls-1" d="M77.65,43.66l.23.18C77.76,43.84,77.65,43.83,77.65,43.66Z"/><path class="cls-1" d="M69.82,37.19l-.5.78a48.48,48.48,0,0,1-3.86-3.31Q63,32.55,60.59,30.4A1.34,1.34,0,0,1,60,29.34Z"/><path class="cls-3" d="M52.1,22.06l.12.12s-.07,0-.08,0a.73.73,0,0,1,0-.09Z"/><path class="cls-1" d="M73.8,42.13l.16.15Z"/><path class="cls-1" d="M60.64,71.53a1.46,1.46,0,0,1,1.24,1.68q-.48,9.54-.91,19.1c-.13,3-.2,6.1-.25,9.15a6.85,6.85,0,0,0,.3,1.59,4,4,0,0,1-2.34,4.66c-1.67.6-3.42-.22-4.45-2-1.93-3.38-3.89-6.75-6-10.4a21.24,21.24,0,0,0-.49,5.15,28.08,28.08,0,0,0,.11,6.79,3.8,3.8,0,0,1-2.63,4.16A3.85,3.85,0,0,1,41,109.27C37.14,102.62,33.24,96,29.36,89.34l-3.58-6.11c-.31-.54-.66-1.11-.21-1.72s1.16-.48,1.81-.35l.11,0c1.16.46,2.19,1,2.81-.87.39-1.2,1.53-1.19,2.39-.18a22.26,22.26,0,0,1,2.41,4.22c2.23,4.15,4.37,8.35,6.7,12.83.1-2.06.19-3.79.27-5.53,0-.5,0-1,0-1.51a12.44,12.44,0,0,0-2.72-9.83,2,2,0,0,1-.4-2.16c.4-.81,1.23-.87,2-.79a1.1,1.1,0,0,0,1.06-.51,2.46,2.46,0,0,1,4.17.21c1.42,2.4,2.71,4.86,4,7.32,1.55,2.94,3,5.89,4.85,8.78-.09-1.92-.15-3.85-.3-5.78-.32-4.23-.71-8.47-.62-12.72,0-1.34,1-2.33,2-1.87,1.62.73,2.49-.27,3.52-1.08v0a.79.79,0,0,0,.76-.2A.19.19,0,0,1,60.64,71.53ZM27.05,82.39c-.06,0-.14-.11-.18-.1s-.08.18,0,.27c.19.34.36.69.55,1q7.32,12.53,14.65,25c.76,1.31,1.83,1.94,2.87,1.6a2.68,2.68,0,0,0,1.67-3.29,11,11,0,0,1-.23-3.33c.06-1.35.08-2.71.2-4.06.22-2.62.28-5.27.74-8.13,2.75,4.68,5.38,9.14,8,13.61.79,1.36,1.83,2,3,1.56a2.66,2.66,0,0,0,1.56-3.24,10.55,10.55,0,0,1-.27-3.21c.07-2.71.14-5.41.25-8.12.19-4.41.44-8.81.6-13.22.08-1.93,0-3.87,0-5.83a5.7,5.7,0,0,0-2,1.35.9.9,0,0,1-1.39.1c-.37-.3-.88-.61-1.38-.27s-.29.84-.28,1.29c0,4.92.55,9.81.83,14.71a63.66,63.66,0,0,1,0,7.69,4,4,0,0,1-.68-1q-4.94-9.26-9.84-18.53c-.46-.87-1-1.53-2.07-1.17-.87.29-.65,1.1-.6,1.79,0,.06-.06.13-.13.27a7.06,7.06,0,0,0-2-.63.75.75,0,0,0-.75.17c-.22.29,0,.52.17.73.88,1.51,1.78,3,2.67,4.49a2.33,2.33,0,0,1,.41,1.3q-.12,4.93-.18,9.86c0,2.07,0,4.13,0,6.32a1.3,1.3,0,0,1-.87-.83q-4.8-9.07-9.6-18.14c-.33-.61-.43-1.7-1.23-1.6-.63.08-.72,1.11-.82,1.79-.14.85-.39,1.13-1.24.61A6,6,0,0,0,27.05,82.39Z"/><path class="cls-1" d="M57.9,52.25A3.39,3.39,0,0,1,54.6,50c-.16-.44-.14-.67.37-.85a3.68,3.68,0,0,1,3.82,1.18c.27.41.67.89.43,1.37S58.32,52.22,57.9,52.25Z"/><path class="cls-1" d="M53.67,55.32a3,3,0,0,1-2.56-1.53c-.33-.51-.18-.78.42-.82a3.87,3.87,0,0,1,3.35,1.45c.13.14.29.32.16.5C54.73,55.35,54.24,55.29,53.67,55.32Z"/><path class="cls-1" d="M57.67,55.51a2.68,2.68,0,0,1,.8,4.14c-.39.38-.51.09-.65-.19a3.36,3.36,0,0,1-.3-3.19,1,1,0,0,0,.16-.77Z"/><path class="cls-4" d="M60.51,71.55a.79.79,0,0,1-.76.2C59.94,71.45,60.24,71.54,60.51,71.55Z"/><path class="cls-1" d="M200.38,51.06l.08-.64a18.07,18.07,0,0,1,8.64,3,19,19,0,0,1,4.49,3.81c.39.44.67.6,1.21.18a1.61,1.61,0,0,1,2,0A5.33,5.33,0,0,1,219,61.21c.12.66-.28.89-.83,1a3.72,3.72,0,0,1-4.3-3.07,1.31,1.31,0,0,0-.16-.66,11.48,11.48,0,0,0-3.07-2.74h0a15.57,15.57,0,0,0-5.78-3.4,20.06,20.06,0,0,1,2.23,3.1,3,3,0,0,1-.5,3.71,2.07,2.07,0,0,1-2.37.35,2.12,2.12,0,0,1-1.51-2,2.25,2.25,0,0,1,1.39-2.11c.54-.26,1.14-.36,1.54.27a.71.71,0,0,1,0,.87c-.28.29-.47-.07-.62-.26-.32-.42-.62-.2-.89,0-.44.35-.82.75-.6,1.38A1.76,1.76,0,0,0,205.44,59a1.85,1.85,0,0,0,1.4-2,3.56,3.56,0,0,0-.76-1.92A11.31,11.31,0,0,0,200.38,51.06Z"/><path class="cls-1" d="M189.44,63c.67-4.14-.4-7.94-2.19-11.68a20.24,20.24,0,0,0,7.39,4.43c-.09.61-.17,1.22-.26,1.83a19.3,19.3,0,0,0-4.33-1.8c.92,3.36,2.14,6.23,5.27,7.87a.49.49,0,0,0,0,.12Z"/><path class="cls-1" d="M212.36,49.24c.51,0,1.15-.06,1.38.39s-.14,1-.42,1.38A3.57,3.57,0,0,1,210,52.42c-.79-.17-1.13-.53-.74-1.38A3.32,3.32,0,0,1,212.36,49.24Z"/><path class="cls-1" d="M214.81,55.53c-.7,0-1.34,0-1.52-.48s.44-.83.81-1.12a3.76,3.76,0,0,1,2.6-.76c.82,0,.83.41.43.94A3.14,3.14,0,0,1,214.81,55.53Z"/><path class="cls-1" d="M210.65,55.74c.29,1.17.72,2.34,0,3.52-.15.26-.19.65-.54.67s-.46-.37-.59-.63c-.78-1.45-.21-3.24,1.12-3.55Z"/><path class="cls-1" d="M219,52.94c1.38,1.93,2.3,4,1.2,6.35C220.27,57.09,219.49,55.05,219,52.94Z"/><path class="cls-3" d="M218.56,52.24l.19.26Z"/><path class="cls-3" d="M218.81,52.61,219,53Z"/><path class="cls-1" d="M199.29,37.65l-.5-.69c2.76-2,5.32-4.15,8-6.22a10.28,10.28,0,0,1,2-1.5l.05.06c-.18.71-.84,1-1.32,1.39l-7.14,6.38C200.05,37.35,199.78,37.7,199.29,37.65Z"/><path class="cls-1" d="M186.48,48l-1-1.5c1.8-.45,2.8-1.92,4-3.14.18.43-.31,1.1.49,1.29-.5.28-1,.59-1.5.85A3.9,3.9,0,0,0,186.48,48Z"/><path class="cls-1" d="M191.17,43.13l2.79-.4-.33.69L190,44.61C190,43.83,191,43.81,191.17,43.13Z"/><path class="cls-1" d="M210,28.34a.71.71,0,0,1,.7-.69v0a.74.74,0,0,1-.69.71Z"/><path class="cls-1" d="M209.73,28.57l-.23.2-.08-.13.3-.07Z"/><path class="cls-1" d="M212.52,26l0-.1-.06.09Z"/><path class="cls-1" d="M212,26.47l-.23.23v0l.23-.24Z"/><path class="cls-1" d="M211.81,26.7l-.06.1.07-.08Z"/><path class="cls-1" d="M211.13,27.18l.1-.09s0,0,0,.05-.06,0-.09,0Z"/><path class="cls-1" d="M211.11,27.17l-.23.23h0l.24-.23Z"/><path class="cls-3" d="M216,22.29l-.09.13s0-.06,0-.07l.09-.05Z"/><path class="cls-1" d="M210.88,27.4l-.23.23v0l.23-.24Z"/><path class="cls-1" d="M212.05,26.48l.24-.23h0l-.24.23Z"/><path class="cls-1" d="M209.72,28.57l.24-.23h0l-.23.23Z"/><path class="cls-1" d="M208.78,29.24a1.29,1.29,0,0,1,.12-.12c.14.12,0,.13-.07.18Z"/><path class="cls-1" d="M212.29,26.25l.23-.23h0l-.23.23Z"/><path class="cls-1" d="M186.05,50.93l.45-1,.61,1.05C186.67,51.17,186.37,50.94,186.05,50.93Z"/><path class="cls-1" d="M180.69,33.54c.16-1.42,1.08-2.52,1.57-3.8.15-.4.35-.78.53-1.16l.26.23c-.4,1.42-1.32,2.66-1.49,4.16h0c-.21-.1-.19.08-.23.19Z"/><path class="cls-1" d="M181.36,33.15c0-.11,0-.29.23-.19Z"/><path class="cls-3" d="M181.05,44.71l0,.3-.24-.12Z"/><path class="cls-1" d="M183.05,28.81l-.26-.23a8.76,8.76,0,0,1,1.3-2.5A7.62,7.62,0,0,1,183.05,28.81Z"/><path class="cls-1" d="M184.37,25.63l-.15.09a1.49,1.49,0,0,1,0-.21s.05-.05.08-.08Z"/><path class="cls-1" d="M168.1,95a43,43,0,0,1,.79-7.55c.06-.33.31-.69-.21-.86-.33-.12-.69-.43-.86.26-.08.33-.36,0-.54-.07a4.6,4.6,0,0,1-2.12-4.25,9.68,9.68,0,0,1,.56-2.94c.34-1,.95-1.49,2-1.09a12.61,12.61,0,0,1,1.82.74c1,.55,1.43.45,1.86-.68a25.19,25.19,0,0,1,3.92-7.08A8.69,8.69,0,0,1,180.53,68a7.15,7.15,0,0,1,7.8,4.63,12.44,12.44,0,0,1-.13,7.42c-.24.88-.27,1.36.74,1.81,2.09.94,2.05,1,3.1-1.05a20.22,20.22,0,0,1,5.73-7.48,6.44,6.44,0,0,1,7-.9A6.85,6.85,0,0,1,209,78.35a17.14,17.14,0,0,1-3.13,11.14c-2.1,3.15-6.74,4.47-10.75,3.27-.84-.25-1.09-.06-1.16.71a7.2,7.2,0,0,0,.48,4.08,1.77,1.77,0,0,0,2.31,1,8.38,8.38,0,0,0,3-1.89c.32-.27.59-.61.91-.9.69-.63,1.37-1.68,2.43-1s.55,1.75.37,2.67a24.26,24.26,0,0,1-2.37,6.52c-2.31,4.35-8.94,5.25-12.1,1.66a8.87,8.87,0,0,1-1.84-5.85,32.58,32.58,0,0,1,1.23-9c.09-.37.31-.77-.06-1.08s-.66-.21-.85.3c-.06.18-.31-.06-.46-.16a3.83,3.83,0,0,1-1.7-2.14c-.2-.73-.47-.77-1-.32a10.27,10.27,0,0,1-5.26,2.25,8.65,8.65,0,0,1-3.55-.24c-.77-.2-1,.06-1,.77a12.09,12.09,0,0,0,.24,3c.54,2,1.9,2.58,3.69,1.49a8.35,8.35,0,0,0,2.18-1.89c.49-.6,1-1.15,1.58-1.7a1.3,1.3,0,0,1,1.5-.29,1.11,1.11,0,0,1,.6,1.17A17.53,17.53,0,0,1,181,102c-1.69,2.16-4.28,2.54-6.88,2.19-3.45-.48-5.26-2.51-5.79-6.24A15.39,15.39,0,0,1,168.1,95Zm25.17-4.24c.53.21,1,.41,1.46.58,3.81,1.44,8.11.47,10.23-2.66a15.43,15.43,0,0,0,2.87-10.41,5.83,5.83,0,0,0-9-4.21A10.94,10.94,0,0,0,196.65,76a27.11,27.11,0,0,0-4.07,6.45c-1.05,2.19-1.05,2.19-3.23,1-2.46-1.33-2.52-1.3-3,1.52-.32,1.83.09,2.55,1.81,3.17,2,.71,2,.71,1.48,2.73a28.36,28.36,0,0,0-1.08,10.2,5.76,5.76,0,0,0,2.11,4.35,6.67,6.67,0,0,0,9.44-2.17,25.59,25.59,0,0,0,2.31-6.41,1.1,1.1,0,0,0-.09-1c-.43.41-.85.78-1.24,1.18a10.33,10.33,0,0,1-3.25,2.39c-2.36,1-4.25.08-4.86-2.42A12.88,12.88,0,0,1,193.27,90.79Zm-9.94,1.12a2.45,2.45,0,0,0-1.27,1,12.2,12.2,0,0,1-2.91,2.64c-2.49,1.53-4.68.68-5.46-2.13a15.22,15.22,0,0,1-.16-5.3c.05-.61.36-.64.87-.43a8.57,8.57,0,0,0,4.79.55c3-.59,5.61-1.78,6.41-5.17a2.47,2.47,0,0,1,.39-1c1.2-1.51,1.34-3.34,1.56-5.12a7.25,7.25,0,0,0-1.21-5.53c-2.38-3.09-6.49-3.09-9.36,0a24.62,24.62,0,0,0-4.92,8.86c-.33.94-.71,1.09-1.56.66s-1.76-.78-2.64-1.17c-.58-.26-.94-.18-1.1.5a8.89,8.89,0,0,0-.3,3.21c.11.87.38,1.52,1.45,1.58a10.43,10.43,0,0,1,1.66.49c.71.17.84.49.69,1.24-.69,3.49-1.3,7-.75,10.58.37,2.36,1,4.62,3.69,5.37,2.89.81,5.92,0,7.27-2C182.2,98.17,182.83,95.14,183.33,91.91Z"/><path class="cls-1" d="M217.71,101.53c2.32.68,4.64,1.38,7,2a31.05,31.05,0,0,0,4.51,1c2.69.34,3.34,1.57,2.39,4.11a12.54,12.54,0,0,1-2.05,4c-1,1.17-1.58,1.2-2.88.43a32.39,32.39,0,0,0-5-2.06c-2-.78-4.13-1.35-6.1-2.22-2.62-1.15-5.41-1.34-8.16-1.81-2.26-.38-3-2.06-1.67-4A22.21,22.21,0,0,1,209.94,99c4.14-3.61,8.3-7.2,12.28-11,.17-.15.3-.33.55-.59a63.48,63.48,0,0,0-6.45-1.24c-1-.17-2-.19-3-.44a4,4,0,0,1-3.2-5.06,4.28,4.28,0,0,0-.25-2,2.52,2.52,0,0,1,2.6-3.4,5.2,5.2,0,0,1,1.91.42c6.56,2.66,13.38,4.58,20.1,6.76a3.16,3.16,0,0,0,.68.14c2.49.21,3.16,1.84,2.12,4.15-.26.59-.54,1.19-.86,1.76a2.28,2.28,0,0,1-2.68,1.13,1.24,1.24,0,0,0-1.15.23c-4.75,3.65-9.52,7.27-14.28,10.91A1.26,1.26,0,0,0,217.71,101.53Zm7.52-15,.14.32c-.41.34-.85.65-1.24,1-5.11,4.8-10.4,9.39-15.71,14a6.67,6.67,0,0,0-2,2.37c-.28.67-.19,1.28.59,1.47a7.71,7.71,0,0,0,3.19.46,3.43,3.43,0,0,1,1.82.22c3.06,1.08,6.13,2.13,9.18,3.25a62.63,62.63,0,0,1,6.13,2.45c.74.37,1,.25,1.39-.27a18.24,18.24,0,0,0,2.09-4.5.84.84,0,0,0-.52-1.14,3.72,3.72,0,0,0-1.31-.42c-2.24-.11-4.29-1-6.41-1.56-2.48-.67-4.94-1.44-7.41-2.16a1.27,1.27,0,0,1,.64-.77c5.54-4.29,11.09-8.56,16.61-12.87a1.22,1.22,0,0,1,1.29-.1c.55.17,1.22.3,1.5-.2a8.44,8.44,0,0,0,1.34-3,1,1,0,0,0-.95-1.21,9.09,9.09,0,0,1-.91-.15c-6.85-2.16-13.75-4.18-20.45-6.82a4.63,4.63,0,0,0-1.9-.47A1.34,1.34,0,0,0,211,78.15a7.2,7.2,0,0,1,.29,3.19c-.13,1.9.65,2.89,2.55,3.26,1.44.28,2.91.4,4.35.65C220.55,85.67,222.89,86.13,225.23,86.57Z"/><path class="cls-1" d="M150.11,76.86c-1.94-.15-3.86.28-5.79.26a3.85,3.85,0,0,1-4.1-4,5.21,5.21,0,0,0-.58-2.32,2.62,2.62,0,0,1,2.44-4c1.87,0,3.64.65,5.49.84,4.18.42,8.35,1,12.53,1.49a50.22,50.22,0,0,0,6,.5,2,2,0,0,1,2,2,9.45,9.45,0,0,1-1,4,2.06,2.06,0,0,1-2.14,1.1,1.57,1.57,0,0,0-1.29.62q-5.91,6.61-11.85,13.22c-.25.27-.76.51-.57.91s.67.31,1,.34c2.77.25,5.55.46,8.31.72,1.24.12,2.43-.4,3.69,0,1.5.45,2.11,1.3,1.81,2.82a18.08,18.08,0,0,1-1.33,4.78,2.13,2.13,0,0,1-3,1.21,48.49,48.49,0,0,0-7.15-1.34c-2.52-.4-5-.74-7.57-1.09a5,5,0,0,0-2.41.07,8.43,8.43,0,0,1-3.9,0c-1.36-.16-1.94-1.82-1.25-3.39a21.37,21.37,0,0,1,3.22-4.52c3.55-4.44,7.06-8.9,10.45-13.46.17-.23.57-.44.35-.77-.11-.14-.5-.12-.76-.12C151.89,76.85,151,76.86,150.11,76.86ZM148.49,92.8c.72-.87,1.26-1.58,1.86-2.24,4.23-4.72,8.48-9.44,12.7-14.18a1.64,1.64,0,0,1,1.56-.71c.76.08,1.49-.06,1.66-1,.08-.41.25-.81.37-1.21.63-2,.29-2.48-1.78-2.51a5.49,5.49,0,0,1-.7,0c-5.74-.54-11.45-1.32-17.18-2-1.54-.18-3-.69-4.56-.78s-2.38,1-1.62,2.46a3.75,3.75,0,0,1,.58,1.73c.06,3,1.26,3.9,4.28,3.59,3.42-.34,6.85-.2,10.53-.2-.65.91-1.14,1.63-1.66,2.33-4,5.35-8.1,10.56-12.28,15.75a8.84,8.84,0,0,0-1.67,2.63c-.24.69-.35,1.53.65,1.61a7,7,0,0,0,3.55-.21,1.91,1.91,0,0,1,1.13-.14c3.6.53,7.2,1,10.79,1.57a44.91,44.91,0,0,1,5.68,1.12c.75.21,1,0,1.24-.47a14.36,14.36,0,0,0,1.23-4.21c.27-1.52,0-1.94-1.56-1.86a41.22,41.22,0,0,1-5.56-.19C154.73,93.33,151.73,93.08,148.49,92.8Z"/><path class="cls-1" d="M140.44,83c.41,6.33-5.31,14.44-13.36,16.11a101.15,101.15,0,0,1-12.26,1.66,23.22,23.22,0,0,1-5.89,0c-2.68-.44-3.74-2.56-2.23-4.57.09-.13.16-.32.28-.35,1.52-.41,1.49-1.32,1.21-2.68-.44-2.15.41-3.1,2.55-3.31.49,0,.65-.21.7-.69a48,48,0,0,0,.07-7.29c-.08-1.39-.14-2.78-.12-4.17,0-.82-.17-1.18-1.08-1.17a8.9,8.9,0,0,1-2.5-.41,2.28,2.28,0,0,1-1.74-2,2.38,2.38,0,0,1,1.15-2.48c.65-.37.71-.72.51-1.4-.56-1.88.12-2.9,2.06-3.15,5.61-.73,11.23-1.11,16.81.22,5.88,1.39,10.56,4.33,12.88,10.2A13.38,13.38,0,0,1,140.44,83Zm-27.93.19h.18c0,2.32,0,4.64,0,7,0,.88-.16,1.23-1.19,1-1.77-.46-2.57.46-2.08,2.26a6.88,6.88,0,0,0,.3.87,1.25,1.25,0,0,1-.39,1.56,8.78,8.78,0,0,1-1.26.82,1.55,1.55,0,0,0-.85,1.53,1.35,1.35,0,0,0,1.11,1.2,11.21,11.21,0,0,0,3.91.39c4-.24,8-.69,12-1.3,4.51-.68,8.45-2.35,11.42-6s4.32-7.82,3.24-12.54c-1.35-5.89-5.36-9.23-10.9-10.94-5.95-1.84-12-1.38-18.08-.65-1.17.14-1.48.68-1,1.78a1.58,1.58,0,0,1-.86,2.44,1.37,1.37,0,0,0-.85,1.39c0,.67.57,1,1.16,1.14a8.21,8.21,0,0,0,3,.19c.78-.06,1.13.12,1.11,1C112.48,78.58,112.51,80.91,112.51,83.23Z"/><path class="cls-1" d="M85.1,79.66a19.8,19.8,0,0,1,.72-6.09c1.52-5.49,5-7,10.1-6.32,5.75.82,8.58,4.76,9.11,10a45.57,45.57,0,0,1-2.51,19.93,12.72,12.72,0,0,1-1.6,3.08,6.18,6.18,0,0,1-10.17.35,21.2,21.2,0,0,1-3.93-8.2A47.44,47.44,0,0,1,85.1,79.66Zm19,1.15a23.41,23.41,0,0,0-.45-4.7c-.8-3.34-2.44-6.11-5.9-7.16-6-1.83-10-.06-11,6.22-1.12,6.89.06,13.54,2.33,20a12.63,12.63,0,0,0,3.35,5.36,4.75,4.75,0,0,0,7.3-.65,14.46,14.46,0,0,0,2.16-4.34C103.43,90.83,103.78,85.9,104.09,80.81Z"/><path class="cls-1" d="M82.79,84.55a46.27,46.27,0,0,1-1.86,13.78,16.2,16.2,0,0,1-1.25,2.86c-2.27,4.14-6.82,4.83-10.18,1.52a18.37,18.37,0,0,1-4.34-7.57,44.93,44.93,0,0,1-2.58-16.37,14.43,14.43,0,0,1,1.3-5.6,6.79,6.79,0,0,1,5.06-4c4.14-.79,7.86-.11,10.77,3.17a13.45,13.45,0,0,1,2.84,6.87A33.25,33.25,0,0,1,82.79,84.55Zm-1.17-.14a23.92,23.92,0,0,0-.48-6.2c-.81-3.53-2.41-6.61-6.17-7.6-6.86-1.81-10.37.83-11.07,7.09A28.77,28.77,0,0,0,64,84.06,43.12,43.12,0,0,0,67.66,98a11.82,11.82,0,0,0,3.4,4.49,4.72,4.72,0,0,0,7-.91,10.91,10.91,0,0,0,1.52-2.86C81.08,94.47,81.38,90,81.62,84.41Z"/><path class="cls-4" d="M240.73,89.51a1.15,1.15,0,0,1,.06-1.1c.59-.65.3-1-.32-1.32-.81-.44-.77.3-1,.67a1.15,1.15,0,0,0-.22,1c.4.25.45-.66.76-.29a1.79,1.79,0,0,1,.29,1.07c0,.45-.33.3-.58.22a1.63,1.63,0,0,1-.93-2.26,1.39,1.39,0,0,1,1.92-.92,1.73,1.73,0,0,1,.69,2.38A.91.91,0,0,1,240.73,89.51Z"/><path class="cls-1" d="M203.26,81.27c-.12.88-.19,1.77-.37,2.64a3.66,3.66,0,0,1-3.43,2.66,10.88,10.88,0,0,1-4.12-.52c-.47-.12-.48-.33-.29-.74a19.72,19.72,0,0,1,3.59-5.65,6.36,6.36,0,0,1,1-.83c1.91-1.29,3.44-.55,3.6,1.74,0,.23,0,.46,0,.69ZM202,81.5c0-.94.07-1.66-.56-2s-1.18.24-1.62.63a13,13,0,0,0-2.57,3.39c-1,1.66-1,1.73.88,1.87s3.27-.38,3.56-1.84C201.88,82.78,202,82,202,81.5Z"/><path class="cls-1" d="M183,77.82c.23,4.7-2.91,5.35-6,5-2.23-.22-2.24-.26-1.36-2.3a18.14,18.14,0,0,1,2.62-4.48c.1-.12.19-.25.3-.36.83-.85,1.76-1.71,3-1.3s1.36,1.74,1.42,2.91A4.36,4.36,0,0,1,183,77.82Zm-1.18.09a3.17,3.17,0,0,0,0-.69c-.11-.59,0-1.39-.62-1.63s-1.13.35-1.56.78a15.16,15.16,0,0,0-2.76,4.38c-.31.64-.09,1,.59,1C180.41,81.8,181.83,81.26,181.81,77.91Z"/><path class="cls-1" d="M121.63,93c-.93,0-1.85-.1-2.77-.18s-1-.46-1-1.18c-.25-5.75-.5-11.51-1.11-17.24-.2-1.81-.16-1.87,1.7-1.85a29,29,0,0,1,8.23,1.24A7.55,7.55,0,0,1,131,77.32a12.29,12.29,0,0,1,1.43,8.74c-.75,4-2.72,5.77-7,6.56A17,17,0,0,1,121.63,93Zm.32-1.19a16.38,16.38,0,0,0,4.12-.54,6,6,0,0,0,5.08-5,12,12,0,0,0-.87-7.57,7,7,0,0,0-4.82-4,46.39,46.39,0,0,0-6.64-1c-.73-.08-.84.21-.78,1,.37,4.85.71,9.7,1,14.55C119.15,91.76,119.08,91.77,122,91.76Z"/><path class="cls-1" d="M100.45,81.68c-.32,3.37-.41,6.94-1.37,10.39a10.18,10.18,0,0,1-.74,2c-.77,1.41-2.07,1.58-3.27.47a5,5,0,0,1-1.29-2,32.56,32.56,0,0,1-1.7-14.61c.18-1.45.57-3,2.17-3.42A4.32,4.32,0,0,1,98.72,76C100.12,77.56,100.41,79.5,100.45,81.68ZM93,81a15,15,0,0,0,.24,3.36A26.12,26.12,0,0,0,95,92.13c.32.76.62,1.76,1.65,1.71s.9-1.1,1.22-1.76a4,4,0,0,0,.24-.77,53,53,0,0,0,1-7.2,13.41,13.41,0,0,0-.17-5.39A4.29,4.29,0,0,0,96,75.65c-1.35-.41-2.11-.06-2.48,1.27A12.55,12.55,0,0,0,93,81Z"/><path class="cls-1" d="M77.91,85.36a34.64,34.64,0,0,1-.93,9c-.29,1.05-.58,2.24-1.87,2.41s-2.2-.77-2.82-1.86a25.37,25.37,0,0,1-2.5-8.52,22,22,0,0,1-.28-7.15c.5-3.06,2.56-4.1,5.3-2.6,2.13,1.16,2.86,3.16,3.08,5.4C78,83.11,77.91,84.24,77.91,85.36ZM76.74,85c0-.85.06-1.71,0-2.55a5.85,5.85,0,0,0-1.88-4.33,2.87,2.87,0,0,0-2.86-.8c-1.08.37-1.15,1.44-1.31,2.4a19,19,0,0,0,.27,6.2,24.85,24.85,0,0,0,2.39,8.39c.33.61.7,1.32,1.54,1.18s.79-.86.94-1.44A36.76,36.76,0,0,0,76.74,85Z"/><path class="cls-1" d="M202,81.5c-.07.48-.16,1.28-.31,2.07-.29,1.46-1.79,2-3.56,1.84s-1.85-.21-.88-1.87a13,13,0,0,1,2.57-3.39c.44-.39,1-1,1.62-.63S202,80.56,202,81.5Z"/><path class="cls-1" d="M181.81,77.91c0,3.35-1.4,3.89-4.36,3.82-.68,0-.9-.34-.59-1a15.16,15.16,0,0,1,2.76-4.38c.43-.43.91-1,1.56-.78s.51,1,.62,1.63A3.17,3.17,0,0,1,181.81,77.91Z"/><path class="cls-1" d="M122,91.76c-2.87,0-2.8,0-2.94-2.6-.26-4.85-.6-9.7-1-14.55-.06-.74,0-1,.78-1a46.39,46.39,0,0,1,6.64,1,7,7,0,0,1,4.82,4,12,12,0,0,1,.87,7.57,6,6,0,0,1-5.08,5A16.38,16.38,0,0,1,122,91.76Z"/><path class="cls-1" d="M93,81a12.55,12.55,0,0,1,.49-4.1c.37-1.33,1.13-1.68,2.48-1.27a4.29,4.29,0,0,1,2.87,3.07A13.41,13.41,0,0,1,99,84.11a53,53,0,0,1-1,7.2,4,4,0,0,1-.24.77c-.32.66-.24,1.72-1.22,1.76s-1.33-1-1.65-1.71a26.12,26.12,0,0,1-1.7-7.75A15,15,0,0,1,93,81Z"/><path class="cls-1" d="M76.74,85A36.76,36.76,0,0,1,75.82,94c-.15.58-.2,1.32-.94,1.44s-1.21-.57-1.54-1.18A24.85,24.85,0,0,1,71,85.88a19,19,0,0,1-.27-6.2c.16-1,.23-2,1.31-2.4a2.87,2.87,0,0,1,2.86.8,5.85,5.85,0,0,1,1.88,4.33C76.8,83.25,76.74,84.11,76.74,85Z"/></g></g></svg>