<svg xmlns="http://www.w3.org/2000/svg" viewBox="0 0 326.46 202.4"><defs><style>.a{fill:#fff;}</style></defs><path class="a" d="M167.45,402.74a59,59,0,0,1-22.78-5.51,13.58,13.58,0,0,1-4.35-3.12c-2.62-2.83-3.06-6.05-1.37-9.64a12.68,12.68,0,0,1,2.45-3.67c3.76-3.73,5.52-8.41,6.61-13.44a94.93,94.93,0,0,0,1.71-18.2c0-1.75.09-3.51.19-5.26a1.4,1.4,0,0,0-.95-1.52c-9.1-4.75-15.9-11.7-19.73-21.29a13,13,0,0,1,.38-11.37c2.84-5.3,9.16-7.52,15.09-5.32a1.77,1.77,0,0,0,2.15-.44,13.38,13.38,0,0,1,11.64-3.42A62.54,62.54,0,0,1,198.19,323c4.83,5.79,8.85,12,11.24,19.19,4.21,12.65,4.38,25.19-1.52,37.37-5.83,12-15.68,19-28.58,21.95A56,56,0,0,1,167.45,402.74Zm18.7-47.26a30.41,30.41,0,0,0-.55-5.81,47.54,47.54,0,0,0-1.63-7.35c-2.59-8.58-6.34-16.5-13.05-22.73-2.52-2.34-3-2.27-4.34.93a39.82,39.82,0,0,0-2.69,15.55c.09,7.17.09,14.34.36,21.51.12,3.26-.08,6.53-.17,9.79,0,1.58-.11,3.17-.27,4.75a77.81,77.81,0,0,1-2.05,12.7c-.18.66-.09,1,.68.92,1.06-.08,2.13-.07,3.2-.21,9.9-1.2,16.67-7.08,19.29-16.73A42.73,42.73,0,0,0,186.15,355.48ZM148,315.2c-.49-.9-.88-1.72-1.38-2.46a7.51,7.51,0,0,0-9.23-3c-3,1.4-4.25,4.57-3.18,8.48a25.12,25.12,0,0,0,5.29,9.28,37.13,37.13,0,0,0,11,9.4,1.15,1.15,0,0,0,1.65-.24,22.34,22.34,0,0,0,2.3-2.75,51.39,51.39,0,0,0,6-12.85,23.34,23.34,0,0,0,1.43-8.44c-.18-3.29-2.12-5.93-4.83-6.54a7.2,7.2,0,0,0-7.83,4.13A21.65,21.65,0,0,0,148,315.2Z" transform="translate(-123.78 -200.34)"/><path class="a" d="M333.75,335.14a52.12,52.12,0,0,1,4.49-5,27.66,27.66,0,0,1,7.91-5.74c8.63-3.7,20.92-.37,26.11,7.06a14,14,0,0,1,2.36,7c.58,6.49-.58,12.91-.59,19.36,0,5.79.55,11.47,3.83,16.54a23.4,23.4,0,0,1,3.75,9.88c.91,7.43-2.41,12.44-9.6,14.5-5.41,1.54-10.55,1.16-15.07-2.5A16.45,16.45,0,0,1,351.09,385c-.7-5.65.68-11,2-16.4,1-3.82,2.22-7.58,2.69-11.52a11.91,11.91,0,0,0-1-7.23c-3.47-6.42-10.1-5.72-14-2.39a10.73,10.73,0,0,0-3.71,11.5,48.58,48.58,0,0,0,1.45,5,57.89,57.89,0,0,1,3.24,20.21c-.06,10.46-7.77,14.92-15.07,16.16a13.55,13.55,0,0,1-5-.14c-4-.83-6.63-3.64-7.53-8a10.16,10.16,0,0,1,.63-6.09,21.6,21.6,0,0,1,2.23-4.36,19.11,19.11,0,0,0,3.51-9.65c.35-4.13,1.05-8.24.08-12.38-.78-3.3-1.76-6.54-2.74-9.78-1.36-4.52-2.65-9.06-2.28-13.85a14,14,0,0,1,2.56-7.13c2-2.72,4.33-3.55,7.54-2.57a11.35,11.35,0,0,1,7.69,7.45c.06.18.13.37.18.57S333.66,334.79,333.75,335.14Z" transform="translate(-123.78 -200.34)"/><path class="a" d="M132.55,274.54c-3.16,0-5.08-1.75-5.41-4.38-.79-6.33-1.66-12.66-2.5-19-.27-2.06-.58-4.11-.82-6.17a4.63,4.63,0,0,1,4.09-5.39,71.89,71.89,0,0,1,8.91-1,7.37,7.37,0,0,0,2.07-.55,10.66,10.66,0,0,1,9.2,1c.44.27.81.65,1.35.08,2.32-2.44,5.35-3.4,8.55-3.89,3.93-.6,7.81-.7,11.37,1.53a.88.88,0,0,0,1.19-.11c3.4-3.25,7.68-4.05,12.13-4.33,1.6-.09,1.6-.06,1.38-1.6-.11-.83-.24-1.66-.3-2.49a4.48,4.48,0,0,1,4.06-5c3-.4,6.09-.79,9.13-1.2a4.4,4.4,0,0,1,5.31,3.89c.17.94.31,1.89.45,2.83.09.59.27.9,1,.79,2.37-.37,4.75-.65,7.12-1a2.63,2.63,0,0,1,1.42,0,4.73,4.73,0,0,0,3.78-.39,19.79,19.79,0,0,1,11.51-1.07,6.78,6.78,0,0,0,1.9.19,2.09,2.09,0,0,0,2.1-2c.37-3.07,1.84-4.45,5-4.78,1.94-.21,3.87-.5,5.81-.76,2.61-.34,4.51.8,5.2,3.29.33,1.17,1.37,1.24,2.13,1.71.31.19.43-.24.54-.48a4.69,4.69,0,0,1,4.24-2.82c2.7-.3,5.38-.72,8.07-1.08a6.79,6.79,0,0,1,3.75.37c1.29.57,2.59,0,3.87-.22.38-.06.36-.46.42-.78a4.52,4.52,0,0,1,4.26-4c2.81-.37,5.61-.76,8.42-1.14,1.89-.25,3.6,0,4.77,1.73.58.87,1.44.72,2.27.54,1.61-.34,3.23-.53,4.85-.71a20.52,20.52,0,0,1,6.06.43,2.94,2.94,0,0,0,3.63-2.72,4.35,4.35,0,0,1,3.78-4.16c2.52-.38,5-.72,7.59-1a4.49,4.49,0,0,1,4.53,3c.5,1.39.64,1.42,1.72.44,2.59-2.37,5.77-3.31,9.14-3.83a15.81,15.81,0,0,1,3.57-.24c.84.06,1.25-.24,1.06-1.09-.64-3,1.8-5.35,4.9-5.63,2.7-.25,5.39-.65,8.07-1a4.72,4.72,0,0,1,5.55,4.39c.24,2.7.24,2.8,2.92,2.94,5.73.28,9.24,4.36,10,10.21.49,3.84,1,7.67,1.49,11.51a4.58,4.58,0,0,1-4.26,5.52c-1.9.25-3.8.51-5.7.74a2.76,2.76,0,0,0-2.14,1.11,4.71,4.71,0,0,1-3.56,1.7c-2.77.35-5.55.68-8.31,1.06a4.32,4.32,0,0,1-4.72-2.29,1.2,1.2,0,0,0-1.55-.65c-1.6.35-3.21.61-4.84.8a16,16,0,0,1-5.35-.27c-.78-.17-1.32-.14-1.75.72-.67,1.37-2,2-3.34,2.58-4.16,1.85-8.45,2.62-12.93,1.25a1.58,1.58,0,0,0-1.46.24,13.63,13.63,0,0,1-10.55,2.41,2.6,2.6,0,0,0-1.5.32,13.65,13.65,0,0,1-9.12.79c-.31-.09-.64-.24-.92,0-1.89,1.47-4.22,1.31-6.4,1.68-1.49.25-3,.38-4.51.56a2.69,2.69,0,0,0-2.11,1.15,4.56,4.56,0,0,1-3.34,1.65c-3,.42-6,.81-9,1.2a5.18,5.18,0,0,1-4.1-.89,1.9,1.9,0,0,0-1.37-.29,18.73,18.73,0,0,0-7,1.4c-4.22,1.88-8.7,2.37-13.1.26-.51-.24-.8,0-1.18.21a24.6,24.6,0,0,1-15.81,3.48,4.39,4.39,0,0,0-2.85.44c-1.78,1-3.88.78-5.83,1.14-.86.16-1.74.23-2.61.31a3.84,3.84,0,0,0-3,1.48c-1.08,1.42-2.82,1.33-4.38,1.57-2.36.36-4.74.63-7.12.94a5,5,0,0,1-4-.79,1.68,1.68,0,0,0-1.48-.18,34,34,0,0,1-7.45,1,13.93,13.93,0,0,1-7.13-1.71c-.45-.26-.86-.42-1.29,0-2.8,2.91-6.5,3.55-10.24,4.06a14.48,14.48,0,0,1-9.4-1.55.74.74,0,0,0-1,.14,11,11,0,0,1-5,3.22c-.71.22-.62.73-.55,1.25.46,3.78-.89,5.58-4.7,6.13C138.15,273.83,135.1,274.2,132.55,274.54Zm134.16-45.75h0c0,.71,0,1.43,0,2.15,0,.38.15,1-.31,1s-.53-.52-.63-.88q-.76-2.64-1.46-5.29c-.2-.75-.45-1.12-1.39-1-2.59.42-5.2.71-7.81,1-.74.09-1,.34-.7,1.09.83,2.53,1.63,5.07,2.38,7.63a1.93,1.93,0,0,0,1.41,1.57,2.69,2.69,0,0,1,2,1.87c.52,2.47,1.65,5,.14,7.5a1.21,1.21,0,0,0,.05,1.36c.27.35.7.21,1.11.16,2.48-.36,5-.67,7.45-1,1.69-.23,1.7-.25,1.74-2,0-1.91.06-3.83.09-5.75,0-.39-.06-.94.37-1s.61.53.75.9c.52,1.38,1.05,2.75,1.47,4.16.28,1,.82,1.1,1.7,1,2.25-.34,4.49-.64,6.75-.91,1.81-.21,1.81-.18,1.92-2,0-.43.12-.86.14-1.3.18-6.29.33-12.59.53-18.89,0-.86-.25-1.15-1.1-1-2.36.34-4.72.7-7.1.93-1.07.11-1.45.51-1.4,1.57.12,2.83.18,5.66.25,8.49,0,.28.13.72-.34.75s-.37-.36-.44-.62c-.41-1.41-.84-2.82-1.19-4.25a1.2,1.2,0,0,0-1.62-1.06,31.14,31.14,0,0,1-3.32.45c-1.11.09-1.68.51-1.49,1.72A10.46,10.46,0,0,1,266.71,228.79Zm-65.95,20c.09-.26-.23-.75.32-.84s.5.37.6.64c.55,1.37,1.09,2.74,1.56,4.13a1.23,1.23,0,0,0,1.56.9c2.71-.4,5.43-.83,8.16-1.12,1.06-.12,1.07-.49.72-1.29-1.05-2.46-2.07-4.92-3.1-7.38a3.86,3.86,0,0,1-.31-2.31c.48-2.5.82-5,1.24-7.54.14-.78-.17-1-.9-.92-2.68.38-5.36.8-8,1.1-1,.11-1.23.64-1.29,1.48-.15,2.15-.33,4.29-.5,6.44,0,.37.13.92-.45.93s-.41-.55-.45-.86c-.37-2.72-.7-5.45-1-8.17-.27-2.18-.51-4.35-.81-6.52-.07-.57-.12-1.21-1.06-1.07-2.68.41-5.36.79-8,1.12-.77.09-1,.42-.86,1.08l.57,4.14q.9,6.57,1.81,13.13c.48,3.51,1,7,1.41,10.53.08.56.22.9.88.81q4.08-.58,8.16-1.13c.66-.08.74-.36.66-1C201.26,253,201,250.93,200.76,248.79Zm150.59-34.57c-.34-2.83-.68-5.47-.93-8.12-.09-.92-.37-1.27-1.33-1.13-2.64.38-5.29.68-7.94,1-.58.08-.81.41-.7,1,.14.78.23,1.57.34,2.36,1.12,8.16,2.26,16.31,3.32,24.48.13,1,.48,1.24,1.36,1.12l7.22-1c.58-.08.81-.33.72-1-.45-3.15-.91-6.3-1.25-9.46-.08-.76-.76-2,.69-2.25s1.23,1.19,1.36,2c.39,2.51.68,5,1,7.57.06.47.29.75.79.68,2.56-.35,5.12-.72,7.69-1,.81-.11.89-.55.79-1.26-.34-2.24-.58-4.5-.9-6.74a35,35,0,0,0-1.17-6.57,5.23,5.23,0,0,0-5.22-3.77A8.4,8.4,0,0,0,351.35,214.22ZM137,244.77a2.11,2.11,0,0,1-.32-.51c-.25-1.21-1.06-1.3-2.08-1.14-1.81.28-3.62.5-5.44.73-.75.09-1,.4-.89,1.19.64,4.49,1.22,9,1.82,13.49q.69,5.1,1.39,10.18c.08.64.09,1.35,1.06,1.21,2.57-.35,5.13-.71,7.7-1,.86-.1,1.17-.47,1-1.33-.23-1.46-.32-2.94-.61-4.38-.22-1,.1-1.18,1.06-1.11a7.18,7.18,0,0,0,8-6.16,16.38,16.38,0,0,0-1.22-9.56C146.19,240.9,139.56,240.5,137,244.77Zm160.81-6.24c.84,1.4,2.15,1.56,3.57,1.5a10.59,10.59,0,0,0,4.32-1.27,1.34,1.34,0,0,0,.83-1.53c-.27-1.93-.5-3.86-.75-5.8,0-.25-.09-.55-.37-.52-1.12.11-.81-.69-.83-1.25,0-.72,0-1.44,0-2.16-.11-3.5-1.73-5.84-4.85-6.53A18,18,0,0,0,286,223.5a1.13,1.13,0,0,0-.56,1.22c.27,2,.57,3.93.81,5.9.13,1,.51,1.24,1.34.57a7.72,7.72,0,0,1,2.63-1.38c1.52-.45,3-.53,4.25.66.23.21.57.42.5.77s-.48.33-.79.38c-1.68.33-3.37.59-5,1a3.93,3.93,0,0,0-2.74,4.28c.23,2.44,1.47,4,3.44,4.28A8.47,8.47,0,0,0,297.82,238.53ZM150.41,249.17a13.74,13.74,0,0,0,1.22,5.88,6.5,6.5,0,0,0,5.06,4.42A16.47,16.47,0,0,0,167.25,258a6.26,6.26,0,0,0,3.44-4.63,15.53,15.53,0,0,0-1.31-10,6.89,6.89,0,0,0-5.5-3.91,17.68,17.68,0,0,0-6.16.31C152.54,240.79,150.24,243.7,150.41,249.17Zm164.73-11.34a14.74,14.74,0,0,0,7-1.78c.47-.27.87-.54.78-1.19-.24-1.81-.47-3.63-.67-5.45-.1-.88-.59-1-1.33-.87s-1.5.23-2.24.35c-.38.07-.69.06-.86-.39-.6-1.64-.28-2.19,1.47-2.38.23,0,.47,0,.71-.05.68-.08,1.08-.3,1-1.14-.32-2.24-.55-4.5-.84-6.75-.05-.44-.2-.8-.83-.79s-1.55.53-2.16,0-.16-1.46-.42-2.17a2.51,2.51,0,0,1-.11-1c0-.87-.39-1.22-1.27-1.08-1.77.26-3.55.49-5.32.71a1,1,0,0,0-1,1.11,5.45,5.45,0,0,1-3.39,5.06.91.91,0,0,0-.61,1.12c.29,1.85.57,3.69.76,5.55.09.81.34,1.19,1.18,1s1,.16,1.06.89c.09,1.11.3,2.2.45,3.31C309,236.1,311,237.83,315.14,237.83Zm-74.28,11a15.76,15.76,0,0,0,7.71-1.62,1.77,1.77,0,0,0,1.08-2.12c-.19-1.22-.32-2.45-.47-3.67-.22-1.9-.22-1.9-2.11-1.71a8.09,8.09,0,0,0-1.31.16c-.71.18-1.06.06-1.19-.79-.28-1.82-.32-1.84,1.57-2,1.72-.14,1.82-.29,1.55-2s-.48-3.14-.63-4.73c-.21-2.09-.17-2.09-2.28-1.89h-.12c-.69.22-.93-.08-1-.75a25.12,25.12,0,0,0-.31-2.61c-.07-.44-.11-1-.82-.94-2,.26-3.94.55-5.91.82a.87.87,0,0,0-.85,1,5.41,5.41,0,0,1-3.38,5.06c-.45.21-.73.48-.66,1,.28,2,.58,3.93.84,5.91.07.56.25.93.88.8,1.14-.22,1.36.4,1.37,1.35a19.66,19.66,0,0,0,.24,2C235.68,247.1,237.5,248.86,240.86,248.87Zm-28.1-8a14.7,14.7,0,0,0,1.55,6.6,6.83,6.83,0,0,0,5.06,3.8c4.21.69,8.14-.36,11.95-2a1.08,1.08,0,0,0,.66-1.17c-.15-1.35-.31-2.69-.47-4-.07-.64-.36-.76-1-.56-1.36.44-2.75.81-4.14,1.14a9.9,9.9,0,0,1-2.35.3c-.85,0-1.09-.72-1.15-1.43s.55-.66,1-.72c2.24-.31,4.49-.63,6.74-.89.78-.09,1.18-.35,1.07-1.18s-.15-1.67-.25-2.5c-.53-4.27-2.49-6.48-6.54-7a13.51,13.51,0,0,0-8.74,1.75C213.34,234.74,212.69,237.52,212.76,240.89Zm110.12-18.47a16.86,16.86,0,0,0,1.46,6.24,7,7,0,0,0,5.8,4.22,20.6,20.6,0,0,0,3.69-.09,24.64,24.64,0,0,0,7.08-1.58c.5-.18.82-.45.73-1.05-.26-1.81-.52-3.62-.73-5.44-.09-.72-.38-.92-1.09-.82-2.29.32-4.58.58-6.87.87a2,2,0,0,1-2.33-1.54,1.85,1.85,0,0,1,1.51-2.2,5.6,5.6,0,0,1,.81-.19c2.05-.26,4.11-.52,6.16-.76.74-.09,1.17-.32,1-1.21-.25-1.61-.38-3.24-.58-4.86a1.2,1.2,0,0,0-1.12-1.17,19.4,19.4,0,0,0-9.21.53C324.8,214.78,322.88,217.43,322.88,222.42ZM183.56,236.85a17.53,17.53,0,0,0-7.13,1.23,7.23,7.23,0,0,0-4.89,5.44,14.9,14.9,0,0,0,.82,8.55,7.37,7.37,0,0,0,7.51,5.18,28.33,28.33,0,0,0,9.24-1.69c.85-.29.95-.84.85-1.57-.22-1.49-.43-3-.66-4.48s-.32-1.51-1.81-1.28q-3.12.48-6.26.86a2,2,0,1,1-.61-3.87c.23-.05.46-.13.69-.16,2.06-.26,4.11-.54,6.17-.74.89-.09,1.17-.49,1-1.33-.24-1.61-.48-3.23-.68-4.84a1.12,1.12,0,0,0-1-1.05A15.53,15.53,0,0,0,183.56,236.85Zm75.75,5.55a10.19,10.19,0,0,0-.33-2.83,2.31,2.31,0,0,0-1.66-2,6.58,6.58,0,0,0-5.28.69c-2,1.34-1,3.4-.81,5.19a2.82,2.82,0,0,0,2.31,2.7,7.39,7.39,0,0,0,3-.23C258.76,245.54,259.32,244.81,259.31,242.4Z" transform="translate(-123.78 -200.34)"/><path class="a" d="M289.64,385a19.42,19.42,0,0,1-4.15,7.9c-3.35,3.63-7.65,5-12.42,4.9a31.47,31.47,0,0,1-12.74-2.92c-6.73-3.1-10.3-8.51-11.34-15.65-.77-5.29.47-10.1,4.49-13.89a23.17,23.17,0,0,1,9.12-4.84c5-1.63,10.19-3,15-5.27a20.56,20.56,0,0,0,6.3-4.08,9,9,0,0,0,2.49-5.19,27.27,27.27,0,0,0,.47-4.51,5.29,5.29,0,0,0-.44-2.09,2,2,0,0,0-2.64-1.22,6.88,6.88,0,0,0-3.51,2.37,62.1,62.1,0,0,0-4.85,7.27,10.67,10.67,0,0,1-6.55,5.06c-3.51.82-6.45-.53-9.05-2.73a17.33,17.33,0,0,1-6.43-12.39A8.67,8.67,0,0,1,255,332c3.75-5.3,9-8.26,15.17-9.76a40.26,40.26,0,0,1,23.44,1.47c5,1.76,7.65,5.68,9.27,10.45a33.37,33.37,0,0,1,1.67,10.59c0,4.91.1,9.83,0,14.74a48.61,48.61,0,0,0,3.21,19.57,21.06,21.06,0,0,1,1.82,9.44,10.22,10.22,0,0,1-4.11,7.91,6.42,6.42,0,0,1-7.31.49,12.23,12.23,0,0,1-5.23-5.28C291.86,389.51,290.81,387.37,289.64,385Zm-1.38-24.91c.05-1.63,0-1.65-1.58-1.06a33.23,33.23,0,0,0-10.16,6,20.21,20.21,0,0,0-5.92,7.25,6.9,6.9,0,0,0,.89,7.64,3.56,3.56,0,0,0,3.95,1.27,15.52,15.52,0,0,0,10.81-9.8A35.83,35.83,0,0,0,288.26,360.13Z" transform="translate(-123.78 -200.34)"/><path class="a" d="M424.07,384.94c-.47,1.22-.83,2.27-1.28,3.28-3.16,7.09-9.22,9.77-16.25,9.43a32.79,32.79,0,0,1-11.46-2.72c-6.57-2.85-10.28-8-11.55-14.82-1.07-5.77.05-11.07,4.63-15.18a22.83,22.83,0,0,1,8.31-4.38c5.07-1.67,10.25-3.05,15.13-5.25a38.62,38.62,0,0,0,4.71-2.61c3.47-2.19,4.54-5.58,4.84-9.4a14,14,0,0,0,0-3c-.3-2-1.57-2.82-3.5-2.14a7.9,7.9,0,0,0-3.5,2.81c-1.71,2.17-3,4.64-4.52,6.91-2.2,3.2-5,5.37-9.18,5a11.7,11.7,0,0,1-7-3.57,17,17,0,0,1-5.66-12.38,8.2,8.2,0,0,1,1.49-4.84c3.56-5.28,8.71-8.22,14.69-9.84,7.87-2.12,15.65-1.44,23.34,1,5,1.6,7.92,5.17,9.69,9.89a37.19,37.19,0,0,1,2,13.53c0,6.82-.18,13.65.22,20.47a35.07,35.07,0,0,0,2.25,9.51,41.08,41.08,0,0,1,2.39,8.26c.53,4.11-.05,7.9-3.33,10.84a6.67,6.67,0,0,1-8.08.89,13.73,13.73,0,0,1-5.78-6.52C425.82,388.46,425,386.79,424.07,384.94Zm-1.49-24.35a6.14,6.14,0,0,1,0-1c.22-1.18-.28-1.21-1.22-.87a33.9,33.9,0,0,0-6.12,3,28.21,28.21,0,0,0-9.65,9.13,7.78,7.78,0,0,0-.65,7.54,4.11,4.11,0,0,0,5.24,2.53,15.36,15.36,0,0,0,10.3-9.41A35.53,35.53,0,0,0,422.58,360.59Z" transform="translate(-123.78 -200.34)"/><path class="a" d="M215.73,370.06c-.11-7,1.31-13.71,2.86-20.44,1.27-5.47,2.71-10.91,4.52-16.23,1.25-3.68,2.93-7.17,6.2-9.59,3.82-2.83,8.61-2.65,11.36.62a10.16,10.16,0,0,1,2.07,9.87,40.84,40.84,0,0,1-4.57,9.19,15.46,15.46,0,0,0-1.53,13.11,66.3,66.3,0,0,0,3.64,8.7,49.28,49.28,0,0,1,5,16.28c.43,4.44-.38,8.62-3.3,12.14-3.91,4.71-11.61,5.9-16.41,1.71a27.29,27.29,0,0,1-8.92-16.09A48.85,48.85,0,0,1,215.73,370.06Z" transform="translate(-123.78 -200.34)"/><path class="a" d="M208.43,305.68a10.35,10.35,0,0,0,2.86-1.24,11.58,11.58,0,0,1,5-1.87c3.73-.21,7.31,2.82,8.29,7a6.73,6.73,0,0,1-6,8.45,12,12,0,0,1-4.23-.68,13.41,13.41,0,0,0-8.47.06,12.38,12.38,0,0,1-1.75.4c-4.05.78-6.44-1.52-5.88-5.62a29.92,29.92,0,0,1,2.12-7.59,23.91,23.91,0,0,0,.8-15.37,46.73,46.73,0,0,1-1.65-8.2,11.58,11.58,0,0,1,2.42-8.29,3.62,3.62,0,0,1,5.73-.32c2.1,2.05,2.94,4.68,3.45,7.48.76,4.09.38,8.19.11,12.29a43.2,43.2,0,0,1-1.57,9.78C209.26,303.13,208.52,304.22,208.43,305.68Z" transform="translate(-123.78 -200.34)"/><path class="a" d="M310.35,297.85c0,2.87-1.11,4.42-3.8,5.41a63.26,63.26,0,0,1-12.5,3.57c-.8.12-.69.46-.46.94a2.19,2.19,0,0,0,2.13,1.27,11,11,0,0,0,4.79-1.34c1.38-.62,2.7-1.38,4.08-2,3.07-1.39,5.43-.1,5.83,3.26a6.19,6.19,0,0,1-2.7,6.35c-4.75,3.18-9.76,3.29-14.8,1a13.44,13.44,0,0,1-8.25-12,22.75,22.75,0,0,1,3.12-13.88c2.59-4.24,6.35-6.54,11.42-5.82s8.46,3.35,10.05,8.23A13.54,13.54,0,0,1,310.35,297.85Zm-16.66,1.56c2.48-.33,4.95-.78,7-2.34a2.32,2.32,0,0,0,.7-3.43,8.16,8.16,0,0,0-1-1.35,2.68,2.68,0,0,0-4.27-.18,13.18,13.18,0,0,0-3.37,6.22C292.55,299.2,292.76,299.55,293.69,299.41Z" transform="translate(-123.78 -200.34)"/><path class="a" d="M239,291.27c.7-1,1.3-2,2-2.89,3.16-3.92,9.92-3.94,12.52,0,1.86,2.84,1.67,5.9.5,8.95a49.08,49.08,0,0,1-8.22,13.27,35.5,35.5,0,0,1-6.32,6.35c-1.84,1.36-2.95,1.34-4.71-.15-3.85-3.26-6.49-7.44-8.73-11.88A27.87,27.87,0,0,1,223,294.81c-.23-2.74.14-5.37,2.09-7.49,3.18-3.48,9.23-3,12.33,1A11.83,11.83,0,0,1,239,291.27Zm-.72,8.16c-.66-2.7-2.49-4.05-4.58-3.56-1.78.43-2.63,2.35-2,4.84a17.43,17.43,0,0,0,5.13,8.61,1.06,1.06,0,0,0,1.65.08c.59-.53,1.24-1,1.78-1.6a20.61,20.61,0,0,0,4.72-7.27c.65-2,.06-3.68-1.4-4.33A3.58,3.58,0,0,0,239,298C238.8,298.42,238.59,298.85,238.29,299.43Z" transform="translate(-123.78 -200.34)"/><path class="a" d="M270.67,304.87c.67-3.53.81-6.9,1.56-10.17a17.06,17.06,0,0,1,3-7.08c.18-.22.34-.45.54-.65,1.62-1.6,4.07-2.17,5.7-1.32s2.5,3.05,2.1,5.43a18.92,18.92,0,0,1-2,5.35A92.42,92.42,0,0,0,276,310.81a19.76,19.76,0,0,1-2.22,5,3.85,3.85,0,0,1-5.51,1.32,9.16,9.16,0,0,1-3.71-4.57,29.71,29.71,0,0,1-1.72-5.1c-.71-3.07-2.23-5.79-3.5-8.63s-2.26-5.46-2-8.52a6.58,6.58,0,0,1,4.08-5.32,2.89,2.89,0,0,1,3.18.73c2,1.94,2.71,4.47,3.28,7.06.85,3.85,1.64,7.71,2.46,11.57A3.11,3.11,0,0,0,270.67,304.87Z" transform="translate(-123.78 -200.34)"/><path class="a" d="M321.67,311.7a5.14,5.14,0,0,1-1.42,3.26,41.69,41.69,0,0,0-3.08,4.39,8.38,8.38,0,0,1-1.13,1.39c-2.28,2.27-4,1-5.12-.9a1.76,1.76,0,0,1,.47-2.37,7.52,7.52,0,0,0,2.66-4.91,5.19,5.19,0,0,1,2.15-3.48,3.22,3.22,0,0,1,3.6-.16A3,3,0,0,1,321.67,311.7Z" transform="translate(-123.78 -200.34)"/><path class="a" d="M446,321.32c.82-2.15,1.61-4.13,2.31-6.15a1.11,1.11,0,0,1,1.45-.82c.79.11.45.74.46,1.14,0,2.15,0,4.31,0,6.46,0,.42.23,1-.59,1s-.53-.58-.54-1a38.18,38.18,0,0,0-.25-5.2c-.59,1.53-1.12,3.08-1.78,4.59-.25.57-.06,1.6-1.12,1.57s-.8-1-1-1.53a49.29,49.29,0,0,0-2.11-4.75v4.88c0,.32,0,.64,0,1s-.25.45-.56.45-.56-.09-.56-.46q0-3.83,0-7.65c0-.44.27-.52.63-.52s1-.08,1.25.61c.65,1.84,1.36,3.66,2.06,5.48C445.66,320.67,445.78,320.92,446,321.32Z" transform="translate(-123.78 -200.34)"/><path class="a" d="M436.65,319.2v-1.56c0-2.06,0-2.06-2.08-2.22-.37,0-.72,0-.72-.54s.33-.55.71-.55h5.5c.39,0,.72,0,.71.56s-.37.5-.74.53c-2.13.16-2.13.16-2.13,2.36,0,1.47,0,3,0,4.42,0,.52-.09.83-.7.82s-.55-.45-.55-.84C436.64,321.19,436.65,320.19,436.65,319.2Z" transform="translate(-123.78 -200.34)"/><path class="a" d="M371.33,208.44a3.82,3.82,0,0,0,0,1.68c.05.31,0,.56-.37.62s-.61-.06-.66-.48c-.14-1.14-.31-2.29-.46-3.44,0-.3,0-.57.4-.59s1-.32,1.24.33.67,1.33,1.05,2.07a4.78,4.78,0,0,0,.53-2.07c.11-.68.46-.82,1.06-.85s.62.47.67.88c.14,1,.27,2,.41,3,.05.36,0,.63-.42.7s-.55-.16-.63-.53.1-1-.43-1.45c-.13.53-.23,1-.33,1.4s0,.74-.52.82-.66-.34-.85-.68S371.66,209.06,371.33,208.44Z" transform="translate(-123.78 -200.34)"/><path class="a" d="M368.75,206.43c.34,0,.67,0,.73.41s-.32.5-.63.52c-.58,0-.61.36-.54.82.11.74.19,1.49.29,2.24,0,.35,0,.63-.42.71s-.62-.21-.68-.6c-.08-.63-.2-1.26-.24-1.89s-.14-1.19-1-1a.36.36,0,0,1-.48-.37c0-.38.2-.49.51-.53Z" transform="translate(-123.78 -200.34)"/><path class="a" d="M148.87,319.39a8.85,8.85,0,0,1,.58-3.05,3.55,3.55,0,0,1,3.3-2.35,3.23,3.23,0,0,1,3.31,2.07,8.09,8.09,0,0,1,.38,5.27,28.82,28.82,0,0,1-4.32,10.92c-.62.92-1.16,1.06-2.1.37-4.21-3.1-7.58-6.8-9.06-12a4.64,4.64,0,0,1-.05-2.37c.62-2.52,3.35-3.44,5.63-1.92A8,8,0,0,1,148.87,319.39Z" transform="translate(-123.78 -200.34)"/><path class="a" d="M296.56,234.59c0,1-.35,1.6-1.32,1.71s-1.58-.63-1.67-1.78a2.21,2.21,0,0,1,2.22-1.83C297,232.83,296.14,234,296.56,234.59Z" transform="translate(-123.78 -200.34)"/><path class="a" d="M163.08,251.49a2,2,0,0,1-1.67,2.19,1.81,1.81,0,0,1-2.1-1.66c-.19-1.14-.35-2.28-.45-3.43a1.84,1.84,0,0,1,1.59-2.06,1.86,1.86,0,0,1,2.13,1.49C162.81,249.19,162.93,250.39,163.08,251.49Z" transform="translate(-123.78 -200.34)"/><path class="a" d="M222.33,241.44c-1.33,0-1.51-.28-1.62-2.52a1.56,1.56,0,0,1,1.6-1.79c1.24,0,1.9,1,1.91,3.16C224.22,241.8,222.89,241.11,222.33,241.44Z" transform="translate(-123.78 -200.34)"/></svg>