<svg xmlns="http://www.w3.org/2000/svg" xmlns:xlink="http://www.w3.org/1999/xlink" viewBox="0 0 236.65 159.31"><defs><style>.cls-1,.cls-11,.cls-13,.cls-24,.cls-30,.cls-31,.cls-42,.cls-44,.cls-57,.cls-6,.cls-9{fill:none;}.cls-2{isolation:isolate;}.cls-16,.cls-26,.cls-27,.cls-28,.cls-3,.cls-36,.cls-39{fill:#010101;}.cls-4{fill:#929497;}.cls-32,.cls-48,.cls-49,.cls-5{fill:#231f20;}.cls-5{opacity:0.49;}.cls-19,.cls-32,.cls-5{mix-blend-mode:multiply;}.cls-10,.cls-11,.cls-13,.cls-14,.cls-16,.cls-24,.cls-26,.cls-27,.cls-28,.cls-30,.cls-31,.cls-33,.cls-34,.cls-35,.cls-36,.cls-39,.cls-41,.cls-42,.cls-44,.cls-6,.cls-9{stroke:#010101;}.cls-10,.cls-11,.cls-13,.cls-14,.cls-16,.cls-24,.cls-26,.cls-27,.cls-28,.cls-30,.cls-31,.cls-33,.cls-34,.cls-35,.cls-36,.cls-39,.cls-41,.cls-42,.cls-44,.cls-57,.cls-6,.cls-9{stroke-linecap:round;stroke-linejoin:round;}.cls-6{stroke-width:2.59px;}.cls-7{fill:#f5bf79;}.cls-8{clip-path:url(#clip-path);}.cls-14,.cls-33,.cls-34,.cls-35,.cls-41,.cls-9{stroke-width:1.16px;}.cls-10,.cls-12,.cls-15,.cls-23,.cls-37,.cls-43{fill:#fff;}.cls-10{stroke-width:0.96px;}.cls-11{stroke-width:1.48px;}.cls-13{stroke-width:1.54px;}.cls-14,.cls-25{fill:#414142;}.cls-15,.cls-19{opacity:0.3;}.cls-15,.cls-23,.cls-37,.cls-43,.cls-47{mix-blend-mode:screen;}.cls-16{stroke-width:1.93px;}.cls-17,.cls-40{fill:#008fd5;}.cls-18{fill:#0076af;}.cls-20{clip-path:url(#clip-path-2);}.cls-21{fill:#007fbc;}.cls-22{fill:#007dba;}.cls-23{opacity:0.35;}.cls-24,.cls-26{stroke-width:0.77px;}.cls-27{stroke-width:0.7px;}.cls-28{stroke-width:1.15px;}.cls-29{opacity:0.45;mix-blend-mode:overlay;}.cls-30{stroke-width:1.49px;}.cls-31{stroke-width:1.41px;}.cls-32{opacity:0.15;}.cls-33{fill:#fed600;}.cls-34{fill:#f04f38;}.cls-35{fill:#f79d1f;}.cls-36{stroke-width:1.5px;}.cls-37{opacity:0.62;}.cls-38,.cls-41{fill:#f37a21;}.cls-39{stroke-width:1.05px;}.cls-40,.cls-57{stroke:#231f20;}.cls-40{stroke-miterlimit:10;stroke-width:1.16px;}.cls-42{stroke-width:0.7px;}.cls-43{opacity:0.46;}.cls-44{stroke-width:1.12px;}.cls-45{fill:#00bdf2;}.cls-46{fill:#0083ca;}.cls-47{opacity:0.6;}.cls-48{font-size:11.28px;font-family:AGBookRounded-BoldCn, AGBookRounded BoldCn;font-weight:700;}.cls-50{fill:#a8a8ac;}.cls-51{fill:#ffd400;}.cls-52{fill:#fdb913;}.cls-53{fill:#f99d1c;}.cls-54{fill:#f47b20;}.cls-55{fill:#fff9ba;}.cls-56{fill:#ffdaa2;}.cls-57{stroke-width:2.19px;}</style><clipPath id="clip-path"><path class="cls-1" d="M62.29,24.53l1.12,7.12s-11,1.88-15.09-1.77c0,0,5.67.21,6.42-2.71,0,0-6.9.55-10-3.29,0,0,6.57.81,8.8-2.23-.87,0-6.58-1.41-8.09-5.76,0,0,7.08,2,10.82-.18,0,0-4.59-1.87-5.73-5.24,0,0,3.3,2.29,9.1-2.23,3.24-2.52,16-4.52,16-4.52s11.49.65,14.49,2.7c3.65,2.5,4.86,2.83,7.59,2.93,0,0-1.79,2.6-4.42,3,0,0,3.24,1.82,9.91.81,0,0-3.67,5.46-8,6.07,0,0,2.7,3.1,8.12,2a14.11,14.11,0,0,1-9.4,5.36,9.54,9.54,0,0,0,6.37,2A16.16,16.16,0,0,1,88.09,34l-.21.81s.27-4,.37-8.29,3.09-5.38,3-7.26.1-4.48-2-7.61S77.54,9,75.4,10.39A19.08,19.08,0,0,0,63.18,13.3S61.75,21.19,62.29,24.53Z"/></clipPath><clipPath id="clip-path-2"><path class="cls-1" d="M53.11,43s-1.39-3.69-.56-5.91,1.81-3.61,2.78-4.24a8.82,8.82,0,0,1,4.38-1.46,18.72,18.72,0,0,1,4.9.28c1.44.24,3,.56,5.53,1s20.57,5.91,48.78-4.79c0,0,9.58-4.53,12.16,3.12,3.08,9.13-13.13,8.2-22.17,11.89S82.78,48,63.67,44.41C63.67,44.41,56.1,47.46,53.11,43Z"/></clipPath></defs><g class="cls-2"><g id="Layer_2" data-name="Layer 2"><g id="Layer_1-2" data-name="Layer 1"><path class="cls-3" d="M87.88,35.1h0a.31.31,0,0,1-.26-.32s.27-4.06.37-8.28a8.34,8.34,0,0,1,2-5.23,3.32,3.32,0,0,0,1-2c0-.25,0-.5,0-.77a11.21,11.21,0,0,0-2-6.69c-2-3-11.36-2.45-13.39-1.17a.3.3,0,0,1-.21,0,18.89,18.89,0,0,0-11.91,2.8c-.27.91-2.15,7.67-.35,10.35a.3.3,0,0,1,0,.15l.58,7.64a.3.3,0,0,1-.26.32,40,40,0,0,1-6.07.49c-4.41,0-7.53-.77-9.27-2.33a.31.31,0,0,1-.08-.34.3.3,0,0,1,.29-.19c.05,0,4.88.15,6-2.08a18.28,18.28,0,0,1-3.45-.24,10.05,10.05,0,0,1-6.37-3.19.3.3,0,0,1,0-.34.3.3,0,0,1,.31-.15c.06,0,5.78.67,8.15-1.69-1.84-.34-6.41-2-7.77-5.9a.3.3,0,0,1,.07-.31.3.3,0,0,1,.3-.08c.07,0,6.35,1.78,10,.12-1.31-.63-4.39-2.38-5.33-5.15a.3.3,0,0,1,.46-.35S53.89,12.31,59.42,8c3.27-2.54,7.49-2.83,16.12-4.58h.06c.47,0,11.61.67,14.65,2.75C93.79,8.6,95,9,97.67,9a.32.32,0,0,1,.26.17.31.31,0,0,1,0,.31,8.36,8.36,0,0,1-3.7,2.9,18.84,18.84,0,0,0,8.9.44.31.31,0,0,1,.3.14.3.3,0,0,1,0,.33c-.14.22-3.47,5.1-7.62,6.08A8.67,8.67,0,0,0,103.19,21a.3.3,0,0,1,.31.47,14.25,14.25,0,0,1-8.86,5.38,9,9,0,0,0,5.55,1.53.31.31,0,0,1,.3.16.3.3,0,0,1,0,.33A16.61,16.61,0,0,1,88.32,34.3l-.14.57A.31.31,0,0,1,87.88,35.1Z"/><path class="cls-4" d="M88.25,33.69A15.9,15.9,0,0,0,99.5,29a9.89,9.89,0,0,1-5.85-2.12.3.3,0,0,1-.09-.32.28.28,0,0,1,.25-.21,13.93,13.93,0,0,0,8.7-4.63,11.59,11.59,0,0,1-1.51.1,8.25,8.25,0,0,1-6.1-2.35.32.32,0,0,1-.05-.31.28.28,0,0,1,.24-.19c3.34-.47,6.33-4,7.39-5.37-6.22.79-9.26-.87-9.39-.94a.33.33,0,0,1-.15-.32.32.32,0,0,1,.26-.25,6.84,6.84,0,0,0,3.85-2.43C94.63,9.48,93.28,9,89.9,6.67,87.08,4.74,76.27,4.07,75.6,4,66.3,6.26,62.86,6.09,59.79,8.48c-4.36,3.4-7.37,3-8.69,2.6,1.43,2.76,5.22,4.33,5.26,4.34a.31.31,0,0,1,.18.26.3.3,0,0,1-.14.29c-3.22,1.89-8.67.8-10.48.37,1.7,3.68,6.68,5,7.56,5h0a.32.32,0,0,1,.27.16.31.31,0,0,1,0,.32c-1.85,2.53-6.43,2.53-8.29,2.42,3.19,3.06,9.2,2.62,9.26,2.62A.3.3,0,0,1,55,27a.32.32,0,0,1,.06.27c-.62,2.4-4.14,2.85-5.83,2.93,3.94,2.53,12.27,1.46,13.88,1.22l-.54-7.29c-2-3.15.24-10.59.34-10.9A.3.3,0,0,1,63,13a19.63,19.63,0,0,1,12.32-3c2.38-1.35,11.9-1.85,14.12,1.4a11.9,11.9,0,0,1,2.06,7q0,.39,0,.75a3.77,3.77,0,0,1-1.08,2.4,7.81,7.81,0,0,0-1.9,4.88C88.49,29.4,88.34,32.19,88.25,33.69Z"/><path class="cls-5" d="M94.13,11s-4.19.09-7.36-4.59L84.63,12S91.62,12.84,94.13,11Z"/><path class="cls-5" d="M97.42,23.55s-4.18.19-7.47-4.4l-2,5.63S95,25.47,97.42,23.55Z"/><path class="cls-5" d="M94.84,30.66s-4.19,0-7.25-4.78l-2.28,5.53S92.28,32.46,94.84,30.66Z"/><path class="cls-5" d="M97.37,16s-4.08.95-8.16-3L88.28,19S95.3,18.38,97.37,16Z"/><path class="cls-6" d="M90.8,16.67C90.8,6.6,85,1.7,76.8,1.3H75.35c-7.45.54-17,9-11.86,29.62C63.7,39,70,46.52,76.65,44.49,82.34,42.75,89,40.94,88.74,28.37c.69-2.87,2.06-6.74,2.06-9.83Z"/><path class="cls-7" d="M90.8,16.67C90.8,6.6,85,1.7,76.8,1.3H75.35c-7.45.54-17,9-11.86,29.62C63.7,39,70,46.52,76.65,44.49c5.69-1.74,12.42-4.56,12.09-16.12,1-3.3,2.06-6.74,2.06-9.83Z"/><path class="cls-4" d="M66.39,6.32s-5.26,10.12-3.7,16.47l-4.54-1.94,6.5-14.39Z"/><g class="cls-8"><path class="cls-5" d="M63.61,12.39s1.5,7.21,1.29,7.23l.33,3.24a38.48,38.48,0,0,0-.07,4.47l-.87,3.48s-7.68.67-10.94-.5a7.62,7.62,0,0,0,4.41-3.65A19,19,0,0,1,50.32,25s3.28-.67,7.82-5.22c-2.74.34-4.36-.15-5.34-.93,0,0,5.35-.87,7.26-4.42a7.9,7.9,0,0,1-4-1.17c4.81-.68,6.87-6,9.47-5.39L64.87,9.2l-1.26,3.19"/></g><path class="cls-7" d="M62.33,23s-6.49-5.05-7.53.72c-.24,4.89,7.75,2.34,7.75,2.34"/><path class="cls-9" d="M56.47,23.63a3.74,3.74,0,0,1,4.59.14"/><path class="cls-9" d="M57.72,23.49s.7,1.67,2.09.14"/><path class="cls-10" d="M67.44,28s4,3.37,8.56,3.79c.4,0,.8.06,1.18.07a16.86,16.86,0,0,0,6.46-.91s-1.6,4-4.79,4.8S69.1,37.88,67.44,28Z"/><line class="cls-10" x1="79.79" y1="31.97" x2="79.79" y2="34.36"/><line class="cls-10" x1="77.39" y1="32.07" x2="77.39" y2="34.47"/><line class="cls-10" x1="74.68" y1="31.55" x2="74.68" y2="33.95"/><line class="cls-10" x1="71.97" y1="30.82" x2="71.97" y2="33.22"/><line class="cls-10" x1="69.8" y1="29.73" x2="69.8" y2="32.12"/><line class="cls-10" x1="81.77" y1="31.55" x2="81.77" y2="33.95"/><path class="cls-9" d="M62.33,23s-6.61-5.1-7.53.72c-.48,4.57,7.65,2.5,7.65,2.5"/><path class="cls-11" d="M62.27,22.48s0-9.83,4.18-15.82"/><path class="cls-9" d="M62.48,26.49a24.08,24.08,0,0,0,1.25,5.42"/><polygon class="cls-7" points="66.34 42.81 67.17 49.48 79.27 50.1 86.35 49.48 86.77 43.85 66.34 42.81"/><path class="cls-12" d="M99.74,97.85a.8.8,0,0,1-.56-.24c-.25-.26-.29-.3-.24-2.8-.49-.63-2-1.32-6.15-1.32a143.71,143.71,0,0,0-15.41,1.36A140.71,140.71,0,0,1,62.15,96.2c-2.93,0-6.87-.29-7.43-2.78s-.13-6.37.35-10.33c.83-6.85,1.69-13.94-3-14.54a5.64,5.64,0,0,1-5.24-5.36c0-.2-.61-6.35.88-10.63s13.75-11.67,15.14-12.5a.79.79,0,0,1,.39-.11.73.73,0,0,1,.41.12l14.29,9.07L87.45,44a.62.62,0,0,1,.26-.09L109,41h.11a.78.78,0,0,1,.69.42L115,51.85a.78.78,0,0,1,0,.58.73.73,0,0,1-.39.45l-12.37,6.19c-.2.27-1,1.6-.93,5.08s-.24,13.18-.52,20.93c-.14,3.74-.26,7.13-.32,9.34a2.7,2.7,0,0,1,.21,1.45C100.55,97.31,100.49,97.85,99.74,97.85Z"/><path class="cls-3" d="M63.21,40.72,77.87,50l9.94-5.36,21.27-2.91,5.21,10.42-12.51,6.25s-1.36,1.24-1.22,5.73c.17,5.24-.68,23.69-.84,30.42-.76-1.38-3.36-1.87-6.93-1.87-8.45,0-22.39,2.71-30.64,2.71-3.75,0-6.32-.55-6.67-2.18-1.59-7.17,5.07-24.38-3.34-25.47a4.88,4.88,0,0,1-4.57-4.6S47,57,48.41,52.82s14.8-12.1,14.8-12.1M99.72,94.59a2,2,0,0,1,.22,1.2,5.47,5.47,0,0,1-.2,1.29,14.35,14.35,0,0,1,0-2.49M63.21,39.18a1.56,1.56,0,0,0-.78.22C60.12,40.77,48.52,47.83,47,52.31c-1.49,4.26-1,10.25-.93,11a6.4,6.4,0,0,0,5.92,6c3.67.47,3.29,6,2.36,13.69-.49,4-1,7.83-.34,10.59.67,3,4.72,3.38,8.18,3.38a144.52,144.52,0,0,0,15.33-1.35,142.49,142.49,0,0,1,15.31-1.36c3.67,0,4.95.55,5.38.87,0,2.19,0,2.52.46,3a1.56,1.56,0,0,0,1.11.47c1.44,0,1.58-1.3,1.73-2.67a3.69,3.69,0,0,0-.2-1.67c0-2.2.17-5.45.31-9.18.3-8.16.64-17.4.52-21-.09-2.8.46-4.06.69-4.46L115,53.57a1.6,1.6,0,0,0,.77-.89,1.56,1.56,0,0,0-.08-1.18l-5.22-10.42a1.53,1.53,0,0,0-1.37-.85h-.21L87.6,43.16a1.38,1.38,0,0,0-.52.17l-9.14,4.92L64,39.42a1.54,1.54,0,0,0-.83-.24Z"/><path class="cls-13" d="M68.91,43.89l12.3,7.78s.41,8.7.34,11.38S81,85.58,81.12,89c.06,3.11,0,5.54.43,6.74"/><path class="cls-14" d="M60.74,51.83l2.82,5.67a31.56,31.56,0,0,1-17.34-2.6s-1.46-3.13-.34-9.45c1.28-7.19,4.72-5.87,4.72-5.87Z"/><path class="cls-14" d="M107.62,42.18s2.64,8.27,6.67,12.86l15.84-10-6.25-6.74Z"/><path class="cls-5" d="M109.6,41.7l-2,.48s2.64,8.27,6.67,12.86l2.88-1.82A29.23,29.23,0,0,1,109.6,41.7Z"/><path class="cls-14" d="M121.73,38.74s-.66,2.37.73,2.85a4.75,4.75,0,0,0,2.18.35L125.3,39S124.12,37.56,121.73,38.74Z"/><path class="cls-15" d="M90.8,16.67c0-10-5.75-14.94-13.94-15.37A9,9,0,0,0,73,2.8q.39-.06.78-.09h1.45c8.22.41,14,5.31,14,15.38V20c0,3.08-1.1,6.52-2.06,9.83.16,5.65-1.36,9.21-3.63,11.58,3.12-2.3,5.45-6.08,5.25-13,1-3.3,2.06-6.74,2.06-9.83Z"/><path class="cls-16" d="M53.2,43s-1.39-3.69-.55-5.91,1.81-3.61,2.78-4.24a8.74,8.74,0,0,1,4.38-1.46,18.78,18.78,0,0,1,4.9.28c1.44.24,3,.56,5.52,1S90.8,38.57,119,27.87c0,0,9.68-4.48,12.16,3.12,3,9.16-13.14,8.2-22.17,11.89S82.88,48,63.77,44.41C63.77,44.41,56.19,47.46,53.2,43Z"/><path class="cls-9" d="M89.69,25.24a16.66,16.66,0,0,0-.84,3.6,24.11,24.11,0,0,1-.73,6.05"/><path class="cls-17" d="M53.2,43s-1.39-3.69-.55-5.91,1.81-3.61,2.78-4.24a8.74,8.74,0,0,1,4.38-1.46,18.78,18.78,0,0,1,4.9.28c1.44.24,3,.56,5.52,1S90.8,38.57,119,27.87c0,0,9.58-4.53,12.16,3.12,3.07,9.13-13.14,8.2-22.17,11.89S82.88,48,63.77,44.41C63.77,44.41,56.19,47.46,53.2,43Z"/><path class="cls-18" d="M131.51,32.67l-.06-.08-4.58,1.6-3.41,1.18c-1.6.56-18.62,6.53-24.81,7.86s-10.56,1.45-18.13,1.25a93.87,93.87,0,0,1-16.47-2.37s-2.3.49-5.36,1.46A6,6,0,0,1,53.48,43l0,.3c3.12,4.07,10.34,1.16,10.34,1.16C82.88,48,100,46.56,109,42.88,117.45,39.44,132,40.06,131.51,32.67Z"/><path class="cls-18" d="M56.75,35.72s9,3,29.46,4.38c0,0-20.65,1.3-30.85-2.23Z"/><g class="cls-19"><g class="cls-20"><path class="cls-21" d="M130.1,37c-.37-.76.23-1.81,1.33-2.39h0c1.1-.57,2.31-.46,2.72.27h0c.41.74-.17,1.84-1.31,2.43h0C131.7,37.89,130.47,37.73,130.1,37Zm-1.75-3.55c-.37-.76.19-1.79,1.25-2.34h0c1.05-.55,2.23-.43,2.64.31h0c.41.73-.14,1.81-1.23,2.38h0C129.92,34.36,128.72,34.18,128.35,33.43Zm-1.75-3.55a1.9,1.9,0,0,1,1.17-2.3h0a1.89,1.89,0,0,1,2.56.35h0c.41.73-.1,1.8-1.15,2.34h0C128.13,30.82,127,30.64,126.6,29.88Zm-1.76-3.55a1.84,1.84,0,0,1,1.09-2.26h0a1.85,1.85,0,0,1,2.49.39h0a1.82,1.82,0,0,1-1.08,2.31h0A1.81,1.81,0,0,1,124.84,26.33Z"/><path class="cls-22" d="M48.83,45.29c.29-.79,1.5-1.07,2.72-.66h0c1.23.4,2,1.36,1.78,2.16h0c-.25.81-1.48,1.15-2.74.72h0C49.33,47.09,48.54,46.08,48.83,45.29Zm1.34-3.72c.28-.79,1.46-1.09,2.64-.7h0c1.17.39,1.93,1.34,1.69,2.14h0c-.25.81-1.44,1.16-2.66.75h0C50.63,43.35,49.88,42.36,50.17,41.57Zm1.33-3.73c.29-.79,1.43-1.1,2.56-.72h0c1.13.37,1.85,1.31,1.6,2.11h0c-.24.81-1.39,1.17-2.56.77h0C51.93,39.61,51.21,38.63,51.5,37.84Zm1.34-3.72a1.9,1.9,0,0,1,2.47-.76h0c1.09.36,1.77,1.29,1.52,2.09h0a1.86,1.86,0,0,1-2.48.8h0C53.23,35.88,52.55,34.91,52.84,34.12Zm1.34-3.73a1.83,1.83,0,0,1,2.39-.78h0A1.82,1.82,0,0,1,58,31.67h0a1.81,1.81,0,0,1-2.4.83h0A1.81,1.81,0,0,1,54.18,30.39Z"/><path class="cls-22" d="M53.7,44.84c.24-.75,1.35-1.07,2.48-.75h0c1.14.33,1.9,1.19,1.7,2h0c-.2.76-1.31,1.13-2.49.79h0C54.22,46.5,53.46,45.59,53.7,44.84Zm1.18-3.78c.24-.75,1.31-1.09,2.4-.77h0c1.1.32,1.82,1.17,1.62,1.93h0c-.2.76-1.28,1.14-2.41.82h0C55.36,42.71,54.64,41.81,54.88,41.06Zm1.18-3.78a1.8,1.8,0,0,1,2.32-.79h0c1,.3,1.74,1.14,1.54,1.91h0c-.2.76-1.25,1.15-2.33.83h0C56.5,38.92,55.82,38,56.06,37.28Zm1.17-3.78a1.76,1.76,0,0,1,2.25-.82h0c1,.29,1.66,1.13,1.46,1.89h0a1.73,1.73,0,0,1-2.26.86h0C57.64,35.13,57,34.25,57.23,33.5Zm1.18-3.78a1.7,1.7,0,0,1,2.17-.84h0A1.69,1.69,0,0,1,62,30.75h0a1.67,1.67,0,0,1-2.18.88h0A1.67,1.67,0,0,1,58.41,29.72Z"/><path class="cls-22" d="M58.45,44.15c.2-.71,1.2-1.06,2.25-.81h0c1,.26,1.77,1,1.62,1.76h0c-.16.72-1.17,1.11-2.26.84h0C59,45.68,58.26,44.86,58.45,44.15Zm1-3.83c.19-.71,1.16-1.07,2.17-.82h0c1,.25,1.7,1,1.54,1.73h0C63,42,62.05,42.35,61,42.1h0C60,41.84,59.28,41,59.47,40.32Zm1-3.82a1.65,1.65,0,0,1,2.09-.84h0c1,.23,1.63,1,1.47,1.71h0a1.63,1.63,0,0,1-2.1.88h0C61,38,60.29,37.21,60.49,36.5Zm1-3.83a1.61,1.61,0,0,1,2-.86h0a1.62,1.62,0,0,1,1.4,1.7h0a1.59,1.59,0,0,1-2,.9h0C61.93,34.17,61.31,33.39,61.5,32.67Zm1-3.82A1.55,1.55,0,0,1,64.47,28h0a1.54,1.54,0,0,1,1.31,1.68h0a1.52,1.52,0,0,1-2,.91h0A1.52,1.52,0,0,1,62.52,28.85Z"/><path class="cls-22" d="M62.22,47.1c.15-.67,1.08-1,2.09-.83h0c1,.21,1.72.9,1.6,1.58h0c-.13.67-1.06,1.07-2.09.86h0C62.78,48.5,62.07,47.77,62.22,47.1Zm.85-3.86c.15-.67,1.06-1,2-.85h0c1,.2,1.65.89,1.53,1.57h0c-.12.67-1,1.07-2,.87h0C63.61,44.63,62.92,43.91,63.07,43.24Zm.86-3.87c.15-.67,1-1,1.95-.86h0c.92.19,1.58.88,1.45,1.55h0c-.12.68-1,1.08-2,.89h0C64.43,40.76,63.78,40,63.93,39.37Zm.85-3.86a1.53,1.53,0,0,1,1.88-.88h0c.89.18,1.51.86,1.39,1.54h0a1.49,1.49,0,0,1-1.88.9h0C65.25,36.89,64.63,36.18,64.78,35.51Zm.86-3.87a1.46,1.46,0,0,1,1.8-.89h0a1.47,1.47,0,0,1,1.32,1.53h0a1.44,1.44,0,0,1-1.81.91h0A1.44,1.44,0,0,1,65.64,31.64Z"/><path class="cls-22" d="M66.87,46c.11-.63.94-1,1.86-.85h0c.92.15,1.59.76,1.5,1.39h0c-.09.63-.92,1-1.86.88h0C67.43,47.28,66.76,46.64,66.87,46Zm.69-3.9c.11-.62.92-1,1.8-.86h0c.88.14,1.52.75,1.43,1.38h0c-.09.63-.89,1-1.8.89h0C68.09,43.38,67.45,42.74,67.56,42.11Zm.69-3.89A1.42,1.42,0,0,1,70,37.34h0c.85.14,1.46.74,1.37,1.37h0c-.09.63-.86,1-1.73.9h0C68.75,39.47,68.14,38.84,68.25,38.22Zm.69-3.9a1.37,1.37,0,0,1,1.67-.89h0c.81.13,1.39.74,1.3,1.36h0a1.35,1.35,0,0,1-1.67.91h0C69.41,35.57,68.83,34.94,68.94,34.32Zm.69-3.9a1.34,1.34,0,0,1,1.6-.9h0a1.33,1.33,0,0,1,1.24,1.36h0a1.31,1.31,0,0,1-1.6.92h0A1.32,1.32,0,0,1,69.63,30.42Z"/><path class="cls-22" d="M71.37,44.71c.08-.58.82-1,1.65-.86h0c.83.1,1.45.64,1.39,1.22h0c-.06.58-.79,1-1.64.88h0C71.92,45.85,71.3,45.29,71.37,44.71Zm.53-3.92c.08-.58.79-1,1.58-.87h0c.8.1,1.4.63,1.34,1.21h0c-.06.58-.77,1-1.58.89h0C72.42,41.92,71.82,41.36,71.9,40.79Zm.53-3.93A1.27,1.27,0,0,1,74,36h0c.76.09,1.34.62,1.28,1.21h0a1.27,1.27,0,0,1-1.53.89h0C72.92,38,72.35,37.44,72.43,36.86ZM73,32.94a1.24,1.24,0,0,1,1.47-.88h0a1.23,1.23,0,0,1,1.21,1.2h0a1.21,1.21,0,0,1-1.46.9h0A1.24,1.24,0,0,1,73,32.94Z"/><path class="cls-22" d="M75.37,47.15c0-.53.71-.9,1.49-.84h0c.77.06,1.37.53,1.34,1.06h0c0,.53-.7.92-1.49.86h0C75.92,48.17,75.32,47.68,75.37,47.15Zm.36-3.94c0-.53.69-.9,1.43-.85h0c.75.06,1.32.53,1.29,1.06h0c0,.53-.68.93-1.44.87h0C76.25,44.23,75.68,43.74,75.73,43.21Zm.36-3.94a1.18,1.18,0,0,1,1.38-.85h0c.71,0,1.27.52,1.23,1h0c0,.53-.65.93-1.38.87h0C76.59,40.28,76,39.8,76.09,39.27Zm.36-3.94a1.16,1.16,0,0,1,1.33-.86h0c.68.06,1.21.52,1.18,1.05h0a1.14,1.14,0,0,1-1.33.87h0C76.93,36.34,76.4,35.86,76.45,35.33Zm.36-3.95a1.1,1.1,0,0,1,1.28-.85h0a1.1,1.1,0,0,1,1.12,1h0a1.1,1.1,0,0,1-1.27.88h0A1.1,1.1,0,0,1,76.81,31.38Z"/><path class="cls-22" d="M79.73,45.48c0-.48.6-.84,1.29-.82h0c.68,0,1.23.43,1.22.91h0c0,.48-.59.86-1.29.83h0C80.25,46.38,79.7,46,79.73,45.48Zm.2-4c0-.48.58-.84,1.23-.81h0c.66,0,1.19.42,1.18.9h0c0,.49-.57.86-1.24.84h0C80.43,42.42,79.9,42,79.93,41.52Zm.19-4a1.06,1.06,0,0,1,1.19-.82h0c.63,0,1.14.43,1.13.91h0c0,.48-.55.86-1.19.83h0C80.6,38.47,80.1,38.05,80.12,37.57Zm.2-4a1,1,0,0,1,1.14-.82h0a1,1,0,0,1,1.08.9h0a1,1,0,0,1-1.14.84h0A1,1,0,0,1,80.32,33.62Z"/><path class="cls-22" d="M83.9,47.58c0-.43.51-.78,1.14-.78h0c.63,0,1.14.34,1.15.77h0c0,.43-.51.79-1.14.79h0C84.41,48.36,83.89,48,83.9,47.58Zm0-4c0-.43.5-.77,1.1-.78h0c.6,0,1.09.34,1.1.77h0c0,.43-.48.79-1.1.79h0C84.42,44.4,83.93,44.05,83.93,43.62Zm0-4c0-.43.48-.77,1.06-.77h0c.58,0,1,.33,1.06.76h0c0,.43-.47.79-1.06.79h0C84.43,40.44,84,40.09,84,39.66Zm0-4c0-.43.45-.77,1-.77h0a.92.92,0,0,1,1,.77h0c0,.43-.45.78-1,.78h0A.9.9,0,0,1,84,35.7Z"/><path class="cls-22" d="M88.1,45.55c0-.38.41-.7,1-.73h0c.54,0,1,.26,1,.64h0c0,.38-.4.71-1,.73h0C88.56,46.22,88.11,45.92,88.1,45.55Zm-.13-4c0-.38.39-.7.91-.72h0c.52,0,1,.26,1,.64h0c0,.37-.39.7-.92.73h0C88.41,42.26,88,42,88,41.59Zm-.14-4c0-.38.38-.69.88-.72h0a.83.83,0,0,1,.94.64h0c0,.38-.37.71-.88.73h0A.81.81,0,0,1,87.83,37.63Zm-.13-4a.8.8,0,0,1,.84-.72h0a.79.79,0,0,1,.9.64h0a.79.79,0,0,1-.84.73h0A.79.79,0,0,1,87.7,33.68Z"/><path class="cls-22" d="M91.94,47.12c0-.35.37-.66.87-.7h0c.51,0,1,.2,1,.55h0c0,.35-.36.67-.88.71h0C92.4,47.72,92,47.46,91.94,47.12Zm-.28-3.95c0-.35.35-.66.84-.7h0a.81.81,0,0,1,.94.56h0c0,.34-.35.66-.84.7h0C92.1,43.77,91.68,43.52,91.66,43.17Zm-.28-4c0-.35.34-.66.8-.69h0a.78.78,0,0,1,.91.55h0c0,.35-.33.67-.81.71h0C91.81,39.82,91.4,39.57,91.38,39.22Zm-.28-3.95c0-.35.32-.65.77-.69h0a.74.74,0,0,1,.86.56h0c0,.35-.31.66-.76.7h0A.74.74,0,0,1,91.1,35.27Z"/><path class="cls-22" d="M130.1,37c-.37-.76.23-1.81,1.33-2.39h0c1.1-.57,2.31-.46,2.72.27h0c.41.74-.17,1.84-1.31,2.43h0C131.7,37.89,130.47,37.73,130.1,37Zm-1.75-3.55c-.37-.76.19-1.79,1.25-2.34h0c1.05-.55,2.23-.43,2.64.31h0c.41.73-.14,1.81-1.23,2.38h0C129.92,34.36,128.72,34.18,128.35,33.43Zm-1.75-3.55a1.9,1.9,0,0,1,1.17-2.3h0a1.89,1.89,0,0,1,2.56.35h0c.41.73-.1,1.8-1.15,2.34h0C128.13,30.82,127,30.64,126.6,29.88Zm-1.76-3.55a1.84,1.84,0,0,1,1.09-2.26h0a1.85,1.85,0,0,1,2.49.39h0a1.82,1.82,0,0,1-1.08,2.31h0A1.81,1.81,0,0,1,124.84,26.33Z"/><path class="cls-22" d="M125.63,36.89c-.32-.72.26-1.68,1.29-2.16h0c1-.48,2.14-.33,2.5.38h0c.35.7-.22,1.7-1.28,2.21h0C127.08,37.82,126,37.62,125.63,36.89ZM124,33.28c-.32-.72.23-1.67,1.21-2.13h0a1.8,1.8,0,0,1,2.42.42h0c.36.7-.18,1.68-1.2,2.16h0C125.43,34.22,124.33,34,124,33.28Zm-1.62-3.62a1.74,1.74,0,0,1,1.15-2.09h0a1.73,1.73,0,0,1,2.34.45h0c.36.71-.15,1.67-1.13,2.13h0A1.71,1.71,0,0,1,122.4,29.66Zm-1.61-3.61A1.68,1.68,0,0,1,121.86,24h0a1.68,1.68,0,0,1,2.27.49h0a1.66,1.66,0,0,1-1,2.09h0A1.67,1.67,0,0,1,120.79,26.05Z"/><path class="cls-22" d="M122.71,40.27c-.27-.68.33-1.56,1.32-2h0c1-.42,2-.24,2.35.44h0c.3.67-.28,1.59-1.31,2h0C124,41.18,123,41,122.71,40.27Zm-1.47-3.67c-.27-.69.3-1.55,1.25-2h0a1.73,1.73,0,0,1,2.28.47h0c.3.67-.25,1.58-1.24,2h0C122.54,37.52,121.52,37.28,121.24,36.6Zm-1.46-3.68c-.28-.68.26-1.54,1.17-1.92h0a1.66,1.66,0,0,1,2.21.5h0c.3.67-.22,1.56-1.17,2h0A1.62,1.62,0,0,1,119.78,32.92Zm-1.47-3.67a1.6,1.6,0,0,1,1.1-1.9h0a1.62,1.62,0,0,1,2.14.53h0a1.59,1.59,0,0,1-1.1,1.93h0A1.57,1.57,0,0,1,118.31,29.25Z"/><path class="cls-22" d="M118.28,39.83c-.22-.65.34-1.44,1.26-1.78h0c.93-.35,1.87-.13,2.13.51h0c.25.64-.3,1.46-1.25,1.81h0C119.47,40.73,118.51,40.48,118.28,39.83ZM117,36.1c-.23-.65.31-1.43,1.19-1.76h0a1.56,1.56,0,0,1,2.06.54h0c.26.64-.27,1.45-1.18,1.79h0C118.11,37,117.19,36.75,117,36.1Zm-1.32-3.73a1.51,1.51,0,0,1,1.12-1.74h0a1.53,1.53,0,0,1,2,.57h0c.25.64-.25,1.43-1.12,1.76h0A1.48,1.48,0,0,1,115.64,32.37Zm-1.33-3.73a1.46,1.46,0,0,1,1.06-1.71h0a1.46,1.46,0,0,1,1.93.59h0a1.44,1.44,0,0,1-1,1.74h0A1.45,1.45,0,0,1,114.31,28.64Z"/><path class="cls-22" d="M114,39.18c-.19-.6.35-1.31,1.19-1.59h0c.85-.27,1.7,0,1.91.57h0c.21.6-.32,1.33-1.19,1.62h0C115,40.06,114.14,39.79,114,39.18Zm-1.18-3.78c-.19-.6.32-1.3,1.13-1.57h0a1.43,1.43,0,0,1,1.85.59h0c.21.6-.29,1.32-1.13,1.6h0A1.4,1.4,0,0,1,112.78,35.4Zm-1.17-3.78a1.37,1.37,0,0,1,1.07-1.55h0a1.37,1.37,0,0,1,1.78.61h0a1.36,1.36,0,0,1-1.06,1.58h0A1.35,1.35,0,0,1,111.61,31.62Z"/><path class="cls-22" d="M110.76,42.17c-.15-.57.39-1.2,1.19-1.43h0c.8-.23,1.59,0,1.76.59h0c.17.56-.36,1.21-1.18,1.45h0C111.71,43,110.91,42.73,110.76,42.17Zm-1-3.82c-.15-.57.35-1.19,1.13-1.41h0a1.32,1.32,0,0,1,1.7.6h0c.17.56-.33,1.2-1.12,1.43h0C110.65,39.2,109.89,38.91,109.74,38.35Zm-1-3.83c-.15-.56.33-1.18,1.07-1.39h0a1.27,1.27,0,0,1,1.64.62h0c.17.56-.3,1.2-1.06,1.41h0A1.26,1.26,0,0,1,108.71,34.52Zm-1-3.82a1.23,1.23,0,0,1,1-1.38h0a1.24,1.24,0,0,1,1.58.64h0a1.23,1.23,0,0,1-1,1.4h0A1.23,1.23,0,0,1,107.69,30.7Z"/><path class="cls-22" d="M107.39,45c-.11-.52.4-1.08,1.16-1.26h0c.75-.18,1.47.08,1.6.59h0c.14.52-.38,1.1-1.15,1.28h0C108.23,45.84,107.51,45.56,107.39,45Zm-.87-3.86c-.12-.52.37-1.07,1.1-1.25h0c.72-.17,1.42.09,1.55.61h0c.13.51-.36,1.09-1.1,1.27h0C107.33,42,106.63,41.7,106.52,41.18Zm-.88-3.86c-.12-.52.35-1.07,1-1.23h0a1.19,1.19,0,0,1,1.5.62h0c.13.51-.34,1.08-1,1.25h0A1.17,1.17,0,0,1,105.64,37.32Zm-.88-3.86a1.15,1.15,0,0,1,1-1.22h0a1.16,1.16,0,0,1,1.45.63h0a1.13,1.13,0,0,1-1,1.24h0A1.13,1.13,0,0,1,104.76,33.46Z"/><path class="cls-22" d="M103.12,43.9c-.09-.47.39-.95,1.06-1.09h0c.67-.13,1.3.13,1.4.6h0c.1.47-.37,1-1.06,1.11h0C103.83,44.66,103.2,44.38,103.12,43.9ZM102.39,40c-.09-.47.37-.95,1-1.08h0a1.08,1.08,0,0,1,1.35.61h0c.1.47-.35,1-1,1.1h0C103.08,40.77,102.48,40.49,102.39,40Zm-.72-3.89c-.09-.47.34-.95,1-1.07h0a1.06,1.06,0,0,1,1.31.62h0c.1.47-.33,1-1,1.09h0A1,1,0,0,1,101.67,36.12Zm-.73-3.89a1,1,0,0,1,.92-1.06h0a1,1,0,0,1,1.26.63h0c.1.47-.31.95-.92,1.08h0A1,1,0,0,1,100.94,32.23Z"/><path class="cls-22" d="M99.54,46.5c-.06-.42.39-.84,1-.94h0c.62-.09,1.17.16,1.25.59h0c.07.42-.38.85-1,1h0C100.16,47.2,99.6,46.93,99.54,46.5ZM99,42.59c-.07-.43.37-.84,1-.94h0a1,1,0,0,1,1.21.6h0c.07.42-.36.85-1,.94h0C99.57,43.29,99,43,99,42.59Zm-.58-3.92c-.06-.42.35-.84.93-.93h0a1,1,0,0,1,1.16.6h0c.07.43-.34.85-.92.94h0C99,39.37,98.45,39.1,98.39,38.67Zm-.57-3.92c-.06-.42.33-.83.88-.92h0a.94.94,0,0,1,1.12.61h0c.07.42-.32.84-.88.93h0A.91.91,0,0,1,97.82,34.75Z"/><path class="cls-21" d="M48.83,45.29c.29-.79,1.5-1.07,2.72-.66h0c1.23.4,2,1.36,1.78,2.16h0c-.25.81-1.48,1.15-2.74.72h0C49.33,47.09,48.54,46.08,48.83,45.29Zm1.34-3.72c.28-.79,1.46-1.09,2.64-.7h0c1.17.39,1.93,1.34,1.69,2.14h0c-.25.81-1.44,1.16-2.66.75h0C50.63,43.35,49.88,42.36,50.17,41.57Zm1.33-3.73c.29-.79,1.43-1.1,2.56-.72h0c1.13.37,1.85,1.31,1.6,2.11h0c-.24.81-1.39,1.17-2.56.77h0C51.93,39.61,51.21,38.63,51.5,37.84Zm1.34-3.72a1.9,1.9,0,0,1,2.47-.76h0c1.09.36,1.77,1.29,1.52,2.09h0a1.86,1.86,0,0,1-2.48.8h0C53.23,35.88,52.55,34.91,52.84,34.12Zm1.34-3.73a1.83,1.83,0,0,1,2.39-.78h0A1.82,1.82,0,0,1,58,31.67h0a1.81,1.81,0,0,1-2.4.83h0A1.81,1.81,0,0,1,54.18,30.39Z"/><path class="cls-22" d="M95.37,45c0-.38.36-.73.9-.79h0c.54-.07,1,.18,1.06.56h0c0,.37-.36.73-.9.8h0C95.88,45.67,95.41,45.41,95.37,45ZM95,41.1c0-.38.35-.72.86-.78h0c.52-.06,1,.19,1,.56h0c0,.38-.34.74-.86.8h0C95.45,41.74,95,41.48,95,41.1Zm-.42-3.93c0-.38.33-.73.82-.79h0a.84.84,0,0,1,1,.57h0c0,.38-.32.74-.83.79h0A.82.82,0,0,1,94.53,37.17Zm-.42-3.94c0-.38.31-.72.79-.78h0a.8.8,0,0,1,.94.58h0a.78.78,0,0,1-.78.78h0A.79.79,0,0,1,94.11,33.23Z"/></g></g><path class="cls-14" d="M48.07,40.2a11.08,11.08,0,0,1-.41,4,7,7,0,0,0,1.2,5.63,11.6,11.6,0,0,0,5.8,3.59c2,.54,6.43-.52,7.32-1.2a19.23,19.23,0,0,0,2.81-2.24c.42-.57.89-1.25.68-1.82,0,0,2.06-1.69,1.84-2.76-1-.12-1.94-.25-1.94-.25s1.31-2.31-.82-2.78-5.84,1.88-10.9.47c-.91-1.4-.49-1.27.07-1.76l.51-.42a2.71,2.71,0,0,1,2-.52c1.08,0,4.42.36,5.1-.16S63,38.12,60.79,37s-6.25-1.1-7.4-.94S50.79,37.07,48.07,40.2Z"/><path class="cls-23" d="M128.91,27.69c-3.86-2.68-9.89.18-9.89.18-28.22,10.7-46.29,5.28-48.79,4.79s-4.08-.82-5.52-1a20,20,0,0,0-4.9-.28,9,9,0,0,0-3.08.74,1.84,1.84,0,0,0,.51.1c1.8.07,2.43.41,6.25,1.25s18.28,3.47,23.28,3.89,10.84-.28,18.76-1.88,21.41-6.74,21.41-6.74Z"/><path class="cls-24" d="M131.4,33.24h0a6.34,6.34,0,0,0-.92-2.91"/><path class="cls-25" d="M125.53,38.61a2.23,2.23,0,0,0-1.93,1.7c-.28,1.06,1.15,2,1.15,2s-.68,1.09.91,2.06,6.07.78,6.07.78a3,3,0,0,0,3-1.67,19.86,19.86,0,0,1,1.44-2.63,5,5,0,0,0,.93-2.87,3.3,3.3,0,0,1,.14-1.88,4.61,4.61,0,0,0,.39-2.29c-.06-.57-2.06-2.14-2.06-2.14a4.61,4.61,0,0,0-2.14-3.59,20.14,20.14,0,0,0-2.32-1.67c-2.47,0-6.33,2.63-6.31,4a1.88,1.88,0,0,0,1.8,1.77c.58.1.8-.46,2-1.16a5.82,5.82,0,0,1,1.91-.64l.91,2.9a74.1,74.1,0,0,0-7,2.42c-.57.44-.49,1.07-.31,1.8s1.58,1.19,1.58,1.19"/><path class="cls-14" d="M131.68,30.23a7,7,0,0,0-3.13.76c-1.18.7-1.4,1.26-2,1.16a1.88,1.88,0,0,1-1.8-1.77c0-1.36,3.84-4,6.31-4a10.8,10.8,0,0,1,2.32,1.67c.45.51,2.09,1.33,2.14,3.59,0,0,2,1.57,2.06,2.14a4.61,4.61,0,0,1-.39,2.29,3.3,3.3,0,0,0-.14,1.88,5,5,0,0,1-.93,2.87,19.86,19.86,0,0,0-1.44,2.63,3,3,0,0,1-3,1.67s-4.48.18-6.07-.78-1-1.91-.91-2.06-1.43-.92-1.15-2a2.23,2.23,0,0,1,1.93-1.7c1-.21,4.43-.6,5.63-.78a18.6,18.6,0,0,0,4.56-1.22"/><path class="cls-9" d="M125.71,38.58s-1.51-.16-1.69-1.11c-.14-.74-.26-1.36.31-1.8s5.34-1.87,7.07-2.43l.46-.15c1-.37,1.41-.05,1.41-.65"/><path class="cls-24" d="M131.11,33.24a5.43,5.43,0,0,0-.85-2.77"/><path class="cls-9" d="M124.75,42.29a25,25,0,0,0,10-1.31"/><path class="cls-9" d="M51.75,48a13.64,13.64,0,0,0,4.53.1c1.82-.41,7.86-1,9.11-2.91"/><path class="cls-9" d="M53.67,51.2s3.39.57,5,0a38.49,38.49,0,0,0,5.94-2.55,5.72,5.72,0,0,0,2-1.67"/><circle class="cls-14" cx="77.91" cy="54.72" r="1.36"/><circle class="cls-14" cx="78.29" cy="68.85" r="1.36"/><circle class="cls-14" cx="78.2" cy="82.17" r="1.36"/><path class="cls-26" d="M101.79,58.72c-2.26-2.59-3.18-3.53-3.18-3.53s1.22,3.78,2.67,5.33Z"/><path class="cls-27" d="M52.32,67.32a47.29,47.29,0,0,0,9.14.38s-5.58,1.68-7.18,1Z"/><polygon class="cls-28" points="64.61 22.58 62.27 22.97 61.88 22.2 61.46 20.92 64.73 20.71 64.61 22.58"/><path class="cls-9" d="M50,42.26s1.69,0,3.17-.07"/><path class="cls-3" d="M63.85,12.5h-.07a.33.33,0,0,1-.23-.39,17.13,17.13,0,0,1,2.61-5.46c-.16-.09-1.09-.49-3,.13,0,0-.13,0-.16-.06a.3.3,0,0,1,.22-.39c1.81-.5,2.91-.55,3.38-.13a.6.6,0,0,1,.21.55.28.28,0,0,1-.06.15,16,16,0,0,0-2.6,5.37A.33.33,0,0,1,63.85,12.5Z"/><path class="cls-15" d="M68.82,12s5-1.31,7.72.6a11.43,11.43,0,0,1,8.32-2.32,13.5,13.5,0,0,0-8.48.8S73.36,10.2,68.82,12Z"/><g class="cls-29"><path class="cls-12" d="M53.06,29a11.67,11.67,0,0,1-4.74.86,6.26,6.26,0,0,0,1.46,1A4.88,4.88,0,0,0,53.06,29Z"/><path class="cls-12" d="M87.38,5.34a9.45,9.45,0,0,1,2.69,1.08c3.65,2.5,4.86,2.83,7.59,2.93a8.92,8.92,0,0,1-2.11,2.05,12.89,12.89,0,0,0,.89-1.09c-2.67-.1-4.07-.35-7.53-2.71Z"/><path class="cls-12" d="M66.09,5.7a13.65,13.65,0,0,0-6.48,2.54c-5.8,4.52-9.1,2.23-9.1,2.23a13.58,13.58,0,0,0,1.35,2.21c1.55-.19,3.75.17,8.59-3.62,2.36-1.84,4.46-2.31,5.8-2Z"/><path class="cls-12" d="M91.84,13.56s3.23,1.82,9.91.8a20.59,20.59,0,0,1-2.59,3,20,20,0,0,0,4-4.21A18.93,18.93,0,0,1,94,12.68,5.63,5.63,0,0,1,91.84,13.56Z"/><path class="cls-12" d="M46.1,25.16c2.06-.1,4.74-.58,6-2.3-2.81,1.58-7.39,1-7.39,1A7,7,0,0,0,46.1,25.16Z"/><path class="cls-12" d="M94.86,27.3a13.44,13.44,0,0,1-2.42.51,9.48,9.48,0,0,0,6.37,2,8.89,8.89,0,0,1-.76.81,14.1,14.1,0,0,0,2.17-2A9.23,9.23,0,0,1,94.86,27.3Z"/><path class="cls-12" d="M95.77,19.8a7.19,7.19,0,0,1-2,.63s2.69,3.1,8.12,2a10.73,10.73,0,0,1-1.27,1.43,12.91,12.91,0,0,0,2.67-2.63A9.06,9.06,0,0,1,95.77,19.8Z"/><path class="cls-12" d="M54.51,16.56s-.21.27-1,0a22.62,22.62,0,0,1-8.12-.7,6.86,6.86,0,0,0,.89,1.7C48.71,18,52.12,18,54.51,16.56Z"/></g><path class="cls-30" d="M58.73,81.38c4.24,1.3,4.22,1.3,12.66,1.56l.33,3.29"/><path class="cls-31" d="M90.6,85.87l-.23-3.77s4.55.43,7.83-1.31"/><path class="cls-31" d="M88.55,61.9a36.54,36.54,0,0,0,5.1-.87"/><path class="cls-32" d="M64.8,31.38a14.2,14.2,0,0,1-.36-5.6c0-.07,1.09-.19,1.07-.25a22.76,22.76,0,0,1-.33-8.48c0-.24.43-.78.47-1C67,8.46,71.25,2,76.86,1.3H75.35C69,1.76,61,8.09,62.15,22.87c-1-.76-6.41-4.36-7.35.85-.23,4.76,7.31,2.48,7.72,2.35.23,1.54.54,3.15,1,4.85a2.53,2.53,0,0,0,0,.28Z"/><ellipse class="cls-33" cx="83.99" cy="19.9" rx="8.68" ry="7.23" transform="translate(57.89 102.18) rotate(-85.73)"/><ellipse class="cls-34" cx="83.89" cy="20.31" rx="6.86" ry="5.39" transform="translate(59.1 102.99) rotate(-86.92)"/><path class="cls-35" d="M83.91,13.46a4.25,4.25,0,0,0-1.75.42c2.84.12,5.08,3,5.07,6.7a7.2,7.2,0,0,1-3.67,6.58h.31c3-.08,5.4-3.22,5.41-7S86.89,13.37,83.91,13.46Z"/><ellipse class="cls-36" cx="82.97" cy="19.9" rx="8.68" ry="7.23" transform="translate(56.94 101.17) rotate(-85.73)"/><ellipse class="cls-35" cx="83.99" cy="19.9" rx="8.68" ry="7.23" transform="translate(57.89 102.18) rotate(-85.73)"/><path class="cls-37" d="M82.62,12.25a8.27,8.27,0,0,1,7.57,4.48c-1.08-2.93-3.47-4.92-6.26-4.84a5.62,5.62,0,0,0-2,.41C82.19,12.27,82.4,12.26,82.62,12.25Z"/><path class="cls-38" d="M85.31,27.09c-3.84.11-7-3.54-6.94-8.14a9.39,9.39,0,0,1,2.38-6.32A9,9,0,0,0,77,20.11c0,4.6,3.09,8.25,6.94,8.14A6.53,6.53,0,0,0,88.58,26,6.14,6.14,0,0,1,85.31,27.09Z"/><ellipse class="cls-39" cx="70.25" cy="20.26" rx="7.43" ry="6.2" transform="translate(44.81 88.81) rotate(-85.73)"/><ellipse class="cls-35" cx="71.07" cy="20.26" rx="7.43" ry="6.2" transform="translate(45.57 89.62) rotate(-85.73)"/><path class="cls-38" d="M72.2,26.38c-3.28.09-5.93-3-5.92-6.95a8.05,8.05,0,0,1,2-5.39,7.67,7.67,0,0,0-3.17,6.37c0,3.93,2.63,7,5.92,7A5.62,5.62,0,0,0,75,25.42,5.41,5.41,0,0,1,72.2,26.38Z"/><ellipse class="cls-40" cx="70.98" cy="20.61" rx="5.88" ry="4.62" transform="translate(46.59 90.38) rotate(-86.92)"/><path class="cls-41" d="M71,14.74a3.68,3.68,0,0,0-1.5.36c2.43.1,4.35,2.6,4.34,5.74a6.14,6.14,0,0,1-3.14,5.63H71c2.55-.07,4.63-2.76,4.64-6S73.55,14.66,71,14.74Z"/><path class="cls-41" d="M83.91,13.46a4.25,4.25,0,0,0-1.75.42c2.84.12,5.08,3,5.07,6.7a7.2,7.2,0,0,1-3.67,6.58h.31c3-.08,5.4-3.22,5.41-7S86.89,13.37,83.91,13.46Z"/><path class="cls-40" d="M84.62,27.07a8.45,8.45,0,0,0,2.76-6.43c0-3.4-1.76-6.23-4.2-7.1-2.63.53-4.67,3.45-4.68,6.92,0,3.78,2.39,6.78,5.37,6.7A4.8,4.8,0,0,0,84.62,27.07Z"/><path class="cls-7" d="M67.69,27.71l-2.82-2.05A8.67,8.67,0,0,1,72,27.84C71.69,29.75,67.69,27.71,67.69,27.71Z"/><path class="cls-42" d="M72,27.84a8.67,8.67,0,0,0-7.16-2.18"/><path class="cls-43" d="M67.36,21.55a.22.22,0,0,1-.18-.1.21.21,0,0,1,.08-.28L71.41,19a.2.2,0,0,1,.19.35l-4.15,2.23Z"/><path class="cls-43" d="M68.67,22.31a.19.19,0,0,1-.17-.1.2.2,0,0,1,.08-.28l2.57-1.41a.2.2,0,0,1,.28.08.2.2,0,0,1-.08.27l-2.58,1.42Z"/><path class="cls-43" d="M81.92,19a.19.19,0,0,1-.18-.11.2.2,0,0,1,.09-.27l2.22-1.11a.2.2,0,1,1,.18.36L82,19A.15.15,0,0,1,81.92,19Z"/><path class="cls-43" d="M80.2,21.15A.19.19,0,0,1,80,21a.21.21,0,0,1,.09-.28l5.16-2.52a.2.2,0,1,1,.18.36l-5.16,2.53Z"/><path class="cls-43" d="M81.11,22.06a.2.2,0,0,1-.09-.38l3.23-1.62a.21.21,0,0,1,.28.09.2.2,0,0,1-.09.27L81.2,22Z"/><path class="cls-37" d="M70.29,13.89a6.86,6.86,0,0,1,6.32,4.35c-.9-2.84-2.9-4.77-5.23-4.7a4.16,4.16,0,0,0-1.63.4Z"/><path class="cls-7" d="M76,26.42s1.44-2,3.41-1.26,1.88,2.87.63,3.41a7.17,7.17,0,0,1-3.41.09"/><path class="cls-7" d="M76,26.42s1.44-2,3.41-1.26,1.88,2.87.63,3.41a7.17,7.17,0,0,1-3.41.09"/><path class="cls-15" d="M80.77,27.92a2,2,0,0,0-1.33-2.76,3.88,3.88,0,0,0-2.64.47C78.23,25.82,80.17,26,80.77,27.92Z"/><path class="cls-44" d="M76.66,28.66a7.17,7.17,0,0,0,3.41-.09c1.25-.54,1.34-2.69-.63-3.41S76,26.42,76,26.42"/><polyline class="cls-24" points="68.63 27.59 67.23 27.77 66.48 28.84"/><path d="M233.14,122.44l-.62-1c6.41-9.6,5.29-22.61-2.87-32-6.78-7.78-16.51-13.54-29.72-17.61a8.64,8.64,0,0,0-7.47-7.56l-10.88-1.4a8.12,8.12,0,0,0-1.71,0,8.56,8.56,0,0,0-4.16-1.5l-12.13-1a8.5,8.5,0,0,0-2.46.15c-1.3-.95-2.66-1.81-4-2.65-.89-.56-1.73-1.09-2.51-1.63-3.35-2.29-6.6-2.31-10-2.32h-.08l-1.59,0a29.7,29.7,0,0,0-7.89.55c-6.36-1.77-12.94-3.5-20.5-.59a52.75,52.75,0,0,1-8,2.18c-1.93.41-3.92.84-5.9,1.43A18,18,0,0,0,89.09,51a13.06,13.06,0,0,0-9.86,3.27,21.27,21.27,0,0,0-3.1,2.94,13.74,13.74,0,0,0-7.63,3.29L66.78,62l-3.26-.83c-4-1-7,0-10.35,1.3a13.21,13.21,0,0,0-1.76.86,5.08,5.08,0,0,1-1.66.69A7.24,7.24,0,0,1,48,63.94a10.12,10.12,0,0,0-2.7,0A15.72,15.72,0,0,0,40.08,66a21,21,0,0,1-2.83,1.37,29.25,29.25,0,0,1-3.22.9,23.57,23.57,0,0,0-5,1.58,68.75,68.75,0,0,1-6.7,2.67C15.92,74.81,9.27,77.22,5.69,83.66A18.54,18.54,0,0,0,4.11,86c-2.47,4.19-1.54,8.06-.63,11.8.22.93.46,1.89.63,2.84a57.07,57.07,0,0,1,.53,14,87.87,87.87,0,0,1-2.37,13.92c-.51,2.3-1,4.68-1.49,7.08-1.63,8.87-.71,14.2,2.8,16.3,4.26,2.54,10.7-1,14.1-3.32a12.48,12.48,0,0,0,4.8,8.21,14.35,14.35,0,0,0,8.43,2.43,19.87,19.87,0,0,0,4.7-.55l.15,0c1.66-.62,3.31-1.26,5-1.9,3.93-1.52,8-3.08,12-4.43,15.82-5.26,28.55-7.75,40.09-7.86s22.4,1.7,34,3.62l3,.49a153.93,153.93,0,0,0,52.56-.87,14.38,14.38,0,0,0,10.72,3.42l4.2-.35c11.28-.88,25.32-2,32.89-10.67a13.32,13.32,0,0,0,2-2.88A12.44,12.44,0,0,0,233.14,122.44Z"/><path class="cls-45" d="M230.58,136.82a11,11,0,0,0,1.26-13.55l-1.17-1.84c7-9.53,5.3-22.34-2.18-31s-18.41-14-30.05-17.46a7.08,7.08,0,0,0-6.18-7.19l-10.88-1.4a7,7,0,0,0-1.94,0,7.09,7.09,0,0,0-3.86-1.55l-12.13-1a7,7,0,0,0-2.66.29c-2.27-1.75-4.88-3.21-7-4.68-3-2-5.82-2-9.25-2.05-2.82,0-6.65-.29-9.47.59-6.93-1.93-13-3.44-20-.76-5,1.91-10.06,2.33-15,4-4.88-6.1-13.1-9.5-19.85-3.72a17.93,17.93,0,0,0-3.28,3.23,12.26,12.26,0,0,0-7.43,3c-.77.66-1.55,1.32-2.34,2l-4-1c-3.49-.89-6.23,0-9.41,1.24-1.61.63-2.1,1.31-3.68,1.63-1.31.26-3.08-.31-4.52-.08-3,.48-5,2.36-7.75,3.35s-5.39,1.16-8,2.43C21.8,75,11.51,76.24,7,84.49c-2.75,4.64-.69,8.88.18,13.61a59.65,59.65,0,0,1,.55,14.38c-.47,7.32-2.58,14.07-3.89,21.18-5,27.29,16.6,9.91,16.6,9.91C21.33,159.09,36.76,155,36.76,155h0c5.67-2.13,11.3-4.44,17.05-6.35,12.9-4.29,26.93-7.81,40.55-7.94,12.61-.11,24.85,2.1,37.24,4.13a153.81,153.81,0,0,0,52.8-1,12.86,12.86,0,0,0,10.09,3.54C205.91,146.29,222.47,146.16,230.58,136.82Z"/><path class="cls-46" d="M232.5,133c-8.11,9.34-24.66,9.47-36.09,10.52a12.86,12.86,0,0,1-10.09-3.55,153.51,153.51,0,0,1-52.79,1c-12.39-2-24.63-4.24-37.24-4.13-13.62.12-27.66,3.65-40.56,7.94-5.74,1.91-11.38,4.22-17,6.35h0s-15.42,4.13-16.32-11.39c0,0-21.61,17.38-16.6-9.91,1.31-7.11,3.41-13.87,3.88-21.18a58.75,58.75,0,0,0-.55-14.39c-.71-3.89-2.23-7.45-1.21-11.17A15.5,15.5,0,0,0,7,84.49c-2.75,4.64-.69,8.88.18,13.61a59.65,59.65,0,0,1,.55,14.38c-.47,7.32-2.58,14.07-3.89,21.18-5,27.29,16.6,9.91,16.6,9.91C21.33,159.09,36.76,155,36.76,155h0c5.67-2.13,11.3-4.44,17.05-6.35,12.9-4.29,26.93-7.81,40.55-7.94,12.61-.11,24.85,2.1,37.24,4.13a153.81,153.81,0,0,0,52.8-1,12.86,12.86,0,0,0,10.09,3.54c11.42-1.05,28-1.18,36.09-10.52a11.35,11.35,0,0,0,2.65-4.73C233,132.39,232.76,132.69,232.5,133Z"/><g class="cls-47"><path class="cls-12" d="M6.22,86.49C10.74,78.23,21,77,29,73.2c2.65-1.28,5.38-1.46,8-2.43s4.78-2.88,7.75-3.36c1.44-.23,3.21.35,4.52.08,1.58-.31,2.07-1,3.68-1.63,3.18-1.26,5.92-2.12,9.41-1.23l4,1c.78-.64,1.57-1.3,2.34-2a12.31,12.31,0,0,1,7.43-3,18.24,18.24,0,0,1,3.27-3.24c6.76-5.78,15-2.38,19.86,3.72,5-1.62,10.06-2,15-3.95,7-2.69,13-1.18,20,.75,2.82-.87,6.65-.59,9.47-.58,3.43,0,6.26,0,9.25,2.05,2.14,1.47,4.75,2.93,7,4.68a7,7,0,0,1,2.66-.29l12.14,1a7.1,7.1,0,0,1,3.86,1.56,7,7,0,0,1,1.94,0l10.88,1.41A7.08,7.08,0,0,1,197.67,75c11.64,3.45,22.52,8.81,30.05,17.45,5.93,6.85,8.21,16.32,5.41,24.7,3.91-8.83,1.77-19.3-4.64-26.69-7.53-8.64-18.41-14-30.05-17.46a7.08,7.08,0,0,0-6.18-7.19l-10.88-1.4a7,7,0,0,0-1.94,0,7.09,7.09,0,0,0-3.86-1.55l-12.13-1a7,7,0,0,0-2.66.29c-2.27-1.75-4.88-3.21-7-4.68-3-2-5.82-2-9.25-2.05-2.82,0-6.65-.29-9.47.59-6.93-1.93-13-3.44-20-.76-5,1.91-10.06,2.33-15,4-4.88-6.1-13.1-9.5-19.85-3.72a17.93,17.93,0,0,0-3.28,3.23,12.26,12.26,0,0,0-7.43,3c-.77.66-1.55,1.32-2.34,2l-4-1c-3.49-.89-6.23,0-9.41,1.24-1.61.63-2.1,1.31-3.68,1.63-1.31.26-3.08-.31-4.52-.08-3,.48-5,2.36-7.75,3.35s-5.39,1.16-8,2.43C21.8,75,11.51,76.24,7,84.49a10.22,10.22,0,0,0-1.08,2.58C6,86.88,6.1,86.69,6.22,86.49Z"/></g><text class="cls-48" transform="matrix(0.85, -0.36, 0.39, 0.92, 31.91, 148.99)">T</text><text class="cls-48" transform="translate(36.7 146.98) rotate(-21.88) scale(0.92 1)">h</text><text class="cls-48" transform="translate(42.04 144.83) rotate(-20.91) scale(0.92 1)">e</text><text class="cls-48" transform="translate(46.86 143) rotate(-20.18) scale(0.92 1)"> </text><text class="cls-48" transform="translate(48.92 142.22) rotate(-19.22) scale(0.92 1)">U</text><text class="cls-48" transform="matrix(0.88, -0.28, 0.3, 0.95, 55.12, 140.07)">n</text><text class="cls-48" transform="matrix(0.88, -0.25, 0.28, 0.96, 60.53, 138.33)">b</text><text class="cls-48" transform="matrix(0.89, -0.23, 0.25, 0.97, 66.23, 136.69)">e</text><text class="cls-48" transform="translate(71.26 135.43) rotate(-12.88) scale(0.92 1)">l</text><text class="cls-48" transform="translate(73.55 134.9) rotate(-11.96) scale(0.92 1)">i</text><text class="cls-48" transform="translate(75.85 134.4) rotate(-10.38) scale(0.92 1)">e</text><text class="cls-48" transform="translate(80.82 133.48) rotate(-8.09) scale(0.92 1)">v</text><text class="cls-48" transform="translate(85.72 132.78) rotate(-5.58) scale(0.92 1)">a</text><text class="cls-48" transform="matrix(0.92, -0.04, 0.05, 1, 90.56, 132.3)">b</text><text class="cls-48" transform="translate(96.41 132.05) rotate(-0.45) scale(0.92 1)">l</text><text class="cls-48" transform="matrix(0.92, 0.03, -0.03, 1, 98.82, 132.01)">e</text><text class="cls-48" transform="matrix(0.92, 0.05, -0.06, 1, 103.96, 132.17)"> </text><text class="cls-48" transform="translate(106.09 132.26) rotate(5.4) scale(0.92 1)">D</text><text class="cls-48" transform="translate(112.97 132.93) rotate(7.38) scale(0.92 1)">o</text><text class="cls-48" transform="translate(118.61 133.67) rotate(8.21) scale(0.92 1)">u</text><text class="cls-48" transform="translate(124.27 134.5) rotate(8.08) scale(0.92 1)">g</text><text class="cls-48" transform="translate(129.91 135.3) rotate(7.15) scale(0.92 1)">h</text><text class="cls-48" transform="matrix(0.91, 0.1, -0.11, 0.99, 135.63, 136.01)"> </text><text class="cls-48" transform="translate(137.79 136.26) rotate(4.92) scale(0.92 1)">Y</text><text class="cls-48" transform="translate(142.9 136.71) rotate(3.13) scale(0.92 1)">o</text><text class="cls-48" transform="translate(148.77 137.02) rotate(0.97) scale(0.92 1)">u</text><text class="cls-48" transform="translate(154.61 137.1) rotate(-0.52) scale(0.92 1)"> </text><text class="cls-48" transform="matrix(0.92, -0.03, 0.03, 1, 156.91, 137.1)">B</text><text class="cls-48" transform="translate(162.7 136.9) rotate(-3.92) scale(0.92 1)">u</text><text class="cls-48" transform="matrix(0.92, -0.08, 0.09, 1, 168.4, 136.49)">i</text><text class="cls-48" transform="matrix(0.92, -0.09, 0.1, 0.99, 170.76, 136.27)">l</text><text class="cls-48" transform="matrix(0.91, -0.11, 0.12, 0.99, 173.14, 136.04)">d</text><text class="cls-48" transform="translate(178.93 135.31) rotate(-8.16) scale(0.92 1)"> </text><path class="cls-49" d="M72,121.25a.68.68,0,0,1-.68-.58c0-.07-1.29-7.63-3.86-17.58l-3.29,1.7,2.43,12.46a.69.69,0,0,1-1,.74,54.52,54.52,0,0,0-12.16-4.14.71.71,0,0,1-.5-.47c-.07-.22-7.12-23,3.94-43.32a.7.7,0,0,1,.79-.34l9.8,2.63a.73.73,0,0,1,.39.27A136.43,136.43,0,0,1,76.67,87.2c4.09,7.82,9.09,19.36,9.72,29.93a.69.69,0,0,1-.57.73,107.93,107.93,0,0,0-13.56,3.36.78.78,0,0,1-.22,0M68,101.37a.92.92,0,0,1,.28,0,.71.71,0,0,1,.39.47c2.24,8.54,3.55,15.48,4,17.76A110.31,110.31,0,0,1,85,116.6c-.77-10.15-5.58-21.2-9.52-28.74a134.6,134.6,0,0,0-8.55-14.22l-9-2.43c-9.65,18.24-4.52,38.41-3.68,41.38A62.43,62.43,0,0,1,65,116.15l-2.26-11.61a.7.7,0,0,1,.36-.75l4.54-2.35a.68.68,0,0,1,.32-.07m-6.62-3a.72.72,0,0,1-.32-.08.67.67,0,0,1-.36-.49c-1-5.41,1.21-14.22,1.3-14.59a.69.69,0,0,1,.48-.5.73.73,0,0,1,.68.17c3.25,3.07,4.56,11.72,4.62,12.09a.7.7,0,0,1-.4.73l-5.71,2.6a.59.59,0,0,1-.29.07M63,84.87c-.53,2.48-1.54,7.87-1.1,11.75l4.37-2C66,93,64.94,87.71,63,84.87"/><path class="cls-50" d="M144.51,55.41h0"/><path class="cls-49" d="M63.14,119.12a.77.77,0,0,0,0-.15v-.11c0-.28-3.54-28-18-45.57a.69.69,0,0,0-1-.1c-.05,0-5.35,4.09-10.33,4.15H33.7a.58.58,0,0,0-.17.06l0,0a.63.63,0,0,0-.25.26l-1.47,2.61-.93-.92a.76.76,0,0,0-.51-.2.73.73,0,0,0-.5.23s-3.1,3.28-15.12,5.88a.44.44,0,0,0-.16.06l0,0-.12.08,0,0a1.34,1.34,0,0,0-.11.14h0l-1.53,2.72h0a.47.47,0,0,0-.06.15v.39l0,0a55.43,55.43,0,0,1,2.24,13.5c.51,8,.13,21.06-4.55,37.77a.7.7,0,0,0,.24.74.86.86,0,0,0,.43.15.78.78,0,0,0,.34-.09,148.58,148.58,0,0,1,20.19-9.23l.06,0,.07,0,.08-.06.06-.06.06-.08,0,0,1.52-2.72h0l0,0,0-.11v0a85.21,85.21,0,0,0,.32-26.2,10.51,10.51,0,0,1,2.38,3.56h0a.72.72,0,0,0,.41.39h0l.11,0h.15l.14,0,.07,0,.11,0,.06,0,.08-.08.06-.07,0,0L39,103.26l0-.08v0l1.45-3.92c1.91,4.16,5.41,14.86-.41,29.27a.71.71,0,0,0,.16.76.69.69,0,0,0,.76.15,200.2,200.2,0,0,1,20.1-7.08h0a.35.35,0,0,0,.14-.06l0,0,.12-.09h0l.1-.13h0l1.52-2.73v0l.05-.12v0m-30,1.06a85.93,85.93,0,0,0-1.53-19.46,6.58,6.58,0,0,1,.66.37,86.64,86.64,0,0,1,.87,19.09"/><path class="cls-49" d="M223.31,118.34a14.44,14.44,0,0,0,4.6-9.49c.85-6.47-2.47-12.71-9.62-18-6.54-4.88-16.28-9-28.18-12,1-3.33,1.88-5.7,1.89-5.73a.67.67,0,0,0-.05-.6.7.7,0,0,0-.51-.34l-10.88-1.4a.73.73,0,0,0-.48.11l-1.82,1.21a.69.69,0,0,0-.3.65l0,0a.74.74,0,0,0,0,.42v.1c.05.8.06,1.83,0,3.06-1.29-.22-2.6-.42-3.93-.61a48.82,48.82,0,0,1,1.57-5.55.68.68,0,0,0-.06-.62.66.66,0,0,0-.53-.32l-12.13-1a.7.7,0,0,0-.55.2l-1.86,1.8a.7.7,0,0,0-.16.74l0,0c0,1,.07,2.08.09,3.32-2.12-.15-4.33-.27-6.61-.36a.7.7,0,0,0-.72.77,34.72,34.72,0,0,0,.66,3.69,1.06,1.06,0,0,0,0,.19v9.21c1.86.1,3.8.23,5.86.39-.26,6.85-1.67,25.81-4.51,35a.69.69,0,0,0,.12.62.72.72,0,0,0,.57.28c.06,0,5.63-.18,10.56-.49h.11l.13-.05h0l.1-.06,0,0,.07-.07h0l2-2.24h0l.06-.08,0,0a.79.79,0,0,0,.08-.26l3.64-31.27c1.28.16,2.61.33,3.72.5-.53,5.52-2.12,21.24-4.32,32.11a.7.7,0,0,0,.73.83s3.65-.26,10.35-1.15h.09l.08,0,0,0,.07,0,.05,0,.08-.07h0l2-2.24,0,0,.07-.09,0,0,0-.1v0a.59.59,0,0,0,0-.14c0-.13.45-12.71,2.28-26.46,5.2,1.44,9.13,3.05,11.68,4.8.18.12.35.25.52.38l-3.82,34.24-.79,6.85a.69.69,0,0,0,.69.78h.07l8.9-.89h0l.2-.05h0a.58.58,0,0,0,.15-.11l0,0,0,0,2-2.23.07-.11,0,0a.6.6,0,0,0,.06-.19v0l.43-2.92.76,4.8a.69.69,0,0,0,.31.48.66.66,0,0,0,.56.08l14-4,0,0,.08,0,.06,0,.07-.06.05,0,0,0,2-2.24,0,0,.07-.12,0,0h0a.85.85,0,0,0,0-.17v0a.81.81,0,0,0,0-.15v-.05l-.05-.14v0h0v0l-5.77-9.61a18.41,18.41,0,0,0,2.82-3m-12.05-12.43c.06-.39.12-.78.18-1.15,1.59,1.44,2.66,3.39,2.23,5.18a2.8,2.8,0,0,1-.28.74,9.82,9.82,0,0,1-2.94,1.6c.13-2,.48-4.2.81-6.37M177.93,77.76c0,.22,0,.44,0,.68-1.83-.32-3.72-.62-5.63-.89.09-.39.18-.75.27-1.09a.7.7,0,0,0,.11.27.73.73,0,0,0,.48.3c1.62.22,3.23.47,4.81.73m46.58,53L223,131l-4.71-7.86c.41-.29.79-.58,1.16-.87l5.11,8.52"/><path class="cls-51" d="M227.22,108.76c1.71-13-14-23.6-38-29.43,1.06-3.76,2.11-6.48,2.11-6.48l-10.88-1.4a49,49,0,0,1-.14,6c-2.31-.42-4.69-.79-7.12-1.12A52.4,52.4,0,0,1,175,70l-12.13-1c.08,1.92.12,4.21.13,6.28-3-.25-6.06-.43-9.16-.55.35,3.39,1.76,6.79,1.24,10.19,2.33.12,4.71.27,7.31.49-.21,7.07-1.47,24.9-4.56,35.88,0,0,4.24-.47,10.54-.49l4-34.42c2,.26,4.78.59,6.68.91-1.33,9.54-3,24.54-4.31,32.83,2-.27,3.79-.35,10.31-1.15a298.57,298.57,0,0,1,2.78-30c5.68,1.42,10.93,3.25,14.25,5.52a9.18,9.18,0,0,1,.85.66l-3.86,34.62-.79,6.85,8.9-.89,1.36-9.33c.56-.23,1.11-.46,1.65-.7l1.51,9.67,14-4-6.39-10.63c5.85-4.05,7.32-7.19,7.95-11.92m-10.9-.89c-.56,2.35-3.9,4.83-6.62,5.3.13-4,1.4-9.6,1.57-12.9,3.08,1.39,5.75,4.64,5,7.6"/><path class="cls-49" d="M198.27,137.27a.66.66,0,0,1-.5-.2.71.71,0,0,1-.2-.57l.79-6.85,3.83-34.24a6.41,6.41,0,0,0-.52-.39c-2.81-1.92-7.28-3.68-13.27-5.22-2.15,14.74-2.66,29-2.66,29.12a.69.69,0,0,1-.61.67c-3.81.47-6,.68-7.59.85-1.1.11-1.9.19-2.71.3a.69.69,0,0,1-.79-.8c.79-4.88,1.69-12.13,2.56-19.14.58-4.73,1.14-9.21,1.66-13-1.49-.23-3.32-.46-5-.66l-.33,0L169,120.81a.7.7,0,0,1-.69.62c-6.18,0-10.42.48-10.47.48a.7.7,0,0,1-.6-.24.71.71,0,0,1-.15-.64c3.09-11,4.28-28.39,4.52-35-2.32-.19-4.49-.33-6.62-.44a.72.72,0,0,1-.51-.25.73.73,0,0,1-.15-.55,17.48,17.48,0,0,0-.59-6.32,34.72,34.72,0,0,1-.66-3.69.7.7,0,0,1,.72-.77c2.95.12,5.79.28,8.44.49,0-2.16-.06-4-.13-5.49a.69.69,0,0,1,.76-.73l12.13,1a.69.69,0,0,1,.59.94,48.82,48.82,0,0,0-1.57,5.55q2.88.41,5.63.89a40.22,40.22,0,0,0,.08-5.14.72.72,0,0,1,.22-.56.69.69,0,0,1,.57-.18l10.88,1.4a.7.7,0,0,1,.51.34.67.67,0,0,1,.05.6s-.92,2.4-1.89,5.73c11.9,3,21.64,7.09,28.18,12,7.15,5.34,10.47,11.58,9.62,18-.62,4.64-2,8-7.71,12L226.26,131a.72.72,0,0,1,.05.61.7.7,0,0,1-.46.41l-14,4a.73.73,0,0,1-.56-.08.72.72,0,0,1-.32-.48l-1.37-8.78-.46.2-1.32,8.93a.68.68,0,0,1-.62.59l-8.89.89h-.07m-10.45-49,.17,0c6.53,1.64,11.4,3.53,14.47,5.62.31.22.62.46.92.72a.68.68,0,0,1,.23.6l-3.86,34.62-.69,6,7.49-.75,1.29-8.79a.72.72,0,0,1,.43-.54c.55-.23,1.1-.46,1.63-.7a.75.75,0,0,1,.62,0,.7.7,0,0,1,.35.5l1.39,8.89,12.33-3.54L218.68,121a.69.69,0,0,1,.19-.93c5.72-4,7.06-7,7.65-11.44C228.09,96.79,214.1,86.08,189.08,80a.7.7,0,0,1-.44-.33.68.68,0,0,1-.07-.54c.71-2.53,1.43-4.61,1.82-5.71l-9.19-1.18c0,1.35,0,3.11-.17,5.26a.69.69,0,0,1-.26.5.74.74,0,0,1-.56.14c-2.28-.41-4.67-.79-7.09-1.12a.73.73,0,0,1-.48-.3.67.67,0,0,1-.1-.55c.64-2.81,1.17-4.63,1.49-5.61l-10.46-.88c.06,1.53.09,3.38.11,5.52a.71.71,0,0,1-.23.52.73.73,0,0,1-.53.18c-2.6-.22-5.4-.4-8.31-.52.14.91.34,1.84.53,2.74a21.26,21.26,0,0,1,.7,6.06c2.11.11,4.27.26,6.59.45a.7.7,0,0,1,.64.72c-.18,6-1.3,23.56-4.32,35.07,1.55-.14,4.79-.36,9-.39l3.95-33.81a.66.66,0,0,1,.26-.46.7.7,0,0,1,.52-.15l1,.13c1.91.24,4.08.52,5.69.78a.7.7,0,0,1,.57.79C179.19,91.23,178.6,96,178,101c-.82,6.6-1.66,13.41-2.41,18.27l1.83-.19c1.51-.15,3.54-.36,7-.77.12-2.92.76-16.07,2.76-29.45a.71.71,0,0,1,.3-.48.69.69,0,0,1,.39-.12m21.89,25.64a.71.71,0,0,1-.46-.17.69.69,0,0,1-.24-.55,66.94,66.94,0,0,1,.87-7.46c.32-2,.62-4,.7-5.45a.69.69,0,0,1,1-.6c3.3,1.49,6.23,5,5.44,8.39-.65,2.73-4.32,5.34-7.17,5.83h-.12m2.17-12.49c-.13,1.34-.37,2.9-.62,4.53-.33,2.17-.68,4.4-.81,6.37,2.36-.76,4.78-2.83,5.19-4.57.56-2.33-1.4-4.92-3.76-6.33"/><path class="cls-52" d="M176,116.48c.65-4.52,1.34-10.08,2-15.51.62-5,1.2-9.74,1.75-13.65a.7.7,0,0,0-.57-.79c-1.32-.21-3-.44-4.61-.64,0-.13.07-.26.1-.38l.39-1.63c2,.26,4.86.59,6.75.9-.4,8.51-2.41,23.83-5.82,31.7m-.4,2.76c.1-.66.2-1.37.31-2.1a8.81,8.81,0,0,1,5.89-1.85,15.37,15.37,0,0,1,2.73.25c-.06,1.24-.11,2.18-.13,2.74-3.43.41-5.46.62-7,.77l-1.83.19"/><path class="cls-52" d="M216.86,108.5A4.19,4.19,0,0,0,217,108c.62-2.63-1-5.37-3.38-7.15.16-1.13.28-2.17.33-3,3.07,1.39,5.75,4.63,5.05,7.59a6.31,6.31,0,0,1-2.14,3.07"/><path class="cls-52" d="M201.36,115.37l2.26-20.18a.71.71,0,0,0-.24-.6c-.3-.26-.61-.5-.92-.72a39.47,39.47,0,0,0-10.64-4.57c.17-.9.37-1.81.59-2.71A35.15,35.15,0,0,1,204.74,92a9.42,9.42,0,0,1,.86.67L202.73,115l-1.37.4"/><path class="cls-52" d="M212.26,134.44l-1.39-8.89a.75.75,0,0,0-.35-.5.82.82,0,0,0-.34-.09l-.13,0c.81-.48,2.35-1.55,2.81-1.75l1.51,9.67,9.74-2.81.48.8-12.33,3.55"/><polygon class="cls-52" points="199.06 135.8 199.75 129.81 201.36 115.37 202.74 114.97 201.73 127.3 200.94 134.14 206.77 133.56 206.56 135.05 199.06 135.8"/><path class="cls-52" d="M158.75,120.43c3-11.51,4.14-29.1,4.32-35.07a.7.7,0,0,0-.64-.72c-2.1-.17-4.08-.31-6-.42,0-.63,0-1.26,0-1.87,2.74.12,5.52.3,8.6.55-.21,7.08.22,28.75-5.84,35.82a15.52,15.52,0,0,1,6.83-1.63,13,13,0,0,1,1.94.14l0,.36-.28,2.45c-4.19,0-7.43.25-9,.39"/><path class="cls-53" d="M14.86,86s6.85,19.09-2.29,51.7a118,118,0,0,1,20.29-9.28,84.23,84.23,0,0,0-.68-31.52,9.91,9.91,0,0,1,6.23,6l3.2-8.69s8.4,12.66.67,31.83a186.31,186.31,0,0,1,20.18-7.11s-3.34-27.61-17.87-45.2c0,0-5.47,4.24-10.75,4.3l.95,6.25-4.44-4.4S27.24,83.31,14.86,86"/><path class="cls-49" d="M76.67,87.19a136.85,136.85,0,0,0-8.79-14.57.73.73,0,0,0-.39-.27l-9.8-2.63h-.24a.8.8,0,0,0-.21,0l-.05,0-.13.08-.06.07-.07.08-1.5,2.25,0,0,0,0c-11,20.28-4,43.09-3.93,43.32a.67.67,0,0,0,.52.47,46.51,46.51,0,0,1,12.12,4.13l.05,0,.11,0a.65.65,0,0,0,.39,0l.06,0,.11-.06,0,0,0,0,.09-.08,0,0,0,0,1.5-2.26.07-.13h0a1.36,1.36,0,0,0,0-.17v-.22l-2.16-11.12,1.53-.79c2.57,10,3.84,17.51,3.85,17.59a.72.72,0,0,0,.34.49.73.73,0,0,0,.35.09.67.67,0,0,0,.24,0,76.56,76.56,0,0,1,13.51-3.35l.1,0,.11,0h0l.12-.09,0,0,.08-.1h0l1.51-2.26v0l0-.09,0,0,0-.14h0v-.12c-.63-10.57-5.63-22.11-9.72-29.94M61.9,96.62a32.22,32.22,0,0,1,.42-8.05,31.69,31.69,0,0,1,2.17,6.87L61.9,96.62"/><path class="cls-49" d="M12.57,138.38a.77.77,0,0,1-.43-.15.7.7,0,0,1-.24-.74c4.68-16.71,5.06-29.76,4.55-37.77-.55-8.67-2.23-13.46-2.25-13.5a.7.7,0,0,1,.51-.92c12-2.6,15.09-5.85,15.12-5.88a.73.73,0,0,1,.5-.23.76.76,0,0,1,.51.2l2.95,2.92-.64-4.17a.72.72,0,0,1,.16-.56.7.7,0,0,1,.53-.24c5-.06,10.28-4.11,10.33-4.15a.68.68,0,0,1,1,.11c14.49,17.54,18,45.28,18,45.56a.71.71,0,0,1-.52.76,184.5,184.5,0,0,0-20.09,7.08.71.71,0,0,1-.76-.15.68.68,0,0,1-.16-.76c6.12-15.19,1.91-26.26.11-29.89l-2.68,7.26a.68.68,0,0,1-.64.45.69.69,0,0,1-.66-.43A9.64,9.64,0,0,0,33.12,98a85.57,85.57,0,0,1,.42,30.55.69.69,0,0,1-.46.52,119.86,119.86,0,0,0-20.16,9.21.76.76,0,0,1-.35.11M15.75,86.5c1.1,3.8,5.42,21.78-2.07,49.73a123.87,123.87,0,0,1,18.57-8.36A84.84,84.84,0,0,0,31.5,97a.7.7,0,0,1,.84-.83,10.25,10.25,0,0,1,6,4.94L41,94a.7.7,0,0,1,.57-.45.69.69,0,0,1,.66.31c.34.51,8.08,12.52,1.32,31a183.4,183.4,0,0,1,18.18-6.36c-.59-4.06-4.5-27.92-17.22-43.74-1.46,1-5.57,3.66-9.82,4l.83,5.48a.71.71,0,0,1-.37.73.71.71,0,0,1-.81-.13l-4-3.94c-1.31,1-5.24,3.56-14.57,5.66"/><path class="cls-51" d="M53.63,113.17s-7.16-22.52,3.88-42.78L67.31,73S84.48,97,85.7,117.17A109.21,109.21,0,0,0,72,120.56s-1.33-8-4.09-18.5l-4.53,2.35,2.53,13s-4.05-2.23-12.32-4.21m9-29.82s-2.29,9-1.3,14.29L67.05,95s-1.29-8.75-4.41-11.69"/><path class="cls-52" d="M65,116.15a63.34,63.34,0,0,0-10.82-3.56c-.84-3-6-23.14,3.68-41.38l.07,0c-8.66,19.33-2.27,39.48-2.27,39.48a60.61,60.61,0,0,1,8.62,1.75l.72,3.69"/><path class="cls-52" d="M67.45,93.32C67,91,65.9,86.53,64,83.9c.35-1.8.65-3,.65-3,1.89,1.77,3.1,5.66,3.77,8.47a20.59,20.59,0,0,0,0,3.51l-1,.45"/><path class="cls-52" d="M72.59,119.65c-.41-2.27-1.72-9.22-4-17.76a.67.67,0,0,0-.39-.46.71.71,0,0,0-.28-.06.75.75,0,0,0-.33.07l-2.06,1.07-.11-.57,4.37-2.26c.19.55.38,1.07.59,1.57,2.47,9.69,3.66,16.84,3.66,16.84a41.19,41.19,0,0,1,10.68-3.49c.08.66.15,1.33.2,2a110.31,110.31,0,0,0-12.37,3.05"/><path class="cls-49" d="M72,121.25a.68.68,0,0,1-.68-.58c0-.07-1.29-7.63-3.86-17.58l-3.29,1.7,2.43,12.46a.69.69,0,0,1-1,.74,54.52,54.52,0,0,0-12.16-4.14.71.71,0,0,1-.5-.47c-.07-.22-7.12-23,3.94-43.32a.7.7,0,0,1,.79-.34l9.8,2.63a.73.73,0,0,1,.39.27A136.43,136.43,0,0,1,76.67,87.2c4.09,7.82,9.09,19.36,9.72,29.93a.69.69,0,0,1-.57.73,107.93,107.93,0,0,0-13.56,3.36.78.78,0,0,1-.22,0M68,101.37a.92.92,0,0,1,.28,0,.71.71,0,0,1,.39.47c2.24,8.54,3.55,15.48,4,17.76A110.31,110.31,0,0,1,85,116.6c-.77-10.15-5.58-21.2-9.52-28.74a134.6,134.6,0,0,0-8.55-14.22l-9-2.43c-9.65,18.24-4.52,38.41-3.68,41.38A62.43,62.43,0,0,1,65,116.15l-2.26-11.61a.7.7,0,0,1,.36-.75l4.54-2.35a.68.68,0,0,1,.32-.07m-6.62-3a.72.72,0,0,1-.32-.08.67.67,0,0,1-.36-.49c-1-5.41,1.21-14.22,1.3-14.59a.69.69,0,0,1,.48-.5.73.73,0,0,1,.68.17c3.25,3.07,4.56,11.72,4.62,12.09a.7.7,0,0,1-.4.73l-5.71,2.6a.59.59,0,0,1-.29.07M63,84.87c-.53,2.48-1.54,7.87-1.1,11.75l4.37-2C66,93,64.94,87.71,63,84.87"/><path class="cls-49" d="M100,115.29v0l0-.13h0c3.48-18.91,0-33.14-3.59-41.74C92.58,64,87.94,59.24,87.74,59a.67.67,0,0,0-.52-.21.69.69,0,0,0-.5.23,21.73,21.73,0,0,1-10.79,6.7h0a.81.81,0,0,0-.32.16l-1.46,1.33a.71.71,0,0,0,0,1l.05,0c2.3,1.69,5.39,6.29,7.2,9.19A12.9,12.9,0,0,0,72.87,81c-.08.09-.16.19-.25.28a9,9,0,0,0-1.2,1c-2.85,2.92-3.71,7.49-2.55,13.58,1.2,6.32,3.76,10.49,7.61,12.4,4.08,2,8.45.93,10.53.17l-.39,2.13a.68.68,0,0,0,.36.74L97.57,117h0l.08,0,0,0,.16,0h0l.14,0h0l.09,0h0l.09-.06,0,0h0l1.46-1.33.06-.07,0,0,.08-.13M81.75,91.67a11.17,11.17,0,0,1-.21-4.13,2.46,2.46,0,0,1,1.22,1.26l0,0c0,.05,2.74,4.8,2.27,8.68l-.06.35c-1-.42-2.51-2.39-3.25-6.21m5.49-31.11a50.29,50.29,0,0,1,8,13.43A68.83,68.83,0,0,1,100,103.91a69.69,69.69,0,0,0-4.89-29.1A49.8,49.8,0,0,0,86.85,61l.39-.4"/><path class="cls-51" d="M76.06,66.44a22,22,0,0,0,11.18-6.92S106,78.71,99.35,115l-10.59-5.62.63-3.38S74.62,113.37,71,94.43,85,78.34,85,78.34s-5.3-9.25-8.9-11.9m5,25.36c1.46,7.47,5.64,8.64,6.15,4.48s-2.36-9.11-2.36-9.11c-1.27-2.69-5.29-3-3.79,4.63"/><path class="cls-49" d="M99.35,115.7a.72.72,0,0,1-.32-.08L88.43,110a.69.69,0,0,1-.35-.74l.39-2.12c-2.08.75-6.45,1.84-10.53-.18-3.85-1.91-6.41-6.08-7.61-12.4C69.17,88.47,70,83.9,72.88,81c3.3-3.4,8.34-3.6,10.78-3.47C82.11,75,78.33,69,75.65,67a.68.68,0,0,1-.27-.71.7.7,0,0,1,.55-.53,21.64,21.64,0,0,0,10.79-6.7.7.7,0,0,1,.51-.23.66.66,0,0,1,.51.21c.2.2,4.84,5,8.71,14.35C100,82,103.52,96.22,100,115.13a.7.7,0,0,1-.69.57M89.54,109l9.29,4.93C102,95.86,98.6,82.27,95.19,74a50.57,50.57,0,0,0-8-13.43,23.39,23.39,0,0,1-9.72,6.21c3.53,3.39,7.84,10.87,8,11.22a.72.72,0,0,1,0,.75.7.7,0,0,1-.68.29c-.07,0-7.08-1.09-11,2.92-2.51,2.59-3.24,6.74-2.17,12.35,1.11,5.86,3.42,9.7,6.85,11.41,4.87,2.42,10.47-.31,10.53-.33a.69.69,0,0,1,1,.75L89.54,109m-4.13-9.65c-1.79,0-4-2.28-5-7.42-.36-1.86-.94-6.29,1.56-7.11,1.27-.41,2.78.46,3.53,2,.25.45,3,5.28,2.43,9.52-.22,1.82-1.12,2.94-2.41,3h-.08m-3.66-7.69c.86,4.4,2.68,6.34,3.69,6.3.53,0,1-.7,1.08-1.77.47-3.88-2.25-8.63-2.27-8.68l0,0c-.43-.91-1.26-1.5-1.85-1.31s-1.39,1.57-.62,5.51"/><path class="cls-52" d="M87.84,96.77c0-.13,0-.27.06-.4.52-4.24-2.18-9.07-2.43-9.52a3.65,3.65,0,0,0-2.37-2.06,1.65,1.65,0,0,1,1.51-1.18,2.77,2.77,0,0,1,2.25,1.74s2.86,4.94,2.36,9.11c-.16,1.31-.69,2.09-1.38,2.31"/><path class="cls-52" d="M87,76.51a16.16,16.16,0,0,0-2.33-.15h0c-1.5-2.47-4.49-7.11-7.07-9.59.44-.14,1-.34,1.61-.59l.52-.12C83,69.66,87,76.51,87,76.51"/><path class="cls-52" d="M98.83,113.94,89.54,109l.53-2.88a.69.69,0,0,0-.26-.68.71.71,0,0,0-.73-.07,15.21,15.21,0,0,1-6,1.33,10.12,10.12,0,0,1-4.51-1c-3.43-1.71-5.74-5.55-6.85-11.41-1-5.44-.38-9.51,1.94-12.1-1.11,2.39-1.51,5.73-.62,10.41,2,10.65,7.59,13,12.06,13a15.72,15.72,0,0,0,6.32-1.41l-.63,3.38,6,3.17h0a.69.69,0,0,0,.29.84s.78.47,2,1.23c-.06.37-.12.75-.19,1.13"/><path class="cls-49" d="M154.31,117.52l0-.07,0-.06,0-.08v0A370.58,370.58,0,0,0,156.34,68a.69.69,0,0,0-.28-.54l-7.79-5.65a.7.7,0,0,0-.89.05c-.55.53-1.85,1.68-1.94,1.78-17,16.16-18.8,40.48-18.82,40.73a.71.71,0,0,0,.31.63,51.45,51.45,0,0,1,9.23,7.67l0,0,.08.06.09,0,0,0,.05,0h0l.15,0h0l.17,0h0a.37.37,0,0,0,.16-.07h0l.1-.07L139.1,111v0l0,0,.09-.12,0,0a.64.64,0,0,0,.06-.18h0l2.13-11.47L143.2,99c-1.24,10.49-2.79,18.24-2.8,18.32a.72.72,0,0,0,.12.55.69.69,0,0,0,.49.28c5.66.59,10.41,1.5,10.61,1.53h.14a.63.63,0,0,0,.19,0h0l.17-.08h0a15,15,0,0,0,2.11-2l0-.06m-6.8-31.39-4.39-.27a50.37,50.37,0,0,1,6.32-10.71c.14,3.49-1.08,8.19-1.93,11"/><path class="cls-51" d="M129.27,102.67s1.6-24.11,18.59-40.28L155.65,68a365.54,365.54,0,0,1-2,49.15A46,46,0,0,0,143,115.65s1.64-8.16,2.91-19.24l-4.78.45-2.53,13.6s-2.15-3.61-9.36-7.79m22.47-31.6s-7.42,8.76-9.58,15.43l7.19.44s3.91-10.79,2.39-15.87"/><path class="cls-49" d="M153.7,117.89a.63.63,0,0,1-.19,0,46.16,46.16,0,0,0-10.5-1.52.7.7,0,0,1-.53-.26.72.72,0,0,1-.13-.57c0-.08,1.56-7.83,2.8-18.32l-3.4.31-2.43,13.09a.72.72,0,0,1-.57.56.74.74,0,0,1-.72-.33s-2.18-3.53-9.11-7.55a.71.71,0,0,1-.35-.65c0-.25,1.82-24.57,18.81-40.73a.68.68,0,0,1,.89-.06l7.79,5.65a.69.69,0,0,1,.28.54,370.42,370.42,0,0,1-1.94,49.25.7.7,0,0,1-.31.5.69.69,0,0,1-.39.12M143.87,115a47.46,47.46,0,0,1,9.23,1.33A370.3,370.3,0,0,0,155,68.41l-7-5.11c-15,14.62-17.61,35.73-17.93,39a32.64,32.64,0,0,1,8.23,6.5l2.25-12.06a.7.7,0,0,1,.62-.57l4.77-.44a.7.7,0,0,1,.57.2.67.67,0,0,1,.19.57c-1,9-2.32,16.16-2.76,18.49m5.48-27.34h0l-7.2-.44a.68.68,0,0,1-.53-.3.73.73,0,0,1-.09-.61c2.19-6.72,9.41-15.3,9.72-15.66a.7.7,0,0,1,.67-.23.72.72,0,0,1,.53.48c1.57,5.24-2.24,15.86-2.4,16.31a.72.72,0,0,1-.66.46m-6.23-1.78,5.75.35c.65-1.92,2.93-9.06,2.47-13.54C149.4,75.1,145,81,143.12,85.86"/><path class="cls-52" d="M153.1,116.31a47.46,47.46,0,0,0-9.23-1.33c.44-2.33,1.73-9.48,2.76-18.49a.67.67,0,0,0-.19-.57.7.7,0,0,0-.5-.2.08.08,0,0,0-.07,0l-2.1.19.07-1.49,4.78-.44c-1.28,11.08-2.92,19.23-2.92,19.23a11,11,0,0,1,4.33-1,7.92,7.92,0,0,1,3.43.83c-.11,1.1-.23,2.21-.36,3.31"/><path class="cls-52" d="M138.23,108.79a22.54,22.54,0,0,0-2.45-2.41c.05-1.31.1-2.7.17-4.16a31.14,31.14,0,0,1,3.13,2l-.85,4.54"/><path class="cls-52" d="M137.79,78.43l.24-1.88a56.64,56.64,0,0,1,5.55-8.43,61.93,61.93,0,0,0-5.79,10.31"/><path class="cls-49" d="M140.36,62.45a.71.71,0,0,0-.69-.17,16.28,16.28,0,0,1-11.81-1.92l0,0,0,0h0l-.13,0a.62.62,0,0,0-.38,0h0l-.13.08,0,0-.09.08-1.48,1.8a.74.74,0,0,0-.14.28v0a12,12,0,0,1-1.13,2.4,10.8,10.8,0,0,0-2.53-5,.7.7,0,0,0-.89-.12,44.81,44.81,0,0,1-18,5.55h-.11a.66.66,0,0,0-.36.23l-1.49,1.79h0a.69.69,0,0,0-.15.48v.09c0,.21,4,21.07-4,42.65a.69.69,0,0,0,.29.84c.07,0,6.78,4.1,12.9,8.4l.08,0,.09,0h0a.54.54,0,0,0,.22,0h.14l0,0,.07,0h0l.1-.05,0,0,.11-.1h0l1.48-1.79h0a1.62,1.62,0,0,0,.1-.18l0-.06,0-.07c0-.19,3-15.12,4-27.48l1.25,2.89a.71.71,0,0,0,.4.38l.06,0,.17,0h0a.64.64,0,0,0,.2,0h0a.47.47,0,0,0,.15-.06l0,0,.11-.1,0,0h0l1.49-1.79.09-.15v0l.69-1.56c-.92,7.46-2.87,19.85-6.52,28.47a.7.7,0,0,0,.07.67.68.68,0,0,0,.59.3c.09,0,9-.23,18-.23l.15,0h0l.1,0a1.18,1.18,0,0,0,.25-.19l1.48-1.8,0,0a.68.68,0,0,0,.13-.33v-.09c0-.35.19-35.78,5-53.4a.68.68,0,0,0-.18-.68m-6.19,52.84-.06,0c.06-3.07.19-8.2.49-14.2-.3,6.62-.4,11.93-.43,14.23"/><path class="cls-53" d="M102.92,66.16s4.28,19.69-4,43c0,0,7.62,4.92,12.94,8.42,0,0,4.44-22.33,4.42-35l3.69,8.53,4.17-9.44s-1,20.94-6.6,35.15c0,0,8.21-.55,17.36-.27,0,0,.14-35.67,5-53.58a16.94,16.94,0,0,1-12.35-2s-.24,1.38-3.75,6.8a10.34,10.34,0,0,0-2.59-7.26,45.15,45.15,0,0,1-18.26,5.65"/><path class="cls-49" d="M111.81,118.31a.73.73,0,0,1-.38-.11c-5.26-3.46-12.86-8.38-12.94-8.43a.69.69,0,0,1-.27-.82,86,86,0,0,0,4-42.64.69.69,0,0,1,.12-.56.68.68,0,0,1,.5-.28,44.81,44.81,0,0,0,18-5.55.7.7,0,0,1,.89.12,10.79,10.79,0,0,1,2.63,5.53,22.1,22.1,0,0,0,2.51-4.74.7.7,0,0,1,1-.47,16.28,16.28,0,0,0,11.81,1.92.7.7,0,0,1,.69.16.73.73,0,0,1,.19.69c-4.81,17.62-5,53.05-5,53.4a.71.71,0,0,1-.21.5.69.69,0,0,1-.5.2c-9-.28-17.22.25-17.3.26a.69.69,0,0,1-.61-.28.73.73,0,0,1-.09-.67c4-10.23,5.65-24.15,6.25-30.91l-2.54,5.74a.68.68,0,0,1-.63.42h0a.7.7,0,0,1-.63-.42l-2.43-5.61c-.58,12.86-4.31,31.78-4.36,32a.71.71,0,0,1-.41.51.86.86,0,0,1-.27,0m-12.1-9.41c1.63,1,7.2,4.67,11.61,7.56.86-4.51,4.23-22.93,4.21-33.9a.69.69,0,0,1,.56-.68.69.69,0,0,1,.78.4l3.06,7.07,3.52-8a.71.71,0,0,1,.8-.4.69.69,0,0,1,.53.72c0,.2-1.06,20.23-6.25,34.35,2.45-.13,8.74-.4,15.63-.23.06-5,.55-35.28,4.75-51.94a18.13,18.13,0,0,1-11-1.91,45.7,45.7,0,0,1-3.55,6.19.69.69,0,0,1-.81.27.68.68,0,0,1-.47-.72,9.79,9.79,0,0,0-2-6.29,46.27,46.27,0,0,1-17.28,5.37,88.65,88.65,0,0,1-4,42.12"/><path class="cls-54" d="M119.92,89.35l-.73-1.7c.2-2.4.33-4.72.32-6.86l2.08,4.8-1.67,3.76"/><path class="cls-54" d="M111.32,116.46c-4.41-2.89-10-6.51-11.61-7.56a88.47,88.47,0,0,0,4-42.11c1.06-.11,2.09-.26,3.09-.43,1.38,5.49,2.48,22.84-4.69,41.06a18.06,18.06,0,0,1,10.08,4.06c-.39,2.21-.71,4-.91,5"/><path class="cls-54" d="M118.52,116c3.63-9.84,5.24-22.56,5.88-29.43l3-6.72s.35,22.44-7.23,35.11A56.62,56.62,0,0,1,132,113.73c.74,0,1.48,0,2.23,0,0,.88,0,1.57,0,2-1.61,0-3.18-.06-4.69-.06-4.93,0-9.07.19-11,.29"/><path class="cls-49" d="M226.17,119.17a2.95,2.95,0,1,1-3.09,2.81,3,3,0,0,1,3.09-2.81m-.24,5A2.08,2.08,0,1,0,224.1,122a1.83,1.83,0,0,0,1.83,2.16m-.94-3.73,1,.05c.84,0,1.34.28,1.31,1a.72.72,0,0,1-.64.78l.62,1.25-.81,0-.58-1.17h-.25l-.06,1.14-.73,0Zm1,1.33c.29,0,.46-.1.47-.33s-.15-.35-.44-.36l-.38,0,0,.69Z"/><path class="cls-54" d="M13.68,136.23c7.49-27.95,3.17-45.93,2.07-49.73l2-.48c1.5,6.65,3.84,23.66-3.14,48.55a95.9,95.9,0,0,1,17.94-8.77c-.13,1-.25,1.67-.32,2.07a123.87,123.87,0,0,0-18.57,8.36"/><path class="cls-54" d="M38.32,101.14A11.07,11.07,0,0,0,35,97.45c-.2-1.21-.43-2.43-.7-3.67a9.53,9.53,0,0,1,5.25,4.16l-1.18,3.2"/><path class="cls-54" d="M43.51,124.79c6.09-16.59.43-28-1-30.46l1.19-3.21s8.4,12.65.66,31.83c0,0,6.53-2.69,13.44-5.3,1.12.36,2.1.72,2.94,1-6.69,1.92-14.1,4.83-17.21,6.09"/><path class="cls-55" d="M94.24,80.44c-2-9.37-10.12-15.83-10.12-15.83a8.19,8.19,0,0,0,2.53-1.8c6.39,6.91,7.59,17.63,7.59,17.63"/><path class="cls-56" d="M132.09,86.66s-.07-.12-.07-.38c-.05-3.52,1.49-18,1.49-18-.28,0-.58,0-.9,0-2.87,0-6.67-1.1-6.16-1.66A24.16,24.16,0,0,0,128.17,64a15.84,15.84,0,0,0,7.48,1.88,10.11,10.11,0,0,0,1.39-.08c-1.38,2-4.46,20.83-4.95,20.83"/><path class="cls-56" d="M110,70.85a6.6,6.6,0,0,0-.39-2.9c7.19-1.15,10.83-3.54,10.83-3.54L121,67.1C118.35,68.79,110,70.85,110,70.85"/><path class="cls-55" d="M153.61,69.9c-.91-1.09-7.8-2.45-7.8-2.45A25.45,25.45,0,0,1,148,65.31c4.26,2.84,5.62,4.59,5.62,4.59"/><path class="cls-55" d="M224.63,110.26C225,93.2,195.17,80.53,156.52,78v-.93c30.3,1.61,55.68,9.66,64.84,20.63,2.86,3.42,4.06,7,3.58,10.75-.09.63-.19,1.23-.31,1.8"/><path class="cls-56" d="M36.32,81.78l-.47-1.86s5.3-.55,8.45-3l2.18,2.9s-6.3,1.38-10.16,1.92"/><path class="cls-56" d="M20.32,89l-1-1.73S26.26,85.59,30,82.56L32.73,85s-7.4,2.65-12.41,4"/><rect class="cls-49" x="171.66" y="81.54" width="9.8" height="1.16" transform="translate(73.25 247.18) rotate(-82.9)"/><rect class="cls-49" x="188.79" y="84.5" width="9.8" height="1.35" transform="translate(54.56 244.58) rotate(-72.62)"/><path class="cls-49" d="M196.89,110.54a4.85,4.85,0,1,1-4.85-4.85,4.85,4.85,0,0,1,4.85,4.85"/><path class="cls-49" d="M196.89,110.54h-.73a4.13,4.13,0,1,1-1.21-2.91,4.11,4.11,0,0,1,1.21,2.91h1.46a5.58,5.58,0,1,0-5.58,5.58,5.59,5.59,0,0,0,5.58-5.58h-.73"/><path class="cls-49" d="M190.81,98.22l.54,7.52v.07l1.21,6.88-2.13,9.49a.69.69,0,0,0,.52.83.7.7,0,0,0,.84-.52l2.16-9.63a.62.62,0,0,0,0-.27l-1.22-7-.53-7.49a.7.7,0,0,0-.75-.65.7.7,0,0,0-.64.75"/><path class="cls-53" d="M197.94,108.44a4.85,4.85,0,1,1-4.85-4.84,4.84,4.84,0,0,1,4.85,4.84"/><path class="cls-49" d="M197.94,108.44h-.69a4.19,4.19,0,0,1-1.22,2.94,4.15,4.15,0,1,1,0-5.88,4.17,4.17,0,0,1,1.22,2.94h1.38a5.54,5.54,0,1,0-5.54,5.54,5.54,5.54,0,0,0,5.54-5.54h-.69"/><path class="cls-54" d="M193.09,112.6a4.15,4.15,0,0,1-2.94-7.09v0c0,.14,0,.27,0,.41a4.85,4.85,0,0,0,4.85,4.85,5,5,0,0,0,1.74-.32,4.16,4.16,0,0,1-3.65,2.17"/><path class="cls-51" d="M193.89,98.12a2.26,2.26,0,1,1-2.26-2.26,2.26,2.26,0,0,1,2.26,2.26"/><path class="cls-57" d="M193.89,98.12a2.26,2.26,0,1,1-2.26-2.26A2.26,2.26,0,0,1,193.89,98.12Z"/><path class="cls-51" d="M193.32,122.4a2.26,2.26,0,1,1-2.25-2.26,2.25,2.25,0,0,1,2.25,2.26"/><path class="cls-57" d="M193.32,122.4a2.26,2.26,0,1,1-2.25-2.26A2.25,2.25,0,0,1,193.32,122.4Z"/><path class="cls-55" d="M69.23,79.18a20.83,20.83,0,0,0-11.64-4.39,7.14,7.14,0,0,1,.64-2.05l8,2.15,3,4.29"/></g></g></g></svg>