<svg xmlns="http://www.w3.org/2000/svg" viewBox="0 0 249.15 117.82"><defs><style>.cls-1{fill:#d8dadb;}.cls-2{fill:#b6b4b4;}.cls-3{fill:#c8cacc;}.cls-4{fill:#211f1f;}.cls-5{fill:#adacad;}.cls-6{fill:#716e6f;}.cls-7{fill:#f1f0f0;}.cls-8{fill:#3f3d3e;}.cls-9{fill:#484646;}.cls-10{fill:#d0d1d3;}.cls-11{fill:#908d8d;}.cls-12{fill:#e3e4e5;}.cls-13{fill:#eceded;}.cls-14{fill:#fefefe;}.cls-15{fill:#2a2728;}.cls-16{fill:#ed1f25;}</style></defs><g id="Layer_2" data-name="Layer 2"><g id="Layer_1-2" data-name="Layer 1"><g id="pj5vCX.tif"><path class="cls-1" d="M244.93,5.54a9,9,0,0,1,2.15,2.87A16.44,16.44,0,0,1,249,15.09c.09.92.11,1.83.11,2.75q0,41.83,0,83.68A16.23,16.23,0,0,1,245.39,112a1.38,1.38,0,0,1-.46.34h0a.72.72,0,0,1,.17-.54,16.32,16.32,0,0,0,3.74-11.07q0-41.15,0-82.29a35.41,35.41,0,0,0-.28-4.25,15.13,15.13,0,0,0-3.43-8,.79.79,0,0,1-.22-.59Z"/><path class="cls-1" d="M242.75,3.36a4.7,4.7,0,0,1,2.18,2.18h0a6.62,6.62,0,0,1-2.19-2.18Z"/><path class="cls-2" d="M3.64,6.27a.66.66,0,0,1,0-.14c.46-.06.67-.46.94-.75a15.49,15.49,0,0,1,6-4A14.24,14.24,0,0,1,15.14.46,2.07,2.07,0,0,0,16.45.17h.87c.22.24.5.14.75.14H229.91c.26,0,.54.1.76-.14h.87a2.07,2.07,0,0,0,1.31.29,14.35,14.35,0,0,1,4.58.91A15.66,15.66,0,0,1,241.9,4a15.68,15.68,0,0,1,5.83,10.07c.12.84-.16,1.76.4,2.53v1c-.24.21-.14.5-.14.75q0,41.07,0,82.14l.14.73a1.8,1.8,0,0,0-.3,1.15,18.42,18.42,0,0,1-.9,4.64c-.36,1.16-1.17,2.09-1.57,3.22h0a2.1,2.1,0,0,0-.87,1.16.32.32,0,0,0-.15.29c-.3,0-.44.26-.64.43a18.82,18.82,0,0,1-1.71,1.63c-.26.18-.53.35-.56.71h-.14a.7.7,0,0,0-.45.21,16.15,16.15,0,0,1-9.71,2.83c-72-.08-143.95.21-215.92-.15A12.82,12.82,0,0,1,9.55,116c-1-.48-1.9-1-2.85-1.56H6.56a.64.64,0,0,0-.33-.53,17.63,17.63,0,0,1-1.95-1.81c-.19-.18-.33-.42-.64-.43a.31.31,0,0,0-.14-.29,9.28,9.28,0,0,0-1.27-2A14,14,0,0,1,.3,103.85a31.49,31.49,0,0,1-.3-5Q0,58,0,17.1A17.46,17.46,0,0,1,1.57,9.58,18,18,0,0,1,3.35,6.77,3.1,3.1,0,0,0,3.64,6.27Zm241.28,103.1h0c.31,0,.3-.22.29-.44h0a3.37,3.37,0,0,0,1.14-2c.16-.47.65-.92.31-1.51l0-.29c.35-.07.36-.4.38-.63a30.53,30.53,0,0,0,.31-3.44q0-40.56,0-81.11a46.42,46.42,0,0,0-.11-5,16.89,16.89,0,0,0-1-4.4,3.21,3.21,0,0,0-1-1.71c0-.19,0-.4-.29-.44,0-.19,0-.4-.29-.43,0-.2,0-.4-.29-.44,0-.51-.4-.77-.67-1.06-.64-.67-1.12-1.55-2.11-1.84a.66.66,0,0,0-.73-.58c-.13-.53-.53-.69-1-.72-.08-.41-.41-.41-.73-.43,0-.38-.38-.41-.62-.53A15,15,0,0,0,232,.91q-108,0-216,0a9.65,9.65,0,0,0-2,.19c-.28.06-.72-.1-.87.35l-.29,0c-.18-.21-.39-.14-.6-.06-.74.26-1.5.51-2.23.8-.41.16-.91.22-1.1.72h0c-.32,0-.65,0-.73.43h0c-.49,0-.9.18-1,.74h0c-.42,0-.68.15-.72.59h0a.6.6,0,0,0-.54.16C5.33,5.42,4.74,6,4.23,6.58,3.88,7,3.35,7.36,3.36,8c-.3,0-.3.22-.3.43-.29,0-.29.23-.29.44-.31,0-.35.3-.46.5a14.53,14.53,0,0,0-1.71,7q0,41.52,0,83a21,21,0,0,0,1,7.55,3.78,3.78,0,0,0,1.14,2c0,.21,0,.42.29.43,0,.1,0,.21,0,.28A13.87,13.87,0,0,0,6,113.08c.08.08.27,0,.41.07h0c0,.44.31.61.73.59h0c.1.58.53.71,1,.73h0c.07.43.41.43.73.44h0c0,.31.27.36.47.46a18.6,18.6,0,0,0,2.81,1c.23.07.45.19.64-.06l.29,0a.29.29,0,0,0,.29.26,25.11,25.11,0,0,0,2.58.28H232a9.71,9.71,0,0,0,2-.19c.27-.06.72.11.86-.35l.28,0c.17.22.38.16.58.09.77-.27,1.54-.52,2.29-.82.39-.16.89-.21,1.06-.72h0c.32,0,.66,0,.73-.44h0c.5,0,.92-.15,1-.73h0c.42,0,.69-.15.73-.59h0a.6.6,0,0,0,.54-.16,15.72,15.72,0,0,0,1.68-1.78c.21-.31.64-.49.55-1h0c.31,0,.3-.22.29-.44h0C244.94,109.81,244.93,109.59,244.92,109.37Z"/><path class="cls-3" d="M6.7,114.47c1,.52,1.88,1.08,2.85,1.56a12.82,12.82,0,0,0,5.66,1.33c72,.36,143.94.07,215.92.15a16.15,16.15,0,0,0,9.71-2.83.7.7,0,0,1,.45-.21c0,.26-.19.36-.37.49a15.65,15.65,0,0,1-8,2.73c-3,.21-6,.11-9,.11q-103.69,0-207.39,0A15.74,15.74,0,0,1,7.19,115C7,114.89,6.69,114.81,6.7,114.47Z"/><path class="cls-3" d="M230.67.17c-.22.24-.5.14-.76.14H18.07c-.25,0-.53.1-.75-.14.21-.25.5-.15.75-.15H229.92C230.17,0,230.46-.08,230.67.17Z"/><path class="cls-3" d="M248,100.51q0-41.07,0-82.14c0-.25-.1-.54.14-.75.24.21.14.49.14.75q0,40.68,0,81.36C248.27,100,248.46,100.39,248,100.51Z"/><path class="cls-3" d="M248.13,16.6c-.56-.77-.28-1.69-.4-2.53A15.68,15.68,0,0,0,241.9,4a15.66,15.66,0,0,0-4.47-2.63,14.35,14.35,0,0,0-4.58-.91,2.07,2.07,0,0,1-1.31-.29c.41-.39.82,0,1.24,0a13.27,13.27,0,0,1,9.33,3.45c2.56,2.23,4.82,4.79,5.56,8.26a12.87,12.87,0,0,1,.44,3.26C248.08,15.63,248.52,16.11,248.13,16.6Z"/><path class="cls-3" d="M245.36,110.25c.4-1.13,1.21-2.06,1.57-3.22a18.42,18.42,0,0,0,.9-4.64,1.8,1.8,0,0,1,.3-1.15,3.94,3.94,0,0,1,0,2.1,14.51,14.51,0,0,1-2.1,6.25C245.81,109.85,245.73,110.19,245.36,110.25Z"/><path class="cls-3" d="M241.43,114.47c0-.36.3-.53.56-.71a18.82,18.82,0,0,0,1.71-1.63c.2-.17.34-.42.64-.43A8.31,8.31,0,0,1,241.43,114.47Z"/><path class="cls-3" d="M3.64,111.7c.31,0,.45.25.64.43a17.63,17.63,0,0,0,2,1.81.64.64,0,0,1,.33.53A8.42,8.42,0,0,1,3.64,111.7Z"/><path class="cls-3" d="M244.49,111.41a2.1,2.1,0,0,1,.87-1.16A1.22,1.22,0,0,1,244.49,111.41Z"/><path class="cls-4" d="M13.1,116.39l-.29,0a27.52,27.52,0,0,1-3.92-1.45h0a.91.91,0,0,0-.73-.44h0a2.43,2.43,0,0,0-1-.73h0c-.2-.25-.36-.56-.73-.59h0a.5.5,0,0,0,0-.12.41.41,0,0,1,.59-.24c.54.19,1.11.33,1.65.54a16.38,16.38,0,0,0,5.76,1.27q108.8,0,217.59,0a11.9,11.9,0,0,0,4.24-.8c.25-.09.46-.16.42-.48a.37.37,0,0,1,.42-.17c0,.13,0,.27.17.23s.14-.22.14-.36l.24-.18a1.85,1.85,0,0,0,1.65-1l1-.87c.21,0,.31-.08.32-.29.55-.33.82-1,1.43-1.24.11.17.37.22.4.06.09-.56.66-.7.88-1.12s.51-.4.45-.78a.65.65,0,0,0,.44-.34c.58-.85,1.16-1.7,1.79-2.53.2-.26.32-.69.79-.63.14.35-.21.66-.1,1l0,.29c-.48,1.16-1,2.32-1.45,3.49h0a.44.44,0,0,0-.29.44h0a.43.43,0,0,0-.29.44h0a.43.43,0,0,0-.29.44h0l-2.77,2.91h0c-.37,0-.53.34-.73.59h0a2.52,2.52,0,0,0-1,.73h0a.91.91,0,0,0-.73.44h0a27.2,27.2,0,0,1-3.93,1.45l-.28,0a7.56,7.56,0,0,0-1.64.13H15.39C14.62,116.52,13.87,116.37,13.1,116.39Z"/><path class="cls-5" d="M246.7,105.16c-.11-.35.24-.66.1-1a5.35,5.35,0,0,0,.15-2c0-.21,0-.43,0-.65V18.37c0-.9,0-1.8,0-2.69,0-.14.11-.35-.18-.42a7.58,7.58,0,0,0-.39,2.71q0,40.68,0,81.36a8.42,8.42,0,0,1-.17,2.3c-.22.78-.23,1.68-1,2.23l0-.57a2.94,2.94,0,0,0,.56-2.63v-.58c.46-.18.25-.59.25-.88q0-41.07,0-82.14a3.93,3.93,0,0,1,.78-2.79c.11-.12.06-.22-.07-.3a5.23,5.23,0,0,0-.55-2.48c0-.57-.25-.4-.51-.14a4.65,4.65,0,0,0-1.09,2.55c-.07.35-.35.72,0,1.1l0,.7c-.39.19-.22.5-.19.79-.08,1.28.07,2.56.07,3.84q0,39.64,0,79.28c0,.63,0,1.26,0,1.89l-.3,0c-.16-.21-.09-.46-.09-.7q0-41.14,0-82.29a30,30,0,0,1,.14-4.13A6.46,6.46,0,0,1,245.3,11a1.2,1.2,0,0,0,0-1.7l-.13-.41,0,0a3.21,3.21,0,0,1,1,1.71,16.89,16.89,0,0,1,1,4.4,46.42,46.42,0,0,1,.11,5q0,40.56,0,81.11a30.53,30.53,0,0,1-.31,3.44C247.06,104.76,247.05,105.09,246.7,105.16Z"/><path class="cls-6" d="M12.81,1.47l.29,0c.51.13,1-.13,1.5-.13l215.54,0,3.12,0c-.08.41-.41.21-.64.26s-.56-.1-.67.27h-1c-.26-.21-.56-.11-.84-.11H17.7a17.47,17.47,0,0,0-5.82,1c-.22.08-.48.11-.54.41l-.09.2-.48.21c0-.1-.06-.18-.16-.14s-.16.19-.17.32a.15.15,0,0,0-.11,0,.16.16,0,0,0-.18.12C9.75,4,9.5,4.47,9,4.3s-1,.28-1.44.45-1,.71-1.6.51l.44-.58h0c.37,0,.53-.32.72-.59h0a2.48,2.48,0,0,0,1-.74h0a.9.9,0,0,0,.73-.43h0A27.25,27.25,0,0,1,12.81,1.47Z"/><path class="cls-5" d="M231,1.87h1a3.24,3.24,0,0,0,2.2-.39c-.33-.25-.61-.14-.89-.14l-3.12,0L14.6,1.31c-.51,0-1,.26-1.5.13.15-.45.59-.29.87-.35A9.65,9.65,0,0,1,16,.9q108,0,216,0a15,15,0,0,1,6.5,1.49c.24.12.59.15.62.53h0l-.79-.34a7.35,7.35,0,0,0-2.55-.83.41.41,0,0,0-.57-.11,3.55,3.55,0,0,1-1.77.41.28.28,0,0,0-.29.26h-.28c-.62-.29-1.28,0-1.91-.15Z"/><path class="cls-5" d="M13.1,116.39c.77,0,1.52.13,2.29.13H233.25a7.56,7.56,0,0,1,1.64-.13c-.14.46-.59.29-.86.35a9.71,9.71,0,0,1-2,.19H16a25.11,25.11,0,0,1-2.58-.28A.29.29,0,0,1,13.1,116.39Z"/><path class="cls-5" d="M2.77,109a3.78,3.78,0,0,1-1.14-2,21,21,0,0,1-1-7.55q0-41.52,0-83a14.53,14.53,0,0,1,1.71-7c.11-.2.15-.48.46-.5h0c-.29.68-.59,1.36-.87,2-.07.16-.24.35,0,.52a.54.54,0,0,0,.55,0,3.14,3.14,0,0,0,.44-.25,15.65,15.65,0,0,0,2.4-2.48A5.9,5.9,0,0,1,7,7.15c0,.09,0,.21-.08.26a44.84,44.84,0,0,0-3.42,4c-.43.52-.84,1.2-1.61,1.24-.5,0-.61.29-.69.65s-.1.65-.15,1v.87c0,.63,0,1.26,0,1.89Q1,48.11,1,79.18,1,91.1,1,103c0,.33-.09.68.16,1,0,.26-.1.53.11.75,0,.65.1,1.24,1,1.18.25,0,.52.22.77.37a13.2,13.2,0,0,1,2.39,2c.24.24.72.38.57.89-.7,0-.89-.76-1.39-1.07,0-.2-.1-.29-.3-.28l-.27-.17a3.17,3.17,0,0,0-1.9-1.28c-.28-.07-.58,0-.3.42a19.47,19.47,0,0,0,.88,2.18Z"/><path class="cls-5" d="M6.42,4.68c-.15.19-.3.38-.44.58a3.13,3.13,0,0,0-.44.36c-.14.17-.51.33-.33.56s.53.13.79,0c.08,0,.14-.15.22-.18C7.05,5.6,7.63,4.77,8.6,4.68c0,.24-.21.29-.37.39-1.62,1-3,2.4-4.86,3h0c0-.66.52-1,.87-1.44C4.74,6,5.33,5.42,5.88,4.84A.6.6,0,0,1,6.42,4.68Z"/><path class="cls-5" d="M6.4,113a.5.5,0,0,1,0,.12c-.14,0-.33,0-.41-.07a13.87,13.87,0,0,1-2.92-3.42c0-.07,0-.18,0-.28h0c.57.43,1.31.26,1.91.57l.12,0c0,.2.13.29.32.26a1.1,1.1,0,0,1,.84.76c-.62,0-1-.53-1.57-.66-.23,0-.5-.2-.65,0s.17.31.25.47a1.75,1.75,0,0,0,.66.74Z"/><path class="cls-5" d="M239.83,3.36c.5,0,.9.19,1,.72h0c-.22,0-.42-.21-.67,0a2.13,2.13,0,0,1-2.52.12c.23-.21.48-.08.73-.06.64,0,1.24,0,1.44-.8Z"/><path class="cls-5" d="M241.57,113.15l2.77-2.91c.09.48-.34.66-.55,1a15.72,15.72,0,0,1-1.68,1.78A.6.6,0,0,1,241.57,113.15Z"/><path class="cls-5" d="M241.59,4.66c1,.29,1.47,1.17,2.11,1.84.27.29.69.55.67,1.06l0,0c-.55-.32-.75-1-1.29-1.34a3.74,3.74,0,0,0-.88-.85l-.61-.69Z"/><path class="cls-5" d="M235.17,116.35a27.2,27.2,0,0,0,3.93-1.45c-.17.51-.67.56-1.06.72-.75.3-1.52.55-2.29.82C235.55,116.51,235.34,116.57,235.17,116.35Z"/><path class="cls-5" d="M12.81,1.47A27.25,27.25,0,0,0,8.88,2.93c.19-.5.69-.56,1.1-.72.73-.29,1.49-.54,2.23-.8C12.42,1.33,12.63,1.26,12.81,1.47Z"/><path class="cls-5" d="M8.89,114.9a27.52,27.52,0,0,0,3.92,1.45c-.19.25-.41.13-.64.06a18.6,18.6,0,0,1-2.81-1C9.16,115.26,8.89,115.21,8.89,114.9Z"/><path class="cls-5" d="M245.21,108.94c.48-1.17,1-2.33,1.45-3.49.34.59-.15,1-.31,1.51A3.37,3.37,0,0,1,245.21,108.94Z"/><path class="cls-5" d="M239.82,114.46a2.52,2.52,0,0,1,1-.73C240.74,114.31,240.32,114.44,239.82,114.46Z"/><path class="cls-5" d="M8.15,3.36a2.48,2.48,0,0,1-1,.74C7.25,3.54,7.66,3.4,8.15,3.36Z"/><path class="cls-5" d="M7.14,113.73a2.43,2.43,0,0,1,1,.73C7.67,114.44,7.24,114.31,7.14,113.73Z"/><path class="cls-5" d="M240.86,4.08a.66.66,0,0,1,.73.58l0,0-.26,0c0-.31-.35-.39-.44-.65Z"/><path class="cls-5" d="M240.84,113.74c.2-.25.36-.56.73-.59C241.53,113.59,241.26,113.76,240.84,113.74Z"/><path class="cls-5" d="M6.42,113.15c.37,0,.53.34.73.59C6.73,113.76,6.46,113.59,6.42,113.15Z"/><path class="cls-5" d="M7.14,4.09c-.19.27-.35.56-.72.59C6.46,4.24,6.72,4.08,7.14,4.09Z"/><path class="cls-5" d="M239.1,2.93c.32,0,.65,0,.73.43h0l-.57-.14-.16-.28Z"/><path class="cls-5" d="M8.16,114.46a.91.91,0,0,1,.73.44C8.57,114.89,8.23,114.89,8.16,114.46Z"/><path class="cls-5" d="M8.88,2.93a.9.9,0,0,1-.73.43C8.23,3,8.56,3,8.88,2.93Z"/><path class="cls-5" d="M239.1,114.9a.91.91,0,0,1,.73-.44C239.76,114.89,239.42,114.89,239.1,114.9Z"/><path class="cls-5" d="M245,8.43c.26,0,.27.25.29.44l0,0-.13,0-.14-.13,0-.27Z"/><path class="cls-5" d="M2.77,8.89c0-.21,0-.42.29-.44h0a.45.45,0,0,1-.29.44Z"/><path class="cls-5" d="M244.66,8c.26,0,.27.24.29.43l0,0a.47.47,0,0,1-.29-.44Z"/><path class="cls-5" d="M3.06,8.45c0-.21,0-.42.3-.43h0a.44.44,0,0,1-.31.42Z"/><path class="cls-5" d="M244.37,7.56c.25,0,.27.24.29.44l0,0a.47.47,0,0,1-.29-.44Z"/><path class="cls-5" d="M244.34,110.25a.43.43,0,0,1,.29-.44C244.64,110,244.65,110.24,244.34,110.25Z"/><path class="cls-5" d="M244.92,109.37a.44.44,0,0,1,.29-.44C245.22,109.15,245.23,109.37,244.92,109.37Z"/><path class="cls-5" d="M3.06,109.38c-.29,0-.29-.22-.29-.43h0l.28.17v.27Z"/><path class="cls-5" d="M244.63,109.81a.43.43,0,0,1,.29-.44C244.93,109.59,244.94,109.81,244.63,109.81Z"/><path class="cls-7" d="M3.05,109.11l-.28-.17a19.47,19.47,0,0,1-.88-2.18,2.8,2.8,0,0,1,.76.12c.55.13.88.65,1.44.74l.27.17a.26.26,0,0,0,.3.28c.5.31.69,1,1.39,1.07A2.51,2.51,0,0,0,7,110c0,.08,0,.2.09.26a11.58,11.58,0,0,0,2.77,1.83,4.46,4.46,0,0,0,2.1.68l.25.06c.08.16.2.16.34.07L13,113c.13.21.3.18.48.08l.83.08a.65.65,0,0,0,.78.06c.58,0,1.16,0,1.74,0h213.9c.66,0,1.31,0,2-.06.18.11.34.15.49,0l1-.09a.21.21,0,0,0,.33-.07l1-.2a.74.74,0,0,0,.81-.29l.36-.12a2.44,2.44,0,0,0,1.66-.93l.1,0a1.34,1.34,0,0,0,1.06-.82l.1-.06c.2.06.32-.08.44-.19a12.86,12.86,0,0,0,2.94-3.66,5.82,5.82,0,0,0,1-3l.06-.26a3.26,3.26,0,0,0,.43-1.46c.17-.12.14-.29.09-.46,0-.63,0-1.26,0-1.89q0-39.64,0-79.28c0-1.28-.15-2.56-.07-3.84.37-.19.22-.51.19-.79l0-.7a15.07,15.07,0,0,1,.93-2.85c.17-.29.31-.61.7-.66A5.23,5.23,0,0,1,246.8,14c-.53.13-.58.61-.7,1a11.17,11.17,0,0,0-.31,3.16q0,40.53,0,81.07c0,.29,0,.58,0,.87s0,.39,0,.58c-.19.87-.37,1.75-.56,2.63l0,.57-.27.46c-.29.06-.33.23-.21.47l-.13.36a6.86,6.86,0,0,0-1.39,2.54.11.11,0,0,1,0,.09c-.29,0-.32.19-.3.42l-.12.17c-.24,0-.32.11-.26.33-.1.29-.52.4-.45.79-.61.27-.88.91-1.43,1.24-.24,0-.35,0-.32.29l-1,.87a3.36,3.36,0,0,0-1.65,1l-.24.18c-.18-.13-.28-.08-.31.13a.37.37,0,0,0-.42.17c-.15-.18-.29,0-.44,0a.69.69,0,0,0-.74.18l-.25,0a.22.22,0,0,0-.34.09l-.38.06c-.14-.08-.25-.08-.34.07l-.54.07c-.27-.09-.54-.16-.77.08q-9.67,0-19.35,0H32.16q-9,0-18,0a.9.9,0,0,0-.92-.09l-.39,0c-.13-.2-.3-.18-.48-.1l-.25,0c-.07-.16-.22-.16-.36-.19a14.86,14.86,0,0,1-4.5-2,1.91,1.91,0,0,0-1-.43h0a1.1,1.1,0,0,0-.84-.76.28.28,0,0,0-.32-.26L5,110A2.32,2.32,0,0,0,3.05,109.11Z"/><path class="cls-8" d="M236.21,113.32c.15,0,.29-.18.44,0s-.17.39-.42.48a11.9,11.9,0,0,1-4.24.8q-108.79,0-217.59,0a16.38,16.38,0,0,1-5.76-1.27c-.54-.21-1.11-.35-1.65-.54a.41.41,0,0,0-.59.24c-.49-.49-1-1-1.46-1.46.31-.31.62-.12.93,0,1.58.61,3,1.61,4.65,2a5.68,5.68,0,0,0,2.73.46l.41,0c.13.32.41.22.63.22.85,0,1.7,0,2.55,0H230c.8,0,1.6,0,2.4,0,.22,0,.5.1.63-.21l.57,0c.22.16.43.21.58-.1l.29,0c.19.15.34.14.44-.11l.29,0c.15.16.24.1.29-.08l.29-.1,0,0,0,0C235.89,113.48,236.14,113.54,236.21,113.32Z"/><path class="cls-8" d="M247,102.12a5.35,5.35,0,0,1-.15,2c-.47-.06-.59.37-.79.63-.63.83-1.21,1.68-1.79,2.53a.65.65,0,0,1-.44.34l0,0,0-.31a.54.54,0,0,1,0-.11c.31,0,.39-.27.5-.46a39.61,39.61,0,0,0,2.38-4.28C246.7,102.3,246.72,102.11,247,102.12Z"/><path class="cls-8" d="M243.18,107.78a.11.11,0,0,0,0-.09l.24-.06.27,0,0,0c.06.38-.31.51-.45.78s-.79.56-.88,1.12c0,.16-.29.11-.4-.06-.07-.39.35-.5.45-.79a.26.26,0,0,0,.26-.33l.12-.17C243.25,108.25,243.19,108,243.18,107.78Z"/><path class="cls-6" d="M237.62,112.84a3.36,3.36,0,0,1,1.65-1A1.85,1.85,0,0,1,237.62,112.84Z"/><path class="cls-8" d="M237.07,113.15c0-.21.13-.26.31-.13,0,.14,0,.31-.14.36S237.06,113.28,237.07,113.15Z"/><path class="cls-2" d="M240.3,111c0-.26.08-.34.32-.29C240.61,110.94,240.51,111,240.3,111Z"/><path class="cls-9" d="M245.08,8.87l.13,0c0,.14.08.27.13.41a5.52,5.52,0,0,0-1.85,4.6q0,43.68,0,87.35a9.12,9.12,0,0,1-.52,3.19,12.84,12.84,0,0,1-3.42,4.88,11.14,11.14,0,0,1-6.31,3.42.28.28,0,0,0-.25.23h-.28a6.63,6.63,0,0,0-2.22-.1q-107.4,0-214.79,0c-.23,0-.49-.09-.7.11h-.27c-.05-.21-.2-.23-.39-.25a8.47,8.47,0,0,1-2.94-.92,16,16,0,0,1-5-3.94,11.09,11.09,0,0,0-4-2.89,2.17,2.17,0,0,0-1.11-.24c-.21-.22-.12-.49-.11-.75.56.15,1.12.32,1.68.46,1.08.27,1.35.09,1.49-1,0-.22,0-.44,0-.66,0-4.82,0-9.64,0-14.47.09-24.25-.18-48.51.14-72.77a7.84,7.84,0,0,1,1.14-3.77A15.08,15.08,0,0,1,9,7.82a11,11,0,0,1,7.48-3H229.16a25.41,25.41,0,0,1,4.27.14c.09.15.19.16.29,0H234c.22.39.66.43,1,.57a17.5,17.5,0,0,1,5.39,3.72,25.42,25.42,0,0,1,1.8,2.07c.34.41.68.37.94,0A21.78,21.78,0,0,1,245.08,8.87ZM18.79,109.81h.28a.26.26,0,0,0,.3.14h.43c.09.15.19.15.29,0h.72c.12.38.34.32.58.14a23.83,23.83,0,0,0,3.48.13H222.25a37,37,0,0,0,4.34-.13.25.25,0,0,0,.44,0l2.18-.43c.23.22.26,0,.29-.14h.72a12.91,12.91,0,0,0,5.29-2.75A14.79,14.79,0,0,0,240,98.64a.27.27,0,0,0-.11-.31V98c.31-.06.38-.2.14-.44V97c.31-.06.36-.21.14-.44a2.85,2.85,0,0,1,.14-1.16.49.49,0,0,0,0-.73,12.13,12.13,0,0,1,.14-1.8V24.17a13.32,13.32,0,0,0-.51-3.92c-.09-.28-.16-.67-.54-.71s-.5.32-.7.55a3.55,3.55,0,0,1-1.9,1.46c-.28-.43-.11-.76.21-1.07a3.14,3.14,0,0,0,.9-2.72,10.4,10.4,0,0,0-2.87-6c-3-3-6.83-4.11-11-4.18-.15,0-.3,0-.36.18l-2.25,0H25.87l-2.11,0c-.14-.3-.42-.17-.64-.17a17.33,17.33,0,0,0-5,.76,13.6,13.6,0,0,0-7,4.52A17.16,17.16,0,0,0,7.5,23.78q0,34.46,0,68.9a12.11,12.11,0,0,0,.43,3.44,5.42,5.42,0,0,0,3.53,3.76c.57.2,1,.3,1.19.92a2.46,2.46,0,0,1-1.63,0c-1.46-.44-1.61.37-1.36,1.32a9,9,0,0,0,2.26,4.09A12.89,12.89,0,0,0,18.79,109.81Z"/><path class="cls-6" d="M233,113a.28.28,0,0,1,.25-.23,11.14,11.14,0,0,0,6.31-3.42,12.84,12.84,0,0,0,3.42-4.88,9.12,9.12,0,0,0,.52-3.19q0-43.68,0-87.35a5.52,5.52,0,0,1,1.85-4.6,1.2,1.2,0,0,1,0,1.7,6.46,6.46,0,0,0-1.11,3.4,30,30,0,0,0-.14,4.13q0,41.15,0,82.29c0,.24-.07.49.09.7a2.09,2.09,0,0,0,0,.25,1.9,1.9,0,0,0-.23,1.64l-.06.26a.29.29,0,0,0-.24.24,11.74,11.74,0,0,1-3.69,6c-.17.16-.4.29-.41.57l-.1.06a1.41,1.41,0,0,0-1.06.82l-.1,0a3.52,3.52,0,0,0-1.66.93l-.36.12a.79.79,0,0,0-.81.29l-1,.2c-.15-.16-.25-.07-.33.07l-1,.09Z"/><path class="cls-6" d="M247,102.12c-.23,0-.25.18-.31.33a39.61,39.61,0,0,1-2.38,4.28c-.11.19-.19.47-.5.46,0-.28.2-.46.31-.69.21-.44.6-.81.55-1.35l.13-.36c.21-.09.23-.27.21-.47l.27-.46c.76-.55.77-1.45,1-2.23a8.42,8.42,0,0,0,.17-2.3q0-40.68,0-81.36a7.58,7.58,0,0,1,.39-2.71c.29.07.17.28.18.42,0,.89,0,1.79,0,2.69v83.1C247,101.69,247,101.91,247,102.12Z"/><path class="cls-3" d="M245.83,100.08c0-.29,0-.58,0-.87q0-40.53,0-81.07A11.17,11.17,0,0,1,246.1,15c.12-.4.17-.88.7-1,.13.08.18.18.07.3a3.93,3.93,0,0,0-.78,2.79q0,41.07,0,82.14C246.08,99.49,246.29,99.9,245.83,100.08Z"/><path class="cls-10" d="M246.25,11.49c-.39,0-.53.37-.7.66a15.07,15.07,0,0,0-.93,2.85c-.32-.38,0-.75,0-1.1a4.65,4.65,0,0,1,1.09-2.55C246,11.09,246.23,10.92,246.25,11.49Z"/><path class="cls-3" d="M245.26,103.29c.19-.88.37-1.76.56-2.63A2.94,2.94,0,0,1,245.26,103.29Z"/><path class="cls-10" d="M244.59,15.7c0,.28.18.6-.19.79C244.37,16.2,244.2,15.89,244.59,15.7Z"/><path class="cls-10" d="M244.15,101.78a2.09,2.09,0,0,1,0-.25l.3,0c.05.17.08.34-.09.46Z"/><path class="cls-7" d="M3.06,8.45A.44.44,0,0,0,3.37,8c1.88-.56,3.24-2,4.86-3,.16-.1.37-.15.37-.39L9,4.3c.48.17.73-.32,1.13-.39a.14.14,0,0,0,.18-.12.15.15,0,0,1,.11,0c.17,0,.31,0,.33-.18l.48-.21A3.47,3.47,0,0,0,12,3.3a19,19,0,0,1,6-.82H232.17c.23,0,.5.09.68-.15h.28a6,6,0,0,0,1.2,0c.5-.11,1.11,0,1.43-.56a7.35,7.35,0,0,1,2.55.83l.79.34.16.28a2.31,2.31,0,0,1-2.25.49c-.23-.06-.47-.14-.67.08l-.41,0c-.44-.48-1-.19-1.51-.21h-.55a.48.48,0,0,0-.73,0c-2,0-4.06-.08-6.09-.08H19.93a31.1,31.1,0,0,0-3.48.08c-.14-.21-.24-.1-.33,0s-.26.06-.31.2c-.25,0-.5-.16-.73,0-.29-.29-.62-.13-.94-.09a.57.57,0,0,0-.6.1l-.27.05C13.14,3.81,13,3.82,13,4l-.28,0c-.18,0-.31,0-.33.2l0,0c-.13-.07-.23-.06-.29.09l-.27.08a.33.33,0,0,0-.46.11l-.69.23a1.57,1.57,0,0,0-1.23.62l-.38.22a.26.26,0,0,0-.34.23l-.1.05a.26.26,0,0,0-.33.25L8,6.29a.44.44,0,0,0-.48.38L7,7.15A5.9,5.9,0,0,0,5.26,8.72a15.65,15.65,0,0,1-2.4,2.48,3.14,3.14,0,0,1-.44.25.54.54,0,0,1-.55,0c-.21-.17,0-.36,0-.52.28-.68.58-1.36.87-2A.45.45,0,0,0,3.06,8.45Z"/><path class="cls-11" d="M231,1.87v.31H17.81a16.83,16.83,0,0,0-4.53.48l-1.94.52c.06-.3.32-.33.54-.41a17.47,17.47,0,0,1,5.82-1H230.11C230.39,1.76,230.69,1.66,231,1.87Z"/><path class="cls-10" d="M11.34,3.18l1.94-.52a16.83,16.83,0,0,1,4.53-.48H230.94c.63.12,1.29-.14,1.91.15-.18.24-.45.15-.68.15H18a19,19,0,0,0-6,.82,3.47,3.47,0,0,1-.79.08Z"/><path class="cls-11" d="M9,4.3l-.42.38c-1,.09-1.55.92-2.38,1.28-.08,0-.14.13-.22.18-.26.17-.62.25-.79,0s.19-.39.33-.56A3.13,3.13,0,0,1,6,5.26c.65.2,1.07-.33,1.6-.51S8.43,4.08,9,4.3Z"/><path class="cls-11" d="M233.26,1.35c.28,0,.56-.11.89.14a3.24,3.24,0,0,1-2.2.39c.11-.37.43-.22.67-.27S233.18,1.76,233.26,1.35Z"/><path class="cls-10" d="M10.77,3.59c0,.22-.16.23-.33.18,0-.13,0-.27.17-.32S10.76,3.49,10.77,3.59Z"/><path class="cls-10" d="M10.33,3.79a.14.14,0,0,1-.18.12A.16.16,0,0,1,10.33,3.79Z"/><path class="cls-10" d="M235.76,1.77c-.32.57-.93.45-1.43.56a6,6,0,0,1-1.2,0,.28.28,0,0,1,.29-.26,3.55,3.55,0,0,0,1.77-.41A.41.41,0,0,1,235.76,1.77Z"/><path class="cls-4" d="M15.08,3.81c.23-.2.48-.07.73,0,.52.46,1.15.19,1.71.19H231.31c.31,0,.62,0,.93.07,0,.33.24.35.5.35h1.13c.88-.06,1.72.29,2.6.31,0,.06,0,.18.09.19a37.53,37.53,0,0,1,4.75,2A1.36,1.36,0,0,0,243,6.25c.54.35.74,1,1.29,1.34a.47.47,0,0,0,.29.44.47.47,0,0,0,.29.44l0,.27c-.66.18-1,.78-1.41,1.2s-.92.6-1.45.11a22.24,22.24,0,0,0-6.28-4.59A5.18,5.18,0,0,0,234,5h-.29c-.09-.15-.19-.16-.29,0a25.41,25.41,0,0,0-4.27-.14H16.47A11,11,0,0,0,9,7.82a15.08,15.08,0,0,0-3.34,4,7.84,7.84,0,0,0-1.14,3.77c-.32,24.26,0,48.52-.14,72.77,0,4.83,0,9.65,0,14.47,0,.22,0,.44,0,.66-.14,1.09-.41,1.27-1.49,1-.56-.14-1.12-.31-1.68-.46-.25-.29-.16-.64-.16-1Q1,91.1,1,79.18,1,48.11,1,17c0-.63,0-1.26,0-1.89a1.62,1.62,0,0,0,1.16-.26,7.44,7.44,0,0,0,2.13-3.42A12.56,12.56,0,0,1,5.93,9.15c.26,0,.34-.2.3-.44A6,6,0,0,1,7.72,7.15c.25,0,.5,0,.55-.34a21.11,21.11,0,0,1,1.85-1.22c.4-.26,1-.23,1.24-.75l.41,0c.41.11.78-.19,1.19-.13.22,0,.44,0,.42-.32l.26,0c.41.25.83.51,1.08-.18C14.87,4.06,15.09,4.07,15.08,3.81Z"/><path class="cls-6" d="M1.3,104.74a2.17,2.17,0,0,1,1.11.24,11.09,11.09,0,0,1,4,2.89,16,16,0,0,0,5,3.94,8.47,8.47,0,0,0,2.94.92c.19,0,.34,0,.39.25-.14.07-.34,0-.45.15l-.83-.08c-.13-.18-.29-.25-.48-.08l-.39-.06c-.09-.14-.18-.25-.34-.08l-.25-.06s-.08-.13-.14-.15a12.89,12.89,0,0,1-4.37-2.54c-.13-.11-.28-.2-.45-.08a2.51,2.51,0,0,1-1-.86c.15-.51-.33-.65-.57-.89a13.2,13.2,0,0,0-2.39-2c-.25-.15-.52-.39-.77-.37C1.4,106,1.34,105.39,1.3,104.74Z"/><path class="cls-6" d="M7.72,7.15A6,6,0,0,0,6.23,8.71c-.25,0-.28.24-.3.44a12.56,12.56,0,0,0-1.59,2.32c-.45.25-.58.74-.82,1.14A2.71,2.71,0,0,1,1,14.28c.05-.33.08-.66.15-1s.19-.63.69-.65c.77,0,1.18-.72,1.61-1.24a44.84,44.84,0,0,1,3.42-4c.06,0,0-.17.08-.26l.55-.48c.3,0,.44-.11.48-.38l.26-.18a.26.26,0,0,0,.33-.25l.1-.05a.26.26,0,0,0,.34-.23l.38-.22a1.86,1.86,0,0,0,1.23-.62l.69-.23v.33c-.24.52-.84.49-1.24.75A21.11,21.11,0,0,0,8.27,6.81C8,6.84,7.81,6.88,7.72,7.15Z"/><path class="cls-8" d="M1,14.28a2.71,2.71,0,0,0,2.48-1.67c.24-.4.37-.89.82-1.14a7.44,7.44,0,0,1-2.13,3.42,1.62,1.62,0,0,1-1.16.26Z"/><path class="cls-3" d="M4.09,107.62c-.56-.09-.89-.61-1.44-.74a2.8,2.8,0,0,0-.76-.12c-.28-.41,0-.49.3-.42A3.17,3.17,0,0,1,4.09,107.62Z"/><path class="cls-3" d="M4.66,108.07a.26.26,0,0,1-.3-.28C4.56,107.78,4.66,107.87,4.66,108.07Z"/><path class="cls-6" d="M13.25,114.07a5.68,5.68,0,0,1-2.73-.46c-1.65-.42-3.07-1.42-4.65-2-.31-.13-.62-.32-.93,0a1.75,1.75,0,0,1-.66-.74c-.08-.16-.38-.28-.25-.47s.42-.08.65,0c.57.13,1,.68,1.57.66h0c0,.33.32.4.53.53A17.87,17.87,0,0,0,10,113.15a3.94,3.94,0,0,0,2.05.49l.25,0c.13.21.28.28.48.1l.39,0C13.22,113.91,13.23,114,13.25,114.07Z"/><path class="cls-3" d="M3.05,109.11A2.32,2.32,0,0,1,5,110c-.6-.31-1.34-.14-1.91-.57Z"/><path class="cls-3" d="M5.09,110a.28.28,0,0,1,.32.26C5.22,110.26,5.11,110.17,5.09,110Z"/><path class="cls-11" d="M232.24,4c-.31,0-.62-.07-.93-.07H17.52c-.56,0-1.19.27-1.71-.19,0-.14.18-.16.31-.2a.21.21,0,0,0,.33,0,31.1,31.1,0,0,1,3.48-.08H227.05c2,0,4.06.05,6.09.08a.55.55,0,0,0,.73,0h.55c.45.46,1,.19,1.51.21l.41,0a.69.69,0,0,0,.59.28c.06.14.17.16.31.12l.42,0a2.13,2.13,0,0,0,2.52-.12c.25-.22.45,0,.67,0,.09.26.43.34.44.65-.31.78-.94.74-1.57.58-.82-.22-1.61-.53-2.43-.74a11,11,0,0,0-3.42-.5C233.33,4.07,232.79,3.8,232.24,4Z"/><path class="cls-3" d="M236.93,4.07a.69.69,0,0,1-.59-.28c.2-.22.44-.14.67-.08a2.31,2.31,0,0,0,2.25-.49l.57.14c-.2.76-.8.84-1.44.8-.25,0-.5-.15-.73.06l-.42,0C237.18,4,237.12,3.88,236.93,4.07Z"/><path class="cls-8" d="M243,6.25a1.36,1.36,0,0,1-1.73.67,37.53,37.53,0,0,0-4.75-2c-.05,0-.06-.13-.09-.19a11.94,11.94,0,0,1,3.34,1.06,1.87,1.87,0,0,0,2.35-.35A3.74,3.74,0,0,1,243,6.25Z"/><path class="cls-9" d="M242.16,5.4a1.87,1.87,0,0,1-2.35.35,11.94,11.94,0,0,0-3.34-1.06c-.88,0-1.72-.37-2.6-.31v-.3a11,11,0,0,1,3.42.5c.82.21,1.61.52,2.43.74.63.16,1.26.2,1.57-.58l.26,0Z"/><path class="cls-8" d="M234,5a5.18,5.18,0,0,1,1.79.48,22.24,22.24,0,0,1,6.28,4.59c.53.49,1,.35,1.45-.11s.75-1,1.41-1.2l.14.13a21.78,21.78,0,0,0-1.93,2.44c-.26.4-.6.44-.94,0a25.42,25.42,0,0,0-1.8-2.07A17.5,17.5,0,0,0,235,5.55C234.67,5.41,234.23,5.37,234,5Z"/><path class="cls-6" d="M233,114.1c-.13.31-.41.21-.63.21-.8,0-1.6,0-2.4,0H16.84c-.85,0-1.7,0-2.55,0-.22,0-.5.1-.63-.22l.46-.17q9,0,18,0H213.5q9.67,0,19.35,0Z"/><path class="cls-6" d="M15,113c.21-.2.47-.11.7-.11q107.4,0,214.79,0a6.63,6.63,0,0,1,2.22.1l0,.19c-.65,0-1.3.06-2,.06H16.79c-.58,0-1.16,0-1.74,0Z"/><path class="cls-5" d="M239.52,110.51c0-.28.24-.41.41-.57a11.74,11.74,0,0,0,3.69-6,.29.29,0,0,1,.24-.24,5.82,5.82,0,0,1-1,3,12.86,12.86,0,0,1-2.94,3.66C239.84,110.43,239.72,110.57,239.52,110.51Z"/><path class="cls-5" d="M7,110c.17-.12.32,0,.45.08a12.89,12.89,0,0,0,4.37,2.54c.06,0,.1.1.14.15a4.46,4.46,0,0,1-2.1-.68,11.58,11.58,0,0,1-2.77-1.83C7.05,110.2,7.05,110.08,7,110Z"/><path class="cls-5" d="M12.08,113.64a3.94,3.94,0,0,1-2.05-.49,17.87,17.87,0,0,1-3.24-1.63c-.21-.13-.51-.2-.53-.53a1.91,1.91,0,0,1,1,.43,14.86,14.86,0,0,0,4.5,2C11.86,113.48,12,113.48,12.08,113.64Z"/><path class="cls-2" d="M244.62,105.15c0,.54-.34.91-.55,1.35-.11.23-.32.41-.31.69a.54.54,0,0,0,0,.11.28.28,0,0,0-.24.33l-.24.06A6.86,6.86,0,0,1,244.62,105.15Z"/><path class="cls-5" d="M244.15,101.78l.2.18a3.26,3.26,0,0,1-.43,1.46A1.9,1.9,0,0,1,244.15,101.78Z"/><path class="cls-5" d="M236.6,112.37a3.52,3.52,0,0,1,1.66-.93A2.44,2.44,0,0,1,236.6,112.37Z"/><path class="cls-5" d="M238.36,111.39a1.41,1.41,0,0,1,1.06-.82A1.34,1.34,0,0,1,238.36,111.39Z"/><path class="cls-5" d="M14.12,113.92l-.46.17-.41,0c0-.08,0-.16-.05-.24A.9.9,0,0,1,14.12,113.92Z"/><path class="cls-6" d="M234.16,114c-.15.31-.36.26-.58.1l0-.22.54-.07Z"/><path class="cls-5" d="M15,113l.06.2a.65.65,0,0,1-.78-.06c.11-.16.31-.08.45-.15Z"/><path class="cls-5" d="M233.62,113.84l0,.22-.57,0-.16-.18C233.08,113.68,233.35,113.75,233.62,113.84Z"/><path class="cls-5" d="M235.43,112.78a.79.79,0,0,1,.81-.29A.74.74,0,0,1,235.43,112.78Z"/><path class="cls-6" d="M234.89,113.82c-.1.25-.25.26-.44.11l.05-.23.38-.06Z"/><path class="cls-2" d="M243.18,107.78c0,.22.07.47-.3.42C242.86,108,242.89,107.79,243.18,107.78Z"/><path class="cls-5" d="M235.76,113.59l-.29.1v-.19a.69.69,0,0,1,.74-.18c-.07.22-.32.16-.46.28Z"/><path class="cls-5" d="M232.65,113.18l0-.19H233l.16.16C233,113.33,232.83,113.29,232.65,113.18Z"/><path class="cls-6" d="M235.47,113.5v.19c-.05.18-.14.24-.29.08l0-.22Z"/><path class="cls-5" d="M13,113c.19-.17.35-.1.48.08C13.26,113.15,13.09,113.18,13,113Z"/><path class="cls-5" d="M12.81,113.78c-.2.18-.35.11-.48-.1C12.51,113.6,12.68,113.58,12.81,113.78Z"/><path class="cls-2" d="M245,104.32c0,.2,0,.38-.21.47C244.63,104.55,244.67,104.38,245,104.32Z"/><path class="cls-5" d="M235.22,113.55l0,.22-.29,0v-.18A.22.22,0,0,1,235.22,113.55Z"/><path class="cls-5" d="M234.5,113.7l-.05.23-.29,0v-.19C234.25,113.62,234.36,113.62,234.5,113.7Z"/><path class="cls-5" d="M12.23,112.83c.16-.17.25-.06.34.08C12.43,113,12.31,113,12.23,112.83Z"/><path class="cls-2" d="M242.76,108.37a.26.26,0,0,1-.26.33C242.44,108.48,242.52,108.37,242.76,108.37Z"/><path class="cls-5" d="M234.12,113.05c.08-.14.18-.23.33-.07A.21.21,0,0,1,234.12,113.05Z"/><polygon class="cls-5" points="235.75 113.6 235.79 113.62 235.76 113.59 235.75 113.6"/><path class="cls-6" d="M243.47,107.63a.28.28,0,0,1,.24-.33l0,.31Z"/><path class="cls-5" d="M223.64,7.79c.06-.18.21-.18.36-.18,4.17.07,8,1.13,11,4.18a10.4,10.4,0,0,1,2.87,6,3.14,3.14,0,0,1-.9,2.72c-.32.31-.49.64-.21,1.07l0,.43a8.69,8.69,0,0,0,.13,1.13q0,33.8,0,67.58c0,.9,0,1.79,0,2.69V95l-.15.86a.92.92,0,0,0,.38,1.28,1.2,1.2,0,0,1,.45,1,6.32,6.32,0,0,1-.35,2.06c-.12.32-.05.75-.48.91,0-.23.11-.46.17-.69a3.83,3.83,0,0,0,.1-2.32c-.09-.24-.21-.45-.48-.48s-.24.31-.34.47a1,1,0,0,0-.06.35,38.09,38.09,0,0,1-2,3.8c-.51.6-.5,1.43-.89,2.08a4.17,4.17,0,0,1-2.59,1.88c-.06-.4.34-.41.53-.59a4.53,4.53,0,0,0,1.68-2.11,15.4,15.4,0,0,1-10.12,3.27q-73.23,0-146.47,0H23.45a1.64,1.64,0,0,0-.85.1,3.74,3.74,0,0,0,1.86.33H25c.31.28.69.14,1,.14H226.45l.14.15-.14.25-.87,0a3.82,3.82,0,0,0-2.34,0h-197l-1.09,0c-.13-.47-.51-.26-.79-.27a5.52,5.52,0,0,1-2.83-.68,1.49,1.49,0,0,0-1-.34,18.21,18.21,0,0,1-3.75-1.59c-.22-.11-.45-.29-.66-.06a.66.66,0,0,0,0,.69c.1.21.28.4.23.66-.31-.17-.74-.22-.74-.71s.27-.92-.12-1.33a1.81,1.81,0,0,0-.84-.73l-.61-.74-1.16-1.59-.18-.28c-.17-.62-.62-.72-1.19-.92a5.42,5.42,0,0,1-3.53-3.76,12.11,12.11,0,0,1-.43-3.44q0-34.44,0-68.9A17.16,17.16,0,0,1,11.09,12.9a13.6,13.6,0,0,1,7-4.52,17.33,17.33,0,0,1,5-.76c.22,0,.5-.13.64.17-1.37.29-2.78.29-4.14.65a14.41,14.41,0,0,0-10,8.3,17.49,17.49,0,0,0-1.33,7.4c.06,17.16,0,34.31,0,51.47,0,5.57,0,11.14,0,16.72a8.34,8.34,0,0,0,.9,3.91,8,8,0,0,0,1.64,1.93.41.41,0,0,0,.52.11c.21-.13,0-.32,0-.46a10.49,10.49,0,0,0-1.07-3.07,6.39,6.39,0,0,1-.65-3.52q0-32.31,0-64.62a20.73,20.73,0,0,0-.23-3.25,10.7,10.7,0,0,1,.41-5.21c.07-.2,0-.53.39-.53l.11.1a1.17,1.17,0,0,0-.23.79l-.08.23c-.15.15-.27.31-.13.53l0,.2a1.88,1.88,0,0,0-.24,1,21.74,21.74,0,0,0,.31,3.42.27.27,0,0,0,.11.31l0,.86c0,.19,0,.38,0,.58q0,32.51,0,65v.58a.3.3,0,0,0,.25.31l-.09,1c0,.21,0,.41.23.47l0,.56c-.2.34.06.54.21.84a1.64,1.64,0,0,0,.1-.85q0-33.55,0-67.12c0-.85,0-1.69,0-2.54s.2-1.44.14-2.18a1.43,1.43,0,0,0,.18-.46,12.35,12.35,0,0,1,4.08-7.16,12.9,12.9,0,0,1,8.38-3H224.37a13,13,0,0,1,2.83.39A13.72,13.72,0,0,1,232.55,14l.88.74c.13.18.17.55.44.48s.16-.45.15-.69c0-.54-.43-.94-.55-1.44h.26c.23.44.73.72.76,1.27A7.41,7.41,0,0,1,234.6,16a.56.56,0,0,0,.27.6,16.54,16.54,0,0,0,1.18,2.34c0,.16,0,.37.21.4a.33.33,0,0,0,.34-.23,2.67,2.67,0,0,0,.33-1.17,7.22,7.22,0,0,0-.9-3.4c-.13-.26-.16-.63-.54-.71l-.32-.56c0-.19-.07-.3-.27-.31l-.31-.42a.26.26,0,0,0-.28-.31,14.74,14.74,0,0,0-6.42-3.71C226.49,8.14,225,8.12,223.64,7.79Zm12.85,16.57c-.19-1.16-.28-2-.45-2.77a11.77,11.77,0,0,0-6.27-8.49A16.53,16.53,0,0,0,222,11.52l-196.3,0c-.72,0-1.44.09-2.15.12a14.34,14.34,0,0,0-4.64,1,11.52,11.52,0,0,0-6.37,6.12,16.33,16.33,0,0,0-1.31,6.89q0,34.08.08,68.16a12.33,12.33,0,0,0,2.74,7.72,11.65,11.65,0,0,0,5.46,3.88,19.15,19.15,0,0,0,6.25.89q94.77,0,189.53,0c2.9,0,5.81.1,8.7-.08a13.22,13.22,0,0,0,7.3-2.4,12,12,0,0,0,3.57-4.12,16.71,16.71,0,0,0,1.62-7.62C236.49,69.4,236.49,46.7,236.49,24.36Z"/><path class="cls-4" d="M12.83,101.08,14,102.67c-1.19,1.24-1.19,1.28-.16,2.78a5.07,5.07,0,0,0,.37.44,12.73,12.73,0,0,0,6.7,3.47c.29.07.63.38.94,0l.28,0c.24.46.55.36.88.12l.87,0c.21.54.67.27,1,.27H223.76c.2,0,.33-.07.36-.28l1,0c.28.22.55.32.74-.11l.43,0a.32.32,0,0,0,.47.1c.1,0,.08-.15,0-.22a.41.41,0,0,0,0-.11,5.65,5.65,0,0,0,2-.39c.57,0,1.19,0,1.37-.74-.07-.15.11-.16.14-.26l.23.05.07,0h.06c.34-.35.94-.33,1.16-.84,0,0,.08,0,.09,0,.15.11.28,0,.42,0,.35,0,.74,0,.77-.54l.32-.27a.5.5,0,0,0,.46-.18c.09.14.18.42.35.06a3.05,3.05,0,0,0,.17-.61c0-.37.39-.41.54-.65l.33-.07a1,1,0,0,0,.83-.93c.07-.3.11-.61.47-.72,0,.09.14.14.21.06s0-.17,0-.26l.06-.37c.3,0,.42-.16.54-.39a12.6,12.6,0,0,0,1.14-2.74,7.5,7.5,0,0,0,.21-4.47c-.37-1-.77-1.39-1.74-1.43,0-.9,0-1.79,0-2.69q0-33.79,0-67.58A8.69,8.69,0,0,1,236.8,22a13.8,13.8,0,0,0,1.8-.91.71.71,0,0,1,1,.31,4.68,4.68,0,0,1,.5,2.07c0,.26-.15.61.28.72V92.89a12.13,12.13,0,0,0-.14,1.8.49.49,0,0,0,0,.73,2.85,2.85,0,0,0-.14,1.16c-.18.11-.15.28-.14.44v.58c-.17.11-.14.28-.14.44v.29c-.34,1-.64,2-1,3a12.72,12.72,0,0,1-7.64,7.64c-.33.12-.78.12-.94.56h-.72a.28.28,0,0,0-.29.14l-2.18.43c-.15-.18-.3-.18-.44,0a37,37,0,0,1-4.34.13H24.87a23.83,23.83,0,0,1-3.48-.13c-.15-.23-.37-.14-.58-.14h-.72c-.1-.16-.19-.16-.29,0h-.43c0-.17-.08-.36-.3-.14h-.28c0-.3-.29-.31-.48-.36a14,14,0,0,1-4-1.94,8.69,8.69,0,0,1-3.55-4.58c-.4-1.12-.09-1.54,1.08-1.54A1.48,1.48,0,0,0,12.83,101.08Z"/><path class="cls-7" d="M236.05,18.94a16.54,16.54,0,0,1-1.18-2.34,2.23,2.23,0,0,0-.38-2.23c0-.55-.53-.83-.76-1.27-.37-.6-.73-1.22-1.51-1.39a12.23,12.23,0,0,0-4.61-2.45,10.24,10.24,0,0,0-3.68-.54,5.83,5.83,0,0,0-2.08-.12H25a14.37,14.37,0,0,0-2.54.13.7.7,0,0,0-.91.1l-.25,0c-.2-.19-.36-.12-.49.09L20.38,9c-.14-.18-.23-.11-.29.06l-.24.06a2.35,2.35,0,0,0-1.69.55l-.33.13c-.2-.09-.34,0-.4.18l-1.08.53c-.21-.06-.34,0-.35.23v.05l0,0a.48.48,0,0,0-.6.37l-.24,0a.39.39,0,0,0-.52.37l-.11.2a.89.89,0,0,0-.82.69,1.06,1.06,0,0,0-.8.8,6.88,6.88,0,0,0-2.18,3.13c-.22,0-.3.12-.15.33l-.13.11c-.25,0-.29.13-.22.33s-.13.28,0,.42a.07.07,0,0,0-.07,0c-.36,0-.32.33-.39.53a10.7,10.7,0,0,0-.41,5.21,20.73,20.73,0,0,1,.23,3.25q0,32.31,0,64.62a6.39,6.39,0,0,0,.65,3.52,10.49,10.49,0,0,1,1.07,3.07c0,.14.23.33,0,.46a.41.41,0,0,1-.52-.11A8,8,0,0,1,9.2,96.24a8.34,8.34,0,0,1-.9-3.91c0-5.58,0-11.15,0-16.72,0-17.16,0-34.31,0-51.47a17.49,17.49,0,0,1,1.33-7.4,14.41,14.41,0,0,1,10-8.3c1.36-.36,2.77-.36,4.14-.65l2.11,0H221.39l2.25,0c1.4.33,2.85.35,4.25.73a14.74,14.74,0,0,1,6.42,3.71.29.29,0,0,0,.28.31l.31.42a.28.28,0,0,0,.27.31c.1.19.21.37.32.56a2.36,2.36,0,0,0,.16.47,7.91,7.91,0,0,1,.93,2.8A1.91,1.91,0,0,1,236.05,18.94Z"/><path class="cls-8" d="M12.83,101.08a1.48,1.48,0,0,1-1,.31c-1.17,0-1.48.42-1.08,1.54a8.69,8.69,0,0,0,3.55,4.58,14,14,0,0,0,4,1.94c.19,0,.46.06.48.36a12.89,12.89,0,0,1-6.87-3.6,9,9,0,0,1-2.26-4.09c-.25-1-.1-1.76,1.36-1.32a2.46,2.46,0,0,0,1.63,0Z"/><path class="cls-8" d="M230.22,109.52c.16-.44.61-.44.94-.56a12.72,12.72,0,0,0,7.64-7.64c.4-1,.7-2,1-3a.27.27,0,0,1,.11.31,14.79,14.79,0,0,1-4.44,8.13A12.91,12.91,0,0,1,230.22,109.52Z"/><path class="cls-8" d="M240.41,24.17c-.43-.11-.26-.46-.28-.72a4.68,4.68,0,0,0-.5-2.07.71.71,0,0,0-1-.31,13.8,13.8,0,0,1-1.8.91l0-.43a3.55,3.55,0,0,0,1.9-1.46c.2-.23.34-.59.7-.55s.45.43.54.71A13.32,13.32,0,0,1,240.41,24.17Z"/><path class="cls-8" d="M240.27,95.42a.49.49,0,0,1,0-.73A.49.49,0,0,1,240.27,95.42Z"/><path class="cls-8" d="M20.81,110c.21,0,.43-.09.58.14C21.15,110.3,20.93,110.36,20.81,110Z"/><path class="cls-8" d="M226.59,110.12c.14-.2.29-.2.44,0A.25.25,0,0,1,226.59,110.12Z"/><path class="cls-8" d="M240,97c0-.16,0-.33.14-.44C240.35,96.81,240.3,97,240,97Z"/><path class="cls-8" d="M239.84,98c0-.16,0-.33.14-.44C240.22,97.84,240.15,98,239.84,98Z"/><path class="cls-8" d="M233.43,5c.1-.15.2-.14.29,0C233.62,5.12,233.52,5.11,233.43,5Z"/><path class="cls-8" d="M19.8,110c.1-.15.19-.15.29,0C20,110.11,19.89,110.11,19.8,110Z"/><path class="cls-8" d="M19.07,109.81c.22-.22.26,0,.3.14A.26.26,0,0,1,19.07,109.81Z"/><path class="cls-8" d="M229.21,109.67a.28.28,0,0,1,.29-.14C229.47,109.71,229.44,109.89,229.21,109.67Z"/><path class="cls-9" d="M13,4.67c-.41-.06-.78.24-1.19.13l0-.4.27-.08c0,.12.08.17.19.14a.17.17,0,0,0,.1-.23l0,0,.31.06c.13.12.23.08.33,0a.12.12,0,0,1,0,.13Z"/><path class="cls-3" d="M235.93,3.76c-.51,0-1.06.25-1.51-.21C234.93,3.57,235.49,3.28,235.93,3.76Z"/><path class="cls-11" d="M15.08,3.81c0,.26-.21.25-.36.33-.19-.12-.43,0-.6-.15l0-.27C14.46,3.68,14.79,3.52,15.08,3.81Z"/><path class="cls-5" d="M10.66,4.74a1.86,1.86,0,0,1-1.23.62A1.57,1.57,0,0,1,10.66,4.74Z"/><path class="cls-3" d="M233.87,3.54a.55.55,0,0,1-.73,0A.48.48,0,0,1,233.87,3.54Z"/><path class="cls-11" d="M13.64,4.32l-.26,0-.14,0,0-.44.27-.05.21.2C13.67,4.1,13.52,4.17,13.64,4.32Z"/><path class="cls-11" d="M11.81,4.4l0,.4-.41,0V4.51A.33.33,0,0,1,11.81,4.4Z"/><path class="cls-5" d="M13.27,3.87l0,.44-.27,0a.12.12,0,0,0,0-.13L13,4C13,3.82,13.14,3.81,13.27,3.87Z"/><path class="cls-5" d="M8,6.29c0,.27-.18.43-.48.38A.44.44,0,0,1,8,6.29Z"/><path class="cls-5" d="M13.75,4l-.21-.2a.57.57,0,0,1,.6-.1c0,.09,0,.18,0,.27Z"/><path class="cls-11" d="M13,4l0,.27c-.1.12-.2.16-.33,0l0-.26Z"/><path class="cls-5" d="M9.05,5.58a.26.26,0,0,1-.34.23A.26.26,0,0,1,9.05,5.58Z"/><path class="cls-5" d="M8.61,5.86a.26.26,0,0,1-.33.25A.26.26,0,0,1,8.61,5.86Z"/><path class="cls-11" d="M12.37,4.23a.17.17,0,0,1-.1.23c-.11,0-.18,0-.19-.14S12.24,4.16,12.37,4.23Z"/><path class="cls-3" d="M16.45,3.52a.21.21,0,0,1-.33,0C16.21,3.42,16.31,3.31,16.45,3.52Z"/><path class="cls-5" d="M12.68,4l0,.26-.31-.06C12.37,4,12.5,4,12.68,4Z"/><path class="cls-8" d="M233.87,4.08v.3h-1.13c-.26,0-.48,0-.5-.35C232.79,3.8,233.33,4.07,233.87,4.08Z"/><path class="cls-8" d="M13.75,4l.37,0c.17.18.41,0,.6.15-.25.69-.67.43-1.08.18C13.52,4.17,13.67,4.1,13.75,4Z"/><path class="cls-8" d="M13,4.35l.27,0,.14,0c0,.33-.2.33-.42.32Z"/><path class="cls-8" d="M7.72,7.15c.09-.27.32-.31.55-.34C8.22,7.14,8,7.15,7.72,7.15Z"/><path class="cls-8" d="M5.93,9.15c0-.2.05-.4.3-.44C6.27,9,6.19,9.11,5.93,9.15Z"/><path class="cls-5" d="M236.93,4.07c.19-.19.25,0,.31.12C237.1,4.23,237,4.21,236.93,4.07Z"/><path class="cls-4" d="M13,13.32a1.06,1.06,0,0,1,.8-.8c.37-.11.9,0,.82-.69l.11-.2.32,0c.08.12.18.11.28,0s.19-.2.05-.33l-.13-.11.24,0a.57.57,0,0,0,.6-.37l0,0v-.05c.15.1.3,0,.45,0a1,1,0,0,0,1.17-.64L18,10c.12.23.29.1.44.05A18.31,18.31,0,0,1,25,9.17H220.48a34.48,34.48,0,0,1,4.06.12,12.43,12.43,0,0,1,6.26,2.23c.8.61,1.86,1.17,1.75,2.48a13.72,13.72,0,0,0-5.35-2.55,13,13,0,0,0-2.83-.39H23.54a12.9,12.9,0,0,0-8.38,3,12.35,12.35,0,0,0-4.08,7.16,1.43,1.43,0,0,1-.18.46c-.43-.16-.39-.55-.42-.89a9.64,9.64,0,0,1,1.79-6C12.55,14.31,13.11,14,13,13.32Z"/><path class="cls-2" d="M236.49,24.36c0,22.34,0,45,0,67.74a16.71,16.71,0,0,1-1.62,7.62,12,12,0,0,1-3.57,4.12,13.22,13.22,0,0,1-7.3,2.4c-2.89.18-5.8.08-8.7.08q-94.75,0-189.53,0a19.15,19.15,0,0,1-6.25-.89,11.65,11.65,0,0,1-5.46-3.88,12.33,12.33,0,0,1-2.74-7.72q-.15-34.08-.08-68.16a16.33,16.33,0,0,1,1.31-6.89,11.52,11.52,0,0,1,6.37-6.12,14.34,14.34,0,0,1,4.64-1c.71,0,1.43-.12,2.15-.12l196.3,0a16.53,16.53,0,0,1,7.77,1.58A11.77,11.77,0,0,1,236,21.59C236.21,22.38,236.3,23.2,236.49,24.36ZM17.18,103.56c0,.3.22.3.43.29h0c0,.35.34.38.57.5a15.88,15.88,0,0,0,7.51,1.52q95.69,0,191.36,0c2.18,0,4.36,0,6.54-.1a13.21,13.21,0,0,0,7.72-2.65A12.6,12.6,0,0,0,234.65,99a15.26,15.26,0,0,0,1.39-7c0-7.59,0-15.18,0-22.76s.07-15.18,0-22.76.37-15.13-.25-22.68a17.26,17.26,0,0,0-.91-4.44c-1.34-3.65-4.17-5.74-7.78-6.87a16.2,16.2,0,0,0-4.83-.55q-96.54-.08-193.1,0a42.64,42.64,0,0,0-6.08.24,13.55,13.55,0,0,0-7,2.73,11.68,11.68,0,0,0-4,6.94,26.54,26.54,0,0,0-.34,5.5q.06,31.56,0,63.11c0,.52-.18,1-.14,1.51.11,1.38.28,2.76.45,4.14,0,.22,0,.56.41.61V97c-.22.23,0,.26.14.29l.88,2.47c.05.27.09.54.43.58h0a1.27,1.27,0,0,0,.88,1.17L16,102.69a1.14,1.14,0,0,0,1.17.87Z"/><path class="cls-7" d="M231.83,106.91s0,.06-.09,0a1.23,1.23,0,0,0-1.21.54l-.18.13c-.08,0-.13,0-.13.11s-.21.11-.14.26c-.22-.15-.43,0-.65,0a1.85,1.85,0,0,0-1.38.38l-.25,0c-.14-.06-.26,0-.33.1l-.25,0c-.47.07-1-.08-1.38.31l-.4.09-.3-.08a6,6,0,0,0-1.94-.08l-199.15,0c-.22,0-.43,0-.65,0l-.4,0c-.11-.18-.21-.2-.3,0l-.59-.08c-.06-.35-.27-.26-.48-.16L20,108.33h0l-.38-.26c0-.38-.38-.4-.61-.51a6.35,6.35,0,0,1-2-1.45,1,1,0,0,1-.26-1.22,18.21,18.21,0,0,0,3.75,1.59c0,.33.27.43.52.53a8.7,8.7,0,0,0,4.15.76l1.09,0h197a4.23,4.23,0,0,0,2.34,0l.87,0a.37.37,0,0,0,.49-.19h.23c.26.15.48.14.63-.15l.25,0a3.55,3.55,0,0,0,2.21-.86.08.08,0,0,0,0-.11l.46-.2a4.17,4.17,0,0,0,2.59-1.88,2,2,0,0,0,.89-2.08,38.09,38.09,0,0,0,2-3.8c.74.4.6,1.06.54,1.72s-.51,1.09-.42,1.72c-.13.27-.13.6-.4.81a2.86,2.86,0,0,0-1,1.46h0a33.89,33.89,0,0,1-3.06,2.55S231.84,106.84,231.83,106.91Z"/><path class="cls-8" d="M232.55,14c.11-1.31-1-1.87-1.75-2.48a12.43,12.43,0,0,0-6.26-2.23,34.48,34.48,0,0,0-4.06-.12H25a18.31,18.31,0,0,0-6.49.9c-.15,0-.32.18-.44-.05l-.21-.19.33-.13a2.78,2.78,0,0,0,1.69-.55l.24-.06c.14.18.26.25.29-.06L20.76,9c.19.1.39.29.49-.09l.25,0c.31.08.65.27.91-.1A14.37,14.37,0,0,1,25,8.59h196.9a5.83,5.83,0,0,1,2.08.12c0,.31.26.31.49.3a6.27,6.27,0,0,1,1.43.16,12.24,12.24,0,0,1,6.65,3.38c.57.59,1.21,1.21.93,2.19Z"/><path class="cls-6" d="M22.11,108.77l.59.07.3.17c.09.29.29.22.49.14a25.9,25.9,0,0,1,3.05,0h195.9l2.7,0v.42l-1,0-.65,0H26.34l-2.47,0-.87,0c-.27-.22-.58-.11-.88-.12l-.28,0a18.92,18.92,0,0,1-4.27-1.47,7.82,7.82,0,0,1-3.25-2.75,1.31,1.31,0,0,1,.28-1.73,1.81,1.81,0,0,1,.84.73c-.47.68-.44,1,.12,1.33,0,.49.43.54.74.71a.81.81,0,0,0,.56.46.27.27,0,0,0,.31.27c.84.37,1.43,1.25,2.48,1.16l.38.26h0l1.61.28.19.2c.09.25.2.29.33,0v0Z"/><path class="cls-6" d="M230.72,106.21l-.46.2c-.17-.3-.26-.21-.32.06l-.29.12a14.62,14.62,0,0,0-3.2.76h-2.76c-.22-.54-.68-.27-1-.27q-98.44,0-196.89,0c-.26,0-.55-.11-.75.14h-.58c-.16-.59-.77-.07-1-.43H76.34q73.25,0,146.47,0a15.4,15.4,0,0,0,10.12-3.27,4.53,4.53,0,0,1-1.68,2.11C231.06,105.8,230.66,105.81,230.72,106.21Z"/><path class="cls-11" d="M25,107.2c.2-.25.49-.14.75-.14q98.45,0,196.89,0c.33,0,.79-.27,1,.27H26.08C25.73,107.34,25.35,107.48,25,107.2Z"/><path class="cls-6" d="M9.92,23.85a21.74,21.74,0,0,1-.31-3.42,1.88,1.88,0,0,1,.24-1c.25.13.2.36.19.57a10.5,10.5,0,0,0,.44,3.48c0,.18.06.33.28.34,0,.85,0,1.69,0,2.54q0,33.56,0,67.12h-.31c0-.19,0-.37,0-.56s.06-.42-.23-.47l.09-1c0-.29,0-.58,0-.87V26.55c0-.36,0-.73,0-1.09s0-.39-.27-.44c0-.29,0-.58,0-.86C10.27,24,10.1,23.9,9.92,23.85Z"/><path class="cls-11" d="M10.06,25c.25.05.28.23.27.44s0,.73,0,1.09V90.64c0,.29,0,.58,0,.87a.3.3,0,0,1-.25-.31v-.58q0-32.51,0-65C10,25.4,10.06,25.21,10.06,25Z"/><path class="cls-8" d="M236.94,93.38c1,0,1.37.38,1.74,1.43a7.5,7.5,0,0,1-.21,4.47,12.6,12.6,0,0,1-1.14,2.74c-.12.23-.24.43-.54.39.05-.67.7-1.08.73-1.75a.44.44,0,0,0,.38-.39,9.91,9.91,0,0,0,.5-3.68A1.66,1.66,0,0,0,237,95Z"/><path class="cls-8" d="M10.76,23.86c-.22,0-.24-.16-.28-.34A10.5,10.5,0,0,1,10,20c0-.21.06-.44-.19-.57,0-.07,0-.13,0-.2.32-.1.45-.26.13-.53a1.55,1.55,0,0,0,.08-.23c.29-.2.46-.44.23-.79l-.11-.1a.07.07,0,0,1,.07,0,.4.4,0,0,0,.23-.41v-.34l.13-.11c.17-.05.21-.17.15-.33A6.88,6.88,0,0,1,13,13.32c.16.66-.4,1-.68,1.42a9.64,9.64,0,0,0-1.79,6c0,.34,0,.73.42.89C11,22.42,10.67,23.12,10.76,23.86Z"/><path class="cls-8" d="M14.6,103.41a1.31,1.31,0,0,0-.28,1.73,7.82,7.82,0,0,0,3.25,2.75,18.92,18.92,0,0,0,4.27,1.47c-.31.38-.65.07-.94,0a12.73,12.73,0,0,1-6.7-3.47,5.07,5.07,0,0,1-.37-.44c-1-1.5-1-1.54.16-2.78Z"/><path class="cls-6" d="M237.52,100.66c0,.67-.68,1.08-.73,1.75l-.06.37c-.11,0-.21.07-.24.2-.36.11-.4.42-.47.72-.46.15-.54.63-.83.93l-.33.07c0-.18,0-.36,0-.54h0a1.75,1.75,0,0,0,1-1.46c.27-.21.27-.54.39-.81.4-.11.45-.44.5-.77.43-.16.36-.59.48-.91a6.32,6.32,0,0,0,.35-2.06,1.2,1.2,0,0,0-.45-1,.92.92,0,0,1-.38-1.28c.87.19,1.22.66,1.3,1.64A10.39,10.39,0,0,1,237.52,100.66Z"/><path class="cls-6" d="M233.43,14.75c.28-1-.36-1.6-.93-2.19a12.24,12.24,0,0,0-6.65-3.38A6.27,6.27,0,0,0,224.42,9c-.23,0-.45,0-.49-.3a10.24,10.24,0,0,1,3.68.54,12.23,12.23,0,0,1,4.61,2.45,9.76,9.76,0,0,0,1.25,1.39c.12.5.54.9.55,1.44,0,.24.17.6-.15.69S233.56,14.93,233.43,14.75Z"/><path class="cls-9" d="M237.52,100.66a10.39,10.39,0,0,0,.58-3.18c-.08-1-.43-1.45-1.3-1.64L237,95a1.66,1.66,0,0,1,1.45,1.61,9.91,9.91,0,0,1-.5,3.68A.44.44,0,0,1,237.52,100.66Z"/><path class="cls-3" d="M19.65,108.07c-1,.09-1.64-.79-2.48-1.16,0-.21-.1-.3-.31-.27a.81.81,0,0,1-.56-.46c.05-.26-.13-.45-.23-.66a.66.66,0,0,1,0-.69c.21-.23.44,0,.66.06a1,1,0,0,0,.26,1.22,6.35,6.35,0,0,0,2,1.45C19.27,107.67,19.63,107.69,19.65,108.07Z"/><path class="cls-2" d="M236.8,101.12c-.05.33-.1.66-.5.77-.08-.63.36-1.12.43-1.72s.2-1.32-.54-1.72a1,1,0,0,1,.06-.35c.1-.16,0-.49.34-.47s.39.24.48.48a3.83,3.83,0,0,1-.1,2.32C236.91,100.66,236.85,100.89,236.8,101.12Z"/><path class="cls-2" d="M236.05,18.94a1.91,1.91,0,0,0,.53-1.84,7.91,7.91,0,0,0-.93-2.8,2.36,2.36,0,0,1-.16-.47c.38.08.41.45.54.71a7.22,7.22,0,0,1,.9,3.4,2.67,2.67,0,0,1-.33,1.17.33.33,0,0,1-.34.23C236,19.31,236.06,19.1,236.05,18.94Z"/><path class="cls-2" d="M25.18,107.77A8.7,8.7,0,0,1,21,107c-.25-.1-.51-.2-.52-.53a1.49,1.49,0,0,1,1,.34,5.52,5.52,0,0,0,2.83.68C24.67,107.51,25.05,107.3,25.18,107.77Z"/><path class="cls-11" d="M226.45,107.35a14.62,14.62,0,0,1,3.2-.76c-.44.45-1.2.27-1.6.79l-.25,0c-.23,0-.48-.16-.63.15h-.24l-.34-.06Z"/><path class="cls-2" d="M234.2,102.25a2,2,0,0,1-.89,2.08C233.7,103.68,233.69,102.85,234.2,102.25Z"/><path class="cls-3" d="M234.49,14.37a2.23,2.23,0,0,1,.38,2.23.56.56,0,0,1-.27-.6A7.41,7.41,0,0,0,234.49,14.37Z"/><path class="cls-2" d="M225.58,107.79a4.23,4.23,0,0,1-2.34,0A3.82,3.82,0,0,1,225.58,107.79Z"/><path class="cls-2" d="M233.47,13.1a9.76,9.76,0,0,1-1.25-1.39c.78.17,1.14.79,1.51,1.39Z"/><path class="cls-11" d="M15.56,105.47c-.56-.35-.59-.65-.12-1.33C15.83,104.55,15.46,105,15.56,105.47Z"/><path class="cls-11" d="M23.45,106.77c.24.36.85-.16,1,.43a3.74,3.74,0,0,1-1.86-.33A1.64,1.64,0,0,1,23.45,106.77Z"/><path class="cls-11" d="M10.46,93.53h.31a1.64,1.64,0,0,1-.1.85C10.52,94.07,10.26,93.87,10.46,93.53Z"/><path class="cls-6" d="M10.31,17.72c.23.35.06.59-.23.79A1.17,1.17,0,0,1,10.31,17.72Z"/><path class="cls-6" d="M10,18.74c.32.27.19.43-.13.53C9.73,19.05,9.85,18.89,10,18.74Z"/><path class="cls-11" d="M10.21,92.5c.29,0,.28.25.23.47C10.17,92.91,10.18,92.71,10.21,92.5Z"/><path class="cls-2" d="M226.59,107.5l.34.06c-.1.23-.28.24-.48.19Z"/><path class="cls-11" d="M9.92,23.85c.18,0,.35.11.12.31A.26.26,0,0,1,9.92,23.85Z"/><path class="cls-2" d="M234.59,12.54a.29.29,0,0,1-.28-.31A.26.26,0,0,1,234.59,12.54Z"/><path class="cls-2" d="M235.17,13.27a.28.28,0,0,1-.27-.31C235.1,13,235.18,13.08,235.17,13.27Z"/><path class="cls-8" d="M23.87,109.53l2.47,0H223.47l.65,0c0,.21-.16.28-.36.28H24.88C24.54,109.8,24.08,110.07,23.87,109.53Z"/><path class="cls-2" d="M234.91,104.16c0,.18,0,.36,0,.54s-.54.28-.54.65c-.34-.09-.4.27-.6.39s-.39.07-.38.34l-.32.27a.9.9,0,0,0-.77.54c-.14,0-.27.13-.42,0,0-.07,0-.17,0-.2A33.89,33.89,0,0,0,234.91,104.16Z"/><path class="cls-11" d="M227.8,108.44l.25,0c.25.2.5-.15.75,0l-.09.35a5.65,5.65,0,0,1-2,.39c-.05-.15-.18-.17-.31-.19.19-.27.62,0,.78-.36l.25,0C227.63,108.7,227.72,108.58,227.8,108.44Z"/><path class="cls-9" d="M228.71,108.74l.09-.35c.19-.16.51-.12.63-.38.22,0,.43-.16.65,0C229.9,108.75,229.28,108.69,228.71,108.74Z"/><path class="cls-6" d="M226.44,108.94c.13,0,.26,0,.31.19a.41.41,0,0,1,0,.11c-.17,0-.34,0-.46.12l-.43,0c-.15,0-.33,0-.45-.13l0-.28.4-.09A1,1,0,0,0,226.44,108.94Z"/><path class="cls-8" d="M235.19,104.63c.29-.3.37-.78.83-.93A1,1,0,0,1,235.19,104.63Z"/><path class="cls-2" d="M230.53,107.5a1.23,1.23,0,0,1,1.21-.54c-.22.51-.82.49-1.15.84Z"/><path class="cls-8" d="M233.72,105.74c.2-.12.26-.48.6-.39a3.05,3.05,0,0,1-.17.61c-.17.36-.26.08-.35-.06Z"/><path class="cls-8" d="M225.42,109.26c.12.15.3.09.45.13-.19.43-.46.33-.74.11v-.23Z"/><path class="cls-8" d="M22.12,109.38c.3,0,.61-.1.88.12C22.67,109.74,22.36,109.84,22.12,109.38Z"/><path class="cls-6" d="M232.25,106.89a.9.9,0,0,1,.77-.54C233,106.86,232.6,106.85,232.25,106.89Z"/><path class="cls-8" d="M226.3,109.36c.12-.16.29-.13.46-.12s.11.17,0,.22A.32.32,0,0,1,226.3,109.36Z"/><path class="cls-6" d="M233.72,105.74l.08.16a.5.5,0,0,1-.46.18C233.33,105.81,233.5,105.75,233.72,105.74Z"/><path class="cls-8" d="M236.49,103c0-.13.13-.17.24-.2s0,.2,0,.26S236.54,103.07,236.49,103Z"/><path class="cls-8" d="M230.53,107.5l.06.3h-.07l-.07,0-.1-.16Z"/><path class="cls-3" d="M230.35,107.63l.1.16-.23-.05C230.22,107.65,230.27,107.62,230.35,107.63Z"/><path class="cls-8" d="M17.62,10.13a1,1,0,0,1-1.17.64l-.1-.23L17.43,10Z"/><path class="cls-11" d="M19.85,9.15a2.78,2.78,0,0,1-1.69.55A2.35,2.35,0,0,1,19.85,9.15Z"/><path class="cls-8" d="M14.57,11.83c.08.65-.45.58-.82.69A.89.89,0,0,1,14.57,11.83Z"/><path class="cls-11" d="M22.41,8.72c-.26.37-.6.18-.91.1A.7.7,0,0,1,22.41,8.72Z"/><path class="cls-8" d="M16,10.85a.57.57,0,0,1-.6.37A.48.48,0,0,1,16,10.85Z"/><path class="cls-11" d="M15.2,11.26a.69.69,0,0,1,.13.11.39.39,0,0,0-.33.3l-.32,0A.39.39,0,0,1,15.2,11.26Z"/><path class="cls-11" d="M21.25,8.86c-.1.38-.3.19-.49.09C20.89,8.74,21.05,8.67,21.25,8.86Z"/><path class="cls-11" d="M17.62,10.13,17.43,10c.06-.22.2-.27.4-.18L18,10Z"/><path class="cls-11" d="M20.38,9c0,.31-.15.24-.29.06C20.15,8.92,20.24,8.85,20.38,9Z"/><path class="cls-6" d="M10.5,17.23a.4.4,0,0,1-.23.41c-.13-.14,0-.28,0-.42Z"/><path class="cls-11" d="M16.35,10.54l.1.23c-.15,0-.3.1-.45,0C16,10.52,16.14,10.48,16.35,10.54Z"/><path class="cls-6" d="M10.77,16.45c.06.16,0,.28-.15.33C10.47,16.57,10.55,16.48,10.77,16.45Z"/><path class="cls-5" d="M10.5,17.23h-.23c-.07-.2,0-.33.22-.33Z"/><path class="cls-8" d="M15,11.67a.39.39,0,0,1,.33-.3c.14.13.06.24-.05.33S15.08,11.79,15,11.67Z"/><path class="cls-10" d="M16,102.69l-1.16-1.16a2.55,2.55,0,0,0-.88-1.17h0c0-.26-.09-.53-.43-.58-.29-.82-.58-1.65-.88-2.47a.28.28,0,0,0-.14-.29v-.29a6.27,6.27,0,0,0,0-.87,24.51,24.51,0,0,1-.4-4.6c0-13,0-26,0-39,0-9.3-.2-18.6.14-27.9A13.88,13.88,0,0,1,13.3,19.2,10.75,10.75,0,0,1,17,14.62a13.71,13.71,0,0,1,8.19-2.22q98,0,196,0a23.66,23.66,0,0,1,5.18.45,10.58,10.58,0,0,1,6.9,4.4,14.89,14.89,0,0,1,2.3,8.68q.06,33,0,66a23.25,23.25,0,0,1-.35,3.8,11.84,11.84,0,0,1-3.07,6.21,9.36,9.36,0,0,1-2.83,2.1,17.81,17.81,0,0,1-7.41,1.4q-98.11,0-196.22,0a30.2,30.2,0,0,1-4-.38c-1.44-.19-2.68-1-4.09-1.21h0a.43.43,0,0,0-.43-.29h0A3.23,3.23,0,0,0,16,102.69ZM123.89,12.82q-49.33,0-98.66,0a16.17,16.17,0,0,0-5.54.9,10.15,10.15,0,0,0-6.29,6.35,20.62,20.62,0,0,0-.87,7.19q0,31.62,0,63.25a26.49,26.49,0,0,0,.29,5,11.09,11.09,0,0,0,2.09,5,12.32,12.32,0,0,0,3.58,3.1,13,13,0,0,0,6.44,1.4q98.92,0,197.84,0a13.56,13.56,0,0,0,5.11-.82c.66-.27,1.27-.67,1.9-1a8.93,8.93,0,0,0,4.57-5.42,18.76,18.76,0,0,0,.85-6.24c0-22.15-.16-44.3.06-66.44a13.58,13.58,0,0,0-1.45-6.35,10,10,0,0,0-4-4.25,14.41,14.41,0,0,0-7.17-1.68Z"/><path class="cls-3" d="M17.61,103.85c1.41.24,2.65,1,4.09,1.21a30.2,30.2,0,0,0,4,.38q98.1,0,196.22,0a17.81,17.81,0,0,0,7.41-1.4,9.36,9.36,0,0,0,2.83-2.1,11.84,11.84,0,0,0,3.07-6.21,23.25,23.25,0,0,0,.35-3.8q0-33,0-66a14.89,14.89,0,0,0-2.3-8.68,10.58,10.58,0,0,0-6.9-4.4,23.66,23.66,0,0,0-5.18-.45q-98,0-196,0A13.71,13.71,0,0,0,17,14.62,10.75,10.75,0,0,0,13.3,19.2a13.88,13.88,0,0,0-1.07,5.19c-.34,9.3-.1,18.6-.14,27.9,0,13,0,26,0,39a24.51,24.51,0,0,0,.4,4.6,6.27,6.27,0,0,1,0,.87c-.37,0-.38-.39-.41-.61-.17-1.38-.34-2.76-.45-4.14,0-.49.14-1,.14-1.51q0-31.54,0-63.11a26.54,26.54,0,0,1,.34-5.5,11.68,11.68,0,0,1,4-6.94,13.55,13.55,0,0,1,7-2.73A42.64,42.64,0,0,1,29.16,12q96.56,0,193.1,0a16.2,16.2,0,0,1,4.83.55c3.61,1.13,6.44,3.22,7.78,6.87a17.26,17.26,0,0,1,.91,4.44c.62,7.55.16,15.12.25,22.68s0,15.17,0,22.76,0,15.17,0,22.76a15.26,15.26,0,0,1-1.39,7,12.6,12.6,0,0,1-3.34,4.12,13.21,13.21,0,0,1-7.72,2.65c-2.18.14-4.36.1-6.54.1q-95.67,0-191.36,0a15.88,15.88,0,0,1-7.51-1.52C18,104.23,17.64,104.2,17.61,103.85Z"/><path class="cls-3" d="M14,100.36a2.55,2.55,0,0,1,.88,1.17A1.27,1.27,0,0,1,14,100.36Z"/><path class="cls-3" d="M16,102.69a3.23,3.23,0,0,1,1.17.87A1.14,1.14,0,0,1,16,102.69Z"/><path class="cls-3" d="M13.54,99.78c.34,0,.39.32.43.58C13.63,100.32,13.59,100.05,13.54,99.78Z"/><path class="cls-3" d="M17.18,103.56a.43.43,0,0,1,.43.29C17.4,103.86,17.19,103.86,17.18,103.56Z"/><path class="cls-3" d="M12.52,97a.28.28,0,0,1,.14.29C12.48,97.28,12.3,97.25,12.52,97Z"/><path class="cls-3" d="M225.14,109.08l-2.7,0H26.54a23.92,23.92,0,0,0-3.05,0l-.09-.31c.22,0,.43,0,.65,0l199.15,0a6,6,0,0,1,1.94.08Z"/><path class="cls-2" d="M228.05,107.38c.4-.52,1.16-.34,1.6-.79l.29-.12.32,0A3.55,3.55,0,0,1,228.05,107.38Z"/><path class="cls-2" d="M235.91,102.7a1.75,1.75,0,0,1-1,1.46A2.86,2.86,0,0,1,235.91,102.7Z"/><path class="cls-3" d="M226.44,108.94a1,1,0,0,1-.6,0c.4-.39.91-.24,1.38-.31C227.06,108.93,226.63,108.67,226.44,108.94Z"/><path class="cls-3" d="M229.43,108c-.12.26-.44.22-.63.38-.25-.15-.5.2-.75,0A1.85,1.85,0,0,1,229.43,108Z"/><path class="cls-11" d="M23.4,108.85l.09.31c-.2.07-.4.14-.49-.15v-.18Z"/><path class="cls-2" d="M227.17,107.55c.15-.31.4-.19.63-.15C227.65,107.69,227.43,107.7,227.17,107.55Z"/><path class="cls-3" d="M21.82,108.81l-.19-.2c.21-.1.42-.19.48.16l0,0v0Z"/><path class="cls-11" d="M225.14,109.08v-.18l.3.08,0,.28h-.28Z"/><path class="cls-3" d="M23,108.83V109l-.3-.17C22.79,108.63,22.89,108.65,23,108.83Z"/><path class="cls-11" d="M230.26,106.52l-.32,0c.06-.27.15-.36.32-.06A.08.08,0,0,1,230.26,106.52Z"/><path class="cls-3" d="M227.8,108.44c-.08.14-.17.26-.33.1C227.54,108.39,227.66,108.38,227.8,108.44Z"/><path class="cls-3" d="M20,108.33h0Z"/><path class="cls-5" d="M21.82,108.81l.33,0C22,109.1,21.91,109.06,21.82,108.81Z"/><path class="cls-5" d="M16.86,106.64c.21,0,.31.06.31.27A.27.27,0,0,1,16.86,106.64Z"/><path class="cls-1" d="M123.89,12.82h98.73a14.41,14.41,0,0,1,7.17,1.68,10,10,0,0,1,4,4.25,13.58,13.58,0,0,1,1.45,6.35c-.22,22.14,0,44.29-.06,66.44a18.76,18.76,0,0,1-.85,6.24,8.93,8.93,0,0,1-4.57,5.42c-.63.3-1.24.7-1.9,1a13.56,13.56,0,0,1-5.11.82q-98.93,0-197.84,0a13,13,0,0,1-6.44-1.4,12.32,12.32,0,0,1-3.58-3.1,11.09,11.09,0,0,1-2.09-5,26.49,26.49,0,0,1-.29-5q0-31.62,0-63.25a20.62,20.62,0,0,1,.87-7.19,10.15,10.15,0,0,1,6.29-6.35,16.17,16.17,0,0,1,5.54-.9Q74.57,12.8,123.89,12.82Zm0,.58H25.19a16.69,16.69,0,0,0-3.46.31,10.57,10.57,0,0,0-5.22,2.48,10.82,10.82,0,0,0-3.38,8.28q-.08,31.82,0,63.62a50.53,50.53,0,0,0,.14,6.74A10.83,10.83,0,0,0,16,101.15a10.89,10.89,0,0,0,8.25,3.26q99.17,0,198.34,0a17.35,17.35,0,0,0,3.38-.3,10.22,10.22,0,0,0,8.6-10.77c.05-22.61,0-45.22,0-67.83a19,19,0,0,0-.3-3.53,9.8,9.8,0,0,0-3.84-6.42,11.72,11.72,0,0,0-7-2.18Q173.65,13.38,123.85,13.4Z"/><path class="cls-12" d="M123.85,13.4q49.8,0,99.6,0a11.72,11.72,0,0,1,7,2.18A9.8,9.8,0,0,1,234.3,22a19,19,0,0,1,.3,3.53c0,22.61,0,45.22,0,67.83a10.22,10.22,0,0,1-8.6,10.77,17.35,17.35,0,0,1-3.38.3q-99.17,0-198.34,0A10.89,10.89,0,0,1,16,101.15a10.83,10.83,0,0,1-2.75-6.33,50.53,50.53,0,0,1-.14-6.74q0-31.81,0-63.62a10.82,10.82,0,0,1,3.38-8.28,10.57,10.57,0,0,1,5.22-2.48,16.69,16.69,0,0,1,3.46-.31Zm63.6.85c-.32.11-.7-.1-1,.21-.08-.71-.63-.47-1-.47Q111,14,36.61,14c-3.7,0-7.41-.13-11.12.11a23.74,23.74,0,0,0-4.37.46,8.62,8.62,0,0,0-6.42,5.51,20.06,20.06,0,0,0-1,7.19c0,21.66-.2,43.32.1,65a16.53,16.53,0,0,0,1,5.88,8.23,8.23,0,0,0,5.3,4.88,21,21,0,0,0,6.94.83c65.37-.07,130.75.22,196.13-.13a12.87,12.87,0,0,0,6.12-1.51,8.38,8.38,0,0,0,3.91-5.1,21.86,21.86,0,0,0,.73-6.88c-.06-21.63.21-43.27-.11-64.9a15.51,15.51,0,0,0-1-5.65,8,8,0,0,0-2.19-3.12,11.05,11.05,0,0,0-6.56-2.39q-3.36-.2-6.74-.18c-9.7,0-19.4,0-29.1,0C188,14,187.59,13.79,187.45,14.25Z"/><path class="cls-13" d="M187.45,14.25c.14-.46.52-.26.8-.26,9.7,0,19.4,0,29.1,0q3.38,0,6.74.18a11.05,11.05,0,0,1,6.56,2.39,8,8,0,0,1,2.19,3.12,15.51,15.51,0,0,1,1,5.65c.32,21.63.05,43.27.11,64.9a21.86,21.86,0,0,1-.73,6.88,8.38,8.38,0,0,1-3.91,5.1,12.87,12.87,0,0,1-6.12,1.51c-65.38.35-130.76.06-196.13.13a21,21,0,0,1-6.94-.83,8.23,8.23,0,0,1-5.3-4.88,16.53,16.53,0,0,1-1-5.88c-.3-21.66-.05-43.32-.1-65a20.06,20.06,0,0,1,1-7.19,8.62,8.62,0,0,1,6.42-5.51,23.74,23.74,0,0,1,4.37-.46c3.71-.24,7.42-.11,11.12-.11Q111,14,185.47,14c.38,0,.93-.24,1,.47h0l-1.16,0q-79.5,0-159,0a19.53,19.53,0,0,0-5.79.71,7.94,7.94,0,0,0-5,4,15,15,0,0,0-1.4,7q0,32.31,0,64.63a25,25,0,0,0,.45,5.11c.64,3.1,2.2,5.46,5.32,6.62a17.18,17.18,0,0,0,6,.93q98,0,195.93,0a19.42,19.42,0,0,0,5.08-.62,8.13,8.13,0,0,0,5.67-5.32,17.76,17.76,0,0,0,.87-6.34q.06-32,0-64.05A25.75,25.75,0,0,0,233,22c-.69-3.26-2.42-5.62-5.75-6.64a19.8,19.8,0,0,0-5.86-.73c-10.86-.06-21.73,0-32.59,0-.3,0-.59,0-.88,0C187.77,14.46,187.72,14.2,187.45,14.25Z"/><path class="cls-4" d="M187.45,14.25c.27-.05.32.21.46.34a.89.89,0,0,0,0,.58,1.18,1.18,0,0,1-1.82.41c.09-.38,0-.82.34-1.13h0C186.75,14.15,187.13,14.36,187.45,14.25Z"/><path class="cls-7" d="M188,15.17a.89.89,0,0,1,0-.58c.29,0,.58,0,.88,0,10.86,0,21.73,0,32.59,0a19.8,19.8,0,0,1,5.86.73c3.33,1,5.06,3.38,5.75,6.64a25.75,25.75,0,0,1,.43,5.11q0,32,0,64.05a17.76,17.76,0,0,1-.87,6.34,8.13,8.13,0,0,1-5.67,5.32,19.42,19.42,0,0,1-5.08.62q-98,0-195.93,0a17.18,17.18,0,0,1-6-.93c-3.12-1.16-4.68-3.52-5.32-6.62a25,25,0,0,1-.45-5.11q0-32.31,0-64.63a15,15,0,0,1,1.4-7,7.94,7.94,0,0,1,5-4,19.53,19.53,0,0,1,5.79-.71q79.48,0,159,0l1.16,0c-.35.31-.25.75-.34,1.13-.17,0-.35,0-.45.19a6.55,6.55,0,0,0-2.29-.18H25.56a19,19,0,0,0-3.45.31,7.39,7.39,0,0,0-5.82,4.27,11.79,11.79,0,0,0-1,4.93q0,33.45,0,66.9a17.37,17.37,0,0,0,.31,3.45,7.87,7.87,0,0,0,2.67,4.83,9.76,9.76,0,0,0,6.38,2q32.24.06,64.47,0a2.73,2.73,0,0,0,1.2-.23l.5-.07c.07.41.39.29.64.29,1.28,0,2.56,0,3.85,0q11.83,0,23.67,0c.3,0,.72.18.82-.34,1,.79,2.12.43,3.19.06.18.53.62.27.93.27l98.22,0a18.92,18.92,0,0,0,3.45-.31,7.45,7.45,0,0,0,5.6-3.81,11.36,11.36,0,0,0,1.22-5.39q0-33.44,0-66.89a18.15,18.15,0,0,0-.31-3.45,7.54,7.54,0,0,0-4.26-5.83,11.81,11.81,0,0,0-4.86-1c-5.87,0-11.74,0-17.61,0H188.94C188.55,15.58,188.14,15.64,188,15.17Z"/><path class="cls-14" d="M188,15.17c.19.47.6.41,1,.41h16.44c5.87,0,11.74,0,17.61,0a11.81,11.81,0,0,1,4.86,1,7.54,7.54,0,0,1,4.26,5.83,18.15,18.15,0,0,1,.31,3.45q0,33.45,0,66.89a11.36,11.36,0,0,1-1.22,5.39,7.45,7.45,0,0,1-5.6,3.81,18.92,18.92,0,0,1-3.45.31l-98.22,0c-.31,0-.75.26-.93-.27a2.18,2.18,0,0,0,.67-1.08c.21-.46.51-.75,1-.32s.75.14,1.07-.15a1.68,1.68,0,0,1,1.8-.42c.29.09.61.13.91.2,1.22.27,1.22.28,1.81-.79.28-.51.64-1,1.22-1a5.55,5.55,0,0,0,2.59-1,1,1,0,0,1,1.21,0c.45.25.29.58.23.94s-.14.61.36.59a3.59,3.59,0,0,0,2.2-2c-.38.07-.75.17-1.13.21s-.69.07-.8-.31a.71.71,0,0,1,.42-.78,11.69,11.69,0,0,0,2.59-1.36,1.86,1.86,0,0,1-.13.9c-.12.5-.49,1.2,0,1.47s1.1-.26,1.56-.65l.1-.1c.14-.14.27-.28.18-.51s-.27-.24-.47-.27c-.84-.11-.87-.19-.4-.93.08-.13.15-.25.31-.26s.17.18.24.29.06.54.41.5.3-.34.37-.57a4.93,4.93,0,0,1,.19-.54,1.88,1.88,0,0,1,1-1c.41-.14.55.31.81.51a.87.87,0,0,0,1,.18c.31-.21.11-.58.05-.88,0-.13-.12-.26-.15-.4a.35.35,0,0,1,.18-.37.25.25,0,0,1,.32.08c.43.56.86.3,1.23,0,2.87-2.5,5.88-4.82,7.5-8.47a23.75,23.75,0,0,0,2-5.54,18.44,18.44,0,0,0,.06-8.13,26.13,26.13,0,0,0-3.05-6.64q-2.65-4.37-5-8.89a5.88,5.88,0,0,1,0-5.31c.27-.62.31-.82-.25-1.12-.21-.11-.57-.26-.45-.55s.46-.2.72-.15a1.35,1.35,0,0,1,.29,0c.49.2.65,0,.81-.48a12.67,12.67,0,0,1,2.47-4.15c.44-.48,1.1-.84,1.35-1.4a15.76,15.76,0,0,1,3.52-4.46,17.85,17.85,0,0,1,5.74-3.72c.81-.34.82-.49.22-1.08-.11-.1-.36-.18-.18-.39s.33-.12.49,0a1.21,1.21,0,0,0,1.09.25,2,2,0,0,0,1.46-1,3,3,0,0,1,3.11-1.39A1,1,0,0,0,169,29a2.76,2.76,0,0,1,2.3-1.63,6.91,6.91,0,0,0,.9-.21c1.37-.43,1.49-.76.67-1.92-.13-.18-.29-.36-.17-.59a.58.58,0,0,1,.6-.33,2.23,2.23,0,0,0,2.43-1.45A2.42,2.42,0,0,1,178,21.39a1.58,1.58,0,0,0,1.6-1.38c.07-.36.24-.6.71-.5a1.48,1.48,0,0,0,1.63-.67,1.54,1.54,0,0,1,.87-.57,11.29,11.29,0,0,0,2.82-1.06c.84-.5.86-.83.1-1.44.1-.2.28-.19.45-.19A1.18,1.18,0,0,0,188,15.17ZM182.5,77.1h0c0,.11,0,.17.15.16h0q0,.17.15.15h0c0,.12,0,.17.16.16h0q0,.16.15.15h0c0,.12,0,.17.16.16h0q0,.17.15.15h0a.86.86,0,0,0,.61.57h0c0,.15.11.24.28.18h0c0,.29.24.36.46.43h0a.82.82,0,0,0,.72.46h0a.34.34,0,0,0,.44.29h0a.71.71,0,0,0,.74.44h0c-.05.17.07.14.16.14h0a1.9,1.9,0,0,0,1.17.58h0c.05.2.25.22.39.27a17.15,17.15,0,0,0,11.17.8,12.5,12.5,0,0,0,4.45-2h0a2.91,2.91,0,0,0,1.32-.88h0a.92.92,0,0,0,.58-.44h0c.1,0,.16,0,.15-.14h0c.23-.06.41-.17.44-.43h0c.13,0,.19,0,.15-.15h0c.17.06.24,0,.29-.17h0c.11,0,.16,0,.16-.15h0c.1,0,.16,0,.15-.15h0a.13.13,0,0,0,.15-.15h0c.11,0,.16,0,.15-.15h0c.1,0,.15,0,.15-.16h0c.14,0,.23-.12.17-.29h0c.14,0,.18,0,.15-.15h0c.26,0,.37-.2.43-.44h0c.11,0,.15-.05.14-.15h0a.92.92,0,0,0,.44-.58h0a3,3,0,0,0,.88-1.31h0c.2,0,.22-.24.3-.38a16.91,16.91,0,0,0,2.25-7.54,13,13,0,0,0-.53-5.07.29.29,0,0,0,0-.13c0-.16,0-.32-.1-.44l-.05-.14a.25.25,0,0,0-.07-.29c0-.14-.09-.28-.13-.41a17.16,17.16,0,1,0-31.75,12.84h0l.08.15c0,.08,0,.12.06.15l.08.12a.87.87,0,0,0,.39.73.39.39,0,0,0,.08.1l0,0s0,0,.07.06a.1.1,0,0,0,.05.08,2,2,0,0,0,.84,1.28h0a.62.62,0,0,0,.44.59h0a.36.36,0,0,0,.34.4c0,.28.14.41.39.48h0C182.34,77.05,182.39,77.1,182.5,77.1Zm-20.09,3.2h0c0,.11,0,.18.16.16h0c0,.13,0,.18.15.16h0c0,.14,0,.17.16.15h0a4.16,4.16,0,0,0,3.11,1c2.83.08,5.66,0,8.49,0,.17,0,.4.12.5-.15h0c.16,0,.12-.18.12-.29,0-2.48,0-5,0-7.45,0-.16,0-.34-.1-.47-.12-.34-.4-.2-.62-.2-1,0-1.92,0-2.89,0-.21,0-.52.09-.48-.32a6.14,6.14,0,0,0,.12-2.34c0-4.19,0-8.38,0-12.57,0-.65.18-.83.82-.79.84.06,1.69,0,2.54,0,.52,0,.65-.16.64-.67,0-2.35,0-4.7,0-7.05,0-.23.09-.48-.1-.69s-.41-.19-.62-.19c-.94,0-1.89,0-2.83,0-.45,0-.53-.1-.53-.55,0-3.95,0-7.9,0-11.85,0-.58-.15-.8-.78-.79q-4.17.06-8.36,0c-.62,0-.75.18-.75.77,0,3.93,0,7.85,0,11.78,0,.49-.1.67-.63.64-1,0-2.08,0-3.12,0-.31,0-.49,0-.49.41,0,2.67,0,5.33,0,8a.16.16,0,0,0,.18.17c1.33,0,2.65.08,4,0,0,.26,0,.53,0,.79,0,6,0,12,0,18a8.62,8.62,0,0,0,.72,3.44h0l.07.14c-.05.09,0,.14.08.17a.1.1,0,0,0,.05.08c0,.21,0,.37.25.43h0A.13.13,0,0,0,162.41,80.3ZM213,75.78a3.4,3.4,0,0,0-.1,6.79,3.31,3.31,0,0,0,3.48-3.33A3.45,3.45,0,0,0,213,75.78Zm-81.21,24.63a3,3,0,0,0,1.2-.25c.19-.12.46-.22.37-.54a.64.64,0,0,0-.5-.46,2,2,0,0,0-1.32.25c-.26.14-.51.3-.44.66S131.58,100.31,131.81,100.41Zm9.95-5.78c.05.31,0,.65.46.62a.61.61,0,0,0,.62-.59.63.63,0,0,0-.6-.69C141.81,94,141.82,94.36,141.76,94.63Z"/><path class="cls-14" d="M119.79,101.91c-.1.52-.52.34-.82.34q-11.84,0-23.67,0c-1.29,0-2.57,0-3.85,0-.25,0-.57.12-.64-.29a2.65,2.65,0,0,1,2-.61,6.39,6.39,0,0,0,3.17-.5c.37-.17.68-.39.43-.9a1.93,1.93,0,0,0-2.06-1c-.75.2-1.89-.1-2.09,1.16a.36.36,0,0,1-.28.3,4.07,4.07,0,0,1-1.93.06c-.09,0-.24-.15-.24-.23,0-1.09-.49-.42-.79-.22a3.11,3.11,0,0,0-1,1.08c-.3.56-.12.85.53.86a3.67,3.67,0,0,1,1.71.09,2.73,2.73,0,0,1-1.2.23q-32.23,0-64.47,0a9.76,9.76,0,0,1-6.38-2,7.87,7.87,0,0,1-2.67-4.83A17.37,17.37,0,0,1,15.28,92q0-33.45,0-66.9a11.79,11.79,0,0,1,1-4.93,7.39,7.39,0,0,1,5.82-4.27,19,19,0,0,1,3.45-.31H183.39c-.18.36-.57.6-.6,1.05s-.25.52-.49.74a2.91,2.91,0,0,1-1.7.71c-.28,0-.73,0-.77.38s-.4.63-.77.72a3.32,3.32,0,0,0-1.73,1,2.72,2.72,0,0,1-1.81,1c-1.79.08-2.83,1.49-4.15,2.32-1,.63-2,1.23-3,1.89a.7.7,0,0,1-1-.2c-.6-.78-.84-.82-1.6-.21a.72.72,0,0,1-.88.15,1.29,1.29,0,0,0-1.56.45,5.63,5.63,0,0,1-1.48,1.27c-.18.11-.5.12-.39.49a.66.66,0,0,0,.66.56h1.25c-.7.78-1.18,1.56-2.17,1.71a.57.57,0,0,0-.41.37,1.08,1.08,0,0,1-1.4.69.65.65,0,0,0-.84.38c-.45,1-.66,1.1-1.73.66a2.64,2.64,0,0,0-.48-.14c-.2-.05-.53.05-.49-.26a.89.89,0,0,1,.48-.69c.29-.14.38.06.47.28.21.52.58.43.83.1.41-.54.93-1,1.37-1.49s.19-1-.42-1.05a1.83,1.83,0,0,0-1.72.52,11.24,11.24,0,0,1-3.12,2.35,6.46,6.46,0,0,0-2,1.36.45.45,0,0,1-.59.14,1.34,1.34,0,0,0-1.44.1,35.12,35.12,0,0,0-8.23,5.37c-5.68,5-8.47,11.34-7.73,18.91a18.54,18.54,0,0,0,6.09,12.42,4.33,4.33,0,0,1,1.48,2.59,11.37,11.37,0,0,1-.83,6,3,3,0,0,1-1.46,1.46c-.45.25-.89.5-1.32.76a1,1,0,0,0-.43,1.41,1,1,0,0,1,.14.85l-.29-.23c-.91-.66-1.34-.58-2,.31a3.49,3.49,0,0,1-.72.81,46.71,46.71,0,0,1-7.37,4.74,2.2,2.2,0,0,0-.55.34A11.88,11.88,0,0,1,120,92a.92.92,0,0,0-.4.15,1.18,1.18,0,0,1-1.17.17,2.11,2.11,0,0,0-1.61.16A12.42,12.42,0,0,1,111,93.8c-.18,0-.5-.15-.54.16s.25.37.49.45a4.37,4.37,0,0,0,3.39-.09,8.86,8.86,0,0,1,5.16-.82c.19,0,.45,0,.51.2s-.16.4-.35.5a5.16,5.16,0,0,1-1.89.47,28.44,28.44,0,0,0-8.86,2,3.4,3.4,0,0,1-.78.18c-1.1.21-2.23,0-3.32.28-.39.09-.78.22-.74.73a.79.79,0,0,0,.82.84,14,14,0,0,1,1.59.1c.23,0,.66-.14.68.32s-.31.53-.62.59a24.58,24.58,0,0,0-3.38,1.07c-.82.29-1,.14-1.18-.7s.5-.58.86-.74c-.16-.37-.54-.5-.64-.89a1.29,1.29,0,0,0-2.2-.64,6.49,6.49,0,0,1-2.08,1.41c-.31.13-.64.3-.56.74a.9.9,0,0,0,.84.77c.64.07,1.25.13,1.6.79.1.19.35.21.57.26a12.68,12.68,0,0,0,5-.39,9.92,9.92,0,0,1,4.75-.24,5.15,5.15,0,0,0,2.56.18c1.44-.31,2.92-.34,4.37-.55C118.26,100.65,119.21,100.72,119.79,101.91ZM85,76.66q0,.16.15.15h0c0,.11,0,.17.16.16h0q0,.17.15.15h0c0,.12,0,.17.16.16h0q0,.17.15.15h0c0,.12,0,.17.16.16h0a.86.86,0,0,0,.73.6h0c0,.14,0,.19.16.15h0a.53.53,0,0,0,.58.45h0a2,2,0,0,0,1.19.87h0a1.8,1.8,0,0,0,1,.59h0c0,.17.16.18.3.16h0a1.12,1.12,0,0,0,.2.18,16.8,16.8,0,0,0,6.58,1.71,16.45,16.45,0,0,0,9.94-2.65l0,2.1c0,.42.34.27.54.27H115c.51,0,.71-.13.71-.7q0-15.87,0-31.76c0-.24.12-.53-.13-.74,0-.27-.23-.26-.43-.26h-8.14c-.4,0-.42.18-.41.48,0,.56,0,1.12,0,1.74a17.6,17.6,0,0,0-12.62-2.08A16.72,16.72,0,0,0,82.05,72.23l0,0,.06.06.09.16s0,0,0,0a.3.3,0,0,0,.08.08l.09.16c0,.19,0,.36.21.44a.28.28,0,0,0,.08.11c0,.08-.06.16.08.16a.25.25,0,0,0,.08.12l0,.06,0,0a.18.18,0,0,0,0,.07,2.14,2.14,0,0,0,.84,1.29h0a.61.61,0,0,0,.45.59h0c0,.1,0,.16.14.17v0c0,.16,0,.26.21.25l0,0,0,0a.45.45,0,0,0,.39.49h0c0,.11,0,.16.16.15Zm-33.6,5.06h5.5c.49,0,.49-.42.6-.71q4.53-11.42,9-22.85c.09-.24.09-.54.39-.65q0,12,0,23.95c-.05.43.29.28.47.28,3,0,5.92,0,8.88,0,.48,0,.67-.14.67-.67q0-22.66,0-45.34c0-.23.11-.49-.13-.67-.09-.47-.46-.28-.7-.28-3.62,0-7.23,0-10.84,0a.79.79,0,0,0-.89.6q-4.88,12.72-9.79,25.43A3.69,3.69,0,0,1,54.06,62a2.54,2.54,0,0,1-.1-.25q-4.82-13.07-9.6-26.15a1,1,0,0,0-1.19-.81c-3.4,0-6.79,0-10.19,0-.53,0-.68.11-.68.67q0,23,0,46c0,.5.39.29.59.29,2.74,0,5.48,0,8.22,0,.66,0,.8-.21.8-.84q0-11.15,0-22.31c0-.28-.19-.65.26-.81q1.66,4.38,3.32,8.74l5.64,14.85C51.08,81.64,51.18,81.73,51.39,81.72ZM121,81.34c-.08.53.34.28.51.28,2.86,0,5.72,0,8.58,0,.52,0,.64-.18.64-.68q0-15.83,0-31.65c0-.23.11-.49-.13-.68s-.47-.17-.7-.18c-2.69,0-5.38,0-8.07,0-.65,0-.83.16-.82.82Q121,65.3,121,81.34Zm4.63-46.54c-1.35,0-2.71,0-4.07,0-.48,0-.68.08-.67.62,0,2.57,0,5.14,0,7.71,0,.47.16.57.59.57,1.6,0,3.2,0,4.8,0,1.21,0,2.42,0,3.63,0,.26,0,.62.13.62-.37,0-2.67,0-5.33,0-8,0-.41-.19-.51-.58-.51C128.46,34.81,127,34.8,125.59,34.8Z"/><path class="cls-15" d="M119.79,101.91c-.58-1.19-1.53-1.26-2.73-1.09-1.45.21-2.93.24-4.37.55a5.15,5.15,0,0,1-2.56-.18,9.92,9.92,0,0,0-4.75.24,12.68,12.68,0,0,1-5,.39c-.22,0-.47-.07-.57-.26-.35-.66-1-.72-1.6-.79a.9.9,0,0,1-.84-.77c-.08-.44.25-.61.56-.74A6.49,6.49,0,0,0,100,97.85a1.29,1.29,0,0,1,2.2.64c.1.39.48.52.64.89-.36.16-1,0-.86.74s.36,1,1.18.7a24.58,24.58,0,0,1,3.38-1.07c.31-.06.64-.19.62-.59s-.45-.29-.68-.32a14,14,0,0,0-1.59-.1.79.79,0,0,1-.82-.84c0-.51.35-.64.74-.73,1.09-.25,2.22-.07,3.32-.28a3.4,3.4,0,0,0,.78-.18,28.44,28.44,0,0,1,8.86-2,5.16,5.16,0,0,0,1.89-.47c.19-.1.42-.25.35-.5s-.32-.17-.51-.2a8.86,8.86,0,0,0-5.16.82,4.37,4.37,0,0,1-3.39.09c-.24-.08-.53-.17-.49-.45s.36-.17.54-.16a12.42,12.42,0,0,0,5.8-1.37,2.11,2.11,0,0,1,1.61-.16,1.18,1.18,0,0,0,1.17-.17A.92.92,0,0,1,120,92a11.88,11.88,0,0,0,6.59-3.22,2.2,2.2,0,0,1,.55-.34,46.71,46.71,0,0,0,7.37-4.74,3.49,3.49,0,0,0,.72-.81c.64-.89,1.07-1,2-.31l.29.23a1,1,0,0,0-.14-.85,1,1,0,0,1,.43-1.41c.43-.26.87-.51,1.32-.76a3,3,0,0,0,1.46-1.46,11.37,11.37,0,0,0,.83-6,4.33,4.33,0,0,0-1.48-2.59,18.54,18.54,0,0,1-6.09-12.42c-.74-7.57,2-13.86,7.73-18.91A35.12,35.12,0,0,1,149.76,33a1.34,1.34,0,0,1,1.44-.1.45.45,0,0,0,.59-.14,6.46,6.46,0,0,1,2-1.36A11.24,11.24,0,0,0,156.86,29a1.83,1.83,0,0,1,1.72-.52c.61.09.82.6.42,1.05s-1,.95-1.37,1.49c-.25.33-.62.42-.83-.1-.09-.22-.18-.42-.47-.28a.89.89,0,0,0-.48.69c0,.31.29.21.49.26a2.64,2.64,0,0,1,.48.14c1.07.44,1.28.36,1.73-.66a.65.65,0,0,1,.84-.38,1.08,1.08,0,0,0,1.4-.69.57.57,0,0,1,.41-.37c1-.15,1.47-.93,2.17-1.71h-1.25a.66.66,0,0,1-.66-.56c-.11-.37.21-.38.39-.49a5.63,5.63,0,0,0,1.48-1.27,1.29,1.29,0,0,1,1.56-.45.72.72,0,0,0,.88-.15c.76-.61,1-.57,1.6.21a.7.7,0,0,0,1,.2c1-.66,2-1.26,3-1.89,1.32-.83,2.36-2.24,4.15-2.32a2.72,2.72,0,0,0,1.81-1,3.32,3.32,0,0,1,1.73-1c.37-.09.72-.2.77-.72s.49-.35.77-.38a2.91,2.91,0,0,0,1.7-.71c.24-.22.47-.39.49-.74s.42-.69.6-1.05a6.55,6.55,0,0,1,2.29.18c.76.61.74.94-.1,1.44a11.29,11.29,0,0,1-2.82,1.06,1.54,1.54,0,0,0-.87.57,1.48,1.48,0,0,1-1.63.67c-.47-.1-.64.14-.71.5a1.58,1.58,0,0,1-1.6,1.38,2.42,2.42,0,0,0-2.22,1.44,2.23,2.23,0,0,1-2.43,1.45.58.58,0,0,0-.6.33c-.12.23,0,.41.17.59.82,1.16.7,1.49-.67,1.92a6.91,6.91,0,0,1-.9.21A2.76,2.76,0,0,0,169,29a1,1,0,0,1-1.15.7,3,3,0,0,0-3.11,1.39,2,2,0,0,1-1.46,1,1.21,1.21,0,0,1-1.09-.25c-.16-.16-.33-.22-.49,0s.07.29.18.39c.6.59.59.74-.22,1.08a17.85,17.85,0,0,0-5.74,3.72,15.76,15.76,0,0,0-3.52,4.46c-.25.56-.91.92-1.35,1.4a12.67,12.67,0,0,0-2.47,4.15c-.16.44-.32.68-.81.48a1.35,1.35,0,0,0-.29,0c-.26,0-.61-.1-.72.15s.24.44.45.55c.56.3.52.5.25,1.12a5.88,5.88,0,0,0,0,5.31q2.38,4.53,5,8.89A26.13,26.13,0,0,1,155.53,70a18.44,18.44,0,0,1-.06,8.13,23.75,23.75,0,0,1-2,5.54c-1.62,3.65-4.63,6-7.5,8.47-.37.33-.8.59-1.23,0a.25.25,0,0,0-.32-.08.35.35,0,0,0-.18.37c0,.14.11.27.15.4.06.3.26.67-.05.88a.87.87,0,0,1-1-.18c-.26-.2-.4-.65-.81-.51a1.88,1.88,0,0,0-1,1,4.93,4.93,0,0,0-.19.54c-.07.23-.08.53-.37.57s-.29-.32-.41-.5,0-.32-.24-.29-.23.13-.31.26c-.47.74-.44.82.4.93.2,0,.38,0,.47.27s0,.37-.18.51l-.1.1c-.46.39-1,1-1.56.65s-.09-1,0-1.47a1.86,1.86,0,0,0,.13-.9,11.69,11.69,0,0,1-2.59,1.36.71.71,0,0,0-.42.78c.11.38.49.35.8.31s.75-.14,1.13-.21a3.59,3.59,0,0,1-2.2,2c-.5,0-.4-.33-.36-.59s.22-.69-.23-.94a1,1,0,0,0-1.21,0,5.55,5.55,0,0,1-2.59,1c-.58,0-.94.54-1.22,1-.59,1.07-.59,1.06-1.81.79-.3-.07-.62-.11-.91-.2a1.68,1.68,0,0,0-1.8.42c-.32.29-.64.52-1.07.15s-.79-.14-1,.32A2.18,2.18,0,0,1,123,102C121.91,102.34,120.84,102.7,119.79,101.91Zm-6.26-2.26a14.22,14.22,0,0,1-2.6.25.61.61,0,0,0-.45.2c-.26.24-.2.41.11.52a4.27,4.27,0,0,0,2.92-1l.1-.06-.09,0Zm10.29-4.14a.89.89,0,0,0-.73,1c.12,1-.09,1.22-1.11,1a1.94,1.94,0,0,1-1.14-.55c-.22-.25-.78-.32-.92.11a13.07,13.07,0,0,1-.6,1.94,2.63,2.63,0,0,0,.39-.18c.29-.25.35-.85.74-.82s.42.63.63,1l0,.07c.13.24.28.45.6.44s.65-.16.68-.45c.07-.7.54-1,1.06-1.36.33-.22.46-.28.74.06s.8.43,1.1-.1a1.21,1.21,0,0,1,1.23-.71,1.37,1.37,0,0,0,1.25-.73c.26-.38.2-.62-.3-.68a6.84,6.84,0,0,1-1.62-.32c-.36-.14-.86-.53-1.07-.11s.43.55.76.73c.15.08.36.14.3.34a.34.34,0,0,1-.41.22,1.14,1.14,0,0,0-1.26.48.42.42,0,0,1-.53.1c-.2-.12-.11-.35-.06-.53S123.93,95.92,123.82,95.51Zm-5.27,3.43c-.81-.13-1.6-.29-2.41-.39a1.41,1.41,0,0,0-1.51.59q-.31.51.27.48c.46,0,.89-.08,1.18.43a.34.34,0,0,0,.56-.09c.21-.64.69-.66,1.24-.68A.72.72,0,0,0,118.55,98.94ZM156.87,32.8a4.18,4.18,0,0,1-1.09-.32c-.14-.07-.28-.08-.37.09a16.34,16.34,0,0,0-1.11,1.84c-.06.14-.14.28,0,.38a.28.28,0,0,0,.38-.12A7,7,0,0,1,156.87,32.8Zm8.59-6.11c-.05-.26-.33-.22-.55-.22-.6,0-1.29.5-1.21.89a.57.57,0,0,0,.62.48A1.49,1.49,0,0,0,165.46,26.69Zm-47.89,70c0-.32-.23-.4-.49-.39a.84.84,0,0,0-.84.66c0,.26.33.37.6.38C117.28,97.33,117.49,97.06,117.57,96.66ZM133,93.41c0-.29-.21-.3-.39-.32-.4,0-.57.25-.66.54a.34.34,0,0,0,.36.44C132.68,94.05,132.86,93.75,133,93.41Zm-4.12,4.37c-.26.06-.61.06-.65.35s.29.31.48.3.63-.07.64-.44S129,97.87,128.87,97.78Zm-10.13-.14c0-.25-.14-.22-.28-.22-.41,0-.5.33-.56.63a.21.21,0,0,0,.27.24A.82.82,0,0,0,118.74,97.64Zm-8.54.22a.86.86,0,0,0,1.09,0,.16.16,0,0,0,0-.29.9.9,0,0,0-1,.12A.68.68,0,0,0,110.2,97.86Zm-1.72.93a.58.58,0,0,0,.6-.45c0-.22-.17-.17-.29-.19a.55.55,0,0,0-.62.39C108.09,98.77,108.33,98.77,108.48,98.79Z"/><path class="cls-15" d="M90.31,102a3.67,3.67,0,0,0-1.71-.09c-.65,0-.83-.3-.53-.86A3.11,3.11,0,0,1,89,100c.3-.2.8-.87.79.22,0,.08.15.21.24.23a4.07,4.07,0,0,0,1.93-.06.36.36,0,0,0,.28-.3c.2-1.26,1.34-1,2.09-1.16a1.93,1.93,0,0,1,2.06,1c.25.51-.06.73-.43.9a6.39,6.39,0,0,1-3.17.5,2.65,2.65,0,0,0-2,.61Z"/><path class="cls-16" d="M179.58,72.78a17.16,17.16,0,1,1,31.75-12.84c0,.13.09.27.13.41l.07.29.05.14c0,.15.07.3.1.44a.29.29,0,0,1,0,.13c0,.12,0,.24,0,.36a17.48,17.48,0,0,1-1.91,12.1c-.09.16-.24.31-.14.53h0a2,2,0,0,0-.88,1.31h0a.46.46,0,0,0-.44.58h0c-.15,0-.18,0-.14.15h0c-.31,0-.4.19-.43.44h0q-.17,0-.15.15h0c-.16,0-.26.11-.17.29h0c-.14,0-.2,0-.15.16h0q-.21-.06-.15.15h0q-.23-.07-.15.15h0q-.21-.06-.15.15h0c-.15,0-.19,0-.16.15h0c-.19-.1-.25,0-.29.17h0q-.17,0-.15.15h0c-.25,0-.46.11-.44.43h0c-.13,0-.19,0-.15.14h0c-.33,0-.54.09-.58.44h0a2,2,0,0,0-1.32.88h0c-.27-.1-.45.11-.65.22a17.1,17.1,0,0,1-13.12,1.39,12,12,0,0,0-2.24-.73h0a1.55,1.55,0,0,0-1.17-.58h0c0-.14-.07-.14-.16-.14h0a.92.92,0,0,0-.74-.44h0a.39.39,0,0,0-.44-.29h0a.77.77,0,0,0-.72-.46h0c0-.3-.23-.38-.46-.43h0c0-.15-.12-.22-.28-.18h0a.71.71,0,0,0-.61-.57h0a.13.13,0,0,0-.15-.15h0c0-.1-.06-.15-.16-.16h0a.13.13,0,0,0-.15-.15h0c0-.1-.06-.16-.16-.16h0a.13.13,0,0,0-.15-.15h0a.14.14,0,0,0-.15-.16h0a.14.14,0,0,0-.15-.16h0c0-.25-.2-.37-.39-.49a.6.6,0,0,0-.34-.39h0a.94.94,0,0,0-.44-.59h0l-.84-1.28a.1.1,0,0,1-.05-.08.1.1,0,0,0,0-.1.39.39,0,0,1-.08-.1l-.39-.73-.08-.12-.06-.15-.08-.15Zm10.63-12.84h0c-.14,0-.19,0-.15.14h0c-.15,0-.2,0-.16.15h0q-.21-.06-.15.15h0c-.14,0-.19,0-.15.15h0c-.15,0-.19,0-.15.16h0c-.15,0-.19,0-.15.15h0c-.34,0-.45.27-.44.58h0c-.31,0-.32.26-.41.43a6.54,6.54,0,0,0-.69,4.95.15.15,0,0,1,0,.11l.09.41a.52.52,0,0,1,.06.13,7.42,7.42,0,0,0,9.94,4.36,7.13,7.13,0,0,0,3.46-9.92l-.08-.14a.21.21,0,0,1-.06-.1.07.07,0,0,0,0-.09.36.36,0,0,1-.07-.1l-.14-.2h0a.54.54,0,0,0-.31-.42h0a.16.16,0,0,0-.15-.16h0a2,2,0,0,0-1-1h0c0-.14-.12-.23-.29-.16h0c0-.24-.14-.26-.32-.27h0c-.1-.26-.36-.32-.56-.42a7.11,7.11,0,0,0-6-.35c-.28.11-.62.13-.75.47h0a.63.63,0,0,0-.73.44h0c-.32,0-.53.09-.58.44h0C190.23,59.76,190.17,59.79,190.21,59.94Z"/><path class="cls-16" d="M161.83,79.33a8.62,8.62,0,0,1-.72-3.44c0-6,0-12,0-18,0-.26,0-.53,0-.79-.21-.19-.46-.1-.69-.11H157c0-2.66,0-5.32,0-8,0-.39.18-.42.49-.41,1,0,2.08,0,3.12,0,.53,0,.63-.15.63-.64,0-3.93,0-7.85,0-11.78,0-.59.13-.78.75-.77q4.19.06,8.36,0c.63,0,.78.21.78.79,0,3.95,0,7.9,0,11.85,0,.45.08.57.53.55.94,0,1.89,0,2.83,0,.21,0,.51-.16.62.19,0,2.51,0,5,0,7.55,0,.46-.12.64-.61.62-.9,0-1.8,0-2.69,0-.61,0-.77.17-.77.77,0,4.84,0,9.68,0,14.52a4.48,4.48,0,0,0,.07.64c0,.41.27.32.48.32,1,0,1.93,0,2.89,0,.22,0,.5-.14.62.2,0,2.73,0,5.47,0,8.21h0c-2.2,0-4.4,0-6.6,0a12.17,12.17,0,0,1-5.5-.89h0c0-.11-.06-.14-.16-.15h0a.16.16,0,0,0-.15-.16h0a.17.17,0,0,0-.16-.16h0a.14.14,0,0,0-.14-.16h0a.64.64,0,0,0-.25-.43.1.1,0,0,1-.05-.08l-.08-.17-.07-.14Z"/><path class="cls-4" d="M213,75.78a3.45,3.45,0,0,1,3.38,3.46,3.31,3.31,0,0,1-3.48,3.33,3.4,3.4,0,0,1,.1-6.79Zm1.49,5.4a2.51,2.51,0,0,0,.37-3.82A2.55,2.55,0,0,0,212,76.7a2.65,2.65,0,0,0-1.64,2.3,2.48,2.48,0,0,0,1.42,2.56,2.43,2.43,0,0,0,2.72-.39Z"/><path class="cls-6" d="M171,72.87a4.48,4.48,0,0,1-.07-.64c0-4.84,0-9.68,0-14.52,0-.6.16-.81.77-.77.89,0,1.79,0,2.69,0,.49,0,.61-.16.61-.62,0-2.52,0-5,0-7.55.19.21.1.46.1.69,0,2.35,0,4.7,0,7.05,0,.51-.12.69-.64.67-.85,0-1.7,0-2.54,0-.64,0-.82.14-.82.79,0,4.19,0,8.38,0,12.57A6.14,6.14,0,0,1,171,72.87Z"/><path class="cls-6" d="M187.88,81a12,12,0,0,1,2.24.73,17.1,17.1,0,0,0,13.12-1.39c.2-.11.38-.32.65-.22a12.5,12.5,0,0,1-4.45,2,17.15,17.15,0,0,1-11.17-.8C188.13,81.24,187.93,81.22,187.88,81Z"/><path class="cls-6" d="M209.71,74.34c-.1-.22,0-.37.14-.53a17.48,17.48,0,0,0,1.91-12.1c0-.12,0-.24,0-.36a13,13,0,0,1,.53,5.07A16.91,16.91,0,0,1,210,74C209.93,74.1,209.91,74.29,209.71,74.34Z"/><path class="cls-4" d="M131.81,100.41c-.23-.1-.61.07-.69-.34s.18-.52.44-.66a2,2,0,0,1,1.32-.25.64.64,0,0,1,.5.46c.09.32-.18.42-.37.54A3,3,0,0,1,131.81,100.41Z"/><path class="cls-6" d="M162.84,80.73a12.17,12.17,0,0,0,5.5.89c2.2,0,4.4,0,6.6,0-.1.27-.33.15-.5.15-2.83,0-5.66.06-8.49,0A4.16,4.16,0,0,1,162.84,80.73Z"/><path class="cls-4" d="M141.76,94.63c.06-.27.05-.66.48-.66a.63.63,0,0,1,.6.69.61.61,0,0,1-.62.59C141.78,95.28,141.81,94.94,141.76,94.63Z"/><path class="cls-6" d="M174.94,81.61c0-2.74,0-5.48,0-8.21.15.13.1.31.1.47,0,2.48,0,5,0,7.45C175.06,81.43,175.1,81.56,174.94,81.61Z"/><path class="cls-9" d="M157,57h3.46c.23,0,.48-.08.69.11-1.32.13-2.64,0-4,0A.16.16,0,0,1,157,57Z"/><path class="cls-6" d="M203.88,80.15a2,2,0,0,1,1.32-.88A2.91,2.91,0,0,1,203.88,80.15Z"/><path class="cls-6" d="M208.83,75.64a2,2,0,0,1,.88-1.31A3,3,0,0,1,208.83,75.64Z"/><path class="cls-6" d="M180.36,74.21l.84,1.28A2,2,0,0,1,180.36,74.21Z"/><path class="cls-6" d="M186.71,80.44a1.55,1.55,0,0,1,1.17.58A1.9,1.9,0,0,1,186.71,80.44Z"/><path class="cls-6" d="M183.36,78a.71.71,0,0,1,.61.57A.86.86,0,0,1,183.36,78Z"/><path class="cls-6" d="M179.8,73.2l.39.73A.87.87,0,0,1,179.8,73.2Z"/><path class="cls-6" d="M185.83,79.87a.92.92,0,0,1,.74.44A.71.71,0,0,1,185.83,79.87Z"/><path class="cls-6" d="M184.68,79.12a.77.77,0,0,1,.72.46A.82.82,0,0,1,184.68,79.12Z"/><path class="cls-6" d="M205.2,79.28c0-.35.25-.47.58-.44A.92.92,0,0,1,205.2,79.28Z"/><path class="cls-6" d="M208.4,76.22a.46.46,0,0,1,.44-.58A.92.92,0,0,1,208.4,76.22Z"/><path class="cls-6" d="M181.19,75.49a.94.94,0,0,1,.44.59A.62.62,0,0,1,181.19,75.49Z"/><path class="cls-6" d="M205.93,78.7c0-.32.19-.4.44-.43C206.34,78.53,206.16,78.64,205.93,78.7Z"/><path class="cls-6" d="M184.23,78.7c.23,0,.45.13.46.43C184.47,79.06,184.24,79,184.23,78.7Z"/><path class="cls-6" d="M182,76.47c.19.11.37.23.39.48C182.11,76.88,182,76.75,182,76.47Z"/><path class="cls-6" d="M207.83,76.81c0-.25.12-.45.43-.44C208.2,76.61,208.09,76.78,207.83,76.81Z"/><path class="cls-6" d="M162,79.72a.64.64,0,0,1,.25.43C162.06,80.09,162,79.93,162,79.72Z"/><path class="cls-6" d="M185.4,79.58a.39.39,0,0,1,.44.29A.34.34,0,0,1,185.4,79.58Z"/><path class="cls-6" d="M211.68,61.22c0-.14-.07-.29-.1-.44C211.73,60.9,211.7,61.06,211.68,61.22Z"/><path class="cls-6" d="M181.63,76.07a.6.6,0,0,1,.34.39C181.73,76.44,181.64,76.29,181.63,76.07Z"/><path class="cls-6" d="M211.53,60.64l-.07-.29A.25.25,0,0,1,211.53,60.64Z"/><path class="cls-6" d="M207.52,77.24c-.09-.18,0-.25.17-.29C207.75,77.12,207.66,77.19,207.52,77.24Z"/><path class="cls-6" d="M206.51,78.13c0-.16.1-.27.29-.17C206.75,78.09,206.68,78.19,206.51,78.13Z"/><path class="cls-6" d="M184,78.53c.16,0,.24,0,.28.18C184.07,78.77,184,78.68,184,78.53Z"/><path class="cls-6" d="M161.9,79.47l.08.17C161.89,79.61,161.85,79.56,161.9,79.47Z"/><path class="cls-6" d="M179.66,72.93l.06.15C179.65,73.05,179.62,73,179.66,72.93Z"/><path class="cls-6" d="M162.69,80.59c.1,0,.17,0,.16.15S162.66,80.73,162.69,80.59Z"/><path class="cls-6" d="M162.55,80.44a.16.16,0,0,1,.15.16C162.57,80.62,162.52,80.57,162.55,80.44Z"/><path class="cls-6" d="M186.56,80.3c.09,0,.19,0,.16.14S186.51,80.47,186.56,80.3Z"/><path class="cls-6" d="M162.4,80.29a.17.17,0,0,1,.16.16C162.43,80.47,162.39,80.4,162.4,80.29Z"/><path class="cls-6" d="M162.27,80.14a.14.14,0,0,1,.14.16A.13.13,0,0,1,162.27,80.14Z"/><polygon class="cls-6" points="161.83 79.33 161.83 79.33 161.81 79.33 161.83 79.33"/><path class="cls-6" d="M205.78,78.84c0-.15,0-.18.15-.14S205.88,78.85,205.78,78.84Z"/><path class="cls-6" d="M206.37,78.27q0-.17.15-.15C206.56,78.26,206.5,78.3,206.37,78.27Z"/><path class="cls-6" d="M206.79,78c0-.14,0-.2.16-.15S206.9,78,206.79,78Z"/><path class="cls-6" d="M183.22,77.82a.13.13,0,0,1,.15.15Q183.21,78,183.22,77.82Z"/><path class="cls-6" d="M206.94,77.82q-.06-.21.15-.15C207.1,77.78,207,77.83,206.94,77.82Z"/><path class="cls-6" d="M183.07,77.67c.1,0,.16.06.16.16S183.06,77.79,183.07,77.67Z"/><path class="cls-6" d="M207.09,77.68q-.08-.23.15-.15A.13.13,0,0,1,207.09,77.68Z"/><path class="cls-6" d="M182.93,77.53a.13.13,0,0,1,.15.15Q182.92,77.69,182.93,77.53Z"/><path class="cls-6" d="M207.23,77.53q-.06-.21.15-.15C207.39,77.48,207.34,77.54,207.23,77.53Z"/><path class="cls-6" d="M182.78,77.38c.1,0,.15.06.16.16S182.77,77.5,182.78,77.38Z"/><path class="cls-6" d="M207.38,77.39c0-.15,0-.19.15-.16S207.48,77.39,207.38,77.39Z"/><path class="cls-6" d="M182.64,77.24a.13.13,0,0,1,.15.15Q182.63,77.41,182.64,77.24Z"/><path class="cls-6" d="M182.49,77.09a.14.14,0,0,1,.15.16C182.53,77.26,182.48,77.2,182.49,77.09Z"/><path class="cls-6" d="M182.35,76.94a.14.14,0,0,1,.15.16C182.39,77.1,182.34,77.05,182.35,76.94Z"/><path class="cls-6" d="M207.68,77q0-.15.15-.15C207.86,76.94,207.82,77,207.68,77Z"/><path class="cls-6" d="M208.26,76.37c0-.13,0-.19.14-.15S208.37,76.38,208.26,76.37Z"/><path class="cls-6" d="M180.27,74a.1.1,0,0,1,0,.1s-.05,0-.07-.06Z"/><polygon class="cls-6" points="179.58 72.78 179.58 72.78 179.56 72.78 179.58 72.78"/><path class="cls-16" d="M32.31,81.47q0-23,0-46c0-.56.15-.68.68-.67,3.4,0,6.79,0,10.19,0a1,1,0,0,1,1.19.81Q49.13,48.67,54,61.74a2.54,2.54,0,0,0,.1.25,3.69,3.69,0,0,0,.52-1.17q4.91-12.7,9.79-25.43a.79.79,0,0,1,.89-.6c3.61,0,7.22,0,10.84,0,.24,0,.61-.19.7.28a1.93,1.93,0,0,0-.07.86v38.2c0,2.23,0,4.46,0,6.69,0,.5-.13.66-.65.66-3,0-6.1,0-9.16,0q0-12,0-23.95v-.66a.89.89,0,0,0-.31.53L61.42,70.51,57.31,81c-.11.27-.19.55-.59.54-1.86,0-3.72.08-5.58-.07L45.5,66.57q-1.65-4.36-3.32-8.73c-.08-.2,0-.47-.32-.57-.21.28-.12.55-.12.81q0,11.3,0,22.6c0,.62-.16.84-.8.87C38.07,81.66,35.19,81.53,32.31,81.47Z"/><path class="cls-16" d="M82.05,72.23A16.72,16.72,0,0,1,93.91,48.58a17.6,17.6,0,0,1,12.62,2.08c0-.62,0-1.18,0-1.74,0-.3,0-.49.41-.48h8.14c.2,0,.4,0,.43.26a2.43,2.43,0,0,0-.07.93q0,15.58,0,31.16c0,.66-.16.86-.83.85-2.69,0-5.38,0-8.07,0,0-.7,0-1.4,0-2.1,0,0,0,0,0-.07s0-.06,0-.06c-.24-.05-.39.13-.56.23a16.54,16.54,0,0,1-14.59,1.2c-.52-.19-1-.57-1.55-.54h0c0-.18-.14-.22-.3-.16h0a1.26,1.26,0,0,0-1-.59h0a2.41,2.41,0,0,0-1.19-.87h0a.77.77,0,0,0-.58-.45h0a.14.14,0,0,0-.16-.15h0a1.21,1.21,0,0,0-.73-.6h0a.14.14,0,0,0-.16-.16h0a.13.13,0,0,0-.15-.15h0a.15.15,0,0,0-.16-.16h0a.13.13,0,0,0-.15-.15h0c0-.11-.06-.16-.16-.16h0a.13.13,0,0,0-.15-.15h0a.14.14,0,0,0-.16-.15h0a.63.63,0,0,0-.39-.49l0,0,0,0a.29.29,0,0,0-.21-.25v0l-.14-.17h0a1,1,0,0,0-.45-.59h0a6.35,6.35,0,0,0-.84-1.29.18.18,0,0,1,0-.07s0-.07,0-.1a.25.25,0,0,1-.08-.12l-.08-.16a.28.28,0,0,1-.08-.11l-.21-.44-.09-.16-.06-.13-.09-.16A.08.08,0,0,0,82.05,72.23ZM102.45,60a.16.16,0,0,0-.15-.16h0c0-.14-.13-.22-.29-.17h0a.52.52,0,0,0-.59-.44h0c0-.16-.08-.21-.18-.27A6.64,6.64,0,0,0,97,58a3.92,3.92,0,0,0-2.52.81h0c-.16-.07-.27,0-.3.15h0a.62.62,0,0,0-.74.44h0c-.32,0-.56.08-.59.44h0c-.14,0-.2,0-.16.15h0a.72.72,0,0,0-.73.74h0c-.15,0-.18,0-.14.15h0c-.33,0-.38.26-.5.43a6.59,6.59,0,0,0-.93,5.52l.1.29,0,.23.28.67c2.06,4.83,8.3,6.09,11.73,2.29a7.45,7.45,0,0,0,1.32-8.37v0l-.1-.16a.69.69,0,0,0-.24-.44s0,0,0-.06a.58.58,0,0,0-.28-.4h0a.39.39,0,0,0-.25-.32l0,.05,0-.05a.29.29,0,0,0-.22-.24h0a.15.15,0,0,0-.15-.16h0a.16.16,0,0,0-.16-.15Z"/><path class="cls-16" d="M121,81.34q0-16.05,0-32.09c0-.66.17-.83.82-.82,2.69,0,5.38,0,8.07,0,.23,0,.54-.15.7.18,0,.27,0,.53,0,.8q0,15.59,0,31.17c0,.67-.18.86-.85.85-2.64,0-5.28,0-7.93,0A1.61,1.61,0,0,1,121,81.34Z"/><path class="cls-16" d="M125.59,34.8c1.43,0,2.87,0,4.3,0,.39,0,.58.1.58.51,0,2.67,0,5.33,0,8,0,.5-.36.37-.62.37-1.21,0-2.42,0-3.63,0-1.6,0-3.2,0-4.8,0-.43,0-.59-.1-.59-.57,0-2.57,0-5.14,0-7.71,0-.54.19-.63.67-.62C122.88,34.82,124.24,34.8,125.59,34.8Z"/><path class="cls-6" d="M66.93,81.47c3.06,0,6.11,0,9.16,0,.52,0,.66-.16.65-.66,0-2.23,0-4.46,0-6.69V36a1.93,1.93,0,0,1,.07-.86c.24.18.13.44.13.67q0,22.67,0,45.34c0,.53-.19.67-.67.67-3,0-5.92,0-8.88,0C67.22,81.75,66.88,81.9,66.93,81.47Z"/><path class="cls-6" d="M106.55,81.63c2.69,0,5.38,0,8.07,0,.67,0,.84-.19.83-.85q0-15.57,0-31.16a2.43,2.43,0,0,1,.07-.93c.25.21.13.5.13.74q0,15.88,0,31.76c0,.57-.2.71-.71.7h-7.86C106.89,81.9,106.57,82.05,106.55,81.63Z"/><path class="cls-6" d="M51.14,81.42c1.86.15,3.72,0,5.58.07.4,0,.48-.27.59-.54l4.11-10.44,5.19-13.12a.89.89,0,0,1,.31-.53v.66c-.3.11-.3.41-.39.65Q62,69.59,57.49,81c-.11.29-.11.72-.6.71a6.42,6.42,0,0,0-2.27-.11,15.16,15.16,0,0,0-3.23.1C51.18,81.73,51.08,81.64,51.14,81.42Z"/><path class="cls-11" d="M121,81.34a1.61,1.61,0,0,0,.78.1c2.65,0,5.29,0,7.93,0,.67,0,.85-.18.85-.85q0-15.59,0-31.17c0-.27,0-.53,0-.8.24.19.13.45.13.68q0,15.82,0,31.65c0,.5-.12.68-.64.68-2.86,0-5.72,0-8.58,0C121.3,81.62,120.88,81.87,121,81.34Z"/><path class="cls-11" d="M32.31,81.47c2.88.06,5.76.19,8.64.08.64,0,.8-.25.8-.87q0-11.3,0-22.6c0-.26-.09-.53.12-.81.27.1.24.37.32.57-.45.15-.26.52-.26.8q0,11.16,0,22.31c0,.63-.14.85-.8.84-2.74,0-5.48,0-8.22,0C32.7,81.76,32.3,82,32.31,81.47Z"/><path class="cls-6" d="M89.79,80.29c.59,0,1,.35,1.55.54a16.54,16.54,0,0,0,14.59-1.2c.17-.1.32-.28.56-.23,0,0,0,0,0,.06s0,.05,0,.07a16.45,16.45,0,0,1-9.94,2.65A16.8,16.8,0,0,1,90,80.47,1.12,1.12,0,0,1,89.79,80.29Z"/><path class="cls-9" d="M51.39,81.72a15.16,15.16,0,0,1,3.23-.1,6.42,6.42,0,0,1,2.27.11Z"/><path class="cls-6" d="M82.85,73.77a6.35,6.35,0,0,1,.84,1.29A2.14,2.14,0,0,1,82.85,73.77Z"/><path class="cls-6" d="M87.3,78.7a2.41,2.41,0,0,1,1.19.87A2,2,0,0,1,87.3,78.7Z"/><path class="cls-6" d="M88.48,79.56a1.26,1.26,0,0,1,1,.59A1.8,1.8,0,0,1,88.48,79.56Z"/><path class="cls-6" d="M85.86,77.53a1.21,1.21,0,0,1,.73.6A.86.86,0,0,1,85.86,77.53Z"/><path class="cls-6" d="M86.73,78.26a.77.77,0,0,1,.58.45A.53.53,0,0,1,86.73,78.26Z"/><path class="cls-6" d="M83.68,75.05a1,1,0,0,1,.45.59A.61.61,0,0,1,83.68,75.05Z"/><path class="cls-6" d="M84.46,76a.63.63,0,0,1,.39.49A.45.45,0,0,1,84.46,76Z"/><path class="cls-6" d="M82.32,72.77l.21.44C82.32,73.13,82.3,73,82.32,72.77Z"/><path class="cls-6" d="M84.25,75.78a.29.29,0,0,1,.21.25C84.29,76,84.24,75.94,84.25,75.78Z"/><path class="cls-6" d="M82.05,72.23a.08.08,0,0,1,0,.09L82,72.26Z"/><path class="cls-6" d="M82.17,72.48l.06.13a.3.3,0,0,1-.08-.08S82.17,72.5,82.17,72.48Z"/><path class="cls-6" d="M89.5,80.14c.16-.06.27,0,.3.16C89.66,80.32,89.54,80.31,89.5,80.14Z"/><path class="cls-6" d="M82.61,73.32l.08.16C82.55,73.48,82.59,73.4,82.61,73.32Z"/><path class="cls-6" d="M86.57,78.12a.14.14,0,0,1,.16.15C86.6,78.31,86.54,78.26,86.57,78.12Z"/><path class="cls-6" d="M85.71,77.38a.14.14,0,0,1,.16.16C85.75,77.55,85.7,77.5,85.71,77.38Z"/><path class="cls-6" d="M85.57,77.24a.13.13,0,0,1,.15.15Q85.56,77.41,85.57,77.24Z"/><path class="cls-6" d="M85.42,77.09a.15.15,0,0,1,.16.16C85.46,77.26,85.41,77.21,85.42,77.09Z"/><path class="cls-6" d="M85.28,77a.13.13,0,0,1,.15.15Q85.26,77.12,85.28,77Z"/><path class="cls-6" d="M85.13,76.8c.1,0,.15,0,.16.16S85.12,76.91,85.13,76.8Z"/><path class="cls-6" d="M84.84,76.51a.14.14,0,0,1,.16.15C84.88,76.67,84.84,76.62,84.84,76.51Z"/><path class="cls-6" d="M84.12,75.63l.14.17C84.16,75.79,84.12,75.73,84.12,75.63Z"/><path class="cls-6" d="M82.77,73.6s0,.06,0,.1l0,0Z"/><path class="cls-6" d="M85,76.66a.13.13,0,0,1,.15.15Q85,76.82,85,76.66Z"/><path class="cls-7" d="M123.82,95.51c.11.41-.15.65-.24.94s-.14.41.06.53a.42.42,0,0,0,.53-.1,1.14,1.14,0,0,1,1.26-.48.34.34,0,0,0,.41-.22c.06-.2-.15-.26-.3-.34-.33-.18-.92-.41-.76-.73s.71,0,1.07.11a6.84,6.84,0,0,0,1.62.32c.5.06.56.3.3.68a1.37,1.37,0,0,1-1.25.73,1.21,1.21,0,0,0-1.23.71c-.3.53-.72.57-1.1.1s-.41-.28-.74-.06c-.52.35-1,.66-1.06,1.36,0,.29-.36.44-.68.45s-.47-.2-.6-.44l0-.07c-.21-.34-.18-.94-.63-1s-.45.57-.74.82a2.63,2.63,0,0,1-.39.18,13.07,13.07,0,0,0,.6-1.94c.14-.43.7-.36.92-.11a1.94,1.94,0,0,0,1.14.55c1,.25,1.23,0,1.11-1A.89.89,0,0,1,123.82,95.51Z"/><path class="cls-13" d="M118.55,98.94a.72.72,0,0,1-.67.34c-.55,0-1,0-1.24.68a.34.34,0,0,1-.56.09c-.29-.51-.72-.46-1.18-.43s-.48-.14-.27-.48a1.41,1.41,0,0,1,1.51-.59C117,98.65,117.74,98.81,118.55,98.94Z"/><path class="cls-13" d="M156.87,32.8a7,7,0,0,0-2.18,1.87.28.28,0,0,1-.38.12c-.15-.1-.07-.24,0-.38a16.34,16.34,0,0,1,1.11-1.84c.09-.17.23-.16.37-.09A4.18,4.18,0,0,0,156.87,32.8Z"/><path class="cls-7" d="M165.46,26.69a1.49,1.49,0,0,1-1.14,1.15.57.57,0,0,1-.62-.48c-.08-.39.61-.9,1.21-.89C165.13,26.47,165.41,26.43,165.46,26.69Z"/><path class="cls-13" d="M113.51,99.63a4.27,4.27,0,0,1-2.92,1c-.31-.11-.37-.28-.11-.52a.61.61,0,0,1,.45-.2,14.22,14.22,0,0,0,2.6-.25Z"/><path class="cls-13" d="M117.57,96.66c-.08.4-.29.67-.73.65-.27,0-.65-.12-.6-.38a.84.84,0,0,1,.84-.66C117.34,96.26,117.55,96.34,117.57,96.66Z"/><path class="cls-12" d="M133,93.41c-.13.34-.31.64-.69.66a.34.34,0,0,1-.36-.44c.09-.29.26-.59.66-.54C132.78,93.11,133,93.12,133,93.41Z"/><path class="cls-12" d="M128.87,97.78c.15.09.47-.07.47.21s-.36.43-.64.44-.53,0-.48-.3S128.61,97.84,128.87,97.78Z"/><path class="cls-13" d="M118.74,97.64a.82.82,0,0,1-.57.65.21.21,0,0,1-.27-.24c.06-.3.15-.61.56-.63C118.6,97.42,118.76,97.39,118.74,97.64Z"/><path class="cls-13" d="M110.2,97.86a.68.68,0,0,1,.09-.14.9.9,0,0,1,1-.12.16.16,0,0,1,0,.29A.86.86,0,0,1,110.2,97.86Z"/><path class="cls-13" d="M108.48,98.79c-.15,0-.39,0-.31-.25a.55.55,0,0,1,.62-.39c.12,0,.34,0,.29.19A.58.58,0,0,1,108.48,98.79Z"/><path class="cls-13" d="M113.53,99.65v-.11l.09,0-.1.06Z"/><path class="cls-14" d="M201.4,61.86a7.13,7.13,0,0,1-3.46,9.92A7.42,7.42,0,0,1,188,67.42a.52.52,0,0,0-.06-.13c0-.15.06-.3-.09-.41a.15.15,0,0,0,0-.11,9.08,9.08,0,0,1,1.1-5.38h0a.72.72,0,0,0,.44-.58h0c.11,0,.15,0,.15-.15h0c.11,0,.16-.05.15-.16h0q.16,0,.15-.15h0c.1,0,.15,0,.15-.15h0c.11,0,.16,0,.16-.15h0c.11,0,.16,0,.15-.14h0q.16,0,.15-.15h0a.84.84,0,0,0,.58-.44h0a1.19,1.19,0,0,0,.73-.44h0c.15,0,.27,0,.41-.1a7.46,7.46,0,0,1,4.38-.49c.88.16,1.62.68,2.48.89h0c0,.24.16.25.32.27h0c.05.14.13.23.29.16h0a2.47,2.47,0,0,0,1,1h0a.14.14,0,0,0,.15.16h0a.39.39,0,0,0,.31.42h0c0,.11,0,.2.14.2a.36.36,0,0,0,.07.1l0,0,.06,0a.21.21,0,0,0,.06.1Z"/><path class="cls-6" d="M198.94,59.22c-.86-.21-1.6-.73-2.48-.89a7.46,7.46,0,0,0-4.38.49c-.14.06-.26.15-.41.1.13-.34.47-.36.75-.47a7.11,7.11,0,0,1,6,.35C198.58,58.9,198.84,59,198.94,59.22Z"/><path class="cls-6" d="M188.91,61.39a9.08,9.08,0,0,0-1.1,5.38,6.54,6.54,0,0,1,.69-4.95C188.59,61.65,188.6,61.37,188.91,61.39Z"/><path class="cls-6" d="M200.55,60.66a2.47,2.47,0,0,1-1-1A2,2,0,0,1,200.55,60.66Z"/><path class="cls-6" d="M191.67,58.92a1.19,1.19,0,0,1-.73.44A.63.63,0,0,1,191.67,58.92Z"/><path class="cls-6" d="M190.94,59.36a.84.84,0,0,1-.58.44C190.41,59.45,190.62,59.34,190.94,59.36Z"/><path class="cls-6" d="M189.34,60.81a.72.72,0,0,1-.44.58C188.89,61.08,189,60.86,189.34,60.81Z"/><path class="cls-6" d="M201,61.22a.39.39,0,0,1-.31-.42A.54.54,0,0,1,201,61.22Z"/><path class="cls-6" d="M199.24,59.49c-.16,0-.34,0-.32-.27C199.1,59.23,199.26,59.25,199.24,59.49Z"/><path class="cls-6" d="M187.85,66.88c.15.11.12.26.09.41Z"/><path class="cls-6" d="M201.4,61.86l-.08-.14Z"/><path class="cls-6" d="M201.15,61.43c-.14,0-.14-.09-.14-.2Z"/><path class="cls-6" d="M199.52,59.65c-.16.07-.24,0-.29-.16C199.4,59.42,199.48,59.51,199.52,59.65Z"/><path class="cls-6" d="M201.26,61.62l-.06,0,0,0A.07.07,0,0,1,201.26,61.62Z"/><path class="cls-6" d="M200.69,60.81a.14.14,0,0,1-.15-.16A.16.16,0,0,1,200.69,60.81Z"/><path class="cls-6" d="M189.49,60.66c0,.11,0,.16-.15.15S189.34,60.62,189.49,60.66Z"/><path class="cls-6" d="M189.63,60.51c0,.11,0,.16-.15.16S189.48,60.47,189.63,60.51Z"/><path class="cls-6" d="M189.77,60.37q0,.15-.15.15C189.58,60.37,189.63,60.33,189.77,60.37Z"/><path class="cls-6" d="M189.92,60.22c0,.1,0,.16-.15.15S189.78,60.18,189.92,60.22Z"/><path class="cls-6" d="M190.07,60.08c0,.1,0,.15-.16.15S189.92,60,190.07,60.08Z"/><path class="cls-6" d="M190.21,59.94c0,.1,0,.15-.15.14S190.07,59.89,190.21,59.94Z"/><path class="cls-6" d="M190.36,59.79q0,.16-.15.15C190.17,59.79,190.23,59.76,190.36,59.79Z"/><path class="cls-7" d="M214.52,81.17a2.43,2.43,0,0,1-2.72.39A2.48,2.48,0,0,1,210.38,79,2.65,2.65,0,0,1,212,76.7a2.55,2.55,0,0,1,2.86.66,2.51,2.51,0,0,1-.37,3.82c0-.53-.38-.87-.62-1.28s-.25-.39.13-.56a1,1,0,0,0,.53-1.15,1,1,0,0,0-.94-1c-.52,0-1.06,0-1.59-.07-.23,0-.35.08-.35.33,0,1.12,0,2.23,0,3.34,0,.27.17.31.39.32s.33-.14.33-.37,0-.48,0-.73-.07-.45.26-.5a.49.49,0,0,1,.53.29,5.34,5.34,0,0,1,.41.68A.87.87,0,0,0,214.52,81.17Z"/><path class="cls-14" d="M103.88,61.87a7.45,7.45,0,0,1-1.32,8.37C99.13,74,92.89,72.78,90.83,68l-.28-.67c0-.08.07-.17,0-.23l-.1-.29a8.08,8.08,0,0,1,1.43-6h0c.11,0,.15-.05.14-.15h0a3.2,3.2,0,0,0,.73-.74h0c.11,0,.16,0,.16-.15h0a.91.91,0,0,0,.59-.44h0a1.29,1.29,0,0,0,.74-.44h0c.13,0,.26,0,.3-.15h0a22.74,22.74,0,0,1,2.5-.59,8.35,8.35,0,0,1,4.49,1h0a.83.83,0,0,0,.59.44h0c0,.15.13.23.29.17h0c0,.13,0,.17.15.16h0c0,.12,0,.17.16.15h0c0,.12,0,.17.15.16h0c0,.16,0,.24.22.24l0,.05,0-.05c0,.2.07.29.25.32h0c0,.2,0,.36.28.4,0,0,0,.05,0,.06,0,.19,0,.36.24.44l.1.16,0,0Z"/><path class="cls-6" d="M101.44,59.21a8.35,8.35,0,0,0-4.49-1,22.74,22.74,0,0,0-2.5.59A3.92,3.92,0,0,1,97,58a6.64,6.64,0,0,1,4.29,1C101.36,59,101.48,59.05,101.44,59.21Z"/><path class="cls-6" d="M91.84,60.81a8.08,8.08,0,0,0-1.43,6,6.59,6.59,0,0,1,.93-5.52C91.46,61.07,91.51,60.77,91.84,60.81Z"/><path class="cls-6" d="M92.71,59.93a3.2,3.2,0,0,1-.73.74A.72.72,0,0,1,92.71,59.93Z"/><path class="cls-6" d="M94.17,58.92a1.29,1.29,0,0,1-.74.44A.62.62,0,0,1,94.17,58.92Z"/><path class="cls-6" d="M93.44,59.35a.91.91,0,0,1-.59.44C92.88,59.43,93.12,59.33,93.44,59.35Z"/><path class="cls-6" d="M102,59.64a.83.83,0,0,1-.59-.44A.52.52,0,0,1,102,59.64Z"/><path class="cls-6" d="M103.77,61.69c-.2-.08-.23-.25-.24-.44A.69.69,0,0,1,103.77,61.69Z"/><path class="cls-6" d="M103.48,61.19c-.23,0-.27-.2-.28-.4A.58.58,0,0,1,103.48,61.19Z"/><path class="cls-6" d="M103.2,60.79c-.18,0-.29-.12-.25-.32A.39.39,0,0,1,103.2,60.79Z"/><path class="cls-6" d="M90.51,67.05c.11.06.08.15,0,.23A1.85,1.85,0,0,0,90.51,67.05Z"/><path class="cls-6" d="M94.46,58.77c0,.18-.17.17-.3.15C94.19,58.74,94.3,58.7,94.46,58.77Z"/><path class="cls-6" d="M102.31,59.8c-.16.06-.24,0-.29-.17C102.18,59.58,102.26,59.66,102.31,59.8Z"/><path class="cls-6" d="M103,60.47c-.17,0-.24-.08-.22-.24A.29.29,0,0,1,103,60.47Z"/><polygon class="cls-6" points="103.88 61.87 103.85 61.87 103.87 61.85 103.88 61.87"/><path class="cls-6" d="M92,60.66c0,.1,0,.16-.14.15S91.83,60.61,92,60.66Z"/><path class="cls-6" d="M102.74,60.24c-.11,0-.16,0-.15-.16A.15.15,0,0,1,102.74,60.24Z"/><path class="cls-6" d="M102.6,60.09c-.12,0-.17,0-.16-.15A.16.16,0,0,1,102.6,60.09Z"/><path class="cls-6" d="M102.45,60c-.11,0-.17,0-.15-.16A.16.16,0,0,1,102.45,60Z"/><path class="cls-6" d="M92.86,59.79c0,.11,0,.16-.16.15S92.72,59.75,92.86,59.79Z"/><path class="cls-4" d="M214.52,81.17a.87.87,0,0,1-1-.65,5.34,5.34,0,0,0-.41-.68.49.49,0,0,0-.53-.29c-.33,0-.25.3-.26.5s0,.49,0,.73-.08.37-.33.37-.39-.05-.39-.32c0-1.11,0-2.22,0-3.34,0-.25.12-.34.35-.33.53,0,1.07,0,1.59.07a1,1,0,0,1,.94,1,1,1,0,0,1-.53,1.15c-.38.17-.29.3-.13.56s.63.75.62,1.28Zm-2.21-2.37a2.58,2.58,0,0,0,1.14,0,.48.48,0,0,0,.37-.54c0-.27-.22-.27-.4-.32C212.52,77.7,212.38,77.8,212.31,78.8Z"/><path class="cls-13" d="M212.31,78.8c.07-1,.21-1.1,1.11-.88.18,0,.39,0,.4.32a.48.48,0,0,1-.37.54A2.58,2.58,0,0,1,212.31,78.8Z"/></g></g></g></svg>