<svg xmlns="http://www.w3.org/2000/svg" viewBox="0 0 223.59 96.99"><defs><style>.cls-1{fill:#fefefe;}</style></defs><g id="Layer_2" data-name="Layer 2"><g id="Layer_1-2" data-name="Layer 1"><path class="cls-1" d="M190.18,50.35a.14.14,0,0,1-.14-.16,2.54,2.54,0,0,1-1-1c-.16.06-.23,0-.28-.16s-.33,0-.31-.27c-.85-.21-1.59-.73-2.47-.89a7.39,7.39,0,0,0-4.38.49c-.13.06-.25.15-.41.1a1.16,1.16,0,0,1-.72.44.84.84,0,0,1-.59.43c0,.11,0,.15-.14.15s-.05.14-.15.14-.05.14-.15.14,0,.15-.14.15-.05.14-.15.15a.12.12,0,0,1-.14.14c0,.1,0,.16-.14.15a.79.79,0,0,1-.44.58,9,9,0,0,0-1.09,5.37,6.07,6.07,0,0,1-.22-1.92,6.07,6.07,0,0,0,.22,1.92.27.27,0,0,1,0,.12c.15.11.12.26.1.4l.06.14a7.42,7.42,0,0,0,9.94,4.36,7.12,7.12,0,0,0,3.45-9.92.64.64,0,0,0-.08-.14.64.64,0,0,1,.08.14l-.08-.14a.21.21,0,0,1-.06-.1l-.05,0,0-.06a.16.16,0,0,1-.07-.09c-.14,0-.15-.1-.15-.2l.15.2-.15-.2v0A.36.36,0,0,1,190.18,50.35Z"/><path class="cls-1" d="M92.23,49.77c-.1,0-.15,0-.14-.14s-.16,0-.15-.15-.16,0-.15-.14c-.15,0-.23,0-.27-.17a.86.86,0,0,1-.59-.43,8.43,8.43,0,0,0-4.49-1,23.08,23.08,0,0,0-2.49.58c0,.18-.16.17-.29.15a1.28,1.28,0,0,1-.73.43,1,1,0,0,1-.58.44c0,.11,0,.15-.15.14a2.94,2.94,0,0,1-.72.73c0,.1,0,.16-.15.15a8.07,8.07,0,0,0-1.42,5.95c0,.09.06.19.1.29s.07.14,0,.23l.27.67c2.06,4.83,8.31,6.08,11.74,2.29a7.46,7.46,0,0,0,1.32-8.37h0l0,0-.11-.16c-.2-.08-.23-.25-.24-.44a.69.69,0,0,1,.24.44.69.69,0,0,0-.24-.44.1.1,0,0,1,0-.06c-.22,0-.27-.21-.28-.4-.18,0-.28-.13-.25-.32a.43.43,0,0,1,.17.12.43.43,0,0,0-.17-.12l0,.05,0-.06C92.28,50,92.22,49.93,92.23,49.77Z"/><path class="cls-1" d="M211.59,0H12A12,12,0,0,0,0,12V85A12,12,0,0,0,12,97H211.59a12,12,0,0,0,12-12V12A12,12,0,0,0,211.59,0ZM176,4h0c.27-.3.66-.1,1-.21s.32.22.47.35a.78.78,0,0,0,0,.58,1.19,1.19,0,0,1-1.82.41C175.71,4.73,175.62,4.3,176,4ZM120.17,38.84q0,15.84,0,31.66c0,.5-.12.68-.64.68-2.86,0-5.72,0-8.57,0-.18,0-.59.25-.51-.28q0-16,0-32.09c0-.67.17-.83.83-.82,2.69,0,5.37,0,8.06,0,.24,0,.54-.16.71.18C120.28,38.36,120.17,38.62,120.17,38.84ZM111,24.33c1.35,0,2.71,0,4.07,0s2.86,0,4.29,0c.39,0,.58.09.58.51,0,2.66,0,5.33,0,8,0,.5-.36.38-.61.38-1.21,0-2.43,0-3.64,0-1.6,0-3.2,0-4.8,0-.42,0-.59-.11-.58-.58q0-3.84,0-7.7C110.34,24.41,110.54,24.32,111,24.33ZM66.44,70.64c0,.53-.18.67-.67.67-3,0-5.91,0-8.87,0-.18,0-.52.15-.47-.28q0-12,0-24c-.29.11-.3.41-.39.64q-4.52,11.43-9,22.86c-.11.29-.11.71-.59.7h-5.5c-.22,0-.32-.07-.26-.29L35,56.11l-3.33-8.74c-.44.15-.26.53-.26.81,0,7.44,0,14.87,0,22.31,0,.63-.15.84-.81.84-2.73,0-5.47,0-8.21,0-.21,0-.61.21-.59-.3q0-23,0-46c0-.55.16-.67.69-.66,3.39,0,6.79,0,10.18,0a1,1,0,0,1,1.19.81q4.78,13.08,9.6,26.15c0,.07.06.13.1.24a3.46,3.46,0,0,0,.53-1.16Q49,37.66,53.87,24.93a.79.79,0,0,1,.88-.61c3.62,0,7.23,0,10.84,0,.25,0,.62-.19.7.28.25.18.13.44.13.67Q66.44,48,66.44,70.64Zm19,19.75a6.37,6.37,0,0,1-3.17.5,2.59,2.59,0,0,0-2,.61l-.51.07a3.66,3.66,0,0,0-1.71-.09c-.64,0-.83-.3-.52-.87a3.25,3.25,0,0,1,1-1.07c.3-.2.81-.87.8.22,0,.07.14.2.24.22a3.94,3.94,0,0,0,1.93,0,.36.36,0,0,0,.27-.31c.2-1.25,1.35-1,2.09-1.16a2,2,0,0,1,2.07,1C86.16,90,85.85,90.21,85.48,90.39ZM79.49,70a1.12,1.12,0,0,1-.2-.17c-.14,0-.25,0-.29-.16a1.73,1.73,0,0,1-1-.58,2,2,0,0,1-1.18-.85.55.55,0,0,1-.58-.44c-.12,0-.17,0-.15-.14a.86.86,0,0,1-.71-.6c-.11,0-.16,0-.15-.14s-.15,0-.15-.15-.15,0-.14-.14a.13.13,0,0,1-.15-.15c-.1,0-.15,0-.14-.14a.13.13,0,0,1-.15-.15c-.1,0-.14,0-.14-.15a.45.45,0,0,1-.39-.48l0,0,0,0c-.16,0-.21-.1-.2-.24s-.13-.06-.13-.16a.59.59,0,0,1-.44-.58,2.06,2.06,0,0,1-.83-1.28.1.1,0,0,1,0-.08l-.06,0,0-.06a.36.36,0,0,1-.08-.12c-.13,0-.09-.08-.07-.16a.21.21,0,0,1-.08-.11c-.21-.08-.23-.25-.22-.44l-.09-.16-.07-.08s0,0,0,0l-.1-.16,0-.06,0,0A16.73,16.73,0,0,1,83.4,38.11,17.68,17.68,0,0,1,96,40.2c0-.62,0-1.18,0-1.74,0-.31,0-.49.41-.49,2.72,0,5.43,0,8.14,0,.2,0,.4,0,.43.26.26.22.13.5.13.75q0,15.88,0,31.76c0,.57-.19.71-.71.7H96.59c-.2,0-.53.15-.55-.27,0-.7,0-1.4,0-2.1a16.43,16.43,0,0,1-9.94,2.65A16.76,16.76,0,0,1,79.49,70Zm43,19.68a2.84,2.84,0,0,1-1.2.26c-.23-.1-.6.07-.69-.35s.18-.52.45-.65a2,2,0,0,1,1.31-.25.61.61,0,0,1,.5.46C123,89.48,122.69,89.58,122.5,89.69Zm9.21-4.9c-.44,0-.41-.31-.46-.62s.05-.67.49-.66a.63.63,0,0,1,.59.69A.61.61,0,0,1,131.71,84.79Zm32.85-38.72c0,.51-.12.69-.64.66-.84,0-1.7,0-2.54,0-.64,0-.82.14-.81.79q0,6.28,0,12.57a6.14,6.14,0,0,1-.12,2.34c0,.41.27.32.49.32,1,0,1.92,0,2.89,0,.21,0,.5-.14.61.19.15.14.11.32.11.48q0,3.72,0,7.45c0,.11,0,.24-.13.29h0c-.1.27-.33.14-.5.14-2.83,0-5.66.06-8.49,0a4.14,4.14,0,0,1-3.1-1h0c-.12,0-.18,0-.15-.15-.12,0-.17,0-.15-.14s-.15,0-.14-.15a.13.13,0,0,1-.13-.16c-.22-.06-.26-.22-.24-.42a.16.16,0,0,1-.06-.08c-.08,0-.12-.08-.08-.17a.61.61,0,0,0-.07-.14h0a8.37,8.37,0,0,1-.71-3.43c0-6,0-12,0-18,0-.26,0-.53,0-.79-1.32.13-2.64,0-4,.05-.11,0-.18-.05-.18-.17,0-2.66,0-5.33-.06-8,0-.39.19-.42.49-.41,1,0,2.09,0,3.13,0,.53,0,.63-.15.62-.65,0-3.92,0-7.84,0-11.77,0-.59.13-.78.75-.77q4.17,0,8.36,0c.63,0,.77.21.77.79,0,4,0,7.9,0,11.84,0,.46.07.58.52.56.95,0,1.89,0,2.84,0,.21,0,.5-.16.62.19s.1.46.1.69C164.55,41.37,164.53,43.72,164.56,46.07Zm.66-33.7a2.22,2.22,0,0,1-2.42,1.45.56.56,0,0,0-.6.33c-.12.23,0,.4.16.58.82,1.16.71,1.5-.66,1.92a7.09,7.09,0,0,1-.91.22,2.75,2.75,0,0,0-2.3,1.63,1,1,0,0,1-1.15.7,3,3,0,0,0-3.1,1.39,2.05,2.05,0,0,1-1.47,1,1.23,1.23,0,0,1-1.09-.25c-.16-.16-.33-.22-.48,0s.07.29.17.39c.6.59.59.73-.22,1.08a17.67,17.67,0,0,0-5.73,3.71,15.83,15.83,0,0,0-3.53,4.47c-.25.56-.91.92-1.35,1.4a12.71,12.71,0,0,0-2.46,4.14c-.17.45-.32.69-.82.49a1.26,1.26,0,0,0-.28-.05c-.27-.06-.62-.11-.72.14s.24.45.44.56c.57.3.52.5.26,1.12a5.88,5.88,0,0,0,0,5.31q2.4,4.52,5.05,8.89A26.13,26.13,0,0,1,145,59.56a18.44,18.44,0,0,1-.05,8.13,24,24,0,0,1-2,5.53c-1.62,3.66-4.63,6-7.49,8.48-.38.32-.81.59-1.24,0-.07-.08-.2-.17-.32-.08a.38.38,0,0,0-.18.37c0,.14.12.26.15.4.07.3.27.67,0,.88a.87.87,0,0,1-1-.19c-.26-.19-.39-.64-.81-.51a1.88,1.88,0,0,0-1,1,3.16,3.16,0,0,0-.2.54c-.07.23-.08.53-.37.57s-.29-.32-.41-.5,0-.32-.24-.3-.23.14-.31.27c-.46.73-.43.82.41.93.2,0,.37,0,.46.27s0,.36-.17.5A1.14,1.14,0,0,1,130,86c-.46.39-1,1-1.56.64s-.08-1,0-1.46a1.87,1.87,0,0,0,.12-.9A12.12,12.12,0,0,1,126,85.6a.69.69,0,0,0-.41.78c.1.37.49.35.8.31s.75-.14,1.13-.21a3.65,3.65,0,0,1-2.2,2c-.51,0-.4-.33-.36-.6s.21-.68-.24-.93a1.05,1.05,0,0,0-1.21,0,5.34,5.34,0,0,1-2.59,1c-.58,0-.94.55-1.22,1-.58,1.07-.58,1.07-1.8.79a9.37,9.37,0,0,1-.92-.19,1.69,1.69,0,0,0-1.8.41c-.31.3-.64.52-1.07.15s-.79-.13-1,.33-.27.82-.67,1.08c-1.07.37-2.14.73-3.18-.06-.59-1.2-1.54-1.26-2.74-1.09-1.45.2-2.93.23-4.36.55a5.26,5.26,0,0,1-2.56-.18,10,10,0,0,0-4.76.23,12.27,12.27,0,0,1-5,.39c-.22,0-.47-.06-.58-.25-.35-.66-1-.73-1.59-.79a.9.9,0,0,1-.85-.77c-.08-.45.25-.61.56-.75a6.51,6.51,0,0,0,2.09-1.4,1.27,1.27,0,0,1,2.19.64c.11.38.48.51.65.89-.37.16-1,0-.86.73s.35,1,1.17.71A25.16,25.16,0,0,1,96,89.29c.3-.06.64-.19.62-.59s-.46-.29-.69-.33a14,14,0,0,0-1.59-.09.78.78,0,0,1-.81-.84c0-.51.34-.65.73-.73,1.1-.26,2.23-.07,3.33-.28a3.92,3.92,0,0,0,.77-.18,28.5,28.5,0,0,1,8.87-2,5.31,5.31,0,0,0,1.88-.47c.19-.1.42-.26.35-.5s-.32-.17-.51-.2a8.88,8.88,0,0,0-5.16.82,4.46,4.46,0,0,1-3.39.09c-.24-.09-.52-.18-.49-.45s.36-.17.55-.16a12.33,12.33,0,0,0,5.8-1.38,2.12,2.12,0,0,1,1.6-.15,1.18,1.18,0,0,0,1.17-.17.89.89,0,0,1,.41-.15,11.88,11.88,0,0,0,6.58-3.22,2.4,2.4,0,0,1,.55-.34A46.8,46.8,0,0,0,124,73.19a3.53,3.53,0,0,0,.71-.82c.64-.88,1.07-1,2-.3a2.92,2.92,0,0,1,.29.23.9.9,0,0,0-.14-.85,1,1,0,0,1,.43-1.41c.44-.26.88-.52,1.32-.76A3.07,3.07,0,0,0,130,67.82a11.46,11.46,0,0,0,.82-6,4.28,4.28,0,0,0-1.48-2.59,18.58,18.58,0,0,1-6.09-12.42c-.73-7.58,2.06-13.86,7.73-18.92a34.94,34.94,0,0,1,8.24-5.36,1.32,1.32,0,0,1,1.44-.1.43.43,0,0,0,.58-.15,6.48,6.48,0,0,1,2-1.35,11.54,11.54,0,0,0,3.11-2.35,1.81,1.81,0,0,1,1.73-.52c.6.09.81.59.41,1.05s-1,.95-1.37,1.49c-.25.33-.62.42-.83-.11-.09-.21-.18-.41-.46-.27a.93.93,0,0,0-.49.69c0,.31.3.21.49.25a2.77,2.77,0,0,1,.49.15c1.06.44,1.28.36,1.72-.66a.65.65,0,0,1,.84-.38,1.08,1.08,0,0,0,1.4-.69.58.58,0,0,1,.42-.37c1-.15,1.46-.93,2.16-1.72-.51,0-.88,0-1.25,0a.68.68,0,0,1-.66-.56c-.11-.37.22-.38.4-.5a5.73,5.73,0,0,0,1.48-1.26,1.27,1.27,0,0,1,1.56-.45.73.73,0,0,0,.88-.15c.76-.61,1-.58,1.6.2a.7.7,0,0,0,1,.2c1-.65,2-1.26,3-1.88,1.32-.83,2.37-2.25,4.16-2.33a2.69,2.69,0,0,0,1.81-1,3.35,3.35,0,0,1,1.72-1c.37-.08.73-.19.78-.71s.48-.35.76-.38a3,3,0,0,0,1.71-.71c.24-.22.47-.39.49-.74s.42-.69.59-1.06a7.12,7.12,0,0,1,2.3.18c.76.62.74,1-.1,1.45a12,12,0,0,1-2.82,1.06,1.43,1.43,0,0,0-.87.57,1.48,1.48,0,0,1-1.64.67c-.46-.1-.63.13-.7.5a1.57,1.57,0,0,1-1.6,1.37A2.46,2.46,0,0,0,165.22,12.37Zm34,51.5a3.17,3.17,0,0,1-.88,1.31.92.92,0,0,1-.44.58c0,.1,0,.16-.14.15a.49.49,0,0,1-.43.44c0,.12,0,.18-.14.15.06.16,0,.23-.16.28a.12.12,0,0,1-.14.14.13.13,0,0,1-.15.15.12.12,0,0,1-.14.14.13.13,0,0,1-.15.15c0,.1-.05.15-.15.14s-.12.23-.28.16c0,.13,0,.17-.14.15,0,.26-.22.37-.44.43,0,.11-.05.15-.16.14a1,1,0,0,1-.58.44,3,3,0,0,1-1.31.87,12.69,12.69,0,0,1-4.44,1.94,17.18,17.18,0,0,1-11.18-.8c-.14-.06-.33-.07-.39-.27a1.93,1.93,0,0,1-1.16-.58c-.09,0-.2,0-.16-.13a.69.69,0,0,1-.72-.44.35.35,0,0,1-.44-.29.81.81,0,0,1-.71-.46c-.22-.06-.44-.13-.45-.42-.16.06-.24,0-.28-.16-.27-.12-.51-.25-.59-.57-.11,0-.15,0-.15-.15s-.15,0-.14-.14-.15,0-.15-.15-.15,0-.14-.14-.15,0-.15-.15-.15,0-.14-.14a.13.13,0,0,1-.14-.15.45.45,0,0,1-.39-.49l.14.09-.14-.09a.57.57,0,0,0-.33-.39h0a.57.57,0,0,1,.33.39.36.36,0,0,1-.34-.39.6.6,0,0,1-.43-.58,2.07,2.07,0,0,1-.84-1.29s0,0,0-.07-.05,0-.06-.06,0,0,0,0a.36.36,0,0,1-.07-.1.86.86,0,0,1-.4-.73l-.07-.12c-.07,0-.11-.08-.07-.15l-.08-.15h0a17.16,17.16,0,1,1,31.74-12.85c.05.14.09.28.14.42a.24.24,0,0,1,.06.29l.06.14c.15.12.12.28.09.44a.21.21,0,0,1,.05.13,13,13,0,0,1,.54,5.06,17.21,17.21,0,0,1-2.25,7.55C199.43,63.64,199.4,63.83,199.21,63.87Zm4.72,8.32a3.18,3.18,0,1,1,0-6.36,3.18,3.18,0,0,1,0,6.36Z"/><path class="cls-1" d="M203.9,66.47a2.53,2.53,0,0,0,0,5.06A2.4,2.4,0,0,0,206.3,69,2.44,2.44,0,0,0,203.9,66.47Zm.76,4.17a2.3,2.3,0,0,1-.24-.77c-.06-.33-.25-.48-.65-.48h-.34v1.25h-.71V67.47a7.86,7.86,0,0,1,1.18-.1,1.58,1.58,0,0,1,1.06.26.79.79,0,0,1,.32.67.82.82,0,0,1-.64.76v0c.3.1.45.35.55.78a3,3,0,0,0,.22.77Z"/><path class="cls-1" d="M203.85,67.92a1.28,1.28,0,0,0-.4,0v.91h.34c.4,0,.72-.14.72-.47S204.3,67.92,203.85,67.92Z"/></g></g></svg>