<svg xmlns="http://www.w3.org/2000/svg" viewBox="0 0 174.89 70.73"><defs><style>.a{fill:#010100;}.b{fill:#fff;}.c{fill:#eff7fc;}.d{fill:#f7fbfe;}.e{fill:#f8fcfd;}.f{fill:#edf5fc;}.g{fill:#eef7fc;}.h{fill:#d4d5d7;}.i{fill:#f5fafe;}.j{fill:#eef5fc;}.k{fill:#f4fafc;}.l{fill:#fcfeff;}.m{fill:#bbc2ca;}.n{fill:#d4d6d8;}.o{fill:#fefeff;}.p{fill:#010101;}.q{fill:#fefefe;}.r{fill:#bcc3cb;}.s{fill:#bdc4cc;}.t{fill:#d3d5d7;}.u{fill:#c6ccd2;}.v{fill:#c0c7ce;}.w{fill:#c0c6cd;}.x{fill:#bbbdbe;}.y{fill:#bbc3ca;}.z{fill:#c3c8cf;}.aa{fill:#c5c7cb;}.ab{fill:#b2bac1;}.ac{fill:#c1c7ce;}.ad{fill:#d1d5d9;}.ae{fill:#bdc3cb;}.af{fill:#ccc;}.ag{fill:#d3d4d6;}.ah{fill:#e1ae05;}.ai{fill:#fafafa;}.aj{fill:#605aa3;}.ak{fill:#c7c7c9;}.al{fill:#b5b6b9;}.am{fill:#c3c4c4;}.an{fill:#009382;}.ao{fill:#4f4895;}.ap{fill:#612671;}.aq{fill:#dededf;}.ar{fill:#edc00f;}.as{fill:#dc2d25;}.at{fill:#6761a6;}.au{fill:#0ca194;}.av{fill:#3f3788;}.aw{fill:#02669e;}.ax{fill:#cc1618;}.ay{fill:#c5c9d0;}.az{fill:#a22c17;}.ba{fill:#941a14;}.bb{fill:#77b333;}.bc{fill:#049b52;}.bd{fill:#abb2b9;}.be{fill:#b53b18;}.bf{fill:#bac1c9;}.bg{fill:#01558c;}.bh{fill:#228736;}.bi{fill:#348f37;}.bj{fill:#b5bac0;}.bk{fill:#6c2478;}.bl{fill:#03a5d6;}.bm{fill:#0090c6;}.bn{fill:#562669;}.bo{fill:#2d2e2f;}.bp{fill:#5ca537;}.bq{fill:#57b0aa;}.br{fill:#c00d73;}.bs{fill:#b0b6bd;}.bt{fill:#47993b;}.bu{fill:#b4126b;}.bv{fill:#e8e7e9;}.bw{fill:#eeeeef;}.bx{fill:#bcc3ca;}.by{fill:#f3d44b;}.bz{fill:#cd1f80;}.ca{fill:#d3d3d4;}.cb{fill:#1ca763;}.cc{fill:#d39f0f;}.cd{fill:#52b27c;}.ce{fill:#37aba2;}.cf{fill:#067d36;}.cg{fill:#f0ca2f;}.ch{fill:#d1d2d4;}.ci{fill:#b21a18;}.cj{fill:#a7adb3;}.ck{fill:#e05799;}.cl{fill:#028875;}.cm{fill:#a91363;}.cn{fill:#0375ae;}.co{fill:#057db5;}.cp{fill:#d73b8d;}.cq{fill:#a61916;}.cr{fill:#9e165d;}.cs{fill:#a2a8ae;}.ct{fill:#c01818;}.cu{fill:#37ad6f;}.cv{fill:#772b81;}.cw{fill:#3a3a3b;}.cx{fill:#157b35;}.cy{fill:#d1d3d5;}.cz{fill:#94599d;}.da{fill:#b0b5ba;}.db{fill:#833b8c;}.dc{fill:#a2a7ad;}.dd{fill:#8d4a95;}.de{fill:#107235;}.df{fill:#afb5bb;}.dg{fill:#08806c;}.dh{fill:#b7bdc3;}.di{fill:#c8c8c8;}.dj{fill:#b8bfc7;}.dk{fill:#c9cccf;}.dl{fill:#333232;}.dm{fill:#403f3f;}.dn{fill:#9c9ea1;}.do{fill:#393838;}.dp{fill:#a7a6a9;}.dq{fill:#232426;}.dr{fill:#353738;}.ds{fill:#202126;}.dt{fill:#cccacc;}.du{fill:#6f6d72;}.dv{fill:#555459;}.dw{fill:#d6d4d6;}.dx{fill:#aeaaad;}.dy{fill:#c1b8b9;}.dz{fill:#38393e;}.ea{fill:#d5d9dc;}.eb{fill:#636469;}.ec{fill:#010202;}.ed{fill:#d4d8dc;}.ee{fill:#cdd2d7;}.ef{fill:#cdd1d7;}.eg{fill:#cbcfd5;}.eh{fill:#474749;}.ei{fill:#5b5959;}.ej{fill:#020304;}.ek{fill:#0a0b0d;}.el{fill:#42454c;}.em{fill:#030304;}.en{fill:#cbcace;}.eo{fill:#414349;}.ep{fill:#020202;}.eq{fill:#0c0d0f;}.er{fill:#050506;}.es{fill:#060709;}.et{fill:#c24817;}.eu{fill:#d25a16;}.ev{fill:#e06d22;}.ew{fill:#04893e;}.ex{fill:#e3e2e4;}.ey{fill:#e1e1e3;}.ez{fill:#d9d8da;}.fa{fill:#b9b7ba;}.fb{fill:#e0dfe1;}.fc{fill:#b6b2b4;}</style></defs><path class="a" d="M213.35,241.94a1.23,1.23,0,0,0,0-.5l0-4.05a7.54,7.54,0,0,1,.16-1.64,4.15,4.15,0,0,1,1.36-2.27,2.43,2.43,0,0,1,1.6-.59c2.2,0,4.4,0,6.6,0h.3c.33,0,.41-.09.41-.42,0-.65,0-1.3,0-2q0-.37,0-.75a2.75,2.75,0,0,1,.9-2.09,5.17,5.17,0,0,1,2.82-1.39,6,6,0,0,1,1.2-.09h4.59a.4.4,0,0,0,.39-.18,3.38,3.38,0,0,1,1.16-1,4.58,4.58,0,0,1,2.86-.47,5.5,5.5,0,0,1,.88.18,3.59,3.59,0,0,1,1.31.79c.19.16.38.33.56.51a.59.59,0,0,0,.44.18h5.15a4.1,4.1,0,0,1,3.18,1.52,4.15,4.15,0,0,1,1,2.45c0,.78.11,1.56.17,2.34a.76.76,0,0,0,0,.15.17.17,0,0,0,.18.19h5.65a4.45,4.45,0,0,1,1.8.32,4.11,4.11,0,0,1,1.71,1.26,3.35,3.35,0,0,1,.64,1.44,8.78,8.78,0,0,1,.15,1.69c0,1.35,0,2.7,0,4,0,.81-.09.6.65.76a12.74,12.74,0,0,1,1.35.35l.3.08c.08-.15.17-.29.24-.43a7.35,7.35,0,0,1,3.19-3.33,10.25,10.25,0,0,1,2.72-1,19,19,0,0,1,5.31-.49,18.7,18.7,0,0,1,4.86.79,9.62,9.62,0,0,1,4.26,2.68,6.95,6.95,0,0,1,1.58,6.31c-.1.42-.09.41.28.67s.82.58,1.21.89a14.68,14.68,0,0,1,3.09,3.3.5.5,0,0,0,.48.25,17.46,17.46,0,0,1,5.08.7,10.2,10.2,0,0,1,3.19,1.48.45.45,0,0,0,.51.05,13.54,13.54,0,0,1,3.31-.91,16.57,16.57,0,0,1,2.44-.15,21.17,21.17,0,0,1,3.72.4,30.21,30.21,0,0,1,5.51,1.52,25.41,25.41,0,0,1,5,2.51,14.87,14.87,0,0,1,3.67,3.36,14.15,14.15,0,0,1,2.4,4.62,16.86,16.86,0,0,1,.38,1.85,8.76,8.76,0,0,1,.08,1.45,10.44,10.44,0,0,1-.54,3.13,10.81,10.81,0,0,1-1.65,3.11,14.21,14.21,0,0,1-4.66,3.85l-.22.12c-.27.15-.29.15-.21.47a10.36,10.36,0,0,1,.17,3.38,8.47,8.47,0,0,1-.39,1.85,10.47,10.47,0,0,1-1.19,2.56,11.85,11.85,0,0,1-3.13,3.26A16.36,16.36,0,0,1,307,294a17.49,17.49,0,0,1-4.57.27,24.89,24.89,0,0,1-9.47-2.72,49.66,49.66,0,0,1-5.76-3.5,55.76,55.76,0,0,0-5.19-3.26c-2.25-1.22-4.57-2.31-6.9-3.35a74.6,74.6,0,0,0-13.53-4.58q-2.7-.63-5.44-1.05c-1.3-.19-2.6-.36-3.91-.5a60.16,60.16,0,0,0-7.23-.36,46,46,0,0,0-5,.37,30.07,30.07,0,0,0-5.49,1.22,12.48,12.48,0,0,0-3.71,1.92,6.68,6.68,0,0,0-1.4,1.41.54.54,0,0,0-.09.12,2.92,2.92,0,0,0-.28.52c-.06.21.11.37.19.55a9.64,9.64,0,0,1,.62,1.73,6.35,6.35,0,0,1-2.2,6.5,7.43,7.43,0,0,1-3.53,1.65,9.87,9.87,0,0,1-4.49-.2,14.19,14.19,0,0,1-5.63-2.89,13.43,13.43,0,0,1-3.12-3.87,16.1,16.1,0,0,1-1.24-2.82,15.62,15.62,0,0,1-.62-2.87,14.66,14.66,0,0,1,.34-5.35c.11-.38.2-.77.31-1.18l-.76.1a10.22,10.22,0,0,1-5.79-.86l-.22-.12a.18.18,0,0,0-.26.05c-.21.24-.41.48-.63.71a39.48,39.48,0,0,1-3.9,3.86,11.76,11.76,0,0,1-5.27,2.59,6.48,6.48,0,0,1-1.64.16.61.61,0,0,0-.55.25,13.22,13.22,0,0,1-1.52,1.65,12.33,12.33,0,0,1-3.52,2.33,9.16,9.16,0,0,1-2.4.64.41.41,0,0,0-.33.18,15.65,15.65,0,0,1-3.27,3.13,12.94,12.94,0,0,1-1.68,1.17,8.78,8.78,0,0,1-1.71.7.53.53,0,0,0-.37.28,14.52,14.52,0,0,1-1.41,2.29,12.13,12.13,0,0,1-2.82,2.81,9.45,9.45,0,0,1-3.57,1.45,9,9,0,0,1-4.91-.48,10,10,0,0,1-4.29-2.9,11.63,11.63,0,0,1-1.59-2.52,13.33,13.33,0,0,1-1-2.83,8.3,8.3,0,0,1-.2-1.23,12.31,12.31,0,0,1-.13-1.49c0-1.86,0-3.73,0-5.59a.37.37,0,0,0-.26-.42,9.84,9.84,0,0,1-1.87-1.05,7.41,7.41,0,0,1-2.6-3.28,9.17,9.17,0,0,1-.51-2.08,18.57,18.57,0,0,1-.22-4.08,14.77,14.77,0,0,1,.37-2.56,17,17,0,0,1,.89-2.75,13.16,13.16,0,0,1,4.06-5.35,20.28,20.28,0,0,1,6.38-3.42,15.5,15.5,0,0,1,4.32-.71,8.76,8.76,0,0,1,1.84.12.46.46,0,0,0,.44-.14,20.92,20.92,0,0,1,2-1.84,11.59,11.59,0,0,1,4.48-2.23,8.62,8.62,0,0,1,2.37-.26,1,1,0,0,0,.73-.23,22.26,22.26,0,0,1,4.75-2.81,9,9,0,0,1,3-.76.68.68,0,0,0,.46-.25,10.71,10.71,0,0,1,5-3.08,9.82,9.82,0,0,1,6.91.52l.1,0a.54.54,0,0,0,.6,0,9.63,9.63,0,0,1,1.82-.5,8.93,8.93,0,0,1,6.54,1.33c.45.3.29.28.75.08a8.13,8.13,0,0,1,4.16-.57l.39.08Z" transform="translate(-150.56 -224.51)"/><path class="b" d="M196.91,261.61a14.17,14.17,0,0,0,.81-1.48,39.77,39.77,0,0,0,1.69-3.77,5.83,5.83,0,0,0,.22-.71,1.37,1.37,0,0,0-.16-1c-.12-.2-.22-.41-.34-.61a4.51,4.51,0,0,1-.44-3.18A5.14,5.14,0,0,1,201,247.4a3,3,0,0,1,1-.44,1.67,1.67,0,0,1,1.53.39,2.09,2.09,0,0,1,.59.73,4.82,4.82,0,0,1,.21,2.29c0,.24,0,.47.18.63a2.58,2.58,0,0,0,.83-.09,6.78,6.78,0,0,0,2.33-.84l1.64-.95a5.09,5.09,0,0,0,.92-.68,3.48,3.48,0,0,1,.72-.54.5.5,0,0,1,.7.16,1.87,1.87,0,0,1,.34.71c.07.31.16.62.2.93a5.68,5.68,0,0,0,.71,1.9c.11.22.21.45.32.67a.7.7,0,0,1,.07.38,4.93,4.93,0,0,1-1,1.48,17.42,17.42,0,0,0-2.59,5.19,1.31,1.31,0,0,0-.07.44.62.62,0,0,0,.29.68,4.6,4.6,0,0,0,1.3-.52h0c0-.09.13-.06.17-.13a7.46,7.46,0,0,0,1.11-.83l.82-.67a.38.38,0,0,0,.16-.38,8.69,8.69,0,0,1,0-1.35,7.65,7.65,0,0,1,1.88-4.83,18.92,18.92,0,0,1,3.2-3.06,9.43,9.43,0,0,1,4-1.74,6.29,6.29,0,0,1,1.15-.07,2.22,2.22,0,0,1,1.41.55l.18.18c.09.1.18.09.31,0a13.2,13.2,0,0,1,2.13-.68,5.62,5.62,0,0,1,1.83-.18,1.53,1.53,0,0,1,1.24.72c.05.06,0,.16.1.21h0a1.61,1.61,0,0,1-.35,1.3,52.79,52.79,0,0,0-2.89,5.06,8.39,8.39,0,0,0-.77,2,1.84,1.84,0,0,0,.12,1.4.77.77,0,0,0,.63,0l1.37-.61a.26.26,0,0,0,.14-.29,6.64,6.64,0,0,1,.59-3.4,12.58,12.58,0,0,1,4.94-5.59,14.64,14.64,0,0,1,3.12-1.55,7.91,7.91,0,0,1,2.89-.45,4.72,4.72,0,0,1,2.61.9,2,2,0,0,1,.81,1.27,5.79,5.79,0,0,1-4.05,6.17,6.39,6.39,0,0,1-3.19.28c-.58-.14-.75-.37-.69-.94a1.16,1.16,0,0,1,.13-.37,1.18,1.18,0,0,1,.22-.53c.07-.12.25-.24.09-.42a.24.24,0,0,0-.12,0,5.44,5.44,0,0,0-2.89,3.9,1.83,1.83,0,0,0,.06.84,1.77,1.77,0,0,0,1.43.59,5.64,5.64,0,0,0,2.3-.33c.94-.33,1.86-.72,2.77-1.12.35-.16.71-.3,1.06-.45.19-.08.39-.18.58-.28a2.84,2.84,0,0,0,1.08-.93c.74-1,1.49-2,2.2-3a8.52,8.52,0,0,0,.78-1.34,2,2,0,0,0,.19-.77.77.77,0,0,1,.38-.65,4.31,4.31,0,0,1,1-.58,14.32,14.32,0,0,1,2.48-.71,8.14,8.14,0,0,1,2.09-.18,2.62,2.62,0,0,1,.87.2.81.81,0,0,1,.57.69,3.25,3.25,0,0,1-.8,2c-1.56,2.26-3.34,4.34-5.06,6.47-.2.26-.5.53,0,.8a1.56,1.56,0,0,0,1.13-.27,4.26,4.26,0,0,0,1.24-1.19c.79-1.13,1.74-2.11,2.63-3.15.43-.52.82-1.07,1.29-1.56a1.51,1.51,0,0,0,.39-.51,1.27,1.27,0,0,0,.17-.81,1.55,1.55,0,0,1,.17-.87.55.55,0,0,1,.33-.29,7.25,7.25,0,0,1,.76-.22,4.11,4.11,0,0,1,.6-.08,13.69,13.69,0,0,1,2.79,0,4,4,0,0,1,1.38.4,1.17,1.17,0,0,1,.68.68,2.76,2.76,0,0,1-.68,2.32c-1.81,2.14-3.74,4.17-5.55,6.31a2,2,0,0,0-.44.82c0,.11,0,.2.11.24h1.19a.27.27,0,0,0,.26-.13,12.83,12.83,0,0,1,2-2.36c1.17-1.18,2.37-2.33,3.56-3.5l6-5.9c.23-.24.47-.48.71-.7a2.74,2.74,0,0,0,.67-1c.08-.22.17-.43.26-.65a.69.69,0,0,1,.46-.42c.32-.1.64-.2,1-.27a13.3,13.3,0,0,1,3.67-.24,10.57,10.57,0,0,1,2.84.54,3.52,3.52,0,0,1,.81.38.84.84,0,0,1,.37,1.12,1.32,1.32,0,0,1-.33.6,43.24,43.24,0,0,1-5.29,4.83c-.16.14-.36.24-.53.37l-.57.29A8.94,8.94,0,0,0,268,255c-.2.29-.37.59-.55.89a21.53,21.53,0,0,1-2.18,2.09c-.73.67-1.4,1.41-2.16,2.05a1.17,1.17,0,0,0-.47.85.34.34,0,0,0,.26.2,2.56,2.56,0,0,0,.73.09h.74c.31,0,.38.12.37.45a.7.7,0,0,1,0,.14,1.33,1.33,0,0,1-.7.6,16.09,16.09,0,0,1-2.13.81,8.16,8.16,0,0,1-3.14.43,4.14,4.14,0,0,1-2.14-.71,2.53,2.53,0,0,1-1-1.45,1.78,1.78,0,0,0-.07-.39,1.67,1.67,0,0,1-.05-.31c0-.41-.24-.31-.47-.22-.95.35-1.9.7-2.88,1a8.5,8.5,0,0,1-3.88.3l-.34-.07c-.76-.23-1-.54-.83-1.33a1.55,1.55,0,0,1,.05-.23c0-.16.15-.3.1-.5a3,3,0,0,0-.93.32,13.85,13.85,0,0,1-2.36.77,2.85,2.85,0,0,1-1.09,0,2.3,2.3,0,0,1-2-2.85c.08-.26,0-.31-.23-.17-.66.42-1.33.81-2,1.18a13.62,13.62,0,0,1-4.39,1.8,4.14,4.14,0,0,1-4-1.32l-.17-.17-.09-.12a.74.74,0,0,0-.24-.43c-.16-.3-.32-.34-.6-.09a16.83,16.83,0,0,1-4,2.64,4.12,4.12,0,0,1-2.21.45,1.16,1.16,0,0,1-.64-.37l-.1-.1-.09-.09-.05-.05L222,261a1.46,1.46,0,0,1-.17-.3c-.3-.57-.3-.57-.85-.18s-1,.75-1.51,1.06a4.12,4.12,0,0,1-3.83.23,2.25,2.25,0,0,1-1.1-1s0,0,0,0c-.46-.48-.46-.48-.93,0l-.1.11-.05.05a20.36,20.36,0,0,1-2.77,2.56,8.48,8.48,0,0,1-2.28,1.21,3.75,3.75,0,0,1-2.9-.22,1.84,1.84,0,0,1-.67-.57h-.07a4.18,4.18,0,0,1-.57-1.57,10,10,0,0,1,.5-4.83c.16-.54.42-1.05.54-1.6s.13-.67-.54-.59a6.83,6.83,0,0,0-.79.11,1.55,1.55,0,0,0-1,.76c-.85,1.54-1.62,3.13-2.52,4.65a40,40,0,0,1-3.63,5.54,22.64,22.64,0,0,1-4.18,4.06,4.9,4.9,0,0,1-1.32.69,2.06,2.06,0,0,1-2.79-1.68,1.85,1.85,0,0,1,0-.23v-.15a4.21,4.21,0,0,1,.08-1.24c-.31.56-.59,1.21-1,1.8-.57,1.08-1.18,2.13-1.84,3.15a10.65,10.65,0,0,1-2.73,2.87,4.48,4.48,0,0,1-.74.41,1.75,1.75,0,0,1-1.89,0,3.49,3.49,0,0,1-1.07-1.48,7.92,7.92,0,0,1-.53-1.86,9.27,9.27,0,0,1,0-2.63c.07-.66.13-1.33.24-2,.13-.82.29-1.64.44-2.45,0-.22.1-.42.13-.63.18-1,.35-2,.53-3,.06-.37.14-.75.21-1.12s-.1-.48-.21-.68-.3-.05-.42,0a3.08,3.08,0,0,0-1.06,1.36,11.71,11.71,0,0,0-.65,2.81q-.77,4.35-1.31,8.73a25.4,25.4,0,0,0-.12,3.49,1.61,1.61,0,0,0,.16.72,1.66,1.66,0,0,1-.25,1.95,8.89,8.89,0,0,1-2.86,2.38,1,1,0,0,1-.91.1,3.28,3.28,0,0,1-1.34-1.22,4.36,4.36,0,0,1-.63-1.81,25.9,25.9,0,0,1-.27-3.18,2.54,2.54,0,0,1,0-.39l.33-3.78c.11-1.3.23-2.61.34-3.91a6.63,6.63,0,0,0,.08-1c-.13-.13-.1-.3-.12-.46s0-.35-.24-.34c-.44.17-.58.58-.77,1a6.45,6.45,0,0,0-.49,1.33,4.13,4.13,0,0,0-.21,1.47c-.13,2.08-.31,4.15-.44,6.22-.09,1.36-.13,2.72-.26,4.08a14.87,14.87,0,0,0,.12,1.89.67.67,0,0,0,.44.57.88.88,0,0,1,.48,1.09,8.94,8.94,0,0,1-2.27,4.38,2.35,2.35,0,0,1-2.82.6,2.93,2.93,0,0,1-1.09-1.39,11.8,11.8,0,0,1-.82-3c-.05-.33-.09-.66-.14-1a4.69,4.69,0,0,1,0-1c0-.88.07-1.77.14-2.64.08-1.1.09-2.2.16-3.3.09-1.64.11-3.29.06-4.94,0-.41-.05-.83-.1-1.24a1.53,1.53,0,0,0-.38-.85,1.68,1.68,0,0,1-.45-.3.83.83,0,0,0-1.25,0,6.4,6.4,0,0,0-1.42,1.77,2.6,2.6,0,0,1-.82.86c-.19.12-.39.27-.64.11a1.19,1.19,0,0,1-.43-.81,2.91,2.91,0,0,1-.05-.4,20.07,20.07,0,0,1-.11-2.19,15.34,15.34,0,0,1,.29-2.62,7.15,7.15,0,0,1,.94-2.39,4.75,4.75,0,0,1,.69-.85,13.33,13.33,0,0,1,5.68-3.37,6.83,6.83,0,0,1,1.62-.25,3.87,3.87,0,0,1,2.44.69,3.58,3.58,0,0,1,.92,2.36,1.42,1.42,0,0,1,.47-.5c.58-.93,1.16-1.86,1.8-2.74a14.94,14.94,0,0,1,3.19-3.21,5.17,5.17,0,0,1,1.11-.66l.56-.2a1.25,1.25,0,0,1,1.56.53,2.29,2.29,0,0,1,.36,1.14c.15.48.22-.13.34,0a1.27,1.27,0,0,0,.41-.42,19.45,19.45,0,0,1,5.37-4.48,7.1,7.1,0,0,1,1.41-.62,2.54,2.54,0,0,1,.54-.09,1.18,1.18,0,0,1,1.07.41,3.43,3.43,0,0,1,.49,2.53c-.2,1.81-.7,3.56-1,5.34-.57,2.89-1.45,5.72-2,8.62a6.18,6.18,0,0,0-.06.85c0,.33.11.51.47.47a12.19,12.19,0,0,0,1.79-1.8c.45-.52.89-1.07,1.31-1.63a3.43,3.43,0,0,0,.58-1.2,15.92,15.92,0,0,0,.53-2.27c.07-.48.16-1,.25-1.43a1.09,1.09,0,0,0-.14-.86.57.57,0,0,1,0-.73,7.33,7.33,0,0,1,.79-1,16,16,0,0,1,3.64-2.93,6.32,6.32,0,0,1,1.46-.63.88.88,0,0,1,1.05.33l.1.11h0a.42.42,0,0,1,.07.13,3.36,3.36,0,0,1-.1,1.91c-.4,1.82-1,3.58-1.58,5.35-.32,1-.65,2-1,3,.36-.49.69-.95,1.06-1.39a1.27,1.27,0,0,0,.23-.34l.13-.24.61-.81h0A1.49,1.49,0,0,1,196.91,261.61Z" transform="translate(-150.56 -224.51)"/><path class="c" d="M286.65,267.7a1.55,1.55,0,0,0,1.71.44,7.25,7.25,0,0,0,.87-.36c.18-.09.39-.13.51-.31h0a.52.52,0,0,0,.32-.2h0a5.58,5.58,0,0,0,1.1-.71h0a.47.47,0,0,0,.31-.2h0a.49.49,0,0,0,.3-.21h0a.44.44,0,0,0,.3-.2h0a.48.48,0,0,0,.3-.2h0a.6.6,0,0,0,.31-.21h0a.54.54,0,0,0,.3-.21h0a.48.48,0,0,0,.3-.22h0c.19,0,.29-.18.42-.29h0a.54.54,0,0,0,.3-.21h0a1,1,0,0,0,.41-.31h0a.17.17,0,0,0,.11-.09h0a1.52,1.52,0,0,0,.39-.32l.08-.08a.41.41,0,0,1,.13-.1l.09-.06.07-.06,0,0,.06-.07,0,0,.06-.15,0-.11a2.38,2.38,0,0,0,0-.38,2.17,2.17,0,0,1,0-.25c0-.11.06-.21.08-.31a.45.45,0,0,1,.06-.12c.06-.08.16-.13.23-.22h0a2.91,2.91,0,0,1,1.06,0l0,0,0,0c.08.09.22,0,.3.09h0c.07.1.22,0,.29.11h0c.05.06.14,0,.2.09h0c.05.07.14,0,.21.1h0c.05.08.14.06.2.11h0c0,.07.14.05.2.11h0a.44.44,0,0,0,.63-.18,2.26,2.26,0,0,1,.46-.52.86.86,0,0,1,.14-.13l.13-.14.09-.09,0,0,.09-.09a2.67,2.67,0,0,1,.36-.31l.18-.13c.19-.13.37-.36.64-.11a1.25,1.25,0,0,1,.1.63v10.13a1.7,1.7,0,0,1-.05.5.37.37,0,0,1-.07.14c-.07.06-.14.07-.2,0l-.08-.1-.08-.16-.06-.09-.06-.09,0-.08c0-.05-.05-.09-.07-.13a.36.36,0,0,1,0-.09s-.05-.09-.07-.13l0-.09a.58.58,0,0,0-.05-.14l-.06-.08a.22.22,0,0,1-.05-.08.16.16,0,0,1,0-.09c0-.05,0-.1-.05-.14a.36.36,0,0,0,0-.09.75.75,0,0,0-.06-.13l0-.09-.07-.13a.56.56,0,0,1-.05-.08l-.06-.14a.42.42,0,0,1,0-.1.57.57,0,0,0,0-.14l0-.09a.61.61,0,0,0-.07-.14l-.05-.09-.07-.15,0-.1c0-.06,0-.13-.07-.2l0-.1a1.59,1.59,0,0,0-.07-.2l0-.1,0-.15a.42.42,0,0,1,0-.1,1.72,1.72,0,0,0-.07-.21s0-.07,0-.11a1.72,1.72,0,0,0-.07-.21l-.06-.1-.08-.06-.09,0-.08.05-.08,0-.13.07-.09,0-.08,0-.08,0-.08.05-.08.05-.08.06-.08,0-.08.05-.07.06-.08.05-.09.05-.08,0-.09.05-.08.05-.08.06-.08.05-.09,0-.08,0-.09.05-.08.05-.08.06-.08,0-.09.05-.08,0-.09.05-.09.05-.08.06a.24.24,0,0,1-.08.06l-.08.05-.09.05,0,0-.08.06-.09.05-.13.06-.09.05-.08.06,0,0-.08.06-.08.05-.09.05,0,0-.08.06-.09.05-.13.06-.09.05-.08.05,0,0-.08.06-.08,0-.08.06,0,0-.08,0-.09.05-.08,0-.09.05-.12.07-.07.06-.08,0-.09.05-.08.06,0,0-.08.06-.08,0-.09.05,0,0-.07.06-.09,0-.08.05,0,0-.08.06-.08,0-.08.05-.07.05-.07.06,0,0-.06.07,0,0-.06.07,0,0,0,.09a.33.33,0,0,0,0,.14.32.32,0,0,0,0,.14l0,.09a.07.07,0,0,0,.08.05h0c0,.11.13.08.19.13h0c.06.07.16.05.23.09s.05,0,.07,0,.15,0,.22.08a.05.05,0,0,1,.08,0c.09.08.22,0,.3.09h0c.05.07.14,0,.2.1h0a.27.27,0,0,0,.11.1h0a.24.24,0,0,1,0,.23h0c-.09,0-.06.14-.12.2h0c-.06,0-.08.12-.15.15l-.13.09-.1.05-.15.07-.11,0-.22.08-.19,0-.34.08a1.17,1.17,0,0,1-.32,0h-1.81a8.35,8.35,0,0,1-3.92-1.05c-1.21-.66-1.31-1.09-.63-2.27a4.27,4.27,0,0,0,.26-.41,6.31,6.31,0,0,1-3.87-.19A2.64,2.64,0,0,1,280.2,268a1,1,0,0,1,.16-.81l.59-.37a8.92,8.92,0,0,0,3-2.88,6.88,6.88,0,0,0,.63-1.24,1.11,1.11,0,0,1,.43-.53c.47-.31.91-.66,1.37-1a5.6,5.6,0,0,0,.9-.78c.34-.35.41-.85.69-1.23a1.65,1.65,0,0,1,.85-.38,9.42,9.42,0,0,1,2.19-.11,7.14,7.14,0,0,1,2.19.42,4.22,4.22,0,0,1,1.39.77.82.82,0,0,1,.22,1,2.73,2.73,0,0,1-.7.95,3,3,0,0,0-.31.31h0a.09.09,0,0,0-.1.1c-1.42,1.08-2.89,2.09-4.31,3.16-.8.6-1.58,1.21-2.39,1.78C286.8,267.29,286.55,267.39,286.65,267.7Z" transform="translate(-150.56 -224.51)"/><path class="d" d="M226.05,263.48a4.47,4.47,0,0,1,1-.38,29.59,29.59,0,0,1,5.1-1.22l1.48-.2.28-.08a3.82,3.82,0,0,1,1.45-.25,40.22,40.22,0,0,1,4.39-.11c1,0,1.93.12,2.89.14a3.23,3.23,0,0,0,1,.08c1.16.05,2.32.15,3.47.3.86.09,1.72.21,2.58.29.39.06.77.15,1.15.2a21.87,21.87,0,0,1,2.68.52,2.84,2.84,0,0,0,.47.15.33.33,0,0,1,.15.11,1,1,0,0,1,.14.67c0,1.16,0,2.33,0,3.5,0,.85-.16,1-1,.94s-1.39-.17-2.07-.16a7.19,7.19,0,0,0-2.17-.07h-.1c-1.35-.32-2.72,0-4.07-.08a50.92,50.92,0,0,0-8.63.7,25.65,25.65,0,0,0-7.57,2.56c-.18.1-.35.22-.56.12a1,1,0,0,1-.13-.67c0-1.34,0-2.69,0-4a1.76,1.76,0,0,0-.53-1.33A13.26,13.26,0,0,1,226.05,263.48Z" transform="translate(-150.56 -224.51)"/><path class="e" d="M226.05,263.48a.41.41,0,0,1,.29.16l.78,1a2.9,2.9,0,0,0,.34.36,6.66,6.66,0,0,1,.53.66.42.42,0,0,1,.08.23c0,.11,0,.23,0,.34,0,1.65,0,3.3,0,4.94,0,.32-.33.4-.54.53a15,15,0,0,0-4,3.8,10.68,10.68,0,0,0-1.71,3.36,4.69,4.69,0,0,0,0,2.6,7.18,7.18,0,0,0,.8,1.59.89.89,0,0,1,.2.49c.09.3-.09.43-.31.53a1.3,1.3,0,0,1-.78.08,6.43,6.43,0,0,1-4.35-2.27,5.16,5.16,0,0,1-.87-1.26,9.28,9.28,0,0,1-1-2.75,8.63,8.63,0,0,1,.16-4,12.79,12.79,0,0,1,1.15-2.75,17.81,17.81,0,0,1,1.94-2.84,14.29,14.29,0,0,1,3.07-2.68,22.91,22.91,0,0,1,4.07-2.07Z" transform="translate(-150.56 -224.51)"/><path class="f" d="M299.56,261.9a8,8,0,0,1-.6.71c-.16.22-.4.15-.6,0a.42.42,0,0,0,.5-.2,6.38,6.38,0,0,1,4.73-2.62,11.21,11.21,0,0,1,4.2.37,23.37,23.37,0,0,1,7.89,3.61,7.23,7.23,0,0,1,2,2.26,5.5,5.5,0,0,1,.71,1.84,5.31,5.31,0,0,1-1.82,5,7.5,7.5,0,0,1-5.44,1.26A3.9,3.9,0,0,1,310,274c-.43-.17-.54-.41-.32-.82a7.48,7.48,0,0,0,.58-1.21,2.43,2.43,0,0,0-.46-2.47l-.1-.11a.52.52,0,0,1-.11-.1l-.06,0-.13-.09a3.46,3.46,0,0,0-3.52-.36c-.12.06-.22.07-.28-.09,0-2.67,0-5.34,0-8,0-.64,0-.61-.62-.65a7.45,7.45,0,0,0-3.49.63,2,2,0,0,1-.53.13l-.5.3-.1.1-.4.3a.94.94,0,0,0-.1.1h0a.94.94,0,0,0-.1.1l-.1.1A.47.47,0,0,0,299.56,261.9Z" transform="translate(-150.56 -224.51)"/><path class="g" d="M301,260.8a2.57,2.57,0,0,1,1-.47,7.93,7.93,0,0,1,1.59-.42,1,1,0,0,1,.25,0h1.74c.09,0,.17,0,.25,0v8.28a1.05,1.05,0,0,1-.1.58l0,.05c-.05.06-.12.1-.17.15a1.62,1.62,0,0,0-.63,1.18,2.9,2.9,0,0,0,.14,1.17,7.2,7.2,0,0,0,.78,1.66.52.52,0,0,1,.12.26,3,3,0,0,1,.05.6v12.6a2.28,2.28,0,0,1-.06.69c-.12.28-.38.26-.6.27a14.54,14.54,0,0,1-3.72-.29.6.6,0,0,1-.42-.23c-.06-.79,0-1.58,0-2.38s0-1.39,0-2.09-.05-.67-.67-.69a1,1,0,0,1-.66-.15c0-.29.21-.14.3-.15a7.25,7.25,0,0,0,1.24-.07,2.31,2.31,0,0,0,1.91-2.41,4.84,4.84,0,0,0-.37-2.09c-.38-1-.79-1.9-1.25-2.82-.19-.44-.38-.88-.6-1.3-.07-.14-.17-.3-.05-.46a.5.5,0,0,0,.1-.17c0-.11,0-.23,0-.35q0-5.23,0-10.47C301.05,261.14,301.12,260.94,301,260.8Z" transform="translate(-150.56 -224.51)"/><path class="c" d="M299.76,281.52c.13.11.28.07.43.07h.8a.26.26,0,0,1,.26.26c0,.13,0,.26,0,.4,0,1.28,0,2.56,0,3.85a2.53,2.53,0,0,1-.1.78c-.32.22-.61,0-.9-.06a19.84,19.84,0,0,1-4.76-2.16c-2.66-1.55-5.21-3.28-7.85-4.86a75.88,75.88,0,0,0-8.86-4.6c-.24-.1-.59-.12-.55-.53a25.71,25.71,0,0,0,.07-3,1.23,1.23,0,0,1,.05-.54,8.42,8.42,0,0,1,1.28.53q3,1.35,6.05,2.81c1.51.74,3,1.57,4.42,2.39,2,1.13,4.05,2.29,6.1,3.38a12.34,12.34,0,0,0,3.05,1.2C299.41,281.52,299.62,281.35,299.76,281.52Z" transform="translate(-150.56 -224.51)"/><path class="h" d="M278.26,274.8a2,2,0,0,0,.24.16c.42.2.84.4,1.27.58.73.31,1.46.63,2.17,1,.92.47,1.85.92,2.75,1.43,1.14.64,2.28,1.28,3.4,2s2.48,1.53,3.71,2.32l2.66,1.67c.44.27.89.52,1.33.78.66.38,1.35.72,2,1.07a15.94,15.94,0,0,0,3,1.08,2,2,0,0,0,.35,0c.17.12.38.08.58.12.45.1.91.13,1.36.2a19.55,19.55,0,0,0,2.29.08c.13,0,.27,0,.37-.09a2.2,2.2,0,0,1,1.61-.2,1.3,1.3,0,0,1-.5.21,13.26,13.26,0,0,1-4.39.52,14.25,14.25,0,0,1-5.92-1.6,41.26,41.26,0,0,1-3.92-2.28c-1.77-1.12-3.52-2.28-5.3-3.39A78.12,78.12,0,0,0,274.21,274a85.93,85.93,0,0,0-9.92-3.15q-2.76-.68-5.57-1.15c-1.26-.21-2.53-.4-3.8-.56s-2.38-.25-3.57-.35c-1.37-.11-2.73-.19-4.09-.24-2-.08-4-.13-6,0a33.46,33.46,0,0,0-9.14,1.69,21.87,21.87,0,0,0-5.15,2.49,13.5,13.5,0,0,0-3.24,2.93,11.6,11.6,0,0,0-1.27,2.14,9,9,0,0,0-.57,1.65,5,5,0,0,0-.13,1.54c0,.18,0,.36,0,.54a1.21,1.21,0,0,1-.28-.73,5,5,0,0,1,0-1.44,10.1,10.1,0,0,1,1.2-2.88,13.34,13.34,0,0,1,1.22-1.75,5,5,0,0,1,1-1,.93.93,0,0,0,.14-.14,12.69,12.69,0,0,1,2.33-1.86l.69-.49a1.25,1.25,0,0,0,.27-.1,12.57,12.57,0,0,1,1.6-.8l1.29-.55a20.39,20.39,0,0,1,2.65-.84c.64-.16,1.28-.34,1.94-.45l1.51-.26a9.24,9.24,0,0,1,1.27-.18c.5,0,1-.16,1.49-.13a1.74,1.74,0,0,0,.64-.06,1.26,1.26,0,0,1,.39,0h1.3a3.7,3.7,0,0,0,.74-.06,3.12,3.12,0,0,1,.75,0h.85a19.14,19.14,0,0,0,2.73,0,2.83,2.83,0,0,1,.29,0,94.12,94.12,0,0,1,12.64,1.48c2.1.44,4.19.92,6.26,1.49,1.83.55,3.65,1.11,5.46,1.73s3.85,1.39,5.74,2.17l.26.13A.27.27,0,0,1,278.26,274.8Z" transform="translate(-150.56 -224.51)"/><path class="i" d="M266.76,270.8a2.85,2.85,0,0,1-.82-.17c-1-.27-2-.54-3-.75l-2.43-.53c-.66-.13-1.33-.24-2-.36l-1.46-.26c-.26-.05-.53-.08-.79-.11l-1.08-.14a7.29,7.29,0,0,1-1.13-.15.35.35,0,0,0-.14,0c-.47,0-.92-.15-1.39-.11-.5-.16-1,0-1.53-.17a1,1,0,0,0-.34,0,6.61,6.61,0,0,1-1-.08,6.69,6.69,0,0,0-1,0,2.33,2.33,0,0,1-.74-.07,1.68,1.68,0,0,0-.45,0h-2.24c-.15,0-.3,0-.42-.09h1.89a3.32,3.32,0,0,0,.94-.07,1.16,1.16,0,0,1,.64,0c.14.05.29.07.43.12a.82.82,0,0,0,.49,0,1.55,1.55,0,0,1,1,0,1,1,0,0,0,.63,0,.78.78,0,0,1,.54,0,1.11,1.11,0,0,0,.63.06,1.09,1.09,0,0,1,.59.05,1.27,1.27,0,0,0,.39.05,1.81,1.81,0,0,1,.69.07c.12.05.22,0,.29-.13a.85.85,0,0,0,.13-.47c0-.35,0-.7,0-1.05v-2.84a1.05,1.05,0,0,0-.1-.58c.15-.16.34-.1.51-.06.48.11,1,.19,1.44.34a33.19,33.19,0,0,1,3.43.89,1,1,0,0,1,.32.21l3.23,1,3.74,1.21a2.29,2.29,0,0,1,.23.1.84.84,0,0,1,.15.61c0,1,0,1.92,0,2.88C267,270.41,267.08,270.7,266.76,270.8Z" transform="translate(-150.56 -224.51)"/><path class="j" d="M307.37,287a1.9,1.9,0,0,0-.78.12,5.83,5.83,0,0,1-.83.08V273.9a1.07,1.07,0,0,1,.11-.63,6.63,6.63,0,0,1,.58.81c.66.91,1.39,1.78,2.12,2.64a22.85,22.85,0,0,1,1.75,2.3,6.64,6.64,0,0,1,1.11,2.91,3.69,3.69,0,0,1-.05.74,4.61,4.61,0,0,1-1.36,2.71,6.63,6.63,0,0,1-2.55,1.61Z" transform="translate(-150.56 -224.51)"/><path class="b" d="M278.56,264.58a6.42,6.42,0,0,1-5.53-.17,5.55,5.55,0,0,1-2.81-3.29,5,5,0,0,1,.08-3.33,5.74,5.74,0,0,1,4-3.58.57.57,0,0,0,.28-.11,3.12,3.12,0,0,1,2.29-.09h0c.13.09.3,0,.43.08a.17.17,0,0,1,0,.14.54.54,0,0,1-.3.1,7.22,7.22,0,0,0-2,.14,2.48,2.48,0,0,0-1.77,2.62,2.61,2.61,0,0,0,2.77,2.15,3,3,0,0,1,3.05,1.62,2.82,2.82,0,0,1-.27,3.39l-.09.1C278.55,264.41,278.58,264.5,278.56,264.58Z" transform="translate(-150.56 -224.51)"/><path class="k" d="M266.76,270.8c.14-.11.1-.27.1-.42,0-.69,0-1.39,0-2.08v-1.6a13.14,13.14,0,0,1,1.5.49c3.31,1.14,6.57,2.39,9.78,3.79a2.25,2.25,0,0,1,.21.12.78.78,0,0,1,.1.43v2.86c0,.18,0,.33-.2.41h-.1c-.05-.06-.15,0-.2-.09a14.13,14.13,0,0,1-1.53-.58c-.9-.33-1.8-.68-2.7-1-1.28-.49-2.6-.9-3.9-1.33-.89-.28-1.77-.57-2.67-.8A.63.63,0,0,1,266.76,270.8Z" transform="translate(-150.56 -224.51)"/><path class="b" d="M230.55,237.34a.83.83,0,0,1,.45-.05h5.9l10.19-.08,8.19-.08h.25c.1,0,.14.06.13.16a2.17,2.17,0,0,1,0,.25,18.12,18.12,0,0,0,0,5.56,1,1,0,0,1,0,.24.53.53,0,0,1-.35,0c-2.36,0-4.72-.11-7.09-.15l-4.14-.07-4.5-.08a1.17,1.17,0,0,1-.74-.24c-.26-.2-.54-.38-.81-.56,0-.13.15-.09.22-.09l4.5.05c1.06,0,2.13,0,3.19.06l7.4.18a3.79,3.79,0,0,0,.82,0,9.08,9.08,0,0,1-.1-1.15,17.24,17.24,0,0,1,.08-3.29c0-.13,0-.19-.16-.19l-.7,0-4.1,0c-3.43.05-6.86.12-10.29.16-2.26,0-4.53,0-6.79,0a1.18,1.18,0,0,1-.83-.26C231.05,237.67,230.82,237.53,230.55,237.34Z" transform="translate(-150.56 -224.51)"/><path class="b" d="M237.58,243a.44.44,0,0,1-.34.09l-19,.22a18.41,18.41,0,0,0,0-6.24,1,1,0,0,1,.55,0l4.64.1,5.14.12a1.11,1.11,0,0,1,.7.23c.19.15.41.28.61.42s.13,0,.1.18c-.47,0-.94,0-1.42,0h-1.45l-1.45,0-1.44,0-1.45,0-1.45,0a14.2,14.2,0,0,0-1.47,0,3.59,3.59,0,0,0,.05.74l0,.75v.8c0,.25,0,.5,0,.75l0,.75a3,3,0,0,0,0,.73c.12.1.26.06.39.06l5.49-.09,9.79-.12a3.27,3.27,0,0,1,.89,0,3.13,3.13,0,0,1,.72.46Z" transform="translate(-150.56 -224.51)"/><path class="l" d="M191.4,252.3s0,0,0-.07a.26.26,0,0,0-.08-.13,3.78,3.78,0,0,1,1.69-5.35,2.64,2.64,0,0,1,2.62.18,2.76,2.76,0,0,1,1,1,3.31,3.31,0,0,1,.31.81,3.84,3.84,0,0,1-1.1,3.42,4.14,4.14,0,0,1-1.36.8,3.31,3.31,0,0,1-3-.52h0A1,1,0,0,0,191.4,252.3Z" transform="translate(-150.56 -224.51)"/><path class="b" d="M240.81,236a.65.65,0,0,1-.34,0c-2.15-.06-4.29-.07-6.44,0l-4.59.2h-.35c-.25,0-.54.2-.73-.14a1.72,1.72,0,0,1,.26-.48l2.2-3.18c.28-.39.55-.79.82-1.18,0,0,0-.08-.07-.08a17.94,17.94,0,0,0-1.94,0,.84.84,0,0,0-.88.65.71.71,0,0,1-.08.18c-.2,0-.14-.11-.11-.21l.12-.89c0-.13.09-.18.21-.16a9.92,9.92,0,0,0,1.54.06h2.1c.11,0,.25-.06.32,0s0,.22-.11.3c-.27.42-.55.83-.84,1.24l-2.17,3.1,0,0c-.06.09,0,.17.08.17.68,0,1.37,0,2.05,0a.89.89,0,0,0,1-.68.05.05,0,0,1,.08,0s.05.05.05.07c0,.23-.05.46-.08.69s0,.16.14.16l.65,0a.76.76,0,0,0,.64-.42,6.09,6.09,0,0,0,.3-.63c.59-1.35,1.17-2.71,1.75-4.06.17-.39.32-.77.48-1.15a3,3,0,0,1,.18-.36c.09-.16.2-.16.29,0a3.18,3.18,0,0,1,.16.32l2.08,4.84.38.87a.87.87,0,0,0,.88.61,1.6,1.6,0,0,1,.29,0C241.06,236.12,240.92,236,240.81,236Z" transform="translate(-150.56 -224.51)"/><path class="m" d="M172.57,281.8a2.26,2.26,0,0,0,1-.27,8.51,8.51,0,0,0,1.66-1.19c.27-.24.51-.52.78-.77a2.89,2.89,0,0,0,.57-.81,1,1,0,0,0,.08-1s0-.1-.05-.14a2.75,2.75,0,0,1-.28-1.5c0-.51,0-1,0-1.54a14.27,14.27,0,0,1,.17-1.73c.06-.38.08-.76.13-1.14.07-.56.14-1.11.22-1.67.05-.33.13-.65.16-1,.08-.61.2-1.21.28-1.82s.22-1.44.35-2.15a16.88,16.88,0,0,1,.34-1.86,5.39,5.39,0,0,0,.12-.68,4.34,4.34,0,0,1,1-2.13,1.75,1.75,0,0,1,.81-.55.19.19,0,0,1,.28.18,1.91,1.91,0,0,0,.1.53.27.27,0,0,1-.08.28l0-.25c-.12-.06-.19,0-.25.1a3.72,3.72,0,0,0-1.22,2.11c-.22,1.14-.45,2.28-.66,3.43-.17.93-.31,1.87-.47,2.8s-.3,1.94-.44,2.91a23.15,23.15,0,0,0-.23,4.78,3.16,3.16,0,0,0,.29,1.2,1.35,1.35,0,0,1-.11,1.42,6.65,6.65,0,0,1-.77,1,8.83,8.83,0,0,1-1.77,1.45,3.9,3.9,0,0,1-.35.19,1.19,1.19,0,0,1-1,.09A1.32,1.32,0,0,1,172.57,281.8Z" transform="translate(-150.56 -224.51)"/><path class="m" d="M164.5,288.29a1,1,0,0,1,.25,0,2.56,2.56,0,0,0,2.51-.72,4.85,4.85,0,0,0,.94-1.22,12.33,12.33,0,0,0,1.08-2.4c.06-.21.13-.42.17-.63a1.63,1.63,0,0,0,0-.44.5.5,0,0,0-.39-.52.66.66,0,0,1-.52-.42.73.73,0,0,1-.07-.24c0-.57-.14-1.13-.09-1.69.07-.83.07-1.66.09-2.49.16-.54,0-1.1.17-1.63a.11.11,0,0,0,0,0,23.76,23.76,0,0,1,.13-2.39,9.58,9.58,0,0,1,.16-1.78.38.38,0,0,0,0-.1c0-.65.11-1.29.12-1.94,0-.43.1-.86.11-1.29a.64.64,0,0,1,.18-.46,1.49,1.49,0,0,1,.12,1.15,12.34,12.34,0,0,0-.08,4.2,1.43,1.43,0,0,1,0,.68c0,.84-.07,1.66-.13,2.49-.09,1.35-.1,2.69-.07,4a7.42,7.42,0,0,0,.2,1.48.94.94,0,0,0,.4.61,1.12,1.12,0,0,1,.48,1,3,3,0,0,1-.2,1.07A10.53,10.53,0,0,1,168,288a3.44,3.44,0,0,1-.74.58,2.2,2.2,0,0,1-1.68.22A2.37,2.37,0,0,1,164.5,288.29Z" transform="translate(-150.56 -224.51)"/><path class="m" d="M204.67,256a3.47,3.47,0,0,0-1.06.29.82.82,0,0,0-.44.38c-.36.69-.74,1.37-1.11,2.07-.93,1.78-1.88,3.55-2.94,5.27a28.6,28.6,0,0,1-3.31,4.36,23.67,23.67,0,0,1-2.33,2.26,8.68,8.68,0,0,1-1.19.82,2.43,2.43,0,0,1-2.91-.35c.11-.1.23,0,.33,0a2.39,2.39,0,0,0,2.6-.49,25.62,25.62,0,0,0,6.2-6.88c1-1.57,1.93-3.13,2.79-4.77.49-.94,1-1.88,1.51-2.8a1.75,1.75,0,0,1,1.38-.86c.15,0,.3,0,.45,0,.63-.11.73,0,.54.67C205,256,204.83,255.89,204.67,256Z" transform="translate(-150.56 -224.51)"/><path class="b" d="M239.59,241.62H237.9c-.57,0-.71-.15-.72-.71s0-.89,0-1.34a2.09,2.09,0,0,1,0-.25.54.54,0,0,1,.52-.51h3.79a.53.53,0,0,1,.56.57c0,.31,0,.63,0,.94v.6c0,.53-.17.69-.69.7Z" transform="translate(-150.56 -224.51)"/><path class="n" d="M280.36,267.19a.75.75,0,0,1,0,.15,1.79,1.79,0,0,0,.13,1.25,2.38,2.38,0,0,0,.91,1,4.26,4.26,0,0,0,2,.68,4.57,4.57,0,0,0,1,.09c.41,0,.82-.07,1.23-.14l.58-.08c.05.13-.06.18-.12.25a3.41,3.41,0,0,0-.67,1.15.62.62,0,0,0,.11.61,1.79,1.79,0,0,0,.46.45,6.58,6.58,0,0,0,1.84.86c.53.14,1.06.25,1.59.37a3.78,3.78,0,0,0,.75,0,8.36,8.36,0,0,0,2,0h.3c.08-.08.22,0,.3-.09h.2c.06-.06.15,0,.2-.09h.1l.1-.09h.1l.1-.09.21-.1a1.25,1.25,0,0,1-.64.66,3,3,0,0,1-1.42.43,13.14,13.14,0,0,1-5-.62,4.39,4.39,0,0,1-1-.48,2.6,2.6,0,0,1-.65-.54,1,1,0,0,1-.12-1,3.55,3.55,0,0,1,.51-.86c.06-.07.14-.14.11-.27a1.09,1.09,0,0,0-.44,0,7.09,7.09,0,0,1-2.43.08,4,4,0,0,1-2-.85,2.51,2.51,0,0,1-.93-2.16c0-.24.07-.42.32-.5S280.25,267.18,280.36,267.19Z" transform="translate(-150.56 -224.51)"/><path class="m" d="M185.79,268.5c-.63.36-.61.13-.62-.34a7.92,7.92,0,0,1,.22-1.88c.22-1,.44-2,.7-3,.38-1.46.67-2.94,1-4.41.17-.71.31-1.43.48-2.14.21-.9.42-1.81.57-2.72a5.77,5.77,0,0,0,.13-1.44,4.39,4.39,0,0,0-.37-1.74.32.32,0,0,1,0-.14,1.1,1.1,0,0,1,.47.55,3.59,3.59,0,0,1,.45,2.4c-.18,1-.37,1.93-.58,2.89s-.4,2-.62,2.92c-.34,1.52-.7,3.05-1.05,4.56-.2.83-.42,1.65-.62,2.47-.09.39-.17.78-.23,1.17a5.46,5.46,0,0,0,0,.7A.13.13,0,0,0,185.79,268.5Z" transform="translate(-150.56 -224.51)"/><path class="o" d="M236.14,241l.75.52c0,.13-.14.09-.22.09-.33,0-.66,0-1,0a1,1,0,0,1-.61-.19l-1.47-.93-.22-.12a.1.1,0,0,0-.15.07v.95c0,.17,0,.21-.21.21h-.8c-.19,0-.22,0-.22-.24V239c0-.2,0-.23.24-.23h3.9a1,1,0,0,1,.24,0,.44.44,0,0,1,.41.48c0,.38,0,.77,0,1.15s-.07.35-.32.43C236.37,240.92,236.26,240.88,236.14,241Z" transform="translate(-150.56 -224.51)"/><path class="b" d="M220.64,240.19V239c0-.19,0-.22.19-.22H222c.13,0,.18.06.18.18v.7a.17.17,0,0,0,.19.19h2.19a.16.16,0,0,0,.18-.18c0-.25,0-.5,0-.75a.12.12,0,0,1,.12-.13H225a11.75,11.75,0,0,1,1.19,0,4.25,4.25,0,0,1,.05,1.18c0,.47,0,.93,0,1.4,0,.24,0,.24-.26.24h-.35l-.85,0a2.59,2.59,0,0,1-.06-.83v-.05c0-.18,0-.21-.2-.21h-2.19a.14.14,0,0,0-.16.15c0,.27,0,.54,0,.8a.14.14,0,0,1-.15.16h-1.25c-.12,0-.17-.07-.17-.18Z" transform="translate(-150.56 -224.51)"/><path class="p" d="M242.64,261.51l-1.79-.07c-1.55-.05-3.09-.08-4.64,0l-2.34.14a.26.26,0,0,0-.25-.1h-.69a.32.32,0,0,1-.26-.1.56.56,0,0,1,.52-.13,7.28,7.28,0,0,0,3.63-.86,29.52,29.52,0,0,0,3.33-1.78,1.07,1.07,0,0,1,.68-.28.12.12,0,0,1,.08.12,2.32,2.32,0,0,0,1.58,2.68c.18.08.41.08.5.29C242.9,261.61,242.77,261.54,242.64,261.51Z" transform="translate(-150.56 -224.51)"/><path class="q" d="M247.46,238.78a1.09,1.09,0,0,0,0,.12c-.41.57-.41.57-1.09.57h-2.3c-.11,0-.24,0-.26.14s0,.18.27.19.4,0,.6,0,.21-.05.27,0-.07.17-.11.25,0,0,0,0a.65.65,0,0,1-.74.36.4.4,0,0,0-.19,0,.19.19,0,0,0-.07.12c0,.07,0,.15.07.16a2.11,2.11,0,0,0,.35,0h3.14a.1.1,0,0,1,.08.17c-.12.16-.25.32-.36.48a.27.27,0,0,1-.25.13h-3.69a3.39,3.39,0,0,1-.45,0,.35.35,0,0,1-.31-.34c0-.1,0-.2,0-.3q0-.75,0-1.5a1.51,1.51,0,0,1,0-.3.38.38,0,0,1,.41-.35h4.66Z" transform="translate(-150.56 -224.51)"/><path class="q" d="M231.83,238.8l-.49.62a.22.22,0,0,1-.17.07h-2.65a2,2,0,0,0-.35,0c-.07,0-.09.08-.09.15s0,.14.1.15h1.06c0,.23-.19.32-.27.47a.39.39,0,0,1-.41.22h-.35c-.1,0-.13.08-.13.17s0,.14.11.15h3.56c0,.2-.14.28-.21.4a.71.71,0,0,1-.77.39c-1.12,0-2.23,0-3.35,0a4,4,0,0,1-.49,0,.29.29,0,0,1-.26-.27,1.34,1.34,0,0,1,0-.2v-1.75a1,1,0,0,1,0-.24.35.35,0,0,1,.3-.3,1,1,0,0,1,.25,0Z" transform="translate(-150.56 -224.51)"/><path class="b" d="M251.29,240.82l1.08-.16.2,0a.69.69,0,0,1,.77.22c.06.07.17.09.19.21-.39.12-4.55.81-5.13.85-.05-.1,0-.15.09-.2l1.74-1.92.25-.3a.35.35,0,0,0-.35,0c-.51.08-1,.16-1.52.26a.45.45,0,0,1-.51-.21c-.07-.11-.2-.18-.19-.35l5.06-.82s.05,0,.11,0c-.66.81-1.38,1.54-2,2.33C251,240.91,251.17,240.85,251.29,240.82Z" transform="translate(-150.56 -224.51)"/><path class="p" d="M277.26,254.12c-.13-.05-.29,0-.41-.11h0a2.89,2.89,0,0,1,1.46.08.66.66,0,0,0,.2,0c.11,0,.19-.07.19-.18,0-.27,0-.53,0-.8a.71.71,0,0,0-.13-.31c-.11-.21,0-.34.2-.39H279a.25.25,0,0,1,0,.15,12,12,0,0,0,0,1.47,8.88,8.88,0,0,0,1.39,1,.54.54,0,0,0,.48,0l.31-.08.23-.08.12,0,.28-.1a.39.39,0,0,0,.27-.21c0-.25-.15-.38-.29-.54s-.28-.24-.27-.45c.35-.16.57.06.78.28a.63.63,0,0,1,.17.72c-.05.15-.08.28-.25.32a.48.48,0,0,0-.2.15,1,1,0,0,1-.76.32H281a.25.25,0,0,0-.22.35.74.74,0,0,0,.34.53.35.35,0,0,1,.11.1c.08.1.15.29.28.23s.38-.18.42-.39a.38.38,0,0,1,.3-.35.18.18,0,0,0,.11-.16.43.43,0,0,1,.14-.3c.11-.12.23-.16.34,0s.35,0,.41.24c-.19.12-.45.09-.58.32a2.34,2.34,0,0,1-.25.3,2,2,0,0,0-.29.36.6.6,0,0,0-.1.73c.24.46.31,1,.55,1.45a.5.5,0,0,0-.4.14.58.58,0,0,0-.12.42,4,4,0,0,1,0,.49.56.56,0,0,0,.49.66c-.2.48-.32,1-.53,1.48a.51.51,0,0,0,.05.6l.09.1.07.1a1.57,1.57,0,0,0,.19.26c.07.08.14.15.21.24s.13.18.06.3a1.4,1.4,0,0,1-.29,0A.45.45,0,0,1,282,263a.19.19,0,0,0-.15-.26.46.46,0,0,1-.22-.11c-.05,0-.07-.15-.18-.14s-.05.26-.15.36a1.79,1.79,0,0,0-.23.25,4.77,4.77,0,0,0-.25.43c-.05.08-.16.15-.08.25s.19.07.29.05a1,1,0,0,1,.92.19c.15.11.31.19.46.29s.3.25.25.48-.16.29-.42.34a.33.33,0,0,1-.1,0,.26.26,0,0,1,0-.19c0-.12.11-.23.06-.35a.49.49,0,0,0-.25-.17l-.36-.11-.31-.1a2.87,2.87,0,0,0-.57-.17c-.33,0-.47.29-.71.42s-.45.4-.79.3c0-.21-.16-.23-.32-.23,0-.26.25-.29.4-.39a5.63,5.63,0,0,0,2.43-3.21,4,4,0,0,0,.1-.5,1.61,1.61,0,0,0,.05-.44v-.61a5.13,5.13,0,0,0-1.3-3.24,5.71,5.71,0,0,0-.55-.55,6.15,6.15,0,0,0-2.49-1.27A.53.53,0,0,1,277.26,254.12Z" transform="translate(-150.56 -224.51)"/><path class="q" d="M240.81,236a.28.28,0,0,0,.26-.1h1.1c.09,0,.19,0,.28-.06a3.66,3.66,0,0,1-.66-.58,2.86,2.86,0,0,1-.5-2.32,2.64,2.64,0,0,1,.32-.93,2.41,2.41,0,0,1,2-1.21,4.36,4.36,0,0,1,1.14,0,2.92,2.92,0,0,0,.93.06.67.67,0,0,1,.05.36c0,.18.17.4-.1.53a1.35,1.35,0,0,0-1.07-.64,3.32,3.32,0,0,0-1.09,0,1.52,1.52,0,0,0-1.22,1.12,3.26,3.26,0,0,0,.24,2.52,2,2,0,0,0,2.12,1.08c.28,0,.37-.12.37-.42s0-.87,0-1.3a.46.46,0,0,0-.26-.49c0-.09,0-.14.1-.1h1.34c-.39.22-.42.25-.43.64,0,.61,0,1.23,0,1.85-.11.31-.35.14-.54.14l-4-.15A.59.59,0,0,1,240.81,236Z" transform="translate(-150.56 -224.51)"/><path class="r" d="M180.28,276a.63.63,0,0,1,.38.08,1.58,1.58,0,0,0,1.26-.06,5.31,5.31,0,0,0,1.66-1.07c.28-.28.57-.55.85-.84a9.68,9.68,0,0,0,1.17-1.53c.48-.72.89-1.48,1.34-2.21a4,4,0,0,1,.44-.78.39.39,0,0,1,0,.46,1.74,1.74,0,0,0-.12,1.05h0c-.08,0-.06.14-.12.19a19.94,19.94,0,0,1-2.7,3.92,7.93,7.93,0,0,1-1.3,1.15,2.08,2.08,0,0,1-2.5,0C180.53,276.26,180.35,276.18,180.28,276Z" transform="translate(-150.56 -224.51)"/><path class="r" d="M259.37,264.29c-.93-.25-1.87-.49-2.8-.75a1.88,1.88,0,0,1-.61-.15,2.07,2.07,0,0,1-.62-1.61c0-.58,0-.57-.59-.4-1,.3-2,.67-3.05.89a4.63,4.63,0,0,0-.92.12l-.87-.16a2,2,0,0,0-.24,0c.07-.33.36-.27.56-.29a16.61,16.61,0,0,0,3.61-.84c.38-.13.76-.25,1.13-.4s.51-.18.69.13v.29c.07.1,0,.21.05.31a2.64,2.64,0,0,0,2.06,2.06,6.6,6.6,0,0,0,4.18-.37,2.82,2.82,0,0,1,.73-.28c.34-.14.68-.25,1-.39a4,4,0,0,0,1.05-.63,1.36,1.36,0,0,1-.58.89,3.55,3.55,0,0,1-1.06.63,15,15,0,0,1-2.37.69c-.35.08-.71.14-1.07.21C259.59,264.31,259.46,264.23,259.37,264.29Z" transform="translate(-150.56 -224.51)"/><path class="s" d="M204.77,263.9a4.5,4.5,0,0,0,.89.54,3.45,3.45,0,0,0,1,.27,4.08,4.08,0,0,0,2.49-.49,10.93,10.93,0,0,0,2.66-1.9l.8-.75a2.09,2.09,0,0,0,.2-.22,2.7,2.7,0,0,1,.57-.55c.12.45-.19.8-.3,1.19a10,10,0,0,1-4.22,3.16,3.91,3.91,0,0,1-1.75.34A2.61,2.61,0,0,1,204.77,263.9Z" transform="translate(-150.56 -224.51)"/><path class="t" d="M309.76,269.29a1.83,1.83,0,0,1,.69,1.07,2.71,2.71,0,0,1-.19,2,9.17,9.17,0,0,1-.48.87c-.21.31-.14.49.22.6a2.62,2.62,0,0,0,.78.14,2.88,2.88,0,0,1,.59.07,6.55,6.55,0,0,0,1.4,0c.4-.06.82-.08,1.23-.17a6.9,6.9,0,0,0,2.3-.9.38.38,0,0,1,.27-.1,2.87,2.87,0,0,1-.76.63,7.86,7.86,0,0,1-5,1.25,4.55,4.55,0,0,1-1.49-.38,2.81,2.81,0,0,1-.55-.34.36.36,0,0,1-.09-.45,1.46,1.46,0,0,1,.21-.28,5.66,5.66,0,0,0,.66-.94c.06-.06,0-.15.08-.22a.07.07,0,0,1,0-.08c.05-.06,0-.15.08-.21a.08.08,0,0,1,0-.09l.23-.54a1.48,1.48,0,0,0-.09-1.37C309.82,269.69,309.61,269.53,309.76,269.29Z" transform="translate(-150.56 -224.51)"/><path class="m" d="M236.26,253.28c.08.56.24.72.81.83a4.89,4.89,0,0,0,1.48,0,9.8,9.8,0,0,0,1.84-.42,5.86,5.86,0,0,0,1.33-.65,3.56,3.56,0,0,0,.71-.63,6.09,6.09,0,0,0,1.29-2,9.65,9.65,0,0,0,.37-1.19,4.93,4.93,0,0,0,.09-1.08c0-.14,0-.27,0-.4a.39.39,0,0,1,.09.28,5.41,5.41,0,0,1-.23,2.26,8.13,8.13,0,0,1-1.08,2.24,4.84,4.84,0,0,1-2.09,1.71,8,8,0,0,1-3,.7,5.34,5.34,0,0,1-.69-.05,1.19,1.19,0,0,1-.93-1.63Z" transform="translate(-150.56 -224.51)"/><path class="t" d="M299.76,281.52c-.17,0-.36,0-.5-.11h1.29a2.72,2.72,0,0,0,.93-.2,1.57,1.57,0,0,0,1.08-1.47,4.34,4.34,0,0,0-.08-1.19,10.13,10.13,0,0,0-.81-2.4c-.09-.19-.15-.4-.23-.6,0-.53-.17-1.08.22-1.55a.64.64,0,0,1,.15.13c.29.67.57,1.34.87,2,.17.36.31.73.45,1.11a4.44,4.44,0,0,1,.21,1.91,3.36,3.36,0,0,1-.39,1.33,1.87,1.87,0,0,1-1.26.91,3.32,3.32,0,0,1-.83.11C300.49,281.49,300.12,281.51,299.76,281.52Z" transform="translate(-150.56 -224.51)"/><path class="u" d="M205.18,255.89v-.15c0-.41,0-.51-.54-.41a2.89,2.89,0,0,1-.49.07,1.39,1.39,0,0,0-1.07.56,4.57,4.57,0,0,0-.71,1.3.63.63,0,0,1-.12.21,3.48,3.48,0,0,0-.51.9,1.1,1.1,0,0,1-.15.26,2.74,2.74,0,0,0-.49.86,5.77,5.77,0,0,1-.62,1.18,11.11,11.11,0,0,0-.69,1.21,3.92,3.92,0,0,1-.33.5c-.21.3-.39.64-.58,1,0,0,0,.13-.09.17a2.36,2.36,0,0,0-.38.57c-.11.18-.23.37-.35.54-.42.58-.82,1.16-1.26,1.72-.28.35-.61.65-.89,1s-.7.71-1,1.13a1.41,1.41,0,0,1-.38.39,13.8,13.8,0,0,0-1.31,1.22.93.93,0,0,1-.48.34.56.56,0,0,0-.23.18,1.81,1.81,0,0,1-.65.45,4.45,4.45,0,0,1-1.08.37,1.87,1.87,0,0,1-.91-.12,1.53,1.53,0,0,0-.51-.21c-.23-.1-.33-.33-.51-.49a.09.09,0,0,1,0-.08l0,0a3,3,0,0,1,.37.25,1.77,1.77,0,0,0,1.06.37,2.28,2.28,0,0,0,1.2-.27,9.62,9.62,0,0,0,1.77-1.19,28.68,28.68,0,0,0,2.5-2.43,16.27,16.27,0,0,0,1.65-2.05c.52-.79,1.06-1.57,1.57-2.37s.82-1.4,1.22-2.11.9-1.59,1.34-2.39c.14-.25.26-.5.39-.75.24-.49.5-1,.77-1.46a1.54,1.54,0,0,1,.84-.73,2.33,2.33,0,0,1,.73-.16,1.67,1.67,0,0,0,.54-.07,1.35,1.35,0,0,1,.35,0,.18.18,0,0,1,.19.19,1,1,0,0,1-.12.62S205.2,255.93,205.18,255.89Z" transform="translate(-150.56 -224.51)"/><path class="v" d="M222.88,261.59a4.64,4.64,0,0,0,2.44-.56,15.63,15.63,0,0,0,2.6-1.57,11.81,11.81,0,0,0,1.49-1.24q.14-.15.24,0c.08.15.15.3.23.44s.06.17,0,.24-.14-.14-.25,0c-.34.3-.69.58-1,.87a16.31,16.31,0,0,1-3.4,2.16,4.13,4.13,0,0,1-1.37.43,1.08,1.08,0,0,1-.64-.05A1.94,1.94,0,0,1,222.88,261.59Z" transform="translate(-150.56 -224.51)"/><path class="s" d="M240.86,258.43c-.14,0-.23.05-.32.11a31.92,31.92,0,0,1-3.13,1.74,13,13,0,0,1-2.08.85,6,6,0,0,1-2.26.28h-.4a1.33,1.33,0,0,0-.28-.1,4.54,4.54,0,0,1-1.59-.78,2.51,2.51,0,0,1-.91-1.28,1.94,1.94,0,0,1,0-.24c.12-.07.15,0,.21.09h0a3.69,3.69,0,0,0,3.09,1.71,8.21,8.21,0,0,0,4.32-1.18c.25-.13.49-.28.75-.4a13,13,0,0,0,2-1.14c.15-.1.33-.22.5-.08A.29.29,0,0,1,240.86,258.43Z" transform="translate(-150.56 -224.51)"/><path class="m" d="M157.71,271.39a.91.91,0,0,0,.64-.24,2.58,2.58,0,0,0,.7-.77,7.84,7.84,0,0,1,1.23-1.63,2.76,2.76,0,0,1,.51-.39.77.77,0,0,1,.72-.05,2,2,0,0,1,.78.67,2.29,2.29,0,0,0-.74,0,1.76,1.76,0,0,0-1,.81c-.24.42-.48.84-.71,1.26a2.94,2.94,0,0,1-.45.6.72.72,0,0,1-.81.22A1.75,1.75,0,0,1,157.71,271.39Z" transform="translate(-150.56 -224.51)"/><path class="w" d="M227.09,257.49c-.26-.1-.3-.33-.31-.57a3.44,3.44,0,0,1,.16-1.27,9.83,9.83,0,0,1,.48-1.21,21,21,0,0,1,1-1.95c.25-.41.46-.85.7-1.26q.72-1.2,1.47-2.37a2.86,2.86,0,0,0,.4-1.17,1.58,1.58,0,0,1-.09,1.65c-.6,1-1.22,1.94-1.8,2.93a28.84,28.84,0,0,0-1.5,2.86,8.89,8.89,0,0,0-.44,1.32A2.61,2.61,0,0,0,227.09,257.49Z" transform="translate(-150.56 -224.51)"/><path class="s" d="M214.49,260.67l.11.11a2.85,2.85,0,0,0,2.33,1.22c.23,0,.47,0,.7,0a3.23,3.23,0,0,0,1.69-.52c.37-.23.71-.5,1.06-.75a2,2,0,0,1,.59-.36,1.94,1.94,0,0,1-.49,1,7.38,7.38,0,0,1-2.09,1.2,3,3,0,0,1-3.34-.9,2.59,2.59,0,0,1-.57-.92C214.43,260.75,214.44,260.71,214.49,260.67Z" transform="translate(-150.56 -224.51)"/><path class="r" d="M196,263.2a.41.41,0,0,1-.19.3,1.3,1.3,0,0,0-.44.4c-.09.11-.2.27-.36.17s-.06-.23,0-.36q.36-1.21.75-2.43a45.38,45.38,0,0,0,1.5-5.24,9.59,9.59,0,0,0,.11-1.18l.06-.07a1.8,1.8,0,0,1,.25,1.24,14.57,14.57,0,0,1-.38,1.74c-.21.87-.44,1.73-.67,2.6l-.27.95c0,.12,0,.23,0,.35s0,.23-.09.32h0c-.09.09,0,.22-.1.31a0,0,0,0,0,0,.06c-.06.11,0,.22,0,.34S195.91,263,196,263.2Z" transform="translate(-150.56 -224.51)"/><path class="x" d="M299.45,269a.28.28,0,0,0,0,.09c.06,0,0,.15.09.21a.28.28,0,0,0,0,.09c.06.05,0,.14.1.2h0s0,.14.09.2h0c.07.06.05.15.06.23a4.58,4.58,0,0,1,.12,1.52.37.37,0,0,1-.19.38,1.16,1.16,0,0,1-.27-.47c-.44-1-.89-1.92-1.25-2.92,0,0,0-.05-.06-.07s-.19,0-.27.09l-1.36.82-.27.13c-.09-.16.06-.22.12-.32a.24.24,0,0,1,.08-.09h0a.4.4,0,0,1,.12-.1h.08l.1-.09h0c.05-.06.15,0,.2-.11h0l.11-.09h.09l.1-.09h0c.05-.06.15,0,.19-.11h0l.11-.09a.15.15,0,0,0,.09,0,.39.39,0,0,0,.1-.08h0c.05-.06.14,0,.19-.11h0l.1-.09h0c.05-.06.15,0,.2-.1h0a.4.4,0,0,1,.12-.1h.08l.11-.09a.15.15,0,0,0,.09,0,.39.39,0,0,0,.1-.08h0c.15-.11.22,0,.29.11a.28.28,0,0,0,0,.09c.09.08,0,.22.1.3h0c.1.08,0,.22.11.3h0c.07.05.05.15.1.21a.28.28,0,0,0,0,.09C299.42,268.85,299.4,269,299.45,269Z" transform="translate(-150.56 -224.51)"/><path class="y" d="M210,260.49a.4.4,0,0,1-.41-.45,1.92,1.92,0,0,1,0-.24,16.32,16.32,0,0,1,3.15-6.07,2.47,2.47,0,0,0,.54-1l0-.42a1.11,1.11,0,0,1,.09,1.38,4.6,4.6,0,0,1-.37.53,12.84,12.84,0,0,0-1.58,2.41,20.41,20.41,0,0,0-1.34,3,1.23,1.23,0,0,0-.1.82s0,0,0,.07Z" transform="translate(-150.56 -224.51)"/><path class="z" d="M247.71,257.18a.35.35,0,0,1-.35-.15.2.2,0,0,1,0-.23,2.3,2.3,0,0,1,.25-.43c.53-.61,1-1.27,1.54-1.88s1.11-1.4,1.67-2.1c.41-.53.84-1.06,1.24-1.61a16.1,16.1,0,0,0,1.19-1.77,2.57,2.57,0,0,0,.26-.7c0-.14.07-.29.11-.43a.65.65,0,0,1,0,.53,4.15,4.15,0,0,1-.58,1.47,18.45,18.45,0,0,1-1.42,2c-1.21,1.55-2.45,3.06-3.75,4.54l-.09.11A.43.43,0,0,0,247.71,257.18Z" transform="translate(-150.56 -224.51)"/><path class="aa" d="M309.76,269.29c0,.13.08.21.13.31a2.15,2.15,0,0,1,.37,1.06,1.23,1.23,0,0,1-.32.91,1.92,1.92,0,0,0-.18.22c0-.24,0-.49,0-.74a2,2,0,0,0-.87-1.6,3.59,3.59,0,0,0-3-.56l-.2,0c-.05,0-.05-.07,0-.11h0l.23-.09a2.55,2.55,0,0,1,1.89-.34,4.68,4.68,0,0,1,1.77.73l.11.09h0a.32.32,0,0,0,.1.1Z" transform="translate(-150.56 -224.51)"/><path class="ab" d="M169.4,273.92a6,6,0,0,0-.16-1.27,3.5,3.5,0,0,1-.15-1,15.62,15.62,0,0,0,.11-1.68,7.4,7.4,0,0,0,.15-.82,1.26,1.26,0,0,0,0-.39v-.85a3.26,3.26,0,0,1,.49-1.31,2,2,0,0,1,.08,1.48c-.05.35-.11.7-.17,1.05a15.68,15.68,0,0,1-.14,1.94c-.06.73-.13,1.46-.17,2.19A2,2,0,0,1,169.4,273.92Z" transform="translate(-150.56 -224.51)"/><path class="w" d="M262.68,260.9a.25.25,0,0,1-.05-.39,4.17,4.17,0,0,1,.79-.89,1.94,1.94,0,0,0,.27-.21c.82-.85,1.72-1.61,2.56-2.44.36-.34.73-.67,1.1-1a.59.59,0,0,1,.14-.06,2.39,2.39,0,0,1-.73,1.15c-1.22,1.12-2.42,2.26-3.63,3.39Z" transform="translate(-150.56 -224.51)"/><path class="ac" d="M272.27,251.61a.53.53,0,0,1,.22-.27c.48-.4,1-.78,1.46-1.2s1.14-1,1.7-1.46c.77-.69,1.5-1.42,2.23-2.15a.28.28,0,0,1,.21-.12,1.29,1.29,0,0,1-.29.46,24.19,24.19,0,0,1-3.2,3.2c-.39.34-.81.64-1.19,1A2.3,2.3,0,0,1,272.27,251.61Z" transform="translate(-150.56 -224.51)"/><path class="ad" d="M254.71,259c-.14,0-.25,0-.23-.18a1.45,1.45,0,0,1,.28-.73c.13-.18.26-.34.4-.51.34-.38.71-.74,1-1.14s.79-.84,1.14-1.31a11.15,11.15,0,0,1,.79-.89c.48-.5.92-1,1.41-1.54.27-.29.5-.61.76-.92a1.37,1.37,0,0,1,.18-.16c.14.21,0,.33-.13.47a28.32,28.32,0,0,1-2.42,2.82,1.86,1.86,0,0,0-.44.53c-.39.43-.79.85-1.17,1.28s-.74.81-1.08,1.23A1.84,1.84,0,0,0,254.71,259Z" transform="translate(-150.56 -224.51)"/><path class="ae" d="M233.75,256.7a.46.46,0,0,1-.17-.39,3,3,0,0,1,.22-1.47,6.24,6.24,0,0,1,1.49-2.1c.31-.27.65-.52,1-.77a.77.77,0,0,1,.4-.18c.07.27-.19.31-.31.44s-.45.34-.65.55c.13,0,.34-.18.37.13a8.82,8.82,0,0,0-1.3,1.22,5.18,5.18,0,0,0-.91,1.64A2.28,2.28,0,0,0,233.75,256.7Z" transform="translate(-150.56 -224.51)"/><path class="af" d="M301.66,274a4.8,4.8,0,0,0-.11,1.07,2.08,2.08,0,0,1-.11.48,3.24,3.24,0,0,1-.42-.83,5.82,5.82,0,0,1-.48-1.08,3.63,3.63,0,0,1-.05-1.88.13.13,0,0,1,.17-.05.34.34,0,0,0,0,.1l.09.1h0c.05.05,0,.14.1.2h0c.06,0,0,.14.1.2h0a4.88,4.88,0,0,0,.41.9A3.78,3.78,0,0,1,301.66,274Z" transform="translate(-150.56 -224.51)"/><path class="ag" d="M217.34,281.91c.21,0,.3.2.42.33a5.66,5.66,0,0,0,1.79,1.23,7.84,7.84,0,0,0,1.85.53l.34.06a1.21,1.21,0,0,0,.77-.1.44.44,0,0,0,.27-.39.65.65,0,0,1,.08.57.49.49,0,0,1-.36.37,1.72,1.72,0,0,1-.78,0,6.36,6.36,0,0,1-2.75-1.07,7.39,7.39,0,0,1-1.47-1.32A.47.47,0,0,1,217.34,281.91Z" transform="translate(-150.56 -224.51)"/><path class="ah" d="M282.58,255.8c.12-.33.37-.36.67-.27l.11.18c.4.94.69,1.92,1,2.89v.1c-.05.05,0,.14-.08.2-.2.21-.42.13-.63,0C283.31,257.87,282.9,256.85,282.58,255.8Z" transform="translate(-150.56 -224.51)"/><path class="ai" d="M320.52,263.89c-.1.33-.19.61-.26.9,0,.13-.13.14-.23.14a.18.18,0,0,1-.19-.12c-.06-.24-.13-.48-.2-.72,0-.06-.06-.12-.08-.17s-.08.1-.08.14c0,.25,0,.5,0,.75a.13.13,0,0,1-.13.12c-.1,0-.18,0-.18-.13v-1.44c0-.11.07-.14.17-.14a1.92,1.92,0,0,1,.24,0,.18.18,0,0,1,.18.15c.07.27.14.54.22.82,0,0,0,.06.06.06s.09,0,.1-.08c.07-.24.12-.48.2-.72s.08-.23.31-.23a.69.69,0,0,1,.2,0c.06,0,.07.06.09.1a.07.07,0,0,1,0,.05v1.4c0,.1-.07.14-.16.15s-.16,0-.16-.15,0-.33,0-.5A.52.52,0,0,0,320.52,263.89Z" transform="translate(-150.56 -224.51)"/><path class="ag" d="M286.65,267.7a.19.19,0,0,1-.08-.18.73.73,0,0,1,.3-.43l3.35-2.5c.51-.37,1-.74,1.54-1.09s1.12-.77,1.65-1.2a.27.27,0,0,1,.27-.08,4.23,4.23,0,0,1-.92.82l-2.8,2.07c-1,.73-2,1.51-3,2.22A.55.55,0,0,0,286.65,267.7Z" transform="translate(-150.56 -224.51)"/><path class="aj" d="M269.75,262.79a2.63,2.63,0,0,1-.49.61c-.24,0-.29-.19-.35-.35-.31-.77-.53-1.56-.79-2.34-.1-.31,0-.54.38-.43a1.71,1.71,0,0,1,.7.2.59.59,0,0,0,0,.65C269.38,261.68,269.55,262.24,269.75,262.79Z" transform="translate(-150.56 -224.51)"/><path class="ak" d="M195.68,252.1l.26-.3a3.08,3.08,0,0,0,.68-1.24,4.18,4.18,0,0,0,.16-1.27c0-.19,0-.39,0-.59.27,0,.2.27.22.42a4.29,4.29,0,0,1-.49,2.59c-.24.39-.28.84-.52,1.22h0a.1.1,0,0,0-.11.1h0c-.07,0-.09,0-.12.09a2.3,2.3,0,0,1-1.31.58.49.49,0,0,1,.21-.78A3.24,3.24,0,0,0,195.68,252.1Z" transform="translate(-150.56 -224.51)"/><path class="al" d="M196,252.93c0-.1.07-.21,0-.29a.49.49,0,0,1,.08-.51,4.14,4.14,0,0,0,.72-1.78,5.51,5.51,0,0,0,0-1.57.24.24,0,0,0-.06-.08,4.49,4.49,0,0,1-.21-.8,2,2,0,0,1,.49.9,3.75,3.75,0,0,1,.05,2.25,4.1,4.1,0,0,1-.85,1.66A.64.64,0,0,1,196,252.93Z" transform="translate(-150.56 -224.51)"/><path class="am" d="M300.56,271.69l0,1.94a10.16,10.16,0,0,1-.8-1.7c0-.19.15-.37,0-.57s0-.13,0-.2.12-.39.07-.58a1.65,1.65,0,0,1-.07-.58c0-.05.07-.05.09,0a.28.28,0,0,0,0,.09c.06,0,0,.14.1.2h0c.06.05,0,.14.1.2h0c.05.05,0,.14.1.2h0c.07.05.05.15.1.2s0,.07,0,.1l.09.1h0c.07,0,0,.15.1.2s0,.07,0,.1a.31.31,0,0,1,.09.11s0,.06,0,.09,0,0,0,.06Z" transform="translate(-150.56 -224.51)"/><path class="an" d="M274.05,267.1a.19.19,0,0,1,0-.26.73.73,0,0,1,.26-.34c1,.08,1.91,0,2.86,0a3.45,3.45,0,0,1,.64,0c.28.31.28.39,0,.64-1,0-2,0-2.95,0A1.56,1.56,0,0,1,274.05,267.1Z" transform="translate(-150.56 -224.51)"/><path class="ao" d="M268.5,260.28l-.2,0a.14.14,0,0,0-.11.19,1,1,0,0,0,.07.23l.7,2.11a1.52,1.52,0,0,0,.3.56c-.24.31-.28.33-.59.16-.38-1.05-.71-2.12-1.11-3.16l0-.11.08-.09a.24.24,0,0,1,.3-.09A1.48,1.48,0,0,1,268.5,260.28Z" transform="translate(-150.56 -224.51)"/><path class="ap" d="M268.56,255.68c.33-.24.36-.24.68.12a15.1,15.1,0,0,0-1.06,3.21c-.36.15-.41.14-.62-.12-.1-.5.21-.91.34-1.35A12.47,12.47,0,0,1,268.56,255.68Z" transform="translate(-150.56 -224.51)"/><path class="p" d="M276.86,254a11,11,0,0,0-2.29.09c.06-.09.2-.16.05-.32s-.37-.5-.57-.74a5.08,5.08,0,0,1-.42-.61.38.38,0,0,1,0-.42c.08-.12.22-.11.36-.1a.28.28,0,0,1,0,.12.56.56,0,0,0,.09.35,3.55,3.55,0,0,0,.23.31c.12.15.23.3.36.44a.86.86,0,0,0,.78.33,3.78,3.78,0,0,1,1.46.11.19.19,0,0,1-.14.12l-.33,0a.12.12,0,0,0-.05.07.1.1,0,0,0,0,.08C276.59,253.93,276.77,253.85,276.86,254Z" transform="translate(-150.56 -224.51)"/><path class="aq" d="M191.47,252.41a.83.83,0,0,1,.46.17,2.87,2.87,0,0,0,1.38.33,5.79,5.79,0,0,0,1.17-.11.18.18,0,0,1-.06.22,1.73,1.73,0,0,0-.74.68c0,.07-.15,0-.23,0a1.52,1.52,0,0,1-.93-.28A2.58,2.58,0,0,1,191.47,252.41Z" transform="translate(-150.56 -224.51)"/><path class="ar" d="M282.58,255.8a.7.7,0,0,1,.29.38,11,11,0,0,0,.64,1.86,3.29,3.29,0,0,1,.21.76s-.05.08-.08.12-.27,0-.38-.11a.73.73,0,0,1-.28-.39c-.2-.63-.46-1.24-.64-1.87a.54.54,0,0,1,0-.48A.58.58,0,0,1,282.58,255.8Z" transform="translate(-150.56 -224.51)"/><path class="as" d="M277,253.57a1.94,1.94,0,0,1-.34,0,8.42,8.42,0,0,0-1.42,0,.41.41,0,0,1-.45-.21c-.06-.1-.13-.19-.19-.28,0-.25.25-.25.41-.26a15.77,15.77,0,0,1,1.82,0c.2,0,.47,0,.39.35Z" transform="translate(-150.56 -224.51)"/><path class="at" d="M269.75,262.79a1.15,1.15,0,0,1-.39-.71,3.33,3.33,0,0,0-.16-.51c-.09-.25-.19-.49-.27-.74s-.08-.28.27-.35a.41.41,0,0,1,.46.41A3.11,3.11,0,0,0,270,262a.42.42,0,0,1-.08.57l-.14.14a.07.07,0,0,1-.06.07Z" transform="translate(-150.56 -224.51)"/><path class="au" d="M277.77,266.59a.3.3,0,0,1-.26.11h-3c-.14,0-.22-.05-.24-.2a1.14,1.14,0,0,1,.29-.4,17.88,17.88,0,0,0,2.07,0,4.73,4.73,0,0,1,.84,0A1.31,1.31,0,0,1,277.77,266.59Z" transform="translate(-150.56 -224.51)"/><path class="av" d="M267.56,260.4a.28.28,0,0,1,.27.25c.11.6.39,1.15.56,1.74.09.33.26.64.32,1a.27.27,0,0,1,0,.18.77.77,0,0,1-.34-.35,9.58,9.58,0,0,0-.62-1.07.21.21,0,0,1,0-.14,7.4,7.4,0,0,0-.16-1.23C267.5,260.64,267.45,260.51,267.56,260.4Z" transform="translate(-150.56 -224.51)"/><path class="aw" d="M273,266.4a.23.23,0,0,1-.17.31c-.24.09-.41-.08-.59-.18-.57-.33-1.11-.7-1.65-1.08-.2-.15-.39-.37-.69-.33a.64.64,0,0,1-.26-.4.18.18,0,0,1,.06-.22c.11,0,.2-.1.31-.08C271,265,272,265.7,273,266.4Z" transform="translate(-150.56 -224.51)"/><path class="ax" d="M277.17,253.21c0-.1-.06-.19-.18-.2h-2.08a.41.41,0,0,0-.36.11,1.17,1.17,0,0,1-.3-.4c0-.26.25-.24.41-.24q1.21,0,2.43,0c.19,0,.46,0,.38.34A1.06,1.06,0,0,1,277.17,253.21Z" transform="translate(-150.56 -224.51)"/><path class="ay" d="M257.48,255.42a.26.26,0,0,1,.06-.23l.17-.19c.44-.47.89-.93,1.31-1.42s.83-1,1.25-1.54a.81.81,0,0,0,.2-.44l.54-.88a1.79,1.79,0,0,0,.26-1.13c0-.1,0-.2,0-.3a.34.34,0,0,1,.1.27,3,3,0,0,1-.42,1.77,13.26,13.26,0,0,1-1,1.38,33.62,33.62,0,0,1-2.41,2.66Z" transform="translate(-150.56 -224.51)"/><path class="az" d="M281.53,253.51l.47.49a.88.88,0,0,1,.24.36.23.23,0,0,1-.06.26c-.78-.58-1.61-1.09-2.41-1.64a1.49,1.49,0,0,1-.35-.27c-.16-.19,0-.25.14-.3a1.75,1.75,0,0,1,.59.22,4.69,4.69,0,0,0,.72.33.46.46,0,0,1,.29.24A.63.63,0,0,0,281.53,253.51Z" transform="translate(-150.56 -224.51)"/><path class="ba" d="M274.07,251.9a.85.85,0,0,1,.5-.2,4,4,0,0,1,.84-.11.79.79,0,0,0,.29-.06.66.66,0,0,1,.34,0,7.28,7.28,0,0,0,1.12.19.94.94,0,0,1,.51.19c0,.27-.24.24-.41.24q-1.36,0-2.73,0C274.34,252.13,274.16,252.11,274.07,251.9Z" transform="translate(-150.56 -224.51)"/><path class="bb" d="M282,262.61l-.17-.18a.3.3,0,0,1-.05-.37,5,5,0,0,0,.46-1.41c0-.18.21-.14.28-.25l.3,0c.22,0,.19.15.16.27a17.58,17.58,0,0,1-.67,2,.17.17,0,0,1-.2.1h0A.13.13,0,0,0,282,262.61Z" transform="translate(-150.56 -224.51)"/><path class="bc" d="M281.57,264.18a.57.57,0,0,1,.39.12c.14.29-.11.37-.27.48-.71.5-1.44,1-2.13,1.46-.15.11-.34.18-.26.42l0,.06a.28.28,0,0,1-.29-.28c0-.11,0-.23,0-.35.18-.39.58-.54.89-.77C280.43,264.92,281,264.57,281.57,264.18Z" transform="translate(-150.56 -224.51)"/><path class="bd" d="M169.79,269.11a6.77,6.77,0,0,1,.08-1,10.61,10.61,0,0,0,0-1.13c0-.13,0-.26,0-.39a1.89,1.89,0,0,1,.48-.79.43.43,0,0,1,.33-.2,4.31,4.31,0,0,1-.29,1.74A7.65,7.65,0,0,0,169.79,269.11Z" transform="translate(-150.56 -224.51)"/><path class="be" d="M279.56,252.41c-.16.18-.16.18,0,.28.79.53,1.58,1.07,2.38,1.59a.46.46,0,0,1,.25.34.33.33,0,0,1-.32.17c-.78-.59-1.6-1.14-2.41-1.69-.22-.15-.46-.28-.47-.6a.14.14,0,0,1,0-.09A.69.69,0,0,1,279.56,252.41Z" transform="translate(-150.56 -224.51)"/><path class="bf" d="M170.17,261.06l-.4.68a.18.18,0,0,1-.12.08c-.06,0-.06-.06-.07-.1l-.18-1.08a2.6,2.6,0,0,0-.55-1.26c0-.05,0-.12-.07-.18a2,2,0,0,1,1,1.06A5.75,5.75,0,0,0,170.17,261.06Z" transform="translate(-150.56 -224.51)"/><path class="bg" d="M269.86,265.12c.07-.22.09-.23.25-.13l1.29.89c.4.27.8.52,1.2.77a.7.7,0,0,0,.19.06.36.36,0,0,1-.42,0c-.25-.08-.5-.18-.74-.28a2,2,0,0,0-.67-.3.23.23,0,0,1-.16-.11,4.15,4.15,0,0,0-.71-.68C270,265.3,269.94,265.21,269.86,265.12Z" transform="translate(-150.56 -224.51)"/><path class="bh" d="M284.27,260.19c.17.18.09.4.08.61a21.13,21.13,0,0,1-1,2.58c-.23.24-.27.25-.53.14.31-1,.67-2,1-3C283.91,260.31,284,260.12,284.27,260.19Z" transform="translate(-150.56 -224.51)"/><path class="bi" d="M284.27,260.19a.46.46,0,0,0-.29.29,6.14,6.14,0,0,0-.32,1,.59.59,0,0,1-.05.19,3.63,3.63,0,0,0-.36,1,1.89,1.89,0,0,1-.42.82l-.14,0-.14-.28a13.21,13.21,0,0,0,.65-1.76,3,3,0,0,1,.65-1.36C284.06,260,284.09,260,284.27,260.19Z" transform="translate(-150.56 -224.51)"/><path class="bj" d="M187.29,271.1a.68.68,0,0,1-.09-.85,1.26,1.26,0,0,0,.18-.66c.23-.43.45-.87.67-1.31a1.83,1.83,0,0,1,.36-.58h.06a.07.07,0,0,1,0,.05c0,.44,0,.89,0,1.33-.3-.07-.14-.36-.26-.55a3.34,3.34,0,0,0-.41,1.68A3,3,0,0,1,187.29,271.1Z" transform="translate(-150.56 -224.51)"/><path class="bk" d="M268.18,259c-.1,0-.22,0-.17-.18a7.49,7.49,0,0,0,.38-1.22c0-.17.15-.31.2-.49.1-.41.25-.81.39-1.21,0-.12.16-.1.26-.11a.31.31,0,0,1,.13.19,2.48,2.48,0,0,1-.27,1c-.23.63-.42,1.28-.62,1.92A.41.41,0,0,1,268.18,259Z" transform="translate(-150.56 -224.51)"/><path class="bl" d="M270.87,264l.23-.1a.48.48,0,0,1,.54.1,4.24,4.24,0,0,0,1.14.77.32.32,0,0,1,.18.41c-.06.15-.14.35-.34.21a12.2,12.2,0,0,1-1.72-1.14C270.83,264.2,270.78,264.12,270.87,264Z" transform="translate(-150.56 -224.51)"/><path class="bm" d="M270.87,264a.26.26,0,0,0,.09.17,4.32,4.32,0,0,0,1,.62,7.49,7.49,0,0,1,.65.45c.21.11.2.12.4-.06a2.41,2.41,0,0,1,0,.6c0,.1-.14.16-.24.1a14.63,14.63,0,0,1-2.45-1.69A2,2,0,0,1,270.87,264Z" transform="translate(-150.56 -224.51)"/><path class="bn" d="M268.56,255.68a.87.87,0,0,1,0,.39c-.13.33-.19.69-.33,1a2,2,0,0,0-.25.79.79.79,0,0,1-.15.41,2.26,2.26,0,0,0-.23.59c-.16-.19-.1-.41-.08-.62,0-.38.17-.74.18-1.13a.13.13,0,0,1,0-.09,12.13,12.13,0,0,0,.69-1.21C268.42,255.78,268.5,255.74,268.56,255.68Z" transform="translate(-150.56 -224.51)"/><path class="bo" d="M254,251a2.82,2.82,0,0,1-.51.73c-.7.92-1.48,1.77-2.24,2.64-.31.37-.61.74-.92,1.1a.82.82,0,0,1-.25.24,1.58,1.58,0,0,1,.46-.8,3.45,3.45,0,0,0,.26-.28c.48-.55.91-1.14,1.42-1.66.28-.28.51-.61.76-.91.07-.08.13-.16.2-.23a3.31,3.31,0,0,0,.45-.53A.56.56,0,0,1,254,251Z" transform="translate(-150.56 -224.51)"/><path class="bp" d="M282.14,262.72a.57.57,0,0,0,.11-.16l.65-1.92c0-.1.05-.19,0-.26a1.72,1.72,0,0,1,.71-.21,12.11,12.11,0,0,1-.47,1.44c-.11.36-.24.72-.35,1.08-.05.17-.08.42-.38.31A.51.51,0,0,1,282.14,262.72Z" transform="translate(-150.56 -224.51)"/><path class="bq" d="M274.75,265.86a.55.55,0,0,1,.15-.24.28.28,0,0,1,.27-.11h.1a4.06,4.06,0,0,0,1.39,0,.4.4,0,0,1,.5.28c.1.24-.09.31-.24.32a11.31,11.31,0,0,1-1.93,0C274.86,266.1,274.72,266.05,274.75,265.86Z" transform="translate(-150.56 -224.51)"/><path class="br" d="M270.27,255c-.15,0-.26-.09-.4-.11,0-.19.09-.28.21-.36.84-.65,1.74-1.21,2.61-1.82a.17.17,0,0,1,.18,0h0a.64.64,0,0,1,0,.36c-.11.29-.4.39-.62.55C271.62,254.06,271,254.58,270.27,255Z" transform="translate(-150.56 -224.51)"/><path class="bs" d="M214.49,260.67v.13c-.09-.07-.17-.16-.29,0l-.74.84-.37.38a1.59,1.59,0,0,1,.17-.83,1,1,0,0,0,.13-.36h0a1.09,1.09,0,0,0,.1-.11.32.32,0,0,1,.08-.12c.18-.16.28-.4.5-.53.24.13.24.42.41.59Z" transform="translate(-150.56 -224.51)"/><path class="bt" d="M282.36,263c.06,0,.14,0,.17-.09s.09-.28.13-.42.18-.56.28-.84a4.41,4.41,0,0,0,.23-.7,1.38,1.38,0,0,1,.39-.78c.07-.09.18-.08.29-.09l0,0a7.11,7.11,0,0,0-.62,1.58c-.14.44-.3.87-.46,1.3a.26.26,0,0,1-.25.2A.31.31,0,0,1,282.36,263Z" transform="translate(-150.56 -224.51)"/><path class="bu" d="M272.87,252.69c-.37.27-.74.55-1.13.8-.59.37-1.14.79-1.71,1.2a1,1,0,0,0-.16.19.23.23,0,0,1-.22-.15c-.09-.19,0-.27.16-.36.85-.62,1.72-1.19,2.57-1.78a.52.52,0,0,1,.42-.11A.16.16,0,0,1,272.87,252.69Z" transform="translate(-150.56 -224.51)"/><path class="bv" d="M281.77,260.92a3.17,3.17,0,0,1-.41,1.11,5.71,5.71,0,0,1-2.27,2.3c-.08,0-.16.11-.24.16l-.29.09-.08-.05c-.21-.09-.21-.09,0-.24.13.11.18,0,.27-.08a7,7,0,0,0,2.17-2,7.06,7.06,0,0,0,.53-1c.07-.15.1-.32.27-.4S281.82,260.83,281.77,260.92Z" transform="translate(-150.56 -224.51)"/><path class="bw" d="M318.18,263.23h.6c.07,0,.09.08.09.15a.12.12,0,0,1-.08.11.17.17,0,0,1-.1,0h-.15c-.12,0-.18.05-.18.18s0,.49,0,.74v.35c0,.1,0,.16-.14.16s-.22,0-.22-.14c0-.27,0-.53,0-.8v-.3c0-.11,0-.19-.18-.19h-.19c-.09,0-.17,0-.17-.13s.05-.15.19-.16h.55Z" transform="translate(-150.56 -224.51)"/><path class="bx" d="M204.58,251a.37.37,0,0,1-.32-.09.31.31,0,0,1,0-.33,2.66,2.66,0,0,0,.07-.93,4.5,4.5,0,0,0-.09-1.37.67.67,0,0,1,0-.2,2.11,2.11,0,0,1,.48,1.36,3.52,3.52,0,0,1,0,1.12A3.42,3.42,0,0,0,204.58,251Z" transform="translate(-150.56 -224.51)"/><path class="by" d="M282.58,258.69a.49.49,0,0,1-.33-.43,3.59,3.59,0,0,0-.41-1.15.39.39,0,0,1,.05-.49l.2-.22a.16.16,0,0,1,.15.11c.21.62.48,1.22.64,1.86a.38.38,0,0,1,0,.33Z" transform="translate(-150.56 -224.51)"/><path class="bz" d="M270.27,255a1.48,1.48,0,0,1,.26-.3c.72-.51,1.45-1,2.19-1.52l.13-.06c.11.1,0,.23.06.35a9.42,9.42,0,0,1-2.34,1.62C270.45,255.1,270.36,255,270.27,255Z" transform="translate(-150.56 -224.51)"/><path class="ca" d="M193.45,253.71c.12,0,.23-.06.23-.21s.13-.34.33-.4a.61.61,0,0,0,.47-.3,6.84,6.84,0,0,0,1.2-.7.78.78,0,0,1-.05.18,2.26,2.26,0,0,1-.81.7.47.47,0,0,0-.34.56.75.75,0,0,1,0,.15A1.72,1.72,0,0,1,193.45,253.71Z" transform="translate(-150.56 -224.51)"/><path class="cb" d="M281.57,264.18a.32.32,0,0,1-.15.24c-.33.22-.64.45-1,.66-.5.32-1,.68-1.46,1v-.3c0-.1,0-.23.15-.3a23,23,0,0,1,2.13-1.4A.35.35,0,0,1,281.57,264.18Z" transform="translate(-150.56 -224.51)"/><path class="cc" d="M284.36,258.6a.58.58,0,0,1-.29-.45,14.93,14.93,0,0,0-.52-1.6,3,3,0,0,1-.23-.65.46.46,0,0,1,0-.19,2.67,2.67,0,0,1,.53.83c.07.11.12.23.2.34a.55.55,0,0,1,.11.45,1.71,1.71,0,0,0,.1.53A1.85,1.85,0,0,1,284.36,258.6Z" transform="translate(-150.56 -224.51)"/><path class="cd" d="M279.17,264.72a3,3,0,0,0,1-.58l.31-.25a.17.17,0,0,1,.22,0c.23.08.39.22.12.4a10.93,10.93,0,0,1-1.81,1.2c0-.13,0-.26,0-.39S279,264.82,279.17,264.72Z" transform="translate(-150.56 -224.51)"/><path class="ce" d="M274.75,265.86a.26.26,0,0,0,.25.13h1.93a.19.19,0,0,0,.23-.19,1.3,1.3,0,0,1,.31.39.27.27,0,0,1-.22.1H274.8a.22.22,0,0,1-.24-.2A.5.5,0,0,1,274.75,265.86Z" transform="translate(-150.56 -224.51)"/><path class="cf" d="M282.26,264.5c.14.17,0,.28-.08.4a6.74,6.74,0,0,1-1.6,1.21,1.61,1.61,0,0,0-.51.39h0c-.05.05-.14,0-.19.09h0c-.06.06-.14,0-.2.09s-.25.16-.39,0v0a.59.59,0,0,1,.23-.37c.87-.6,1.76-1.17,2.63-1.78A.22.22,0,0,1,282.26,264.5Z" transform="translate(-150.56 -224.51)"/><path class="cg" d="M282.86,258.7a1.52,1.52,0,0,1-.12-.43c-.1-.29-.23-.58-.33-.88s-.21-.66-.32-1a.86.86,0,0,1,.27-.33.43.43,0,0,0,0,.2,9.43,9.43,0,0,1,.29.9c.19.55.39,1.09.59,1.64A.54.54,0,0,1,282.86,258.7Z" transform="translate(-150.56 -224.51)"/><path class="ch" d="M293.67,270.8h.09l.1-.09h0c.05-.06.15,0,.2-.11h0l.1-.09h.1l.1-.1h0l.1-.09h.1l.1-.09a.52.52,0,0,1,.11-.1h.09c.05,0,.09,0,.13,0a.2.2,0,0,1,0,.21h0c-.05,0-.08.05-.12.07a0,0,0,0,1-.06,0c-.06,0-.1,0-.14.1l-1.47,1-.51.38a.48.48,0,0,0-.23.42.06.06,0,0,1-.09,0h0c-.05-.06,0-.14-.09-.2v-.19l.1-.11h0a.94.94,0,0,0,.1-.1h0l.1-.09h0a.94.94,0,0,1,.1-.1h0c0-.06.15,0,.2-.11h0l.1-.09h0a.52.52,0,0,1,.11-.1h.09l.1-.09h0a.52.52,0,0,1,.11-.1h.09l.1-.09h0A.52.52,0,0,1,293.67,270.8Z" transform="translate(-150.56 -224.51)"/><path class="ci" d="M274,252.41a.25.25,0,0,1,0-.4,2.7,2.7,0,0,0,1,.09h2.38c.18,0,.37,0,.52.1a.32.32,0,0,1-.19.31c-1,0-2.08,0-3.12,0A.88.88,0,0,1,274,252.41Z" transform="translate(-150.56 -224.51)"/><path class="cj" d="M187.8,270.22c-.05-.06-.09-.14-.14-.2a.22.22,0,0,1,0-.19,7.86,7.86,0,0,1,.54-1.47.24.24,0,0,1,.1-.1.08.08,0,0,1,.08,0c.07.11,0,.23,0,.34s0,.33.09.47v.12a.37.37,0,0,0-.05.17c0,.06-.09.08-.13.12h0a.16.16,0,0,0-.08.1.12.12,0,0,0,0,.08.75.75,0,0,1-.07.12C188,269.93,188,270.12,187.8,270.22Z" transform="translate(-150.56 -224.51)"/><path class="ck" d="M272.86,254.28a7,7,0,0,0-1.23.87.43.43,0,0,1-.53.1l-.14-.06c0-.21.11-.3.24-.39.41-.29.8-.59,1.22-.85.13-.09.29-.25.43-.13S272.94,254.12,272.86,254.28Z" transform="translate(-150.56 -224.51)"/><path class="cl" d="M274.05,267.1h3.33c.14,0,.3,0,.39.13a.86.86,0,0,1-.6.18c-.77,0-1.54,0-2.31,0a1.41,1.41,0,0,1-.61-.11A.33.33,0,0,1,274.05,267.1Z" transform="translate(-150.56 -224.51)"/><path class="cm" d="M272.8,252.48a8.63,8.63,0,0,0-1.07.71c-.59.4-1.16.82-1.74,1.22a1.13,1.13,0,0,1-.22.11c-.09,0-.1.13-.12.21a.22.22,0,0,1,0-.34s.05,0,.05,0,0,0,0,0a.5.5,0,0,1,.25-.32,2.94,2.94,0,0,0,.91-.56c.5-.34,1-.7,1.52-1C272.52,252.37,272.67,252.34,272.8,252.48Z" transform="translate(-150.56 -224.51)"/><path class="cn" d="M273,266.4a.56.56,0,0,1-.29-.06c-.55-.46-1.2-.77-1.77-1.18l-.81-.58a.46.46,0,0,0-.23-.09.12.12,0,0,1-.08-.09.18.18,0,0,1,.19-.09,1.23,1.23,0,0,1,.64.22c.78.52,1.53,1.09,2.35,1.57Z" transform="translate(-150.56 -224.51)"/><path class="co" d="M273,266.1c-.08,0-.15.07-.23,0L271.14,265a6.64,6.64,0,0,0-1.17-.71.63.63,0,0,1,.3-.1c.55.28,1,.66,1.55,1l.91.61c.08.06.15,0,.23,0A.61.61,0,0,1,273,266.1Z" transform="translate(-150.56 -224.51)"/><path class="cp" d="M272.86,254.28a1,1,0,0,0,0-.41,2.17,2.17,0,0,0-.62.37c-.35.23-.7.48-1,.73a1.07,1.07,0,0,0-.2.22c-.15,0-.26-.08-.39-.11.7-.51,1.4-1,2.11-1.52a.55.55,0,0,1,.18-.06c.08.05,0,.14.09.2s0,.28,0,.43A.14.14,0,0,1,272.86,254.28Z" transform="translate(-150.56 -224.51)"/><path class="cq" d="M277.86,252.2h-3.41A.52.52,0,0,1,274,252a.31.31,0,0,1,0-.1h.08a.89.89,0,0,0,.48.1h2.71c.15,0,.3,0,.41-.11A.26.26,0,0,1,277.86,252.2Z" transform="translate(-150.56 -224.51)"/><path class="cr" d="M272.36,252.41a.66.66,0,0,1-.27.28,10.13,10.13,0,0,0-1,.72c-.3.24-.66.38-.95.63-.08.07-.15,0-.21-.06h0a.23.23,0,0,0,.11-.11h0s.06,0,0-.08c.19-.28.51-.43.69-.71a.16.16,0,0,1,.08-.06,13.85,13.85,0,0,0,1.36-.62A.32.32,0,0,1,272.36,252.41Z" transform="translate(-150.56 -224.51)"/><path class="cs" d="M170.4,267.33a.6.6,0,0,1,0-.19,2,2,0,0,0,.08-.87.93.93,0,0,1,.21-.68.18.18,0,0,1,.21-.06.24.24,0,0,1,.17.17,1.35,1.35,0,0,1,0,.28l0,.53A6.57,6.57,0,0,0,170.4,267.33Z" transform="translate(-150.56 -224.51)"/><path class="ct" d="M274,252.41h3.34c.12,0,.24,0,.31.11a.45.45,0,0,1-.2.3c0-.1-.06-.19-.18-.2h-2.63c-.14,0-.3,0-.41.11A.53.53,0,0,1,274,252.41Z" transform="translate(-150.56 -224.51)"/><path class="cu" d="M279,265.5a5.79,5.79,0,0,1,.93-.72c.26-.19.54-.37.81-.56s.14-.11,0-.28l0,0a1.07,1.07,0,0,1,.6.19.43.43,0,0,1-.15.18l-1.72,1.17a1.53,1.53,0,0,0-.41.35A.57.57,0,0,1,279,265.5Z" transform="translate(-150.56 -224.51)"/><path class="cv" d="M268.48,258.91c-.05,0-.11-.09-.08-.16.18-.51.28-1,.5-1.54.15-.34.24-.71.37-1.06a.86.86,0,0,1,.1-.16.65.65,0,0,1,.28.31,11.74,11.74,0,0,0-.87,2.52A.36.36,0,0,1,268.48,258.91Z" transform="translate(-150.56 -224.51)"/><path class="cw" d="M204.69,257.43c-.09.37-.16.75-.27,1.11a8.18,8.18,0,0,0-.29,2.91c0,.31.05.63.07.94a.08.08,0,0,1-.12,0v-.29c0-.07,0-.16-.09-.21,0-.62,0-1.23,0-1.84a6.3,6.3,0,0,1,.24-1.42c.12-.46.26-.92.39-1.38,0,0,0-.05.06-.08A.2.2,0,0,1,204.69,257.43Z" transform="translate(-150.56 -224.51)"/><path class="cx" d="M283.36,263.38c0-.09,0-.19.05-.29.25-.7.5-1.4.74-2.11,0-.1.09-.17.2-.18a1.62,1.62,0,0,1-.06.58c0,.16-.14.3-.07.48a.27.27,0,0,1,0,.19,12.17,12.17,0,0,0-.63,1.11A.46.46,0,0,1,283.36,263.38Z" transform="translate(-150.56 -224.51)"/><path class="cy" d="M295.67,262.19a.38.38,0,0,0,0,.1c-.09.08,0,.22-.1.31v.29c-.12.15,0,.36-.1.51h0c-.06.06,0,.15-.11.2h0a.52.52,0,0,1-.11.1h0a.52.52,0,0,1-.11.1h0c-.05.07-.15,0-.19.11h0s-.07,0-.1,0c.06-.34.11-.68.19-1a1.14,1.14,0,0,1,.61-.79s0,0,0,.07S295.68,262.19,295.67,262.19Z" transform="translate(-150.56 -224.51)"/><path class="cz" d="M270,256.7a.26.26,0,0,1,.12.25.92.92,0,0,1-.09.23,4.56,4.56,0,0,0-.38,1.13c0,.11,0,.25-.15.29s-.14,0-.2.08l-.1,0c-.11-.12-.07-.25,0-.38a11.54,11.54,0,0,1,.45-1.37C269.65,256.81,269.7,256.57,270,256.7Z" transform="translate(-150.56 -224.51)"/><path class="da" d="M220.48,261.42l0-.09a2.62,2.62,0,0,1,.46-.95.75.75,0,0,1,.35-.26c.21-.11.26-.1.38.13s.25.5.38.75a.39.39,0,0,1,.08.1h0a.2.2,0,0,1,.09.09h0c0,.12,0,.18-.13.21-.27-.09-.26-.39-.41-.58s-.13-.3-.29-.31-.2.18-.25.31a1,1,0,0,1-.11.17A1.78,1.78,0,0,1,220.48,261.42Z" transform="translate(-150.56 -224.51)"/><path class="db" d="M268.78,258.82a.26.26,0,0,1-.11-.26,2.25,2.25,0,0,1,.08-.24l.61-1.78a.3.3,0,0,1,.29-.24.31.31,0,0,1,.13.19,15.31,15.31,0,0,0-.56,1.56c-.09.26-.12.56-.36.74A.06.06,0,0,1,268.78,258.82Z" transform="translate(-150.56 -224.51)"/><path class="dc" d="M221.08,261a.82.82,0,0,1,.13-.57.24.24,0,0,1,.44,0,1.51,1.51,0,0,1,.11.22,2.38,2.38,0,0,0,.42.72c.28.12.49.28.28.63-.36-.17-.49-.52-.67-.84-.06-.13-.1-.27-.16-.4C221.39,260.75,221.28,261,221.08,261Z" transform="translate(-150.56 -224.51)"/><path class="dd" d="M268.86,258.79l.63-1.92a.52.52,0,0,1,.29-.38.33.33,0,0,1,.19.21.21.21,0,0,0-.2.12c-.13.38-.27.74-.4,1.12s-.14.51-.2.76h0c-.05.05-.13,0-.19.07Z" transform="translate(-150.56 -224.51)"/><path class="de" d="M280.07,266.5a.3.3,0,0,1,.16-.29c.25-.15.49-.32.75-.47a10,10,0,0,0,1-.71l.2-.13a1.33,1.33,0,0,1-.05.19,8.18,8.18,0,0,0-1,.9s-.07.08-.11.09C280.69,266.14,280.42,266.42,280.07,266.5Z" transform="translate(-150.56 -224.51)"/><path class="df" d="M222.46,262a.46.46,0,0,0-.14-.44.85.85,0,0,1-.14-.19l.09-.19a3,3,0,0,0,.61.38.64.64,0,0,1,.29.71A.9.9,0,0,1,222.46,262Z" transform="translate(-150.56 -224.51)"/><path class="dg" d="M274.86,267.41a.25.25,0,0,1,.21-.11H277a.25.25,0,0,1,.21.11.34.34,0,0,1-.23.08,1.37,1.37,0,0,1-.35,0c-.27,0-.5.23-.77.1a2.31,2.31,0,0,0-.78-.12A1.34,1.34,0,0,1,274.86,267.41Z" transform="translate(-150.56 -224.51)"/><path class="dh" d="M236.08,252.91a.15.15,0,0,0-.17-.08l-.36.16a.14.14,0,0,1-.09,0,.1.1,0,0,1,0-.09,4.78,4.78,0,0,1,.46-.44c.22-.2.46-.37.69-.55a.16.16,0,0,0,0-.09.11.11,0,0,1,.1,0c.11.47-.29.69-.49,1A.32.32,0,0,1,236.08,252.91Z" transform="translate(-150.56 -224.51)"/><path class="di" d="M295,270.31v-.22s0,0,0-.06,0,0,0,0h.09l.1-.09h0l.11-.09h.09l.1-.09h0a.52.52,0,0,1,.11-.1h.09l.11-.09.09,0a.39.39,0,0,0,.1-.08h0l.11-.09h.09l.1-.09h0a.14.14,0,0,1,.19,0l-.19.33A8.16,8.16,0,0,1,295,270.31Z" transform="translate(-150.56 -224.51)"/><path class="dj" d="M178.67,256s-.06-.08-.06-.13a6.91,6.91,0,0,0-.22-1.1,2.52,2.52,0,0,1,.62,1C179,256,178.86,256,178.67,256Z" transform="translate(-150.56 -224.51)"/><path class="dk" d="M288,259.17a1.69,1.69,0,0,1-.69,1.23c.11-.29.21-.58.33-.86A.55.55,0,0,1,288,259.17Z" transform="translate(-150.56 -224.51)"/><path class="dl" d="M204.08,262.4h.12l.5,1.5s-.13-.06-.16-.1A3.14,3.14,0,0,1,204.08,262.4Z" transform="translate(-150.56 -224.51)"/><path class="dm" d="M204.69,257.43l0-.25a.25.25,0,0,1,0-.08c.1-.08,0-.22.1-.3l.25-.73c-.13-.1-.26,0-.36-.08.15-.12.34-.07.51-.1a.07.07,0,0,0,.08,0A16.14,16.14,0,0,1,204.69,257.43Z" transform="translate(-150.56 -224.51)"/><path class="dn" d="M236.28,252.81a1.76,1.76,0,0,1,.39-.74c.06-.06.07-.18.1-.27s.2.11.16.25a.48.48,0,0,1-.08.18l-.46.68Z" transform="translate(-150.56 -224.51)"/><path class="do" d="M188.29,269.5a.11.11,0,0,1,.07-.12c0-.05.09,0,.12,0a2.38,2.38,0,0,0,.41,1.09l0,.11a1,1,0,0,1-.48-.8C188.37,269.69,188.4,269.57,188.29,269.5Z" transform="translate(-150.56 -224.51)"/><path class="dp" d="M245.16,236.22a.78.78,0,0,1,.34,0,.19.19,0,0,0,.2-.11,5.58,5.58,0,0,0,1.16.14s0,0,0,.05,0,0,0,0h-1.28A.89.89,0,0,1,245.16,236.22Z" transform="translate(-150.56 -224.51)"/><path class="dq" d="M196,262.68a.42.42,0,0,1,.1-.32c.07.18.1.2.2.09s.13-.32.34-.34a3.59,3.59,0,0,1-.54.88C195.84,263,196,262.8,196,262.68Z" transform="translate(-150.56 -224.51)"/><path class="dr" d="M210,260.49a.17.17,0,0,1,0-.1,5.21,5.21,0,0,0,1.07-.43.34.34,0,0,1,.24,0A2.2,2.2,0,0,1,210,260.49Z" transform="translate(-150.56 -224.51)"/><path class="ds" d="M226.28,236.4s-.08.08-.12.08a6.7,6.7,0,0,1-1.1,0,3.09,3.09,0,0,1,1.22-.17s0,0,0,.06Z" transform="translate(-150.56 -224.51)"/><path class="dt" d="M228.36,236.08a.25.25,0,0,0,.25.11,1.3,1.3,0,0,1,.48,0,2.28,2.28,0,0,1-.78.08h-.83s0-.05,0-.07l0,0,.57,0A.68.68,0,0,0,228.36,236.08Z" transform="translate(-150.56 -224.51)"/><path class="g" d="M291.14,266.57a.06.06,0,0,1,0,0,2.47,2.47,0,0,1-1.09.67A5.58,5.58,0,0,1,291.14,266.57Z" transform="translate(-150.56 -224.51)"/><path class="du" d="M227.48,236.21a.33.33,0,0,0,0,.1.36.36,0,0,1-.28.08h-.92a.14.14,0,0,1,0-.09,3.52,3.52,0,0,0,1-.1A.88.88,0,0,1,227.48,236.21Z" transform="translate(-150.56 -224.51)"/><path class="dv" d="M246.87,236.3a.25.25,0,0,1,0-.08l1.21.11a3.27,3.27,0,0,1-1.08,0A.42.42,0,0,1,246.87,236.3Z" transform="translate(-150.56 -224.51)"/><path class="cj" d="M178.67,256s.05,0,.07,0,.22-.08.27-.2a.14.14,0,0,1,.08.13.73.73,0,0,1-.38.46C178.64,256.24,178.68,256.12,178.67,256Z" transform="translate(-150.56 -224.51)"/><path class="dw" d="M245.59,231.8a.29.29,0,0,0,.07-.23l0-.3a2.92,2.92,0,0,1,.1,1c-.11,0-.11-.05-.12-.11S245.61,231.91,245.59,231.8Z" transform="translate(-150.56 -224.51)"/><path class="g" d="M296.91,262h-1.06a.22.22,0,0,1,.06-.07A1.44,1.44,0,0,1,296.91,262Z" transform="translate(-150.56 -224.51)"/><path class="bu" d="M273,253.7a.27.27,0,0,1-.09-.2c0-.13,0-.26,0-.39s0-.28,0-.42A2.46,2.46,0,0,1,273,253.7Z" transform="translate(-150.56 -224.51)"/><path class="dx" d="M228.56,231.79c.05.06,0,.17.11.21a.61.61,0,0,1,0,.14c0,.06,0,.14-.11.15s-.08-.11-.08-.18A.46.46,0,0,1,228.56,231.79Z" transform="translate(-150.56 -224.51)"/><path class="g" d="M294.86,263.9h.1c-.13.18-.25.38-.51.39Z" transform="translate(-150.56 -224.51)"/><path class="dq" d="M196.91,261.61a1.79,1.79,0,0,1-.31.51A.46.46,0,0,1,196.91,261.61Z" transform="translate(-150.56 -224.51)"/><path class="g" d="M289.74,267.47c-.08.25-.29.29-.51.31A1.21,1.21,0,0,1,289.74,267.47Z" transform="translate(-150.56 -224.51)"/><path class="dy" d="M244.78,233.59l-.1.1h-.25s-.06,0,0-.07a.22.22,0,0,1,.06-.07A.42.42,0,0,1,244.78,233.59Z" transform="translate(-150.56 -224.51)"/><path class="g" d="M294.35,264.37c-.08.19-.18.33-.41.31A.81.81,0,0,1,294.35,264.37Z" transform="translate(-150.56 -224.51)"/><path class="g" d="M293.65,264.88c-.08.18-.18.33-.42.29A.82.82,0,0,1,293.65,264.88Z" transform="translate(-150.56 -224.51)"/><path class="ag" d="M293.78,262.12a.36.36,0,0,1,.31-.31A.48.48,0,0,1,293.78,262.12Z" transform="translate(-150.56 -224.51)"/><path class="dz" d="M259.37,264.29c.07-.13.19-.1.3-.08v.17C259.56,264.41,259.47,264.32,259.37,264.29Z" transform="translate(-150.56 -224.51)"/><path class="ea" d="M230.08,259.09l-.21-.09a0,0,0,0,1,0-.07l0-.23A.59.59,0,0,1,230.08,259.09Z" transform="translate(-150.56 -224.51)"/><path class="eb" d="M251.29,240.82a1.34,1.34,0,0,1-.18.07c-.06,0-.18,0-.18,0a.16.16,0,0,1,.12-.19C251.09,240.8,251.21,240.77,251.29,240.82Z" transform="translate(-150.56 -224.51)"/><path class="g" d="M292.65,265.57a.25.25,0,0,1-.31.21A.53.53,0,0,1,292.65,265.57Z" transform="translate(-150.56 -224.51)"/><path class="g" d="M292.34,265.77a.23.23,0,0,1-.3.2A.61.61,0,0,1,292.34,265.77Z" transform="translate(-150.56 -224.51)"/><path class="g" d="M292,266a.23.23,0,0,1-.3.2A.55.55,0,0,1,292,266Z" transform="translate(-150.56 -224.51)"/><path class="g" d="M291.74,266.17a.24.24,0,0,1-.3.21A.47.47,0,0,1,291.74,266.17Z" transform="translate(-150.56 -224.51)"/><path class="g" d="M291.44,266.37c0,.17-.14.23-.31.2A.46.46,0,0,1,291.44,266.37Z" transform="translate(-150.56 -224.51)"/><path class="g" d="M293.24,265.16c-.07.2-.08.21-.3.22A.45.45,0,0,1,293.24,265.16Z" transform="translate(-150.56 -224.51)"/><path class="g" d="M293.94,264.67a.24.24,0,0,1-.3.21A.47.47,0,0,1,293.94,264.67Z" transform="translate(-150.56 -224.51)"/><path class="g" d="M290.05,267.27a.24.24,0,0,1-.32.2A.46.46,0,0,1,290.05,267.27Z" transform="translate(-150.56 -224.51)"/><path class="g" d="M292.94,265.37a.24.24,0,0,1-.3.21A.49.49,0,0,1,292.94,265.37Z" transform="translate(-150.56 -224.51)"/><path class="cw" d="M204.78,256.8c0,.11,0,.23-.1.3C204.68,257,204.67,256.87,204.78,256.8Z" transform="translate(-150.56 -224.51)"/><path class="dq" d="M196.08,262.3a.32.32,0,0,1,.1-.31C196.19,262.11,196.2,262.22,196.08,262.3Z" transform="translate(-150.56 -224.51)"/><path class="g" d="M295.67,262.19v-.1a.24.24,0,0,1,.19-.11A.28.28,0,0,1,295.67,262.19Z" transform="translate(-150.56 -224.51)"/><path class="g" d="M297.26,262.09c-.11,0-.23,0-.3-.09A.31.31,0,0,1,297.26,262.09Z" transform="translate(-150.56 -224.51)"/><path class="g" d="M297.55,262.2c-.11,0-.22,0-.29-.11A.34.34,0,0,1,297.55,262.2Z" transform="translate(-150.56 -224.51)"/><path class="dq" d="M196.18,262a.38.38,0,0,1,.09-.32C196.29,261.79,196.3,261.91,196.18,262Z" transform="translate(-150.56 -224.51)"/><path class="f" d="M305.66,268.8v.11a.25.25,0,0,1-.2.09A.29.29,0,0,1,305.66,268.8Z" transform="translate(-150.56 -224.51)"/><path class="g" d="M293.56,272.79c-.11,0-.22,0-.3-.09A.33.33,0,0,1,293.56,272.79Z" transform="translate(-150.56 -224.51)"/><path class="co" d="M269.78,264.4l.08.09c-.06,0-.13.11-.2,0A.11.11,0,0,1,269.78,264.4Z" transform="translate(-150.56 -224.51)"/><path class="g" d="M298,262.39c-.09,0-.17,0-.21-.1S297.93,262.3,298,262.39Z" transform="translate(-150.56 -224.51)"/><path class="g" d="M298.16,262.49a.2.2,0,0,1-.2-.11A.24.24,0,0,1,298.16,262.49Z" transform="translate(-150.56 -224.51)"/><path class="g" d="M293.18,272.69a.27.27,0,0,1-.22-.08A.23.23,0,0,1,293.18,272.69Z" transform="translate(-150.56 -224.51)"/><path class="g" d="M298.36,262.6c-.09,0-.16,0-.2-.11A.21.21,0,0,1,298.36,262.6Z" transform="translate(-150.56 -224.51)"/><path class="de" d="M279.87,266.59a.17.17,0,0,1,.19-.09A.17.17,0,0,1,279.87,266.59Z" transform="translate(-150.56 -224.51)"/><path class="de" d="M279.66,266.69a.19.19,0,0,1,.2-.09A.2.2,0,0,1,279.66,266.69Z" transform="translate(-150.56 -224.51)"/><path class="w" d="M231,247.7a.17.17,0,0,1-.1-.21A.17.17,0,0,1,231,247.7Z" transform="translate(-150.56 -224.51)"/><path class="dl" d="M204,261.9a.19.19,0,0,1,.09.21A.25.25,0,0,1,204,261.9Z" transform="translate(-150.56 -224.51)"/><path class="bj" d="M187.18,271.29a.18.18,0,0,1,.12-.19C187.29,271.18,187.27,271.26,187.18,271.29Z" transform="translate(-150.56 -224.51)"/><path class="dr" d="M211.47,259.79a.19.19,0,0,1-.17.13C211.31,259.82,211.38,259.79,211.47,259.79Z" transform="translate(-150.56 -224.51)"/><path class="cc" d="M284.27,258.9a.19.19,0,0,1,.08-.2A.15.15,0,0,1,284.27,258.9Z" transform="translate(-150.56 -224.51)"/><path class="aa" d="M309.75,271.88a.2.2,0,0,1-.08.21A.22.22,0,0,1,309.75,271.88Z" transform="translate(-150.56 -224.51)"/><path class="aa" d="M309.64,272.17a.18.18,0,0,1-.08.22A.24.24,0,0,1,309.64,272.17Z" transform="translate(-150.56 -224.51)"/><path class="g" d="M292.67,272.49c-.09,0-.17,0-.19-.13A.26.26,0,0,1,292.67,272.49Z" transform="translate(-150.56 -224.51)"/><path class="g" d="M292.89,272.58c-.1,0-.18,0-.23-.09A.24.24,0,0,1,292.89,272.58Z" transform="translate(-150.56 -224.51)"/><path class="g" d="M293.76,272.89a.2.2,0,0,1-.2-.1A.17.17,0,0,1,293.76,272.89Z" transform="translate(-150.56 -224.51)"/><path class="db" d="M269,258.77a.23.23,0,0,1,.19-.07A.18.18,0,0,1,269,258.77Z" transform="translate(-150.56 -224.51)"/><path class="g" d="M293.87,273.21V273C294,273.06,294,273.13,293.87,273.21Z" transform="translate(-150.56 -224.51)"/><path class="g" d="M293.76,273.4c0-.09,0-.17.12-.2A.23.23,0,0,1,293.76,273.4Z" transform="translate(-150.56 -224.51)"/><path class="dd" d="M269.27,258.68a.22.22,0,0,1,.2-.08A.2.2,0,0,1,269.27,258.68Z" transform="translate(-150.56 -224.51)"/><path class="g" d="M297.76,262.29a.2.2,0,0,1-.2-.09A.18.18,0,0,1,297.76,262.29Z" transform="translate(-150.56 -224.51)"/><path class="r" d="M197.28,254.6a.23.23,0,0,1,.11.19l0,0c-.1,0-.12-.06-.12-.14Z" transform="translate(-150.56 -224.51)"/><path class="do" d="M188.21,269.6c0-.06,0-.09.08-.1A.12.12,0,0,1,188.21,269.6Z" transform="translate(-150.56 -224.51)"/><path class="al" d="M195.79,253.11a.11.11,0,0,1,.12-.09A.12.12,0,0,1,195.79,253.11Z" transform="translate(-150.56 -224.51)"/><path class="r" d="M197.17,254.6v-.1c.06,0,.09,0,.1.1l0,0S197.2,254.63,197.17,254.6Z" transform="translate(-150.56 -224.51)"/><path class="do" d="M188.1,269.8a.11.11,0,0,1,.07-.12A.12.12,0,0,1,188.1,269.8Z" transform="translate(-150.56 -224.51)"/><path class="r" d="M197.18,254.5c-.07,0-.1,0-.1-.11A.11.11,0,0,1,197.18,254.5Z" transform="translate(-150.56 -224.51)"/><path class="av" d="M267.66,260.2l-.08.09C267.58,260.23,267.61,260.21,267.66,260.2Z" transform="translate(-150.56 -224.51)"/><path class="bu" d="M269.68,254.3s0,0,0,.08h-.05A.12.12,0,0,1,269.68,254.3Z" transform="translate(-150.56 -224.51)"/><path class="di" d="M294.86,270.38a.11.11,0,0,1,.12-.07A.1.1,0,0,1,294.86,270.38Z" transform="translate(-150.56 -224.51)"/><path class="di" d="M294.66,270.51a.16.16,0,0,1,.14-.1A.15.15,0,0,1,294.66,270.51Z" transform="translate(-150.56 -224.51)"/><path class="cm" d="M270.06,253.88a.14.14,0,0,1-.11.11C270,253.92,270,253.89,270.06,253.88Z" transform="translate(-150.56 -224.51)"/><path class="cm" d="M270.09,253.81a0,0,0,0,1,0,.07h0A.08.08,0,0,1,270.09,253.81Z" transform="translate(-150.56 -224.51)"/><path class="al" d="M195.9,253a.1.1,0,0,1,.11-.1A.12.12,0,0,1,195.9,253Z" transform="translate(-150.56 -224.51)"/><path class="aq" d="M191.4,252.3a.1.1,0,0,1,.08.11C191.42,252.39,191.39,252.36,191.4,252.3Z" transform="translate(-150.56 -224.51)"/><path class="aq" d="M191.29,252.1a.11.11,0,0,1,.08.13A.11.11,0,0,1,191.29,252.1Z" transform="translate(-150.56 -224.51)"/><path class="aj" d="M269.76,262.78a.11.11,0,0,1,.06-.07A.07.07,0,0,1,269.76,262.78Z" transform="translate(-150.56 -224.51)"/><path class="ag" d="M293.68,262.22a.09.09,0,0,1,.1-.1C293.78,262.18,293.74,262.21,293.68,262.22Z" transform="translate(-150.56 -224.51)"/><path class="g" d="M292.36,272.3h.09a.07.07,0,0,1,0,.07A.14.14,0,0,1,292.36,272.3Z" transform="translate(-150.56 -224.51)"/><path class="g" d="M293.87,273l-.11-.1A.1.1,0,0,1,293.87,273Z" transform="translate(-150.56 -224.51)"/><path class="g" d="M294.45,264.29a.14.14,0,0,1-.11.09A.1.1,0,0,1,294.45,264.29Z" transform="translate(-150.56 -224.51)"/><path class="ec" d="M223.15,253.63a3.66,3.66,0,0,1-.48,1.44c-.28.56-.61,1.1-.92,1.64a1.48,1.48,0,0,1-.56.55.89.89,0,0,1-1-.09,3.7,3.7,0,0,1-.28-.28,1.88,1.88,0,0,1,.06-1.34,5.28,5.28,0,0,1,1.08-1.71,1.85,1.85,0,0,1,1.34-.66C222.71,253.16,223,253.22,223.15,253.63Z" transform="translate(-150.56 -224.51)"/><path class="m" d="M243,261.42a3,3,0,0,1-1.61-.91,2,2,0,0,1-.49-2,.86.86,0,0,1,.09.52,1.78,1.78,0,0,0,1.26,1.57,3.48,3.48,0,0,0,2.34.08c.75-.21,1.46-.52,2.19-.8.45-.17.47-.15.53.36v.2l-.13.07c-.56.24-1.1.53-1.69.73a6.44,6.44,0,0,1-1.89.35A1.74,1.74,0,0,1,243,261.42Z" transform="translate(-150.56 -224.51)"/><path class="ed" d="M247.17,260.4h.1l-.06.34a.65.65,0,0,0,.34.7,2.35,2.35,0,0,0,.9.27,9.81,9.81,0,0,0,1.09.09,10.15,10.15,0,0,0,2.4-.35c.45-.12.9-.26,1.34-.41.64-.22,1.27-.47,1.91-.7l.24-.08c.19-.05.23,0,.24.19s0,.23,0,.35a.64.64,0,0,0-.69,0,3.89,3.89,0,0,1-.94.33c-.45.12-.88.28-1.32.42a7.73,7.73,0,0,1-1.5.33l-1.37.2a.23.23,0,0,0-.17.1,3.14,3.14,0,0,1-.68-.07c-.32-.06-.65-.09-1-.12s-.65-.07-1-.12A1.19,1.19,0,0,1,247.17,260.4Z" transform="translate(-150.56 -224.51)"/><path class="ea" d="M238.27,259.3A6.49,6.49,0,0,1,237,260a2.31,2.31,0,0,0-.45.21,7.34,7.34,0,0,1-1.45.51,7.83,7.83,0,0,1-2.21.16,3.29,3.29,0,0,1-.68-.14,3.67,3.67,0,0,1-2-1.25.49.49,0,0,1-.14-.41,3.35,3.35,0,0,1,.58.55,3.32,3.32,0,0,0,2,1,5.21,5.21,0,0,0,.69.1,6.82,6.82,0,0,0,1.86-.3,7.37,7.37,0,0,0,2.1-.9c.17-.11.36-.18.53-.27.94-.48,1.84-1,2.74-1.55a3.9,3.9,0,0,1,.35-.19c.12-.06.17,0,.17.14a.28.28,0,0,1-.1.27,1.54,1.54,0,0,0-.86.32A21.09,21.09,0,0,1,238.27,259.3Z" transform="translate(-150.56 -224.51)"/><path class="w" d="M223.15,253.63a1,1,0,0,0-1.17-.26,1.51,1.51,0,0,0-.61.33,4.74,4.74,0,0,0-1.43,2.35,2.38,2.38,0,0,0-.05.84,1.07,1.07,0,0,1-.21-.69,3.21,3.21,0,0,1,.57-1.92,6.64,6.64,0,0,1,1.19-1.4,1.36,1.36,0,0,1,1.14-.38.58.58,0,0,1,.53.44A1.79,1.79,0,0,1,223.15,253.63Z" transform="translate(-150.56 -224.51)"/><path class="ee" d="M238.27,259.3s0-.11.09-.12c.26-.07.43-.29.66-.4a8.53,8.53,0,0,0,1.27-.76,2.37,2.37,0,0,1,.36-.17c.12-.06.22,0,.32,0a5.81,5.81,0,0,0,.09,1.18,1.85,1.85,0,0,0,1.08,1.34,2.91,2.91,0,0,0,1.84.23,13.69,13.69,0,0,0,2.27-.74c.31-.12.61-.25.92-.36l.34-.1a.61.61,0,0,1-.08.39c0,.12,0,.27-.16.36-.16-.07,0-.34-.21-.35s-.24.08-.37.13l-1.29.51a5.61,5.61,0,0,1-2,.41,3.37,3.37,0,0,1-1.57-.41,1.69,1.69,0,0,1-.87-1,1.32,1.32,0,0,1-.06-.39c0-.22,0-.43,0-.65l0,0,0,0c0-.05,0-.11,0-.15-.1-.28-.19-.33-.43-.15-.53.4-1.14.66-1.68,1A.77.77,0,0,1,238.27,259.3Z" transform="translate(-150.56 -224.51)"/><path class="u" d="M197.17,254.6l.09,0,.1.19a4.69,4.69,0,0,1-.23,2,2.07,2.07,0,0,0-.15.73.25.25,0,0,1,0,.15,5.15,5.15,0,0,0-.37,1.17c-.14.37-.17.78-.34,1.14s-.15.57-.26.84a8.46,8.46,0,0,0-.31.84,2.53,2.53,0,0,0-.21.76.73.73,0,0,1-.1.28,1.77,1.77,0,0,0-.19.67c0,.19-.14.33-.18.51s0,.1,0,.12.07,0,.09,0,.3-.31.44-.47.14,0,.22,0c-.3.4-.61.79-.9,1.19a1.78,1.78,0,0,1-.5.48,6.54,6.54,0,0,1,.2-.72c.17-.52.36-1,.53-1.55.3-.92.58-1.84.87-2.76.17-.53.36-1.07.52-1.61s.21-.83.33-1.25a17.54,17.54,0,0,0,.41-2,1.1,1.1,0,0,0,0-.25Z" transform="translate(-150.56 -224.51)"/><path class="ef" d="M213.27,252.69a1.33,1.33,0,0,1-.37,1c-.35.42-.68.85-1,1.29a2.91,2.91,0,0,0-.58,1,2.69,2.69,0,0,0-.47.76c-.12.23-.21.49-.32.72a14.86,14.86,0,0,0-.86,2.21.54.54,0,0,1-.09.12,1.51,1.51,0,0,1,.13-.73,20.72,20.72,0,0,1,1.34-3.1,11.28,11.28,0,0,1,1-1.69c.13-.17.26-.34.4-.5A7,7,0,0,0,213.27,252.69Z" transform="translate(-150.56 -224.51)"/><path class="eg" d="M262,263.09a.46.46,0,0,1-.28.19,13.7,13.7,0,0,1-1.43.39c-.32.06-.65.08-1,.12a3.52,3.52,0,0,1-1.07-.12,2.77,2.77,0,0,1-1.22-.38c-.05,0-.12-.06-.17-.1a6.63,6.63,0,0,1-.83-.92,1.94,1.94,0,0,1-.31-.87s.06,0,.09,0a2.31,2.31,0,0,0,.57,1.08,2.47,2.47,0,0,0,1,.69,4.15,4.15,0,0,0,1.74.33h.34a5.89,5.89,0,0,0,2-.31A1.66,1.66,0,0,1,262,263.09Z" transform="translate(-150.56 -224.51)"/><path class="eh" d="M196,262.68c0,.11,0,.23.1.31l-.09.21c-.07,0-.12,0-.11-.11A.6.6,0,0,1,196,262.68Z" transform="translate(-150.56 -224.51)"/><path class="ed" d="M255.76,261.4h-.09v-.31A.3.3,0,0,1,255.76,261.4Z" transform="translate(-150.56 -224.51)"/><path class="ei" d="M188.48,269.4l-.12,0a.25.25,0,0,1,.11-.17Z" transform="translate(-150.56 -224.51)"/><path class="df" d="M222.16,261.1l-.08-.1Z" transform="translate(-150.56 -224.51)"/><path class="s" d="M213.48,260.69l-.1.11Z" transform="translate(-150.56 -224.51)"/><path class="df" d="M222.26,261.2l-.09-.09Z" transform="translate(-150.56 -224.51)"/><path class="g" d="M292.16,273.9a.38.38,0,0,1-.17.08h-1.66a.38.38,0,0,1-.17-.08Z" transform="translate(-150.56 -224.51)"/><path class="g" d="M295.46,263.4c0-.17-.06-.36.1-.51C295.54,263.06,295.62,263.26,295.46,263.4Z" transform="translate(-150.56 -224.51)"/><path class="g" d="M299.05,267.81a.34.34,0,0,0-.29-.11C299,267.56,299,267.57,299.05,267.81Z" transform="translate(-150.56 -224.51)"/><path class="g" d="M299.16,268.2c-.11-.08-.1-.19-.1-.3C299.18,268,299.15,268.09,299.16,268.2Z" transform="translate(-150.56 -224.51)"/><path class="g" d="M299.26,268.5c-.11-.08-.1-.19-.11-.3C299.28,268.27,299.25,268.39,299.26,268.5Z" transform="translate(-150.56 -224.51)"/><path class="g" d="M295.56,262.6c0-.12,0-.23.1-.31C295.66,262.4,295.68,262.52,295.56,262.6Z" transform="translate(-150.56 -224.51)"/><path class="g" d="M292.76,273.8c-.07.11-.19.09-.3.09C292.53,273.78,292.65,273.8,292.76,273.8Z" transform="translate(-150.56 -224.51)"/><path class="g" d="M300.06,270.5a.21.21,0,0,1-.1-.2A.19.19,0,0,1,300.06,270.5Z" transform="translate(-150.56 -224.51)"/><path class="g" d="M298.26,268a.2.2,0,0,1-.2.1A.2.2,0,0,1,298.26,268Z" transform="translate(-150.56 -224.51)"/><path class="g" d="M299.45,269a.24.24,0,0,1-.09-.21C299.45,268.84,299.46,268.92,299.45,269Z" transform="translate(-150.56 -224.51)"/><path class="g" d="M295.35,263.59a.24.24,0,0,1,.11-.2A.19.19,0,0,1,295.35,263.59Z" transform="translate(-150.56 -224.51)"/><path class="g" d="M298,268.19a.21.21,0,0,1-.19.11A.21.21,0,0,1,298,268.19Z" transform="translate(-150.56 -224.51)"/><path class="g" d="M295,263.9c0-.08.11-.1.19-.11A.21.21,0,0,1,295,263.9Z" transform="translate(-150.56 -224.51)"/><path class="g" d="M296.45,269.18l-.19,0a.19.19,0,0,1,.2-.1A.22.22,0,0,1,296.45,269.18Z" transform="translate(-150.56 -224.51)"/><path class="g" d="M297.45,268.49a.21.21,0,0,1-.19.11A.21.21,0,0,1,297.45,268.49Z" transform="translate(-150.56 -224.51)"/><path class="g" d="M299.35,268.71a.25.25,0,0,1-.1-.21A.18.18,0,0,1,299.35,268.71Z" transform="translate(-150.56 -224.51)"/><path class="g" d="M299.55,269.31a.24.24,0,0,1-.09-.21A.19.19,0,0,1,299.55,269.31Z" transform="translate(-150.56 -224.51)"/><path class="g" d="M299.66,269.6a.21.21,0,0,1-.1-.2A.19.19,0,0,1,299.66,269.6Z" transform="translate(-150.56 -224.51)"/><path class="g" d="M299.75,269.8a.22.22,0,0,1-.09-.2A.18.18,0,0,1,299.75,269.8Z" transform="translate(-150.56 -224.51)"/><path class="g" d="M299.85,270h-.09v-.2A.18.18,0,0,1,299.85,270Z" transform="translate(-150.56 -224.51)"/><path class="g" d="M300,270.3a.21.21,0,0,1-.1-.2A.2.2,0,0,1,300,270.3Z" transform="translate(-150.56 -224.51)"/><path class="g" d="M300.16,270.7a.21.21,0,0,1-.1-.2A.19.19,0,0,1,300.16,270.7Z" transform="translate(-150.56 -224.51)"/><path class="g" d="M294.06,270.59a.24.24,0,0,1-.2.11A.22.22,0,0,1,294.06,270.59Z" transform="translate(-150.56 -224.51)"/><path class="g" d="M300.25,270.9a.25.25,0,0,1-.1-.2A.18.18,0,0,1,300.25,270.9Z" transform="translate(-150.56 -224.51)"/><path class="g" d="M297,268.79a.22.22,0,0,1-.2.11A.22.22,0,0,1,297,268.79Z" transform="translate(-150.56 -224.51)"/><path class="g" d="M300.45,271.3a.26.26,0,0,1-.1-.2A.18.18,0,0,1,300.45,271.3Z" transform="translate(-150.56 -224.51)"/><path class="g" d="M292.86,271.39a.23.23,0,0,1-.2.11A.23.23,0,0,1,292.86,271.39Z" transform="translate(-150.56 -224.51)"/><path class="g" d="M300.86,272.1a.21.21,0,0,1-.1-.2A.19.19,0,0,1,300.86,272.1Z" transform="translate(-150.56 -224.51)"/><path class="g" d="M292.26,272.09a.2.2,0,0,1,.09.2A.21.21,0,0,1,292.26,272.09Z" transform="translate(-150.56 -224.51)"/><path class="g" d="M301,272.3a.21.21,0,0,1-.1-.2A.19.19,0,0,1,301,272.3Z" transform="translate(-150.56 -224.51)"/><path class="g" d="M293.16,273.7a.21.21,0,0,1-.2.09A.2.2,0,0,1,293.16,273.7Z" transform="translate(-150.56 -224.51)"/><path class="g" d="M296,269.4l-.1.08Z" transform="translate(-150.56 -224.51)"/><path class="g" d="M295.57,269.6l-.11.1Z" transform="translate(-150.56 -224.51)"/><path class="g" d="M295.46,269.7l-.1.09Z" transform="translate(-150.56 -224.51)"/><path class="g" d="M295.27,269.8l-.11.09Z" transform="translate(-150.56 -224.51)"/><path class="g" d="M295.16,269.9l-.1.09Z" transform="translate(-150.56 -224.51)"/><path class="g" d="M295,270a.28.28,0,0,0,0,.09h-.1Z" transform="translate(-150.56 -224.51)"/><path class="g" d="M294.77,270.1l-.11.1Z" transform="translate(-150.56 -224.51)"/><path class="g" d="M294.66,270.2l-.1.09Z" transform="translate(-150.56 -224.51)"/><path class="g" d="M294.46,270.3l-.1.09Z" transform="translate(-150.56 -224.51)"/><path class="g" d="M295.77,269.5l-.11.09Z" transform="translate(-150.56 -224.51)"/><path class="g" d="M294.36,270.39l-.1.1Z" transform="translate(-150.56 -224.51)"/><path class="g" d="M294.16,270.5l-.1.09Z" transform="translate(-150.56 -224.51)"/><path class="g" d="M293.86,270.7l-.1.09Z" transform="translate(-150.56 -224.51)"/><path class="g" d="M293.67,270.8l-.11.1Z" transform="translate(-150.56 -224.51)"/><path class="g" d="M293.37,271l-.11.1Z" transform="translate(-150.56 -224.51)"/><path class="g" d="M300.35,271.1l-.09-.1Z" transform="translate(-150.56 -224.51)"/><path class="g" d="M293.26,271.1l-.1.09Z" transform="translate(-150.56 -224.51)"/><path class="g" d="M293.07,271.2l-.11.1Z" transform="translate(-150.56 -224.51)"/><path class="g" d="M293,271.3l-.1.09Z" transform="translate(-150.56 -224.51)"/><path class="g" d="M300.55,271.51l-.09-.11Z" transform="translate(-150.56 -224.51)"/><path class="g" d="M292.66,271.5l-.1.1Z" transform="translate(-150.56 -224.51)"/><path class="g" d="M292.56,271.6l-.1.09Z" transform="translate(-150.56 -224.51)"/><path class="g" d="M300.56,271.69v-.09l.1.1Z" transform="translate(-150.56 -224.51)"/><path class="g" d="M292.46,271.69l-.1.1Z" transform="translate(-150.56 -224.51)"/><path class="g" d="M299.56,261.9l.1-.1Z" transform="translate(-150.56 -224.51)"/><path class="g" d="M292.36,271.79l-.1.11Z" transform="translate(-150.56 -224.51)"/><path class="g" d="M300.76,271.9l-.1-.1Z" transform="translate(-150.56 -224.51)"/><path class="g" d="M298.76,267.7l-.1.08Z" transform="translate(-150.56 -224.51)"/><path class="g" d="M299.76,261.7l.1-.1Z" transform="translate(-150.56 -224.51)"/><path class="g" d="M298.57,267.8l-.11.09Z" transform="translate(-150.56 -224.51)"/><path class="g" d="M299.86,261.6l.1-.1Z" transform="translate(-150.56 -224.51)"/><path class="g" d="M298.38,267.9l-.12.1A.14.14,0,0,1,298.38,267.9Z" transform="translate(-150.56 -224.51)"/><path class="g" d="M298.06,268.1l-.1.09Z" transform="translate(-150.56 -224.51)"/><path class="g" d="M300.36,261.2l.1-.1Z" transform="translate(-150.56 -224.51)"/><path class="g" d="M295.15,263.79l.11-.1Z" transform="translate(-150.56 -224.51)"/><path class="g" d="M297.76,268.3l-.1.08Z" transform="translate(-150.56 -224.51)"/><path class="g" d="M295.25,263.69l.11-.1Z" transform="translate(-150.56 -224.51)"/><path class="g" d="M297.57,268.4l-.11.09Z" transform="translate(-150.56 -224.51)"/><path class="g" d="M297.26,268.6l-.1.09Z" transform="translate(-150.56 -224.51)"/><path class="g" d="M297.07,268.7l-.11.09Z" transform="translate(-150.56 -224.51)"/><path class="g" d="M296.76,268.9l-.1.09Z" transform="translate(-150.56 -224.51)"/><path class="g" d="M296.58,269l-.12.1A.14.14,0,0,1,296.58,269Z" transform="translate(-150.56 -224.51)"/><path class="g" d="M293.56,273.5l-.1.09Z" transform="translate(-150.56 -224.51)"/><path class="g" d="M293.36,273.6l-.1.09Z" transform="translate(-150.56 -224.51)"/><path class="g" d="M296.26,269.2l-.1.09Z" transform="translate(-150.56 -224.51)"/><path class="g" d="M296.07,269.3l-.11.09Z" transform="translate(-150.56 -224.51)"/><path class="g" d="M293.56,270.9l-.1.09Z" transform="translate(-150.56 -224.51)"/><path class="ej" d="M250.78,262.39c.09-.18.28-.14.43-.17s.59-.12.88-.19c1-.23,1.95-.56,2.91-.88l.44-.14v.69a3,3,0,0,0,.4,1.42c0,.09.08.18.12.27l-1.65-.35a2,2,0,0,0-.34,0l0,0,0,0c-.13-.09-.3,0-.43-.09a6,6,0,0,0-1.12-.24C251.83,262.56,251.3,262.48,250.78,262.39Z" transform="translate(-150.56 -224.51)"/><path class="ek" d="M247.17,260.4a2.61,2.61,0,0,0-.12,1.49l-1.19-.11-2.28-.2s-.05,0,0-.06l0,0a9.09,9.09,0,0,0,3.29-1C247,260.41,247.05,260.32,247.17,260.4Z" transform="translate(-150.56 -224.51)"/><path class="el" d="M243.57,261.49s0,.06,0,.09a2.48,2.48,0,0,1-.94-.07l.32-.09A1.57,1.57,0,0,1,243.57,261.49Z" transform="translate(-150.56 -224.51)"/><path class="i" d="M253.47,262.9a.55.55,0,0,1,.43.09C253.75,263,253.59,263,253.47,262.9Z" transform="translate(-150.56 -224.51)"/><path class="t" d="M309.66,269.19l-.11-.09Z" transform="translate(-150.56 -224.51)"/><path class="t" d="M309.76,269.29l-.1-.1Z" transform="translate(-150.56 -224.51)"/><path class="c" d="M278,274.7a.2.2,0,0,1,.2.09A.22.22,0,0,1,278,274.7Z" transform="translate(-150.56 -224.51)"/><path class="p" d="M281.67,260.8a5.17,5.17,0,0,1-.85,1.71,6,6,0,0,1-2.14,1.8.1.1,0,0,1-.15,0,5.89,5.89,0,0,0,.6-1,2.34,2.34,0,0,0,.11-1.33,3.12,3.12,0,0,0-2.09-2.46,2.56,2.56,0,0,0-1.07-.11,2.71,2.71,0,0,1-2.64-1.18,2.39,2.39,0,0,1,.36-3.21,2.7,2.7,0,0,1,1.8-.76c.44,0,.89,0,1.34,0a.51.51,0,0,0,.32,0,.34.34,0,0,1,.2,0,.86.86,0,0,0,.27.05,6.62,6.62,0,0,1,2.26,1.22l.56.56a5.58,5.58,0,0,1,1.36,3.22c0,.15,0,.3,0,.46a3.07,3.07,0,0,0,0,.53C281.79,260.47,281.82,260.66,281.67,260.8Z" transform="translate(-150.56 -224.51)"/><path class="em" d="M274.53,260.57c.05.15.07.25.1.34a.87.87,0,0,0,1.26.48,1.77,1.77,0,0,1,.31-.15.75.75,0,0,1,1,.84.55.55,0,0,1-.12.27,1.42,1.42,0,0,1-.3.25,1.74,1.74,0,0,1-2-.23A1.45,1.45,0,0,1,274.53,260.57Z" transform="translate(-150.56 -224.51)"/><path class="en" d="M277.26,254.29a.38.38,0,0,1-.32-.08h.32l0,0Z" transform="translate(-150.56 -224.51)"/><path class="en" d="M277.26,254.12a.22.22,0,0,1,.24.06.16.16,0,0,1-.24,0h0A.11.11,0,0,1,277.26,254.12Z" transform="translate(-150.56 -224.51)"/><path class="eo" d="M278.53,264.29l.15,0c-.15.13-.17.13-.23,0A.11.11,0,0,1,278.53,264.29Z" transform="translate(-150.56 -224.51)"/><path class="ep" d="M236,233.69h2.06a.22.22,0,0,1,.23.15c.2.49.4,1,.59,1.48a.93.93,0,0,1,.05.29.16.16,0,0,1-.15.17h-.25a27.67,27.67,0,0,0-2.88,0c-.37,0-.42-.05-.33-.39a9.71,9.71,0,0,1,.53-1.39Z" transform="translate(-150.56 -224.51)"/><path class="eq" d="M237.13,230.94c.14.09.16.25.21.38.25.58.48,1.17.71,1.76,0,.11,0,.17-.09.17h-1.7l0,0A14.54,14.54,0,0,1,237.13,230.94Z" transform="translate(-150.56 -224.51)"/><path class="er" d="M239.58,240.79c-.28,0-.57,0-.85,0s-.26-.09-.27-.28,0-.46,0-.69a.23.23,0,0,1,.25-.25c.22,0,.43,0,.65,0s.73,0,1.09,0c.19,0,.27.09.28.27a4.7,4.7,0,0,1,0,.65c0,.2-.11.29-.32.3s-.56,0-.84,0Z" transform="translate(-150.56 -224.51)"/><path class="es" d="M234.38,240.19h-.94a.16.16,0,0,1-.18-.18,2.18,2.18,0,0,1,0-.25c0-.09.05-.16.15-.17h.15c.58,0,1.16,0,1.74,0,.29,0,.33.06.31.36s0,.25-.27.26h-1Z" transform="translate(-150.56 -224.51)"/><path class="et" d="M279,252.5a1.57,1.57,0,0,0,.49.47c.71.47,1.41,1,2.12,1.44a.49.49,0,0,1,.27.38.64.64,0,0,1-.38.12c-.75-.6-1.57-1.08-2.35-1.64-.08.13,0,.25,0,.36s.05.41-.17.54a6,6,0,0,1,0-1.53S279,252.55,279,252.5Z" transform="translate(-150.56 -224.51)"/><path class="eu" d="M279,253.6v-.54a3.39,3.39,0,0,1,.68.4c.49.37,1,.69,1.51,1a.62.62,0,0,1,.32.42h0c-.06,0-.15,0-.21.08a.41.41,0,0,1-.3.1C280.33,254.55,279.58,254.17,279,253.6Z" transform="translate(-150.56 -224.51)"/><path class="ev" d="M279,253.6a.45.45,0,0,1,.23.08l1.53,1.06a.42.42,0,0,1,.23.35l-.32.12a.32.32,0,0,1-.32-.06,6.76,6.76,0,0,0-1.35-.9s0-.05-.05-.08A2.2,2.2,0,0,0,279,253.6Z" transform="translate(-150.56 -224.51)"/><path class="ew" d="M282.26,264.5a2.7,2.7,0,0,1-.65.52l-1.78,1.19a2.6,2.6,0,0,0-.57.47l-.17-.27,2.09-1.42.61-.41a.32.32,0,0,0,.17-.28A.25.25,0,0,1,282.26,264.5Z" transform="translate(-150.56 -224.51)"/><path class="ex" d="M281.86,259.3c-.06-.28-.11-.55-.17-.83a5.34,5.34,0,0,0-1.19-2.27.73.73,0,0,1-.05-.09c0-.1,0-.14.12-.12a3.65,3.65,0,0,1,.8,1.12,4.57,4.57,0,0,1,.58,2.19S281.89,259.34,281.86,259.3Z" transform="translate(-150.56 -224.51)"/><path class="ey" d="M277.26,254.2l.24,0a5.46,5.46,0,0,1,2.23,1c.12.09.22.2.33.29s0,.15-.12.12c-.3-.21-.59-.42-.89-.61a5.39,5.39,0,0,0-1.39-.61c-.06,0-.15,0-.22-.08l-.18,0Z" transform="translate(-150.56 -224.51)"/><path class="ez" d="M279.94,255.61l.12-.12a1.74,1.74,0,0,1,.51.5l-.12.12A3,3,0,0,1,279.94,255.61Z" transform="translate(-150.56 -224.51)"/><path class="fa" d="M281.77,260.3a1,1,0,0,1,.08-.52c.09,0,0,.15.1.21a.54.54,0,0,1-.07.43C281.81,260.41,281.81,260.34,281.77,260.3Z" transform="translate(-150.56 -224.51)"/><path class="fb" d="M281.77,260.3l.11.12a.8.8,0,0,1-.11.5l-.1-.12Z" transform="translate(-150.56 -224.51)"/><path class="ex" d="M282,260l-.1-.21v-.48H282A2.66,2.66,0,0,1,282,260Z" transform="translate(-150.56 -224.51)"/><path class="et" d="M281.26,255a.2.2,0,0,1,.21-.08A.19.19,0,0,1,281.26,255Z" transform="translate(-150.56 -224.51)"/><path class="bp" d="M282,262.61a.14.14,0,0,1,.12.11A.14.14,0,0,1,282,262.61Z" transform="translate(-150.56 -224.51)"/><path class="q" d="M277.57,257.79a.93.93,0,0,0-1.42-.48l0,0a.78.78,0,0,1-.58.07.65.65,0,0,1-.52-.54.62.62,0,0,1,.25-.65,1.56,1.56,0,0,1,.58-.28,1.62,1.62,0,0,1,1.89,1,1.06,1.06,0,0,1-.05.87C277.63,257.85,277.6,257.84,277.57,257.79Z" transform="translate(-150.56 -224.51)"/><path class="en" d="M277.44,254.31a.18.18,0,0,1,.22.08A.25.25,0,0,1,277.44,254.31Z" transform="translate(-150.56 -224.51)"/><path class="fc" d="M277.57,257.79l.11,0c0,.07,0,.16-.07.15S277.55,257.86,277.57,257.79Z" transform="translate(-150.56 -224.51)"/></svg>