<svg xmlns="http://www.w3.org/2000/svg" viewBox="0 0 166.51 166.51"><defs><style>.cls-1{fill:#fffbfc;}</style></defs><g id="Layer_2" data-name="Layer 2"><g id="Layer_1-2" data-name="Layer 1"><path class="cls-1" d="M109.82,111.11H108v13.21h1.83a7.54,7.54,0,0,0,3.31-.52,3.57,3.57,0,0,0,1.55-1.81,11.54,11.54,0,0,0,.56-4.2q0-3.84-1.25-5.26A5.28,5.28,0,0,0,109.82,111.11Z"/><path class="cls-1" d="M59.22,110.88a4.51,4.51,0,0,0-3.61,1.6c-.91,1.06-1.36,2.83-1.36,5.29S54.7,122,55.6,123a5.11,5.11,0,0,0,7.4,0q1.32-1.56,1.32-5.62c0-2.27-.46-3.94-1.37-5A4.7,4.7,0,0,0,59.22,110.88Z"/><polygon class="cls-1" points="67.93 33.92 68 32.18 69.73 33.06 73.12 34.77 73.87 31.33 74.36 29.1 75.74 30.67 77.72 32.92 84.08 30.37 81.59 29.01 77.86 26.98 76.77 26.39 73.23 27.81 73.03 28.37 71.88 31.62 68.58 30.17 67.66 29.76 64.12 31.18 63.62 32.83 62.31 37.14 61.63 39.39 67.82 36.9 67.93 33.92"/><path class="cls-1" d="M0,0V166.51H166.51V0ZM116.38,57.07c.83,2.11.18,4.65-1.63,7.35a23.77,23.77,0,0,1-2.86,3.44,46.94,46.94,0,0,1-8.47,6.59A74.24,74.24,0,0,1,92,80.18a72,72,0,0,1-12.15,3.73,45.45,45.45,0,0,1-11,1.09,19.18,19.18,0,0,1-6.32-1.18,6.62,6.62,0,0,1-3.94-3.52,5.29,5.29,0,0,1-.36-1.85,11.43,11.43,0,0,0,4.44,1.43,28.28,28.28,0,0,0,5.23.17,69.8,69.8,0,0,0,21.35-5.23c8.23-3.3,15.17-7.5,19.66-11.55a26.62,26.62,0,0,0,2.89-3c1.66-2,2.58-4,2.59-5.65A5.63,5.63,0,0,1,116.38,57.07Zm-7.44-16.94a8.06,8.06,0,0,1,3.13,3.7,9,9,0,0,1-.36,6.78A17.21,17.21,0,0,1,110.52,53a28.58,28.58,0,0,1-5,5.92q-1.17,1.11-2.52,2.19a62.65,62.65,0,0,1-15.78,9,63.43,63.43,0,0,1-16.82,4.32c-1.46.15-2.86.22-4.2.23A29.28,29.28,0,0,1,59.57,74a17.66,17.66,0,0,1-3.2-1,8.93,8.93,0,0,1-5-4.72,8.15,8.15,0,0,1-.23-5c1,2.46,4.49,3.7,9.42,3.75a41.47,41.47,0,0,0,5.76-.38A75.76,75.76,0,0,0,84,61.75a74.81,74.81,0,0,0,16.78-9.19,38.32,38.32,0,0,0,3.89-3.31C108.15,45.85,109.8,42.61,108.94,40.13ZM69.74,26.74C77.6,23.58,85,23.37,87,26.13a2.65,2.65,0,0,1,.3.55,2.94,2.94,0,0,1,.16,1.39c-.38,3.3-5.64,7.78-12.91,10.7-7,2.8-13.56,3.28-16.32,1.43A2.88,2.88,0,0,1,57,38.83a2.2,2.2,0,0,1-.12-.44C56.19,35.05,61.74,30,69.74,26.74ZM54.36,44a4,4,0,0,0,.27,1.33c.84,2.12,3.49,3.28,7.15,3.51.49,0,1,0,1.51,0a40.13,40.13,0,0,0,14.13-3.12,40.17,40.17,0,0,0,12.51-7.65c.37-.36.73-.72,1-1.08,2.43-2.66,3.5-5.29,2.68-7.38a4.12,4.12,0,0,0-1.3-1.68c5.47.25,9.48,2,10.76,5.22a6.54,6.54,0,0,1,.32,3.39,10.8,10.8,0,0,1-.34,1.39c-1.47,4.52-6.6,9.65-13.9,13.82a59.06,59.06,0,0,1-7.4,3.57,58.66,58.66,0,0,1-8,2.59c-8.26,2-15.57,1.79-19.63-.63A7.72,7.72,0,0,1,53,56.49,6.2,6.2,0,0,1,51.2,54C50.05,51.13,51.33,47.55,54.36,44Zm-9.68,85.85H38.59V111.37l-4.7,18.44H28.38l-4.69-18.44v18.44h-6.1V105.63h9.79l3.77,14.71,3.75-14.71h9.78Zm25.66-5.32a10.13,10.13,0,0,1-4.11,4.22,13.46,13.46,0,0,1-6.69,1.51,15.35,15.35,0,0,1-6.75-1.3,10.17,10.17,0,0,1-4.32-4.12,13.74,13.74,0,0,1-1.66-7.06q0-5.92,3.28-9.22t9.15-3.3q6,0,9.26,3.24t3.26,9.08A15,15,0,0,1,70.34,124.49Zm9-37.13a57.72,57.72,0,0,0,7.15-1.69c2-.59,4-1.29,6.07-2.12a71.12,71.12,0,0,0,7.38-3.47A55.94,55.94,0,0,0,106,76.21a33.12,33.12,0,0,0,5.72-5.16,17.48,17.48,0,0,1-5.32,8.19,33.31,33.31,0,0,1-4.36,3.45A43.15,43.15,0,0,1,86.81,89a33.86,33.86,0,0,1-5.65.62A19.08,19.08,0,0,1,72.29,88,39.8,39.8,0,0,0,79.29,87.36Zm17.87,42.45h-7l-9-13.28v13.28h-7V105.63h7L90.15,119V105.63h7ZM96,89.92a10.43,10.43,0,0,1-7.22.49,29.63,29.63,0,0,0,12.86-5.27A10.39,10.39,0,0,1,96,89.92Zm25.76,33.73a10,10,0,0,1-2.44,3.58,8,8,0,0,1-3.35,1.92,17.17,17.17,0,0,1-4.43.66H100.52V105.63h11.06a13.19,13.19,0,0,1,5.27.89,8.64,8.64,0,0,1,3.33,2.56,10.6,10.6,0,0,1,1.91,3.88,18.18,18.18,0,0,1,.59,4.68A16.43,16.43,0,0,1,121.8,123.65Zm25.7.84a10.13,10.13,0,0,1-4.11,4.22,13.46,13.46,0,0,1-6.69,1.51,15.28,15.28,0,0,1-6.74-1.3,10.14,10.14,0,0,1-4.33-4.12,13.74,13.74,0,0,1-1.66-7.06q0-5.92,3.29-9.22t9.14-3.3q6,0,9.27,3.24t3.25,9.08A14.89,14.89,0,0,1,147.5,124.49Z"/><path class="cls-1" d="M136.38,110.88a4.51,4.51,0,0,0-3.61,1.6c-.9,1.06-1.36,2.83-1.36,5.29s.45,4.19,1.35,5.26a5.11,5.11,0,0,0,7.4,0q1.32-1.56,1.32-5.62c0-2.27-.46-3.94-1.37-5A4.7,4.7,0,0,0,136.38,110.88Z"/></g></g></svg>