<svg xmlns="http://www.w3.org/2000/svg" xmlns:xlink="http://www.w3.org/1999/xlink" viewBox="0 0 166.51 166.51"><defs><style>.cls-1{fill:none;}.cls-2{fill:#f06724;}.cls-3{clip-path:url(#clip-path);}.cls-4{fill:#fff;}</style><clipPath id="clip-path"><rect class="cls-1" width="166.51" height="166.51"/></clipPath></defs><g id="Layer_2" data-name="Layer 2"><g id="Layer_1-2" data-name="Layer 1"><rect class="cls-2" width="166.51" height="166.51"/><g class="cls-3"><path class="cls-4" d="M138.74,122.77a5,5,0,0,1,4-1.79,5.22,5.22,0,0,1,4.17,1.76c1,1.17,1.54,3,1.54,5.59q0,4.54-1.48,6.3a5.74,5.74,0,0,1-8.29,0c-1-1.19-1.51-3.16-1.51-5.89s.51-4.74,1.53-5.93m-8,13.8a11.44,11.44,0,0,0,4.85,4.62,17.22,17.22,0,0,0,7.55,1.46,15.18,15.18,0,0,0,7.5-1.69,11.39,11.39,0,0,0,4.6-4.73,16.63,16.63,0,0,0,1.6-7.79q0-6.54-3.65-10.17t-10.38-3.63q-6.57,0-10.24,3.69t-3.69,10.33a15.38,15.38,0,0,0,1.86,7.91M113,121.23q3.24,0,4.63,1.59t1.4,5.9a13,13,0,0,1-.62,4.7,4,4,0,0,1-1.73,2A8.57,8.57,0,0,1,113,136h-2v-14.8Zm-10.42,21H115a19.31,19.31,0,0,0,5-.74,9,9,0,0,0,3.76-2.16,11,11,0,0,0,2.73-4,18.16,18.16,0,0,0,1-6.73,20.74,20.74,0,0,0-.66-5.25,12,12,0,0,0-2.14-4.34,9.63,9.63,0,0,0-3.73-2.86,14.65,14.65,0,0,0-5.91-1H102.6Zm-29.56,0h7.84V127.31L91,142.19h7.86V115.1H91v15l-10.16-15H73ZM52.29,122.77a5,5,0,0,1,4-1.79,5.22,5.22,0,0,1,4.17,1.76c1,1.17,1.54,3,1.54,5.59q0,4.54-1.47,6.3a5.74,5.74,0,0,1-8.29,0c-1-1.19-1.52-3.16-1.52-5.89s.51-4.74,1.53-5.93m-8,13.8a11.44,11.44,0,0,0,4.85,4.62,17.22,17.22,0,0,0,7.55,1.46A15.28,15.28,0,0,0,64.19,141a11.43,11.43,0,0,0,4.59-4.73,16.75,16.75,0,0,0,1.6-7.79q0-6.54-3.65-10.17t-10.38-3.63q-6.57,0-10.25,3.69t-3.68,10.33a15.38,15.38,0,0,0,1.86,7.91M9.69,142.19h6.83V121.53l5.25,20.66H28l5.26-20.66v20.66H40V115.1h-11l-4.2,16.48L20.66,115.1h-11Z"/><path class="cls-4" d="M97.59,97.5c4.79-1.93,7.72-5.88,6.56-8.82s-6-3.78-10.79-1.85-7.73,5.87-6.56,8.82,6,3.77,10.79,1.85"/><path class="cls-2" d="M96.85,96c8.35-3.36,13.86-9.26,12.31-13.18s-9.59-4.38-17.94-1S77.37,91.08,78.92,95s9.58,4.39,17.93,1"/><path class="cls-4" d="M95.8,93.86c13.38-5.37,21.94-15.5,19.12-22.61S99,62.73,85.6,68.11,63.66,83.61,66.48,90.72s15.94,8.52,29.32,3.14"/><path class="cls-2" d="M93.63,90.36c16.06-6.46,27.07-16.78,24.58-23.07s-17.52-6.14-33.59.32S57.56,84.39,60.05,90.67s17.52,6.14,33.58-.31"/><path class="cls-4" d="M93.09,86.58C111,79.4,123.18,67.81,120.37,60.69s-19.6-7-37.48.13S52.8,79.6,55.62,86.72s19.59,7,37.47-.14"/><path class="cls-2" d="M90,80.58c17.88-7.19,30.35-18.1,27.87-24.38s-19-5.55-36.88,1.63S50.61,75.94,53.09,82.22s19,5.55,36.88-1.64"/><path class="cls-4" d="M87.76,75.27c18.79-7.55,31.23-20.72,27.78-29.41s-21.46-9.62-40.25-2.07S44.07,64.51,47.51,73.2,69,82.82,87.76,75.27"/><path class="cls-2" d="M84.11,65.93C102,58.74,114.46,47.83,112,41.54S93,36,75.1,43.18,44.74,61.28,47.23,67.57s19,5.54,36.88-1.64"/><path class="cls-4" d="M81.63,58.73c16.06-6.46,26.75-17.58,23.88-24.84S87.28,26,71.22,32.44,44.47,50,47.34,57.27s18.22,7.91,34.29,1.46"/><path class="cls-2" d="M76.72,48c12.07-4.85,20.22-12.93,18.19-18s-13.46-5.34-25.53-.49S49.16,42.38,51.19,47.5s13.46,5.33,25.53.47"/><path class="cls-4" d="M73.45,40.19c9.36-3.76,15.75-9.83,14.28-13.55S77.47,23,68.11,26.71,52.36,36.54,53.84,40.26,64.09,44,73.45,40.19"/><polygon class="cls-2" points="59.03 40.88 65.97 38.09 66.17 32.81 71.9 35.7 73.29 29.35 77.05 33.63 84.18 30.77 75.99 26.32 72.03 27.91 70.51 32.17 65.78 30.09 61.82 31.69 59.03 40.88"/></g></g></g></svg>