<svg xmlns="http://www.w3.org/2000/svg" xmlns:xlink="http://www.w3.org/1999/xlink" viewBox="0 0 118.15 96.47"><defs><style>.a,.d{fill:none;}.b,.l{fill:#fff;}.c{fill:#15133f;}.d{stroke:#15133f;stroke-width:0.1px;}.d,.l{stroke-miterlimit:10;}.e{fill:#5eb9d2;}.f{fill:#5758a6;}.g{fill:#15123e;}.h{fill:#ef4b64;}.i{clip-path:url(#a);}.j{fill:#f29e22;}.k{fill:#fdb83c;}.l{stroke:#15123e;stroke-width:0.21px;}.m{fill:#c5da4b;}.n{fill:#77431b;}.o{fill:#72c7f0;}.p{fill:#d8f0f6;}.q{fill:#3a2e60;}</style><clipPath id="a" transform="translate(-68.25 -21.26)"><path class="a" d="M141.85,68.69a2.53,2.53,0,0,0-2.32,1.53,2.56,2.56,0,1,0,0,2.06,2.54,2.54,0,1,0,2.31-3.59Z"/></clipPath></defs><path class="b" d="M186.4,60.59,145,32.08l3.57-3.61-11.35-6.38-.64,4L130,21.26,68.25,57.7l4,3.92L77.27,59l3.62,25.32H91l4.8,19.54,62.58,0h4.09L170,84.19h11s-5.5-22.09-5.79-23l6.55,3.37Z" transform="translate(-68.25 -21.26)"/><polygon class="c" points="74.41 11.05 77.84 7.57 70.18 3.26 69.49 7.54 61.62 1.84 2.5 36.75 4.26 38.49 61.16 9.53 113.35 41.37 115.62 39.45 74.41 11.05"/><path class="c" d="M117.2,39.45l1.18,6.64-5.53.63,2.68,12.48h-5.32L108.87,48l-4.09,1.5-1-4.07Z" transform="translate(-68.25 -21.26)"/><path class="c" d="M142.29,55.65l6,.11-.88,3.44H136.56l3.52-19.75,11,6-.73,2.85-7.05-2-.41,3.6h5.52L148,53.45l-5.32-1Z" transform="translate(-68.25 -21.26)"/><path class="c" d="M126.84,43.24H131l-.65-8.58,8.46,4.14-3.44,20.4h-4.24l-.18-11.76-4.12-.17-.59,11.93H122l-3.45-20.4,8.33-4.14Z" transform="translate(-68.25 -21.26)"/><path class="c" d="M127,76.26c-.14-1.38-6.05-.78-7-6.82-.58-3.84,1.3-8.42,6-8.44A8.38,8.38,0,0,1,133,64.6l-2,3.69s-1.79-1.5-3.39-1.34a.87.87,0,0,0-.84.92c.14,1.38,6.34,1.92,7,8a6.23,6.23,0,0,1-5.92,6.88A10.61,10.61,0,0,1,119.94,80a15.4,15.4,0,0,0,1.37-1.87,11.13,11.13,0,0,0,1-2.16,5.26,5.26,0,0,0,3.87,1.23A.86.86,0,0,0,127,76.26Z" transform="translate(-68.25 -21.26)"/><path class="c" d="M155.52,57.31l-5.33.46-6.31,25h6.49L151,79.2l2.51,0,.65,3.58h6.48S155.53,57.41,155.52,57.31Zm-1.38,14.42-1.68.09,0-7.25C153.81,64.7,154.13,68.51,154.14,71.73ZM152,64.63l0,7.2-1.57.08C150.53,68.85,150.83,65.18,152,64.63ZM150.6,76.16s-.11-1.73-.11-3.85l1.59-.08,0,3.93Zm1.89,0h0l0-4,1.67-.08c0,2.2-.13,4-.13,4Z" transform="translate(-68.25 -21.26)"/><path class="d" d="M105.09,66.21" transform="translate(-68.25 -21.26)"/><path class="e" d="M112.43,82.75c-5.2-.61-8.23-6.08-7.5-12.33s4.93-10.72,10.14-10.11,8.24,5.93,7.5,12.18S117.63,83.36,112.43,82.75Z" transform="translate(-68.25 -21.26)"/><path class="c" d="M118.1,70.16a.34.34,0,0,0,.49-.4,2.2,2.2,0,0,0-3.82-.44.34.34,0,0,0,.39.5,4.17,4.17,0,0,1,1.52-.26A4.11,4.11,0,0,1,118.1,70.16Z" transform="translate(-68.25 -21.26)"/><path class="c" d="M112.55,69.51a.33.33,0,0,0,.48-.41,2.21,2.21,0,0,0-3.82-.44.34.34,0,0,0,.39.51,4.43,4.43,0,0,1,1.52-.27A4.38,4.38,0,0,1,112.55,69.51Z" transform="translate(-68.25 -21.26)"/><path class="c" d="M112.5,63a3.58,3.58,0,0,0-2.91.83c-.16.18-.07.57.22.54a6.05,6.05,0,0,0,1.38-.46c.45-.17.92-.29,1.36-.5a.23.23,0,0,0,0-.41Z" transform="translate(-68.25 -21.26)"/><path class="c" d="M116,63.82c.38.3.81.53,1.21.8a6,6,0,0,0,1.22.77c.28.09.47-.24.36-.47a3.58,3.58,0,0,0-2.63-1.49c-.18,0-.31.27-.16.39Z" transform="translate(-68.25 -21.26)"/><path class="c" d="M112.63,78.15a5.64,5.64,0,0,0,6.26-4.94l-11.21-1.32A5.64,5.64,0,0,0,112.63,78.15Z" transform="translate(-68.25 -21.26)"/><path class="f" d="M91.69,82.75l-2.84-7.89v7.89H82.69L79.52,59.66l11.86,4.66a.22.22,0,0,1,.09.12L94,69.38a.19.19,0,0,0,.37,0l2.51-4.94a.23.23,0,0,1,.1-.12l11.69-4.08-3.54,22.51H99.5V74.86l-2.84,7.89Z" transform="translate(-68.25 -21.26)"/><path class="c" d="M88.43,69.4A4.45,4.45,0,0,0,91.16,73a5.31,5.31,0,0,0,5.21-.71.4.4,0,0,0-.38-.66,14.81,14.81,0,0,1-2.24.77,4.08,4.08,0,0,1-2.19-.19A4.68,4.68,0,0,1,89,69.32c-.11-.27-.59-.27-.56.08Z" transform="translate(-68.25 -21.26)"/><path class="c" d="M90.37,54.36a7.91,7.91,0,0,0-3.2.76c-.82.39-2.29,1.18-2.33,2.21a.57.57,0,0,0,.56.56,2.16,2.16,0,0,0,1.24-.64,9.81,9.81,0,0,1,1.21-.81,10.59,10.59,0,0,1,2.65-1.15.48.48,0,0,0-.13-.93Z" transform="translate(-68.25 -21.26)"/><path class="g" d="M96.14,52.37a4.11,4.11,0,0,0,1.13.45,7.38,7.38,0,0,1,1.11.5c.74.41,1.23,1.15,2,1.45a.59.59,0,0,0,.75-.56c0-1.09-1.13-1.87-2-2.32s-2.18-.85-3-.27a.44.44,0,0,0,0,.75Z" transform="translate(-68.25 -21.26)"/><path class="c" d="M125.53,102.6l-2.47-7.11.55,7.11h-4.17l-3.38-16.74,6.87.39,4,6.09L130,86.45l7.68-1.58L135,102.6h-4.17V95.49l-1.92,7.11Z" transform="translate(-68.25 -21.26)"/><path class="c" d="M159.32,91.22l3.62-5.78,4.79-1-6.16,11.76-.41,6.36h-3.8l-.55-7.11-5.32-9.86,4.6,1Z" transform="translate(-68.25 -21.26)"/><path class="c" d="M108.56,85.34l-1.28,5.31H101v2.65h5.62l-.67,2.83H101l.12,6.47H97.08L94.6,84.46Z" transform="translate(-68.25 -21.26)"/><path class="c" d="M142.87,102.6h-4.08l-.6-14.23,5.29,1.29Z" transform="translate(-68.25 -21.26)"/><path class="c" d="M149.52,98.42l4.7-1-.65,5.13h-7.93l-.8-16.16L151,85.13Z" transform="translate(-68.25 -21.26)"/><path class="g" d="M114,85.59l-4-.15L105.7,102.6h4.85L111,100l1.87,0,.46,2.66h4.84Zm-.42,8.85-1.46.07,0-4.67C113.2,90,113.5,92.33,113.54,94.44Zm-1.93-4.53,0,4.62-1.31.07C110.37,92.61,110.64,90.34,111.61,89.91Zm-1.19,7.79s-.11-1.2-.1-2.66l1.32-.07,0,2.73Zm1.68,0,0-2.75,1.47-.07c0,1.53-.12,2.82-.12,2.82Z" transform="translate(-68.25 -21.26)"/><path class="c" d="M141.64,84.21c-1.56-.35-3,.32-3.28,1.67s.72,2.54,2.27,2.88,3-.32,3.28-1.67S143.19,84.55,141.64,84.21Zm-.26,1a1.75,1.75,0,0,1,1.28,1.18l-1.33,0ZM140.89,88a2.07,2.07,0,0,1-1.81-1.42l1.86.07Zm.07-1.72-1.87-.07a.17.17,0,0,1,0-.07A1.57,1.57,0,0,1,141,85.13Zm1.7.65a1.46,1.46,0,0,1-1.4,1.08l.06-1.34,1.37.05A.76.76,0,0,1,142.66,87Z" transform="translate(-68.25 -21.26)"/><path class="h" d="M137.74,70.72h3.54l.19-6.63,8.31-4.35-3.82,23h-4.87l.22-7.25-3.6-.31.44,7.56h-5L128.53,61.2l8.58,3Z" transform="translate(-68.25 -21.26)"/><path class="c" d="M133.89,70.69a1,1,0,0,0,.47.28c.15,0,.44,0,.52-.13a.18.18,0,0,0,0-.19c-.09-.09-.23-.07-.35-.1a.63.63,0,0,1-.35-.13c-.18-.14-.43.09-.26.27Z" transform="translate(-68.25 -21.26)"/><path class="c" d="M134.14,70.13a1,1,0,0,0,.48.28c.15,0,.44,0,.51-.13a.17.17,0,0,0,0-.19c-.09-.09-.24-.07-.35-.09a.71.71,0,0,1-.35-.13c-.19-.15-.44.08-.27.26Z" transform="translate(-68.25 -21.26)"/><path class="c" d="M144.88,70.42a.63.63,0,0,1-.35.13c-.12,0-.26,0-.35.1a.16.16,0,0,0,0,.19c.07.16.36.17.51.13a.94.94,0,0,0,.47-.28c.18-.18-.08-.41-.26-.27Z" transform="translate(-68.25 -21.26)"/><path class="c" d="M144.62,69.87a.71.71,0,0,1-.34.13c-.12,0-.27,0-.36.09a.17.17,0,0,0,0,.19c.07.17.36.17.51.13a1,1,0,0,0,.48-.28c.17-.18-.08-.41-.27-.26Z" transform="translate(-68.25 -21.26)"/><g class="i"><path class="b" d="M141.85,68.69a2.53,2.53,0,0,0-2.32,1.53,2.56,2.56,0,1,0,0,2.06,2.54,2.54,0,1,0,2.31-3.59Z" transform="translate(-68.25 -21.26)"/><circle class="c" cx="73.09" cy="48.83" r="1.36"/><circle class="c" cx="69.46" cy="48.86" r="1.37"/></g><path class="c" d="M137.05,66.81A3.78,3.78,0,0,0,134.47,68c-.13.16,0,.48.23.39a8.61,8.61,0,0,0,1.16-.62c.42-.22.86-.39,1.27-.62a.17.17,0,0,0-.08-.31Z" transform="translate(-68.25 -21.26)"/><path class="c" d="M141.4,66.88c.42.23.86.4,1.27.62a9.26,9.26,0,0,0,1.16.62c.25.09.36-.23.23-.39a3.77,3.77,0,0,0-2.57-1.16.17.17,0,0,0-.09.31Z" transform="translate(-68.25 -21.26)"/><path class="c" d="M141.27,75.13a5.17,5.17,0,0,1-2.07.16,6.44,6.44,0,0,1-1.83-.83.19.19,0,0,0-.25.25,3.43,3.43,0,0,0,4.3.79.2.2,0,0,0-.15-.37Z" transform="translate(-68.25 -21.26)"/><path class="j" d="M130.13,64.09a1.16,1.16,0,0,0,.87.14c.73-.14.75-.42.75-.42l1.07-5.45-1.42,2.39-1.52-4.08-.36,4.2-2.08-1.61Z" transform="translate(-68.25 -21.26)"/><path class="k" d="M161.11,67.22l4.41-6.49L172.2,59,164.28,74.5,164,82.75h-5l-.23-8-6.34-14.19,5.27,1.61Z" transform="translate(-68.25 -21.26)"/><circle class="b" cx="95.03" cy="46.54" r="2.27"/><circle class="c" cx="94.09" cy="45.94" r="0.91"/><circle class="b" cx="90.86" cy="46.57" r="2.29"/><circle class="c" cx="89.81" cy="45.94" r="0.92"/><path class="c" d="M158.75,63.61a3.21,3.21,0,0,0-2.23.72.19.19,0,0,0,.18.32,9.2,9.2,0,0,0,1-.41c.35-.13.71-.22,1.05-.36a.14.14,0,0,0,0-.27Z" transform="translate(-68.25 -21.26)"/><path class="c" d="M163.06,63.76c.35.18.72.32,1.07.49a7.42,7.42,0,0,0,1,.5c.19.06.29-.19.18-.32a3.18,3.18,0,0,0-2.15-.92.14.14,0,0,0-.07.25Z" transform="translate(-68.25 -21.26)"/><path class="c" d="M161.4,74a3.35,3.35,0,0,0,3.34-3.34h-6.68A3.34,3.34,0,0,0,161.4,74Z" transform="translate(-68.25 -21.26)"/><path class="l" d="M97.57,57.14a3.75,3.75,0,0,0-3.44,2.26,3.78,3.78,0,1,0,0,3,3.75,3.75,0,1,0,3.42-5.3Z" transform="translate(-68.25 -21.26)"/><circle class="c" cx="31.05" cy="39.64" r="2.01"/><circle class="c" cx="24.19" cy="39.62" r="2.03"/><path class="m" d="M172.73,82.75l-.62-3.34h0l-2.34,0h0l-.59,3.31H163.1l6.19-21.6L173.41,63c.18.68,5.3,19.59,5.36,19.78Z" transform="translate(-68.25 -21.26)"/><circle class="b" cx="104.82" cy="50.94" r="2.13"/><circle class="c" cx="104" cy="50.95" r="0.85"/><circle class="b" cx="100.9" cy="50.97" r="2.15"/><circle class="c" cx="101.72" cy="50.97" r="0.86"/><path class="n" d="M171.57,62.39s-2.21.6-1.77-1.26,2.21-1,2.19-2.51a2.6,2.6,0,0,1-.57,2.5C170.38,62,171.57,62.39,171.57,62.39Z" transform="translate(-68.25 -21.26)"/><path class="o" d="M173,75.37a2,2,0,1,1-2-2.06,2,2,0,0,1,2,2.06Zm0,0" transform="translate(-68.25 -21.26)"/><path class="p" d="M171.86,75.35a.92.92,0,1,1-.89-.94.92.92,0,0,1,.89.94Zm0,0" transform="translate(-68.25 -21.26)"/><path class="q" d="M173.19,75.15a2.25,2.25,0,0,0-4.48-.1,1.69,1.69,0,0,0,0,.48,2.29,2.29,0,0,0,1,1.66.95.95,0,0,0,.91,1.19l.56,0a1,1,0,0,0,.78-.36,1,1,0,0,0,.19-.79,2.31,2.31,0,0,0,1-1.61A1.79,1.79,0,0,0,173.19,75.15Zm-2.26.85a.68.68,0,1,1,.69-.66.67.67,0,0,1-.69.66Zm-.5.35a1.15,1.15,0,0,0,.49.13,1.34,1.34,0,0,0,.49-.1l.16.61a1.83,1.83,0,0,1-1.33,0Zm1.13,1.39a.47.47,0,0,1-.39.18h-.57a.48.48,0,0,1-.38-.2.52.52,0,0,1-.09-.29,2.4,2.4,0,0,0,.76.16,2.43,2.43,0,0,0,.77-.12.48.48,0,0,1-.1.28Zm.44-1-.18-.69a1.12,1.12,0,0,0,.28-.71A1.17,1.17,0,0,0,171,74.17a1.15,1.15,0,0,0-1.18,1.13A1.14,1.14,0,0,0,170,76l-.2.68a1.73,1.73,0,0,1-.66-1.42A1.78,1.78,0,1,1,172,76.75Zm0,0" transform="translate(-68.25 -21.26)"/><path class="c" d="M81.31,112.35h-1.8v-.65H83.9v.65H82.09v5.28h-.78Z" transform="translate(-68.25 -21.26)"/><path class="c" d="M86.2,111.7v2.48h2.86V111.7h.78v5.93h-.78v-2.78H86.2v2.78h-.77V111.7Z" transform="translate(-68.25 -21.26)"/><path class="c" d="M95.11,114.85h-2.3V117h2.56v.64H92V111.7h3.2v.64H92.81v1.88h2.3Z" transform="translate(-68.25 -21.26)"/><path class="c" d="M105,115c0-.83-.1-1.82-.09-2.56h0c-.2.69-.44,1.43-.74,2.25l-1.05,2.87h-.58l-1-2.82c-.28-.83-.52-1.6-.68-2.3h0c0,.74-.06,1.73-.11,2.62l-.16,2.54h-.73l.41-5.93h1l1,2.87c.24.73.45,1.38.59,2h0c.15-.59.36-1.24.63-2l1-2.87h1l.36,5.93h-.74Z" transform="translate(-68.25 -21.26)"/><path class="c" d="M113,114.6c0,2-1.24,3.12-2.75,3.12a2.71,2.71,0,0,1-2.66-3,2.81,2.81,0,0,1,2.75-3.11A2.69,2.69,0,0,1,113,114.6Zm-4.59.1c0,1.27.68,2.4,1.89,2.4s1.89-1.12,1.89-2.46c0-1.18-.61-2.41-1.89-2.41S108.4,113.4,108.4,114.7Z" transform="translate(-68.25 -21.26)"/><path class="c" d="M114.76,116.7a2.7,2.7,0,0,0,1.37.38c.78,0,1.24-.41,1.24-1s-.32-.87-1.12-1.18c-1-.34-1.56-.84-1.56-1.68a1.7,1.7,0,0,1,1.91-1.6,2.67,2.67,0,0,1,1.31.29l-.21.62a2.41,2.41,0,0,0-1.12-.28c-.81,0-1.12.48-1.12.89s.36.82,1.18,1.14c1,.39,1.51.87,1.51,1.74s-.68,1.7-2.07,1.7a3.09,3.09,0,0,1-1.52-.37Z" transform="translate(-68.25 -21.26)"/><path class="c" d="M120.84,111.7v2.48h2.86V111.7h.78v5.93h-.78v-2.78h-2.86v2.78h-.77V111.7Z" transform="translate(-68.25 -21.26)"/><path class="c" d="M127.64,115.76l-.61,1.87h-.8l2-5.93h.92l2,5.93h-.81l-.64-1.87Zm1.94-.59-.58-1.71c-.13-.39-.22-.74-.3-1.08h0c-.09.35-.19.71-.3,1.07l-.58,1.72Z" transform="translate(-68.25 -21.26)"/><path class="c" d="M133.56,117.63v-2.52l-1.87-3.41h.87l.84,1.64c.22.45.4.81.59,1.22h0c.17-.39.37-.77.6-1.22l.85-1.64h.87l-2,3.4v2.53Z" transform="translate(-68.25 -21.26)"/><path class="c" d="M138.12,115.76l-.61,1.87h-.79l2-5.93h.92l2,5.93h-.82l-.63-1.87Zm1.95-.59-.58-1.71c-.13-.39-.22-.74-.31-1.08h0c-.09.35-.18.71-.3,1.07l-.58,1.72Z" transform="translate(-68.25 -21.26)"/><path class="c" d="M146.17,111.7h3.19v.64h-2.43v2h2.24V115h-2.24v2.68h-.76Z" transform="translate(-68.25 -21.26)"/><path class="c" d="M151.6,115.76l-.62,1.87h-.79l2-5.93h.93l2,5.93h-.82l-.63-1.87Zm1.94-.59-.58-1.71c-.13-.39-.22-.74-.31-1.08h0c-.08.35-.18.71-.3,1.07l-.58,1.72Z" transform="translate(-68.25 -21.26)"/><path class="c" d="M161.85,115c0-.83-.09-1.82-.09-2.56h0c-.2.69-.45,1.43-.75,2.25l-1,2.87h-.58l-1-2.82c-.28-.83-.52-1.6-.69-2.3h0c0,.74-.06,1.73-.11,2.62l-.16,2.54h-.73l.42-5.93h1l1,2.87c.25.73.45,1.38.6,2h0c.15-.59.36-1.24.62-2l1.05-2.87h1l.37,5.93H162Z" transform="translate(-68.25 -21.26)"/><path class="c" d="M165.57,111.7v5.93h-.77V111.7Z" transform="translate(-68.25 -21.26)"/><path class="c" d="M167.78,111.7h.77V117h2.53v.64h-3.3Z" transform="translate(-68.25 -21.26)"/><path class="c" d="M173.39,117.63v-2.52l-1.87-3.41h.87l.83,1.64c.23.45.41.81.59,1.22h0c.17-.39.37-.77.6-1.22l.85-1.64h.87l-2,3.4v2.53Z" transform="translate(-68.25 -21.26)"/></svg>