<svg xmlns="http://www.w3.org/2000/svg" viewBox="0 0 113.12 94.63"><defs><style>.a,.b{fill:#fff;}.b{stroke:#15133f;stroke-miterlimit:10;stroke-width:0.1px;}</style></defs><polygon class="a" points="71.91 9.21 75.34 5.73 67.68 1.42 66.99 5.7 59.12 0 0 34.91 1.75 36.65 58.66 7.7 110.85 39.53 113.12 37.61 71.91 9.21"/><path class="a" d="M117.2,39.45l1.18,6.64-5.53.63,2.68,12.48h-5.32L108.87,48l-4.09,1.5-1-4.07Z" transform="translate(-70.75 -23.1)"/><path class="a" d="M142.29,55.65l6,.11-.88,3.44H136.56l3.52-19.75,11,6-.73,2.85-7.05-2-.41,3.6h5.52L148,53.45l-5.32-1Z" transform="translate(-70.75 -23.1)"/><path class="a" d="M126.84,43.24H131l-.65-8.58,8.46,4.14-3.44,20.4h-4.24l-.18-11.76-4.12-.17-.59,11.93H122l-3.45-20.4,8.33-4.14Z" transform="translate(-70.75 -23.1)"/><path class="a" d="M127,76.26c-.14-1.38-6.05-.78-7-6.82-.58-3.84,1.3-8.42,6-8.44A8.38,8.38,0,0,1,133,64.6l-2,3.69s-1.79-1.5-3.39-1.34a.87.87,0,0,0-.84.92c.14,1.38,6.34,1.92,7,8a6.23,6.23,0,0,1-5.92,6.88A10.61,10.61,0,0,1,119.94,80a15.4,15.4,0,0,0,1.37-1.87,11.13,11.13,0,0,0,1-2.16,5.26,5.26,0,0,0,3.87,1.23A.86.86,0,0,0,127,76.26Z" transform="translate(-70.75 -23.1)"/><path class="a" d="M155.52,57.31l-5.33.46-6.31,25h6.49L151,79.2l2.51,0,.65,3.58h6.48S155.53,57.41,155.52,57.31Zm-1.38,14.42-1.68.09,0-7.25C153.81,64.7,154.13,68.51,154.14,71.73ZM152,64.63l0,7.2-1.57.08C150.53,68.85,150.83,65.18,152,64.63ZM150.6,76.16s-.11-1.73-.11-3.85l1.59-.08,0,3.93Zm1.89,0h0l0-4,1.67-.08c0,2.2-.13,4-.13,4Z" transform="translate(-70.75 -23.1)"/><path class="b" d="M105.09,66.21" transform="translate(-70.75 -23.1)"/><path class="a" d="M115.07,60.31c-5.21-.61-9.4,3.85-10.14,10.11s2.3,11.72,7.5,12.33,9.4-4,10.14-10.26S120.27,60.93,115.07,60.31Zm1,3.12a3.58,3.58,0,0,1,2.63,1.49c.11.23-.08.56-.36.47a6,6,0,0,1-1.22-.77c-.4-.27-.83-.5-1.21-.8C115.8,63.7,115.93,63.42,116.11,63.43Zm-1.34,5.89a2.2,2.2,0,0,1,3.82.44.34.34,0,0,1-.49.4,4.11,4.11,0,0,0-1.42-.6,4.17,4.17,0,0,0-1.52.26A.34.34,0,0,1,114.77,69.32Zm-5.18-5.48A3.58,3.58,0,0,1,112.5,63a.23.23,0,0,1,0,.41c-.44.21-.91.33-1.36.5a6.05,6.05,0,0,1-1.38.46C109.52,64.41,109.43,64,109.59,63.84Zm-.38,4.82a2.21,2.21,0,0,1,3.82.44.33.33,0,0,1-.48.41,4.38,4.38,0,0,0-1.43-.61,4.43,4.43,0,0,0-1.52.27A.34.34,0,0,1,109.21,68.66Zm3.42,9.49a5.64,5.64,0,0,1-4.95-6.26l11.21,1.32A5.64,5.64,0,0,1,112.63,78.15Z" transform="translate(-70.75 -23.1)"/><path class="a" d="M125.53,102.6l-2.47-7.11.55,7.11h-4.17l-3.38-16.74,6.87.39,4,6.09L130,86.45l7.68-1.58L135,102.6h-4.17V95.49l-1.92,7.11Z" transform="translate(-70.75 -23.1)"/><path class="a" d="M159.32,91.22l3.62-5.78,4.79-1-6.16,11.76-.41,6.36h-3.8l-.55-7.11-5.32-9.86,4.6,1Z" transform="translate(-70.75 -23.1)"/><path class="a" d="M108.56,85.34l-1.28,5.31H101v2.65h5.62l-.67,2.83H101l.12,6.47H97.08L94.6,84.46Z" transform="translate(-70.75 -23.1)"/><path class="a" d="M142.87,102.6h-4.08l-.6-14.23,5.29,1.29Z" transform="translate(-70.75 -23.1)"/><path class="a" d="M149.52,98.42l4.7-1-.65,5.13h-7.93l-.8-16.16L151,85.13Z" transform="translate(-70.75 -23.1)"/><path class="a" d="M114,85.59l-4-.15L105.7,102.6h4.85L111,100l1.87,0,.46,2.66h4.84Zm-.42,8.85-1.46.07,0-4.67C113.2,90,113.5,92.33,113.54,94.44Zm-1.93-4.53,0,4.62-1.31.07C110.37,92.61,110.64,90.34,111.61,89.91Zm-1.19,7.79s-.11-1.2-.1-2.66l1.32-.07,0,2.73Zm1.68,0,0-2.75,1.47-.07c0,1.53-.12,2.82-.12,2.82Z" transform="translate(-70.75 -23.1)"/><path class="a" d="M141.64,84.21c-1.56-.35-3,.32-3.28,1.67s.72,2.54,2.27,2.88,3-.32,3.28-1.67S143.19,84.55,141.64,84.21Zm-.26,1a1.75,1.75,0,0,1,1.28,1.18l-1.33,0ZM140.89,88a2.07,2.07,0,0,1-1.81-1.42l1.86.07Zm.07-1.72-1.87-.07a.17.17,0,0,1,0-.07A1.57,1.57,0,0,1,141,85.13Zm1.7.65a1.46,1.46,0,0,1-1.4,1.08l.06-1.34,1.37.05A.76.76,0,0,1,142.66,87Z" transform="translate(-70.75 -23.1)"/><path class="a" d="M141.47,64.09l-.07,2.51a.14.14,0,0,1,.09,0,3.77,3.77,0,0,1,2.57,1.16c.13.16,0,.48-.23.39a9.26,9.26,0,0,1-1.16-.62c-.41-.22-.85-.39-1.27-.62h0l0,1.86h.06a2.3,2.3,0,0,1,.45,0A2.52,2.52,0,0,1,144.08,70a1.2,1.2,0,0,1,.2,0,.71.71,0,0,0,.34-.13c.19-.15.44.08.27.26a1,1,0,0,1-.48.28.39.39,0,0,1-.16,0,1.42,1.42,0,0,1,.05.16l.23,0a.63.63,0,0,0,.35-.13c.18-.14.44.09.26.27a.94.94,0,0,1-.47.28.61.61,0,0,1-.3,0,2.28,2.28,0,0,1,0,.26,2.54,2.54,0,0,1-4.85,1,2.56,2.56,0,0,1-4.9-1,2.85,2.85,0,0,1,0-.29.65.65,0,0,1-.31,0,1,1,0,0,1-.47-.28c-.17-.18.08-.41.26-.27a.63.63,0,0,0,.35.13l.24,0a1.09,1.09,0,0,1,0-.17.44.44,0,0,1-.17,0,1,1,0,0,1-.48-.28c-.17-.18.08-.41.27-.26a.71.71,0,0,0,.35.13l.21,0a2.54,2.54,0,0,1,2.22-1.32l.36,0-.44-4.53L132,62.42l-.27,1.39s0,.28-.76.42a1.15,1.15,0,0,1-.86-.14l-1.59-2.86,4.61,21.52h5l-.44-7.46a2.5,2.5,0,0,1-.59-.58.19.19,0,0,1,.25-.25,6.44,6.44,0,0,0,1.83.83,5.17,5.17,0,0,0,2.07-.16.2.2,0,0,1,.15.37l-.11.06-.22,7.19H146l3.82-23Zm-7,3.88a3.78,3.78,0,0,1,2.58-1.16.17.17,0,0,1,.08.31c-.41.23-.85.4-1.27.62a8.61,8.61,0,0,1-1.16.62C134.45,68.45,134.34,68.13,134.47,68Z" transform="translate(-70.75 -23.1)"/><path class="a" d="M165.52,60.73l-1.93,2.84a3,3,0,0,1,1.69.86c.11.13,0,.38-.18.31a6.3,6.3,0,0,1-1-.49l-.77-.35-1.38,2a2.27,2.27,0,1,1-.77,2.78,2.31,2.31,0,1,1-1.05-2.92l-1.32-2a.17.17,0,0,1-.06.06c-.34.14-.7.23-1.05.36a9.2,9.2,0,0,1-1,.41.19.19,0,0,1-.18-.32,3.23,3.23,0,0,1,2.18-.72l-1-1.48-5.27-1.61,6.34,14.19.23,8h5l.26-8.25L172.2,59ZM161.4,74a3.34,3.34,0,0,1-3.34-3.34h6.68A3.35,3.35,0,0,1,161.4,74Z" transform="translate(-70.75 -23.1)"/><path class="a" d="M100.65,63a3.75,3.75,0,0,1-3.08,1.61,3.85,3.85,0,0,1-.76-.09l-2.45,4.82a.19.19,0,0,1-.37,0l-2.43-4.77a3.58,3.58,0,0,1-.87.11,3.76,3.76,0,0,1-3.3-2l-7.87-3.09,3.17,23.09h6.16V74.86l2.84,7.89h5l2.84-7.89v7.89h5.62l3.54-22.51Zm-4.28,9.24a5.31,5.31,0,0,1-5.21.71,4.45,4.45,0,0,1-2.73-3.59c0-.35.45-.35.56-.08a4.68,4.68,0,0,0,2.57,2.88,4.08,4.08,0,0,0,2.19.19A14.81,14.81,0,0,0,96,71.62.4.4,0,0,1,96.37,72.28Z" transform="translate(-70.75 -23.1)"/><path class="a" d="M171.57,62.39s-2.21.6-1.77-1.26,2.21-1,2.19-2.51a2.6,2.6,0,0,1-.57,2.5C170.38,62,171.57,62.39,171.57,62.39Z" transform="translate(-70.75 -23.1)"/><path class="a" d="M171.12,73.09h0Z" transform="translate(-70.75 -23.1)"/><path class="a" d="M170.13,77.42a.52.52,0,0,0,.09.29.48.48,0,0,0,.38.2h.57a.47.47,0,0,0,.39-.18.48.48,0,0,0,.1-.28,2.43,2.43,0,0,1-.77.12A2.4,2.4,0,0,1,170.13,77.42Z" transform="translate(-70.75 -23.1)"/><path class="a" d="M173.41,63l-4.12-1.82-6.19,21.6h6.08l.59-3.31h0l2.34,0h0l.62,3.34h6C178.71,82.56,173.59,63.65,173.41,63Zm-.34,11.36H173a2.4,2.4,0,0,1,.24.83,1.79,1.79,0,0,1,0,.49,2.31,2.31,0,0,1-1,1.61,1,1,0,0,1-.19.79,1,1,0,0,1-.78.36l-.56,0a.95.95,0,0,1-.91-1.19,2.29,2.29,0,0,1-1-1.66,1.69,1.69,0,0,1,0-.48,2.72,2.72,0,0,1,.22-.7,2.14,2.14,0,1,1,2.18-3,2.13,2.13,0,1,1,2,3Z" transform="translate(-70.75 -23.1)"/><path class="a" d="M81.31,112.35h-1.8v-.65H83.9v.65H82.09v5.28h-.78Z" transform="translate(-70.75 -23.1)"/><path class="a" d="M86.2,111.7v2.48h2.86V111.7h.78v5.93h-.78v-2.78H86.2v2.78h-.77V111.7Z" transform="translate(-70.75 -23.1)"/><path class="a" d="M95.11,114.85h-2.3V117h2.56v.64H92V111.7h3.2v.64H92.81v1.88h2.3Z" transform="translate(-70.75 -23.1)"/><path class="a" d="M105,115c0-.83-.1-1.82-.09-2.56h0c-.2.69-.44,1.43-.74,2.25l-1.05,2.87h-.58l-1-2.82c-.28-.83-.52-1.6-.68-2.3h0c0,.74-.06,1.73-.11,2.62l-.16,2.54h-.73l.41-5.93h1l1,2.87c.24.73.45,1.38.59,2h0c.15-.59.36-1.24.63-2l1-2.87h1l.36,5.93h-.74Z" transform="translate(-70.75 -23.1)"/><path class="a" d="M113,114.6c0,2-1.24,3.12-2.75,3.12a2.71,2.71,0,0,1-2.66-3,2.81,2.81,0,0,1,2.75-3.11A2.69,2.69,0,0,1,113,114.6Zm-4.59.1c0,1.27.68,2.4,1.89,2.4s1.89-1.12,1.89-2.46c0-1.18-.61-2.41-1.89-2.41S108.4,113.4,108.4,114.7Z" transform="translate(-70.75 -23.1)"/><path class="a" d="M114.76,116.7a2.7,2.7,0,0,0,1.37.38c.78,0,1.24-.41,1.24-1s-.32-.87-1.12-1.18c-1-.34-1.56-.84-1.56-1.68a1.7,1.7,0,0,1,1.91-1.6,2.67,2.67,0,0,1,1.31.29l-.21.62a2.41,2.41,0,0,0-1.12-.28c-.81,0-1.12.48-1.12.89s.36.82,1.18,1.14c1,.39,1.51.87,1.51,1.74s-.68,1.7-2.07,1.7a3.09,3.09,0,0,1-1.52-.37Z" transform="translate(-70.75 -23.1)"/><path class="a" d="M120.84,111.7v2.48h2.86V111.7h.78v5.93h-.78v-2.78h-2.86v2.78h-.77V111.7Z" transform="translate(-70.75 -23.1)"/><path class="a" d="M127.64,115.76l-.61,1.87h-.8l2-5.93h.92l2,5.93h-.81l-.64-1.87Zm1.94-.59-.58-1.71c-.13-.39-.22-.74-.3-1.08h0c-.09.35-.19.71-.3,1.07l-.58,1.72Z" transform="translate(-70.75 -23.1)"/><path class="a" d="M133.56,117.63v-2.52l-1.87-3.41h.87l.84,1.64c.22.45.4.81.59,1.22h0c.17-.39.37-.77.6-1.22l.85-1.64h.87l-2,3.4v2.53Z" transform="translate(-70.75 -23.1)"/><path class="a" d="M138.12,115.76l-.61,1.87h-.79l2-5.93h.92l2,5.93h-.82l-.63-1.87Zm1.95-.59-.58-1.71c-.13-.39-.22-.74-.31-1.08h0c-.09.35-.18.71-.3,1.07l-.58,1.72Z" transform="translate(-70.75 -23.1)"/><path class="a" d="M146.17,111.7h3.19v.64h-2.43v2h2.24V115h-2.24v2.68h-.76Z" transform="translate(-70.75 -23.1)"/><path class="a" d="M151.6,115.76l-.62,1.87h-.79l2-5.93h.93l2,5.93h-.82l-.63-1.87Zm1.94-.59-.58-1.71c-.13-.39-.22-.74-.31-1.08h0c-.08.35-.18.71-.3,1.07l-.58,1.72Z" transform="translate(-70.75 -23.1)"/><path class="a" d="M161.85,115c0-.83-.09-1.82-.09-2.56h0c-.2.69-.45,1.43-.75,2.25l-1,2.87h-.58l-1-2.82c-.28-.83-.52-1.6-.69-2.3h0c0,.74-.06,1.73-.11,2.62l-.16,2.54h-.73l.42-5.93h1l1,2.87c.25.73.45,1.38.6,2h0c.15-.59.36-1.24.62-2l1.05-2.87h1l.37,5.93H162Z" transform="translate(-70.75 -23.1)"/><path class="a" d="M165.57,111.7v5.93h-.77V111.7Z" transform="translate(-70.75 -23.1)"/><path class="a" d="M167.78,111.7h.77V117h2.53v.64h-3.3Z" transform="translate(-70.75 -23.1)"/><path class="a" d="M173.39,117.63v-2.52l-1.87-3.41h.87l.83,1.64c.23.45.41.81.59,1.22h0c.17-.39.37-.77.6-1.22l.85-1.64h.87l-2,3.4v2.53Z" transform="translate(-70.75 -23.1)"/></svg>