<svg xmlns="http://www.w3.org/2000/svg" viewBox="0 0 236.47 66.22"><defs><style>.cls-1{fill:#ffd800;}.cls-2{fill:#231f20;}</style></defs><g id="Layer_2" data-name="Layer 2"><g id="Layer_1-2" data-name="Layer 1"><path class="cls-1" d="M0,66.22V0H46.22V66.22Zm39.53-6.67V6.67H6.66V59.55Z"/><path class="cls-2" d="M76.92,29.71H74.05c-3.75-5.3-7.47-10.57-11.19-16.53h0V29.71H59.66v-23h2.87c3.75,5.26,7.47,10.5,11.16,16.43h.07V6.66h3.16Z"/><path class="cls-2" d="M84.43,20.59c.92-3,1.84-5.83,2.67-9.39h.06c.92,3.56,1.74,6.36,2.6,9.39ZM85.94,6.66,78,29.71h3.42l2-6.29h6.95l1.81,6.29h4.42l-7.35-23Z"/><path class="cls-2" d="M100.3,29.71v-20H94.24V6.66h16.07V9.75h-6.07v20Z"/><path class="cls-2" d="M111.59,29.71v-23h3.92V29.71Z"/><path class="cls-2" d="M127.69,26.81c-4.11,0-5.56-4.55-5.56-8.95s1.64-8.31,5.56-8.31,5.56,4,5.56,8.31S131.8,26.81,127.69,26.81Zm0,3.29c6,0,9.78-5.37,9.78-12.24,0-6.46-4.15-11.59-9.78-11.59s-9.78,5.13-9.78,11.59C117.91,24.73,121.66,30.1,127.69,30.1Z"/><path class="cls-2" d="M157.13,29.71h-2.86c-3.76-5.3-7.48-10.57-11.2-16.53h0V29.71h-3.16v-23h2.86c3.75,5.26,7.48,10.5,11.16,16.43H154V6.66h3.16Z"/><path class="cls-2" d="M164.64,20.59c.92-3,1.84-5.83,2.66-9.39h.07c.92,3.56,1.74,6.36,2.6,9.39Zm1.51-13.93-8,23.05h3.43l2-6.29h6.94l1.82,6.29h4.41l-7.35-23Z"/><path class="cls-2" d="M177.94,6.66h3.92v20h7.8v3.1H177.94Z"/><path class="cls-2" d="M74.49,49v9.52a18.26,18.26,0,0,1-6.56,1.41c-6.78,0-11.06-5.26-11.06-12.05,0-6.29,4.28-11.79,11.2-11.79a9.84,9.84,0,0,1,5.59,1.78L72.38,40.6a8.54,8.54,0,0,0-4.22-1.22c-4.21,0-7.08,3.32-7.08,8.55,0,5.47,3.3,8.7,6.69,8.7a5.8,5.8,0,0,0,2.77-.56V49Z"/><path class="cls-2" d="M88.61,39.58H82V45.9h6.45V49H82v7.44H89.8v3.1H78.07V36.48H88.61Z"/><path class="cls-2" d="M100.79,56.63c-4.11,0-5.56-4.54-5.56-9,0-4.24,1.65-8.29,5.56-8.29s5.57,4,5.57,8.29C106.36,52.09,104.91,56.63,100.79,56.63Zm0,3.29c6,0,9.78-5.36,9.78-12.25,0-6.45-4.15-11.59-9.78-11.59S91,41.22,91,47.67C91,54.56,94.77,59.92,100.79,59.92Z"/><path class="cls-2" d="M129.54,49v9.52A18.16,18.16,0,0,1,123,59.92c-6.79,0-11.07-5.26-11.07-12.05,0-6.29,4.28-11.79,11.2-11.79a9.85,9.85,0,0,1,5.6,1.78l-1.28,2.74a8.6,8.6,0,0,0-4.22-1.22c-4.22,0-7.08,3.32-7.08,8.55,0,5.47,3.29,8.7,6.69,8.7a5.74,5.74,0,0,0,2.76-.56V49Z"/><path class="cls-2" d="M137.11,39.58h1.75c2.34,0,3.65,1.34,3.65,3.72,0,3.09-1.87,4.47-3.75,4.57-.4,0-1.32.06-1.65.1Zm10,20L142.48,50a7.75,7.75,0,0,0,4-6.85c0-4.48-2.74-6.65-7.15-6.65h-6.16V59.53h4V50.84h1.78l3.72,8.69Z"/><path class="cls-2" d="M153.64,50.41c.93-3,1.85-5.83,2.67-9.39h.07c.92,3.56,1.74,6.36,2.6,9.39Zm1.52-13.93-8,23.05h3.43l2-6.29h6.95l1.81,6.29h4.41l-7.34-23.05Z"/><path class="cls-2" d="M173.2,36.48h-6.15V59.53H171V50.84h1.78a7.54,7.54,0,0,0,7.57-7.71C180.35,38.65,177.62,36.48,173.2,36.48Zm-.56,11.39c-.4,0-1.37.06-1.64.09V39.58h1.78c2.3,0,3.62,1.34,3.62,3.72C176.4,46.39,174.52,47.77,172.64,47.87Z"/><path class="cls-2" d="M198.66,59.53h-3.95V48.43h-8.2v11.1h-3.92V36.48h3.92v8.85h8.2V36.54h3.95Z"/><path class="cls-2" d="M202.44,59.53V36.48h3.92V59.53Z"/><path class="cls-2" d="M224.14,40.66a8.19,8.19,0,0,0-4-1.28c-4,0-7,3.32-7,8.55,0,5.47,3.23,8.7,7.05,8.7a7.42,7.42,0,0,0,3.95-1.15l1.09,2.86a10,10,0,0,1-5.2,1.58c-6.79,0-11.07-5.26-11.07-12.05,0-6.29,4.25-11.79,11.13-11.79a9.7,9.7,0,0,1,5.3,1.78Z"/><path class="cls-2" d="M227.32,36.52h3.93v.58h-1.64v4.25H229V37.1h-1.64Z"/><path class="cls-2" d="M235.83,41.35V38.5c0-.14,0-.75,0-1.21h0l-1.36,4.06h-.65l-1.36-4.05h0v4.05h-.63V36.52h.94l1.38,4.09h0l1.38-4.09h.93v4.83Z"/></g></g></svg>