<svg xmlns="http://www.w3.org/2000/svg" viewBox="0 0 249.81 94.95"><defs><style>.cls-1{fill:#fff;}</style></defs><g id="Layer_2" data-name="Layer 2"><g id="Layer_1-2" data-name="Layer 1"><g id="kFI9MQ.tif"><path class="cls-1" d="M80.28,94.81a3.06,3.06,0,0,1-.63.12c-3.45.35-5-4.14-7.36-6.63-3.1-3.21-8.18-3.13-12.63-2.83L6.21,89.15c-2.32.16-5.3-.08-6-2.28-.82-2.38,1.73-4.39,3.39-6.27a21.21,21.21,0,0,0,3.56-6.75L34.38,2.68A5.67,5.67,0,0,1,35.91.16c1.57-1.24,6.94,4.89,8.36,6.31,9.2,9.2,7.93,8,23,8,3.65,0,7.33.74,11,.35,2.84-.3,5.24-2.39,7.82-3.54q4.79-2.12,9.74-3.8a132.18,132.18,0,0,1,21.85-5.16c-.38,3-5.39,17.07-6.85,17.67,4.41-1.81,9.3-1.89,14.06-1.94,30.7-.31,61.41-.63,92.1.24,10.05.28,21.27,1.22,27.92,8.76,6.31,7.14,6.17,18.38,1.78,26.84-2.9,5.58-7.38,10.26-9.72,16.15-1.41,3.55-2.49,3.55-6.29,4.79l-11.77,3.84L173,93.61c1.43-1.07,1.1-3.48-.2-4.71s-3.18-1.58-4.94-1.86c-27-4.27-54.48-3.37-81.78-2.46C83.46,87.65,83.86,93.8,80.28,94.81Zm-8.69-49c-.81-.89-1.55-1.69-2.27-2.5s-1.41-1.55-2.1-2.33c-1.49-1.68-3-3.37-4.46-5-.77-.87-1.57-1.72-2.34-2.59-1.5-1.67-3-3.36-4.47-5-.77-.86-1.57-1.71-2.35-2.58-1.43-1.62-2.86-3.26-4.3-4.88-.81-.91-1.65-1.8-2.47-2.71l-4.66-5.25c-.79-.88-1.55-1.79-2.33-2.67C39.26,9.58,38.66,9,38,8.28a1.71,1.71,0,0,0-.17.31c-.89,2.29-19.27,50-26.62,69,1-.11,1.93-.2,2.82-.32,1.91-.26,3.8-.55,5.71-.81,1.58-.21,3.17-.39,4.75-.6,1.74-.22,3.47-.43,5.2-.71.46-.08,1.09.11,1.32-.65.32-1,.77-2,1.16-3.05q1.68-4.32,3.35-8.66l3.59-9.3c.94-2.45,1.9-4.88,2.84-7.32.57-1.46,1.12-2.92,1.69-4.42l1.57,1.75c.77.84,1.54,1.68,2.31,2.54l4.75,5.33c.68.77,1.38,1.52,2.06,2.29l4.25,4.84c1.15,1.28,2.33,2.54,3.48,3.83C63.54,64,65,65.65,66.43,67.28c.93,1.06,1.87,2.12,2.81,3.17l5.46,6c.7.77,1.4,1.55,2.09,2.33.15.17.27.35.46.59,9.07-23.53,18.11-46.95,27.18-70.48a4,4,0,0,0-.56.07c-.81.21-1.62.45-2.44.64a38.75,38.75,0,0,0-10.65,4,29.24,29.24,0,0,0-7.65,6.08,21.5,21.5,0,0,0-3.92,6.65C78.12,29.28,77,32.15,75.84,35s-2.21,5.67-3.31,8.5C72.23,44.27,71.92,45,71.59,45.81ZM163.14,33.7l-.16-.08,4.37-11.41c-.48,0-.87-.11-1.25-.11-1.41,0-18.15.15-18.95.8-.12.1-.22.21-.35.3l-10.44,7.27-4.91,3.41c.5-1.3,1-2.49,1.41-3.67.79-2,1.57-4.06,2.37-6.09.25-.64.53-1.27.79-1.88-.4-.23-.66-.4-.93-.53a11.41,11.41,0,0,0-7.22-.6,18.41,18.41,0,0,0-2.93,1c-.11,0-.2.23-.26.36s-.16.47-.24.7c-1,2.65-2,5.29-3,7.93l-3.15,8.18L115,47.8c-1.06,2.74-2.13,5.49-3.18,8.23-.81,2.11-1.72,4.17-1.41,6.54a7.91,7.91,0,0,0,2.81,5.13,2.08,2.08,0,0,0,1.67.6c1.11-.13,2.23-.2,3.4-.29l6.27-16.23c1.8,2.74,3.52,5.37,5.25,8q2.38,3.6,4.82,7.15a.92.92,0,0,0,.69.3c1.81,0,3.62-.07,5.43-.1l7.49-.13a1.48,1.48,0,0,0,.24,0,4.18,4.18,0,0,0-.19-.41c-1.27-1.94-2.53-3.88-3.81-5.81L138,50.93c-1.6-2.41-3.19-4.83-4.8-7.23-.2-.31-.25-.42.1-.67,1.85-1.28,3.65-2.61,5.49-3.9q5.81-4.08,11.64-8.13l3.39-2.39-2.36,6.18c-1.11,2.87-2.22,5.75-3.32,8.62q-1.91,4.92-3.8,9.85a5.23,5.23,0,0,0-.68,1.92,4.54,4.54,0,0,0,1,1.76c2,3,3.94,5.89,6,8.91l5.41-14,.36.52q4.78,7.17,9.59,14.32a.73.73,0,0,0,.46.32c.68.08,1.35.11,2,.13,1.81,0,3.62.08,5.44.12l5.84.12c.17,0,.35.06.53.08a1.23,1.23,0,0,0-.08-.25c-.88-1.36-1.76-2.73-2.66-4.09q-4.38-6.62-8.77-13.21c-1.36-2-2.73-4.07-4.1-6.11-.21-.3-.27-.54.11-.8,2.79-1.95,5.56-3.91,8.34-5.86L181.72,31l11.5-8c.33-.24.64-.5,1-.77a1.06,1.06,0,0,0-.19,0H180a1.3,1.3,0,0,0-.68.24c-2.86,2-5.7,4-8.55,5.95Zm52.48-12.79c-.49,0-1,0-1.44,0a50.84,50.84,0,0,0-23.06,8c-1.78,1.19-3.45,2.57-5.12,3.92a31.49,31.49,0,0,0-5,5.22,25.37,25.37,0,0,0-3.83,6.71,20.18,20.18,0,0,0-1.39,6.31,17,17,0,0,0,.34,4.09,14.83,14.83,0,0,0,3.65,7.19A18,18,0,0,0,184.37,66a21.33,21.33,0,0,0,3.56,1.58,19.78,19.78,0,0,0,4.15.49c3,.26,5.94.47,8.92.58a32.25,32.25,0,0,0,6.59-.27A36.42,36.42,0,0,0,214,66.43a45.29,45.29,0,0,0,9.73-4.9c1.83-1.24,3.53-2.67,5.25-4.06a31,31,0,0,0,4.77-5.07,28,28,0,0,0,3.7-6.34,18.06,18.06,0,0,0,1.52-6.45,20.1,20.1,0,0,0-.33-4.09C236.91,25.22,225,20.9,215.62,20.91ZM85.12,79.78c.32,0,.51,0,.7,0,15.17-.67,30.36-1,45.55-.59,14.52.34,29.66.56,43.8,4.19a9,9,0,0,1,3.07,1.24c1.07.77,1.15,2.63,2.2,3.17s4.45-.72,5.54-1.11c32.69-11.77,37.65-12.44,37.66-12.5-.46-.09-.91-.2-1.37-.26-36.22-4.55-72.67-4.7-109.07-2.52Q103,72,92.76,73c-1.4.14-2.8.25-4.21.36-.74.06-1.32.26-1.4,1.14a3.67,3.67,0,0,1-.3.75Zm5.5-11c3.61,0,7.14,0,10.68,0a.6.6,0,0,0,.45-.3c.42-1,.8-2,1.18-2.93,1.25-3.23,18.24-45.3,18.24-45.3-3.18,0-7.76,1.52-10,3.64A32.17,32.17,0,0,0,106,29.59c-2.47,3.79-3.7,8.63-5.3,12.83q-4.41,11.52-8.86,23C91.44,66.53,91,67.63,90.62,68.76ZM70.47,38.46,78.39,18c-.36,0-.57,0-.78,0-1.36-.06-19.35,0-19.62,0-1.74,0-3.48,0-5.22,0H52.2c.06.15.06.2.09.22,1.49,1.66,3,3.3,4.47,5s2.86,3.27,4.31,4.88c1.9,2.12,3.83,4.22,5.74,6.33.44.49.84,1,1.28,1.49C68.85,36.7,69.63,37.54,70.47,38.46ZM22.64,83.69l0,.12c.51,0,1-.11,1.54-.15l5.66-.48,5.89-.46c1.56-.13,3.12-.25,4.68-.35L46.11,82,48,81.89l5.89-.46q1.74-.14,3.48-.24l6.15-.35c1.08-.06,2.17-.07,3.26-.13.37,0,.73-.11,1.13-.17L66.73,79.2a23.88,23.88,0,0,1-2-2.28,1.18,1.18,0,0,0-1.33-.53c-1.73.25-3.45.54-5.17.8-1.92.29-3.85.53-5.76.84-2.71.44-5.4.93-8.1,1.4s-5.41.91-8.11,1.42c-3.12.59-6.23,1.23-9.34,1.87C25.49,83,24.07,83.36,22.64,83.69ZM231,66.21v5.2h1V67.83c.33,1.07.58,2.14.8,3.21a.47.47,0,0,0,.57.42c.28,0,.44,0,.51-.39.21-1.09.48-2.16.73-3.24l.09,0v3.57h1V66.19h-1.6c-.24,1.14-.48,2.28-.75,3.52-.2-.82-.38-1.52-.54-2.23-.31-1.36-.3-1.36-1.7-1.3Zm-.47.9v-.89h-3.41v.91h1.16v4.28h1.16v-4.3Z"/><path class="cls-1" d="M202.26,58A15.94,15.94,0,0,1,195,56.35a8,8,0,0,1-4.62-6.15,9.36,9.36,0,0,1,.65-4.88,16.36,16.36,0,0,1,4.24-5.91,26.69,26.69,0,0,1,12.18-6.3,20.6,20.6,0,0,1,6.1-.58,13.85,13.85,0,0,1,7.5,2.43,7.71,7.71,0,0,1,3.34,6.19,11.3,11.3,0,0,1-2.59,7.24,23,23,0,0,1-7.26,6.18,28.25,28.25,0,0,1-8.89,3.14C204.55,57.91,203.4,57.93,202.26,58Z"/></g></g></g></svg>