<svg xmlns="http://www.w3.org/2000/svg" xmlns:xlink="http://www.w3.org/1999/xlink" viewBox="0 0 215.67 215.67"><defs><style>.cls-1{fill:none;}.cls-2{clip-path:url(#clip-path);}.cls-3{fill:#98a439;}.cls-4{fill:#fff;}.cls-5{fill:#118978;}.cls-6{fill:#d2157b;}</style><clipPath id="clip-path" transform="translate(-14.64 -14.65)"><rect class="cls-1" width="244.96" height="243.39"/></clipPath></defs><g id="Layer_2" data-name="Layer 2"><g id="Layer_1-2" data-name="Layer 1"><g class="cls-2"><path class="cls-3" d="M210.81,60.63A107.83,107.83,0,1,1,60.63,34.16,107.85,107.85,0,0,1,210.81,60.63" transform="translate(-14.64 -14.65)"/><path class="cls-4" d="M122.39,18.79A103.69,103.69,0,1,1,63,37.56a103.58,103.58,0,0,1,59.39-18.77m0-1.78h0a105.48,105.48,0,0,0,.18,211A105.48,105.48,0,0,0,122.4,17" transform="translate(-14.64 -14.65)"/><path class="cls-4" d="M166.9,111.27A12.65,12.65,0,1,0,149.47,108a12.53,12.53,0,0,0,17.43,3.23m5,28.67a5.38,5.38,0,0,1-8.82,6.18l-22.39-32a23.1,23.1,0,1,1,32.41,6,22.67,22.67,0,0,1-12.18,4.1l11,15.67" transform="translate(-14.64 -14.65)"/><path class="cls-4" d="M204.48,97.78A14.26,14.26,0,1,1,189,73.85a3.54,3.54,0,1,0-5.48-2.79A5.39,5.39,0,0,1,181,75.85a5.53,5.53,0,0,1-2.64.85,5.38,5.38,0,0,1-5.63-5.07,14.26,14.26,0,1,1,22,11.22,3.55,3.55,0,0,0,3.87,6,3.53,3.53,0,0,0,1.61-3.16A5.38,5.38,0,0,1,205.33,80,5.39,5.39,0,0,1,211,85.07a14.12,14.12,0,0,1-6.48,12.71" transform="translate(-14.64 -14.65)"/><path class="cls-5" d="M137.34,128.85a17.59,17.59,0,1,1-17.59-17.58,17.6,17.6,0,0,1,17.59,17.58" transform="translate(-14.64 -14.65)"/><path class="cls-6" d="M88.71,154A22.08,22.08,0,1,1,66.63,132,22.08,22.08,0,0,1,88.71,154" transform="translate(-14.64 -14.65)"/><path class="cls-4" d="M100.84,142.1a23.09,23.09,0,1,1,32.4,6,23.3,23.3,0,0,1-32.4-6M127,139.21A12.65,12.65,0,1,0,109.57,136,12.53,12.53,0,0,0,127,139.21" transform="translate(-14.64 -14.65)"/><path class="cls-4" d="M97.28,167.18A33.34,33.34,0,1,1,79.77,123.4a33.34,33.34,0,0,1,17.51,43.78M81.75,143.46a18.45,18.45,0,1,0-4.53,25.7,18.46,18.46,0,0,0,4.53-25.7" transform="translate(-14.64 -14.65)"/></g></g></g></svg>