<svg xmlns="http://www.w3.org/2000/svg" viewBox="0 0 215.67 215.67"><defs><style>.cls-1{fill:none;}.cls-2{fill:#fff;}.cls-3{fill:#d2157b;}</style></defs><g id="Layer_2" data-name="Layer 2"><g id="Layer_1-2" data-name="Layer 1"><path class="cls-1" d="M169.68,196.16A107.83,107.83,0,1,1,196.16,46,107.83,107.83,0,0,1,169.68,196.16Z"/><path class="cls-2" d="M107.74,4.15a103.68,103.68,0,1,0,85,44.21A103.16,103.16,0,0,0,107.74,4.15ZM82.64,152.53a33.35,33.35,0,1,1-17.51-43.78A33.34,33.34,0,0,1,82.64,152.53Zm36-19.07A23.51,23.51,0,1,1,124,101,23.3,23.3,0,0,1,118.6,133.46Zm39.89-27.94a22.69,22.69,0,0,1-12.18,4.11l11,15.66a5.38,5.38,0,0,1-8.82,6.18L126.09,99.52a23.1,23.1,0,1,1,32.4,6Zm37.82-35.09a14.26,14.26,0,1,1-22-11.22,3.54,3.54,0,0,0-.32-6.14,3.56,3.56,0,0,0-5.15,3.35,5.4,5.4,0,0,1-2.44,4.78,5.46,5.46,0,0,1-2.63.85A5.36,5.36,0,0,1,158.13,57a14.26,14.26,0,1,1,22,11.22,3.55,3.55,0,0,0,3.86,6A3.53,3.53,0,0,0,185.62,71a5.33,5.33,0,0,1,2.44-4.78,5.4,5.4,0,0,1,2.63-.86,5.37,5.37,0,0,1,5.62,5.08Z"/><path class="cls-2" d="M137.75,75.91a12.65,12.65,0,1,0,17.42,3.24A12.53,12.53,0,0,0,137.75,75.91Z"/><path class="cls-2" d="M46,19.51A107.83,107.83,0,1,0,196.16,46,107.85,107.85,0,0,0,46,19.51ZM168.33,194.22A105.46,105.46,0,0,1,4,89.53,105.48,105.48,0,0,1,107.74,2.36h0a105.47,105.47,0,0,1,60.57,191.86Z"/><path class="cls-2" d="M97.86,103.85a12.64,12.64,0,1,0,17.42,3.23A12.54,12.54,0,0,0,97.86,103.85Z"/><path class="cls-3" d="M41.41,124.28a18.45,18.45,0,1,0,25.7,4.53A18.45,18.45,0,0,0,41.41,124.28Z"/><path class="cls-2" d="M62.58,154.51a18.45,18.45,0,1,1,4.53-25.7A18.46,18.46,0,0,1,62.58,154.51Z"/></g></g></svg>