<svg xmlns="http://www.w3.org/2000/svg" viewBox="0 0 256.39 118.99"><defs><style>.cls-1{fill:#fff;}</style></defs><g id="Layer_2" data-name="Layer 2"><g id="Layer_1-2" data-name="Layer 1"><path class="cls-1" d="M81.13,67.5a16.7,16.7,0,1,0-16.65,17,16.91,16.91,0,0,0,16.65-17m-5.61.09a11,11,0,1,1-22,0,11.26,11.26,0,0,1,11-11.31,11.06,11.06,0,0,1,3,.46,5.48,5.48,0,0,0-1.26,3.4,5.37,5.37,0,0,0,5.33,5.34A4.92,4.92,0,0,0,75,64.19a10.8,10.8,0,0,1,.54,3.4"/><path class="cls-1" d="M124,82.69V76.61a6.48,6.48,0,0,1-4.71,1.84c-2.71,0-4.34-1.93-4.34-4.6V51.21h-6.51V70.36c0,.36-.45,1.84-.54,2.3-1.18,3.21-3.8,6.07-7.42,6.07-4.62,0-7-3.22-7-7.64V51.21H87V71.65c0,7.26,4.7,13,12.12,13a10.62,10.62,0,0,0,9.77-6.72,8.82,8.82,0,0,0,8.42,6.63A11.71,11.71,0,0,0,124,82.69m29.5-26.78A5.51,5.51,0,0,0,148,50.39c-4.08,0-7.42,2.85-9.32,6.44V51.21h-6.52V85.77h6.52V65.66A10.83,10.83,0,0,1,139,64a9.25,9.25,0,0,1,4.8-6,4.48,4.48,0,0,0,4.43,3.21,5.3,5.3,0,0,0,5.25-5.33"/><path class="cls-1" d="M22.17,109.47V84.18H18v3.58a8.8,8.8,0,0,0-7.61-4.11C4.33,83.65,0,88.71,0,94.72s4.33,11,10.35,11a8.88,8.88,0,0,0,7.61-4v7.79a6.07,6.07,0,0,1-4.68,5.83L14.74,119c4.45-.47,7.43-5.23,7.43-9.52M18,96.32a8.36,8.36,0,0,1-.41,1.31A7,7,0,0,1,11.17,102a7.3,7.3,0,0,1,0-14.58,7.1,7.1,0,0,1,6.38,4.34A11,11,0,0,1,18,93.05Zm29.64-8A10.73,10.73,0,0,0,28,94.6a11.05,11.05,0,0,0,11.41,11.13,14,14,0,0,0,6.38-1.38v-4.28A10.24,10.24,0,0,1,39.41,102a7.3,7.3,0,0,1-4.1-1.25c4.1-4.11,8.2-8.27,12.29-12.38m-5.32.47c-3.16,3.16-6.2,6.43-9.3,9.59a6.68,6.68,0,0,1-1.11-3.81c0-3.87,2.69-7.14,6.6-7.14a6,6,0,0,1,3.81,1.36m36.27,15.71v-3.92a4.17,4.17,0,0,1-3,1.19,2.74,2.74,0,0,1-2.87-3V92c0-4.76-3-8.33-7.84-8.33a6.76,6.76,0,0,0-6,3.63v-3.1H54.62v21h4.22c0-4.11-.06-8.27,0-12.38a7.55,7.55,0,0,1,.23-1.13c.7-2.26,2.46-4.34,4.91-4.34,3,0,4.51,2.08,4.51,5v6.91c0,3.39,2.16,6.49,5.73,6.49a7.52,7.52,0,0,0,4.33-1.2m22.82-16.18a10.88,10.88,0,1,0-8.19,17.38,14,14,0,0,0,6.37-1.38v-4.28A10.19,10.19,0,0,1,93.18,102a7.25,7.25,0,0,1-4.1-1.25c4.1-4.11,8.19-8.27,12.29-12.38m-5.32.47c-3.16,3.16-6.2,6.43-9.31,9.59a6.76,6.76,0,0,1-1.11-3.81c0-3.87,2.69-7.14,6.61-7.14a6,6,0,0,1,3.81,1.36m26.14-1.6a3.56,3.56,0,0,0-3.57-3.57c-2.63,0-4.79,1.84-6,4.16V84.18h-4.21v21h4.21V93.53a7.84,7.84,0,0,1,.23-1.07,6,6,0,0,1,3.1-3.87,2.9,2.9,0,0,0,2.87,2.08,3.42,3.42,0,0,0,3.39-3.45M154,104.53v-3.92a4.26,4.26,0,0,1-3,1.24,2.77,2.77,0,0,1-2.81-3V84.18H144v3.46a8.81,8.81,0,0,0-7.55-4c-6,0-10.35,5.06-10.35,11.07s4.32,11,10.35,11a8.94,8.94,0,0,0,7.84-4.41,5.64,5.64,0,0,0,5.44,4.46,7.59,7.59,0,0,0,4.33-1.25m-10.06-8a5.73,5.73,0,0,1-.47,1.31,7,7,0,0,1-6.26,4.11,7.3,7.3,0,0,1,0-14.58,6.92,6.92,0,0,1,6.26,4.16,4.48,4.48,0,0,1,.47,1.25Zm28.37-8.27V84.18H166V72.34h-4.21V84.18h-6.55v4.11h6.55V98.64c0,4.11,2.23,7.09,6.38,7.09a6.57,6.57,0,0,0,4.09-1.2v-3.92a5.11,5.11,0,0,1-3.27,1.24c-2.11,0-3-1.66-3-3.62V88.29Z"/><path class="cls-1" d="M210.62,26.73a1.45,1.45,0,1,0-1.43-1.45,1.43,1.43,0,0,0,1.43,1.45"/><path class="cls-1" d="M190.79,104.53v-3.92a4.23,4.23,0,0,1-3,1.19,2.76,2.76,0,0,1-2.81-3V84.18h-4.21V99.24c0,3.39,2.22,6.48,5.73,6.48a7.34,7.34,0,0,0,4.34-1.19"/><path class="cls-1" d="M249.27,104.53v-3.92a4.21,4.21,0,0,1-3,1.19,2.74,2.74,0,0,1-2.87-3V92c0-4.76-3-8.33-7.84-8.33a6.79,6.79,0,0,0-6,3.63v-3.1h-4.21v21h4.21c0-4.11,0-8.27,0-12.38a7.59,7.59,0,0,1,.24-1.13c.7-2.26,2.46-4.34,4.91-4.34,3,0,4.51,2.08,4.51,5v6.9c0,3.39,2.16,6.48,5.73,6.48a7.56,7.56,0,0,0,4.34-1.19"/><path class="cls-1" d="M254.62,103.9a1.8,1.8,0,1,1,1.77-1.79,1.78,1.78,0,0,1-1.77,1.79m0-3.38a1.58,1.58,0,0,0,0,3.16,1.58,1.58,0,0,0,0-3.16m.41,1.83.36.74H255l-.33-.7h-.4v.69h-.39v-2h1a.65.65,0,0,1,.69.65.6.6,0,0,1-.46.6m-.28-.92h-.51v.64h.51a.32.32,0,0,0,.36-.32.33.33,0,0,0-.36-.32"/><path class="cls-1" d="M252.33,37.67A18.48,18.48,0,0,0,242,26.23a14.78,14.78,0,0,0-12.28-.31A16.22,16.22,0,0,0,226,28.2a16.35,16.35,0,0,0,1.11-12.54C225.35,9.9,220.66,4.81,214.53,2A23.2,23.2,0,0,0,184,13.14c-4.11,8.42-2.34,17,.68,26.47a7.15,7.15,0,0,0-5.91-2.38,6.28,6.28,0,0,0-5.86,4.83c-.92,4,0,7.44,7.41,13.19a35.92,35.92,0,0,1,4.84,4.32c.62.76,1.19,1.51,1.73,2.27l-.39-.09c-5.69-1-10.41,1.65-11.73,6.5-1.22,4.43.36,10.58,4.64,12.67a7.94,7.94,0,0,0,3.5.85,6.75,6.75,0,0,0,3.38-.89,8.55,8.55,0,0,0,4.08-6.63,7.46,7.46,0,0,0-3-7.15,5,5,0,0,0-5.56,0c-2.45,1.52-4.26,4.65-2.46,7.91a4.4,4.4,0,0,0,3.92,2.51h.09a3.22,3.22,0,0,0,3.07-2,3.05,3.05,0,0,0-.71-3.06,2.15,2.15,0,0,0-2.33-.5A2.37,2.37,0,0,0,182,74.29a2.64,2.64,0,0,1-.64-1.48,3.72,3.72,0,0,1,1.28-3.54,3.35,3.35,0,0,1,3.71-.16,5,5,0,0,1,2,4.8,6.6,6.6,0,0,1-2.95,5.26,5.19,5.19,0,0,1-5.06-.14c-3.14-1.57-4.63-6-3.4-10.17,1-3.52,4.64-5.46,9.17-4.94a5.77,5.77,0,0,1,2.7,1.14l0,0a22.31,22.31,0,0,1,2.43,6.51c.76,4,.51,8.36.23,13-.08,1.36-.33,3.58-.38,4.1a5,5,0,0,0,0,2.07,1.09,1.09,0,0,0,.17.32l.11.13a1,1,0,0,0,.76.33c.56,0,1-.48,1.36-.89a7.93,7.93,0,0,1,.58-.58c1.5-1.24,6.77-5.11,11.44-6.31h0a8.73,8.73,0,0,1,5.65.71,10.24,10.24,0,0,1,5.16,6.06c1.21,4.09-.57,10.67-4.61,12.7a8.19,8.19,0,0,1-7.5.17,8,8,0,0,1-4.22-5.38,7,7,0,0,1,3-6.72,4.12,4.12,0,0,1,4.79-.35,6,6,0,0,1,2.4,4.83A3.27,3.27,0,0,1,209,98.44a3.46,3.46,0,0,1-3.8.12,2.22,2.22,0,0,1-.9-2.09,2.06,2.06,0,0,0,1.71.9,2.12,2.12,0,0,0,2.1-2.14,2.17,2.17,0,0,0-.42-1.27.7.7,0,0,0-.09-.17c-.47-.7-1.86-.91-2.93-.7a3.07,3.07,0,0,0-2.55,2.33,5.06,5.06,0,0,0,1.06,4.25,4.34,4.34,0,0,0,3.57,1.77,5.83,5.83,0,0,0,5.34-3.52,8.07,8.07,0,0,0-3.23-9.23c-2.18-1.36-4.81-1.16-7.23.55a9.68,9.68,0,0,0-4.13,9.26,10.1,10.1,0,0,0,5.43,7,11,11,0,0,0,5.06,1.24,10.87,10.87,0,0,0,4.81-1.12c5-2.42,7.6-10.41,6.27-15.25a13.48,13.48,0,0,0-6.27-8.21,9.23,9.23,0,0,0-1.54-.63c1.74-.68,3.67-1.32,5.68-2,10.17-3.38,24.09-8,32.83-23.09,3.42-5.89,4.38-12.89,2.57-18.72M181.67,53.41c-.66-.51-1.24-1-1.67-1.36l-.23-.21c-2.34-2.14-3.64-3.33-4.61-6a4.73,4.73,0,0,1,.37-3.74,5.52,5.52,0,0,1,2.88-2.42,4.47,4.47,0,0,1,1-.12,5.57,5.57,0,0,1,4.81,3.57,4.27,4.27,0,0,1-.89,4.69,1.78,1.78,0,0,1-2.05.37A3.6,3.6,0,0,1,179.13,45a1,1,0,0,1,.79-.94c.45-.14.51-.07.66.11a1.19,1.19,0,0,0,1.27.47,1.21,1.21,0,0,0,1-1.29c0-.42-.35-1.43-2.54-1.62a3.13,3.13,0,0,0-3.31,2.6c-.46,2,.53,4.86,3.83,6.18a3.89,3.89,0,0,0,4.37-1A6.08,6.08,0,0,0,186.8,46c2.16,6.47,4.44,13.52,5.38,21.19-2.57-7.5-7.48-11.35-10.51-13.74m12,5c.14,1.35.28,2.71.41,4.09a151.81,151.81,0,0,0-4.91-17.58c-3.77-11.59-7-21.6-2.73-30.53a20.73,20.73,0,0,1,18.46-12,22,22,0,0,1,8.48,1.77,20.39,20.39,0,0,1,11.51,12.26,13.7,13.7,0,0,1-1.47,11.69c-2.91,4.65-9.27,7.9-14.44,5-3-1.64-5.24-5.43-3.89-8.93a6.4,6.4,0,0,1,4.64-3.42,5,5,0,0,1,4.72,1.08,3.06,3.06,0,0,1,.34,3.87,3.47,3.47,0,0,1-2.5,1,1.36,1.36,0,0,1-1.1-.34,4.86,4.86,0,0,1,.07-.57l0-.14a1.88,1.88,0,0,0-.17-1.46,1,1,0,0,0-.6-.39,1.07,1.07,0,0,0-1.15.23c-.73.72-.42,2.45-.27,2.85a3.47,3.47,0,0,0,3,1.75,4.33,4.33,0,0,0,4.3-1.78,5.39,5.39,0,0,0-.5-6.67,7.19,7.19,0,0,0-5.44-1.92,7.81,7.81,0,0,0-2.9.68c1.22-3.94.32-8-2.49-10.24-3.53-2.75-6.57-2-8.5-.94a8.49,8.49,0,0,0-4.06,6.82,6.83,6.83,0,0,0,2.74,6.06,5.91,5.91,0,0,0,6.88-.11,6.11,6.11,0,0,0,2.29-6,5.7,5.7,0,0,0-3.67-4.25,3.86,3.86,0,0,0-4,1,4.52,4.52,0,0,0-1.34,3.88,2.88,2.88,0,0,0,1.63,2.23,3.33,3.33,0,0,0,2.65.05,2,2,0,0,0,1.12-1.35,2,2,0,0,0-.64-1.92,1.56,1.56,0,0,0-.28-.23l-.06-.1-.13-.09a1.2,1.2,0,0,0-.6-.18,1.71,1.71,0,0,0-.9,0,1.45,1.45,0,0,0-.55.33,2,2,0,0,1,2.44-1.45,2.76,2.76,0,0,1,2.25,2.16,4.73,4.73,0,0,1-1.9,4.31,3.24,3.24,0,0,1-3.69.22,4.47,4.47,0,0,1-2.13-4.17,6.54,6.54,0,0,1,3.17-5.6,4.81,4.81,0,0,1,4.28,0,6.44,6.44,0,0,1,3.53,3.9c.82,3.07-.16,5.17-1.29,7.59-.42.89-.84,1.81-1.21,2.82-1.4,3.93,0,6.77,2.1,9-4.45-.44-9.31,1.46-11.69,8-1.29,3.56-.63,10.06.14,17.56M247.55,55c-8,13.46-18.85,17.53-30.34,21.83l-2,.74a17.89,17.89,0,0,0,4.3-4.25,10.17,10.17,0,0,0,1.76-7.36,6.18,6.18,0,1,0-12,2.75,5.53,5.53,0,0,0,3.1,3.43A4.07,4.07,0,0,0,217,71a4.57,4.57,0,0,0,.85-5.07,3.25,3.25,0,0,0-2.19-1.72,2.64,2.64,0,0,0-2.95,3.85,1.35,1.35,0,0,0,1.7.65,1,1,0,0,0,.49-1.29,1.75,1.75,0,0,1-.22-1.11,1,1,0,0,1,.69-.1,1.08,1.08,0,0,1,.76.64,2.5,2.5,0,0,1-.52,2.76,2.27,2.27,0,0,1-2.45.74,3.54,3.54,0,0,1-2-2.32,4.24,4.24,0,0,1,.49-3.5,4.35,4.35,0,0,1,5.77-1,4,4,0,0,1,1.91,2.71,7.85,7.85,0,0,1-1.59,5.81c-1.94,2.71-5,4.56-7.89,6.35l-1.13.68a57.26,57.26,0,0,1-6.36,3.2,48.24,48.24,0,0,0-6.94,3.57c3-8,1.77-18.64.68-28.15-.79-6.86-1.47-12.78-.31-16a10.45,10.45,0,0,1,5.61-6.07,8.49,8.49,0,0,1,3.25-.67,8.28,8.28,0,0,1,3.53.81c3.81,1.8,5.17,6.72,4.25,10.24A7.32,7.32,0,0,1,206,51.56a6.15,6.15,0,0,1-4.72-2,4.32,4.32,0,0,1-1.1-3.54,4.66,4.66,0,0,1,2.53-3.33,2.32,2.32,0,0,1,2.39.22,2.86,2.86,0,0,1,.65,2.31,2.92,2.92,0,0,0-2.17-.12,2.08,2.08,0,0,0-1.41,2.12A2.18,2.18,0,0,0,203,49a3,3,0,0,0,2.72.2c1.22-.43,1.62-2.29,1.74-3.07.26-1.72.06-4.09-1.35-5.16a4.47,4.47,0,0,0-4.14-.58c-1.81.64-3.17,2.37-3.83,4.87a6.27,6.27,0,0,0,1.23,5.64A8.21,8.21,0,0,0,206,54c3.59-.16,7.39-3.31,8.67-7.17a10.83,10.83,0,0,0-2.4-10.64,13.8,13.8,0,0,0,9.3-2.72,19.3,19.3,0,0,0-1.4,3.1,14.64,14.64,0,0,0,1,12.65A10.14,10.14,0,0,0,229.11,54a17.78,17.78,0,0,0,4.28-.33c.49-.08,1-.16,1.49-.22a4.89,4.89,0,0,1,4,1,3.46,3.46,0,0,1,.93,3.37,5.6,5.6,0,0,1-3.39,4.14,3.16,3.16,0,0,1-2.47-.1,2.7,2.7,0,0,1-1.29-1.7,2.46,2.46,0,0,1,.9-2.9,1.88,1.88,0,0,1,2.45.2.82.82,0,0,1,0,.62c-.06.09-.3.36-1.38.3a1.06,1.06,0,0,0-1.27.92c-.05.77.75,1.45,1.83,1.54a2.52,2.52,0,0,0,2.38-1.09c1.19-1.6,1-3.07-.6-4.39l-.08-.07c-.65-.55-1.68-.61-3.14-.52S231.32,56.42,231,57a4.77,4.77,0,0,0,.25,5.42A5.24,5.24,0,0,0,237,64.1a7.53,7.53,0,0,0,4.68-4.52,6.39,6.39,0,0,0-.19-5.49,6.62,6.62,0,0,0-3.71-3,8.7,8.7,0,0,0,3-11.1,7.8,7.8,0,0,0-6.22-4.45,6.71,6.71,0,0,0-6.87,4.23,5.3,5.3,0,0,0,1.5,6.33,4.67,4.67,0,0,0,4.31.79,3.39,3.39,0,0,0,2.16-2.61c.37-2-.22-2.95-.78-3.35-.81-.58-2-.47-3.33.31a.8.8,0,0,0-.47,1c.14.37.43.73,2.16.36.28,0,.45,0,.52.09a1.6,1.6,0,0,1-.27,1.47,1.08,1.08,0,0,1-.74.51,3.17,3.17,0,0,1-2.21-.58,2.77,2.77,0,0,1-.62-3.86,4.59,4.59,0,0,1,6.14-2,6.13,6.13,0,0,1,3.23,3.53A6.63,6.63,0,0,1,238.7,47c-1.81,3.62-6.67,5-9.48,4.54a8.49,8.49,0,0,1-6.38-4.15,11.9,11.9,0,0,1-.42-10,15.47,15.47,0,0,1,7.93-9.1,13.08,13.08,0,0,1,10.5.2,15.43,15.43,0,0,1,9.05,9.68c1.71,5.26.85,11.36-2.35,16.76"/></g></g></svg>