<svg xmlns="http://www.w3.org/2000/svg" xmlns:xlink="http://www.w3.org/1999/xlink" viewBox="0 0 256.39 118.99"><defs><style>.cls-1{fill:none;}.cls-2{clip-path:url(#clip-path);}.cls-3{fill:#f399c0;}.cls-4{fill:#ffcb05;}</style><clipPath id="clip-path" transform="translate(0 -2.54)"><rect class="cls-1" width="256.39" height="121.53"/></clipPath></defs><g id="Layer_2" data-name="Layer 2"><g id="Layer_1-2" data-name="Layer 1"><g class="cls-2"><path class="cls-3" d="M81.13,70a16.7,16.7,0,1,0-16.65,17A16.92,16.92,0,0,0,81.13,70m-5.61.09a11,11,0,1,1-22,0,11.26,11.26,0,0,1,11-11.31,11.06,11.06,0,0,1,3,.46,5.46,5.46,0,0,0-1.26,3.4A5.37,5.37,0,0,0,71.63,68,4.9,4.9,0,0,0,75,66.73a10.76,10.76,0,0,1,.54,3.4" transform="translate(0 -2.54)"/><path class="cls-3" d="M124,85.23V79.15a6.46,6.46,0,0,1-4.7,1.84c-2.72,0-4.35-1.93-4.35-4.6V53.75h-6.51V72.9c0,.36-.45,1.83-.54,2.3-1.18,3.21-3.8,6.07-7.42,6.07-4.62,0-7-3.22-7-7.64V53.75H87V74.18c0,7.27,4.7,13,12.12,13a10.61,10.61,0,0,0,9.77-6.72,8.85,8.85,0,0,0,8.42,6.63A11.71,11.71,0,0,0,124,85.23m29.5-26.78A5.51,5.51,0,0,0,148,52.93c-4.08,0-7.42,2.85-9.32,6.44V53.75h-6.52V88.31h6.52V68.2a10.57,10.57,0,0,1,.36-1.65,9.25,9.25,0,0,1,4.8-6,4.48,4.48,0,0,0,4.43,3.21,5.29,5.29,0,0,0,5.25-5.33" transform="translate(0 -2.54)"/><path class="cls-4" d="M22.17,112V86.72H18V90.3a8.8,8.8,0,0,0-7.61-4.11c-6,0-10.35,5-10.35,11.06s4.33,11,10.35,11a8.87,8.87,0,0,0,7.61-4V112a6.07,6.07,0,0,1-4.68,5.83l1.47,3.69c4.44-.48,7.42-5.23,7.42-9.52M18,98.86a8.36,8.36,0,0,1-.41,1.31,7,7,0,0,1-6.37,4.34,7.29,7.29,0,0,1,0-14.57,7.1,7.1,0,0,1,6.37,4.34A11,11,0,0,1,18,95.59Zm29.64-8A10.73,10.73,0,0,0,28,97.14c0,6.54,5.15,11.12,11.41,11.12a14,14,0,0,0,6.38-1.37v-4.28a10.23,10.23,0,0,1-6.38,1.9,7.29,7.29,0,0,1-4.1-1.24c4.1-4.11,8.2-8.28,12.29-12.38m-5.32.47c-3.16,3.16-6.2,6.43-9.3,9.58a6.73,6.73,0,0,1-1.11-3.8c0-3.87,2.69-7.14,6.61-7.14a6,6,0,0,1,3.8,1.36m36.27,15.71v-3.92a4.15,4.15,0,0,1-3,1.19,2.74,2.74,0,0,1-2.87-3V94.52c0-4.76-3-8.33-7.84-8.33a6.74,6.74,0,0,0-6,3.63v-3.1H54.62v21h4.22c0-4.11-.06-8.27,0-12.38a7.55,7.55,0,0,1,.23-1.13c.7-2.26,2.46-4.34,4.91-4.34,3,0,4.51,2.08,4.51,5v6.91c0,3.39,2.16,6.48,5.73,6.48a7.51,7.51,0,0,0,4.33-1.19m22.82-16.18a10.73,10.73,0,0,0-19.6,6.25c0,6.54,5.15,11.12,11.41,11.12a14,14,0,0,0,6.37-1.37v-4.28a10.18,10.18,0,0,1-6.37,1.9,7.24,7.24,0,0,1-4.1-1.24c4.1-4.11,8.2-8.28,12.29-12.38m-5.32.47c-3.16,3.16-6.2,6.43-9.31,9.58a6.73,6.73,0,0,1-1.11-3.8c0-3.87,2.69-7.14,6.61-7.14a6,6,0,0,1,3.81,1.36m26.14-1.6a3.55,3.55,0,0,0-3.56-3.57c-2.64,0-4.8,1.84-6,4.16V86.72h-4.21v21h4.21V96.06a6.86,6.86,0,0,1,.24-1.07,6,6,0,0,1,3.09-3.86,2.91,2.91,0,0,0,2.87,2.08,3.42,3.42,0,0,0,3.39-3.45M154,107.07v-3.92a4.24,4.24,0,0,1-3,1.24,2.77,2.77,0,0,1-2.81-3V86.72H144v3.45a8.8,8.8,0,0,0-7.55-4c-6,0-10.35,5-10.35,11.06s4.32,11,10.35,11a8.93,8.93,0,0,0,7.84-4.4,5.64,5.64,0,0,0,5.44,4.46,7.59,7.59,0,0,0,4.33-1.25M144,99.1a5.73,5.73,0,0,1-.47,1.31,7,7,0,0,1-6.26,4.1,7.29,7.29,0,0,1,0-14.57,6.92,6.92,0,0,1,6.26,4.16,4.48,4.48,0,0,1,.47,1.25Zm28.37-8.27V86.72H166V74.88h-4.22V86.72h-6.55v4.11h6.55v10.35c0,4.11,2.23,7.08,6.38,7.08a6.56,6.56,0,0,0,4.09-1.19v-3.92a5.11,5.11,0,0,1-3.27,1.24c-2.11,0-3-1.66-3-3.63V90.83Z" transform="translate(0 -2.54)"/><path class="cls-4" d="M210.62,29.27a1.45,1.45,0,1,0-1.43-1.45,1.44,1.44,0,0,0,1.43,1.45" transform="translate(0 -2.54)"/><path class="cls-4" d="M190.79,107.07v-3.92a4.22,4.22,0,0,1-3,1.18,2.75,2.75,0,0,1-2.81-3V86.72h-4.21v15.06c0,3.39,2.23,6.48,5.73,6.48a7.32,7.32,0,0,0,4.34-1.19" transform="translate(0 -2.54)"/><path class="cls-4" d="M249.27,107.07v-3.92a4.2,4.2,0,0,1-3,1.18,2.74,2.74,0,0,1-2.87-3V94.52c0-4.76-3-8.33-7.84-8.33a6.74,6.74,0,0,0-6,3.63v-3.1h-4.22v21h4.22c0-4.11-.06-8.27,0-12.38a7.55,7.55,0,0,1,.23-1.13c.7-2.26,2.46-4.34,4.91-4.34,3,0,4.51,2.08,4.51,5v6.91c0,3.39,2.16,6.48,5.73,6.48a7.54,7.54,0,0,0,4.34-1.19" transform="translate(0 -2.54)"/><path class="cls-4" d="M254.62,106.44a1.8,1.8,0,1,1,1.77-1.8,1.78,1.78,0,0,1-1.77,1.8m0-3.38a1.58,1.58,0,0,0,0,3.16,1.58,1.58,0,0,0,0-3.16m.41,1.83.36.74H255l-.33-.7h-.4v.69h-.39v-2h1a.64.64,0,0,1,.68.65.61.61,0,0,1-.46.6m-.28-.92h-.51v.63h.51c.2,0,.36-.1.36-.31a.33.33,0,0,0-.36-.32" transform="translate(0 -2.54)"/><path class="cls-4" d="M252.33,40.21A18.48,18.48,0,0,0,242,28.77a14.74,14.74,0,0,0-12.28-.31A16.08,16.08,0,0,0,226,30.74a16.35,16.35,0,0,0,1.11-12.54c-1.74-5.76-6.43-10.85-12.56-13.63A23.2,23.2,0,0,0,184,15.68c-4.12,8.42-2.35,17,.67,26.47a7.15,7.15,0,0,0-5.91-2.38,6.28,6.28,0,0,0-5.86,4.83c-.92,4,0,7.44,7.41,13.18a36.81,36.81,0,0,1,4.84,4.33c.63.76,1.19,1.51,1.73,2.26l-.39-.08c-5.69-1-10.41,1.65-11.73,6.5-1.22,4.43.36,10.58,4.64,12.67a7.94,7.94,0,0,0,3.5.85,6.75,6.75,0,0,0,3.38-.89,8.58,8.58,0,0,0,4.09-6.63,7.49,7.49,0,0,0-3-7.15,5,5,0,0,0-5.56,0c-2.45,1.52-4.26,4.65-2.46,7.91a4.4,4.4,0,0,0,3.92,2.51h.09a3.22,3.22,0,0,0,3.07-2,3.05,3.05,0,0,0-.71-3.06,2.15,2.15,0,0,0-2.33-.5A2.39,2.39,0,0,0,182,76.83a2.67,2.67,0,0,1-.64-1.48,3.72,3.72,0,0,1,1.28-3.54,3.35,3.35,0,0,1,3.71-.16,5,5,0,0,1,2,4.8,6.6,6.6,0,0,1-2.95,5.26,5.19,5.19,0,0,1-5.06-.14c-3.13-1.57-4.63-6-3.4-10.17,1-3.52,4.65-5.46,9.17-5a5.9,5.9,0,0,1,2.7,1.15l0,0a22.31,22.31,0,0,1,2.43,6.51c.76,4,.51,8.36.23,13-.08,1.36-.33,3.57-.38,4.1a5,5,0,0,0,0,2.07,1.23,1.23,0,0,0,.17.32l.11.13a1.2,1.2,0,0,0,.4.26,1,1,0,0,0,.37.07c.55,0,1-.49,1.35-.89a7.93,7.93,0,0,1,.58-.58c1.5-1.24,6.77-5.11,11.44-6.31h0a8.79,8.79,0,0,1,5.65.72A10.21,10.21,0,0,1,216.42,93c1.22,4.09-.57,10.67-4.61,12.7a8.2,8.2,0,0,1-7.49.17,8,8,0,0,1-4.23-5.38,7,7,0,0,1,3-6.73,4.11,4.11,0,0,1,4.78-.34,6,6,0,0,1,2.4,4.83A3.25,3.25,0,0,1,209,101a3.46,3.46,0,0,1-3.8.13,2.26,2.26,0,0,1-.9-2.09,2.09,2.09,0,0,0,1.71.9,2.12,2.12,0,0,0,2.1-2.14,2.17,2.17,0,0,0-.42-1.27.7.7,0,0,0-.09-.17c-.47-.7-1.86-.91-2.93-.7A3.07,3.07,0,0,0,202.11,98a5.07,5.07,0,0,0,1.06,4.25,4.34,4.34,0,0,0,3.57,1.77,5.82,5.82,0,0,0,5.34-3.52,8.06,8.06,0,0,0-3.23-9.23c-2.18-1.36-4.81-1.16-7.23.55a9.67,9.67,0,0,0-4.13,9.26,10.1,10.1,0,0,0,5.43,6.95,11,11,0,0,0,5.06,1.24,10.84,10.84,0,0,0,4.81-1.12c5-2.42,7.6-10.41,6.27-15.25a13.48,13.48,0,0,0-6.27-8.21,10.23,10.23,0,0,0-1.54-.64c1.74-.67,3.67-1.31,5.68-2,10.17-3.38,24.09-8,32.83-23.09,3.42-5.9,4.39-12.9,2.57-18.72M181.67,56c-.66-.51-1.23-1-1.67-1.36l-.23-.21c-2.34-2.15-3.64-3.33-4.61-6a4.73,4.73,0,0,1,.37-3.74,5.51,5.51,0,0,1,2.89-2.42,4.32,4.32,0,0,1,1-.12,5.57,5.57,0,0,1,4.81,3.57,4.27,4.27,0,0,1-.89,4.69,1.8,1.8,0,0,1-2.05.37,3.61,3.61,0,0,1-2.15-3.17,1,1,0,0,1,.79-1c.45-.13.51-.07.67.12a1.17,1.17,0,0,0,1.26.47,1.21,1.21,0,0,0,1-1.29c0-.42-.35-1.43-2.54-1.62a3.11,3.11,0,0,0-3.3,2.6c-.47,2,.52,4.85,3.82,6.18a3.89,3.89,0,0,0,4.37-1,6.08,6.08,0,0,0,1.64-3.58C189,55,191.24,62,192.18,69.69c-2.57-7.5-7.48-11.36-10.51-13.74m12,5c.14,1.35.28,2.71.41,4.09a151.25,151.25,0,0,0-4.91-17.58c-3.77-11.59-7-21.6-2.73-30.53A20.73,20.73,0,0,1,204.92,5a21.84,21.84,0,0,1,8.48,1.77A20.39,20.39,0,0,1,224.91,19a13.7,13.7,0,0,1-1.47,11.69c-2.91,4.65-9.26,7.9-14.44,5-3-1.64-5.24-5.43-3.89-8.93a6.4,6.4,0,0,1,4.64-3.42,5,5,0,0,1,4.72,1.08,3.06,3.06,0,0,1,.34,3.87,3.49,3.49,0,0,1-2.5,1,1.4,1.4,0,0,1-1.1-.34,4.62,4.62,0,0,1,.07-.57l0-.14a1.88,1.88,0,0,0-.17-1.46,1,1,0,0,0-.6-.39,1.07,1.07,0,0,0-1.15.23c-.72.72-.42,2.44-.27,2.84a3.45,3.45,0,0,0,3,1.76,4.33,4.33,0,0,0,4.3-1.78,5.39,5.39,0,0,0-.5-6.67,7.15,7.15,0,0,0-5.44-1.92,7.81,7.81,0,0,0-2.9.68c1.22-3.94.32-8-2.49-10.24-3.53-2.75-6.57-2-8.5-.94a8.49,8.49,0,0,0-4.06,6.82,6.83,6.83,0,0,0,2.74,6.06,5.93,5.93,0,0,0,6.88-.11,6.11,6.11,0,0,0,2.29-6,5.73,5.73,0,0,0-3.66-4.26,3.91,3.91,0,0,0-4,1,4.54,4.54,0,0,0-1.34,3.89A2.92,2.92,0,0,0,197.08,20a3.33,3.33,0,0,0,2.65,0,2,2,0,0,0,1.12-1.35,2,2,0,0,0-.64-1.92,1.56,1.56,0,0,0-.28-.23l-.06-.1-.13-.09a1.2,1.2,0,0,0-.6-.18,1.71,1.71,0,0,0-.9,0,1.33,1.33,0,0,0-.55.33,2,2,0,0,1,2.44-1.45,2.76,2.76,0,0,1,2.25,2.16,4.73,4.73,0,0,1-1.9,4.31,3.26,3.26,0,0,1-3.69.22,4.49,4.49,0,0,1-2.13-4.17,6.55,6.55,0,0,1,3.17-5.6,4.81,4.81,0,0,1,4.28,0A6.4,6.4,0,0,1,205.64,16c.82,3.08-.16,5.18-1.29,7.6-.42.89-.84,1.81-1.21,2.82-1.4,3.93,0,6.77,2.1,9-4.45-.44-9.31,1.46-11.69,8-1.29,3.56-.63,10.05.14,17.56m53.86-3.47C239.55,71,228.7,75,217.21,79.33l-2,.73a17.49,17.49,0,0,0,4.3-4.24,10.17,10.17,0,0,0,1.76-7.36,6.18,6.18,0,1,0-12,2.75,5.56,5.56,0,0,0,3.1,3.43A4.07,4.07,0,0,0,217,73.58a4.61,4.61,0,0,0,.86-5.08,3.26,3.26,0,0,0-2.2-1.71,2.53,2.53,0,0,0-2.21.42,2.5,2.5,0,0,0-.74,3.43,1.35,1.35,0,0,0,1.7.65,1,1,0,0,0,.49-1.3,1.72,1.72,0,0,1-.22-1.1,1,1,0,0,1,.69-.1,1.06,1.06,0,0,1,.76.64,2.48,2.48,0,0,1-.52,2.76,2.27,2.27,0,0,1-2.45.74,3.52,3.52,0,0,1-2-2.32,4.17,4.17,0,0,1,.49-3.5,4.33,4.33,0,0,1,5.76-1,4,4,0,0,1,1.91,2.71,7.86,7.86,0,0,1-1.59,5.81c-1.93,2.71-5,4.56-7.89,6.35-.38.23-.76.45-1.12.68a57.41,57.41,0,0,1-6.37,3.2,48.77,48.77,0,0,0-6.94,3.57c3-8,1.77-18.64.68-28.15-.79-6.86-1.47-12.78-.31-16a10.45,10.45,0,0,1,5.61-6.07,8.53,8.53,0,0,1,3.25-.67,8.24,8.24,0,0,1,3.53.81c3.81,1.8,5.17,6.72,4.25,10.24A7.3,7.3,0,0,1,206,54.09a6.12,6.12,0,0,1-4.72-2,4.36,4.36,0,0,1-1.1-3.54,4.66,4.66,0,0,1,2.53-3.33,2.32,2.32,0,0,1,2.39.22,2.85,2.85,0,0,1,.65,2.3,2.94,2.94,0,0,0-2.16-.11,2.08,2.08,0,0,0-1.42,2.12,2.18,2.18,0,0,0,.9,1.78,3,3,0,0,0,2.72.2c1.22-.42,1.62-2.29,1.74-3.06.26-1.72.06-4.09-1.35-5.16A4.47,4.47,0,0,0,202,43c-1.81.64-3.17,2.37-3.83,4.87a6.3,6.3,0,0,0,1.23,5.64A8.22,8.22,0,0,0,206,56.55c3.58-.17,7.38-3.31,8.66-7.17a10.85,10.85,0,0,0-2.4-10.65,13.74,13.74,0,0,0,9.3-2.71,19.3,19.3,0,0,0-1.4,3.1,14.61,14.61,0,0,0,1,12.65,10.13,10.13,0,0,0,7.9,4.77,18.3,18.3,0,0,0,4.28-.33l1.49-.23a4.93,4.93,0,0,1,4,1,3.45,3.45,0,0,1,.93,3.37,5.6,5.6,0,0,1-3.39,4.14,3.2,3.2,0,0,1-2.47-.1,2.74,2.74,0,0,1-1.29-1.7,2.45,2.45,0,0,1,.9-2.9A1.88,1.88,0,0,1,236,60a.82.82,0,0,1,0,.62c-.06.08-.3.36-1.38.3a1.06,1.06,0,0,0-1.27.92c-.05.77.75,1.45,1.84,1.54a2.52,2.52,0,0,0,2.37-1.09c1.19-1.6,1-3.07-.6-4.39l-.08-.07c-.65-.55-1.68-.61-3.13-.52S231.32,59,231,59.56a4.77,4.77,0,0,0,.25,5.42A5.25,5.25,0,0,0,237,66.64a7.52,7.52,0,0,0,4.68-4.53,6.37,6.37,0,0,0-.19-5.48,6.62,6.62,0,0,0-3.71-3A8.89,8.89,0,0,0,240.28,51a9,9,0,0,0,.43-8.49,7.8,7.8,0,0,0-6.22-4.45,6.69,6.69,0,0,0-6.86,4.23,5.28,5.28,0,0,0,1.49,6.33,4.67,4.67,0,0,0,4.31.79,3.4,3.4,0,0,0,2.17-2.62c.37-2-.23-2.94-.79-3.34-.81-.59-2-.48-3.33.3a.82.82,0,0,0-.47,1c.14.37.43.73,2.16.36.28,0,.45,0,.52.09a1.57,1.57,0,0,1-.27,1.47,1.09,1.09,0,0,1-.73.51,3.18,3.18,0,0,1-2.22-.58,2.77,2.77,0,0,1-.62-3.86,4.59,4.59,0,0,1,6.14-2,6.1,6.1,0,0,1,3.23,3.53,6.63,6.63,0,0,1-.52,5.14c-1.81,3.62-6.67,5-9.48,4.54a8.49,8.49,0,0,1-6.38-4.15,11.9,11.9,0,0,1-.42-10,15.47,15.47,0,0,1,7.93-9.1,13.08,13.08,0,0,1,10.5.19,15.47,15.47,0,0,1,9.05,9.69,20.57,20.57,0,0,1-2.35,16.75" transform="translate(0 -2.54)"/></g></g></g></svg>