<svg xmlns="http://www.w3.org/2000/svg" viewBox="0 0 231.71 220.42"><defs><style>.cls-1{fill:#a14b6b;}.cls-2{fill:#373334;}</style></defs><g id="Layer_2" data-name="Layer 2"><g id="Layer_1-2" data-name="Layer 1"><path class="cls-1" d="M211.25,131c0-2.67,0-5.33,0-8-.1-10.23-6.73-18.69-16.54-20.79-7.4-1.58-13.82.52-19.14,5.89-.6.61-.86.61-1.47,0-5.91-5.84-13-7.89-20.92-5.41s-12.66,8.16-14.42,16.29a15.54,15.54,0,0,0-.39,3.26c0,10.39,0,20.77,0,31.16a5.28,5.28,0,0,0,7.39,5,5.17,5.17,0,0,0,3.3-5c0-3.33,0-6.65,0-10q0-10.08,0-20.15c0-5.47,4.07-10.16,9.14-10.54a10.27,10.27,0,0,1,11.15,8.84,12.67,12.67,0,0,1,.08,1.85v29a11.06,11.06,0,0,0,.15,2.15,5.21,5.21,0,0,0,5.55,4.43,5.15,5.15,0,0,0,5-5.17c.07-4.24,0-8.49,0-12.74,0-6,0-11.93,0-17.9a10.43,10.43,0,0,1,8.13-10.28,10.25,10.25,0,0,1,12.2,9c.05.61.06,1.23.06,1.85q0,15.57,0,31.15a2.49,2.49,0,0,1-.35,1.36c-17.27,28.73-41.46,48.88-73.56,59.12a104.87,104.87,0,0,1-38.21,4.87c-24.92-1.44-46.33-10.69-63.58-29a2.86,2.86,0,0,1-.88-2.16q0-15.73,0-31.46v-1.13c.39-.13.6.16.85.3a23,23,0,0,0,33.91-15,24.82,24.82,0,0,0,.64-5.5c0-3.94,0-7.88,0-11.82a23.39,23.39,0,0,0-20.18-22.6,23.14,23.14,0,0,0-25.25,17.76,28.57,28.57,0,0,0-.65,6.52q0,24,0,48v1.37a56.49,56.49,0,0,1-3-5.52A96.35,96.35,0,0,1,1,139.34,113.7,113.7,0,0,1,9.74,78.7C22.57,49,43.59,26.8,72.49,12.18A113.82,113.82,0,0,1,106.37,1.34a105.14,105.14,0,0,1,30-.5c17.7,2.3,33.63,8.81,47.4,20.26C198.72,33.54,208.5,49.31,213.62,68a104,104,0,0,1,3.45,32,118.48,118.48,0,0,1-5.33,30.15c-.09.28-.21.56-.31.84ZM84.46,123h0c0,4.31,0,8.63,0,13a27.2,27.2,0,0,0,.43,5,23.06,23.06,0,0,0,29.47,17.86,23.46,23.46,0,0,0,16.17-21.61c.08-3.9,0-7.81,0-11.72,0-5.75,0-11.51,0-17.27a5.31,5.31,0,0,0-7.1-5.13,5.16,5.16,0,0,0-3.59,5.29q0,13.67,0,27.35a18.21,18.21,0,0,1-.15,2.45A12.29,12.29,0,0,1,96,141a13.49,13.49,0,0,1-.86-4.92q0-13.68,0-27.35a5.5,5.5,0,0,0-2-4.74,5.35,5.35,0,0,0-5.82-.6,4.87,4.87,0,0,0-2.9,4.71C84.44,113.07,84.46,118,84.46,123ZM64.94,112.14q0,13.36,0,26.73a30.07,30.07,0,0,0,1,8.23c1.45,5.19,4.25,9.38,9.06,12a5.69,5.69,0,0,0,3.55.81A5.43,5.43,0,0,0,83,155.42a5.07,5.07,0,0,0-2.62-5.82,7.53,7.53,0,0,1-3.48-3.76,15.22,15.22,0,0,1-1.28-6.6q0-11.19,0-22.4,0-16.61,0-33.21a5.3,5.3,0,0,0-7.18-5.21A5.22,5.22,0,0,0,65,83.77Q64.94,98,64.94,112.14Z"/><path class="cls-1" d="M24,130.19c.12-2-.24-4.68.21-7.3a12.28,12.28,0,0,1,24.26.39c.53,4.36.12,8.76.2,13.14a11.61,11.61,0,0,1-.37,2.94A12.3,12.3,0,0,1,24,136.75C24,134.76,24,132.77,24,130.19Z"/><path class="cls-2" d="M231.71,108.66a5.6,5.6,0,1,1-5.5-5.75A5.65,5.65,0,0,1,231.71,108.66Zm-10.09-.1a4.5,4.5,0,1,0,4.49-4.71A4.53,4.53,0,0,0,221.62,108.56Z"/><path class="cls-2" d="M228.86,111.83a1.13,1.13,0,0,1-1.58-.66c-.31-.6-.73-1.15-1.06-1.75-.24-.43-.63-.37-1-.32s-.24.43-.25.67c0,.55,0,1.1,0,1.64s-.13.53-.53.53-.53-.13-.53-.53c0-1.85,0-3.69,0-5.54,0-.45.14-.61.58-.59.86,0,1.71,0,2.57.06a1.54,1.54,0,0,1,1.62,1.4c.13.92,0,1.75-1,2.1-.54.18-.52.38-.24.78C227.93,110.32,228.36,111.05,228.86,111.83ZM226,108.22c.61-.1,1.42.12,1.62-.81s-.29-1.16-1.6-1.26c-1-.08-1.08.29-1.09,1.13S225.2,108.39,226,108.22Z"/></g></g></svg>