<svg xmlns="http://www.w3.org/2000/svg" viewBox="0 0 307.37 96.4"><defs><style>.a{fill:#f9e925;}.b{fill:#e22029;}.c{fill:#8a284e;}.d{fill:#95284a;}.e{fill:#d9202d;}.f{fill:#b8253d;}.g{fill:#cb2334;}.h{fill:#a22645;}.i{fill:#9c2748;}.j{fill:#ae2641;}.k{fill:#d4212f;}.l{fill:#c02438;}.m{fill:#a82743;}.n{fill:#c62335;}.o{fill:#b3253f;}.p{fill:#1ea2dd;}.q{fill:#004461;}.r{fill:#1fa2dd;}.s{fill:#1fa3dd;}.t{fill:#faea25;}.u{fill:#fae925;}.v{fill:#f9e926;}</style></defs><path class="a" d="M258.28,277.21H120c-1,0-1.24-.33-1.27-1.29V204.61a7.61,7.61,0,0,1,0-.83.94.94,0,0,1,.91-.88c.21,0,.43,0,.65,0h20.39c1.63,0,3.26.15,4.88.29l2.66.24a22.83,22.83,0,0,1,7,1.65,18.27,18.27,0,0,1,5,3.16,15.08,15.08,0,0,1,2.75,3.56c.18.29.34.59.52.87a1.74,1.74,0,0,0,1.6.92H181a5.7,5.7,0,0,0,.83,0,.79.79,0,0,0,.72-.82c0-.21,0-.43,0-.65v-7.38c0-.24,0-.49,0-.73a1,1,0,0,1,1-1.07h26.95a6,6,0,0,1,.74,0,.91.91,0,0,1,.83.84,6.11,6.11,0,0,1,0,.74v7.38a4.57,4.57,0,0,0,0,.83,1,1,0,0,0,1,.87,5,5,0,0,0,.55,0c4.21,0,8.43,0,12.64,0a11.46,11.46,0,0,0,2.74-.31,17.19,17.19,0,0,1,3.83-.55,15.68,15.68,0,0,1,8.15,1.93l.55.33a1.37,1.37,0,0,0,1.47,0,15.28,15.28,0,0,1,5.88-2,16.89,16.89,0,0,1,4-.14,21.74,21.74,0,0,1,4.16.75,15.67,15.67,0,0,1,6.43,3.84c.24.23.46.49.71.72a1,1,0,0,0,1.55.15c.69-.47,1.37-.94,2-1.44a17.86,17.86,0,0,1,4.54-2.42,24,24,0,0,1,5.89-1.48,18.81,18.81,0,0,1,4.5-.11c.95.12,1.9.11,2.85.23a25.15,25.15,0,0,1,10.12,3.18l.48.27a.4.4,0,0,0,.57-.29,7.09,7.09,0,0,0,.05-.92V203.62c0-.25,0-.5,0-.74a1,1,0,0,1,1.05-1.06c.21,0,.43,0,.64,0q48.41,0,96.81,0a46,46,0,0,1,9.44.88,27.53,27.53,0,0,1,8.84,3.33,21.27,21.27,0,0,1,7.45,7.77,32.41,32.41,0,0,1,3.28,8.78,53.31,53.31,0,0,1,1.08,7,77.63,77.63,0,0,1,.27,7.92c0,.47,0,.93,0,1.39a59.87,59.87,0,0,1-.91,9.44,48.24,48.24,0,0,1-3,10.52,32.33,32.33,0,0,1-7.21,10.93,25.35,25.35,0,0,1-11.79,6.52,30.25,30.25,0,0,1-5,.79c-1.17.09-2.34.12-3.5.12Z" transform="translate(-118.54 -201.81)"/><path class="b" d="M118.71,285.49a.64.64,0,0,1,.56-.54,1.68,1.68,0,0,1,.45-.05H423.9c.33,0,.67,0,1,0a1,1,0,0,1,1,1c0,.58,0,1.17,0,1.75s0,.92,0,1.38a.88.88,0,0,1-.85.45H120.52c-1.88,0-1.89,0-1.88-1.9A10.62,10.62,0,0,1,118.71,285.49Z" transform="translate(-118.54 -201.81)"/><path class="c" d="M425.86,295.67c0,.5.05,1,0,1.48a1,1,0,0,1-1,1c-.3,0-.61,0-.92,0H120.52c-.31,0-.62,0-.93,0a1,1,0,0,1-1-1.05c0-.37,0-.74,0-1.1,0-.59.36-.8.89-.83.37,0,.74,0,1.11,0H423.91C424.58,295.2,425.35,295,425.86,295.67Z" transform="translate(-118.54 -201.81)"/><path class="d" d="M425.86,295.67a1.4,1.4,0,0,0-.61-.18H120a3.37,3.37,0,0,1-.55,0c-.46-.08-.66.19-.82.55a4.57,4.57,0,0,1,0-1.28,1.08,1.08,0,0,1,.85-.28H424.09c.59,0,1.24-.19,1.77.27A2.32,2.32,0,0,1,425.86,295.67Z" transform="translate(-118.54 -201.81)"/><path class="e" d="M118.71,285.49c0,.92,0,1.84,0,2.76,0,.22,0,.43,0,.65a.33.33,0,0,0,.3.3,2.23,2.23,0,0,0,.37,0H424.51a2.26,2.26,0,0,0,1.35-.18,1.06,1.06,0,0,1,0,.56.87.87,0,0,1-.85.44c-.37,0-.74,0-1.11,0H120.54A6.26,6.26,0,0,1,119,290a.61.61,0,0,1-.39-.38l0-3.71A.44.44,0,0,1,118.71,285.49Z" transform="translate(-118.54 -201.81)"/><path class="f" d="M425.86,291.44a2.37,2.37,0,0,1,0,.92,1.16,1.16,0,0,1-.86.25H119.44c-.35,0-.68-.06-.85-.43a3.38,3.38,0,0,1,0-1.1.52.52,0,0,1,.43.27.8.8,0,0,0,.6.18H423.75A14.9,14.9,0,0,0,425.86,291.44Z" transform="translate(-118.54 -201.81)"/><path class="g" d="M118.59,289.6l.14.18a1,1,0,0,0,.85.27H423.84a11.38,11.38,0,0,0,2-.08,1.64,1.64,0,0,1,0,.73.85.85,0,0,1-.86.43c-.3,0-.61,0-.92,0H120.4c-.33,0-.67,0-1,0s-.73-.15-.8-.61A2.37,2.37,0,0,1,118.59,289.6Z" transform="translate(-118.54 -201.81)"/><path class="h" d="M118.59,294.2a.86.86,0,0,1,0-.55,1.1,1.1,0,0,1,.85-.26H424c.62,0,1.3-.19,1.87.25a1,1,0,0,1,0,.55,1.1,1.1,0,0,1-.85.28H120.36C119.76,294.47,119.12,294.67,118.59,294.2Z" transform="translate(-118.54 -201.81)"/><path class="i" d="M118.59,294.2H425.86a1.06,1.06,0,0,1,0,.56H118.58A1,1,0,0,1,118.59,294.2Z" transform="translate(-118.54 -201.81)"/><path class="j" d="M425.86,292.73v.37a.66.66,0,0,1-.69.36h-305c-.54,0-1.19.29-1.61-.35a.86.86,0,0,1,0-.55c.67,0,1.35,0,2,0H424.24A2.66,2.66,0,0,1,425.86,292.73Z" transform="translate(-118.54 -201.81)"/><path class="k" d="M425.86,290c-.19.21-.37.41-.7.36a4.56,4.56,0,0,0-.64,0H119.17c-.34,0-.34,0-.44-.54H424.51a2.33,2.33,0,0,0,1.35-.17Z" transform="translate(-118.54 -201.81)"/><path class="l" d="M425.86,291.44c-.19.21-.37.41-.7.37a4.56,4.56,0,0,0-.64,0H119.17c-.34,0-.34,0-.44-.55a1.06,1.06,0,0,1,.79-.18H423.83c.67,0,1.35,0,2,0Z" transform="translate(-118.54 -201.81)"/><path class="m" d="M118.59,293.1a1,1,0,0,0,.51.18H424.6a2,2,0,0,0,1.26-.18,1,1,0,0,1,0,.55H118.59A.86.86,0,0,1,118.59,293.1Z" transform="translate(-118.54 -201.81)"/><path class="n" d="M425.86,291.07a1.26,1.26,0,0,1-.71.18H118.73l-.14-.17a1.06,1.06,0,0,1,0-.56.71.71,0,0,0,.69.37,4.56,4.56,0,0,1,.64,0H424.51a2.25,2.25,0,0,0,1.35-.18Z" transform="translate(-118.54 -201.81)"/><path class="o" d="M425.86,292.73h-306a1.94,1.94,0,0,1-1.25-.17v-.37a1.16,1.16,0,0,0,.51.18H425.86Z" transform="translate(-118.54 -201.81)"/><path class="p" d="M355.8,245.83c0-.34,0-.68,0-1q0-17.56,0-35.13c0-1.23-.13-1.11,1.06-1.11h30.72a75,75,0,0,1,7.64.39,39,39,0,0,1,9.44,2,21.73,21.73,0,0,1,6.57,3.65,19.47,19.47,0,0,1,5.28,7,29,29,0,0,1,2.17,7.12,52.1,52.1,0,0,1,.77,9.08,3.42,3.42,0,0,1,0,.45,2.32,2.32,0,0,1-1.42.59c-6.93,1.56-13.95,2.57-21,3.46a1.22,1.22,0,0,1-1.05-.15,3.63,3.63,0,0,1-.21-1.9,22,22,0,0,0-.74-6.65,6,6,0,0,0-4.35-4.1,30.27,30.27,0,0,0-6.57-.73c-1.26-.08-2.52,0-3.78,0s-1.36,0-1.36,1.32v12.53a2.27,2.27,0,0,1-.24,1.42c-1.13.63-2.39.44-3.59.57-3.6.38-7.21.62-10.81.9-2.6.19-5.2.38-7.8.5A.73.73,0,0,1,355.8,245.83Z" transform="translate(-118.54 -201.81)"/><path class="p" d="M326.3,247.34a8.26,8.26,0,0,0-3.81-1.27A38.61,38.61,0,0,0,316,246c-1.63.07-3.26.18-4.88.28-.83.06-1.66.15-2.49.2-.49,0-.54,0-.54-.48,0-1.35,0-2.7,0-4.06,0-.7,0-1.41,0-2.12a.85.85,0,0,1,.44-.83c1.24-.85,2.47-1.72,3.71-2.58l12.63-8.82c.26-.19.59-.32.75-.63a.37.37,0,0,0-.34-.15H304.64c-1.29,0-1.14.13-1.14-1.12q0-8,0-16c0-1.11-.1-1,1-1h46c.7,0,.71,0,.71.72,0,5.38,0,10.76,0,16.14a1.16,1.16,0,0,1-.67,1.08Q342.73,231.76,335,237a3.08,3.08,0,0,0-.78.59c0,.21.17.18.28.17,1.07-.1,2.14-.23,3.21-.31a18.44,18.44,0,0,1,7.56.82,10.57,10.57,0,0,1,6.93,7.44,1.46,1.46,0,0,1-1.09.41c-5.08.36-10.16.74-15.25,1-2.69.11-5.39.35-8.09.34A10.14,10.14,0,0,1,326.3,247.34Z" transform="translate(-118.54 -201.81)"/><path class="q" d="M355.8,245.83l5.52-.36c2-.15,4-.33,6.06-.49,1.1-.08,2.2-.14,3.3-.23s2.21-.2,3.31-.3c.76-.08,1.53-.08,2.29-.2s1.53-.14,2.29-.2c.43.3.32.77.32,1.18,0,2.24,0,4.49,0,6.73,0,1.13.07,1.22,1.22,1.19A67.51,67.51,0,0,0,388,253a7.77,7.77,0,0,0,7-6.44,14.71,14.71,0,0,0,.47-3.09,1.46,1.46,0,0,1,.44-1.26l3.56-.43c1.1-.15,2.19-.32,3.28-.48,1.82-.26,3.64-.51,5.46-.81s3.8-.68,5.7-1c1.69-.31,3.36-.67,5-1.08l.36-.06a22.83,22.83,0,0,1,0,3.41c-.11,1.69-.24,3.37-.48,5.05a36.2,36.2,0,0,1-3.24,11,22.4,22.4,0,0,1-14.79,12.1,33.31,33.31,0,0,1-5.44,1,38.53,38.53,0,0,1-3.87.16H356.93c-1.36,0-1.17.17-1.17-1.16q0-11.49,0-23C355.76,246.5,355.79,246.16,355.8,245.83Z" transform="translate(-118.54 -201.81)"/><path class="p" d="M245.39,248.63c0-.33,0-.67,0-1,0-3.43,0-6.87,0-10.31,0-1.63-.08-3.25-.2-4.87a7.07,7.07,0,0,0-.23-1.45,2,2,0,0,0-2.82-1.32,1.76,1.76,0,0,0-1,1.15,7.36,7.36,0,0,0-.34,2.08c-.08,1.69-.15,3.37-.16,5.06,0,3.1,0,6.2,0,9.3,0,.33,0,.67,0,1a1.34,1.34,0,0,1-1.05.22c-3.81-.38-7.63-.66-11.44-1.09a2.41,2.41,0,0,1-1.47-.43c0-.34,0-.68,0-1,0-4,0-7.93-.05-11.89,0-.89-.11-1.78-.17-2.67l0-.27a2,2,0,0,0-3.19-1.23,2.5,2.5,0,0,0-1,1.68,13.1,13.1,0,0,0-.13,1.65c0,3.26,0,6.51,0,9.77,0,1.14,0,2.27,0,3.41-.32.28-.7.15-1,.11q-6-.69-11.91-1.66a1.41,1.41,0,0,1-1-.43c0-.3,0-.61,0-.91V222.77c0-1.14-.11-1.05,1-1.05h12.73c.42,0,.49.08.48.48,0,1-.09,1.9-.14,2.86,0,.3,0,.6-.05.9.28,0,.33-.16.43-.3a11.75,11.75,0,0,1,2.64-2.81,9.74,9.74,0,0,1,5.29-1.92,10.69,10.69,0,0,1,4.28.48,10.18,10.18,0,0,1,4.63,3.37c.37.45.7.93,1,1.41.28,0,.34-.22.45-.38a13.11,13.11,0,0,1,2.79-2.92,9.53,9.53,0,0,1,5.55-2,11.1,11.1,0,0,1,4.35.62,8.77,8.77,0,0,1,4.51,3.76,8.9,8.9,0,0,1,1.1,3.58,47.87,47.87,0,0,1,.36,6c0,4.61,0,9.22,0,13.83,0,.24,0,.49,0,.73a5,5,0,0,1-2.8.2c-2.82-.2-5.64-.32-8.46-.5A6,6,0,0,1,245.39,248.63Z" transform="translate(-118.54 -201.81)"/><path class="q" d="M326.3,247.34a.87.87,0,0,1,.52-.14l1,0c2.2-.08,4.41-.15,6.62-.25s4.42-.23,6.62-.36l5.61-.37q2.34-.16,4.68-.36c.27,0,.55-.07.82-.11a8.12,8.12,0,0,1,.59,2.21,27.2,27.2,0,0,1,.33,6.8,23.44,23.44,0,0,1-1.21,6.41,14.5,14.5,0,0,1-7.39,8.44,24.1,24.1,0,0,1-6.46,2.11,53.71,53.71,0,0,1-7.05.77,103.92,103.92,0,0,1-10.88-.08A85.86,85.86,0,0,1,303.56,270c-.78-.19-.78-.19-.78-.94V255.92c0-.19,0-.37,0-.58a.86.86,0,0,1,.28,0,26,26,0,0,0,4.91,1.18,72.51,72.51,0,0,0,11.21.88,26.09,26.09,0,0,0,4.5-.27,8.66,8.66,0,0,0,1.51-.42,3.82,3.82,0,0,0,2.4-2.73,9.27,9.27,0,0,0-.07-4.65A4.75,4.75,0,0,0,326.3,247.34Z" transform="translate(-118.54 -201.81)"/><path class="p" d="M124,244.38c0-.33,0-.67,0-1V212.21c0-.24,0-.49,0-.73s.09-.41.46-.43h.65c4.76,0,9.53,0,14.29,0a43,43,0,0,1,6.89.48,18.25,18.25,0,0,1,4,1.12,8.93,8.93,0,0,1,5.42,6.33,17.7,17.7,0,0,1,.53,3.55c.1,1.65.2,3.31.19,5s0,3.38,0,5.07a35.24,35.24,0,0,1-.33,5.33,9.65,9.65,0,0,1-1,3.51,4.74,4.74,0,0,1-1.44.3,261.35,261.35,0,0,0-27.78,2.67C125.18,244.46,124.58,244.72,124,244.38Z" transform="translate(-118.54 -201.81)"/><path class="p" d="M263.89,249.58c0-.34,0-.67,0-1,0-3.11,0-6.21,0-9.32,0-1.51.05-3,.19-4.51a19.37,19.37,0,0,1,1.31-5.82,11.43,11.43,0,0,1,5.1-5.76,17,17,0,0,1,6.17-2,24.39,24.39,0,0,1,8.89.4,14.62,14.62,0,0,1,7.81,4.61,13.08,13.08,0,0,1,2.77,5.56,28.71,28.71,0,0,1,.77,5.38c.17,3,.11,6.08.11,9.13a3.67,3.67,0,0,1,0,.46.25.25,0,0,1-.23.24c-.28,0-.55,0-.83,0H279.44c-.28,0-.55,0-.83,0a.31.31,0,0,0-.34.34c0,.25,0,.49,0,.74,0,.64,0,1.29,0,1.93a1.2,1.2,0,0,1-.87.26c-2,0-4,.1-6-.11-1.62-.17-3.26,0-4.88-.07A5.67,5.67,0,0,1,263.89,249.58Z" transform="translate(-118.54 -201.81)"/><path class="q" d="M263.89,249.58c2.41.16,4.84.11,7.25.22s4.72.1,7.08.14c0,.34,0,.67,0,1,0,2,0,3.94,0,5.9,0,1,0,2.09.13,3.14a7.73,7.73,0,0,0,.22,1.26,1.6,1.6,0,0,0,1.54,1.24,3.54,3.54,0,0,0,.46,0,2.09,2.09,0,0,0,2.22-1.69,10.39,10.39,0,0,0,.34-2.28c0-.7,0-1.41,0-2.12,0-1.78,0-3.57,0-5.35,0-.24,0-.49,0-.74a.28.28,0,0,1,.29-.29,5.06,5.06,0,0,1,.55,0h12.09c.82,0,.82,0,.83.81,0,2.24,0,4.49-.14,6.73a14.2,14.2,0,0,1-5,10.22,12.73,12.73,0,0,1-6.36,3,25.8,25.8,0,0,1-10.17-.17,15.31,15.31,0,0,1-6.18-2.74,12.68,12.68,0,0,1-4.57-7.07A20.38,20.38,0,0,1,264,257c-.19-2.24-.17-4.48-.16-6.73C263.84,250.07,263.87,249.83,263.89,249.58Z" transform="translate(-118.54 -201.81)"/><path class="q" d="M124,244.38c2.21-.31,4.43-.63,6.65-.93,1.76-.24,3.52-.47,5.29-.67,1.46-.17,2.93-.3,4.4-.44,1.74-.16,3.48-.33,5.22-.48,1-.08,1.9-.16,2.85-.21l5.15-.25c.34,0,.68-.06,1-.09a.67.67,0,0,1,.44.1,6.28,6.28,0,0,1-1.94,2.42,11,11,0,0,1-4.3,2,19.25,19.25,0,0,1-4.66.58H139.3a.28.28,0,0,0-.28.3c0,.28,0,.55,0,.83q0,10.74,0,21.48c0,1.39.19,1.24-1.21,1.24H125c-1.17,0-1.06.05-1.06-1v-24C123.92,245,124,244.69,124,244.38Z" transform="translate(-118.54 -201.81)"/><path class="q" d="M175.32,241.25a12.81,12.81,0,0,0-.52,3.07c-.14,2-.15,4.05-.15,6.08v18.81c0,1.17.13,1.09-1.08,1.09H161.21c-1.08,0-1,.09-1-1V242c0-.3,0-.61.06-.91a1.35,1.35,0,0,1,1.19-.35c3.7,0,7.39,0,11.08,0A5.57,5.57,0,0,1,175.32,241.25Z" transform="translate(-118.54 -201.81)"/><path class="r" d="M175.32,241.25c-3.49-.23-7-.18-10.46-.18-1.53,0-3.06,0-4.59.05,0-.31,0-.61,0-.92V222.77c0-1.16-.09-1.05,1-1.05h12.45c.81,0,.83,0,.77.81-.09,1.32-.2,2.63-.3,3.95,0,.37-.05.73-.08,1.1.3.06.3-.19.37-.32a16.87,16.87,0,0,1,1.87-2.85A9.37,9.37,0,0,1,181.9,221c1.43-.26,1.24-.22,1.24,1,0,5,0,10.08,0,15.12,0,.83.05.81-.77.85a15.67,15.67,0,0,0-3.47.47A5.32,5.32,0,0,0,175.32,241.25Z" transform="translate(-118.54 -201.81)"/><path class="q" d="M202.68,243.64c0,.31,0,.61,0,.92v24.71c0,1.13.12,1-1,1H188.87c-1.14,0-1.05.05-1.05-1.05V242.88a2.17,2.17,0,0,1,.08-.91,1.34,1.34,0,0,1,1.13-.22c4.2.4,8.4.84,12.58,1.44A1.6,1.6,0,0,1,202.68,243.64Z" transform="translate(-118.54 -201.81)"/><path class="q" d="M207.94,244.43c1.52.24,3,.48,4.55.7s3,.45,4.56.66c1.15.16,2.31.3,3.47.44l1.36.18c0,.3.05.61.05.92v21.94c0,1.13.12,1-1,1h-12c-1.11,0-1,.05-1-1v-24C207.89,245.05,207.93,244.74,207.94,244.43Z" transform="translate(-118.54 -201.81)"/><path class="q" d="M226.6,247l2.55.24,3.1.32c1,.1,1.95.19,2.92.3.79.09,1.58.09,2.37.2,1,.13,2,.16,3,.24,0,.3.06.61.06.91v20.09c0,1.14.1,1-1.05,1H226.85a.3.3,0,0,1-.29-.29c0-.22,0-.43,0-.65V247.79C226.55,247.52,226.58,247.24,226.6,247Z" transform="translate(-118.54 -201.81)"/><path class="r" d="M202.68,243.64c-1.88-.25-3.76-.51-5.64-.74s-3.89-.47-5.84-.67c-1.1-.12-2.2-.17-3.3-.26,0-.3-.05-.61-.05-.91q0-9.12,0-18.24c0-1.25-.05-1.1,1.09-1.1h13.36c.35,0,.41.07.42.45,0,.18,0,.37,0,.55v20.08C202.72,243.09,202.69,243.36,202.68,243.64Z" transform="translate(-118.54 -201.81)"/><path class="q" d="M245.39,248.63l4.58.31.27,0,4.78.24,4.31.2c0,.31.05.61.05.92v19.36c0,.59,0,.61-.63.62h-13.1a.28.28,0,0,1-.3-.28c0-.18,0-.36,0-.55V249.27C245.34,249.06,245.37,248.85,245.39,248.63Z" transform="translate(-118.54 -201.81)"/><path class="s" d="M195.25,218.78h-7.1a.29.29,0,0,1-.29-.3c0-.18,0-.37,0-.55,0-2,0-4,0-6,0-.16,0-.31,0-.46,0-.33.11-.41.47-.42h13.37c1.14,0,1-.08,1,1.06v5.62c0,.22,0,.43,0,.65s-.08.39-.36.4-.49,0-.74,0Z" transform="translate(-118.54 -201.81)"/><path class="t" d="M396,242.18a9.1,9.1,0,0,0-.18,1.55,16.43,16.43,0,0,1-.74,3.88,8.41,8.41,0,0,1-1.81,3.18,8,8,0,0,1-4,2.22,12.53,12.53,0,0,1-3.1.43l-7,0h-.27a.27.27,0,0,1-.29-.28c0-.25,0-.5,0-.74v-7.37c0-.34,0-.68-.05-1s0-.68,0-1V229.59c0-1.07-.09-1,1-1,2.55,0,5.1-.05,7.64.12a16.15,16.15,0,0,1,3.45.57,8.7,8.7,0,0,1,1.21.43,5.82,5.82,0,0,1,3.2,3.38,12.94,12.94,0,0,1,.72,3.13A38.12,38.12,0,0,1,396,241C396,241.39,396,241.78,396,242.18Z" transform="translate(-118.54 -201.81)"/><path class="u" d="M139,228.7v-6.45c0-.25,0-.49,0-.74a.27.27,0,0,1,.29-.28,10.17,10.17,0,0,1,2.46.31,2.34,2.34,0,0,1,1.69,1.67,8.53,8.53,0,0,1,.34,2.45c0,1.94,0,3.88,0,5.81a13.73,13.73,0,0,1-.27,2.47,2.71,2.71,0,0,1-2.44,2.28,7.31,7.31,0,0,1-1.75,0c-.23,0-.32-.15-.32-.36s0-.49,0-.74Z" transform="translate(-118.54 -201.81)"/><path class="v" d="M278.26,234.88c0-1,.08-2.16.15-3.3a7,7,0,0,1,.15-.9,1.3,1.3,0,0,1,1-1.07,3.64,3.64,0,0,1,.72-.13,1.62,1.62,0,0,1,1.84,1.31,8,8,0,0,1,.28,2c0,1.9,0,3.81.05,5.71,0,.41-.07.47-.49.48-1.07,0-2.15,0-3.22,0-.41,0-.49-.09-.5-.49C278.25,237.32,278.26,236.16,278.26,234.88Z" transform="translate(-118.54 -201.81)"/></svg>