<svg xmlns="http://www.w3.org/2000/svg" viewBox="0 0 307.35 89.77"><defs><style>.a{fill:#fff;}</style></defs><path class="a" d="M223.85,289H72.41c-.4,0-.8,0-1.2,0a1,1,0,0,1-1-1c0-.24,0-.49,0-.74,0-3.29,0-6.57,0-9.86,0-.22,0-.44,0-.65a1,1,0,0,1,.92-1,3.46,3.46,0,0,1,.46,0H375.18c.4,0,.8,0,1.2,0a1,1,0,0,1,1.1,1.1c0,.18,0,.37,0,.55q0,5,0,10a4.68,4.68,0,0,1,0,.65,1,1,0,0,1-1,1,7,7,0,0,1-.92,0H223.85Z" transform="translate(-70.15 -199.27)"/><path class="a" d="M308.15,236.55c-.7-.18-.74-.22-.77-.81,0-.24,0-.49,0-.74V200.8a8.44,8.44,0,0,1,0-1,.51.51,0,0,1,.48-.48,6,6,0,0,1,.74,0h29.7a2.81,2.81,0,0,1,.65,0,21.59,21.59,0,0,0,3.77.16,7.76,7.76,0,0,1,1.74.13,4.62,4.62,0,0,0,.65,0,41.61,41.61,0,0,1,10.66,2,21.22,21.22,0,0,1,4.92,2.3,21.66,21.66,0,0,1,3.25,2.56A19,19,0,0,1,367.9,212a24.56,24.56,0,0,1,1.61,4.31c.32,1.25.63,2.51.84,3.78.14.85.21,1.7.33,2.55a22.74,22.74,0,0,1,.2,3.4,5.57,5.57,0,0,0,.1.82,4.64,4.64,0,0,1-.12,2.28c-.11.52-.55.59-1,.69-3.72.94-7.51,1.53-11.29,2.15-3.27.54-6.54,1-9.83,1.38a1.57,1.57,0,0,1-1.32-.18,2,2,0,0,1-.29-1.5,38.68,38.68,0,0,0-.39-5.69,6.18,6.18,0,0,0-5.17-5.61c-3.19-.74-6.42-.54-9.65-.52-.89,0-1.2.4-1.22,1.38,0,1.85,0,3.69,0,5.53,0,2.34,0,4.68,0,7,0,.5.09,1.08-.53,1.36a3.74,3.74,0,0,1-1.5.38c-3.4.33-6.79.58-10.19.85-2.93.23-5.87.47-8.81.6C309.14,237,308.53,237.12,308.15,236.55Z" transform="translate(-70.15 -199.27)"/><path class="a" d="M278.07,238a4,4,0,0,1-.69-.23,10,10,0,0,0-3.17-.94,17.11,17.11,0,0,0-2.48-.15h-3.87a13,13,0,0,0-2.57.15,4.53,4.53,0,0,1-.74,0,11.45,11.45,0,0,0-1.93.13c-.75.12-1.53,0-2.29.18-.31.06-.51-.15-.55-.48a3.38,3.38,0,0,1,0-.55v-5.26a2.43,2.43,0,0,0,0-.27,1.14,1.14,0,0,1,.57-1.08c.54-.36,1.06-.75,1.59-1.11l4.62-3.21,6.94-4.86,2.89-2a2.28,2.28,0,0,0,.63-.53c.06-.1,0-.28-.11-.29a7.55,7.55,0,0,0-.83-.05H256.68c-.27,0-.55,0-.83,0-.5,0-.66-.18-.7-.67,0-.3,0-.61,0-.92V201.18c0-.46,0-.92,0-1.38,0-.3.14-.47.44-.49s.73,0,1.1,0h44.56c.3,0,.61,0,.92,0a.55.55,0,0,1,.6.56,5.24,5.24,0,0,1,0,.56q0,7.7,0,15.39a1.61,1.61,0,0,1-.84,1.6.91.91,0,0,0-.16.11c-2.93,2-5.87,3.94-8.79,5.92-2.22,1.5-4.42,3-6.62,4.53a3.46,3.46,0,0,0-.44.34.15.15,0,0,0,0,.16s.09.07.14.09h.09c.58-.06,1.16-.1,1.74-.2a24,24,0,0,1,5.15-.1,13.6,13.6,0,0,1,5.72,1.63,9.85,9.85,0,0,1,4,4.06,11.67,11.67,0,0,1,.93,2.11.3.3,0,0,1-.23.42l-.71.19c-.15.44-.55.44-.91.49-2.25.33-4.52.38-6.79.54-4.16.29-8.33.45-12.5.72-1.14.07-2.27,0-3.41,0A1.55,1.55,0,0,1,278.07,238Z" transform="translate(-70.15 -199.27)"/><path class="a" d="M347.61,233c1.16-.13,2.32-.25,3.47-.42,2.44-.34,4.87-.67,7.3-1.06,4.19-.66,8.36-1.38,12.48-2.4a1.46,1.46,0,0,1,.15,1c-.05,1.35-.08,2.7-.19,4a49.72,49.72,0,0,1-.88,6.3,32.64,32.64,0,0,1-3.37,9.32,22.3,22.3,0,0,1-14.15,10.88,32.52,32.52,0,0,1-5.63,1c-1.38.13-2.76.15-4.14.15H308.88c-.34,0-.68,0-1,0s-.45-.13-.47-.44a6.19,6.19,0,0,1,0-.74v-23c0-.81,0-.81.79-1.09.55,0,1.1,0,1.65,0q3.26-.22,6.51-.48l2.85-.21c2.59-.21,5.19-.4,7.79-.62,1-.09,2.07-.22,3.11-.32.66.13.63.67.64,1.15,0,2,0,3.93,0,5.9,0,1.69.2,1.91,1.93,1.87a49.78,49.78,0,0,0,6.8-.16c4.15-.66,6.32-2.72,7.16-6.83A22.65,22.65,0,0,0,347,234C347,233.57,347,233.1,347.61,233Z" transform="translate(-70.15 -199.27)"/><path class="a" d="M178.17,237.84V225.59a9.44,9.44,0,0,0-.13-1.84,6.64,6.64,0,0,1-.06-1.1,3.77,3.77,0,0,0-.14-1,2,2,0,0,0-3-1,2.85,2.85,0,0,0-1.29,2.23c0,.31,0,.61,0,.92v11.7c0,.28,0,.55,0,.83,0,.59-.07.63-.77.81-.3.49-.8.43-1.24.37-3.72-.5-7.44-.94-11.13-1.61-.25-.06-.51-.1-.64-.36a1.45,1.45,0,0,0-.22-.21c0-.43,0-.86,0-1.29V214.1c0-.24,0-.49,0-.73,0-.65.18-.78.85-.81h12.08c1.23,0,1.29.07,1.27,1.32,0,.37-.06.74-.09,1.1s-.06.74-.08,1.1c0,.15,0,.34.12.42s.26-.11.35-.22a17.35,17.35,0,0,1,1.24-1.48,12.79,12.79,0,0,1,1.69-1.43,10.76,10.76,0,0,1,7.93-1.51,9.12,9.12,0,0,1,4.75,2.48,15,15,0,0,1,1.84,2.06,3.25,3.25,0,0,0,.23.29.31.31,0,0,0,.48,0c.3-.36.58-.72.87-1.08a10.44,10.44,0,0,1,5.62-3.63,10.1,10.1,0,0,1,6.77.54,8.08,8.08,0,0,1,5,6.34,20.42,20.42,0,0,1,.35,4.12,6.23,6.23,0,0,0,.09,1.29,6.71,6.71,0,0,1,.09,1.1v13.73a2,2,0,0,1-.2,1.16c-.29.48-.79.42-1.23.43-1.66,0-3.3-.16-5-.23s-3.55-.19-5.32-.32a3.3,3.3,0,0,1-2.33-.63v-11.8a9.15,9.15,0,0,0-.11-1.65,5.09,5.09,0,0,1-.07-1.1,19.4,19.4,0,0,0-.19-2.85,2.09,2.09,0,0,0-3.38-1.35,1.87,1.87,0,0,0-.63,1.1,6.33,6.33,0,0,0-.23,1.73,8.14,8.14,0,0,1-.12,1.56,6.85,6.85,0,0,0-.06,1.2q0,6.41,0,12.81a1.17,1.17,0,0,1-1.08.38q-5.82-.48-11.62-1.1A1.84,1.84,0,0,1,178.17,237.84Z" transform="translate(-70.15 -199.27)"/><path class="a" d="M278.07,238l4.5-.09c.68,0,1.35-.07,2-.11l5.78-.32,3.31-.19,4.13-.24c1.65-.12,3.29-.27,4.94-.4,1,0,1.08-.25,1.39,1.12a25.78,25.78,0,0,1,.57,7.33,27.33,27.33,0,0,1-.67,4.92,16.53,16.53,0,0,1-3,6.38,15.14,15.14,0,0,1-5.92,4.43,26.07,26.07,0,0,1-6.55,1.85,48.62,48.62,0,0,1-6.6.6c-1.48,0-2.95.16-4.43.09-2.3-.1-4.6-.11-6.91-.26a92.34,92.34,0,0,1-9.79-1.16c-1.9-.33-3.79-.76-5.68-1.2a3.19,3.19,0,0,1-.44-.13.45.45,0,0,1-.33-.4c0-.22,0-.43,0-.65V247.16a4.57,4.57,0,0,1,0-.64c0-.22.16-.31.39-.26l.27.07a31.3,31.3,0,0,0,5.67,1.22,73.6,73.6,0,0,0,10.38.72,23.1,23.1,0,0,0,4.23-.3,7.15,7.15,0,0,0,1.42-.4,3.93,3.93,0,0,0,2.49-3,9.56,9.56,0,0,0,0-4,4.32,4.32,0,0,0-.91-1.89C278.18,238.49,278,238.32,278.07,238Z" transform="translate(-70.15 -199.27)"/><path class="a" d="M76.15,235.09a.68.68,0,0,1-.6-.7c0-.22,0-.43,0-.65v-30.5a7.58,7.58,0,0,1,0-.83.54.54,0,0,1,.54-.53,5.24,5.24,0,0,1,.56,0c5.62,0,11.25-.06,16.87,0a24.41,24.41,0,0,1,6.73,1,13,13,0,0,1,3.35,1.52,8.41,8.41,0,0,1,3,3.46,13.52,13.52,0,0,1,1.1,4.35,49.24,49.24,0,0,1,.16,5.43c0,2.88,0,5.77,0,8.66a16,16,0,0,1-.82,4.89,1.94,1.94,0,0,1-.52.95,1.91,1.91,0,0,1-1.38.6c-3.25,0-6.48.34-9.72.6q-6.28.51-12.52,1.35c-1.8.24-3.59.51-5.38.73C77,235.47,76.5,235.6,76.15,235.09Z" transform="translate(-70.15 -199.27)"/><path class="a" d="M213.35,240.45c0-4.43-.08-8.85,0-13.27a20.92,20.92,0,0,1,1.13-6.78,11.77,11.77,0,0,1,3.12-4.83,12.55,12.55,0,0,1,3.56-2.27,21.34,21.34,0,0,1,2.06-.79,20.67,20.67,0,0,1,4.52-.83,14.68,14.68,0,0,1,3.86.08c.58.1,1.16.1,1.74.19a16.59,16.59,0,0,1,7.8,3.33,11.77,11.77,0,0,1,3,3.56,16.61,16.61,0,0,1,1.86,6,35.17,35.17,0,0,1,.35,5.23c0,2,0,4,0,6,0,1.54,0,1.55-1.51,1.55H228.63c-.73,0-.87.16-.89.86,0,.46,0,.92,0,1.38,0,.31,0,.62,0,.92-.42.49-1,.4-1.54.42-3,.14-6-.23-9.06-.18-.78,0-1.56,0-2.34-.09C214.28,240.84,213.73,240.88,213.35,240.45Z" transform="translate(-70.15 -199.27)"/><path class="a" d="M219.13,240.56l.55,0c3.23,0,6.46.23,9.7.2h.46c0,2.56,0,5.11,0,7.66a21.3,21.3,0,0,0,.17,2.76,5,5,0,0,0,.25,1.07,1.49,1.49,0,0,0,1,1,3.18,3.18,0,0,0,1.73,0,1.93,1.93,0,0,0,1.24-1.16,5.61,5.61,0,0,0,.34-1.34,20.07,20.07,0,0,0,.19-2.57q0-3,0-6c0-1.27,0-1.27,1.28-1.27h11.17c1.23,0,1.24,0,1.24,1.22,0,1.57,0,3.14,0,4.71a24.91,24.91,0,0,1-.38,3.94,7.59,7.59,0,0,1-.3,1.25,15,15,0,0,1-4.9,7,12.89,12.89,0,0,1-5.69,2.52,25.15,25.15,0,0,1-11.6-.47,16.08,16.08,0,0,1-3.4-1.42,12.46,12.46,0,0,1-6-7.74,20.37,20.37,0,0,1-.63-3.72,76.9,76.9,0,0,1-.15-7.74l1.4,0C217.62,240.62,218.39,240.38,219.13,240.56Z" transform="translate(-70.15 -199.27)"/><path class="a" d="M76.15,235.09a14.77,14.77,0,0,0,2.29-.28c2.73-.39,5.47-.76,8.22-1.06,2.08-.22,4.15-.47,6.23-.67,1.83-.17,3.67-.29,5.51-.43l4.14-.29c.39,0,.79,0,1.19-.06l2.76-.17a1.24,1.24,0,0,1-.36.92,7.46,7.46,0,0,1-1.94,1.94,11.84,11.84,0,0,1-4.77,1.89,21.38,21.38,0,0,1-4.3.4H91.8c-.25,0-.49,0-.74,0a.42.42,0,0,0-.41.42c0,.33,0,.67,0,1v20.91c0,.34,0,.68,0,1a.41.41,0,0,1-.41.42c-.24,0-.49,0-.73,0H76.71c-1.16,0-1.16,0-1.17-1.19V236.33a2.16,2.16,0,0,0,0-.36A.75.75,0,0,1,76.15,235.09Z" transform="translate(-70.15 -199.27)"/><path class="a" d="M124.77,232a7.42,7.42,0,0,0,1.56.14c.42,0,.51.14.42.52a18.24,18.24,0,0,0-.45,4.29q0,6,0,12c0,3.69,0,7.37,0,11.06,0,1.16,0,1.17-1.19,1.17H112.88c-1.07,0-1.1,0-1.1-1.07,0-1.94,0-3.87,0-5.81q0-10.46,0-20.91a3.34,3.34,0,0,1,.13-1.37,1.23,1.23,0,0,1,1.14-.47c3.57,0,7.13,0,10.7,0C124.14,231.49,124.57,231.48,124.77,232Z" transform="translate(-70.15 -199.27)"/><path class="a" d="M124.77,232l-4.31,0-8.55,0q0-8.83,0-17.68c0-.4,0-.8,0-1.2s.12-.48.51-.51h12.35a7.77,7.77,0,0,1,.83,0,.52.52,0,0,1,.51.55,4.69,4.69,0,0,1,0,.92,6.59,6.59,0,0,0-.12,1.47,5.33,5.33,0,0,1-.11,1.19,2,2,0,0,0-.06.54c0,.26-.15.64.19.71s.29-.35.41-.55a13.83,13.83,0,0,1,2.25-3,9.71,9.71,0,0,1,5.46-2.67c.5-.07.66.06.71.58,0,.21,0,.43,0,.64v14.46c0,.25,0,.5,0,.74,0,.43-.2.57-.65.62h-.28a11.41,11.41,0,0,0-3.19.42,5.21,5.21,0,0,0-3.33,2.13,1.24,1.24,0,0,1-1.17.59C125.7,231.9,125.23,231.93,124.77,232Z" transform="translate(-70.15 -199.27)"/><path class="a" d="M153.59,234.33a2,2,0,0,0,.34.14.49.49,0,0,1,.39.54c0,.22,0,.43,0,.65V259.9a5.94,5.94,0,0,1,0,.73c0,.3-.16.43-.48.46s-.49,0-.73,0H140.63c-.21,0-.43,0-.64,0-.41,0-.52-.15-.55-.59,0-.24,0-.49,0-.73V234.05c0-.28,0-.55,0-.83a.45.45,0,0,1,.31-.41,1,1,0,0,1,1.07-.37c3.88.32,7.74.8,11.59,1.31C152.84,233.81,153.37,233.8,153.59,234.33Z" transform="translate(-70.15 -199.27)"/><path class="a" d="M160.25,235.39c2.62.45,5.25.82,7.88,1.17l3.45.47c.4.05.79.05,1.19.08l.43.16a.41.41,0,0,1,.31.4c0,.25,0,.49,0,.74q0,10.74,0,21.48c0,.25,0,.49,0,.74s-.16.43-.48.46-.49,0-.73,0H160.76c-1.25,0-1.25,0-1.25-1.29q0-11.76,0-23.51c0-.34,0-.68,0-1l.12,0C159.84,235.38,160.07,235.28,160.25,235.39Z" transform="translate(-70.15 -199.27)"/><path class="a" d="M178.17,237.84l2.2.19c2.2.22,4.39.46,6.59.66,1.74.17,3.48.3,5.23.44,0,.59,0,1.17,0,1.75v18.8c0,.34,0,.68,0,1a.38.38,0,0,1-.35.37,6.13,6.13,0,0,1-.74.05H178.91c-.64,0-.71-.11-.74-.78a2.44,2.44,0,0,1,0-.27Q178.18,248.93,178.17,237.84Z" transform="translate(-70.15 -199.27)"/><path class="a" d="M153.59,234.33a15.88,15.88,0,0,1-2.29-.25c-2.29-.26-4.57-.57-6.86-.83-1.56-.17-3.12-.3-4.68-.44a1.12,1.12,0,0,1-.35-.82c0-.22,0-.43,0-.65V214c0-.21,0-.43,0-.64,0-.63.17-.77.76-.81h12.92a6.12,6.12,0,0,1,.74,0,.48.48,0,0,1,.48.47,4.47,4.47,0,0,1,0,.73q0,9.63,0,19.27c0,.15,0,.31,0,.46C154.31,234.12,154.28,234.16,153.59,234.33Z" transform="translate(-70.15 -199.27)"/><path class="a" d="M197,239.48c1.5.1,3,.21,4.49.3,1,.07,2,.13,3,.17,2.11.08,4.21.3,6.32.28a1.88,1.88,0,0,1,.16,1.07c0,1.91,0,3.82,0,5.72v12.73c0,1.4,0,1.36-1.38,1.36H198.35c-.27,0-.55,0-.83,0s-.52-.15-.55-.58c0-.25,0-.5,0-.74q0-9.64,0-19.27C197,240.16,197,239.82,197,239.48Z" transform="translate(-70.15 -199.27)"/><path class="a" d="M146.88,209.6c-2.09,0-4.18,0-6.27,0-1.14,0-1.2-.07-1.2-1.2,0-1.81,0-3.62,0-5.44,0-1,.1-1.1,1.11-1.1q6.36,0,12.72,0c1,0,1.11.09,1.11,1.11q0,2.76,0,5.52c0,1-.09,1.1-1.11,1.11C151.12,209.61,149,209.6,146.88,209.6Z" transform="translate(-70.15 -199.27)"/><path class="a" d="M160.25,235.39a1,1,0,0,1-.59-.13A.94.94,0,0,1,160.25,235.39Z" transform="translate(-70.15 -199.27)"/><path class="a" d="M219.13,240.56a7.78,7.78,0,0,1-2.26-.14l1.37,0A1.81,1.81,0,0,1,219.13,240.56Z" transform="translate(-70.15 -199.27)"/></svg>