<svg xmlns="http://www.w3.org/2000/svg" viewBox="0 0 219.27 205.69"><defs><style>.a,.b{fill:#fff;}.b,.c{stroke:#fff;stroke-miterlimit:10;stroke-width:2px;}.c{fill:none;}</style></defs><path class="a" d="M235.77,249.21l-9.62-1.48c-4.26-.65-8.53-1.28-12.79-2a4,4,0,0,1-3.59-4.56c.39-2.41,2.31-3.75,4.9-3.35,7.29,1.11,14.59,2.21,21.88,3.36,1,.17,1.53,0,1.89-1.1a65.59,65.59,0,0,1,6.65-13.73c-.92-.57-1.79-1.11-2.67-1.64-2.09-1.26-4.2-2.48-6.26-3.77a4,4,0,0,1-1.39-5.45,3.94,3.94,0,0,1,5.51-1.41c2.8,1.62,5.55,3.32,8.33,5l1,.57L260.46,209c-2.29-2.83-4.67-5.78-7.06-8.72l-13.66-16.85c-1.69-2.08-1.56-4.57.3-6.06s4.28-1,6,1.05l20.46,25.23c.25.31.52.6.81.94A68.77,68.77,0,0,1,283,197.51,70,70,0,0,1,300,194.59V193.2c0-7.64,0-15.27,0-22.9a4,4,0,0,1,7.68-1.57,6.66,6.66,0,0,1,.33,2.23c0,7.35,0,14.7,0,22.06v1.55c2.63.38,5.15.72,7.66,1.13a35.64,35.64,0,0,1,4,.85c.83.23,1.17,0,1.5-.77,5-11.63,10-23.23,14.91-34.86a4.1,4.1,0,0,1,3.51-2.85c3.22-.28,5.3,2.75,4,5.82-2.31,5.48-4.68,10.94-7,16.4l-8,18.78,13,6.79,7.51-8.89q9.58-11.35,19.16-22.72a4,4,0,0,1,4.27-1.48,3.82,3.82,0,0,1,2.94,3.15,4.22,4.22,0,0,1-1.18,3.73q-10.83,12.81-21.65,25.65c-1.54,1.83-3.08,3.67-4.72,5.6l1,.88a69.36,69.36,0,0,1,18,24.66c.38.89.77,1.05,1.7.8,8.22-2.27,16.45-4.49,24.69-6.72,3.28-.88,5.93,1.19,5.56,4.33-.2,1.74-1.35,2.91-3.47,3.48l-23.23,6.28-2,.56c.63,2.58,1.3,5.08,1.83,7.61.38,1.75.61,3.54.83,5.32a2.59,2.59,0,0,1-3.16,3c-8.53-1.29-17-2.78-25.59-3.81-7.93-1-15.9-1.57-23.87-2.07a345.2,345.2,0,0,0-35.24-.29,301.66,301.66,0,0,0-46,5.17l-1.18.21a2.58,2.58,0,0,1-3.1-2.94c.28-2.38.65-4.74,1-7.11C235.72,250,235.73,249.63,235.77,249.21ZM322,199.35c-.37-.08-.6-.12-.83-.18a62,62,0,0,0-13.92-2.29c-1.15,0-1.44-.46-1.43-1.57.06-8,.05-16.07.05-24.1a5.68,5.68,0,0,0-.15-1.54,1.66,1.66,0,0,0-1.82-1.25,1.71,1.71,0,0,0-1.69,1.57,7.85,7.85,0,0,0,0,1.19q0,12,0,24v1.53a67,67,0,0,0-35.42,10.75c-.35-.41-.63-.74-.9-1.08L244.67,180.2a11.36,11.36,0,0,0-.77-.92,1.85,1.85,0,0,0-2.5-.21,1.87,1.87,0,0,0-.33,2.49,10.91,10.91,0,0,0,.73.95q10.5,12.93,21,25.88c.29.36.58.74.94,1.2a68.05,68.05,0,0,0-13.39,13.08l-3.11-1.86-7.81-4.69a1.72,1.72,0,0,0-2.31.07,2.7,2.7,0,0,0-.53,1.91c.07.47.66,1,1.14,1.27,3.09,1.9,6.22,3.76,9.33,5.63.36.22.7.47,1.07.72l-.72,1.13A63.05,63.05,0,0,0,240,242.36c-.39,1.26-.91,1.46-2.1,1.27-7.81-1.24-15.62-2.42-23.44-3.6-1.41-.22-2.28.29-2.47,1.4s.48,2,1.94,2.2l18.58,2.86c2,.3,3.92.62,5.94.94-.05.36-.09.59-.12.81-.46,2.92-.91,5.84-1.38,8.75-.16.95,0,1.28,1.11,1.07a313.26,313.26,0,0,1,55.49-5.52,387.86,387.86,0,0,1,41.19,1.56c11.66,1,23.25,2.59,34.76,4.73a10.73,10.73,0,0,0,1.23.08c-.33-5.34-1.81-10.25-3.33-15.21.43-.14.76-.26,1.11-.35l22.07-6c1.61-.44,3.24-.84,4.84-1.33a1.75,1.75,0,0,0,1.25-2.26,1.83,1.83,0,0,0-2.25-1.27c-.27.05-.54.13-.81.2l-18,4.89c-3.11.85-6.23,1.68-9.44,2.54a68.25,68.25,0,0,0-21.27-28.95l1.11-1.33,26.35-31.25a6.69,6.69,0,0,0,.86-1.14,1.67,1.67,0,0,0-.41-2.17,1.73,1.73,0,0,0-2.31-.1,5.41,5.41,0,0,0-.9,1l-26.75,31.7c-.3.36-.62.71-1,1.1a70.63,70.63,0,0,0-16.23-8.4c.23-.6.41-1.08.61-1.55q7.56-17.67,15.14-35.33a7,7,0,0,0,.46-1.23,1.7,1.7,0,0,0-1.05-2.05,1.68,1.68,0,0,0-2.15.52,5.34,5.34,0,0,0-.61,1.16L327.6,186.39C325.77,190.68,323.92,195,322,199.35Z" transform="translate(-189.93 -158.05)"/><path class="b" d="M222.69,298.54c1.24,1.08,2.54,2.19,3.81,3.34a2.59,2.59,0,0,1,.34,4q-3.59,4.42-7.21,8.82a2.6,2.6,0,0,1-4.08.37c-1.64-1.33-3.26-2.7-4.89-4.05-.3-.24-.62-.46-1.06-.79-.07.84-.12,1.51-.18,2.18a2.46,2.46,0,0,1-2.47,2.44c-4.6-.05-9.19-.13-13.78-.27a2.42,2.42,0,0,1-2.24-2.75q.13-6.46.32-12.94.44-14.67.87-29.35c.07-2.46.88-3.29,3.31-3.36,4.91-.13,9.83-.45,14.74-.4a23.66,23.66,0,0,1,6.91,1.2,13.17,13.17,0,0,1,8.56,8.45,25.17,25.17,0,0,1-.47,18.82A39.47,39.47,0,0,1,222.69,298.54Zm-14.38-8.6a6.33,6.33,0,0,0,4.22-7,4.31,4.31,0,0,0-4.22-3.83Z" transform="translate(-189.93 -158.05)"/><path class="b" d="M251.49,277.57l2-7.23c.34-1.22.65-2.46,1-3.68a2.68,2.68,0,0,1,3.38-2.06l11.91,2c2.37.4,3.16,1.7,2.39,4-3.06,9.36-6.15,18.72-9.2,28.09a9.36,9.36,0,0,0-.46,2.68c-.09,3.28-.1,6.55-.13,9.83,0,2.26-.91,3.16-3.12,3.13l-15.94-.3c-1.95,0-2.89-1-3-3-.11-3.07-.15-6.15-.3-9.22a11.06,11.06,0,0,0-.52-3q-4.81-14.08-9.68-28.15a7.5,7.5,0,0,1-.5-1.84,2.6,2.6,0,0,1,2.65-2.67q6.87-.39,13.76-.73a2.71,2.71,0,0,1,3.11,2.34Z" transform="translate(-189.93 -158.05)"/><path class="b" d="M366.53,361.15a29.78,29.78,0,0,1-10.44-1.91,3.21,3.21,0,0,1-2.26-3.25c-.34-7.74-.76-15.47-1.2-23.21-.19-3.39-.49-6.77-.73-10.15a2.56,2.56,0,0,1,3.13-2.92c6.62,1.53,13.15,3.37,18.9,7.19,7.43,5,11.1,12,10.78,20.9-.18,5-2.72,8.67-7.17,11A24.38,24.38,0,0,1,366.53,361.15Zm.89-13.15c.94,0,1.7,0,2.44-.13a1.2,1.2,0,0,0,1.17-1.48c-.31-2.76-1.86-4.62-4.37-6.12C366.92,343,367.16,345.39,367.42,348Z" transform="translate(-189.93 -158.05)"/><path class="b" d="M341.92,342.86c1.69-.42,3.26-.86,4.85-1.2a9,9,0,0,1,2.14-.15c2.22.07,3.14,1.08,3.19,3.29s.25,4.7.26,7.05c0,1.83-.58,2.46-2.36,2.94-4.21,1.13-7.91,3.37-11.64,5.53-1.07.61-2.09,1.32-3.18,1.91a3.82,3.82,0,0,1-1.68.51c-1.7,0-2.14-.57-2.24-2.28-.45-7.57-1-15.13-1.38-22.71-.23-4.46-.26-8.93-.39-13.4a3,3,0,0,1,1.45-2.72,17,17,0,0,1,7.61-2.66c1.89-.21,2.92,1.18,2.94,3.19.05,6.78.2,13.56.32,20.34A1.6,1.6,0,0,0,341.92,342.86Z" transform="translate(-189.93 -158.05)"/><path class="a" d="M243.56,357.74c-.66,2.22-2.28,2.79-4.12,3.18-2.42.5-4.81,1.16-7.21,1.75-2.19.54-3.31.15-4-2-1.41-4.1-2.74-8.24-3.85-12.43-2-7.47-3.76-15-5.62-22.49a2.44,2.44,0,0,1,1.87-3.19c2.4-.61,4.8-1.18,7.2-1.76,1.85-.44,3,.13,3.58,2,.84,2.95,1.51,5.95,2.25,8.93a4.11,4.11,0,0,0,.68,1.61c.42-2.34,1-4.68,1.23-7,.17-1.57.72-2.73,2.17-3.26,3-1.1,6-2.2,9-3.09a2.51,2.51,0,0,1,3.1,3.09,13.74,13.74,0,0,1-.66,2.54,8.7,8.7,0,0,0,.4,6.81c.11-.58.24-1.15.33-1.74.34-2.24.56-4.52,1.06-6.73a3.34,3.34,0,0,1,1.54-2.21,93,93,0,0,1,9.86-3.21c1.82-.48,3.15,1.14,2.84,3.11q-1.31,8.16-2.64,16.31c-.92,5.67-1.89,11.34-2.75,17a4.44,4.44,0,0,1-2.12,3.29,26.78,26.78,0,0,1-10.48,3.51,2.45,2.45,0,0,1-2.56-1.62C244.31,359.41,244,358.69,243.56,357.74Zm-9.37-14.21-.37,0c-.66-3.15-1.27-6.32-2-9.46-.76-3.38-1.62-6.74-2.42-10.12-.22-.91-.64-1.19-1.62-.9-1.91.57-3.85,1-5.81,1.43-1,.2-1.18.64-.94,1.57,1.69,6.73,3.26,13.48,5,20.19,1.18,4.46,2.64,8.85,4,13.28.3,1,.85,1.27,1.88,1,2.46-.68,4.94-1.32,7.44-1.82a2.6,2.6,0,0,0,2.3-2.34c.34-2,.64-3.94,1-5.9.1-.54.26-1.06.4-1.59a1.21,1.21,0,0,1,.47.69l2.88,9.11a1,1,0,0,0,1.45.79c2.54-.82,5.09-1.58,7.61-2.45a3.51,3.51,0,0,0,2.32-3.15c1.43-9.26,3-18.51,4.46-27.76.28-1.75.54-3.5.8-5.21-.23-.11-.31-.18-.37-.16-3,.92-5.93,1.82-8.87,2.8a1.42,1.42,0,0,0-.68,1c-.77,4.27-1.46,8.56-2.23,12.84-.3,1.65-.77,3.28-1.15,4.92a1.54,1.54,0,0,1-.61-.91c-.81-3.49-1.54-7-2.45-10.47a9.1,9.1,0,0,1,.14-4.94c.29-1,.55-2,.79-3,.16-.65-.12-.94-.77-.72-2.68.9-5.36,1.78-8,2.76a1.85,1.85,0,0,0-1,1.18c-.72,3.47-1.3,7-2,10.45C235.34,338.91,234.73,341.22,234.19,343.53Z" transform="translate(-189.93 -158.05)"/><path class="a" d="M337.42,304c0,2.42,0,4.73,0,7s-.95,3.26-3.16,3.24q-6.35-.06-12.7-.16c-2.19,0-3.13-1.12-3-3.34q.84-15.56,1.67-31.1.33-6.11.69-12.2a2.46,2.46,0,0,1,2.63-2.51c4.11.23,8.21.53,12.31.82a2.76,2.76,0,0,1,2.46,2c.82,2.1,1.67,4.18,2.7,6.22,0-1.85,0-3.7,0-5.55,0-2.42.93-3.41,3.33-3.22q5.79.45,11.57,1c2.19.21,2.83,1,2.92,3.15q.87,20.65,1.71,41.3c.09,2.22-.8,3.15-3,3.2l-13.54.27c-2,0-2.55-.36-3.28-2.14C339.6,309.42,338.53,306.77,337.42,304Zm5.75-36.69c0,.71,0,1.18,0,1.65q.15,7.13.29,14.26a3.37,3.37,0,0,1,0,.84,1.94,1.94,0,0,1-.31.56c-.18-.12-.42-.2-.53-.37a4.53,4.53,0,0,1-.39-.87c-1.91-4.78-3.81-9.57-5.77-14.33-.19-.46-.73-1.07-1.15-1.11-3.73-.33-7.49-.54-11.23-.82-.82-.06-1,.28-1.05,1,0,1.68-.17,3.36-.26,5q-1,18.8-2.05,37.58c-.06,1,.24,1.24,1.18,1.25,4,0,8,0,12,.14,1.15,0,1.42-.33,1.38-1.43-.21-5.3-.36-10.62-.52-15.93a9.91,9.91,0,0,1,.09-1.33l.35-.11a8,8,0,0,1,.65,1.09q3.39,8.25,6.72,16.52a1.43,1.43,0,0,0,1.57,1.1q6.53-.21,13.06-.28c1,0,1.27-.32,1.23-1.33-.33-7-.59-13.89-.87-20.84-.28-6.62-.59-13.25-.82-19.88,0-1.07-.49-1.34-1.44-1.39-1.63-.08-3.26-.28-4.89-.42Z" transform="translate(-189.93 -158.05)"/><path class="a" d="M386.93,297.93c-1.8-1.17-3.56-2.14-5.12-3.36-4.44-3.48-6.17-8.19-5.86-13.72.47-8.33,5.71-12.2,11.91-14.13A47.89,47.89,0,0,1,403.62,265a2.43,2.43,0,0,1,2.36,2.54c-.18,4.75-.39,9.5-.68,14.24-.12,1.89-2.08,2.72-3.9,1.89a24.4,24.4,0,0,0-4.12-1.56c-1.21-.3-2.55-.38-3.52,1.09a21.81,21.81,0,0,0,2.14,1.37c2,1,4,1.83,6,2.76,4.08,1.9,6.85,4.87,7.27,9.5a15.6,15.6,0,0,1-11.08,16.05,33.25,33.25,0,0,1-20.61-.68c-1.76-.64-2.26-1.39-2.15-3.24.17-2.78.36-5.57.54-8.36.13-2.1,1.64-3.18,3.62-2.53A11.73,11.73,0,0,0,386.93,297.93Zm15.91-16.12c.15-.25.22-.32.22-.39.25-4.46.5-8.93.68-13.4,0-.26-.53-.77-.83-.79a39.23,39.23,0,0,0-4.2,0,36,36,0,0,0-12.39,2.39c-3.06,1.32-5.62,3.26-7,6.39-2.17,4.95-2,13.18,5,17.7,1.27.82,2.65,1.48,3.94,2.26.82.5,1.87,1.13,1.53,2.17-.23.72-1.19,1.23-1.88,1.78a2.88,2.88,0,0,1-1,.35,13.31,13.31,0,0,1-7.78,0c-.7-.22-1-.16-1.09.67-.14,2.51-.25,5-.51,7.52-.13,1.18.36,1.6,1.37,1.94a32.15,32.15,0,0,0,17.37.67,13.48,13.48,0,0,0,9.76-8.24c2.53-5.72.44-11-5.26-13.56-1.79-.8-3.59-1.57-5.34-2.44a14.54,14.54,0,0,1-2.71-1.74,2.42,2.42,0,0,1-.07-4,4.93,4.93,0,0,1,2-1c2.42-.65,4.65.08,6.82,1.12Z" transform="translate(-189.93 -158.05)"/><path class="a" d="M293.87,265.44c2.84,0,5.67,0,8.51,0,2.11,0,2.84.54,3.35,2.61l9.39,38.25c.32,1.28.66,2.56.94,3.84.45,2-.54,3.33-2.64,3.52q-6,.55-12.05,1.13c-2.11.21-3.09-.53-3.5-2.65-.31-1.64-.69-3.28-.95-4.93-.12-.77-.47-1-1.19-.95-1.56.06-3.12.07-4.68.05a.93.93,0,0,0-1.11.91c-.31,1.81-.7,3.61-1.1,5.4a2.49,2.49,0,0,1-3,2.28q-6.39-.48-12.77-1.07c-1.89-.18-2.76-1.67-2.24-3.7,1.35-5.29,2.73-10.57,4.09-15.86l6.64-25.69c.55-2.13,1.13-2.68,3.29-2.72,3-.06,6,0,9,0Zm20.06,45.94c-.07-.54-.08-.94-.17-1.31q-5.06-20.55-10.08-41.11c-.24-1-.6-1.36-1.66-1.32-5.47.19-10.94.34-16.41.39-1.31,0-1.76.49-2.06,1.68-2.59,10.2-5.24,20.38-7.87,30.57-.86,3.36-1.73,6.71-2.58,10.07-.15.58-.4,1.23.6,1.31,3.94.33,7.87.64,11.81,1,.88.08,1.17-.27,1.31-1.09.37-2.12.88-4.22,1.26-6.34a1.19,1.19,0,0,1,1.37-1.13c2.68,0,5.35,0,8-.07a1.09,1.09,0,0,1,1.27,1.07c.27,1.61.6,3.21.92,4.82.53,2.63.54,2.67,3.21,2.46C306.5,312.1,310.1,311.73,313.93,311.38Z" transform="translate(-189.93 -158.05)"/><path class="a" d="M319.73,341.38l9.14,9.89c.27.29.57.55.83.86a2.54,2.54,0,0,1-.45,3.79c-1.77,1.29-3.56,2.55-5.37,3.8a2.47,2.47,0,0,1-3.38-.32c-2.65-2.59-5.23-5.26-7.84-7.9-.3-.3-.58-.62-1-1.06-.11,2.53-.24,4.86-.32,7.19a3,3,0,0,1-1.94,2.88c-1.82.82-3.6,1.72-5.4,2.58-2.5,1.19-4.29.16-4.23-2.57.19-9,.46-18,.73-26.94.07-2.11.29-4.22.41-6.33a3.41,3.41,0,0,1,1.64-2.79c5.87-3.71,12.15-6,19.23-5a8.25,8.25,0,0,1,6.32,4.46c1.16,2.17.86,4.42.32,6.65a13.52,13.52,0,0,1-4,6.45C323,338.45,321.48,339.78,319.73,341.38Zm-3-.4,1.2-1.05c1.7-1.51,3.46-3,5.1-4.54a11.38,11.38,0,0,0,3.49-6.15c.79-4.06-1.05-6.44-4.53-7.49a9.9,9.9,0,0,0-2.48-.35c-5.23-.11-9.93,1.65-14.48,4a3.44,3.44,0,0,0-2,3.22c-.31,10.46-.67,20.92-1,31.38,0,.41.07.83.1,1.24a2,2,0,0,0,.51,0c2-.95,4.05-1.89,6-2.9a1.3,1.3,0,0,0,.47-1c.13-2.51.18-5,.29-7.54.06-1.37.18-2.74.29-4.41.7.59,1.19.92,1.59,1.34,1.26,1.33,2.47,2.72,3.75,4,2.17,2.23,4.39,4.43,6.58,6.64a1,1,0,0,0,1.53.07c1.35-1,2.76-2,4.2-3,.78-.51.86-.88.19-1.55-1.45-1.44-2.87-2.9-4.23-4.42C321.09,346.13,319,343.6,316.69,341Z" transform="translate(-189.93 -158.05)"/><path class="a" d="M299.83,341.68a22.38,22.38,0,0,1-8.78,16.62c-7.92,6.28-17.26,5.14-23.35-2.9-4.93-6.5-4.94-13.72-2.27-21A19.28,19.28,0,0,1,277.91,322c7.46-2.43,14.25,0,18.5,6.63C298.64,332.08,299.83,336.17,299.83,341.68Zm-2.15-2.33a18.32,18.32,0,0,0-4.1-11,12.55,12.55,0,0,0-13.43-4.75c-6.45,1.45-10.65,5.62-12.77,11.67-2.65,7.58-2.26,14.79,3.85,20.85,3.91,3.88,8.48,4.86,13.66,3.09C292.23,356.76,297.64,348.71,297.68,339.35Z" transform="translate(-189.93 -158.05)"/><path class="b" d="M366.86,277.88c-2.73.09-3.81-1.52-3.12-3.69.87-2.71,1.6-5.48,2.31-8.24a2.73,2.73,0,0,1,2.81-2.4c1-.06,2-.16,3-.22,2.47-.14,3.73,1.46,2.8,3.73-1.11,2.72-2.44,5.35-3.61,8.05C370.14,277.17,368.68,278.16,366.86,277.88Z" transform="translate(-189.93 -158.05)"/><path class="a" d="M385.9,325.08v3.74c-.66.16-1.16.25-1.16-.65,0-1.59,0-3.18,0-4.74,2-.44,2-.42,2.49,1.31.21.71.42,1.42.71,2.43.33-1,.58-1.68.8-2.39.53-1.67.53-1.67,2.36-1.42v5.5H390V325l-.29-.06c-.34,1-.64,2.1-1,3.13-.13.34-.5.59-.76.89-.27-.29-.65-.53-.78-.87-.38-1-.65-2-1-3Z" transform="translate(-189.93 -158.05)"/><path class="a" d="M382.66,328.84c-.41.05-.56.08-.72.08a4.27,4.27,0,0,1-.57-.07v-4.31c-.46-.74-1.87.27-1.66-1.25h4.35c.11.87.11.87-1.4.94Z" transform="translate(-189.93 -158.05)"/><path class="a" d="M322,199.35c1.88-4.38,3.73-8.67,5.56-13L338,162.07a5.34,5.34,0,0,1,.61-1.16,1.68,1.68,0,0,1,2.15-.52,1.7,1.7,0,0,1,1.05,2.05,7,7,0,0,1-.46,1.23q-7.58,17.67-15.14,35.33c-.2.47-.38.95-.61,1.55a70.63,70.63,0,0,1,16.23,8.4c.34-.39.66-.74,1-1.1l26.75-31.7a5.41,5.41,0,0,1,.9-1,1.73,1.73,0,0,1,2.31.1,1.67,1.67,0,0,1,.41,2.17,6.69,6.69,0,0,1-.86,1.14L346,209.86l-1.11,1.33a68.25,68.25,0,0,1,21.27,28.95c3.21-.86,6.33-1.69,9.44-2.54l18-4.89c.27-.07.54-.15.81-.2a1.83,1.83,0,0,1,2.25,1.27A1.75,1.75,0,0,1,395.4,236c-1.6.49-3.23.89-4.84,1.33l-22.07,6c-.35.09-.68.21-1.11.35,1.52,5,3,9.87,3.33,15.21a10.73,10.73,0,0,1-1.23-.08c-11.51-2.14-23.1-3.69-34.76-4.73a387.86,387.86,0,0,0-41.19-1.56A313.26,313.26,0,0,0,238,258.06c-1.1.21-1.27-.12-1.11-1.07.47-2.91.92-5.83,1.38-8.75,0-.22.07-.45.12-.81-2-.32-4-.64-5.94-.94l-18.58-2.86c-1.46-.23-2.14-1-1.94-2.2s1.06-1.62,2.47-1.4c7.82,1.18,15.63,2.36,23.44,3.6,1.19.19,1.71,0,2.1-1.27a63.05,63.05,0,0,1,7.42-15.51l.72-1.13c-.37-.25-.71-.5-1.07-.72-3.11-1.87-6.24-3.73-9.33-5.63-.48-.3-1.07-.8-1.14-1.27a2.7,2.7,0,0,1,.53-1.91,1.72,1.72,0,0,1,2.31-.07l7.81,4.69,3.11,1.86a68.05,68.05,0,0,1,13.39-13.08c-.36-.46-.65-.84-.94-1.2q-10.49-12.94-21-25.88a10.91,10.91,0,0,1-.73-.95,1.87,1.87,0,0,1,.33-2.49,1.85,1.85,0,0,1,2.5.21,11.36,11.36,0,0,1,.77.92l21.22,26.16c.27.34.55.67.9,1.08a67,67,0,0,1,35.42-10.75v-1.53q0-12,0-24a7.85,7.85,0,0,1,0-1.19,1.71,1.71,0,0,1,1.69-1.57,1.66,1.66,0,0,1,1.82,1.25,5.68,5.68,0,0,1,.15,1.54c0,8,0,16.07-.05,24.1,0,1.11.28,1.53,1.43,1.57a62,62,0,0,1,13.92,2.29C321.44,199.23,321.67,199.27,322,199.35ZM259,227.12c.24.35.47.71.73,1A34.19,34.19,0,0,0,273,238.57c16,7.36,32.61,8.46,49.6,4.23A39.76,39.76,0,0,0,340,233.87c.38-.35.72-.74,1.08-1.11-13.23,6.66-27.21,8.94-41.78,7.93S271.14,235.61,259,227.12ZM314.82,225a13.05,13.05,0,0,0,.08,1.6c.28,1.5.54,3.08,2.25,3.66s2.9-.35,3.94-1.42a15.71,15.71,0,0,0,4.52-12.18c-.08-1.61-.47-3.29-2.3-3.86s-3,.5-4.09,1.64A16.38,16.38,0,0,0,314.82,225Zm-36.46-3.71a15.78,15.78,0,0,0,.18,1.66c.62,2.93,2.69,3.62,5,1.66a9.09,9.09,0,0,0,1.31-1.39,13.54,13.54,0,0,0,2.75-6.66,12.14,12.14,0,0,0-.1-3.9c-.48-2.28-2.34-2.94-4.27-1.63a7.4,7.4,0,0,0-1.5,1.35A14.93,14.93,0,0,0,278.36,221.32Z" transform="translate(-189.93 -158.05)"/><path class="a" d="M234.19,343.53c.54-2.31,1.15-4.62,1.62-6.94.71-3.48,1.29-7,2-10.45a1.85,1.85,0,0,1,1-1.18c2.65-1,5.33-1.86,8-2.76.65-.22.93.07.77.72-.24,1-.5,2-.79,3a9.1,9.1,0,0,0-.14,4.94c.91,3.47,1.64,7,2.45,10.47a1.54,1.54,0,0,0,.61.91c.38-1.64.85-3.27,1.15-4.92.77-4.28,1.46-8.57,2.23-12.84a1.42,1.42,0,0,1,.68-1c2.94-1,5.91-1.88,8.87-2.8.06,0,.14.05.37.16-.26,1.71-.52,3.46-.8,5.21-1.5,9.25-3,18.5-4.46,27.76a3.51,3.51,0,0,1-2.32,3.15c-2.52.87-5.07,1.63-7.61,2.45a1,1,0,0,1-1.45-.79l-2.88-9.11a1.21,1.21,0,0,0-.47-.69c-.14.53-.3,1.05-.4,1.59-.33,2-.63,3.93-1,5.9a2.6,2.6,0,0,1-2.3,2.34c-2.5.5-5,1.14-7.44,1.82-1,.28-1.58,0-1.88-1-1.33-4.43-2.79-8.82-4-13.28-1.78-6.71-3.35-13.46-5-20.19-.24-.93-.07-1.37.94-1.57,2-.39,3.9-.86,5.81-1.43,1-.29,1.4,0,1.62.9.8,3.38,1.66,6.74,2.42,10.12.71,3.14,1.32,6.31,2,9.46Z" transform="translate(-189.93 -158.05)"/><path class="a" d="M343.17,267.35l7.22.6c1.63.14,3.26.34,4.89.42,1,.05,1.4.32,1.44,1.39.23,6.63.54,13.26.82,19.88.28,6.95.54,13.89.87,20.84,0,1-.23,1.32-1.23,1.33q-6.53.07-13.06.28a1.43,1.43,0,0,1-1.57-1.1q-3.32-8.28-6.72-16.52a8,8,0,0,0-.65-1.09l-.35.11a9.91,9.91,0,0,0-.09,1.33c.16,5.31.31,10.63.52,15.93,0,1.1-.23,1.46-1.38,1.43-4-.11-8-.14-12-.14-.94,0-1.24-.29-1.18-1.25q1.05-18.8,2.05-37.58c.09-1.67.21-3.35.26-5,0-.74.23-1.08,1.05-1,3.74.28,7.5.49,11.23.82.42,0,1,.65,1.15,1.11,2,4.76,3.86,9.55,5.77,14.33a4.53,4.53,0,0,0,.39.87c.11.17.35.25.53.37a1.94,1.94,0,0,0,.31-.56,3.37,3.37,0,0,0,0-.84q-.13-7.12-.29-14.26C343.16,268.53,343.17,268.06,343.17,267.35Z" transform="translate(-189.93 -158.05)"/><path class="a" d="M402.84,281.81l-1.41-.67c-2.17-1-4.4-1.77-6.82-1.12a4.93,4.93,0,0,0-2,1,2.42,2.42,0,0,0,.07,4,14.54,14.54,0,0,0,2.71,1.74c1.75.87,3.55,1.64,5.34,2.44,5.7,2.55,7.79,7.84,5.26,13.56a13.48,13.48,0,0,1-9.76,8.24,32.15,32.15,0,0,1-17.37-.67c-1-.34-1.5-.76-1.37-1.94.26-2.5.37-5,.51-7.52.05-.83.39-.89,1.09-.67a13.31,13.31,0,0,0,7.78,0,2.88,2.88,0,0,0,1-.35c.69-.55,1.65-1.06,1.88-1.78.34-1-.71-1.67-1.53-2.17-1.29-.78-2.67-1.44-3.94-2.26-7-4.52-7.15-12.75-5-17.7,1.36-3.13,3.92-5.07,7-6.39a36,36,0,0,1,12.39-2.39,39.23,39.23,0,0,1,4.2,0c.3,0,.84.53.83.79-.18,4.47-.43,8.94-.68,13.4C403.06,281.49,403,281.56,402.84,281.81Z" transform="translate(-189.93 -158.05)"/><path class="a" d="M313.93,311.38c-3.83.35-7.43.72-11.05,1-2.67.21-2.68.17-3.21-2.46-.32-1.61-.65-3.21-.92-4.82a1.09,1.09,0,0,0-1.27-1.07c-2.68.05-5.35.07-8,.07a1.19,1.19,0,0,0-1.37,1.13c-.38,2.12-.89,4.22-1.26,6.34-.14.82-.43,1.17-1.31,1.09-3.94-.36-7.87-.67-11.81-1-1-.08-.75-.73-.6-1.31.85-3.36,1.72-6.71,2.58-10.07,2.63-10.19,5.28-20.37,7.87-30.57.3-1.19.75-1.67,2.06-1.68,5.47,0,10.94-.2,16.41-.39,1.06,0,1.42.33,1.66,1.32q5,20.57,10.08,41.11C313.85,310.44,313.86,310.84,313.93,311.38Zm-21.09-15.9v-.07c1,0,2.07,0,3.11,0,.8,0,1.17-.44,1-1.26-1.21-5.12-2.4-10.24-3.64-15.36-.08-.32-.47-.56-.71-.84-.26.3-.66.57-.74.91-.27,1.13-.43,2.28-.63,3.41-.67,3.89-1.36,7.78-2,11.67-.27,1.6,0,1.81,1.62,1.68Z" transform="translate(-189.93 -158.05)"/><path class="a" d="M316.69,341c2.27,2.62,4.4,5.15,6.6,7.61,1.36,1.52,2.78,3,4.23,4.42.67.67.59,1-.19,1.55-1.44.93-2.85,1.92-4.2,3a1,1,0,0,1-1.53-.07c-2.19-2.21-4.41-4.41-6.58-6.64-1.28-1.31-2.49-2.7-3.75-4-.4-.42-.89-.75-1.59-1.34-.11,1.67-.23,3-.29,4.41-.11,2.51-.16,5-.29,7.54a1.3,1.3,0,0,1-.47,1c-2,1-4,1.95-6,2.9a2,2,0,0,1-.51,0c0-.41-.11-.83-.1-1.24.33-10.46.69-20.92,1-31.38a3.44,3.44,0,0,1,2-3.22c4.55-2.39,9.25-4.15,14.48-4a9.9,9.9,0,0,1,2.48.35c3.48,1.05,5.32,3.43,4.53,7.49a11.38,11.38,0,0,1-3.49,6.15c-1.64,1.58-3.4,3-5.1,4.54Zm-7.19-4.19.43.29c2.84-2.83,5.71-5.62,8.49-8.5.83-.85.56-1.32-.68-1.54-2.58-.45-5,.38-7.34,1.18a1.08,1.08,0,0,0-.5.83C309.73,331.63,309.62,334.21,309.5,336.79Z" transform="translate(-189.93 -158.05)"/><path class="a" d="M297.68,339.35c0,9.36-5.45,17.41-12.79,19.91-5.18,1.77-9.75.79-13.66-3.09-6.11-6.06-6.5-13.27-3.85-20.85,2.12-6.05,6.32-10.22,12.77-11.67a12.55,12.55,0,0,1,13.43,4.75A18.32,18.32,0,0,1,297.68,339.35Zm-23.58,3.36c0,.52,0,1,0,1.55.36,4.05,3.25,6.74,7,6.52a8.46,8.46,0,0,0,7.27-4.56,13.23,13.23,0,0,0,1.54-8.22c-.58-4.57-3.47-7.05-7.53-6.58a8.31,8.31,0,0,0-6.36,4A13,13,0,0,0,274.1,342.71Z" transform="translate(-189.93 -158.05)"/><path class="c" d="M259,227.12c12.15,8.49,25.72,12.56,40.3,13.57s28.55-1.27,41.78-7.93c-.36.37-.7.76-1.08,1.11a39.76,39.76,0,0,1-17.41,8.93c-17,4.23-33.59,3.13-49.6-4.23a34.19,34.19,0,0,1-13.26-10.4C259.46,227.83,259.23,227.47,259,227.12Z" transform="translate(-189.93 -158.05)"/><path class="c" d="M314.82,225a16.38,16.38,0,0,1,4.4-10.56c1.08-1.14,2.37-2.18,4.09-1.64s2.22,2.25,2.3,3.86a15.71,15.71,0,0,1-4.52,12.18c-1,1.07-2.31,2-3.94,1.42s-2-2.16-2.25-3.66A13.05,13.05,0,0,1,314.82,225Z" transform="translate(-189.93 -158.05)"/><path class="c" d="M278.36,221.32a14.93,14.93,0,0,1,3.35-8.91,7.4,7.4,0,0,1,1.5-1.35c1.93-1.31,3.79-.65,4.27,1.63a12.14,12.14,0,0,1,.1,3.9,13.54,13.54,0,0,1-2.75,6.66,9.09,9.09,0,0,1-1.31,1.39c-2.29,2-4.36,1.27-5-1.66A15.78,15.78,0,0,1,278.36,221.32Z" transform="translate(-189.93 -158.05)"/><path class="a" d="M292.84,295.48l-2,.14c-1.66.13-1.89-.08-1.62-1.68.66-3.89,1.35-7.78,2-11.67.2-1.13.36-2.28.63-3.41.08-.34.48-.61.74-.91.24.28.63.52.71.84,1.24,5.12,2.43,10.24,3.64,15.36.19.82-.18,1.23-1,1.26-1,0-2.07,0-3.11,0Zm1.4-2.51c-.48-2.42-.93-4.7-1.38-7a21.73,21.73,0,0,0-.74,3.43c-.19,1.16-.36,2.32-.56,3.56Z" transform="translate(-189.93 -158.05)"/><path class="a" d="M309.5,336.79c.12-2.58.23-5.16.4-7.74a1.08,1.08,0,0,1,.5-.83c2.37-.8,4.76-1.63,7.34-1.18,1.24.22,1.51.69.68,1.54-2.78,2.88-5.65,5.67-8.49,8.5Zm5.46-7c-2.95.59-2.95.59-2.51,2.71Z" transform="translate(-189.93 -158.05)"/><path class="a" d="M274.1,342.71a13,13,0,0,1,1.94-7.3,8.31,8.31,0,0,1,6.36-4c4.06-.47,7,2,7.53,6.58a13.23,13.23,0,0,1-1.54,8.22,8.46,8.46,0,0,1-7.27,4.56c-3.76.22-6.65-2.47-7-6.52C274.06,343.75,274.1,343.23,274.1,342.71Zm13.71-3c0-.48,0-1,0-1.44-.37-4.09-3.76-6-7.4-4.05a7.5,7.5,0,0,0-2.51,2.31,10.85,10.85,0,0,0-1.5,8.27,4.26,4.26,0,0,0,4.74,3.79,6.31,6.31,0,0,0,5.19-3.18A10.21,10.21,0,0,0,287.81,339.75Z" transform="translate(-189.93 -158.05)"/></svg>