<svg xmlns="http://www.w3.org/2000/svg" viewBox="0 0 221.06 208.32"><defs><style>.a{fill:#231f20;}.b{fill:#d1d2d4;}.c{fill:#d0d2d4;}.d{fill:#d0d1d3;}.e{fill:#252122;}.f{fill:#d0d2d3;}.g{fill:#cfd1d3;}.h{fill:#cfd0d2;}.i{fill:#cfd1d2;}.j{fill:#242021;}.k{fill:#cccecf;}.l{fill:#fadf2f;}.m{fill:#47ae52;}.n{fill:#828486;}.o{fill:#37aae1;}.p{fill:#f39a28;}.q{fill:#b66ba9;}.r{fill:#e6292a;}.s{fill:#fff;}.t{fill:#b1b3b5;}.u{fill:#596a94;}.v{fill:#cbcdce;}</style></defs><path class="a" d="M212.52,245.62c-2-.94-3-2.58-2.73-4.4a3.88,3.88,0,0,1,3.7-3.45,23.72,23.72,0,0,1,3.9.47q9.74,1.5,19.46,3a1.16,1.16,0,0,0,1.55-.94,67.84,67.84,0,0,1,6-12.92c.37-.7,0-1.1-.56-1.45-1.61-1-3.21-1.92-4.81-2.89a4.92,4.92,0,0,1-1.61-1.21c-.44-.28-.87-.55-1.3-.84a4.07,4.07,0,0,1-1.33-5.56,4,4,0,0,1,5.44-1.33c2.9,1.67,5.77,3.38,8.6,5.16.8.5,1.16.37,1.72-.31a61.64,61.64,0,0,1,9.22-9c.68-.54.75-.85.17-1.56-6.72-8.23-13.39-16.48-20.09-24.72a4.74,4.74,0,0,1-1.33-3.35A4,4,0,0,1,245.7,178c3.19,3.89,6.35,7.81,9.52,11.71,3.8,4.68,7.61,9.35,11.37,14.07.55.68.89.7,1.61.28a66.93,66.93,0,0,1,30.28-9.35c1.55-.1,1.55-.1,1.55-1.7q0-11.14,0-22.29c0-2.43,1.22-4.08,3.3-4.46s3.8.79,4.66,3.05a3.14,3.14,0,0,1,.32,2c0,6.93,0,13.85,0,20.78,0,2,0,2,1.87,2.54a2.36,2.36,0,0,1,.63.33,65.58,65.58,0,0,1,8.81,1.59c.88.24,1.21.08,1.57-.76q7.47-17.53,15-35a4,4,0,0,1,3.27-2.62,3.87,3.87,0,0,1,3.84,1.69,9.07,9.07,0,0,1,.6,1.16,3.12,3.12,0,0,1,0,3.09q-6.12,14.28-12.25,28.57c-.75,1.76-1.5,3.51-2.26,5.27-.51,1.18-.45,1.31.7,1.79a4.53,4.53,0,0,1,1.84,1.06,73.85,73.85,0,0,1,8.95,5c.71.49.9-.06,1.2-.42q5.42-6.39,10.82-12.81,7.64-9.06,15.28-18.13a4.13,4.13,0,0,1,4.22-1.62,3.94,3.94,0,0,1,3.1,3.09c.85,1.41,0,2.51-.71,3.58a27.18,27.18,0,0,1-2.25,2.79q-9,10.58-17.88,21.19c-1.86,2.23-3.73,4.47-5.66,6.64-.63.71-.49,1.09.13,1.63s1.62,1.06,2,2l5.21,5.52a59.53,59.53,0,0,1,10.15,15.48,11.1,11.1,0,0,1,.62,1.42,1.25,1.25,0,0,0,1.55,1l24.53-6.59c2.85-.77,4.59.07,5.7,2.77a3.81,3.81,0,0,1-2.17,4.91,25.39,25.39,0,0,1-3.91,1.15q-10.35,2.81-20.7,5.61c-1.51.41-1.54.45-1.11,2a63,63,0,0,1,2.18,10.54c.3,2.8-1.17,4.28-4,3.78-7.67-1.35-15.36-2.59-23.1-3.51-5.35-.64-10.71-1.19-16.08-1.59-6.09-.45-12.18-.75-18.28-1-7.31-.3-14.62-.31-21.92-.12A311.45,311.45,0,0,0,245,259.35c-1.89.33-3.78.66-5.66,1a3.1,3.1,0,0,1-1.88.06c-2.16-.3-3-1.35-2.7-3.51.21-1.69.38-3.39.57-5.09a1.07,1.07,0,0,0,0-.47c-.16-1.9-.16-1.9-2.13-2.21-6.18-1-12.36-1.93-18.54-2.84A4.61,4.61,0,0,1,212.52,245.62Z" transform="translate(-190.96 -158.07)"/><path class="b" d="M237.46,260.45c4.39-1,8.84-1.72,13.3-2.38a330.85,330.85,0,0,1,48-3.42q18.28,0,36.49,1.66,17.31,1.59,34.38,4.77a2.59,2.59,0,0,0,3.21-3,58.73,58.73,0,0,0-2.49-11.8c-.26-.82-.15-1.13.74-1.37,8-2.12,15.93-4.29,23.9-6.44,3.1-.84,3.94-1.94,3.85-5.08a3.78,3.78,0,0,1,2.84,4,4,4,0,0,1-3.1,3.65l-24.3,6.53c-1.39.38-1.41.44-1,1.87a54,54,0,0,1,2.3,11.54,2.74,2.74,0,0,1-1.52,2.84,25,25,0,0,0-4.15,0,.66.66,0,0,1-.6-.31c-1.72-.8-3.61-.84-5.43-1.14-4.27-.7-8.55-1.32-12.83-1.89-3.15-.41-6.32-.7-9.48-1q-6.21-.62-12.45-1.16c-1.34-.11-2.69-.15-4-.24-2.74-.18-5.5-.14-8.24-.3-8.62-.48-17.24-.26-25.85-.16-5.12.06-10.25.4-15.36.84-3.17.27-6.34.49-9.5.81-4.06.42-8.11,1-12.16,1.55-4.32.6-8.61,1.4-12.9,2.22C238.92,263.45,237.81,262.56,237.46,260.45Z" transform="translate(-190.96 -158.07)"/><path class="a" d="M235.26,328.26a7.93,7.93,0,0,0,.28-1.64c-.1-2,1-3.13,2.71-3.89a65,65,0,0,1,8.36-2.78c1.88-.52,3.18.65,3.35,2.8.33.65,0,1.25-.17,1.84-.69,2.35-1.41,4.69-.3,6.85.39-2.37.92-5,1.14-7.65a1.16,1.16,0,0,1,.57-1,5.77,5.77,0,0,1,2.71-1.85,76.15,76.15,0,0,1,8-2.44c2-.51,3.28.6,3.44,2.8a7.71,7.71,0,0,1-.28,3.41c-1.64,10-3.24,20.06-4.86,30.09a5.15,5.15,0,0,1-2.64,3.9,29,29,0,0,1-9.45,3.24,1.15,1.15,0,0,1-1-.13l-1.18-.31c-.89-.14-1.15-.9-1.52-1.54-.24-.41-.4-.87-.77-1.45-1.07,2.31-3.29,2.42-5.29,2.94-1.81.47-3.64.89-5.45,1.37a4.21,4.21,0,0,1-2.58,0,3.3,3.3,0,0,1-2.12-2.25,77.91,77.91,0,0,1-3.1-9.76c-2.28-8.36-4.56-16.72-6.34-25.2a2.47,2.47,0,0,1,1.75-3.07q3.87-1,7.76-1.9a2.48,2.48,0,0,1,2.88,1.4c.24.46.41.94.61,1.42a1.58,1.58,0,0,1,.44.69,85.79,85.79,0,0,1,2,8.65,1.47,1.47,0,0,0,.17.88c0,.12.23-.1.09,0s0,0-.1-.06,0,0-.06-.08a1.32,1.32,0,0,1-.08-.44A15,15,0,0,1,235.26,328.26Z" transform="translate(-190.96 -158.07)"/><path class="a" d="M318.49,311c.24-4,.5-8.05.72-12.07q.71-12.79,1.37-25.6c.1-1.87.21-3.74.31-5.62a2.53,2.53,0,0,1,2.91-2.7c3.95.22,7.89.53,11.84.77,1.8.1,2.47,1.36,3,2.79,1.17,1.52,1.5,3.39,2.26,5.09,0,.16.21-.08.08,0s-.1,0-.11-.05a5.73,5.73,0,0,1,.11-3.38v-.94a5.39,5.39,0,0,1,0-1.92c.5-1.59,1.27-2.25,2.83-2.14q6.23.48,12.45,1.1c1.66.17,2.25.84,2.55,2.47a7.39,7.39,0,0,1,.51,3.17c0,2.64.21,5.26.32,7.89.2,5.06.31,10.12.65,15.17.14,2,.15,4,.21,6,.1,3.3.43,6.61.32,9.92-.08,2.23-1,3.25-3.21,3.3-3.86.1-7.73.36-11.6.27a14.65,14.65,0,0,1-3.31-.34c-1.65-.4-1.9-1.89-2.47-3.14a2.21,2.21,0,0,1-.84-1.27c-.64-1.55-1.23-3.11-1.87-4.58-.06,1.88.18,3.83.23,5.79.07,2.47-1.15,3.75-3.64,3.71-4-.07-8-.28-12-.23a11.2,11.2,0,0,1-1.51-.3,3.34,3.34,0,0,1-1.43-.75A1.82,1.82,0,0,1,318.49,311Z" transform="translate(-190.96 -158.07)"/><path class="a" d="M243.21,314.15c-2-.25-2.75-1.1-2.82-3-.09-2.59-.26-5.18-.21-7.77a17.29,17.29,0,0,0-1.12-6c-3.13-9-6.14-18-9.35-27a2.91,2.91,0,0,1,2.9-4.15c4-.07,8-.4,12.06-.62l.72,0c2.25-.09,3,.41,3.61,2.6a5.39,5.39,0,0,1,.88,2.32c.6,2.19,1.24,4.36,1.67,6.35a8.53,8.53,0,0,1,1-3.38c.65-2.24,1.28-4.49,1.93-6.73a2.7,2.7,0,0,1,3.37-2.08c4,.7,8.06,1.41,12.1,2.07a2.76,2.76,0,0,1,2.53,2.17,4.41,4.41,0,0,1-.21,2.68c-3,9.1-6,18.19-9,27.31a14.37,14.37,0,0,0-.6,4.37c0,2.52,0,5,0,7.55,0,3-1,3.92-3.92,4-4.79.11-9.57-.4-14.36-.26A1.74,1.74,0,0,1,243.21,314.15Z" transform="translate(-190.96 -158.07)"/><path class="a" d="M397.39,285.32c1.12.5,2.22,1.05,3.36,1.5a14.44,14.44,0,0,1,6.87,5.28,7.05,7.05,0,0,1,1.78,4.35,16,16,0,0,1-11.65,16.85,34.79,34.79,0,0,1-16.57.34,7.79,7.79,0,0,1-3.23-1.18c-2.69-1.2-2.77-1.29-2.62-4.32.12-2.58.3-5.16.5-7.74a2.57,2.57,0,0,1,3.55-2.36,11,11,0,0,0,6.23.23c.32-.33.66-.51,1-.34-1.12-.89-2.78-1.23-3.88-2.45-1-1-2.19-1.83-3.13-2.93a15.84,15.84,0,0,1,6.9-25.37c5.56-2,11.36-2.33,17.2-2.16,1.35,0,2.16,1.12,2.33,2.84a1,1,0,0,1,.23.66c-.32,4.41-.25,8.83-.71,13.23-.21,2.06-2,3-4.1,2.27-.67-.24-1.29-.63-1.94-.92a7.24,7.24,0,0,0-4.07-.68c-.35.06-.75.15-.86.55s.3.6.56.82C395.84,284.37,396.86,284.49,397.39,285.32Z" transform="translate(-190.96 -158.07)"/><path class="a" d="M300.74,314.88a2.72,2.72,0,0,1-2.86-2.62c-.16-.89-.35-1.79-.53-2.68-.06-.53-.45-.91-.58-1.42-.4-1.59-.42-1.59-2.09-1.59h-3.11a1.21,1.21,0,0,0-1.38,1.15c-.29,1.53-.59,3-.92,4.57-.48,2.22-1.31,3-3.54,2.89-3.9-.16-7.78-.59-11.66-1a1.19,1.19,0,0,1-.65-.28c-2.33-.41-3.12-1.63-2.53-3.9q5.36-20.77,10.72-41.54c.51-2,1.16-2.56,3.26-2.62q9-.24,17.95-.4c1.78,0,2.31.52,3,2.89a2.72,2.72,0,0,1,.68,1.5q4.8,19.77,9.7,39.51a6.56,6.56,0,0,1,.21,1.53,2.88,2.88,0,0,1-2.63,3c-4.08.46-8.17.75-12.26,1.16A1.08,1.08,0,0,1,300.74,314.88Z" transform="translate(-190.96 -158.07)"/><path class="a" d="M225.73,301.12a6.63,6.63,0,0,1,1.89,2.22,1.85,1.85,0,0,1-.27,2.32c-2.49,3.24-5.1,6.39-7.75,9.5a2.69,2.69,0,0,1-3.77.33,6.38,6.38,0,0,1-1.07-.94c-1.22-1-2.57-1.88-3.81-2.88-.27-.22-.49-.64-.89-.49s-.29.61-.31.95a3,3,0,0,1-3.05,3.05c-4,.17-8-.32-12.08-.25a2.34,2.34,0,0,1-1-.28c-1.89-.23-2.67-1.08-2.62-3q.4-15.25.86-30.51c.11-3.95.23-7.89.33-11.84,0-2.13,1-3.05,3.06-3.11,5.14-.14,10.29-.42,15.43-.43a16.48,16.48,0,0,1,11.05,3.84,24.42,24.42,0,0,1,2.54,2.84,10.64,10.64,0,0,1,2.49,5.34,26.52,26.52,0,0,1-.94,16,14.18,14.18,0,0,1-2.11,3.73c-.58.74-.47,1.25.28,1.77A5.85,5.85,0,0,1,225.73,301.12Z" transform="translate(-190.96 -158.07)"/><path class="a" d="M300.48,333.53c.09-1.67.25-3.35.27-5a5.12,5.12,0,0,1,2.68-4.72,36.05,36.05,0,0,1,12-4.38,18.49,18.49,0,0,1,5.25-.17,9.26,9.26,0,0,1,7.36,4.48c1.56,1.8,1.16,3.93.84,5.94-.61,3.89-3.09,6.67-5.9,9.18a21.31,21.31,0,0,1-1.91,1.63c-.75.53-.68,1.06-.13,1.69,1.11,1.3,2.15,2.67,3.38,3.88,1.68,1.85,3.36,3.71,5.17,5.44a3.28,3.28,0,0,1,.93,1.36,3.11,3.11,0,0,1-1.65,3.71,44.72,44.72,0,0,0-4.49,3.15c-1.38,1.06-2.22,1-3.64-.06l-6.23-6a12.35,12.35,0,0,1-2.58-2.54c0,1,0,1.94,0,2.83a30.82,30.82,0,0,1-.29,4.29,2.84,2.84,0,0,1-1.64,2.35c-2.05,1.07-4.18,2-6.24,3-.66.33-1.33,0-2,0a2.57,2.57,0,0,1-1.95-2.75c0-2.21,0-4.42,0-6.63a3.1,3.1,0,0,1-.32-2.32c.32-2.86.11-5.74.32-8.61a16.64,16.64,0,0,0,.18-3.73,48.87,48.87,0,0,1,.22-5A1.39,1.39,0,0,1,300.48,333.53Z" transform="translate(-190.96 -158.07)"/><path class="a" d="M356.6,359.47c-1.08-.49-2.28-.85-2.67-2.19a6.48,6.48,0,0,1-.5-3.12c0-2.81-.37-5.61-.31-8.42a3.55,3.55,0,0,1,.14-1.17c-.27-5-.53-10-.84-15.05-.14-2.35-.4-4.69-.55-7a2.55,2.55,0,0,1,3.14-2.8c6.67,1.54,13.23,3.43,19,7.27a27.58,27.58,0,0,1,5.77,5.17c3.46,3.76,4.9,8.31,5.17,13.31a14.59,14.59,0,0,1-1.74,8.43c-2,3.48-5.21,5.36-8.88,6.46a28.38,28.38,0,0,1-16.18-.07A3.61,3.61,0,0,1,356.6,359.47Z" transform="translate(-190.96 -158.07)"/><path class="a" d="M267.16,330.66a20,20,0,0,1,10.16-8.48c7.05-2.54,13.46-.75,18.15,5.09.15.18.31.35.47.53A18.16,18.16,0,0,1,300,339.36v1.74A22.8,22.8,0,0,1,293.92,356a18.79,18.79,0,0,1-10.8,6.2,13.84,13.84,0,0,1-9.82-1.49,5.73,5.73,0,0,1-1.57-1.28c-.94-.85-1.94-1.64-2.81-2.58a17.28,17.28,0,0,1-4.66-8.95c-.77-.84-.65-1.95-.72-2.94a23.5,23.5,0,0,1,2.74-13.25C266.51,331.33,266.68,330.87,267.16,330.66Z" transform="translate(-190.96 -158.07)"/><path class="a" d="M329.49,323.71a3.78,3.78,0,0,1,2.23-2.61A20.63,20.63,0,0,1,338,319c2.05-.38,3.28.66,3.54,2.81a1.18,1.18,0,0,1,.18.8c-.19,3.46-.09,6.93-.07,10.39,0,2.83.25,5.65.46,8.47.06.75.35,1,1.07.72a3.41,3.41,0,0,1,1.52-.18,16.24,16.24,0,0,1,4.5-.5,2.82,2.82,0,0,1,2.89,2.36,38.46,38.46,0,0,1,.46,8.9,2.25,2.25,0,0,1-1.75,2.07c-5.48,1.46-10.17,4.5-15,7.35a2.44,2.44,0,0,1-1.75.61c-2.55-.12-2.76-.33-2.85-2.87,0-.24,0-.47-.06-.71-.44-.5-.3-1.11-.33-1.69-.11-1.92-.19-3.85-.38-5.77-.25-4.09-.68-8.17-.82-12.27,0-.88-.23-1.74-.24-2.62,0-3.28-.39-6.56-.25-9.85A12.15,12.15,0,0,1,329.49,323.71Z" transform="translate(-190.96 -158.07)"/><path class="b" d="M243.21,314.15l15.67.23c2.76,0,3.67-.71,3.5-3.4a49.67,49.67,0,0,1,3.39-20.91c2.37-6.33,4.28-12.83,6.41-19.26a6.1,6.1,0,0,0,.34-2c.27.23.28.61.78.77,1.8.56,2.38,1.9,1.77,3.76q-4.45,13.5-8.92,27a15.36,15.36,0,0,0-.9,5.38c.09,2.71,0,5.42,0,8.14,0,2.39-1,3.45-3.32,3.34-5-.22-10-.18-15.07-.24C244.38,317,243.4,316.12,243.21,314.15Z" transform="translate(-190.96 -158.07)"/><path class="b" d="M351.08,213.73c-.81-.7-1.58-1.46-2.44-2.09-.69-.52-.63-.86-.1-1.48q7.26-8.52,14.45-17.1c3.76-4.45,7.5-8.92,11.28-13.35a4.58,4.58,0,0,0,1.22-3.85c2.13,0,3.91,3.49,2.13,5.89-1.52,2-3.24,3.93-4.88,5.87q-4.8,5.7-9.62,11.39c-2.41,2.85-4.81,5.72-7.22,8.57-1.46,1.73-2.94,3.44-4.4,5.18A1.51,1.51,0,0,0,351.08,213.73Z" transform="translate(-190.96 -158.07)"/><path class="b" d="M342.71,314.18l15.2-.27a2.47,2.47,0,0,0,2.6-2.87c-.2-5.58-.45-11.16-.67-16.75l-1-25.47c1.09.59,2.51.8,2.7,2.39,0,.24.11.47.12.71.09,2.63.14,5.26.26,7.88.21,4.3.37,8.6.52,12.89.12,3.38.34,6.76.44,10.14.12,3.66.34,7.32.46,11a2.58,2.58,0,0,1-2.81,2.95c-4.63.09-9.26.15-13.88.25a2.76,2.76,0,0,1-3.06-1.95C343.41,314.57,343,314.43,342.71,314.18Z" transform="translate(-190.96 -158.07)"/><path class="b" d="M267.16,330.66a24.6,24.6,0,0,0-3.33,13.61c.07,1.23.28,2.45.43,3.67-.54,3.13-1.18,6.23-1.58,9.37a5,5,0,0,1-2.73,4.06,31.11,31.11,0,0,1-9,3.05c-2.1.42-3.14-.38-3.88-2.6a38.77,38.77,0,0,0,8.8-2.57,6.45,6.45,0,0,0,4.2-5.52c1.57-10.6,3.36-21.16,5.07-31.73a5.91,5.91,0,0,1,.19-.69c2.07.05,2.9,1.14,2.65,3.22S267.06,328.57,267.16,330.66Z" transform="translate(-190.96 -158.07)"/><path class="b" d="M300.74,314.88c4.13-.41,8.25-.84,12.38-1.21,2.54-.23,3.43-1.42,2.81-3.93l-10.05-40.93a4,4,0,0,1-.05-.47c1.56.06,2.2.6,2.6,2.24q4.2,17.13,8.41,34.24a53.27,53.27,0,0,0,1.65,6.19,4.27,4.27,0,0,0,.73,2.4c-.07.09-.19.17-.21.27-.45,2.14-1.08,2.67-3.17,2.85-4.11.34-8.21.73-12.32,1.12C302,317.79,300.92,316.7,300.74,314.88Z" transform="translate(-190.96 -158.07)"/><path class="b" d="M331.92,200.75c-.85-.34-1.68-.72-2.55-1s-.84-.66-.53-1.39q4.4-10.14,8.73-20.31c1.93-4.5,3.85-9,5.81-13.5a6,6,0,0,0,.55-3.59c2.95,1.21,3.33,3.92,2.28,6.29-3.65,8.27-7.15,16.59-10.7,24.9C334.29,195,333.12,197.88,331.92,200.75Z" transform="translate(-190.96 -158.07)"/><path class="b" d="M356.6,359.47a30.25,30.25,0,0,0,16.25.93,21.16,21.16,0,0,0,3.41-1.09,13,13,0,0,0,8.49-13.11,24.3,24.3,0,0,0-4.93-14.07,20.24,20.24,0,0,1,5.57,7.48,23.58,23.58,0,0,1,2.16,9.93,13.11,13.11,0,0,1-8.87,12.74,25.3,25.3,0,0,1-9.57,1.65,27.42,27.42,0,0,1-10.45-2A3.17,3.17,0,0,1,356.6,359.47Z" transform="translate(-190.96 -158.07)"/><path class="b" d="M378,312.46a35,35,0,0,0,19.94.46c7.43-2,12.59-10.26,11-17.48a19.84,19.84,0,0,0-1.28-3.34c3.58,2.51,4.77,6.13,4.29,10.23a15.6,15.6,0,0,1-8.35,12.22,18.26,18.26,0,0,1-6.35,1.92,33.27,33.27,0,0,1-6.53.52,34.44,34.44,0,0,1-10.48-2A3.13,3.13,0,0,1,378,312.46Z" transform="translate(-190.96 -158.07)"/><path class="b" d="M271.73,359.47c7.68,5.5,17.35,2.09,22.63-4.38a24,24,0,0,0,5.48-13.86c.63.59.22,1.3.23,2l-.31,11a23.38,23.38,0,0,1-7.78,8.22c-5.59,3.42-13.36,3.92-18.65-1.22C272.77,360.62,272,360.31,271.73,359.47Z" transform="translate(-190.96 -158.07)"/><path class="c" d="M334.08,362.78c2.54-1.47,5.06-3,7.62-4.41a35.1,35.1,0,0,1,8.75-3.74,2.39,2.39,0,0,0,1.9-2.43c.16-2.6-.38-5.17-.28-7.76,0-.2,0-.39,0-.59a1.53,1.53,0,0,0,1.17.72c.37,2.19.3,4.42.45,6.64.13,2,.15,4.05.22,6.07-5,1-9.18,3.72-13.47,6.21-.76.44-1.48.95-2.23,1.39a3.39,3.39,0,0,1-1.31.55C334.79,365.69,334.09,365.05,334.08,362.78Z" transform="translate(-190.96 -158.07)"/><path class="c" d="M273.42,313.91c3.49.28,7,.5,10.48.85,4,.41,4.52.1,5.31-3.83.25-1.25.53-2.49.74-3.75.1-.61.28-.91,1-.9,1.67,0,3.35,0,5,0,.58,0,.89.13,1,.75.11.86.29,1.72.44,2.58-.54-.79-1.37-.46-2.08-.47-2.32,0-2.33,0-2.82,2.27a34.92,34.92,0,0,0-.72,3.61c-.29,2.48-2,2.92-3.93,2.7-2.44-.28-4.89-.46-7.34-.69-1.5-.14-3-.24-4.49-.46C274.27,316.3,273.74,315.7,273.42,313.91Z" transform="translate(-190.96 -158.07)"/><path class="b" d="M397.39,285.32a14.15,14.15,0,0,1-3.12-1.72c-.55-.39-.47-.75,0-1.11a3.73,3.73,0,0,1,3.1-.39,12.63,12.63,0,0,1,3.78,1.42c2.17,1.18,4,.13,4.14-2.31.23-4.45.48-8.9.72-13.35,1.83.06,2.61.84,2.62,2.63.05,4.61-.39,9.2-.52,13.81a2.59,2.59,0,0,1-4.08,2.09,9.4,9.4,0,0,0-5.64-1.53C398,284.9,397.59,284.87,397.39,285.32Z" transform="translate(-190.96 -158.07)"/><path class="b" d="M225.73,301.12c-.94-.79-2.23-1.42-2.73-2.43-.59-1.19,1-2,1.51-3a25.38,25.38,0,0,0,2.54-14.25,21.7,21.7,0,0,0-2.82-9,10.54,10.54,0,0,1,4.28,6,25.15,25.15,0,0,1-1.14,20C226.89,299.35,226,300,225.73,301.12Z" transform="translate(-190.96 -158.07)"/><path class="a" d="M369.31,263.52c.79,0,1.58-.06,2.36-.16a4.46,4.46,0,0,1,2.39.45,3.49,3.49,0,0,1,1,2.1,6,6,0,0,1-.8,3,45.19,45.19,0,0,1-3.69,7.48A3.78,3.78,0,0,1,366.2,278c-2.42-.29-3.29-1.75-2.36-4a32.29,32.29,0,0,0,2.17-7.77C366.27,264.31,367.1,263.67,369.31,263.52Z" transform="translate(-190.96 -158.07)"/><path class="c" d="M320.65,314.16l13.41.14c2.45,0,3.38-.93,3.34-3.4,0-2.3,0-4.6,0-7,.95,2.39,1.9,4.76,2.85,7.13a7.11,7.11,0,0,0-.09,2.94,2.51,2.51,0,0,1-2.62,3q-6.64,0-13.28,0a2.59,2.59,0,0,1-2.83-2.05C321.28,314.45,320.9,314.42,320.65,314.16Z" transform="translate(-190.96 -158.07)"/><path class="d" d="M310.83,195c-2.79,0-2.78,0-2.79-2.81q0-11.4,0-22.81a3.68,3.68,0,0,1,2.82,3.77q0,10.62,0,21.26Z" transform="translate(-190.96 -158.07)"/><path class="b" d="M214.94,314.6c.32.24.63.47,1,.7a2.48,2.48,0,0,0,3.53-.37c2.55-3.05,5-6.15,7.57-9.23a3.19,3.19,0,0,0,.62-2.36c.26.18.55.33.79.52,2,1.67,2.87,2.91.84,5.35-2.28,2.74-4.51,5.53-6.79,8.27-1.22,1.46-2.46,1.64-3.93.46a30.74,30.74,0,0,1-3.9-3.31A.18.18,0,0,1,214.94,314.6Z" transform="translate(-190.96 -158.07)"/><path class="b" d="M301.71,363.55a4.22,4.22,0,0,0,2.3-.48c1.81-.92,3.64-1.79,5.48-2.64a3,3,0,0,0,1.85-2.68c.22-2.38.19-4.77.24-7.54l2.86,3.39c-.09,2.23-.17,4.46-.27,6.68a3.17,3.17,0,0,1-2,3c-2,.88-3.88,1.86-5.82,2.78a2.45,2.45,0,0,1-3.68-1.71C302.56,363.66,302,363.92,301.71,363.55Z" transform="translate(-190.96 -158.07)"/><path class="b" d="M366.2,278c2.86.23,4.25-1.47,5.35-3.82a74.38,74.38,0,0,0,3.49-8.23c3.07,1.4,3.2,1.67,2,5a46.77,46.77,0,0,1-4,8.24,2.71,2.71,0,0,1-2.47,1.38l-1.55,0C367.18,280.59,366.37,279.83,366.2,278Z" transform="translate(-190.96 -158.07)"/><path class="b" d="M214.94,314.6l-.3,0c-.9-.27-1.27-1.32-2.35-1.51v1.54c0,2-1,3-3,3.07-1.4.06-2.77-.22-4.16-.23-2.48,0-5,0-7.43,0-2.78,0-3.16-.27-4.08-2.83l12.53.2c2.43,0,3.21-.71,3.36-3.12,0-.47.09-.93.15-1.64Z" transform="translate(-190.96 -158.07)"/><path class="c" d="M329.49,323.71c-.12,4.41.18,8.8.26,13.2-1,2.24-3,3.67-4.65,5.32a7.67,7.67,0,0,1-1.28,1.06c-.89.55-.69,1.06-.09,1.69.32.34.87.65.51,1.29a55.86,55.86,0,0,1-4-4.54c-.5-.56-.14-.8.25-1.12a48.11,48.11,0,0,0,4.42-4,13.25,13.25,0,0,0,4-10.14,11.88,11.88,0,0,0-.77-2.73C328.54,323.71,329,324.84,329.49,323.71Z" transform="translate(-190.96 -158.07)"/><path class="b" d="M344.7,342c-.06,0-.12.13-.18.14-.9.17-1.88,1.06-2.55.65s-.23-1.62-.3-2.48a144.17,144.17,0,0,1-.36-16.5c0-.67.15-1.34.23-2,1.79.06,2.64.9,2.61,2.66S344,328,344,329.82c-.08,3.85.12,7.71.41,11.56A.71.71,0,0,0,344.7,342Z" transform="translate(-190.96 -158.07)"/><path class="c" d="M212.52,245.62,234,248.94a4.09,4.09,0,0,0,.6.07c1.15,0,1.42.57,1,1.58-.16.4,0,.88-.32,1.26a.82.82,0,0,0-.63-.49l-11.51-1.71c-2.31-.34-4.62-.71-6.94-1C214.39,248.37,213.35,247.13,212.52,245.62Z" transform="translate(-190.96 -158.07)"/><path class="c" d="M230.26,362.84c2,.09,3.75-.72,5.61-1.1,1.41-.28,2.77-.8,4.18-1a4,4,0,0,0,3.51-3c.81,1.33,1,2.89,2.31,3.77a2.57,2.57,0,0,1-2,1.73c-3.22.83-6.44,1.64-9.68,2.38a2.42,2.42,0,0,1-2.74-1.24C231.14,363.83,230.92,363.16,230.26,362.84Z" transform="translate(-190.96 -158.07)"/><path class="c" d="M330.75,351.71a45.78,45.78,0,0,1,.42,7.49,50.66,50.66,0,0,0-4.22,3.09,2.32,2.32,0,0,1-3.07.3,12,12,0,0,1-3.21-2.95,3,3,0,0,0,3.88-.46,19.37,19.37,0,0,1,3.87-2.74,3,3,0,0,0,1.77-3.7C330.52,352.47,330.4,352,330.75,351.71Z" transform="translate(-190.96 -158.07)"/><path class="e" d="M387.94,327.17c.4-1.25.77-2.24,1-3.27s1.15-.62,1.76-.65c.77,0,.41.64.42,1,0,1.28,0,2.56,0,3.83,0,.41.16.89-.58.9s-.64-.4-.64-.85a22.87,22.87,0,0,0-.16-3.28c-.34,1-.66,2-1,3-.16.44-.06,1.09-.82,1.11s-.72-.7-.89-1.17a18.22,18.22,0,0,0-1.13-2.78v3.11c0,.44.07.89-.64.85s-.58-.4-.58-.81c0-1.36,0-2.71,0-4.07,0-.36-.17-.93.49-.83s1.42-.48,1.73.51S387.55,325.85,387.94,327.17Z" transform="translate(-190.96 -158.07)"/><path class="f" d="M368.61,237.17c-.62.33-1.14.65-1.57-.36a68.27,68.27,0,0,0-10.59-17.24,2.39,2.39,0,0,1-.16-.32,19.72,19.72,0,0,1,3.7,4A71.6,71.6,0,0,1,368,235.62,3,3,0,0,1,368.61,237.17Z" transform="translate(-190.96 -158.07)"/><path class="g" d="M233.9,333c-.73-3.19-1.47-6.37-2.2-9.56,1.69,0,2.17,1.31,2.68,2.6.29.73.06,1.67.88,2.18l-.94,5C234.05,333.43,234,333.2,233.9,333Z" transform="translate(-190.96 -158.07)"/><path class="d" d="M252.59,273.4a28.9,28.9,0,0,1-1.1,4.26L249,268.11a3.69,3.69,0,0,1,2.93,3.43A3.12,3.12,0,0,0,252.59,273.4Z" transform="translate(-190.96 -158.07)"/><path class="h" d="M251.2,322.8l-1.53,9.4a.61.61,0,0,1-.21.42c-.36-1.79-1.26-3.48-.72-5.39.43-1.49.82-3,1.22-4.48Z" transform="translate(-190.96 -158.07)"/><path class="i" d="M299.84,339.29a23.43,23.43,0,0,0-3.9-11.49,14.88,14.88,0,0,1,4,4.82l.55.91-.24,6C300,339.6,299.91,339.47,299.84,339.29Z" transform="translate(-190.96 -158.07)"/><path class="j" d="M381.31,326.4a9.73,9.73,0,0,1,0-1.08c.08-.77,0-1.33-1-1.13-.38.07-.69,0-.67-.54s.36-.42.66-.42h3.21c.32,0,.74-.15.75.46s-.36.55-.71.49c-.91-.14-1,.32-1,1.09s0,1.83,0,2.74c0,.45.15,1-.66.95s-.57-.49-.58-.9S381.31,327,381.31,326.4Z" transform="translate(-190.96 -158.07)"/><path class="i" d="M237.46,221.86l7.15,4.2c.95.57.08.92-.17,1.35-.19-.78-1-.88-1.51-1.23-1.3-.85-2.66-1.59-4-2.4A2.83,2.83,0,0,1,237.46,221.86Z" transform="translate(-190.96 -158.07)"/><path class="d" d="M341,270.25v4l-.16.06-2.18-5.69A3.32,3.32,0,0,1,341,270.25Z" transform="translate(-190.96 -158.07)"/><path class="k" d="M382.73,295.48l4.53,2.45-1.65.34C384.74,297.25,383.34,296.77,382.73,295.48Z" transform="translate(-190.96 -158.07)"/><path class="d" d="M341,267.39v1.92A2,2,0,0,1,341,267.39Z" transform="translate(-190.96 -158.07)"/><path class="l" d="M302.18,183.16V170.82c0-1.57.67-2.41,1.87-2.41s1.91.88,1.91,2.4c0,8.19,0,16.38,0,24.56,0,1.18.36,1.47,1.45,1.51A59.72,59.72,0,0,1,321,199.14c.82.23,1.07,0,1.38-.7q7.74-18.15,15.53-36.28a5.8,5.8,0,0,1,.58-1.17,1.87,1.87,0,0,1,3.32,1.54,7.61,7.61,0,0,1-.47,1.23q-7.65,17.87-15.32,35.72c-.36.84-.32,1.17.61,1.51A61.25,61.25,0,0,1,341,208.4c.77.53,1.07.35,1.6-.27q13.56-16.15,27.18-32.25a2.43,2.43,0,0,1,1.19-1,1.89,1.89,0,0,1,2,3c-1.48,1.78-3,3.54-4.48,5.32Q357,196.82,345.59,210.36c-.64.74-.52,1,.17,1.61a66.83,66.83,0,0,1,19.93,27.1c.33.83.63,1,1.54.79,8.72-2.41,17.47-4.76,26.2-7.13,1.9-.51,2.93-.17,3.26,1.1s-.34,2-2.28,2.57c-8.62,2.34-17.24,4.69-25.87,7-1,.26-1.14.56-.82,1.49a62.26,62.26,0,0,1,2.95,12.8c.15,1.4.09,1.48-1.28,1.22q-16-3-32.13-4.48A389.64,389.64,0,0,0,293,252.61a312.91,312.91,0,0,0-54.87,5.5c-1.05.2-1.34.07-1.23-1.07a67.87,67.87,0,0,1,1.39-8.62c.21-.86-.07-1-.77-1.12L215,243.89c-.48-.08-.95-.14-1.42-.23a1.9,1.9,0,0,1-1.67-2.12,1.87,1.87,0,0,1,2.27-1.59l17.28,2.64c2.29.35,4.58.68,6.86,1.07.85.15,1.24,0,1.52-.93a62.09,62.09,0,0,1,7.73-16.13c.46-.7.44-1-.31-1.42-3.06-1.79-6.09-3.64-9.14-5.47-.27-.17-.55-.32-.81-.5a1.93,1.93,0,0,1-.64-2.62,1.84,1.84,0,0,1,2.52-.61c1,.51,1.86,1.09,2.78,1.65,2.5,1.5,5,3,7.48,4.51.68.42,1,.41,1.53-.25a62.75,62.75,0,0,1,11.86-11.62c.74-.55.74-.85.18-1.54q-7.89-9.64-15.71-19.34c-2-2.42-3.93-4.84-5.88-7.26-.94-1.17-.95-2.34,0-3.06s2-.46,3,.72q10.83,13.35,21.63,26.73c.67.85,1.06.77,1.87.26a65.85,65.85,0,0,1,33.05-10c.95,0,1.28-.22,1.26-1.25-.07-4.11,0-8.22,0-12.34Z" transform="translate(-190.96 -158.07)"/><path class="m" d="M243.3,349a22.93,22.93,0,0,0-1,4.89c0,.12,0,.24,0,.36-.5,3.73-.68,3.93-4.33,4.86-2,.5-4,.92-5.91,1.5-1.16.35-1.63-.06-2-1.1-1.4-3.78-2.46-7.66-3.51-11.55-2-7.35-3.86-14.73-5.56-22.15-.2-.91.06-1.17.88-1.35,2.06-.45,4.13-.92,6.15-1.51.95-.27,1.3,0,1.55.87,1.09,3.71,1.88,7.5,2.69,11.28.6,2.8,1.16,5.61,1.79,8.66a66.62,66.62,0,0,0,1.81-7.28A100.1,100.1,0,0,0,237.73,326a1.2,1.2,0,0,1,.77-1,57.16,57.16,0,0,1,8.46-2.93c.66-.2.92.15.78.77-.22.93-.44,1.87-.72,2.78a9.57,9.57,0,0,0-.23,5.28c.94,3.71,1.74,7.45,2.71,11.17a19.3,19.3,0,0,0,1.34-4.83c.86-4.26,1.69-8.53,2.18-12.85a1.28,1.28,0,0,1,.94-1.1,60,60,0,0,1,8.31-2.66c.89-.25.91.32.81.95q-1.12,6.85-2.24,13.7c-1,6.22-2,12.43-3,18.66a3.64,3.64,0,0,1-2.15,3,36.32,36.32,0,0,1-8.06,2.61c-.75.16-1-.23-1.25-.78a55,55,0,0,1-2.71-8.41Z" transform="translate(-190.96 -158.07)"/><path class="n" d="M233.9,333l.42.24c.05.2,0,.55-.08.52C233.91,333.69,233.83,333.38,233.9,333Z" transform="translate(-190.96 -158.07)"/><path class="o" d="M321.83,289.6c.39-7.09.8-14.19,1.15-21.29,0-.94.32-1.23,1.27-1.16,3.66.29,7.33.54,11,.75.77,0,1,.48,1.23,1.07q2.86,7.21,5.77,14.43l.36.88c.1.23.23.43.53.39s.31-.32.31-.56c0-.68,0-1.36,0-2-.09-4.47-.16-8.94-.32-13.41,0-1.12.31-1.36,1.35-1.26,3.73.37,7.47.69,11.21,1,.75.06,1,.35,1,1.11.18,4.86.41,9.73.61,14.6.37,8.82.72,17.63,1.12,26.45,0,.93-.16,1.28-1.14,1.29q-6.71.09-13.42.3c-.86,0-1.07-.46-1.32-1.08L336,294.9c-.14-.34-.29-.66-.42-1s-.21-.44-.5-.41-.32.31-.33.54,0,.56,0,.84c.17,5.31.31,10.62.52,15.93.05,1.09-.23,1.44-1.37,1.41-3.83-.11-7.67-.11-11.5-.16-1.81,0-1.79,0-1.69-1.87q.58-10.29,1.14-20.57Z" transform="translate(-190.96 -158.07)"/><path class="p" d="M251.41,312c-2.55,0-5.11,0-7.66,0-1,0-1.22-.36-1.23-1.26,0-2.8-.21-5.59-.21-8.38a14.28,14.28,0,0,0-.85-4.67q-4.83-13.89-9.59-27.82c-.5-1.45-.49-1.43,1-1.51,4.14-.21,8.29-.41,12.44-.7a1.32,1.32,0,0,1,1.63,1.2c1.27,4.9,2.6,9.79,3.92,14.68.1.37.08.94.55,1s.53-.6.64-1c1.44-5.15,2.9-10.29,4.28-15.45.29-1.11.63-1.46,1.86-1.22,3.63.72,7.3,1.3,11,1.86,1.09.17,1.27.52.93,1.56-3.13,9.42-6.21,18.86-9.31,28.29a7.78,7.78,0,0,0-.41,2.34c0,3.4-.12,6.79-.11,10.19,0,.92-.24,1.24-1.22,1.21-2.55-.07-5.11,0-7.66,0Z" transform="translate(-190.96 -158.07)"/><path class="q" d="M403.54,274.29c-.11,2.23-.23,4.47-.31,6.7,0,1-.39,1.06-1.19.61a10.26,10.26,0,0,0-7.32-1.54,4,4,0,0,0-1.92.92,2.47,2.47,0,0,0,0,4.1,14.8,14.8,0,0,0,3.69,2.19c1.48.69,3,1.31,4.48,2,5.45,2.5,7.52,7.49,5.33,13.08a13.49,13.49,0,0,1-10,8.79,31.77,31.77,0,0,1-17.81-.79,1.32,1.32,0,0,1-1.09-1.62c.25-2.58.41-5.17.54-7.76,0-.92.35-1,1.19-.78a13,13,0,0,0,8.9-.41c.78-.29,1.63-.64,1.72-1.63s-.63-1.52-1.35-2c-1-.64-2.18-1.16-3.24-1.8a14.16,14.16,0,0,1-6.52-16.8,12.28,12.28,0,0,1,7.1-7.78c3.95-1.84,8.18-2.36,12.45-2.62,1.28-.07,2.56-.06,3.83-.06,1.85,0,1.86,0,1.78,1.79s-.18,3.59-.28,5.38Z" transform="translate(-190.96 -158.07)"/><path class="m" d="M293.85,267.59c2.8,0,5.59,0,8.38,0,.86,0,1.24.18,1.46,1.09q5.06,20.73,10.2,41.43c.24,1,.13,1.4-1,1.49-3.86.29-7.71.7-11.56,1.09-.82.09-1.21-.1-1.36-1-.37-2.2-.89-4.37-1.27-6.57-.13-.75-.44-1-1.17-1-2.76.06-5.51.1-8.27.12-.63,0-.88.22-1,.87-.42,2.27-.94,4.52-1.37,6.79-.13.68-.38.94-1.11.87-4-.37-8-.72-12.05-1-1.21-.09-.82-.83-.67-1.44q2.1-8.16,4.22-16.31c2.14-8.29,4.3-16.58,6.41-24.88.22-.88.6-1.18,1.45-1.18,2.91,0,5.83,0,8.74,0Z" transform="translate(-190.96 -158.07)"/><path class="r" d="M194.06,290.36c0-4.15,0-8.3,0-12.45,0-2.84.17-5.67.23-8.5,0-.65.11-1.05.9-1.07,5.11-.14,10.22-.36,15.33-.44a15.59,15.59,0,0,1,7,1.52,12.21,12.21,0,0,1,6.71,8.28,24.93,24.93,0,0,1,.14,12.55,14.93,14.93,0,0,1-4.16,7.54c-.58.56-.57.92,0,1.44,1.56,1.31,3.06,2.69,4.62,4,.58.5.76.86.18,1.55-2.31,2.75-4.57,5.54-6.82,8.34-.49.61-.85.65-1.46.14-2.56-2.17-5.16-4.29-7.75-6.41-.32-.26-.61-.81-1.09-.55s-.31.79-.34,1.21c-.09,1.44-.18,2.87-.23,4.31,0,.64-.22.92-.91.9q-6.24-.15-12.46-.23c-.82,0-.88-.43-.87-1.06q.32-10.55.61-21.07Z" transform="translate(-190.96 -158.07)"/><path class="q" d="M309.71,345.57c-.09,2-.17,3.8-.24,5.58-.07,2-.15,4.07-.21,6.11a1.46,1.46,0,0,1-1,1.44c-1.71.76-3.39,1.61-5.08,2.41-1.16.55-1.31.48-1.3-.79,0-3.75,0-7.51.16-11.26.22-6.74.43-13.49.84-20.23a3.74,3.74,0,0,1,2.14-3.51c4.7-2.44,9.55-4.24,15-4a7.69,7.69,0,0,1,2.68.56c3.42,1.44,4.64,3.79,3.85,7.61a12.28,12.28,0,0,1-3.59,6.1,63.45,63.45,0,0,1-5.32,4.65c-.6.49-.62.81-.14,1.42a135.39,135.39,0,0,0,10,11.16c1,1.07,1,1.07-.24,1.86a28.14,28.14,0,0,0-4,2.86c-.66.59-1.09.5-1.72,0a75.75,75.75,0,0,1-6.88-7A33.58,33.58,0,0,0,309.71,345.57Z" transform="translate(-190.96 -158.07)"/><path class="s" d="M330.75,351.71c-.36.25.47,1.14-.56,1-1.7-1.83-3.41-3.65-5.1-5.48-.3-.32-.57-.66-.85-1-.07-.85-.94-1.13-1.28-1.81-.17-.35-.37-.59,0-.9a36.33,36.33,0,0,0,6.75-6.65Q330.25,344.3,330.75,351.71Z" transform="translate(-190.96 -158.07)"/><path class="t" d="M299.84,339.29l.4.23a15.65,15.65,0,0,1-.17,3.68c-.22-.64.16-1.35-.23-2Z" transform="translate(-190.96 -158.07)"/><path class="r" d="M366.6,359a28.39,28.39,0,0,1-9.61-1.69,1.39,1.39,0,0,1-1-1.49c-.28-11-1.07-22-1.89-33-.06-.8.11-1.14,1-.92,5.2,1.28,10.35,2.69,15.1,5.23,6.65,3.56,11,8.81,12.25,16.42,1.32,7.87-2.59,13.53-10.55,14.94A27,27,0,0,1,366.6,359Z" transform="translate(-190.96 -158.07)"/><path class="o" d="M265.94,341.11A19.41,19.41,0,0,1,273.15,327c4-3.3,8.64-4.66,13.75-3.28,4.53,1.23,7.3,4.54,9.14,8.68,4.54,10.24-.87,23.31-11.09,26.84a12.54,12.54,0,0,1-13.67-3C267.44,352.61,265.87,348.11,265.94,341.11Z" transform="translate(-190.96 -158.07)"/><path class="p" d="M350.2,349.46c.16,2.84.15,2.81-2.46,3.77a75.09,75.09,0,0,0-12.62,6.54l-.92.56c-.48.31-.78.34-.81-.39-.46-11.64-1.78-23.24-1.79-34.9a2.08,2.08,0,0,1,1.31-2.14,23.45,23.45,0,0,1,5.32-1.78c.85-.19,1.17.15,1.1,1-.61,7.71.1,15.39.48,23.08,0,.95.43.81,1,.56a25.71,25.71,0,0,1,6.12-2c.23,0,.47-.08.71-.1,2.12-.19,2.2-.11,2.28,2,0,.63.11,1.27.15,1.9S350.16,348.82,350.2,349.46Z" transform="translate(-190.96 -158.07)"/><path class="u" d="M367,275.76c-1.61,0-1.62,0-1.09-1.3a34.09,34.09,0,0,0,2.16-7.8c.11-.69.34-1,1-1,1,0,1.91-.13,2.86-.2s.94.27.67,1a64.2,64.2,0,0,1-3.76,8.12C368.42,275.48,367.85,276,367,275.76Z" transform="translate(-190.96 -158.07)"/><path class="a" d="M259.16,227.15c12,8.54,25.6,12.6,40.14,13.61s28.55-1.27,41.62-8.14l.19.22-1.15,1c-.42.37-.83.75-1.27,1.1a43.86,43.86,0,0,1-19,8.54c-15.17,3.12-30,2.08-44.39-3.91C268.82,236.91,263.2,233.06,259.16,227.15Z" transform="translate(-190.96 -158.07)"/><path class="a" d="M314.86,225.3a16.53,16.53,0,0,1,4.43-10.81c1.07-1.11,2.32-2.11,4-1.6s2.18,2.18,2.27,3.74a15.62,15.62,0,0,1-4.81,12.53,4.56,4.56,0,0,1-1.72,1.06,2.56,2.56,0,0,1-3.42-1.32A7.43,7.43,0,0,1,314.86,225.3Z" transform="translate(-190.96 -158.07)"/><path class="a" d="M278.42,221.29a14.74,14.74,0,0,1,3.39-8.88,7.33,7.33,0,0,1,1.22-1.14c2.08-1.52,4.12-.8,4.5,1.74a13,13,0,0,1-3.93,11.53,3,3,0,0,1-3.23,1.05c-1.25-.43-1.59-1.59-1.81-2.75A13.32,13.32,0,0,1,278.42,221.29Z" transform="translate(-190.96 -158.07)"/><path class="a" d="M292.81,295.51a21.18,21.18,0,0,0-2.39,0c-1.07.13-1.36-.28-1.18-1.28.53-3,1-6,1.54-8.95.36-2,.73-4.08,1.08-6.12.08-.48.06-1.08.66-1.13s.67.58.77,1c1.17,5,2.31,9.94,3.51,14.89.24,1-.05,1.33-1,1.35s-2,.1-3,.16Z" transform="translate(-190.96 -158.07)"/><path class="a" d="M206.26,284.57c0-2.31,0-4.62,0-6.94,0-.95.29-1.26,1.25-1.19,6,.45,8.12,4.62,6.56,10.54-.88,3.33-3.47,4.92-6.62,5.74-.81.21-.94-.34-.94-1v-7.18Z" transform="translate(-190.96 -158.07)"/><path class="a" d="M309.57,336.72c.14-2.58.29-5.15.44-7.73,0-.3,0-.62.42-.74,2.25-.68,4.48-1.48,6.89-1.19.51.06,1.16.05,1.39.52s-.3.94-.62,1.31c-.79.89-1.59,1.79-2.46,2.61-1.9,1.8-3.85,3.56-5.78,5.34Z" transform="translate(-190.96 -158.07)"/><path class="a" d="M364.51,339.33a2.61,2.61,0,0,1,0-.48c.12-.72-.56-1.71.21-2.1s1.31.56,1.94.93a17.85,17.85,0,0,1,4.09,3.08,8.86,8.86,0,0,1,2.44,5.94,2.81,2.81,0,0,1-2,2.95,11,11,0,0,1-5.07.35c-.66-.05-.68-.57-.74-1.05C365,345.76,364.68,342.55,364.51,339.33Z" transform="translate(-190.96 -158.07)"/><path class="a" d="M290,339.49a13.52,13.52,0,0,1-1.46,6.38,8.48,8.48,0,0,1-7.44,4.86c-3.58.23-6.34-2.11-6.9-6.06a13.43,13.43,0,0,1,1.9-9.3,8.2,8.2,0,0,1,7.1-4,6,6,0,0,1,6,3.92A10.47,10.47,0,0,1,290,339.49Z" transform="translate(-190.96 -158.07)"/><path class="h" d="M292.67,285.91a55.56,55.56,0,0,1,1.5,6.51c.12.52-.06.58-.51.62-2.16.19-2.16.21-1.81-2C292.1,289.47,292.36,287.86,292.67,285.91Z" transform="translate(-190.96 -158.07)"/><path class="f" d="M208.29,279c3.19.42,4.84,2.76,4.26,6.08a6.23,6.23,0,0,1-3.4,4.64c-.37.19-.86.52-.86-.33Z" transform="translate(-190.96 -158.07)"/><path class="v" d="M312.3,332.65c-.12-2.57.09-2.79,2.43-2.64Z" transform="translate(-190.96 -158.07)"/><path class="f" d="M366.63,340.21c2.41,1.46,4,3.22,4.36,5.83.2,1.32-.15,1.8-1.48,1.87-2.52.14-2,.43-2.32-1.9C367,344.15,366.83,342.28,366.63,340.21Z" transform="translate(-190.96 -158.07)"/><path class="s" d="M287.31,336.43a10.18,10.18,0,0,1-1.68,9.91,5.67,5.67,0,0,1-6.21,2,1.32,1.32,0,0,1-.65-1.2,11.1,11.1,0,0,1,2.19-8.75,6,6,0,0,1,5.24-2.34A1.54,1.54,0,0,1,287.31,336.43Z" transform="translate(-190.96 -158.07)"/><path class="b" d="M287.31,336.43c-4.78-.11-7.51,2.3-8.16,7a10.07,10.07,0,0,0,.27,4.91c-1.92-.43-2.72-1.9-3-3.59a11.24,11.24,0,0,1,1.44-8.18,6.09,6.09,0,0,1,5.59-3.07A3.84,3.84,0,0,1,287.31,336.43Z" transform="translate(-190.96 -158.07)"/></svg>