<svg xmlns="http://www.w3.org/2000/svg" viewBox="0 0 244.21 176.85"><defs><style>.cls-1{fill:#fff;}.cls-2{fill:#a63794;}</style></defs><g id="Layer_2" data-name="Layer 2"><g id="Layer_1-2" data-name="Layer 1"><path class="cls-1" d="M243.85,80.48c-1.39-4.93-6.56-8.51-12.29-8.51-.31,0-.64,0-.95,0a94.43,94.43,0,0,0-10.29,1.54,90.23,90.23,0,0,1-10.7,1.57l-.7,0a24.19,24.19,0,0,0-2.11-2.93,11,11,0,0,0-8.63-4.42l-.61,0a60.15,60.15,0,0,1,.47-6.68c.72-6.6,1.7-15.59-7.57-19.3,4.13-4.78,5.2-8.75,5.21-11.55a9.19,9.19,0,0,0-3.46-7.47,9.85,9.85,0,0,0-6-2.14c-2.09,0-9,.92-10.27,12.79-.79,7.46-6.18,11.92-14.4,11.92a25.85,25.85,0,0,1-5.73-.68,9,9,0,0,1-6.07-5.44,8.46,8.46,0,0,1,.17-7.62c2.9-4.8,6.07-6.9,9.13-8.93,2.78-1.85,5.66-3.76,7.35-7.29a9.52,9.52,0,0,0,.14-8,11.48,11.48,0,0,0-6.79-6.2,12.71,12.71,0,0,0-4-.6,22.75,22.75,0,0,0-17.07,8.74C136,13,133.15,19,135.45,27.59c1.76,6.52,1.42,11.62-1,14.74-2.62,3.42-7.19,3.93-9.68,3.93l-1.18,0c-9.2-.55-11.9-2.72-13.22-4.55-2-2.78-2.61-7.72-3.37-14-.3-2.52-.64-5.37-1.12-8.42A23.6,23.6,0,0,0,98.39,4.94,19,19,0,0,0,85.85,0C78.63,0,73.23,4.56,72.42,11.34c-.84,7.1,4.7,11.66,10.07,16.06a59.86,59.86,0,0,1,8.39,7.84c2.86,3.43,6,8.47,4.35,13-1.13,3.16-4.58,5.73-8.79,6.54a31.78,31.78,0,0,1-5.89.53c-.74,0-1.5,0-2.26-.08a9.4,9.4,0,0,0,.59-1.47c.69-2.24.88-5.79-2.15-9.94l-.14-.19-.16-.18c-2.49-2.75-6.3-4.27-10.74-4.27a22.14,22.14,0,0,0-15.11,6.11c-1.39-1.19-2.88-2.59-4.34-4-5.78-5.47-11.76-11.12-18.63-11.12a11.62,11.62,0,0,0-5.47,1.35,7.42,7.42,0,0,0-4,6,9.11,9.11,0,0,0,3.64,7.83c2.45,1.87,8.75,5,17.43,9.2,2,.94,3.8,1.81,5.37,2.6a16.22,16.22,0,0,0,.86,7.59,18.87,18.87,0,0,0,9,9.87c.86.51,4,2.58,2.8,5.42-.38.93-1,1.24-3.91,1.9-3.13.71-9.65,2.2-9.62,10.19a13.7,13.7,0,0,0,.44,3.42c-1.08.07-2.21.11-3.39.11a93,93,0,0,1-12.55-1,34.78,34.78,0,0,1-3.88-.91,36.18,36.18,0,0,0-9.53-1.62A17.65,17.65,0,0,0,5,95a10.23,10.23,0,0,0-4.92,9.71,11.91,11.91,0,0,0,7.41,9.67,20.69,20.69,0,0,0,7.83,1.42c6.1,0,12.58-2,18.85-4,4.6-1.46,9-2.83,12.53-3.19,1.75-.18,3.37-.37,4.93-.55a77.24,77.24,0,0,1,8.44-.72c4.7,0,8.05,1.16,12.08,7.2a11.18,11.18,0,0,0,.58,2,7.51,7.51,0,0,1-.28,1.88c-.44,1.6-2.52,7.17-10.89,11.3-2.13,1-4.6,2-7.21,3C46.2,136,37,139.55,32.14,147.87c-1.85,3.19-3.23,8.1-1.53,12.33a10.5,10.5,0,0,0,7.32,6.19,20.16,20.16,0,0,0,5.44.79c10.93,0,17.58-9.36,25.27-20.21,2.37-3.33,4.81-6.78,7.54-10.19,6.77-8.5,14.48-10.28,19.76-10.28a19,19,0,0,1,7.39,1.32c1.07.53,6.33,3.52,4.89,11.14-.54,2.88-2.53,5-5,7.66C100,150,96,154.23,94.74,161.11a14,14,0,0,0,2.71,11.66,11.16,11.16,0,0,0,8.54,4.08c4.75,0,8.8-3.1,10.56-8.09a34.13,34.13,0,0,0,1.79-12.13c0-3.2,0-5.72,1.54-9,2.24-5,13.18-10.29,27-10.29a30.48,30.48,0,0,1,4.16.26c12.3,1.69,20.28,6.27,25.12,14.4,1.12,1.88,7.2,11.24,17,11.24a15.52,15.52,0,0,0,4.35-.63c4.58-1.33,7.42-4.78,7.41-9,0-7.42-8.67-14.51-22.6-18.48-5.74-1.64-9.37-4-10.47-6.86s.28-5.9,1.61-8.06a7.94,7.94,0,0,1,7.3-4.17,20.87,20.87,0,0,1,8.94,2.55,64.08,64.08,0,0,1,5.93,4.06c7.36,5.38,13,9.2,18.1,9.22h0c5.73,0,10-3.22,10.48-7.83.42-4.42-2.88-9.87-13.4-11.89-8.35-1.6-16.55-3.53-21-7.48a13.16,13.16,0,0,0,2.56-4.13,13,13,0,0,0,2.31,3.7l.09.09.09.09a8.84,8.84,0,0,0,6.27,2.43,10.5,10.5,0,0,0,7.56-3.21c1.54-1.56,3.43-4.43,3.72-9.27.07-1.33.12-2.6.13-3.84l.72.19c4.69,1.26,10.54,2.83,16.12,2.83a18.83,18.83,0,0,0,10-2.48C243.3,88.63,245,84.58,243.85,80.48ZM236.92,87c-6.53,4-18,.21-24.82-1.52-1.55-.4-3.14-.79-4.73-1.14a42.78,42.78,0,0,1,.31,9.7c-.36,5.93-3.79,8-6.57,8a4.17,4.17,0,0,1-2.93-1c-4.33-4.83-1.17-14-5.33-16.67a2.54,2.54,0,0,0-1-.3c-2,0-1,5-3.47,13.46-1,3.89-3.29,5.44-5.57,5.44h-.05c4.08,9.31,18.14,12,27.19,13.78,12.77,2.44,11.49,10.37,3.78,10.34-5.92,0-16.68-10-21.82-12.71s-16.35-6.66-22.48,3.31c-5,8.13-4.06,17.46,11.58,21.93,19.7,5.62,23.18,16.06,15.17,18.39-8.16,2.37-14.17-5.47-16-8.49-6.77-11.36-18.09-15.22-28.53-16.66s-31.33,2.28-36.08,12.76c-3.67,8.13-.39,12.79-3.48,21.56s-14.54,5.11-12.7-5.25,11.8-13.22,13.48-22.11-3.36-14.24-7.46-16.25S85.07,118,72.48,133.83s-19.25,32-33.25,28c-6.79-1.93-4.65-8.78-3-11.6C41.68,140.9,54.8,138.33,63.61,134c10-4.92,14.35-12.94,13.75-18.5a6.15,6.15,0,0,1-.62-1.94c0-.18-.06-.37-.08-.57a6.58,6.58,0,0,0-.4-.74c-8.2-12.51-15.94-9.74-30.06-8.32C35,105,19.41,114.18,9.24,110,4.92,108.28,2.51,102.29,7.55,99c7-4.57,14.54-.38,20,.38,10.16,1.42,18.36,1.36,24.31-.21a8.81,8.81,0,0,1-3.43-7c0-8,10.22-3.15,13.17-10.26s-5-11.42-5-11.42S46.3,65.7,50,54.69L48.74,54C43.45,51.25,28,44.16,24.63,41.62c-2.13-1.64-2.57-4.73-.29-5.93,8.65-4.54,19,11.31,27,16a17.57,17.57,0,0,1,14.35-7.79,9.56,9.56,0,0,1,7.23,2.71c3.58,4.88.84,8.5-3.18,9.94a6.09,6.09,0,0,0-3.07,1.39c6.75,1.91,13.92,2.76,20.67,1.46,10-1.93,19.55-12.31,7.16-27.16C87,23.19,76.25,19.15,77.11,11.9,78.47.53,98.45,2.28,101.23,20c2,13,1.52,21.92,7.57,26.75,2.09.25,3.3,1,4,2.22a35.52,35.52,0,0,0,10.56,1.95C134.29,51.6,145,45,140,26.36,135.88,11,151.74,3.6,158.3,5.74c2.83.92,5.44,4.31,3.85,7.65-2.57,5.38-10.13,5.66-16.26,15.81-4.32,7.16.17,18.1,8.88,20.1,13.37,3.07,24.55-2.81,25.88-15.34,1-9.06,5.59-9.79,8.69-7.41,2.92,2.24,2.93,9.16-9,18.17C175,48.77,176,56.25,178.91,62.58c.17-2.27.32-4.43.44-6.35.59-9.06,4.84-10.39,7.28-10.39a6.13,6.13,0,0,1,1.72.23c8.66,3.16,4.33,12.5,4.5,22.16.06,3.87.83,4.67,2.09,4.67a9.61,9.61,0,0,0,1.46-.19,9.81,9.81,0,0,1,1.78-.19c1.47,0,3.18.5,5,2.7a18.94,18.94,0,0,1,2.88,4.64c1.21,0,2.47,0,3.79,0,6.39-.32,15.14-2.71,21.08-3.12C237.77,76.25,242.72,83.44,236.92,87Z"/><path class="cls-1" d="M113.09,130.08h47.82V106.15H113.09Zm38.6-13.1c-1.34-2.18.74-3.67,1.1-4a6.8,6.8,0,0,1,5.73-1.19c2.73.55,2.43,3.15.73,3.78-3.91,1.44,1.84,2.92,1.65,6s-2,3.87-5.12,4.36c-2.26.4-4.57.1-4.82-1.58s4.09-1.74,4.39-3.48S153,119.17,151.69,117Zm-13.55-4.52c4.88-.49,4.88,2.88,5.49,5.76s.67.88.92-.2c.49-2.08-.12-.19.91-4.16s6.16-1.79,4.89.39c-1.29,1.78-3,7-3.67,11.41s-6.28,5.56-7.25,3.28,2.31-4.17,2.07-6,0-1.29-3.54-5.26S138.14,112.46,138.14,112.46Zm-2.36,8c-.13,3.84-2.32,6.14-6.2,6.39-6.6.45-6.19-4.32-6.22-9.11.16-4.25,5.88-5.12,6.4-5.13C135.62,112.39,135.92,116.57,135.78,120.41Zm-22.63-7.47c.61-1.69,2.74-1.79,4.57-1.69s-.3-2.28.44-3.77,5.75-2.12,4.51.2a8.74,8.74,0,0,0-1,2.19c-.91,2.48,2.38.69,3.48,2.88.91,1.93-3.48,1.5-4,2.92-1.16,2.34,2.26,9.93-1.52,11.07-2.63.4-4.94-1-3.6-4.36s1.77-4.77,1.34-6.46C116.94,114,112.54,114.63,113.15,112.94Z"/><path class="cls-1" d="M130.37,120.66c.54-1.14.14-3.49-1.62-3.21a1.76,1.76,0,0,0-1.14,2.29C128,121.64,129.83,121.81,130.37,120.66Z"/><path class="cls-1" d="M130.67,88.1a3,3,0,0,0,2.77-2.19c1.27-3.31.44-9.9-3.32-9.9a4.13,4.13,0,0,0-.68.07s-3.83,1.17-2.83,7C127.2,86.52,129,88.1,130.67,88.1Z"/><path class="cls-1" d="M88.71,87.09c1.07,0,2.16-1,2.82-2.48,1.46-3.42,2-10.34-2-10.34h-.29s-4,0-3.5,7.16C86,85.48,87.32,87.09,88.71,87.09Z"/><path class="cls-1" d="M51.34,51.66c-8-4.66-18.35-20.51-27-16-2.28,1.2-1.84,4.29.29,5.93C28,44.16,43.45,51.25,48.74,54l1.21.67a20.58,20.58,0,0,1,.87-2.18C51,52.22,51.16,51.94,51.34,51.66Z"/><path class="cls-1" d="M176.69,96.71c-.14-4.1,1.28-21.21,2.22-34.13-2.9-6.33-3.94-13.81,1.42-17.86,11.94-9,11.93-15.93,9-18.17-3.1-2.38-7.73-1.65-8.69,7.41-1.33,12.53-12.51,18.41-25.88,15.34-8.71-2-13.2-12.94-8.88-20.1,6.13-10.15,13.69-10.43,16.26-15.81,1.59-3.34-1-6.73-3.85-7.65C151.74,3.6,135.88,11,140,26.36c5,18.65-5.72,25.24-16.68,24.58A35.52,35.52,0,0,1,112.77,49c.86,1.59.88,4,.79,7.41-.17,6.16-.67,26.15-.17,34.48s-2,11.17-5.66,11.67l-.48,0c-3.4,0-5.63-5.13-4.36-14.36,1.34-9.66-.5-23.33.17-32.32,0,0,.48-9.18,5.13-9.18l.37,0,.24,0c-6-4.83-5.53-13.74-7.57-26.75C98.45,2.28,78.47.53,77.11,11.9,76.25,19.15,87,23.19,94.5,32.21c12.39,14.85,2.89,25.23-7.16,27.16-6.75,1.3-13.92.45-20.67-1.46a3.59,3.59,0,0,0-1,2.37c-.07,4,4.29,2.57,8.45,12C79.91,85.19,71.9,95.54,65,99.75a11.88,11.88,0,0,1-6.18,1.73,11.22,11.22,0,0,1-6.92-2.32c-6,1.57-14.15,1.63-24.31.21-5.49-.76-13-5-20-.38-5,3.3-2.63,9.29,1.69,11.05,10.17,4.14,25.79-5,37-6.13,14.12-1.42,21.86-4.19,30.06,8.32a6.58,6.58,0,0,1,.4.74c-.9-7-.52-25.43,1.75-37.58C80.21,65.73,87,64.63,90,64.63a8.82,8.82,0,0,1,1.43.1c6.33,1,10.16,4.49,10.82,16.16.65,11.29-6.52,16.34-10.76,16.34l-.39,0h-.24c-3.9,0-3.12,8.13-4.26,14.34-.68,3.66-3.53,5.93-6,5.93a3.53,3.53,0,0,1-3.2-2C78,121,73.61,129.06,63.61,134c-8.81,4.35-21.93,6.92-27.39,16.27-1.64,2.82-3.78,9.67,3,11.6,14,4,20.66-12.23,33.25-28s28.83-12.25,32.93-10.25,9.13,7.36,7.46,16.25-11.61,11.61-13.48,22.11,9.61,14,12.7,5.25-.19-13.43,3.48-21.56c4.75-10.48,25.64-14.2,36.08-12.76s21.76,5.3,28.53,16.66c1.8,3,7.81,10.86,16,8.49,8-2.33,4.53-12.77-15.17-18.39-15.64-4.47-16.59-13.8-11.58-21.93,6.13-10,17.35-6,22.48-3.31s15.9,12.69,21.82,12.71c7.71,0,9-7.9-3.78-10.34-9-1.74-23.11-4.47-27.19-13.78A6.4,6.4,0,0,1,176.69,96.71Zm-48-32.48a22.66,22.66,0,0,1,2.53-.15c16.93,0,16.6,21.07,16,30.3-.48,6.94-3.79,9.24-6.36,9.24a3.48,3.48,0,0,1-2.47-.91c-2-2,.17-6.17-2.82-6.49a.86.86,0,0,0-.22,0c-2.81,0-3.41,6.38-8.62,7.85a6.21,6.21,0,0,1-1.66.23c-5,0-10.48-6.11-10.33-21.23C114.89,66.23,128.71,64.23,128.71,64.23Zm32.2,65.85H113.09V106.15h47.82Zm3-17.74h-.64v1.88h-.52v-1.88h-.63v-.45h1.79Zm2.27,1.88,0-.89c0-.28,0-.62,0-1h0c-.07.3-.17.63-.26.9l-.28.91h-.41l-.25-.9c-.08-.27-.15-.6-.21-.91h0c0,.31,0,.67,0,1l0,.88h-.48l.14-2.33h.7l.23.78c.07.27.14.56.19.83h0c.06-.27.14-.58.22-.84l.25-.77h.69l.12,2.33Zm9.49-26.17c-.5,10.5-5.5,13-14,14.66a21.91,21.91,0,0,1-4.62.53c-4.38,0-8-1.63-8.54-5.86-.66-5.67,11.17-5.83,12-11.66s-6.33-5.83-10-13.16,2-12.33,3-13.49a16.27,16.27,0,0,1,11.58-4.42,20.05,20.05,0,0,1,4.08.42c7.5,1.66,6.67,10.49,2,12.66C161,74.06,176.19,77.56,175.69,88.05Z"/><path class="cls-1" d="M230.93,76.72c-5.94.41-14.69,2.8-21.08,3.12-1.32.06-2.58.07-3.79,0a19.48,19.48,0,0,1,1.31,4.49c1.59.35,3.18.74,4.73,1.14,6.78,1.73,18.29,5.54,24.82,1.52C242.72,83.44,237.77,76.25,230.93,76.72Z"/><path class="cls-2" d="M76.74,113.54a6.15,6.15,0,0,0,.62,1.94,7.84,7.84,0,0,0-.7-2.51C76.68,113.17,76.71,113.36,76.74,113.54Z"/><path class="cls-2" d="M108.8,46.77a15,15,0,0,0,4,2.22C112.1,47.74,110.89,47,108.8,46.77Z"/></g></g></svg>