<svg xmlns="http://www.w3.org/2000/svg" viewBox="0 0 217.69 203.41"><defs><style>.cls-1{fill:#fffbfc;}</style></defs><g id="Layer_2" data-name="Layer 2"><g id="Layer_1-2" data-name="Layer 1"><path class="cls-1" d="M217.67,43.73A43.83,43.83,0,0,0,174.06,0Q108.9,0,43.75,0A43.82,43.82,0,0,0,0,43.81Q0,101.73,0,159.64a43.84,43.84,0,0,0,43.88,43.77h130a43.86,43.86,0,0,0,43.81-43.66Q217.71,101.73,217.67,43.73ZM46.44,171.31c.25-2.27,1.69-3.76,4.43-4.51s5.58-.59,8.34-1.13c3.41-.67,6.61-1.75,9.1-4.33,3.25-3.39,3.59-8.24.91-12.49s-6.74-5.67-11.38-4a69.53,69.53,0,0,0-8.06,3.9c-3.58,1.77-7.21,3.35-11.33,3.18-10.19-.43-17.79-9.88-16.32-20.26,1.23-8.68,8.45-15.61,17.6-16.91a17.17,17.17,0,0,1,6.19,0,5.63,5.63,0,0,1,4.69,5.71,5.87,5.87,0,0,1-4.69,6.14,23.5,23.5,0,0,1-4.74.21c-3.28.1-5.19,2-5.21,5.11a5.34,5.34,0,0,0,5.23,5.67,9.11,9.11,0,0,0,4.72-1.28c1.94-1,3.81-2.18,5.68-3.33A23,23,0,0,1,69,129.84c7.84,1.74,12.27,7.36,14.06,14.85,2.08,8.63,0,16.52-5.94,23.17-5.72,6.46-12.77,10.52-21.66,10.67a11,11,0,0,1-5.7-1.05A5.9,5.9,0,0,1,46.44,171.31ZM123.22,43.5c6.33-5.64,12.61-11.35,19.08-16.84,4.15-3.52,9.06-5.44,11.84-5.46,10.46,0,18,4.92,20.9,12.33,3.18,8,.93,15.15-4.68,21.24-4.27,4.63-9.29,8.47-14.08,12.54-1,.83-1.07,1.32-.2,2.25,1.75,1.87,3.41,3.83,5.07,5.78a19.56,19.56,0,0,1,2.74,4.1c1.88,3.83,1.38,7-1.54,9.62a9.06,9.06,0,0,1-10.53,1.26,15.74,15.74,0,0,1-3.68-3.27q-12.76-14.62-26-28.84c-3.63-3.91-3.86-8.54-.63-12.78A12.92,12.92,0,0,1,123.22,43.5ZM185.41,136a2.78,2.78,0,0,1,0-5.55,2.78,2.78,0,0,1,0,5.55ZM121,66.61l18.37,20.31c-3.56-.47-5.78,1.16-8.09,3,2.34-9.28-3.17-16.7-13.46-16.79C119.67,71.43,121.09,69.61,121,66.61Zm2.5,14.73c2.33,2.55,2.4,5.85.09,8q-5,4.69-10.14,9.28c-.75.67-.84,1.09-.12,1.86,2,2.14,4,4.32,5.86,6.56.75.9,1.18.81,2,.09,4.82-4.23,9.69-8.4,14.56-12.57a5.12,5.12,0,0,1,7.24,0,5.86,5.86,0,0,1,1.28,7.61,13.68,13.68,0,0,1-2.69,3q-11,9.6-21.92,19.2c-4.33,3.8-7.21,3.62-11.06-.72q-8.86-10-17.78-20c-.89-1-1.77-2-2.75-2.94-.73-.68-.59-1.11,0-1.73,1.61-1.59,3.26-3.15,4.7-4.88a12.13,12.13,0,0,0-3.66-18.83c-.32-.17-.62-.36-1.11-.65,5.82-5,11.42-10,17.08-14.8a5.41,5.41,0,0,1,7.7.76c2.14,2.5,2.1,5.74-.22,7.87q-7.16,6.57-14.39,13c-.8.71-1,1.13-.19,2,1.94,2,3.81,4.13,5.61,6.28.76.92,1.23.79,2,.07q5.1-4.6,10.3-9.1C118.46,78.52,121.11,78.76,123.45,81.34ZM87.94,89.5c-2.89,2.88-5.79,5.78-8.8,8.54-1,1-.9,1.44,0,2.4Q91.91,114.66,104.61,129a16.39,16.39,0,0,1,3.45,5.35c1.24,3.53,0,6.49-3.64,9-3.27,2.27-6.5,2.3-9.21-.22a91.21,91.21,0,0,1-6.45-6.74Q77.82,123.83,67,111.15c-.88-1-1.39-1.27-2.5-.23-2.34,2.22-4.85,4.26-7.46,6.51-1.48-4.29-2.84-5.86-7.58-8.81q6.09-5.45,12.15-10.86c6.19-5.52,12.31-11.13,18.73-16.4,2.47-2,4.72-1.89,7,.56C89.92,84.59,90.15,87.3,87.94,89.5Zm-19.4,32.14a31.69,31.69,0,0,0-8.33.7c1.72-1.63,3.06-2.88,4.36-4.17.49-.49.77-.34,1.14.11C66.55,119.31,67.42,120.32,68.54,121.64Zm99.33,58.05c-2.32,2.11-4.9,2.84-7.73,1.54s-3.5-3.79-3.28-6.61c.5-6.45,1.09-12.89,1.61-19.35q.71-8.67,1.32-17.35c.27-4-1.67-6.8-5-8.64-2.94-1.61-6.93-.89-9.7,1.59a8.6,8.6,0,0,0-2.68,9.62,16.36,16.36,0,0,0,2.22,4.19c1.69,2.48,1.65,4.69-.08,6.91a5.9,5.9,0,0,1-6.9,1.95,9.15,9.15,0,0,1-4-3c-9.77-12.29-2.86-31.57,12.49-34.81a42.75,42.75,0,0,1,4.55-.47c10.57,0,20,7.43,21.84,17.35.72,4,.08,7.91-.35,11.86-.33,3-.62,6-.9,8.93a2.77,2.77,0,0,0,1.34,3c1.13.64,2.13.17,3.08-.42a55.91,55.91,0,0,0,6.77-5.6,34.22,34.22,0,0,1,5-4,5.4,5.4,0,0,1,7.11,1.11c1.91,2.22,2.08,5.93.28,7.94A36.61,36.61,0,0,1,192,158C184,165.22,175.88,172.42,167.87,179.69Z"/><path class="cls-1" d="M146.56,58.75c.46.53.78.81,1.45.19,3.7-3.45,7.56-6.76,11.14-10.33a6.49,6.49,0,0,0,1.42-7.92c-1.55-3.11-3.9-5.26-6.78-5.54A7.51,7.51,0,0,0,148.17,37c-3.61,3.2-7.16,6.46-10.76,9.68-.54.49-.69.8-.13,1.44C140.41,51.64,143.49,55.2,146.56,58.75Zm-.86-11.59c1.6-1.49,3.25-2.92,4.88-4.39,1-.87,2-1,2.86,0a1.84,1.84,0,0,1-.21,2.87c-1.7,1.56-3.37,3.15-5.06,4.73-.21.2-.45.39-.77.67a24.39,24.39,0,0,1-2.52-2.57C144.35,47.79,145.32,47.51,145.7,47.16Z"/><path class="cls-1" d="M186.72,133.28c.38-.6.69-1.23-.18-1.64a2.93,2.93,0,0,0-2.14-.1c-1.16.39-.49,1.44-.61,2.19-.07.43-.22,1.06.43,1.23.91.23.43-1,1.1-1.12.66.13.45,1.48,1.38,1.1s.12-1,0-1.49A.33.33,0,0,1,186.72,133.28Z"/></g></g></svg>