<svg xmlns="http://www.w3.org/2000/svg" viewBox="0 0 219.96 205.66"><defs><style>.cls-1{fill:#ec2852;}.cls-2{fill:#fffbfc;}.cls-3{fill:#ec2051;}</style></defs><g id="Layer_2" data-name="Layer 2"><g id="Layer_1-2" data-name="Layer 1"><path class="cls-1" d="M0,40.33C.87,39,.68,37.43,1,36A45,45,0,0,1,39.92.36,58.88,58.88,0,0,1,46.68,0H175a45.12,45.12,0,0,1,44.55,39.68A61.54,61.54,0,0,1,220,47q0,56.54,0,113.09a45.18,45.18,0,0,1-36.15,44.66c-1.39.3-2.9.1-4.17.92H40c-.42-.74-1.2-.48-1.8-.58A44.87,44.87,0,0,1,.9,169.33c-.28-1.34-.11-2.78-.9-4Zm109.91,164.2H175a43.89,43.89,0,0,0,43.82-43.67q0-58,0-116A43.83,43.83,0,0,0,175.17,1.16q-65.16-.1-130.31,0A43.81,43.81,0,0,0,1.15,44.92q-.07,57.92,0,115.83A43.85,43.85,0,0,0,45,204.53Z"/><path class="cls-2" d="M109.91,204.53H45A43.85,43.85,0,0,1,1.14,160.75q-.06-57.91,0-115.83A43.81,43.81,0,0,1,44.86,1.15q65.16-.07,130.31,0a43.83,43.83,0,0,1,43.62,43.68q0,58,0,116A43.89,43.89,0,0,1,175,204.53Zm67.88-8.42a14.71,14.71,0,0,0,1.63-.12,36.37,36.37,0,0,0,30.64-36.37q0-56.82,0-113.63a36.49,36.49,0,0,0-36.89-36.8c-17.66,0-35.31,0-53,0-24.55,0-49.11,0-73.67,0A36.36,36.36,0,0,0,9.88,45.82q0,57.09,0,114.18a35.28,35.28,0,0,0,9.25,24.24,34.74,34.74,0,0,0,23,11.87,15.06,15.06,0,0,0,4.18.34q63.63,0,127.27,0A15.45,15.45,0,0,0,177.79,196.11Z"/><path class="cls-3" d="M42.16,196.11a34.74,34.74,0,0,1-23-11.87A35.28,35.28,0,0,1,9.88,160q0-57.09,0-114.18A36.36,36.36,0,0,1,46.55,9.2c24.56-.06,49.12,0,73.67,0,17.66,0,35.31,0,53,0A36.49,36.49,0,0,1,210.08,46q0,56.82,0,113.63A36.37,36.37,0,0,1,179.42,196a14.71,14.71,0,0,1-1.63.12c-.55-.58-1.27-.34-1.91-.34q-65.91,0-131.81,0C43.42,195.77,42.71,195.53,42.16,196.11Zm105.31-84.9c-.05-.3-.09-.39-.06-.42a4.58,4.58,0,0,1,.35-.42c3-3.12,5.32-6.56,4.86-11.18-.06-.61.19-.76.74-.65s1.08.2,1.62.28a15.31,15.31,0,0,0,15.54-7.14,15,15,0,0,0-1.15-17.12A45,45,0,0,0,166.45,71c-.87-.91-.87-1.44.18-2.26a72.17,72.17,0,0,0,11-10.45,24.7,24.7,0,0,0,5.42-20.91C179.88,18.94,159.71,9.85,143.91,20c-9.84,6.33-18.34,14.39-26.51,22.73a13,13,0,0,0-4,9.73c0,.92-.23,1.16-1.12,1-4.78-.73-8.75,1.08-12.25,4.11C95.32,61.7,90.66,65.84,86,70Q64.86,88.68,43.76,107.4a6.12,6.12,0,0,1-3.5,1.69c-6.7.8-12.21,4-17,8.64-6.14,6-8.58,13.11-7.17,21.63a24.86,24.86,0,0,0,22.4,20.57c5,.36,9.53-1.12,13.94-3.17,2.71-1.25,5.33-2.72,8.06-3.92,2-.86,3.65-.25,4.42,1.29a3.59,3.59,0,0,1-1.41,4.78,8.92,8.92,0,0,1-4.15,1.3,51.14,51.14,0,0,0-9.9,1.7c-5.78,1.85-8.8,5.86-8.78,11.62s3.15,9.83,8.83,11.63c4.32,1.37,8.67,1.1,13,.36a35.12,35.12,0,0,0,28.54-28.93,53.67,53.67,0,0,0,.11-8.26c.57.49.92.79,1.29,1.08,4.33,3.39,9.07,4.22,14,1.76,5.32-2.63,9.12-6.55,9.43-12.9.05-1-.49-2.36,0-3s1.9-.49,2.87-.8a20.23,20.23,0,0,0,6.36-3.89c0,.17.09.24.07.29-.06.29-.16.58-.22.88-2.2,10.29-.27,19.42,7.69,26.76,3.58,3.31,9.83,3.75,14.43,1.2,4.07-2.26,6.29-7.32,5.42-12.26a24.51,24.51,0,0,0-3-7.43,1.88,1.88,0,0,1,.16-2.5,3.39,3.39,0,0,1,3.57-.75c1,.33,1.3,1.14,1.21,2.17-.64,7.55-1.29,15.09-1.89,22.64a120.11,120.11,0,0,0-.63,17.18c.57,9.29,11.47,14,18.88,8.7a55,55,0,0,0,4.64-3.87c8-7.2,15.84-14.54,23.94-21.61,4.09-3.56,4.95-7.92,3.85-12.74-1-4.59-4.38-7.45-8.79-8.77-5-1.49-9.2.47-13,3.67-.46.4-.77,1.07-1.46,1.12,0-1.67-.05-3.26,0-4.85a44.29,44.29,0,0,0-.33-8.77c-1.55-9.79-8-15.46-16.62-19A28.22,28.22,0,0,0,147.47,111.21Zm42.88,23.16a3.82,3.82,0,0,0-3.86-3.81,3.8,3.8,0,1,0,0,7.6A3.79,3.79,0,0,0,190.35,134.37Z"/><path class="cls-1" d="M42.16,196.11c.55-.58,1.26-.34,1.91-.34q65.91,0,131.81,0c.64,0,1.36-.24,1.91.34a15.45,15.45,0,0,1-4.18.34q-63.65,0-127.27,0A15.06,15.06,0,0,1,42.16,196.11Z"/><path class="cls-2" d="M147.47,111.21a28.22,28.22,0,0,1,15.72,1.38c8.62,3.58,15.07,9.25,16.62,19a44.29,44.29,0,0,1,.33,8.77c-.07,1.59,0,3.18,0,4.85.69-.05,1-.72,1.46-1.12,3.77-3.2,8-5.16,13-3.67,4.41,1.32,7.75,4.18,8.79,8.77,1.1,4.82.24,9.18-3.85,12.74-8.1,7.07-16,14.41-23.94,21.61a55,55,0,0,1-4.64,3.87c-7.41,5.32-18.31.59-18.88-8.7a120.11,120.11,0,0,1,.63-17.18c.6-7.55,1.25-15.09,1.89-22.64.09-1-.16-1.84-1.21-2.17a3.39,3.39,0,0,0-3.57.75,1.88,1.88,0,0,0-.16,2.5,24.51,24.51,0,0,1,3,7.43c.87,4.94-1.35,10-5.42,12.26-4.6,2.55-10.85,2.11-14.43-1.2-8-7.34-9.89-16.47-7.69-26.76.06-.3.16-.59.22-.88,0-.05,0-.12-.07-.29a20.23,20.23,0,0,1-6.36,3.89c-1,.31-2.41.18-2.87.8s.06,2,0,3c-.31,6.35-4.11,10.27-9.43,12.9-5,2.46-9.72,1.63-14-1.76-.37-.29-.72-.59-1.29-1.08a53.67,53.67,0,0,1-.11,8.26,35.12,35.12,0,0,1-28.54,28.93c-4.38.74-8.73,1-13-.36-5.68-1.8-8.81-5.93-8.83-11.63s3-9.77,8.78-11.62a51.14,51.14,0,0,1,9.9-1.7,8.92,8.92,0,0,0,4.15-1.3,3.59,3.59,0,0,0,1.41-4.78c-.77-1.54-2.47-2.15-4.42-1.29-2.73,1.2-5.35,2.67-8.06,3.92-4.41,2.05-9,3.53-13.94,3.17a24.86,24.86,0,0,1-22.4-20.57c-1.41-8.52,1-15.67,7.17-21.63,4.77-4.62,10.28-7.84,17-8.64a6.12,6.12,0,0,0,3.5-1.69Q64.86,88.67,86,70c4.66-4.13,9.32-8.27,14-12.35,3.5-3,7.47-4.84,12.25-4.11.89.14,1.15-.1,1.12-1a13,13,0,0,1,4-9.73c8.17-8.34,16.67-16.4,26.51-22.73,15.8-10.18,36-1.09,39.16,17.39a24.7,24.7,0,0,1-5.42,20.91,72.17,72.17,0,0,1-11,10.45c-1,.82-1,1.35-.18,2.26a45,45,0,0,1,2.92,3.52,15,15,0,0,1,1.15,17.12A15.31,15.31,0,0,1,155,98.82c-.54-.08-1.09-.17-1.62-.28s-.8,0-.74.65c.46,4.62-1.84,8.06-4.86,11.18a4.58,4.58,0,0,0-.35.42S147.42,110.91,147.47,111.21Zm7.79-88.9c-2.78,0-7.7,1.94-11.85,5.47-6.47,5.48-12.74,11.2-19.08,16.84a13.5,13.5,0,0,0-1.69,1.92c-3.23,4.24-3,8.88.63,12.78q13.22,14.22,26,28.84a15.71,15.71,0,0,0,3.68,3.27,9.07,9.07,0,0,0,10.53-1.25c2.93-2.65,3.43-5.8,1.54-9.63a20.19,20.19,0,0,0-2.73-4.1c-1.66-2-3.33-3.91-5.08-5.78-.87-.93-.78-1.42.2-2.25,4.79-4.07,9.82-7.91,14.08-12.53,5.61-6.09,7.86-13.21,4.68-21.25C173.23,27.24,165.72,22.29,155.26,22.31Zm-3.53,94a40.55,40.55,0,0,0-4.55.48c-15.35,3.23-22.25,22.51-12.49,34.8a9.12,9.12,0,0,0,4.05,3.05,5.88,5.88,0,0,0,6.89-1.94c1.73-2.22,1.77-4.44.09-6.92a15.76,15.76,0,0,1-2.22-4.19,8.59,8.59,0,0,1,2.67-9.61c2.77-2.48,6.76-3.2,9.7-1.6,3.36,1.84,5.3,4.66,5,8.64-.39,5.79-.85,11.58-1.31,17.36-.52,6.45-1.12,12.89-1.62,19.34-.22,2.82.56,5.36,3.29,6.61s5.4.57,7.73-1.54c8-7.27,16.07-14.47,24.11-21.7a33.26,33.26,0,0,0,2.82-2.61c1.81-2,1.64-5.71-.27-7.94a5.4,5.4,0,0,0-7.11-1.11,34.36,34.36,0,0,0-5,4,55.75,55.75,0,0,1-6.77,5.6c-.95.59-1.95,1.06-3.09.43a2.76,2.76,0,0,1-1.33-3c.28-3,.56-6,.89-8.93.44-3.95,1.07-7.9.35-11.86C171.77,123.75,162.3,116.29,151.73,116.32ZM56.61,179.64c8.89-.15,15.93-4.2,21.66-10.67,5.89-6.65,8-14.54,5.94-23.17C82.41,138.31,78,132.7,70.14,131A23,23,0,0,0,52.72,134c-1.88,1.15-3.75,2.3-5.69,3.34a9.1,9.1,0,0,1-4.71,1.27A5.33,5.33,0,0,1,37.08,133c0-3.15,1.94-5,5.21-5.12a22.92,22.92,0,0,0,4.75-.21,5.87,5.87,0,0,0,4.68-6.14A5.62,5.62,0,0,0,47,115.81a17.45,17.45,0,0,0-6.2,0c-9.15,1.3-16.37,8.23-17.6,16.91-1.47,10.38,6.14,19.83,16.32,20.26,4.13.18,7.76-1.41,11.33-3.18a71.34,71.34,0,0,1,8.07-3.9c4.64-1.62,8.74-.14,11.38,4.05s2.33,9.1-.92,12.49c-2.48,2.58-5.69,3.66-9.1,4.33-2.76.54-5.61.39-8.34,1.14s-4.18,2.24-4.42,4.5a5.88,5.88,0,0,0,3.34,6.17A10.89,10.89,0,0,0,56.61,179.64ZM89.12,75.73c.48.28.79.47,1.11.64A12.13,12.13,0,0,1,93.89,95.2a67.74,67.74,0,0,1-4.71,4.88c-.63.63-.78,1-.05,1.74,1,.91,1.86,1.93,2.76,2.93q8.89,10,17.78,20c3.84,4.34,6.73,4.52,11,.72q11-9.61,21.92-19.2a13.61,13.61,0,0,0,2.69-3,5.84,5.84,0,0,0-1.27-7.61,5.11,5.11,0,0,0-7.24,0q-7.31,6.25-14.57,12.57c-.82.72-1.25.82-2-.08-1.88-2.25-3.85-4.43-5.86-6.57-.72-.76-.62-1.18.13-1.86q5.12-4.57,10.13-9.28c2.31-2.16,2.24-5.46-.09-8s-5-2.82-7.53-.61q-5.19,4.5-10.3,9.09c-.8.72-1.26.85-2-.06q-2.7-3.24-5.61-6.29c-.83-.87-.6-1.29.19-2q7.25-6.48,14.4-13c2.31-2.13,2.35-5.36.21-7.87a5.41,5.41,0,0,0-7.7-.76C100.53,65.76,94.93,70.68,89.12,75.73ZM58.17,118.54c2.61-2.25,5.12-4.29,7.46-6.51,1.11-1,1.62-.8,2.5.23q10.82,12.67,21.74,25.25a89.27,89.27,0,0,0,6.45,6.74c2.72,2.52,5.94,2.49,9.21.22,3.68-2.55,4.88-5.51,3.64-9a16.13,16.13,0,0,0-3.45-5.35Q93,115.8,80.22,101.56c-.87-1-1-1.44,0-2.4,3-2.77,5.9-5.67,8.8-8.55,2.2-2.2,2-4.91-.55-7.58-2.31-2.45-4.56-2.58-7-.55-6.43,5.26-12.55,10.87-18.74,16.39q-6.08,5.41-12.15,10.86C55.33,112.68,56.69,114.25,58.17,118.54ZM140.43,88,122.06,67.72c.14,3-1.28,4.83-3.18,6.52,10.3.09,15.81,7.51,13.46,16.79C134.65,89.19,136.87,87.56,140.43,88ZM69.65,122.75c-1.12-1.32-2-2.32-2.83-3.35-.36-.46-.65-.61-1.14-.11-1.29,1.29-2.64,2.53-4.36,4.17A31.32,31.32,0,0,1,69.65,122.75Z"/><path class="cls-2" d="M190.35,134.37a3.79,3.79,0,0,1-3.87,3.79,3.8,3.8,0,1,1,0-7.6A3.82,3.82,0,0,1,190.35,134.37Zm-3.82,2.77a2.78,2.78,0,1,0-2.74-2.79A2.71,2.71,0,0,0,186.53,137.14Z"/><path class="cls-3" d="M155.26,22.31c10.46,0,18,4.93,20.89,12.33,3.18,8,.93,15.16-4.68,21.25-4.26,4.62-9.29,8.46-14.08,12.53-1,.83-1.07,1.32-.2,2.25,1.75,1.87,3.42,3.83,5.08,5.78a20.19,20.19,0,0,1,2.73,4.1c1.89,3.83,1.39,7-1.54,9.63a9.07,9.07,0,0,1-10.53,1.25,15.71,15.71,0,0,1-3.68-3.27q-12.76-14.62-26-28.84c-3.62-3.9-3.86-8.54-.63-12.78a13.5,13.5,0,0,1,1.69-1.92c6.34-5.64,12.61-11.36,19.08-16.84C147.56,24.25,152.48,22.33,155.26,22.31Zm-.35,14a7.61,7.61,0,0,0-5.63,1.86c-3.61,3.2-7.16,6.46-10.75,9.68-.55.49-.7.81-.13,1.45,3.12,3.51,6.2,7.06,9.28,10.61.46.53.78.81,1.44.19,3.71-3.45,7.56-6.75,11.15-10.33a6.49,6.49,0,0,0,1.41-7.91C160.14,38.7,157.79,36.54,154.91,36.26Z"/><path class="cls-3" d="M151.73,116.32c10.57,0,20,7.43,21.84,17.35.72,4,.09,7.91-.35,11.86-.33,3-.61,5.95-.89,8.93a2.76,2.76,0,0,0,1.33,3c1.14.63,2.14.16,3.09-.43a55.75,55.75,0,0,0,6.77-5.6,34.36,34.36,0,0,1,5-4,5.4,5.4,0,0,1,7.11,1.11c1.91,2.23,2.08,5.93.27,7.94a33.26,33.26,0,0,1-2.82,2.61c-8,7.23-16.11,14.43-24.11,21.7-2.33,2.11-4.91,2.84-7.73,1.54s-3.51-3.79-3.29-6.61c.5-6.45,1.1-12.89,1.62-19.34.46-5.78.92-11.57,1.31-17.36.27-4-1.67-6.8-5-8.64-2.94-1.6-6.93-.88-9.7,1.6a8.59,8.59,0,0,0-2.67,9.61,15.76,15.76,0,0,0,2.22,4.19c1.68,2.48,1.64,4.7-.09,6.92a5.88,5.88,0,0,1-6.89,1.94,9.12,9.12,0,0,1-4.05-3.05c-9.76-12.29-2.86-31.57,12.49-34.8A40.55,40.55,0,0,1,151.73,116.32Z"/><path class="cls-3" d="M56.61,179.64a10.89,10.89,0,0,1-5.71-1,5.88,5.88,0,0,1-3.34-6.17c.24-2.26,1.69-3.76,4.42-4.5s5.58-.6,8.34-1.14c3.41-.67,6.62-1.75,9.1-4.33,3.25-3.39,3.6-8.24.92-12.49S63.6,144.29,59,145.91a71.34,71.34,0,0,0-8.07,3.9c-3.57,1.77-7.2,3.36-11.33,3.18-10.18-.43-17.79-9.88-16.32-20.26,1.23-8.68,8.45-15.61,17.6-16.91a17.45,17.45,0,0,1,6.2,0,5.62,5.62,0,0,1,4.68,5.71A5.87,5.87,0,0,1,47,127.66a22.92,22.92,0,0,1-4.75.21c-3.27.1-5.19,2-5.21,5.12a5.33,5.33,0,0,0,5.24,5.66A9.1,9.1,0,0,0,47,137.38c1.94-1,3.81-2.19,5.69-3.34A23,23,0,0,1,70.14,131c7.85,1.74,12.27,7.35,14.07,14.84,2.07,8.63,0,16.52-5.94,23.17C72.54,175.44,65.5,179.49,56.61,179.64Z"/><path class="cls-3" d="M89.12,75.73c5.81-5,11.41-10,17.07-14.81a5.41,5.41,0,0,1,7.7.76c2.14,2.51,2.1,5.74-.21,7.87q-7.16,6.57-14.4,13c-.79.7-1,1.12-.19,2q2.91,3,5.61,6.29c.77.91,1.23.78,2,.06q5.1-4.59,10.3-9.09c2.54-2.21,5.19-2,7.53.61s2.4,5.86.09,8q-5,4.69-10.13,9.28c-.75.68-.85,1.1-.13,1.86,2,2.14,4,4.32,5.86,6.57.75.9,1.18.8,2,.08q7.25-6.33,14.57-12.57a5.11,5.11,0,0,1,7.24,0,5.84,5.84,0,0,1,1.27,7.61,13.61,13.61,0,0,1-2.69,3q-11,9.6-21.92,19.2c-4.32,3.8-7.21,3.62-11-.72q-8.88-10-17.78-20c-.9-1-1.78-2-2.76-2.93-.73-.69-.58-1.11.05-1.74a67.74,67.74,0,0,0,4.71-4.88,12.13,12.13,0,0,0-3.66-18.83C89.91,76.2,89.6,76,89.12,75.73Z"/><path class="cls-3" d="M58.17,118.54c-1.48-4.29-2.84-5.86-7.58-8.81q6.09-5.45,12.15-10.86c6.19-5.52,12.31-11.13,18.74-16.39,2.47-2,4.72-1.9,7,.55,2.53,2.67,2.75,5.38.55,7.58-2.9,2.88-5.8,5.78-8.8,8.55-1.05,1-.91,1.43,0,2.4q12.8,14.22,25.5,28.53a16.13,16.13,0,0,1,3.45,5.35c1.24,3.52,0,6.48-3.64,9-3.27,2.27-6.49,2.3-9.21-.22a89.27,89.27,0,0,1-6.45-6.74q-10.94-12.57-21.74-25.25c-.88-1-1.39-1.27-2.5-.23C63.29,114.25,60.78,116.29,58.17,118.54Z"/><path class="cls-1" d="M140.43,88c-3.56-.47-5.78,1.16-8.09,3,2.35-9.28-3.16-16.7-13.46-16.79,1.9-1.69,3.32-3.52,3.18-6.52Z"/><path class="cls-1" d="M69.65,122.75a31.32,31.32,0,0,0-8.33.71c1.72-1.64,3.07-2.88,4.36-4.17.49-.5.78-.35,1.14.11C67.66,120.43,68.53,121.43,69.65,122.75Z"/><path class="cls-1" d="M186.53,137.14a2.78,2.78,0,0,1,0-5.55,2.78,2.78,0,0,1,0,5.55Zm-.1-2.19c.66.13.46,1.48,1.38,1.1s.12-1,0-1.49a.25.25,0,0,1,0-.17c.37-.6.69-1.23-.19-1.64a3,3,0,0,0-2.14-.1c-1.15.39-.49,1.44-.6,2.19-.07.43-.23,1.07.42,1.23C186.24,136.3,185.76,135,186.43,135Z"/><path class="cls-2" d="M154.91,36.26c2.88.28,5.23,2.44,6.77,5.55a6.49,6.49,0,0,1-1.41,7.91c-3.59,3.58-7.44,6.88-11.15,10.33-.66.62-1,.34-1.44-.19-3.08-3.55-6.16-7.1-9.28-10.61-.57-.64-.42-1,.13-1.45,3.59-3.22,7.14-6.48,10.75-9.68A7.61,7.61,0,0,1,154.91,36.26Zm-6.39,15.92.77-.67c1.68-1.58,3.36-3.16,5.06-4.73a1.85,1.85,0,0,0,.21-2.87c-.9-1-1.9-.9-2.87,0-1.62,1.46-3.28,2.89-4.88,4.38-.38.36-1.35.63-.82,1.34A23.56,23.56,0,0,0,148.52,52.18Z"/><path class="cls-2" d="M186.43,135c-.67.09-.19,1.35-1.1,1.12-.65-.16-.49-.8-.42-1.23.11-.75-.55-1.8.6-2.19a3,3,0,0,1,2.14.1c.88.41.56,1,.19,1.64a.25.25,0,0,0,0,.17c.1.51.93,1.11,0,1.49S187.09,135.08,186.43,135Z"/><path class="cls-1" d="M148.52,52.18A23.56,23.56,0,0,1,146,49.61c-.53-.71.44-1,.82-1.34,1.6-1.49,3.26-2.92,4.88-4.38,1-.88,2-1,2.87,0a1.85,1.85,0,0,1-.21,2.87c-1.7,1.57-3.38,3.15-5.06,4.73Z"/></g></g></svg>