<svg xmlns="http://www.w3.org/2000/svg" viewBox="0 0 253.51 73.47"><defs><style>.cls-1{fill:#7e665a;}</style></defs><g id="Layer_2" data-name="Layer 2"><g id="Layer_1-2" data-name="Layer 1"><path class="cls-1" d="M149.33,50.21c0-.12.09-.33.13-.31.43.27.59-.15.85-.3s.18-.23.35-.24a1.19,1.19,0,0,0,1.09,1.19.43.43,0,0,0,.46-.28,1.22,1.22,0,0,0-.18-1.53c-.18-.25-.33-.56-.77-.56l.41.56a1.39,1.39,0,0,1-1.91.11c-.09-.06-.15-.11-.25,0a3,3,0,0,1-2.15.34,6.56,6.56,0,0,0-1.4,0c-.2-.22,0-.5-.13-.7a.17.17,0,0,0-.19-.09.1.1,0,0,0-.08.16c.1.22.17.38-.16.16s-.56.13-.65-.3c0-.11-.37-.23-.48,0s.06.32.29.31c.07,0,.11.09.07.17a.13.13,0,0,1-.18.08c-.27-.1-.62-.1-.56-.61-.21.25,0,.55-.31.65s-.15-.22-.2-.33a.31.31,0,0,0-.42-.19l-.84.27c-.15,0-.32,0-.46-.14a1.41,1.41,0,0,0-.92-.41c.2.34.72.27.82.69-.51.23-.51.23-.84-.23-.18.05-.16.3-.38.35a2.25,2.25,0,0,1-.54-1.45c0-7.76,0-15.53,0-23.29,0-.54,0-1.08,0-1.63a2.52,2.52,0,0,1,.25-1.43,1.18,1.18,0,0,0,0-1.15,2.61,2.61,0,0,1-.21-1.58,25.26,25.26,0,0,0,0-3.48c0-3.36,0-6.73,0-10.09,0-.59-.05-1.18-.06-1.78a3.17,3.17,0,0,1,.07-.81c.17-.71.33-.82,1-.91a25.1,25.1,0,0,1,3.78,0c2.35.05,4.7,0,7.05,0,3.19,0,6.38-.13,9.57-.07,1.51,0,3,.08,4.53.12a8.79,8.79,0,0,1,2.81.61,5,5,0,0,0,2.09.39,1.64,1.64,0,0,1,1.52.75c.13.18.26.36.41.53a1.52,1.52,0,0,0,.86.55c.54.13.69,0,.57-.57,0-.25.06-.3.25-.34a2.21,2.21,0,0,1,2.3,1,8.2,8.2,0,0,1,.61,1.43c.17.46.24.48.64.27s.51-.49.79,0c0,0,.09,0,.13,0,.57-.26,1,.09,1.44.34a7,7,0,0,1,2.2,2.07A17.11,17.11,0,0,1,185.65,19a17.74,17.74,0,0,1-1,5.74,15,15,0,0,1-6.25,7.59c-.37.24-.75.47-1.12.72a.88.88,0,0,0-.36,1.16c.14.34.26.69.41,1l5.78,12.84.15.33c.09.19.18.37,0,.54a.41.41,0,0,1-.55,0c-.48-.45-1.1-.31-1.64-.39a10.72,10.72,0,0,0-1.14.16l-5,0a2.51,2.51,0,0,0-.85.1l4.26.5c1.35.16,2.7.3,4.05.47a2.12,2.12,0,0,1,1.71,1.05l-.66.31c0,.27.24.47.18.81a3.74,3.74,0,0,1-1.14-.59.7.7,0,0,0-.89.06.6.6,0,0,0-.25.65c.05.24.3.23.5.23s.54,0,.81,0a1.43,1.43,0,0,1,1,.22c0,.29-.36.15-.42.42.19.21.48.17.73.19.7.08,1,.61,1.33,1.13.12.21,0,.39-.24.4h-.37c-3.59,0-7.17,0-10.76,0-1.09,0-2.17-.12-3.26-.18a.94.94,0,0,1-.94-.69.82.82,0,0,0-.24-.44c-.51-.31-.51-.76-.51-1.28a3.23,3.23,0,0,0-.49-1.38c-.09-.16-.22-.35-.09-.47.49-.5.2-1,0-1.49s-.37-1.18-.56-1.76c-.7-2.14-1.64-4.18-2.36-6.31-.36-1.08-.7-2.16-1.14-3.21-.13-.32-.28-.63-.42-1a1.33,1.33,0,0,0-1.2-.84,13.4,13.4,0,0,0-2.37,0,14.88,14.88,0,0,1-2.67,0,13.25,13.25,0,0,0-2.44.05.88.88,0,0,0-.87.77,6.58,6.58,0,0,0-.11,1.47c0,3.39,0,6.77,0,10.16a3,3,0,0,0,0,.52c.06.39-.18.45-.48.46-.59,0-.59,0-.81.45.3,0,.42-.54.81-.32a1.23,1.23,0,0,1,.42,1,32.31,32.31,0,0,1-.1,3.55c-.09.7-.29.88-1,.92a9.21,9.21,0,0,1-2.29-.19,5.14,5.14,0,0,0-2.34,0,9.56,9.56,0,0,1-2.51.17,19.82,19.82,0,0,1-2.88-.11A2,2,0,0,1,142,54c-.63-.57-.75-.57-1.49-.19l-.27.14c-.28.12-.41,0-.43-.28,0-.52-.08-1-.08-1.55,0-1,0-2,0-2.93a.36.36,0,0,1,.44.25c.15.39.46.43.78.42a2,2,0,0,0,.92-.17,1.06,1.06,0,0,1,1.48.31c.2-.39.42-.6.86-.29.11.07.44-.17.4.24,0,0,.06.06.12,0,.7,0,.75,0,1.51.5.1.07.27.21.31.11.09-.26.36-.22.49-.37s-.19-.14-.13-.33c.51,0,.86.39,1.38.57-.16-.39-.54-.49-.69-.83.53,0,.9.38,1.36.52a3.15,3.15,0,0,0,1.2.61C150,50.36,149.51,50.5,149.33,50.21Zm6.11-29.3a3.81,3.81,0,0,0-.26.44,6.61,6.61,0,0,0-.85,3.1c0,.92.26,1.14,1.16,1.18,1.11,0,2.23,0,3.34,0,1.48,0,3,.1,4.44,0a10.29,10.29,0,0,0,4-.71c2.16-1,3.66-2.48,3.9-5a6.68,6.68,0,0,0-.1-2.14,5.89,5.89,0,0,0-4.15-4.85,9.34,9.34,0,0,0-2.63-.37c-2.28,0-4.55,0-6.81-.23a6.7,6.7,0,0,0-2.14.18,1.14,1.14,0,0,0-1,1.17,5.38,5.38,0,0,0,.08,1.33,3.42,3.42,0,0,1-.27,2.51.74.74,0,0,0-.06.78c.19.31,0,.43-.2.59a2.24,2.24,0,0,0-1,1.21A9.62,9.62,0,0,0,155.44,20.91Zm11.61,14.84a1.36,1.36,0,0,0,.33.94.64.64,0,0,0,.61.19c.28,0,.31-.17.17-.39l.15-.11a.66.66,0,0,0,.16-1,.83.83,0,0,0-.91-.47C167.22,35.05,167.05,35.3,167.05,35.75ZM157.2,8.5a.47.47,0,0,0,.5-.44.38.38,0,0,0-.43-.4.47.47,0,0,0-.49.44C156.75,8.4,157,8.45,157.2,8.5Zm-9.66,39.19a2.3,2.3,0,0,0-.32.93.2.2,0,0,0,.09.25.27.27,0,0,0,.27-.07C148,48.5,148,48.23,147.54,47.69Zm28.15.35a.39.39,0,0,0-.41-.34.48.48,0,0,0-.47.48.36.36,0,0,0,.41.33A.47.47,0,0,0,175.69,48Z"/><path class="cls-1" d="M97.35,48.65c-.18-.07-.49.23-.55-.2,0,0-.11-.1-.17-.11s-.31-.13-.37.08,0,.29.2.28.18,0,.17.19c-.19.19-.37,0-.53,0s-.31-.08-.45.11a.29.29,0,0,1-.13,0c-.32-.62-.33-.65-1-.39-.37.14-.83,0-1.11.41-.07.1-.35.07-.41,0-.23-.36-.42-.49-.56.09a2.23,2.23,0,0,1-.62-1.59q0-17.31,0-34.63c0-3.21.06-6.42,0-9.64a3.43,3.43,0,0,1,.1-1.1.87.87,0,0,1,.83-.71,16.9,16.9,0,0,1,2.66-.09c2.82.19,5.64.09,8.46.08s5.84-.12,8.76-.06c2.32,0,4.64.06,7,.24a2.24,2.24,0,0,1,1.56.58,1.13,1.13,0,0,0,1.36.21c.88-.35,1.08-.28,1.53.58A8.85,8.85,0,0,0,126,5a.49.49,0,0,0,.77-.11c.17-.29,0-.46-.24-.61a.91.91,0,0,0-.13-.08c-.19-.14-.51-.24-.44-.53s.43-.29.69-.29a3.59,3.59,0,0,1,1.82.55.53.53,0,0,1,.29.48,4.19,4.19,0,0,0,.65,1.71,5.82,5.82,0,0,1,.71,1.78.55.55,0,0,0,.72.37c.33-.08.23-.33.18-.54s-.17-.46-.23-.7a3.1,3.1,0,0,1-.17-.79.48.48,0,0,1,.26-.5.39.39,0,0,1,.5.22,1.38,1.38,0,0,0,1,.61,2.07,2.07,0,0,1,.91.61,11.43,11.43,0,0,1,2.37,3.2A17.93,17.93,0,0,1,137,23.63a14.66,14.66,0,0,1-6.6,8.71c-.35.23-.72.43-1.06.68a.88.88,0,0,0-.4,1.21,7.46,7.46,0,0,0,.35.89q2.93,6.52,5.87,13a1.2,1.2,0,0,1,.15.9c-.11.4.43.79.85.66.83-.24.83-.24,1.22.55a19.76,19.76,0,0,1,1.25,3c.11.35,0,.5-.32.58a7.25,7.25,0,0,1-1.61.21l-5.86,0h-.08c-1.53,0-1.54,0-1.21-1.49a2,2,0,0,0-1.13-2.34,2.37,2.37,0,0,0-2.58.35,2,2,0,0,0-.7,2.25,2.18,2.18,0,0,1,.09.51.75.75,0,0,1-1.15.73,1.35,1.35,0,0,1-.59-.64A39.72,39.72,0,0,1,122,49.7a1.09,1.09,0,0,1,0-.29c.24,0,.51.19.71-.06.12.21-.07.38.06.53a.17.17,0,0,0,.2,0c.34-.15.68-.32,1-.44s.8-.28,1.14.17c.13.18.41.12.62.2s.35-.16.46-.34.14-.16.46.25c.12-.47.29-.89,1-.92a1.06,1.06,0,0,0-1,.06c-.29.12-.58.33-.77-.15-.08-.19-.25-.08-.38,0a3.82,3.82,0,0,1-3.76-.07.63.63,0,0,0-.79.11c-.26.22-.42.17-.53-.17-.19-.59-.43-1.16-.62-1.75-.69-2.16-1.66-4.22-2.37-6.38-.35-1-.7-2.11-1.13-3.13-.15-.34-.31-.68-.47-1a1.11,1.11,0,0,0-.93-.64,11.75,11.75,0,0,0-2.37-.08,14.75,14.75,0,0,1-2.74,0,14.19,14.19,0,0,0-2.44,0c-.69.07-.9.28-1,1a20.23,20.23,0,0,0-.06,3.48q0,4.18,0,8.38c0,.52,0,.52-.51.53a2.36,2.36,0,0,0-.88.1c-.41.16-.72.13-.88-.34a.27.27,0,0,0-.35-.2c0-.27-.11-.4-.4-.4a.59.59,0,0,0,.37.42,1.27,1.27,0,0,1-1.82.37c-.18-.14-.25-.24-.46-.08a2.17,2.17,0,0,1-1.34.31,10.83,10.83,0,0,0-2.13,0,2.24,2.24,0,0,0-.09-.68c-.11-.23-.26-.15-.36.06Zm9-29.23c0,1.47,0,3.08,0,4.68,0,1.37.18,1.52,1.56,1.55,1.16,0,2.33,0,3.49,0a42.49,42.49,0,0,0,5.41-.06,7.72,7.72,0,0,0,4.55-1.94,5.05,5.05,0,0,0,1.75-3.17,7.48,7.48,0,0,0-.13-3.09,5.84,5.84,0,0,0-4.68-4.53,10.23,10.23,0,0,0-2.14-.22c-2.22,0-4.45-.13-6.67-.2a8,8,0,0,0-2.28.19,1.06,1.06,0,0,0-.84.92,6,6,0,0,0-.08,1.33C106.34,16.37,106.27,17.83,106.3,19.42ZM99.86,7.51a3.43,3.43,0,0,0,.41,1.75.73.73,0,0,0,1,.36c.36-.16.42-.4.22-.94A2.12,2.12,0,0,1,102.16,6a4.91,4.91,0,0,1,.77-.59c.39-.22.32-.54.28-.89s-.32-.33-.55-.37l-3.07-.5c-.17,0-.36-.08-.46.12a.58.58,0,0,0,0,.5.72.72,0,0,0,.6.39,6.35,6.35,0,0,1,.87.16.48.48,0,0,1,.18.87,1,1,0,0,1-.24.16,1,1,0,0,0-.61.94C99.91,7.06,99.88,7.31,99.86,7.51Zm30,42.64c.17-.18.31-.27.37-.4a.7.7,0,0,1,1.05-.31c.63.39,1-.41,1.59-.18,0,0,0,0-.06,0s-.05,0,0,0c0-.27.22-.28.42-.28a2.68,2.68,0,0,1,1.13.3c0,.22-.42.2-.32.43s.38.13.59.11l.14,0a.35.35,0,0,0,.3-.36c0-.2-.07-.27-.22-.4a2.3,2.3,0,0,0-1.34-.38c-.3,0-.57-.11-.82.13a1.41,1.41,0,0,1-1,.26,1.66,1.66,0,0,0-1.2.26.69.69,0,0,1-.92-.1.9.9,0,0,0-.73-.32c0,.29-.19.71.31.69S129.67,49.78,129.85,50.15ZM97,43.1a.79.79,0,0,0-.78-.88.91.91,0,0,0-1,.78,1.07,1.07,0,0,0,1,1A.9.9,0,0,0,97,43.1Zm2.54,4.67a1.58,1.58,0,0,0-.31.86c0,.1,0,.2.1.24a.26.26,0,0,0,.26-.09C100,48.45,100,48.21,99.52,47.77Zm28.73,1.36c-.42-.1-.71.31-1.13.25A1.1,1.1,0,0,0,128.25,49.13Zm-4-.46c-.28-.35-.58-.11-.86-.18-.07,0-.13,0-.13.13a.12.12,0,0,0,.13.14C123.68,48.74,124,48.7,124.25,48.67ZM97,7.65c0-.15-.13-.21-.3-.19s-.33.12-.29.34.19.2.34.19S97,7.87,97,7.65Zm33.3,41.27c-.2-.29-.13-.58-.47-.6,0,0-.11,0-.11.06C129.66,48.68,129.85,48.8,130.28,48.92Z"/><path class="cls-1" d="M77.33,6.69c0-.36-.31-.61-.38-1,.26-.18.39.14.59.16s.42.06.53-.15a.59.59,0,0,0,0-.69.5.5,0,0,0-.54-.14c-.39.09-.37.47-.55.7A7.46,7.46,0,0,0,76.42,4c-.06-.12,0-.23,0-.35A2.16,2.16,0,0,0,75.11.89c-.13-.07-.3-.08-.35-.26s.16-.21.3-.24a5.72,5.72,0,0,1,1.1-.16c1.88,0,3.76,0,5.63-.09a6,6,0,0,1,.74,0,1,1,0,0,1,.85.52,2.31,2.31,0,0,0,.25.36c.43.53.84.52,1.16-.06A1.51,1.51,0,0,1,85.9.11,5.75,5.75,0,0,1,87.45,0l.15,0C89,.14,89.05.29,89.08,1.7c.06,2.54,0,5.09.08,7.63,0,.47,0,.94.06,1.41a6.09,6.09,0,0,1,0,.74c-.08.94-.31,1.17-1.24,1.2a8.9,8.9,0,0,1-1.55,0,24.91,24.91,0,0,0-3.56-.1c-.24,0-.66.11-.7-.05-.12-.44-.72-.46-.73-.92s-.2-.52-.5-.5-.51-.2-.65-.47-.3-.57-.47-.84-.32-.56-.56-.68a1.4,1.4,0,0,1-.72-1.45c0-.35-.14-.46-.44-.39s-.44.07-.65.11a1,1,0,0,0-.79,1.14,1,1,0,0,0,1.21.69c.28-.07.6-.36.71.18.62-.16.55.43.73.71A21.76,21.76,0,0,0,80.75,12c.14.19.37.33.38.69l-1.31,0c-2.37.05-4.74.12-7.12.16a12.35,12.35,0,0,1-2.84-.25,1.63,1.63,0,0,0-.44,0c-2.4.19-4.79.23-7.19.29a8.24,8.24,0,0,0-1.4.17,1.74,1.74,0,0,1-.51.06c-.39,0-.49-.13-.42-.51a5,5,0,0,0,0-1.84.59.59,0,0,1,.4-.76,2.11,2.11,0,0,0,.34-.16.53.53,0,0,0,.26-.74,1.43,1.43,0,0,0-.26-.45,3.42,3.42,0,0,1-.55-3c.1-.73.14-1.47.22-2.33a4.38,4.38,0,0,1-1.8,0,2.27,2.27,0,0,0-.52,0c-.62.12-.74.4-.39.94a5.19,5.19,0,0,0,.36.46A.88.88,0,0,1,58,6a1.49,1.49,0,0,1-1.37.73,12.48,12.48,0,0,1-2.12-.33,1.48,1.48,0,0,0-.76-.06c.07.36.39.4.64.5,1.31.49,1.33.49.91,1.77a2.72,2.72,0,0,0-.08,1.23,1.06,1.06,0,0,1-.41,1c-.11.1-.22.2-.34.29a1.11,1.11,0,0,0-.43,1.43,4.51,4.51,0,0,1,.2,2.33,2.86,2.86,0,0,0,.09,1.33.78.78,0,0,0,1.11.52,2.64,2.64,0,0,0,.84-.6c.61-.59,1.1-1.28,1.65-1.91a7.28,7.28,0,0,1,.66-.7.7.7,0,0,1,.88-.17c.3.18.3.49.27.79a2.61,2.61,0,0,1-.51,1.37,2.19,2.19,0,0,0-.43,1.8c.14,1,.2,2,.32,3,.09.77.26.95.82,1a1.33,1.33,0,0,0,1.53-.76,3.75,3.75,0,0,0,.31-1.36.56.56,0,0,0-.43-.67L61,18.53A1.06,1.06,0,0,1,60.31,17a2.37,2.37,0,0,1,1-1.21,3.45,3.45,0,0,1,1.95-.6.43.43,0,0,1,.47.36,2.76,2.76,0,0,1,.11.8c0,.94,0,1.88-.07,2.82a7.59,7.59,0,0,0,0,1.26,1,1,0,0,0,1,1,11.05,11.05,0,0,0,2.37.11c.81-.07,1.63-.09,2.44-.09,4.9,0,9.8-.07,14.7,0,.57,0,1.14.08,1.7.09.32,0,.43.14.49.42a11.82,11.82,0,0,1,.16,2.66c-.08,1.58,0,3.16,0,4.74a19.22,19.22,0,0,1-.08,2c0,.52-.09.55-.66.56-2.44.06-4.89.14-7.34.15-4.23,0-8.46,0-12.69,0-.32,0-.65,0-1,0-.69,0-.94.26-1,.93a8.92,8.92,0,0,0-.11,2,17,17,0,0,1,0,3,10.48,10.48,0,0,0,.08,2.44c.08.6.23.73.84.86a4.5,4.5,0,0,0,1.1.08l20.64,0a13.14,13.14,0,0,1,2.73.16c.55.11.64.18.48.66a1.67,1.67,0,0,0,.08,1.28A3.84,3.84,0,0,1,90,45.22c0,1.92-.16,3.85-.08,5.78a16.7,16.7,0,0,1-.05,2c-.06.73-.08.76-.82.87a10.41,10.41,0,0,1-1.48.1l-16.92,0c-4.9,0-9.8,0-14.7,0-1.43,0-2.86.07-4.3.12a6.56,6.56,0,0,1-1.4-.1c-.65-.12-.84-.3-.91-1a12.61,12.61,0,0,1-.07-2.3c0-.74.08-1.48.08-2.22q0-16,0-32c0-1.78.08-3.56.08-5.34,0-.62.17-.65.66-.78.19-.05.38-.1.57-.17a1.21,1.21,0,0,0,.23-.18c-.09-.33-.52-.32-.6-.66.19-.37.73-.58.65-1.16-.41.12-.44.6-.81.77a1.78,1.78,0,0,1-.2-.83c0-.7,0-1.39,0-2.08s.09-.69.71-.84c.36-.08.4-.17.19-.47a1.57,1.57,0,0,0-.35-.38,1.22,1.22,0,0,1-.31-1.6,3.52,3.52,0,0,1,.18-.4A2,2,0,0,0,50.6.94,15.42,15.42,0,0,1,52.31.68a1.71,1.71,0,0,1,.94.18A1.71,1.71,0,0,0,54.47,1C55.05.92,55.63.82,56.2.66a1.65,1.65,0,0,1,1.74.42c-.12.53-.76.66-1,1.24.54-.25,1-.43,1.18-1,0-.21.15-.22.3-.21a2.11,2.11,0,0,1,.84.26,3.67,3.67,0,0,0,.52.27c.46.17.86.05.94-.41.15-.78.65-.87,1.29-.88,2.38,0,4.75-.1,7.12-.13,1.31,0,2.63,0,3.94,0a1.21,1.21,0,0,1,1.09.44,3.26,3.26,0,0,0-1.06.83,3.35,3.35,0,0,0-.27,3.64,2.48,2.48,0,0,1,.32,1.76c-.08.34-.15.77.28,1s.63-.06.9-.59A8.16,8.16,0,0,1,75.5,5.21c.09-.09.16-.19.29-.33.39.73.61,1.55,1.4,1.92,0,.06.09.12.16.06S77.37,6.74,77.33,6.69ZM68.38,24c0-.74-.36-1.24-.93-1.32A1.37,1.37,0,0,0,65.9,23.7a2,2,0,0,0,.71,1.9A.93.93,0,0,0,68,25.37,2.39,2.39,0,0,0,68.38,24Zm-2.57,3.19a.61.61,0,0,0-.55-.66.76.76,0,0,0-.72.77.68.68,0,0,0,.65.67A.73.73,0,0,0,65.81,27.16ZM56.89,2.63a2.51,2.51,0,0,0-1.14.4c-.13.07-.33.16-.32.28.07.49-.35.6-.59.84a3.13,3.13,0,0,0-1,1.21C54.91,4.54,55.69,3.45,56.89,2.63ZM70.23,5.49a.64.64,0,0,0-.59.71.54.54,0,0,0,.57.54c.38,0,.76-.39.72-.7A.71.71,0,0,0,70.23,5.49ZM63,26.78a.52.52,0,0,0-.57-.52.57.57,0,0,0-.5.62.45.45,0,0,0,.48.51A.58.58,0,0,0,63,26.78Zm-.47-8.73c.25,0,.34-.22.31-.47a.25.25,0,0,0-.28-.26.39.39,0,0,0-.4.43C62.17,18,62.3,18.05,62.53,18.05ZM52,7.5c.3,0,.39-.3.49-.55a.21.21,0,0,0-.06-.19c-.26-.11-.24.31-.48.27,0,0-.12.09-.15.15a.23.23,0,0,0-.06.19C51.79,7.48,51.91,7.48,52,7.5ZM69.74,4.62c.43-.34.4-.46-.14-.71A1.33,1.33,0,0,0,69.74,4.62Z"/><path class="cls-1" d="M231.69,30.48c-.12.32-.41.39-.7.46a2.27,2.27,0,0,0-1.89,2.33,3,3,0,0,0,.56,2.1,1.53,1.53,0,0,1,.26,1.33,3.64,3.64,0,0,0-.06.74.41.41,0,0,0,.27.47.58.58,0,0,0,.62-.14,1.82,1.82,0,0,0,.42-.77,2.34,2.34,0,0,1,1-1.45,2.18,2.18,0,0,0,.52-.71c.2-.29.37-.3.59,0a3.63,3.63,0,0,1,.77,1.59,1.33,1.33,0,0,1-.24,1.12,3,3,0,0,0-.25.37.76.76,0,0,0,.35,1.17,3.29,3.29,0,0,0,.55.21,1.45,1.45,0,0,1,.93.89c.15.39.32.78.44,1.18.94,3.18,2.1,6.27,3.21,9.39a26.72,26.72,0,0,1,.87,3.06c.07.34-.05.46-.32.54a4.46,4.46,0,0,1-1.31.18c-3.81,0-7.62-.06-11.43,0a10.78,10.78,0,0,1-1.27,0,1,1,0,0,1-1-.76c-.5-1.45-1-2.88-1.55-4.32a2.94,2.94,0,0,1,.07-2.51,1.72,1.72,0,0,0,.07-.21.87.87,0,0,0,0-.14,43.89,43.89,0,0,1-5.72-.21.92.92,0,0,1,.78-1c.8-.19,1-.76,1.18-1.44a2.57,2.57,0,0,0-.42-2.25,1.68,1.68,0,0,1-.32-1.46,1.91,1.91,0,0,0,0-.59.54.54,0,0,0-.92-.39,2.11,2.11,0,0,0-.72,1,5,5,0,0,1-1.35,1.8,3.53,3.53,0,0,0-1.82-2c.35.9.64,1.7,1,2.48a1.21,1.21,0,0,1,.09.84,1.82,1.82,0,0,0,1,2.24,6.13,6.13,0,0,1,1,.54,1.71,1.71,0,0,1-1.13.32,30.36,30.36,0,0,1-4.67-.07,6.44,6.44,0,0,0-1.91,0,8.44,8.44,0,0,1-2.3,0c-.37,0-.74-.06-1.11-.06a1.51,1.51,0,0,0-1.5,1,19.53,19.53,0,0,0-1.13,3.75,20.34,20.34,0,0,1-.61,2.29c-.33.91-.56,1.09-1.52,1.1s-1.93,0-2.89,0l-9.73,0a4.1,4.1,0,0,1-1.1-.14c-.51-.14-.58-.22-.46-.72a16.7,16.7,0,0,1,.49-1.71c1.71-4.71,3.33-9.45,5-14.18A29,29,0,0,1,193.75,34c.33-.65.26-.67.92-.41a8.16,8.16,0,0,0,2,.41,4.9,4.9,0,0,1,2.7,1.3,4.62,4.62,0,0,1,.64.61,1.9,1.9,0,0,0,2.15.72c-.44-1.08-.77-2.19-2.13-2.51a2.7,2.7,0,0,1-1-.54c-.63-.5-.64-.52-.28-1.25a.55.55,0,0,0-.2-.77,5.26,5.26,0,0,0-.85-.44,16.91,16.91,0,0,1-1.62-.75,1.12,1.12,0,0,1-.67-1.46,7,7,0,0,1,.46-1.48c2.22-5.74,4.13-11.58,6.13-17.39.78-2.27,1.59-4.52,2.38-6.78a4.38,4.38,0,0,0,.41-1.08c0-.36.58-.45.88-.17s.27.43.58.49c.16-.63-.72-.9-.48-1.59A11.1,11.1,0,0,1,208.1.74c1.46,0,2.92.09,4.38.11,2.3,0,4.6.05,6.9,0a11.07,11.07,0,0,1,1.41,0,1.11,1.11,0,0,1,1,.72c.16.39.34.77.47,1.17C224,8.28,226.06,13.69,228,19.13q.75,2.1,1.47,4.2c.11.33.36.64.11,1-.08.12.05.33.2.44s.26.16.25.39c-.17.24-.49,0-.71.14a.15.15,0,0,0,.08.23c.32.07.69.07.73.52.51.06.29.52.44.75.46.75.55,1.63.94,2.39-.43,0-.6-.4-.87-.63a3.26,3.26,0,0,0-.71-.61c0,.46,0,.46.44.56a.59.59,0,0,1,.42.38c.13.29.3.56.4.86A1.29,1.29,0,0,0,231.69,30.48Zm-17.41-20c.12.15-.22.3,0,.44a1.4,1.4,0,0,0,.51.27c.16,0,.23-.17.17-.33a.57.57,0,0,0-.7-.37c-.06-.31-.16-.57-.56-.59a3.68,3.68,0,0,1-.7-.2.39.39,0,0,0-.48.18,1.77,1.77,0,0,1,1.16.34A3.42,3.42,0,0,0,214.28,10.46ZM212.2,8.1c-.32-.26-.67-.51-.53-1,.05-.17-.09-.21-.19-.26s-.41-.11-.53-.24-.41-.19-.66,0c.25.17.57.28.65.48.2.5.63.77.94,1.16.15.19.23,0,.31-.13.3.06.53.4.94.24a4.28,4.28,0,0,0-.57-.51C212.25,7.62,212.19,7.84,212.2,8.1Zm13.21,15.43c.1-.3-.19-.36-.32-.51s-.43-.32-.42-.58c0-.68-.58-.62-.95-.82-.18-.09-.27.07-.22.25.11.36.42.52.7.72s.59.23.7.56c-.17.14-.4,0-.57.2.39.07.7.3,1.09.16.05.29-.06.66.44.66.11,0,.18.17.2.28.06.44.36.44.69.4a1.13,1.13,0,0,1,.34,1c-.11.5.15.73.68.84.36.07.79,0,1,.44,0,.06.26,0,.4,0s0-.09,0-.1c-.39-.29-.78-.52-.5-1.16a.64.64,0,0,0-.67-.83c-.49.15-.83-.09-1.23-.19a1,1,0,0,1-.32-1.47c.15-.21.34-.48.61-.09a.15.15,0,0,0,.24,0c.29-.24.43,0,.61.17.43.38.87.74,1.3,1.11a1.08,1.08,0,0,0-.14-1.09c-.13-.17,0-.54-.41-.22-.11.09-.22,0-.24-.14s.07-.29-.1-.37c-.54.33-.66.33-1,0s-.8-.27-1,.22S226,23.6,225.41,23.53Zm-4-6.22c.07-.35.44,0,.6-.3a.63.63,0,0,0-.55-.47c-.05.36-.64.32-.61.74.21.13.39-.15.57,0,0,.12-.36.24,0,.36a4.27,4.27,0,0,0,.62.12c-.15.31-.13.55.23.7s.5.46.74.7a3.63,3.63,0,0,0,.88.78.68.68,0,0,0,.7.05c.21-.1.14-.28.17-.44s-.14-.2-.27-.24a5.25,5.25,0,0,1-.57-.13c-.13-.05-.3-.17-.12-.32.35-.3.11-.47-.12-.61A4.81,4.81,0,0,0,221.39,17.31ZM205.77,28.59a1.12,1.12,0,0,0-.13,1.49c.26.49.26.51-.21.81a.93.93,0,0,0-.45.55,1,1,0,0,1-.83.79.85.85,0,0,0-.69,1.17c.13.48,1.14,1.43,1.62,1.39a8.32,8.32,0,0,0,1.73-.16.28.28,0,0,0-.11-.29,1.41,1.41,0,0,1-.23-2,1.8,1.8,0,0,0,.26-.84c0-.22-.16-.48,0-.63a1.23,1.23,0,0,1,.71-.17c.25,0,.5,0,.74,0,.71,0,.77.1.72.78a5.93,5.93,0,0,1-.07.59,9.32,9.32,0,0,1-.83,2.59c.22,0,.52,0,.54.11.12.47.49.29.77.34s.49.09.72.16a7.13,7.13,0,0,0,4.65-.07,11.36,11.36,0,0,1,2.86-.74.7.7,0,0,0,.59-.38l.37-.65c.79-1.56,1.14-1.76,2.81-1.17a3.4,3.4,0,0,0,2.51-.05c.34-.12.42-.27.37-.58a4,4,0,0,0-.83-1.95,2,2,0,0,1-.49-1.5c0-.61-.12-.7-.7-.52a3.53,3.53,0,0,0-2,1.72c-.33.6-.61,1.24-.9,1.86a2.77,2.77,0,0,1-.45.76c-.42.42-.79.37-1.07-.14a8.18,8.18,0,0,1-.58-1.59c-1-3.33-2-6.65-2.91-10a6.31,6.31,0,0,0-.45-1.26c-.11-.22-.21-.46-.52-.45s-.41.24-.52.46a4.82,4.82,0,0,0-.36,1.05c-.25.95-.48,1.91-.74,2.86a6.31,6.31,0,0,1-.86,2.19,2.14,2.14,0,0,0-.49,1.44,1.39,1.39,0,0,1-.25,1.05,1.78,1.78,0,0,0-.39.86c-.1.36-.18.72-.27,1.08a.65.65,0,0,1-.73.57,4.85,4.85,0,0,0-1.59.29c-.59.17-.58.17-.82-.36A6.57,6.57,0,0,0,205.77,28.59Zm-4.31,10.65c.07-.41.13-.75.18-1.09,0-.13.09-.31-.09-.39a6.23,6.23,0,0,0-1.84-.74,1,1,0,0,0-1.14.73,1.18,1.18,0,0,0,1.15,1.45C200.29,39.16,200.85,39.24,201.46,39.24Zm13.31-27.76a6.09,6.09,0,0,0,1.72,1.28c.27.11.54.12.5.54,0,.25.18.35.4.25s.38-.07.41.11a.65.65,0,0,0,.43.46c.1.05.24.14.16.28-.17.31.07.39.26.48s.54.23.82.35.6.23.56.67a.31.31,0,0,0,.29.36.49.49,0,0,0,0-.67,2.38,2.38,0,0,0-.42-.42c-.48-.4-1.1-.67-1.26-1.38,0-.11-.21-.19-.34-.26a9.19,9.19,0,0,1-1.38-1.11c-.37-.32-.56-.95-1.23-.85C215.48,10.91,215.18,11.43,214.77,11.48Zm-11,15.17a.77.77,0,0,0-.84-.81.9.9,0,0,0-1,.9,1,1,0,0,0,.94.93A1,1,0,0,0,203.81,26.65ZM207.52,2.9c-.5.08-.5.08-.76-.2.13-.14.43,0,.47-.32a.46.46,0,0,0-.63.28c-.12.23,0,.37.17.51a5.17,5.17,0,0,1,1,1,9,9,0,0,0,1.79,1.9,5.27,5.27,0,0,0,.52.37,3.18,3.18,0,0,0-.69-1,2,2,0,0,1-.38-1.06c-.2,0-.23.14-.33.2s-.41,0-.39-.15c.09-.65-.35-.87-.81-1.06S207.54,3.05,207.52,2.9Zm-4.74,10.54c-.57,0-1.06.36-1.05.81a1.14,1.14,0,0,0,.93,1,.94.94,0,0,0,.89-1A.82.82,0,0,0,202.78,13.44Zm-2.33,9.42c0,.5.25.79.67.8a1.14,1.14,0,0,0,1.09-.93.81.81,0,0,0-.85-.82A.86.86,0,0,0,200.45,22.86Zm26.8-.66a6.15,6.15,0,0,0-1.05-1.42,1.67,1.67,0,0,0-.94-.56c-.24,0-.54-.08-.67.17s.07.42.16.62c0,0,0,0,.05,0,.26.22.42.52.9.47S226.72,22,227.25,22.2ZM199.2,30.35a.64.64,0,0,0,.64.74,1.06,1.06,0,0,0,1-.89.77.77,0,0,0-.74-.69A.82.82,0,0,0,199.2,30.35Zm27.26,11.93c-.52,0-.92.24-.91.56s.59.79,1,.79a.6.6,0,0,0,.63-.65C227.22,42.53,227,42.28,226.46,42.28Zm-1.53-9c0,.81.3,1.24,1,1.35a1.72,1.72,0,0,1,.21.07c.19,0,.42.12.54-.07a.52.52,0,0,0-.11-.67,1.06,1.06,0,0,0-.49-.31ZM217.86,16.3a3.33,3.33,0,0,0,.94.93c.21.17.51.32.58.54.19.56.64.61,1.08.73A10.14,10.14,0,0,0,217.86,16.3Zm9,19.17c-.28,0-.44.26-.42.65a.63.63,0,0,0,.59.61.57.57,0,0,0,.57-.47A.92.92,0,0,0,226.86,35.47Zm-5.4-15.93-.08.06a5.06,5.06,0,0,0,.64.86c.19.17-.15.26,0,.35s.5.3.75.44a.19.19,0,0,0,.26,0,.16.16,0,0,0,0-.25Zm-6.3-6.16c0,.33.05.62.33.66s.49.34.55.66a1.09,1.09,0,0,0,.24.45c.06.07.12.17.23.08a.2.2,0,0,0,.08-.26A3.09,3.09,0,0,0,215.16,13.38Zm8.24,29c-.28,0-.51-.12-.75-.15a.48.48,0,0,0-.51.23c-.11.21,0,.36.19.5a.36.36,0,0,0,.52,0C223,42.83,223.27,42.73,223.4,42.4Zm4.93-1.07a.51.51,0,0,0-.5-.44.41.41,0,0,0-.47.37.49.49,0,0,0,.53.49A.47.47,0,0,0,228.33,41.33ZM203.94,23.21c-.29,0-.61.2-.62.44a.39.39,0,0,0,.37.45.53.53,0,0,0,.61-.47A.38.38,0,0,0,203.94,23.21Zm9.36-11.73c.11-.1.08-.19,0-.23l-1.57-1.36C212,10.71,212.71,11,213.3,11.48Zm1.52,1.42a4,4,0,0,0-1.28-1.25c.1.31-.17.61.17.73A8.65,8.65,0,0,0,214.82,12.9ZM206,4.16c0,.26.34.37.38.59.07.44.35.54.69.55-.46-.24-.25-.78-.46-1.19C206.4,4.79,206.21,4.05,206,4.16Zm3.14,3.11c-.34-.22-.42-.75-.92-.79C208.46,6.82,208.59,7.27,209.13,7.27ZM224.91,39a2.82,2.82,0,0,0-.75-1A2.82,2.82,0,0,0,224.91,39ZM205.48,3.69c-.18-.32-.27-.51-.39-.68s-.26-.06-.36,0,0,.2.1.27Zm7.14,5a.87.87,0,0,0,.76.66C213.13,9.19,213.07,8.81,212.62,8.7Zm16.59,19.45c.25,0,.24-.19.33-.27s.22-.07.11-.2a.23.23,0,0,0-.11-.09c-.15-.05-.14.07-.17.16S229.28,28,229.21,28.15ZM210.38,8.57c.12.32.13.55.41.59,0,0,.13,0,.13-.05,0-.26-.2-.33-.36-.46Z"/><path class="cls-1" d="M46.39,9.74c.11.66.11.66-.56.69a.45.45,0,0,0-.34.12c-.33.36-.57.14-.78-.13s-.29-.46-.45-.68a.89.89,0,0,0-1-.37,1.9,1.9,0,0,1-1.64-.2A1.3,1.3,0,0,0,41.24,9c-.2-.07-.34,0-.35.22a3.06,3.06,0,0,0,.17.95.31.31,0,0,0,.33.24,2.84,2.84,0,0,1,.51.05.69.69,0,0,1,.46,1.09,1.63,1.63,0,0,1-1.75.8c0-.23.09-.43.14-.64a1.46,1.46,0,0,0-.06-.8.59.59,0,0,0-.63-.43.56.56,0,0,0-.52.61c0,.3.06.59.09,1-.88-.26-1.38.26-1.83.87a1.15,1.15,0,0,1-1,.47L35,13.27c-.21,0-.32-.11-.34-.31a1.07,1.07,0,0,0-.22-.55c-.33-.44-.93-.45-1,.05-.2.78-.67.95-1.36,1-.41,0-.64.41-.61.89A3.62,3.62,0,0,1,31,16.44a.69.69,0,0,0,0,.72,4,4,0,0,1,.43,2.51c-.1,1.21-.08,2.42-.07,3.63a5.72,5.72,0,0,1,0,.59c-.06.75-.11.79-.86.87a2.74,2.74,0,0,0-1.22.29,1.15,1.15,0,0,0-.63,1.09,1,1,0,0,0,.72.93,3.88,3.88,0,0,0,1.38.26.57.57,0,0,1,.58.54c0,.1,0,.2,0,.29,0,1.49.06,3,.06,4.45a3.07,3.07,0,0,1-.25,1.3,1.23,1.23,0,0,0,0,1,2.28,2.28,0,0,1,.2,1.3,16.56,16.56,0,0,0-.05,4.22.9.9,0,0,1-.09.64,2.77,2.77,0,0,0-.64,2.11.26.26,0,0,1-.26-.28c0-.24-.07-.33-.36-.29s-.55-.47-1-.5c-.08,0-.06-.17,0-.26s.29,0,.33-.23l-.16,0c-.26,0-.55.19-.78,0a5.7,5.7,0,0,1-.71-.76c-.08-.09,0-.18,0-.25.32-.23.42-.51.08-.78s-.58,0-.79.25c0,0-.05,0-.14,0a1.92,1.92,0,0,0-1.7-.91,4,4,0,0,0,1.15,1.32c-.1.24-.31.16-.46.21a1.53,1.53,0,0,0-.81.6.85.85,0,0,0,.19,1.19,1.08,1.08,0,0,0,1.56-.08c.17-.19.28-.21.57-.19a1.68,1.68,0,0,1,1,.45c.19.14.42.49.64,0,.05-.11.26,0,.31.08a2.53,2.53,0,0,1,.12.53c.3,0,.17-.29.34-.39a.48.48,0,0,1,.06.7c-.1.15-.08.29.09.36s.2-.09.22-.21.08-.21.18-.18a.34.34,0,0,1,.22.18.94.94,0,0,0,.65.95c.16.06.14.25.13.4-.19,2.2.16,4.4,0,6.59,0,.35-.09.69-.14,1s-.24.37-.48.21a1.44,1.44,0,0,0-1.34-.11,2.57,2.57,0,0,1-1.32,0l-.51-.11c-.66-.13-.93,0-1.14.6a1,1,0,0,1-1,.79c-.31,0-.63.1-.95.09-1.78,0-3.56,0-5.35.07a11.63,11.63,0,0,1-1.18,0c-.79-.06-1.07-.31-1.11-1.11a19.27,19.27,0,0,1,0-2.52c.21-2.14.1-4.29.1-6.44,0-3.46-.07-6.92-.06-10.38,0-4.26.08-8.51.11-12.76a20.63,20.63,0,0,0-.11-2.22,4.17,4.17,0,0,1,.54-2.63A3.19,3.19,0,0,0,18,13.79a1.79,1.79,0,0,0-2.84-1.23c-1.34,1.09-2.83,1-4.35.94s-2.89-.43-4.34-.58a6.93,6.93,0,0,0-3.07.28A2.1,2.1,0,0,1,2,13.32c-.31-.1-.51-.25-.42-.58A1.27,1.27,0,0,0,1,11.38C.89,11.24.75,11.09.6,11A1.67,1.67,0,0,1,0,9.58C0,8.94,0,8.3,0,7.66c0-1.51,0-3,0-4.53,0-.42,0-.84,0-1.26C.13.82.2.76,1.22.71c1.65-.07,3.3-.23,5-.18a3.7,3.7,0,0,1,2.66.91,2,2,0,0,0,.55.37.88.88,0,0,0,1.09-.17,1.67,1.67,0,0,0,.25-.28,1.84,1.84,0,0,1,2-.82,8.66,8.66,0,0,1,1,.16,4.37,4.37,0,0,0,2.63,0A1,1,0,0,1,16.82.6,61.5,61.5,0,0,0,23.19.53a36.86,36.86,0,0,1,5,.15,5.66,5.66,0,0,0,2.05.15A22.24,22.24,0,0,1,35.23.52,3,3,0,0,1,36.87.9a.85.85,0,0,0,.92,0A2.2,2.2,0,0,1,39.23.7,19,19,0,0,0,42.34.61a13.75,13.75,0,0,1,3.33.05,2.34,2.34,0,0,1,.71.21c.35.2.66.38,1.09.14.22-.13.41.05.51.29a4,4,0,0,1,.23,1.45c0,.65,0,1.29-.05,1.93,0,.37.14.82,0,1.09s-.1.67-.18,1c-.12.52-.2.58-.8.6-.21,0-.46-.24-.61.21-.1.29-.58.14-.67-.22A2.36,2.36,0,0,0,45.09,6c-.64-.5-1.21-.28-1.29.54-.06.56,0,1.13-.1,1.7,0,.29.17.35.36.36a1.39,1.39,0,0,0,.71-.2l.64-.38c.23-.14.41-.13.56.11a1.11,1.11,0,0,0,.68.53c.28.07.48.81.33,1S46.58,9.66,46.39,9.74ZM40,8.51A1.14,1.14,0,0,0,39.84,8a1.21,1.21,0,0,0-1.1-1A.86.86,0,0,1,38.53,7a.44.44,0,0,1-.35-.42.54.54,0,0,1,.29-.48.89.89,0,0,1,1,.09,4.28,4.28,0,0,0,1.2.74,1.49,1.49,0,0,1,1.06.67.51.51,0,0,0,.72.2.58.58,0,0,0,.28-.7,3.61,3.61,0,0,0-.26-.69,1,1,0,0,1,.09-1.23c.4-.47,0-.85-.42-1a2,2,0,0,0-1,.1c-.5.11-.51.12-.57-.41,0-.18,0-.33-.22-.42a1.76,1.76,0,0,1-.65-.59,1.17,1.17,0,0,0-1.25-.42A1.91,1.91,0,0,1,37,2.27a1.4,1.4,0,0,0-.94-.12,1,1,0,0,0-.83.64.81.81,0,0,0,.31.92,1,1,0,0,1,.27,1.55.57.57,0,0,0,.15.79l.39.34c.22.19.5.34.63.62s-.15.54-.27.79a1,1,0,0,0,0,.14.5.5,0,0,0,.63.64,1.58,1.58,0,0,0,.6-.28,1.12,1.12,0,0,1,1.26-.05A1.37,1.37,0,0,0,40,8.51ZM21.07,41.62a1.81,1.81,0,0,0,1.08-.39,1.59,1.59,0,0,1,1.32-.32c.45.14.61-.11.68-.44a3.37,3.37,0,0,1,.44-1,1.85,1.85,0,0,0,.19-.48.59.59,0,0,0-.19-.67.63.63,0,0,0-.76,0,2.06,2.06,0,0,0-.57.57,1.35,1.35,0,0,1-1.8.55,1.11,1.11,0,0,0-.36-.08,1.14,1.14,0,0,0-1.32,1.08A1.2,1.2,0,0,0,21.07,41.62Zm7.48-30.4a.94.94,0,0,0-.27-.69A1.73,1.73,0,0,0,26,10.15a3.85,3.85,0,0,0-1,1.61c-.23.73.16,1.21.9,1A21.57,21.57,0,0,0,28,12.12.83.83,0,0,0,28.55,11.22ZM25,52.45a2.15,2.15,0,0,0,.36-.05,1,1,0,0,0,.79-1.34c-.16-.57-.58-.78-1.27-.61a2,2,0,0,0-.35.11,1,1,0,0,0-.69,1.09C23.94,52.14,24.35,52.44,25,52.45ZM18.15,19.68a1,1,0,0,0,.88,1,1.06,1.06,0,0,0,1-1.06.82.82,0,0,0-.83-.84A1,1,0,0,0,18.15,19.68ZM11.9,7.36a.7.7,0,0,0,.71.76.93.93,0,0,0,.86-.93.71.71,0,0,0-.72-.75A.89.89,0,0,0,11.9,7.36ZM38.05,9.28a3,3,0,0,0-.39,0c-.28.07-.56.18-.58.49s.21.53.53.61A1.77,1.77,0,0,0,39,10.22c.31-.17.32-.43,0-.65A1.55,1.55,0,0,0,38.05,9.28Zm-8.22,37a.89.89,0,0,0-.06-.2.67.67,0,0,0-.95-.24.76.76,0,0,0-.41,1,.32.32,0,0,0,.1.1.71.71,0,0,0,.77,0A.87.87,0,0,0,29.83,46.31Zm-11.38-30a1,1,0,0,0,.15.63c.16.27.37.49.71.36s.35-.42.3-.73a1,1,0,0,0-.32-.56c-.15-.12-.29-.3-.51-.22A.56.56,0,0,0,18.45,16.34Zm9.8,33c0,.2,0,.43.25.46a1.45,1.45,0,0,0,1-.59c.1-.23.16-.49-.06-.68a.57.57,0,0,0-.68-.07A1.11,1.11,0,0,0,28.25,49.3ZM40.55,2.58A.52.52,0,0,0,41,2a.83.83,0,0,0-.81-.79.49.49,0,0,0-.52.5A1.07,1.07,0,0,0,40.55,2.58ZM20.34,28c-.31,0-.7.31-.68.54a.78.78,0,0,0,.72.52c.29,0,.46-.14.45-.45A.56.56,0,0,0,20.34,28Zm4.48-12.35a.67.67,0,0,0,.71-.51c0-.25-.21-.42-.58-.42a.65.65,0,0,0-.67.46C24.26,15.46,24.49,15.67,24.82,15.67Zm.72,20.17a.56.56,0,0,0-.46-.58.53.53,0,0,0-.6.49.44.44,0,0,0,.4.51A.56.56,0,0,0,25.54,35.84Zm-.4-4.22c0-.36-.13-.53-.44-.54s-.66.22-.64.46a.69.69,0,0,0,.64.51C25,32.07,25.15,31.92,25.14,31.62ZM20.28,45.75a.39.39,0,0,0-.39.43.42.42,0,0,0,.45.46c.28,0,.35-.24.34-.48S20.56,45.74,20.28,45.75ZM9.64,3c-.29,0-.53.21-.49.43a.34.34,0,0,0,.37.28A.42.42,0,0,0,10,3.28C10,3.06,9.82,3,9.64,3Zm9.73,29.86c.42.82.47.85.93.75-.13-.15-.33-.18-.42-.37S19.73,32.82,19.37,32.87Z"/><path class="cls-1" d="M105.75,49.63c0,.11-.06.31.12.29s.65,0,.8-.37a.81.81,0,0,1,.42-.39,3.15,3.15,0,0,1,.08,1.13c0,1.11,0,2.22-.09,3.33,0,.45-.13.51-.55.31a3.3,3.3,0,0,1-.32-.18.85.85,0,0,0-1.15.13,2.23,2.23,0,0,1-1.63.73,19.18,19.18,0,0,1-4.73-.09,9.08,9.08,0,0,0-3.37.06,7.35,7.35,0,0,1-1.62.09c-.64,0-.83-.2-.94-.82A19.76,19.76,0,0,1,92.68,51c0-.27.23-.36.38-.51s.41-.1.6,0a.53.53,0,0,1,.46-.3.33.33,0,0,1,.33.34,3.56,3.56,0,0,0,.41,1.1c.21.51.53.68,1,.57a.88.88,0,0,0,.62-1,.65.65,0,0,0-.09-.35c-.21-.28-.18-.5.11-.67s.3-.44.6-.17c.08.07.17,0,.26-.07.29-.09.25.14.26.3a2.05,2.05,0,0,1-.67.27c-.11,0-.15.12-.09.22a.13.13,0,0,0,.19,0l.66-.43a6.66,6.66,0,0,1,1.63-.67c-.09.29-.41.36-.54.67.46,0,.76-.45,1.22-.39.1.26-.31.26-.26.51.26,0,.38-.18.53-.33a1.16,1.16,0,0,1,.53-.37c-.1.38-.55.49-.5,1a10.26,10.26,0,0,1,1.33-.86c.2-.13.38-.3.42.12,0,0,.13.06.19,0s.09-.1.07-.18-.08-.36.14-.21.29.27.45,0a.26.26,0,0,1,.44,0c.16.32.32.3.54.1a.55.55,0,0,1,.88,0,.39.39,0,0,0,.59,0,.41.41,0,0,1,.41-.12Zm-7.63,3c.26,0,.46-.15.48-.44s-.18-.33-.39-.35a.43.43,0,0,0-.48.43C97.74,52.48,97.88,52.58,98.12,52.6Z"/><path class="cls-1" d="M189.7,65.43l.46.18a1.67,1.67,0,0,1,1.23,1.66,1.93,1.93,0,0,1-1.14,1.84,4.17,4.17,0,0,1-1.58.35c-1.19,0-2.37,0-3.56,0-.37,0-.47-.14-.46-.48,0-2.27,0-4.54,0-6.81,0-.26,0-.52.36-.51a33.53,33.53,0,0,1,4.37.11,1.84,1.84,0,0,1,1.71,2.1A1.79,1.79,0,0,1,189.7,65.43Zm-1.94.79h-.89c-.16,0-.31,0-.31.23,0,.49-.19,1,.07,1.45s.74.08,1.13.11a2.91,2.91,0,0,0,.59,0,2.79,2.79,0,0,0,.57-.14.83.83,0,0,0,.48-1,.69.69,0,0,0-.75-.66C188.35,66.21,188.06,66.22,187.76,66.22Zm-.2-1.48a7.3,7.3,0,0,0,.81,0,.79.79,0,0,0,.77-.83c0-.44-.26-.69-.77-.74s-.88,0-1.32,0-.53,0-.52.55C186.54,65,186.36,64.73,187.56,64.74Z"/><path class="cls-1" d="M208.42,65.42l.39.17a1.7,1.7,0,0,1,1.29,1.69,2,2,0,0,1-1.29,1.9,4.29,4.29,0,0,1-1.45.28c-1.16,0-2.33,0-3.49,0-.34,0-.49-.09-.49-.46q0-3.44,0-6.89c0-.24,0-.46.34-.45a35.54,35.54,0,0,1,4.38.11,1.84,1.84,0,0,1,1.7,2.11A1.76,1.76,0,0,1,208.42,65.42Zm-1.95.8h0c-.27,0-.55,0-.82,0s-.38.09-.41.38c-.11,1.42-.12,1.42,1.3,1.42h.22a1.84,1.84,0,0,0,.87-.15.83.83,0,0,0,.48-1,.7.7,0,0,0-.75-.66C207.06,66.21,206.77,66.22,206.47,66.22Zm-.23-1.47a7.48,7.48,0,0,0,.82,0,.78.78,0,0,0,.79-.8c0-.46-.26-.73-.81-.77a11.62,11.62,0,0,0-1.18,0c-.61,0-.63,0-.62.6C205.25,65,205.07,64.73,206.24,64.75Z"/><path class="cls-1" d="M229.35,69.46a.82.82,0,0,1,.1-.64l2.4-6.52c.23-.61.24-.62.9-.61,1.66,0,1.21-.27,1.8,1.23.76,1.93,1.47,3.87,2.2,5.81a1.88,1.88,0,0,1,.19.73c-.6,0-1.21,0-1.81,0-.28,0-.29-.28-.36-.48-.25-.7-.25-.7-1-.7-.54,0-1.08,0-1.63,0-.35,0-.55.1-.63.45,0,.17-.11.33-.16.5a.3.3,0,0,1-.31.25Zm3.83-5.61-.14,0c-.27,1-.64,1.93-.83,3a10.5,10.5,0,0,0,1.86,0C233.76,65.75,233.47,64.8,233.18,63.85Z"/><path class="cls-1" d="M218.23,69.47c-.56,0-1.08,0-1.6,0a.48.48,0,0,1-.56-.44,2.35,2.35,0,0,1-.11-.35c-.05-.35-.27-.42-.58-.41-.64,0-1.28,0-1.93,0a.54.54,0,0,0-.63.46c0,.12-.07.24-.1.36a.44.44,0,0,1-.52.39c-.51,0-1,0-1.52,0-.17-.21,0-.37,0-.52.83-2.24,1.67-4.48,2.47-6.73a.67.67,0,0,1,.81-.53c.46.05,1-.18,1.37.11s.37.79.53,1.2Q217,65.86,218,68.74A2.08,2.08,0,0,1,218.23,69.47Zm-3.87-5.81c-.29,1.15-.69,2.09-.86,3.13a7.65,7.65,0,0,0,1.85,0C215,65.75,214.81,64.76,214.36,63.66Z"/><path class="cls-1" d="M199.63,61.69c-.61.85-1.12,1.57-1.62,2.3a9.21,9.21,0,0,0-1.27,1.89,7.52,7.52,0,0,0-.08,2.28c0,.41.18.94-.1,1.21s-.84.1-1.28.11-.57,0-.58-.57c0-.84,0-1.68,0-2.51a1.61,1.61,0,0,0-.33-1c-.73-1-1.43-2-2.15-3a1.32,1.32,0,0,1-.33-.66c.66,0,1.31,0,2,0,.23,0,.31.21.42.37.43.72.88,1.43,1.31,2.13.29,0,.32-.22.42-.37.36-.56.71-1.12,1-1.7a.76.76,0,0,1,.77-.45C198.37,61.71,198.91,61.69,199.63,61.69Z"/><path class="cls-1" d="M238.37,66.32c0-.77,0-1.54,0-2.3s.07-.77-.81-.78c-.28,0-.55,0-.82,0s-.38-.07-.37-.33a.17.17,0,0,0,0-.07c-.09-1.15-.09-1.15,1-1.15h4.23c.71,0,.71,0,.71.74s.07.81-.79.81c-1.22,0-1.22,0-1.22,1.2,0,1.49,0,3,0,4.45,0,.58,0,.58-.56.59-.3,0-.6,0-.89,0s-.53-.11-.52-.51C238.39,68.1,238.37,67.21,238.37,66.32Z"/><path class="cls-1" d="M223.62,63.12a1.35,1.35,0,0,1-.79.12c-1.19,0-1.19,0-1.19,1.23v4.22c0,.18,0,.35,0,.52a.26.26,0,0,1-.29.27h-1.41c-.28,0-.29-.21-.29-.42V63.94c0-.76.05-.7-.73-.7-.3,0-.6,0-.89,0s-.35-.09-.38-.34c-.15-1.12-.07-1.21,1.06-1.21h4.23a1.19,1.19,0,0,1,.72.09Z"/><path class="cls-1" d="M229.87,61.76c0,.27,0,.54,0,.81,0,.66,0,.66-.63.67h-.52c-.95,0-.85-.09-.86.89v5c0,.27-.11.4-.39.39a10.46,10.46,0,0,0-1.12,0c-.4,0-.49-.16-.49-.53,0-1.63,0-3.25,0-4.88a1.68,1.68,0,0,0-.08-.8,8.17,8.17,0,0,0-1.85-.05.13.13,0,0,0-.07-.09c0-.32,0-.64,0-1s.15-.47.49-.46Z"/><path class="cls-1" d="M252.15,71.06c-.22.64-.45,1.28-.66,1.93-.1.32-.24.49-.61.48a.6.6,0,0,1-.69-.49c-.2-.68-.45-1.35-.69-2h-.15v1.32c0,.25,0,.49,0,.74s-.11.46-.43.43h-.22c-.53,0-.54,0-.55-.53,0-.94,0-1.88,0-2.81,0-.25,0-.5,0-.74s.14-.45.48-.46c1.23,0,1.23,0,1.66,1.1.15.4.3.78.46,1.17,0,0,.07.06.16.13.24-.63.49-1.23.68-1.85a.68.68,0,0,1,.81-.55c1.3,0,1.09-.19,1.1,1.08,0,.92,0,1.83,0,2.74,0,.72,0,.72-.59.72s-.61,0-.61-.69v-1.7Z"/><path class="cls-1" d="M245.6,68.93h1.48c.39,0,.34.27.34.51s.05.5-.35.5-.58-.12-.77.09-.08.57-.08.86c0,.69,0,1.38,0,2.06,0,.38-.11.56-.5.51h-.37c-.35,0-.49-.1-.48-.46,0-.84,0-1.67,0-2.51,0-.53,0-.53-.51-.55h-.22c-.46,0-.45,0-.47-.53,0-.33.07-.51.45-.49s1,0,1.48,0Z"/><path class="cls-1" d="M56.54,10.43a7.11,7.11,0,0,1,0-2.06c0-.23,0-.47.39-.44s.15-.41.29-.6c.36.32.4.57.06.74s-.24.26-.28.45A6.8,6.8,0,0,1,56.54,10.43Z"/><path class="cls-1" d="M97.46,48.56c.1,0,.17.13.09.2s-.15,0-.2-.11Z"/><polygon class="cls-1" points="105.75 49.64 105.76 49.62 105.75 49.63 105.75 49.64"/></g></g></svg>