<svg xmlns="http://www.w3.org/2000/svg" viewBox="0 0 184.97 86.8"><defs><style>.a{fill:#fff;}</style></defs><path class="a" d="M156.43,176.8c.38,6.67-1.92,12.13-7.13,16.26a17.61,17.61,0,0,1-11.76,3.79,18.3,18.3,0,0,1-17.74-19.27,17.78,17.78,0,0,1,7-13.5,18.24,18.24,0,0,1,14.89-3.58c0-.75-.09-1.46-.14-2.17q-.3-4-.62-7.9c-.2-2.58-.41-5.16-.61-7.74s-.39-5.13-.58-7.69c-.08-1.08-.14-2.17-.25-3.25a9.58,9.58,0,0,1,8.85-10.44c4-.27,7.94-.62,11.91-.93l10.51-.8,10.5-.84c3-.24,6.1-.45,9.15-.69l10.51-.83,9.09-.7,7.58-.62c1.64-.13,3.28-.24,4.92-.38,2.09-.17,4.18-.37,6.27-.53.43,0,.52-.25.48-.6,0-.54-.09-1.08-.14-1.65.56-.06,1.07-.13,1.59-.17,2.56-.19,5.12-.37,7.68-.57l9.08-.74c2.09-.16,4.19-.29,6.28-.45l6.32-.52c1-.08,2.06-.14,3.08-.23a.54.54,0,0,1,.68.57c0,.38,0,.76.06,1.14a.46.46,0,0,0,.57.48l3.36-.23,3.67-.29,6.55-.49,6.18-.47c2.13-.15,4.26-.32,6.39-.44a9.49,9.49,0,0,1,9.67,8.07c.31,2.62.45,5.26.66,7.9s.41,5.16.61,7.74.39,5.12.59,7.69.42,5.19.61,7.79.46,5,.45,7.58a9.33,9.33,0,0,1-7.28,8.78,35.05,35.05,0,0,1-4.09.46c-2.62.23-5.24.42-7.85.63l-6.28.49-6.22.53c-.89.07-1.79.16-2.69.21-.39,0-.51.22-.48.57s.07.83.11,1.24-.1.51-.49.54l-13.75,1.09-12.08.91q-3.79.28-7.58.6c-.61,0-.77-.07-.79-.67-.05-1.76,0-1.58-1.7-1.44-2.16.18-4.33.29-6.49.45l-9.09.71-7.75.57-9.15.71-7.58.58-7.9.61-7.64.58-7.85.62-7.69.58Zm40.27-40.67a1.07,1.07,0,0,1-.15-.17c-.33-.66-.6-1.36-1-2-2.89-4.74-7-7.31-12.67-6.89a14.47,14.47,0,0,0-12.53,8.54,17.85,17.85,0,0,0-.94,13.18,35.17,35.17,0,0,0,7.81,13.9,30.58,30.58,0,0,0,2.45,2.38,1.05,1.05,0,0,0,1.27.14,1,1,0,0,0,.6-1.07c0-.48-.06-1-.1-1.46q-.47-5.59-.94-11.2a1.07,1.07,0,0,1,.93-1.24,1,1,0,0,1,1.17,1c.27,3.25.53,6.5.8,9.75.15,1.79.29,3.57.45,5.36.07.76.5,1.16,1.14,1.1s.9-.55.83-1.29c-.17-1.86-.32-3.72-.47-5.58l-.93-11.09a1.12,1.12,0,0,1,0-.37,1,1,0,0,1,1.1-.78,1.09,1.09,0,0,1,1,1.09c.08,1.07.17,2.13.25,3.2.25,2.88.49,5.77.74,8.66.14,1.71.28,3.42.44,5.14a.93.93,0,0,0,1,.86.9.9,0,0,0,.91-1,4.75,4.75,0,0,0,0-.65l-.3-3.46-.6-7.14c-.19-2.24-.39-4.48-.57-6.71a1,1,0,0,1,.59-1.08.87.87,0,0,1,1.14.17,2.17,2.17,0,0,1,.44,1.06c.16,1.46.25,2.92.37,4.38.25,2.89.49,5.77.74,8.66.13,1.48.24,3,.39,4.43a.92.92,0,0,0,1,.94c.57-.06.87-.43.82-1.13-.11-1.62-.23-3.25-.37-4.87-.2-2.42-.41-4.83-.61-7.25-.17-1.93-.32-3.86-.5-5.78a1.1,1.1,0,1,1,2.18-.26l.75,8.76c.26,3.08.51,6.16.77,9.25a.95.95,0,1,0,1.89-.13c0-.51-.08-1-.12-1.52l-.63-7.35c-.17-1.95-.34-3.89-.5-5.84-.1-1.17-.22-2.35-.23-3.52a1.28,1.28,0,0,1,.6-.92,1.39,1.39,0,0,1,1.05.07c.5.22.49.77.53,1.23.23,2.61.45,5.23.66,7.84q.4,4.84.79,9.69a1,1,0,0,0,1.09,1c.56,0,.84-.38.8-1.07-.1-1.51-.23-3-.36-4.54-.2-2.38-.41-4.76-.61-7.14-.18-2-.34-4.11-.53-6.16a1.24,1.24,0,0,1,1-1.43,1.16,1.16,0,0,1,1.2,1.2c0,.64.08,1.27.14,1.9q.3,3.7.62,7.41c.17,1.91.32,3.82.51,5.73.1,1,.26,2.05.39,3.08.08.59.56.5.93.49a.57.57,0,0,0,.6-.68c-.08-.53.33-1.1-.13-1.6,0,0,0-.14,0-.21a5.17,5.17,0,0,0,.07-1c-.15-2-.33-3.93-.5-5.89l-.51-6c-.09-1.17-.19-2.35-.24-3.52a1,1,0,0,1,1-1.09,1.08,1.08,0,0,1,1.12.9c.08.48.11,1,.15,1.46.21,2.43.41,4.86.62,7.3.13,1.55.26,3.1.41,4.65,0,.47.2.93.24,1.4,0,.63,0,1.27,0,1.91,0,.08.08.16.11.24s.13.27.09.35c-.26.5,0,.82.31,1.19s.87.52,1.22,0c.52-.78-.09-1.59,0-2.39,0,0-.06,0-.06-.09a2.71,2.71,0,0,1,0-.41c0-.64,0-1.28,0-1.93,0-.06-.09-.12-.1-.19a2.32,2.32,0,0,1-.06-.45,9.69,9.69,0,0,0,0-1.07c-.08-1.1-.19-2.2-.29-3.3-.13-1.51-.27-3-.39-4.54-.1-1.17-.2-2.35-.25-3.52a1.1,1.1,0,0,1,1.08-1.08,1.11,1.11,0,0,1,1.09,1c.07.73.11,1.47.17,2.21.17,1.95.33,3.9.51,5.84,0,.51.2,1,.23,1.51.05.66,0,1.31.05,2,0,.06.08.12.1.19a2.3,2.3,0,0,1,.05.45c0,.64,0,1.28.08,1.92,0,.06.08.12.09.19a4,4,0,0,1,.05.5c0,.65,0,1.29.11,1.93a1.44,1.44,0,0,0,.29.58c.2.32,1.11.42,1.3.13a1.41,1.41,0,0,0,.14-1.35c0-.11-.16-.22-.16-.33a10.39,10.39,0,0,0,0-1.85,4.45,4.45,0,0,1-.1-1.54c0-.05,0-.1,0-.15l-.27-1.81s0,0,0-.05c0-.63,0-1.27-.05-1.9,0-.08-.1-.15-.13-.23a.84.84,0,0,1-.08-.31c0-.62.07-1.25,0-1.87-.1-1.49-.23-3-.37-4.48a1.14,1.14,0,0,1,1-1.36,1.13,1.13,0,0,1,1.19,1.08c.07.71.12,1.41.2,2.11.06.47.18.93.22,1.4,0,.62,0,1.24,0,1.85,0,.05.06.1.06.15.09.61.18,1.21.26,1.82,0,0-.06.1,0,.15,0,.24,0,.48.07.71a5.46,5.46,0,0,1,0,.56,11.91,11.91,0,0,0,.11,1.9,1.49,1.49,0,0,1,.06.86,1.14,1.14,0,0,0,.09.56,1.69,1.69,0,0,1,.13.4,1,1,0,0,0,1.21,1.06c.38,0,.52-.3.71-.57.51-.71,1.1-1.36,1.58-2.1s1-1.79,1.53-2.7,1.08-2,1.52-3,.63-1.93,1-2.88a15.63,15.63,0,0,0,.71-1.9c.34-1.55.6-3.11.88-4.67,0-.11-.05-.24-.06-.36a1.19,1.19,0,0,1,0-.42,4.55,4.55,0,0,0,0-3.15.85.85,0,0,1,0-.32,6.45,6.45,0,0,0,0-.76A8.86,8.86,0,0,0,225,137c-.21-.53-.24-1.14-.44-1.68a18.75,18.75,0,0,0-.89-1.94,14.86,14.86,0,0,0-15.22-8.26c-5.1.59-8.57,3.41-10.67,8C197.35,134.1,197.06,135.11,196.7,136.13Zm-34.84-1.64.5-.1a4.76,4.76,0,0,0,3.95-5,4.68,4.68,0,0,0-5-4.27c-1.91.19-3.83.3-5.75.45-2.58.21-5.16.39-7.74.64a4.59,4.59,0,0,0-4,4.36,4.68,4.68,0,0,0,3.66,4.81c.5.1,1,.12,1.57.18.1,1.25.21,2.47.3,3.7l.69,8.82q.36,4.6.74,9.2c.2,2.48.41,5,.59,7.42a2.16,2.16,0,0,1-.23.69c-.11,0-.06.12,0,.18a18.25,18.25,0,0,1,4.71,8.2c.09.34.27.39.6.36,2.83-.24,5.66-.48,8.5-.68a4.58,4.58,0,0,0,4.4-4.34,4.63,4.63,0,0,0-3.81-4.84c-.42-.08-.85-.1-1.32-.15C163.43,154.23,162.65,144.39,161.86,134.49Zm-35.81,33.1a7,7,0,0,0,.88,5.88,1.17,1.17,0,0,1,0,.81c-.15.63-.41,1.24-.55,1.88-.2.88-.17.88-1.09.91a3.14,3.14,0,0,0-3.25,2.81,3.67,3.67,0,0,0,.54,2.35,6.65,6.65,0,0,0,5.38,3.39,1.34,1.34,0,0,1,.71.38,17.11,17.11,0,0,0,1.31,1.37c.92.7,1.91,1.3,2.87,1.95a2.16,2.16,0,0,1,.33.27,7.08,7.08,0,0,0,3.43,1.9,15.82,15.82,0,0,0,6.78.09,6.41,6.41,0,0,1,1.24,0,4.76,4.76,0,0,0,2.45-.22,13.84,13.84,0,0,0,4.2-3.64,5.35,5.35,0,0,0,.29-.51h-2.21a11.19,11.19,0,0,0,1.06-6.65,5.7,5.7,0,0,1-.29-1.42,11,11,0,0,0-.7-4.58,1.13,1.13,0,0,1,.13-1.15,6.34,6.34,0,0,0,.62-6.21,9.07,9.07,0,0,0-4.52-4.53,16.5,16.5,0,0,0-11.63-1.23,12.07,12.07,0,0,0-6.68,3.92c-.52.61-1.06,1.21-1.61,1.8a15.52,15.52,0,0,0-3.83,7.39,1.11,1.11,0,0,0,0,.31h1.77A16.34,16.34,0,0,1,126.05,167.59Zm114.61-40.66-.35-.55c-.94-1.6-1.85-3.2-2.82-4.77a5.22,5.22,0,0,0-6.3-2.58c-4.07,1.14-5.9,5.23-3.85,8.71q4.66,7.9,9.39,15.78a5.8,5.8,0,0,0,2.35,2.28,6.22,6.22,0,0,0,8.48-3.38c2.15-5.71,4.25-11.43,6.37-17.15a5.69,5.69,0,0,0,.21-3.62c-.85-3-4.64-4.94-7.86-4a5.44,5.44,0,0,0-3.49,3.6C242.08,123.14,241.39,125,240.66,126.93Zm45.43,6.37,2.28-.22c2.81-.29,5.11-1.44,6.42-4a10.89,10.89,0,0,0,.14-10,8,8,0,0,0-6.51-4.9,25.05,25.05,0,0,0-4.06,0,12.94,12.94,0,0,0-5.25,1.19,9.54,9.54,0,0,0-5.41,6,15,15,0,0,0-.22,5.55c.32,3.49.67,7,.94,10.49.36,4.47,3.77,5.88,7.07,5.31s5.28-2.86,4.85-6.54C286.23,135.24,286.18,134.31,286.09,133.3Zm-14.42,4.19c0-.38,0-.76-.07-1.14-.42-4.75-.84-9.49-1.29-14.23a6.71,6.71,0,0,0-1.71-4,7.48,7.48,0,0,0-8-1.41,6.05,6.05,0,0,0-4,5.95c0,1.21.15,2.43.25,3.63.35,3.92.74,7.82,1.05,11.74a6.61,6.61,0,0,0,8,6.17C269.62,143.45,271.8,141,271.67,137.49ZM282.2,152.1a8.26,8.26,0,0,0,.2,1.28,6.6,6.6,0,0,0,2,2.69.76.76,0,0,0,.5.1c.58,0,1.16-.08,1.74-.1.34,0,.62.09.66.48s-.19.57-.54.6a9.44,9.44,0,0,1-1.3.07,2.25,2.25,0,0,0-2,1.09,2.21,2.21,0,0,0-.4,2.23,3.54,3.54,0,0,0,3.85,2.53c2.3-.15,4.59-.34,6.86-.66a5.4,5.4,0,0,0,4.62-4c.71-2.21.5-4.2-1.3-5.87a1.43,1.43,0,0,0-1.37-.51,9,9,0,0,1-1.46.09c-.36,0-.62-.1-.65-.48s.2-.57.55-.61a7.71,7.71,0,0,1,1.35-.08c1.13.11,1.7-.62,2.25-1.4A1.91,1.91,0,0,0,298,148a3.43,3.43,0,0,0-3.56-2.81c-2.08.09-4.15.31-6.23.47a7.11,7.11,0,0,0-3.06.84C283.06,147.67,282.35,149.65,282.2,152.1Zm-29,6.67,1.48-.14c1.89-.17,3.79-.33,5.68-.54a1.14,1.14,0,0,0,1-1.44,1.17,1.17,0,0,0-1.36-1.15c-1.3.11-2.59.24-3.89.36l-3.15.26c.29-1,.69-1.34,1.57-1.43,1.81-.17,3.61-.33,5.41-.51a2.81,2.81,0,0,0,2.6-3.3,2.87,2.87,0,0,0-3.26-2.68c-1.87.19-3.75.34-5.63.52a7.9,7.9,0,0,0-5.45,2.36,8.9,8.9,0,0,0-2,8.6c1,4,4,6.41,8,6.29a67.2,67.2,0,0,0,7.08-.63,2.67,2.67,0,0,0,2.31-3.16,2.78,2.78,0,0,0-3-2.77c-1.7.12-3.39.25-5.08.47A2,2,0,0,1,253.24,158.77Zm15.88-4.19c0,.25.06.52.09.79.18,2,.34,4,.56,6a2.88,2.88,0,0,0,1.76,2.5,4,4,0,0,0,4.07-.43,3.43,3.43,0,0,0,1.22-3.45c-.18-1.82-.34-3.64-.51-5.46,0-.23,0-.46,0-.7l1.17-.14a3,3,0,0,0,2.3-1.29,3.93,3.93,0,0,0,.06-4.22,3.19,3.19,0,0,0-3.33-1.57l-8.61.73c-2.15.19-3.22,1.15-3.55,3.14a3.44,3.44,0,0,0,2.74,4A15.18,15.18,0,0,0,269.12,154.58ZM238,161.84l1.64-.16a4.53,4.53,0,0,0,4-3,6.58,6.58,0,0,0,.28-4.31c-.66-2.26-2-3.91-4.43-4.19a15.84,15.84,0,0,0-3.57.14,6.08,6.08,0,0,0-5.58,7c.24,2.32.42,4.65.63,7a3.75,3.75,0,0,0,1.09,2.65,4,4,0,0,0,4.39.34,3.26,3.26,0,0,0,1.67-3.47C238.11,163.16,238.07,162.53,238,161.84Zm-12.74-11.21c2-.68,4.25-3.76,4.13-7.09-.1-3-2.07-5.68-3.2-5.88a19.39,19.39,0,0,1,.26,6.53C226.15,146.36,225.67,148.51,225.27,150.63ZM125.6,190.14c.09.74.46,1.28,1.44,2.07a17.25,17.25,0,0,0,13.9,3.69,16.25,16.25,0,0,0,9.19-4.55,5.86,5.86,0,0,0,.77-1.2C142.39,196.89,134,196.91,125.6,190.14Zm25.14-3.84a7.44,7.44,0,0,0,1,.09c.19,0,.49-.14.55-.29.49-1.22.95-2.45,1.4-3.68,0-.13,0-.3-.06-.54Z" transform="translate(-119.77 -110.06)"/><path class="a" d="M303.22,120.23c.63,6.51,1.11,13,1.52,19.56l-.23,0q-.75-9.78-1.52-19.56Z" transform="translate(-119.77 -110.06)"/><path class="a" d="M137.16,133.14q.75,9.74,1.51,19.46l-.25,0-1.51-19.46Z" transform="translate(-119.77 -110.06)"/><path class="a" d="M125.6,190.14c8.39,6.77,16.79,6.75,25.3,0a5.86,5.86,0,0,1-.77,1.2,16.25,16.25,0,0,1-9.19,4.55,17.25,17.25,0,0,1-13.9-3.69C126.06,191.42,125.69,190.88,125.6,190.14Z" transform="translate(-119.77 -110.06)"/><path class="a" d="M150.74,186.3l2.94-4.42c0,.24.11.41.06.54-.45,1.23-.91,2.46-1.4,3.68-.06.15-.36.27-.55.29A7.44,7.44,0,0,1,150.74,186.3Z" transform="translate(-119.77 -110.06)"/></svg>